  0
SECTION
  2
HEADER
  9
$ACADVER
  1
AC1024
  9
$ACADMAINTVER
 70
6
  9
$DWGCODEPAGE
  3
ANSI_1252
  9
$LASTSAVEDBY
  1
ezdxf
  9
$INSBASE
 10
0.0
 20
0.0
 30
0.0
  9
$EXTMIN
 10
1e+20
 20
1e+20
 30
1e+20
  9
$EXTMAX
 10
-1e+20
 20
-1e+20
 30
-1e+20
  9
$LIMMIN
 10
0.0
 20
0.0
  9
$LIMMAX
 10
420.0
 20
297.0
  9
$ORTHOMODE
 70
0
  9
$REGENMODE
 70
1
  9
$FILLMODE
 70
1
  9
$QTEXTMODE
 70
0
  9
$MIRRTEXT
 70
1
  9
$LTSCALE
 40
1.0
  9
$ATTMODE
 70
1
  9
$TEXTSIZE
 40
2.5
  9
$TRACEWID
 40
1.0
  9
$TEXTSTYLE
  7
OpenSans
  9
$CLAYER
  8
0
  9
$CELTYPE
  6
ByLayer
  9
$CECOLOR
 62
256
  9
$CELTSCALE
 40
1.0
  9
$DISPSILH
 70
0
  9
$DIMSCALE
 40
1.0
  9
$DIMASZ
 40
0.175
  9
$DIMEXO
 40
0.125
  9
$DIMDLI
 40
3.75
  9
$DIMRND
 40
0.0
  9
$DIMDLE
 40
0.0
  9
$DIMEXE
 40
0.375
  9
$DIMTP
 40
0.0
  9
$DIMTM
 40
0.0
  9
$DIMTXT
 40
0.25
  9
$DIMCEN
 40
2.5
  9
$DIMTSZ
 40
0.0
  9
$DIMTOL
 70
0
  9
$DIMLIM
 70
0
  9
$DIMTIH
 70
0
  9
$DIMTOH
 70
0
  9
$DIMSE1
 70
0
  9
$DIMSE2
 70
0
  9
$DIMTAD
 70
1
  9
$DIMZIN
 70
12
  9
$DIMBLK
  1
ARCHTICK
  9
$DIMASO
 70
1
  9
$DIMSHO
 70
1
  9
$DIMPOST
  1

  9
$DIMAPOST
  1

  9
$DIMALT
 70
0
  9
$DIMALTD
 70
3
  9
$DIMALTF
 40
0.03937007874
  9
$DIMLFAC
 40
100.0
  9
$DIMTOFL
 70
1
  9
$DIMTVP
 40
0.0
  9
$DIMTIX
 70
0
  9
$DIMSOXD
 70
0
  9
$DIMSAH
 70
0
  9
$DIMBLK1
  1

  9
$DIMBLK2
  1

  9
$DIMSTYLE
  2
EZDXF
  9
$DIMCLRD
 70
0
  9
$DIMCLRE
 70
0
  9
$DIMCLRT
 70
0
  9
$DIMTFAC
 40
0.5
  9
$DIMGAP
 40
0.1
  9
$DIMJUST
 70
0
  9
$DIMSD1
 70
0
  9
$DIMSD2
 70
0
  9
$DIMTOLJ
 70
0
  9
$DIMTZIN
 70
8
  9
$DIMALTZ
 70
0
  9
$DIMALTTZ
 70
0
  9
$DIMUPT
 70
1
  9
$DIMDEC
 70
2
  9
$DIMTDEC
 70
2
  9
$DIMALTU
 70
2
  9
$DIMALTTD
 70
3
  9
$DIMTXSTY
  7
OpenSansCondensed-Light
  9
$DIMAUNIT
 70
0
  9
$DIMADEC
 70
2
  9
$DIMALTRND
 40
0.0
  9
$DIMAZIN
 70
3
  9
$DIMDSEP
 70
46
  9
$DIMATFIT
 70
3
  9
$DIMFRAC
 70
0
  9
$DIMLDRBLK
  1

  9
$DIMLUNIT
 70
2
  9
$DIMLWD
 70
-2
  9
$DIMLWE
 70
-2
  9
$DIMTMOVE
 70
2
  9
$DIMFXL
 40
1.0
  9
$DIMFXLON
 70
0
  9
$DIMJOGANG
 40
0.785398163397
  9
$DIMTFILL
 70
0
  9
$DIMTFILLCLR
 70
0
  9
$DIMARCSYM
 70
0
  9
$DIMLTYPE
  6

  9
$DIMLTEX1
  6

  9
$DIMLTEX2
  6

  9
$DIMTXTDIRECTION
 70
0
  9
$LUNITS
 70
2
  9
$LUPREC
 70
4
  9
$SKETCHINC
 40
1.0
  9
$FILLETRAD
 40
10.0
  9
$AUNITS
 70
0
  9
$AUPREC
 70
2
  9
$MENU
  1
.
  9
$ELEVATION
 40
0.0
  9
$PELEVATION
 40
0.0
  9
$THICKNESS
 40
0.0
  9
$LIMCHECK
 70
0
  9
$CHAMFERA
 40
0.0
  9
$CHAMFERB
 40
0.0
  9
$CHAMFERC
 40
0.0
  9
$CHAMFERD
 40
0.0
  9
$SKPOLY
 70
0
  9
$TDCREATE
 40
2460926.4917476852
  9
$TDUCREATE
 40
2458532.153996898
  9
$TDUPDATE
 40
2460926.4917476852
  9
$TDUUPDATE
 40
2458532.1544311
  9
$TDINDWG
 40
0.0
  9
$TDUSRTIMER
 40
0.0
  9
$USRTIMER
 70
1
  9
$ANGBASE
 50
0.0
  9
$ANGDIR
 70
0
  9
$PDMODE
 70
0
  9
$PDSIZE
 40
0.0
  9
$PLINEWID
 40
0.0
  9
$SPLFRAME
 70
0
  9
$SPLINETYPE
 70
6
  9
$SPLINESEGS
 70
8
  9
$HANDSEED
  5
9E
  9
$SURFTAB1
 70
6
  9
$SURFTAB2
 70
6
  9
$SURFTYPE
 70
6
  9
$SURFU
 70
6
  9
$SURFV
 70
6
  9
$UCSBASE
  2

  9
$UCSNAME
  2

  9
$UCSORG
 10
0.0
 20
0.0
 30
0.0
  9
$UCSXDIR
 10
1.0
 20
0.0
 30
0.0
  9
$UCSYDIR
 10
0.0
 20
1.0
 30
0.0
  9
$UCSORTHOREF
  2

  9
$UCSORTHOVIEW
 70
0
  9
$UCSORGTOP
 10
0.0
 20
0.0
 30
0.0
  9
$UCSORGBOTTOM
 10
0.0
 20
0.0
 30
0.0
  9
$UCSORGLEFT
 10
0.0
 20
0.0
 30
0.0
  9
$UCSORGRIGHT
 10
0.0
 20
0.0
 30
0.0
  9
$UCSORGFRONT
 10
0.0
 20
0.0
 30
0.0
  9
$UCSORGBACK
 10
0.0
 20
0.0
 30
0.0
  9
$PUCSBASE
  2

  9
$PUCSNAME
  2

  9
$PUCSORG
 10
0.0
 20
0.0
 30
0.0
  9
$PUCSXDIR
 10
1.0
 20
0.0
 30
0.0
  9
$PUCSYDIR
 10
0.0
 20
1.0
 30
0.0
  9
$PUCSORTHOREF
  2

  9
$PUCSORTHOVIEW
 70
0
  9
$PUCSORGTOP
 10
0.0
 20
0.0
 30
0.0
  9
$PUCSORGBOTTOM
 10
0.0
 20
0.0
 30
0.0
  9
$PUCSORGLEFT
 10
0.0
 20
0.0
 30
0.0
  9
$PUCSORGRIGHT
 10
0.0
 20
0.0
 30
0.0
  9
$PUCSORGFRONT
 10
0.0
 20
0.0
 30
0.0
  9
$PUCSORGBACK
 10
0.0
 20
0.0
 30
0.0
  9
$USERI1
 70
0
  9
$USERI2
 70
0
  9
$USERI3
 70
0
  9
$USERI4
 70
0
  9
$USERI5
 70
0
  9
$USERR1
 40
0.0
  9
$USERR2
 40
0.0
  9
$USERR3
 40
0.0
  9
$USERR4
 40
0.0
  9
$USERR5
 40
0.0
  9
$WORLDVIEW
 70
1
  9
$SHADEDGE
 70
3
  9
$SHADEDIF
 70
70
  9
$TILEMODE
 70
1
  9
$MAXACTVP
 70
64
  9
$PINSBASE
 10
0.0
 20
0.0
 30
0.0
  9
$PLIMCHECK
 70
0
  9
$PEXTMIN
 10
1e+20
 20
1e+20
 30
1e+20
  9
$PEXTMAX
 10
-1e+20
 20
-1e+20
 30
-1e+20
  9
$PLIMMIN
 10
0.0
 20
0.0
  9
$PLIMMAX
 10
420.0
 20
297.0
  9
$UNITMODE
 70
0
  9
$VISRETAIN
 70
1
  9
$PLINEGEN
 70
0
  9
$PSLTSCALE
 70
1
  9
$TREEDEPTH
 70
3020
  9
$CMLSTYLE
  2
Standard
  9
$CMLJUST
 70
0
  9
$CMLSCALE
 40
20.0
  9
$PROXYGRAPHICS
 70
1
  9
$MEASUREMENT
 70
1
  9
$CELWEIGHT
370
-1
  9
$ENDCAPS
280
0
  9
$JOINSTYLE
280
0
  9
$LWDISPLAY
290
0
  9
$INSUNITS
 70
6
  9
$HYPERLINKBASE
  1

  9
$STYLESHEET
  1

  9
$XEDIT
290
1
  9
$CEPSNTYPE
380
0
  9
$PSTYLEMODE
290
1
  9
$FINGERPRINTGUID
  2
{D9C26C2C-3B92-4709-BDDF-C0E2CDCC380E}
  9
$VERSIONGUID
  2
{E837A314-2ECC-410B-9C63-2359791A7D89}
  9
$EXTNAMES
290
1
  9
$PSVPSCALE
 40
0.0
  9
$OLESTARTUP
290
0
  9
$SORTENTS
280
127
  9
$INDEXCTL
280
0
  9
$HIDETEXT
280
1
  9
$XCLIPFRAME
280
0
  9
$HALOGAP
280
0
  9
$OBSCOLOR
 70
257
  9
$OBSLTYPE
280
0
  9
$INTERSECTIONDISPLAY
280
0
  9
$INTERSECTIONCOLOR
 70
257
  9
$DIMASSOC
280
2
  9
$PROJECTNAME
  1

  9
$CAMERADISPLAY
290
0
  9
$LENSLENGTH
 40
50.0
  9
$CAMERAHEIGHT
 40
0.0
  9
$STEPSPERSEC
 40
24.0
  9
$STEPSIZE
 40
100.0
  9
$3DDWFPREC
 40
2.0
  9
$PSOLWIDTH
 40
0.005
  9
$PSOLHEIGHT
 40
0.08
  9
$LOFTANG1
 40
1.570796326795
  9
$LOFTANG2
 40
1.570796326795
  9
$LOFTMAG1
 40
0.0
  9
$LOFTMAG2
 40
0.0
  9
$LOFTPARAM
 70
7
  9
$LOFTNORMALS
280
1
  9
$LATITUDE
 40
37.795
  9
$LONGITUDE
 40
-122.394
  9
$NORTHDIRECTION
 40
0.0
  9
$TIMEZONE
 70
-8000
  9
$LIGHTGLYPHDISPLAY
280
1
  9
$TILEMODELIGHTSYNCH
280
1
  9
$CMATERIAL
347
20
  9
$SOLIDHIST
280
0
  9
$SHOWHIST
280
1
  9
$DWFFRAME
280
2
  9
$DGNFRAME
280
2
  9
$REALWORLDSCALE
290
1
  9
$INTERFERECOLOR
 62
256
  9
$CSHADOW
280
0
  9
$SHADOWPLANELOCATION
 40
0.0
  0
ENDSEC
  0
SECTION
  2
CLASSES
  0
CLASS
  1
ACDBDICTIONARYWDFLT
  2
AcDbDictionaryWithDefault
  3
ObjectDBX Classes
 90
0
 91
0
280
0
281
0
  0
CLASS
  1
SUN
  2
AcDbSun
  3
SCENEOE
 90
1153
 91
0
280
0
281
0
  0
CLASS
  1
VISUALSTYLE
  2
AcDbVisualStyle
  3
ObjectDBX Classes
 90
4095
 91
0
280
0
281
0
  0
CLASS
  1
MATERIAL
  2
AcDbMaterial
  3
ObjectDBX Classes
 90
1153
 91
0
280
0
281
0
  0
CLASS
  1
SCALE
  2
AcDbScale
  3
ObjectDBX Classes
 90
1153
 91
0
280
0
281
0
  0
CLASS
  1
TABLESTYLE
  2
AcDbTableStyle
  3
ObjectDBX Classes
 90
4095
 91
0
280
0
281
0
  0
CLASS
  1
MLEADERSTYLE
  2
AcDbMLeaderStyle
  3
ACDB_MLEADERSTYLE_CLASS
 90
4095
 91
0
280
0
281
0
  0
CLASS
  1
DICTIONARYVAR
  2
AcDbDictionaryVar
  3
ObjectDBX Classes
 90
0
 91
0
280
0
281
0
  0
CLASS
  1
CELLSTYLEMAP
  2
AcDbCellStyleMap
  3
ObjectDBX Classes
 90
1152
 91
0
280
0
281
0
  0
CLASS
  1
MENTALRAYRENDERSETTINGS
  2
AcDbMentalRayRenderSettings
  3
SCENEOE
 90
1024
 91
0
280
0
281
0
  0
CLASS
  1
ACDBDETAILVIEWSTYLE
  2
AcDbDetailViewStyle
  3
ObjectDBX Classes
 90
1025
 91
0
280
0
281
0
  0
CLASS
  1
ACDBSECTIONVIEWSTYLE
  2
AcDbSectionViewStyle
  3
ObjectDBX Classes
 90
1025
 91
0
280
0
281
0
  0
CLASS
  1
RASTERVARIABLES
  2
AcDbRasterVariables
  3
ISM
 90
0
 91
0
280
0
281
0
  0
CLASS
  1
LAYOUT
  2
AcDbLayout
  3
ObjectDBX Classes
 90
0
 91
0
280
0
281
0
  0
CLASS
  1
ACDBPLACEHOLDER
  2
AcDbPlaceHolder
  3
ObjectDBX Classes
 90
0
 91
0
280
0
281
0
  0
ENDSEC
  0
SECTION
  2
TABLES
  0
TABLE
  2
VPORT
  5
8
330
0
100
AcDbSymbolTable
 70
1
  0
VPORT
  5
23
330
8
100
AcDbSymbolTableRecord
100
AcDbViewportTableRecord
  2
*Active
 70
0
 10
0.0
 20
0.0
 11
1.0
 21
1.0
 12
0.0
 22
0.0
 13
0.0
 23
0.0
 14
0.5
 24
0.5
 15
0.5
 25
0.5
 16
0.0
 26
0.0
 36
1.0
 17
0.0
 27
0.0
 37
0.0
 40
1000.0
 41
1.34
 42
50.0
 43
0.0
 44
0.0
 50
0.0
 51
0.0
 71
0
 72
1000
 73
1
 74
3
 75
0
 76
0
 77
0
 78
0
281
0
 65
0
146
0.0
  0
ENDTAB
  0
TABLE
  2
LTYPE
  5
2
330
0
100
AcDbSymbolTable
 70
21
  0
LTYPE
  5
24
330
2
100
AcDbSymbolTableRecord
100
AcDbLinetypeTableRecord
  2
ByBlock
 70
0
  3

 72
65
 73
0
 40
0.0
  0
LTYPE
  5
25
330
2
100
AcDbSymbolTableRecord
100
AcDbLinetypeTableRecord
  2
ByLayer
 70
0
  3

 72
65
 73
0
 40
0.0
  0
LTYPE
  5
26
330
2
100
AcDbSymbolTableRecord
100
AcDbLinetypeTableRecord
  2
Continuous
 70
0
  3

 72
65
 73
0
 40
0.0
  0
LTYPE
  5
2F
330
2
100
AcDbSymbolTableRecord
100
AcDbLinetypeTableRecord
  2
CENTER
 70
0
  3
Center ____ _ ____ _ ____ _ ____ _ ____ _ ____
 72
65
 73
4
 40
5.08
 49
3.175
 74
0
 49
-0.635
 74
0
 49
0.635
 74
0
 49
-0.635
 74
0
  0
LTYPE
  5
30
330
2
100
AcDbSymbolTableRecord
100
AcDbLinetypeTableRecord
  2
CENTERX2
 70
0
  3
Center (2x) ________  __  ________  __  ________
 72
65
 73
4
 40
8.89
 49
6.35
 74
0
 49
-0.635
 74
0
 49
1.27
 74
0
 49
-0.635
 74
0
  0
LTYPE
  5
31
330
2
100
AcDbSymbolTableRecord
100
AcDbLinetypeTableRecord
  2
CENTER2
 70
0
  3
Center (.5x) ____ _ ____ _ ____ _ ____ _ ____
 72
65
 73
4
 40
2.54
 49
1.587
 74
0
 49
-0.318
 74
0
 49
0.318
 74
0
 49
-0.318
 74
0
  0
LTYPE
  5
32
330
2
100
AcDbSymbolTableRecord
100
AcDbLinetypeTableRecord
  2
DASHED
 70
0
  3
Dashed __ __ __ __ __ __ __ __ __ __ __ __ __ _
 72
65
 73
2
 40
1.524
 49
1.27
 74
0
 49
-0.254
 74
0
  0
LTYPE
  5
33
330
2
100
AcDbSymbolTableRecord
100
AcDbLinetypeTableRecord
  2
DASHEDX2
 70
0
  3
Dashed (2x) ____  ____  ____  ____  ____  ____
 72
65
 73
2
 40
3.048
 49
2.54
 74
0
 49
-0.508
 74
0
  0
LTYPE
  5
34
330
2
100
AcDbSymbolTableRecord
100
AcDbLinetypeTableRecord
  2
DASHED2
 70
0
  3
Dashed (.5x) _ _ _ _ _ _ _ _ _ _ _ _ _ _
 72
65
 73
2
 40
0.762
 49
0.635
 74
0
 49
-0.127
 74
0
  0
LTYPE
  5
35
330
2
100
AcDbSymbolTableRecord
100
AcDbLinetypeTableRecord
  2
PHANTOM
 70
0
  3
Phantom ______  __  __  ______  __  __  ______
 72
65
 73
6
 40
6.35
 49
3.175
 74
0
 49
-0.635
 74
0
 49
0.635
 74
0
 49
-0.635
 74
0
 49
0.635
 74
0
 49
-0.635
 74
0
  0
LTYPE
  5
36
330
2
100
AcDbSymbolTableRecord
100
AcDbLinetypeTableRecord
  2
PHANTOMX2
 70
0
  3
Phantom (2x)____________    ____    ____    ____________
 72
65
 73
6
 40
10.795
 49
6.35
 74
0
 49
-0.635
 74
0
 49
1.27
 74
0
 49
-0.635
 74
0
 49
1.27
 74
0
 49
-0.635
 74
0
  0
LTYPE
  5
37
330
2
100
AcDbSymbolTableRecord
100
AcDbLinetypeTableRecord
  2
PHANTOM2
 70
0
  3
Phantom (.5x) ___ _ _ ___ _ _ ___ _ _ ___ _ _ ___
 72
65
 73
6
 40
3.175
 49
1.587
 74
0
 49
-0.318
 74
0
 49
0.318
 74
0
 49
-0.318
 74
0
 49
0.318
 74
0
 49
-0.318
 74
0
  0
LTYPE
  5
38
330
2
100
AcDbSymbolTableRecord
100
AcDbLinetypeTableRecord
  2
DASHDOT
 70
0
  3
Dash dot __ . __ . __ . __ . __ . __ . __ . __
 72
65
 73
4
 40
3.556
 49
2.54
 74
0
 49
-0.508
 74
0
 49
0.0
 74
0
 49
-0.508
 74
0
  0
LTYPE
  5
39
330
2
100
AcDbSymbolTableRecord
100
AcDbLinetypeTableRecord
  2
DASHDOTX2
 70
0
  3
Dash dot (2x) ____  .  ____  .  ____  .  ____
 72
65
 73
4
 40
6.096
 49
5.08
 74
0
 49
-0.508
 74
0
 49
0.0
 74
0
 49
-0.508
 74
0
  0
LTYPE
  5
3A
330
2
100
AcDbSymbolTableRecord
100
AcDbLinetypeTableRecord
  2
DASHDOT2
 70
0
  3
Dash dot (.5x) _ . _ . _ . _ . _ . _ . _ . _
 72
65
 73
4
 40
1.778
 49
1.27
 74
0
 49
-0.254
 74
0
 49
0.0
 74
0
 49
-0.254
 74
0
  0
LTYPE
  5
3B
330
2
100
AcDbSymbolTableRecord
100
AcDbLinetypeTableRecord
  2
DOT
 70
0
  3
Dot .  .  .  .  .  .  .  .  .  .  .  .  .  .  .  .
 72
65
 73
2
 40
0.508
 49
0.0
 74
0
 49
-0.508
 74
0
  0
LTYPE
  5
3C
330
2
100
AcDbSymbolTableRecord
100
AcDbLinetypeTableRecord
  2
DOTX2
 70
0
  3
Dot (2x) .    .    .    .    .    .    .    . 
 72
65
 73
2
 40
1.016
 49
0.0
 74
0
 49
-1.016
 74
0
  0
LTYPE
  5
3D
330
2
100
AcDbSymbolTableRecord
100
AcDbLinetypeTableRecord
  2
DOT2
 70
0
  3
Dot (.5) . . . . . . . . . . . . . . . . . . . 
 72
65
 73
2
 40
0.254
 49
0.0
 74
0
 49
-0.254
 74
0
  0
LTYPE
  5
3E
330
2
100
AcDbSymbolTableRecord
100
AcDbLinetypeTableRecord
  2
DIVIDE
 70
0
  3
Divide __ . . __ . . __ . . __ . . __ . . __
 72
65
 73
6
 40
4.064
 49
2.54
 74
0
 49
-0.508
 74
0
 49
0.0
 74
0
 49
-0.508
 74
0
 49
0.0
 74
0
 49
-0.508
 74
0
  0
LTYPE
  5
3F
330
2
100
AcDbSymbolTableRecord
100
AcDbLinetypeTableRecord
  2
DIVIDEX2
 70
0
  3
Divide (2x) ____  . .  ____  . .  ____  . .  ____
 72
65
 73
6
 40
6.604
 49
5.08
 74
0
 49
-0.508
 74
0
 49
0.0
 74
0
 49
-0.508
 74
0
 49
0.0
 74
0
 49
-0.508
 74
0
  0
LTYPE
  5
40
330
2
100
AcDbSymbolTableRecord
100
AcDbLinetypeTableRecord
  2
DIVIDE2
 70
0
  3
Divide(.5x) _ . _ . _ . _ . _ . _ . _ . _
 72
65
 73
6
 40
2.032
 49
1.27
 74
0
 49
-0.254
 74
0
 49
0.0
 74
0
 49
-0.254
 74
0
 49
0.0
 74
0
 49
-0.254
 74
0
  0
ENDTAB
  0
TABLE
  2
LAYER
  5
1
330
0
100
AcDbSymbolTable
 70
3
  0
LAYER
  5
27
330
1
100
AcDbSymbolTableRecord
100
AcDbLayerTableRecord
  2
0
 70
0
 62
7
  6
Continuous
370
-3
390
13
347
21
  0
LAYER
  5
28
330
1
100
AcDbSymbolTableRecord
100
AcDbLayerTableRecord
  2
Defpoints
 70
0
 62
7
  6
Continuous
290
0
370
-3
390
13
347
21
  0
LAYER
  5
8A
330
1
100
AcDbSymbolTableRecord
100
AcDbLayerTableRecord
  2
layer0
 70
0
 62
7
  6
Continuous
370
5
390
13
347
21
  0
ENDTAB
  0
TABLE
  2
STYLE
  5
5
330
0
100
AcDbSymbolTable
 70
26
  0
STYLE
  5
29
330
5
100
AcDbSymbolTableRecord
100
AcDbTextStyleTableRecord
  2
Standard
 70
0
 40
0.0
 41
1.0
 50
0.0
 71
0
 42
2.5
  3
txt
  4

  0
STYLE
  5
41
330
5
100
AcDbSymbolTableRecord
100
AcDbTextStyleTableRecord
  2
OpenSans-Light
 70
0
 40
0.0
 41
1.0
 50
0.0
 71
0
 42
2.5
  3
OpenSans-Light.ttf
  4

  0
STYLE
  5
42
330
5
100
AcDbSymbolTableRecord
100
AcDbTextStyleTableRecord
  2
OpenSans-Light-Italic
 70
0
 40
0.0
 41
1.0
 50
0.0
 71
0
 42
2.5
  3
OpenSans-LightItalic.ttf
  4

  0
STYLE
  5
43
330
5
100
AcDbSymbolTableRecord
100
AcDbTextStyleTableRecord
  2
OpenSans
 70
0
 40
0.0
 41
1.0
 50
0.0
 71
0
 42
2.5
  3
OpenSans-Regular.ttf
  4

  0
STYLE
  5
44
330
5
100
AcDbSymbolTableRecord
100
AcDbTextStyleTableRecord
  2
OpenSans-Italic
 70
0
 40
0.0
 41
1.0
 50
0.0
 71
0
 42
2.5
  3
OpenSans-Italic.ttf
  4

  0
STYLE
  5
45
330
5
100
AcDbSymbolTableRecord
100
AcDbTextStyleTableRecord
  2
OpenSans-SemiBold
 70
0
 40
0.0
 41
1.0
 50
0.0
 71
0
 42
2.5
  3
OpenSans-SemiBold.ttf
  4

  0
STYLE
  5
46
330
5
100
AcDbSymbolTableRecord
100
AcDbTextStyleTableRecord
  2
OpenSans-SemiBoldItalic
 70
0
 40
0.0
 41
1.0
 50
0.0
 71
0
 42
2.5
  3
OpenSans-SemiBoldItalic.ttf
  4

  0
STYLE
  5
47
330
5
100
AcDbSymbolTableRecord
100
AcDbTextStyleTableRecord
  2
OpenSans-Bold
 70
0
 40
0.0
 41
1.0
 50
0.0
 71
0
 42
2.5
  3
OpenSans-Bold.ttf
  4

  0
STYLE
  5
48
330
5
100
AcDbSymbolTableRecord
100
AcDbTextStyleTableRecord
  2
OpenSans-BoldItalic
 70
0
 40
0.0
 41
1.0
 50
0.0
 71
0
 42
2.5
  3
OpenSans-BoldItalic.ttf
  4

  0
STYLE
  5
49
330
5
100
AcDbSymbolTableRecord
100
AcDbTextStyleTableRecord
  2
OpenSans-ExtraBold
 70
0
 40
0.0
 41
1.0
 50
0.0
 71
0
 42
2.5
  3
OpenSans-ExtraBold.ttf
  4

  0
STYLE
  5
4A
330
5
100
AcDbSymbolTableRecord
100
AcDbTextStyleTableRecord
  2
OpenSans-ExtraBoldItalic
 70
0
 40
0.0
 41
1.0
 50
0.0
 71
0
 42
2.5
  3
OpenSans-ExtraBoldItalic.ttf
  4

  0
STYLE
  5
4B
330
5
100
AcDbSymbolTableRecord
100
AcDbTextStyleTableRecord
  2
OpenSansCondensed-Bold
 70
0
 40
0.0
 41
1.0
 50
0.0
 71
0
 42
2.5
  3
OpenSansCondensed-Bold.ttf
  4

  0
STYLE
  5
4C
330
5
100
AcDbSymbolTableRecord
100
AcDbTextStyleTableRecord
  2
OpenSansCondensed-Light
 70
0
 40
0.0
 41
1.0
 50
0.0
 71
0
 42
2.5
  3
OpenSansCondensed-Light.ttf
  4

  0
STYLE
  5
4D
330
5
100
AcDbSymbolTableRecord
100
AcDbTextStyleTableRecord
  2
OpenSansCondensed-Italic
 70
0
 40
0.0
 41
1.0
 50
0.0
 71
0
 42
2.5
  3
OpenSansCondensed-LightItalic.ttf
  4

  0
STYLE
  5
4E
330
5
100
AcDbSymbolTableRecord
100
AcDbTextStyleTableRecord
  2
LiberationSans
 70
0
 40
0.0
 41
1.0
 50
0.0
 71
0
 42
2.5
  3
LiberationSans-Regular.ttf
  4

  0
STYLE
  5
4F
330
5
100
AcDbSymbolTableRecord
100
AcDbTextStyleTableRecord
  2
LiberationSans-Bold
 70
0
 40
0.0
 41
1.0
 50
0.0
 71
0
 42
2.5
  3
LiberationSans-Bold.ttf
  4

  0
STYLE
  5
50
330
5
100
AcDbSymbolTableRecord
100
AcDbTextStyleTableRecord
  2
LiberationSans-BoldItalic
 70
0
 40
0.0
 41
1.0
 50
0.0
 71
0
 42
2.5
  3
LiberationSans-BoldItalic.ttf
  4

  0
STYLE
  5
51
330
5
100
AcDbSymbolTableRecord
100
AcDbTextStyleTableRecord
  2
LiberationSans-Italic
 70
0
 40
0.0
 41
1.0
 50
0.0
 71
0
 42
2.5
  3
LiberationSans-Italic.ttf
  4

  0
STYLE
  5
52
330
5
100
AcDbSymbolTableRecord
100
AcDbTextStyleTableRecord
  2
LiberationSerif
 70
0
 40
0.0
 41
1.0
 50
0.0
 71
0
 42
2.5
  3
LiberationSerif-Regular.ttf
  4

  0
STYLE
  5
53
330
5
100
AcDbSymbolTableRecord
100
AcDbTextStyleTableRecord
  2
LiberationSerif-Bold
 70
0
 40
0.0
 41
1.0
 50
0.0
 71
0
 42
2.5
  3
LiberationSerif-Bold.ttf
  4

  0
STYLE
  5
54
330
5
100
AcDbSymbolTableRecord
100
AcDbTextStyleTableRecord
  2
LiberationSerif-BoldItalic
 70
0
 40
0.0
 41
1.0
 50
0.0
 71
0
 42
2.5
  3
LiberationSerif-BoldItalic.ttf
  4

  0
STYLE
  5
55
330
5
100
AcDbSymbolTableRecord
100
AcDbTextStyleTableRecord
  2
LiberationSerif-Italic
 70
0
 40
0.0
 41
1.0
 50
0.0
 71
0
 42
2.5
  3
LiberationSerif-Italic.ttf
  4

  0
STYLE
  5
56
330
5
100
AcDbSymbolTableRecord
100
AcDbTextStyleTableRecord
  2
LiberationMono
 70
0
 40
0.0
 41
1.0
 50
0.0
 71
0
 42
2.5
  3
LiberationMono-Regular.ttf
  4

  0
STYLE
  5
57
330
5
100
AcDbSymbolTableRecord
100
AcDbTextStyleTableRecord
  2
LiberationMono-Bold
 70
0
 40
0.0
 41
1.0
 50
0.0
 71
0
 42
2.5
  3
LiberationMono-Bold.ttf
  4

  0
STYLE
  5
58
330
5
100
AcDbSymbolTableRecord
100
AcDbTextStyleTableRecord
  2
LiberationMono-BoldItalic
 70
0
 40
0.0
 41
1.0
 50
0.0
 71
0
 42
2.5
  3
LiberationMono-BoldItalic.ttf
  4

  0
STYLE
  5
59
330
5
100
AcDbSymbolTableRecord
100
AcDbTextStyleTableRecord
  2
LiberationMono-Italic
 70
0
 40
0.0
 41
1.0
 50
0.0
 71
0
 42
2.5
  3
LiberationMono-Italic.ttf
  4

  0
ENDTAB
  0
TABLE
  2
VIEW
  5
7
330
0
100
AcDbSymbolTable
 70
0
  0
ENDTAB
  0
TABLE
  2
UCS
  5
6
330
0
100
AcDbSymbolTable
 70
0
  0
ENDTAB
  0
TABLE
  2
APPID
  5
3
330
0
100
AcDbSymbolTable
 70
3
  0
APPID
  5
2A
330
3
100
AcDbSymbolTableRecord
100
AcDbRegAppTableRecord
  2
ACAD
 70
0
  0
APPID
  5
9B
330
3
100
AcDbSymbolTableRecord
100
AcDbRegAppTableRecord
  2
HATCHBACKGROUNDCOLOR
 70
0
  0
APPID
  5
9C
330
3
100
AcDbSymbolTableRecord
100
AcDbRegAppTableRecord
  2
EZDXF
 70
0
  0
ENDTAB
  0
TABLE
  2
DIMSTYLE
  5
4
330
0
100
AcDbSymbolTable
 70
12
100
AcDbDimStyleTable
  0
DIMSTYLE
105
2B
330
4
100
AcDbSymbolTableRecord
100
AcDbDimStyleTableRecord
  2
Standard
 70
0
 40
1.0
 41
2.5
 42
0.625
 43
3.75
 44
1.25
 45
0.0
 46
0.0
 47
0.0
 48
0.0
 49
2.5
140
2.5
141
2.5
142
0.0
143
0.03937007874
144
1.0
145
0.0
146
1.0
147
0.625
148
0.0
 69
0
 70
0
 71
0
 72
0
 73
0
 74
0
 75
0
 76
0
 77
1
 78
8
 79
3
170
0
171
3
172
1
173
0
174
0
175
0
176
0
177
0
178
0
179
2
271
2
272
2
273
2
274
3
275
0
276
0
277
2
278
44
279
0
280
0
281
0
282
0
283
0
284
8
285
0
286
0
288
0
289
3
290
0
371
-2
372
-2
  0
DIMSTYLE
105
73
330
4
100
AcDbSymbolTableRecord
100
AcDbDimStyleTableRecord
  2
EZDXF
 70
0
 40
1.0
 41
0.175
 42
0.125
 43
3.75
 44
0.375
 45
0.0
 46
0.0
 47
0.0
 48
0.0
 49
2.5
140
0.25
141
2.5
142
0.0
143
0.03937007874
144
100.0
145
0.0
146
0.5
147
0.1
148
0.0
 69
0
 70
0
 71
0
 72
0
 73
0
 74
0
 75
0
 76
0
 77
1
 78
12
 79
3
170
0
171
3
172
1
173
0
174
0
175
0
176
0
177
0
178
0
179
2
271
2
272
2
273
2
274
3
275
0
276
0
277
2
278
46
279
2
280
0
281
0
282
0
283
0
284
8
285
0
286
0
288
1
289
3
290
0
340
4C
342
74
371
-2
372
-2
  0
DIMSTYLE
105
7C
330
4
100
AcDbSymbolTableRecord
100
AcDbDimStyleTableRecord
  2
EZ_M_100_H25_CM
 70
0
 40
1.0
 41
0.25
 42
0.125
 43
3.75
 44
0.375
 45
0.0
 46
0.0
 47
0.0
 48
0.0
 49
2.5
140
0.25
141
2.5
142
0.125
143
0.03937007874
144
100.0
145
0.0
146
0.5
147
0.1
148
0.0
 69
0
 70
0
 71
0
 72
0
 73
0
 74
0
 75
0
 76
0
 77
1
 78
12
 79
3
170
0
171
3
172
1
173
0
174
0
175
0
176
0
177
0
178
0
179
2
271
2
272
2
273
2
274
3
275
0
276
0
277
2
278
46
279
2
280
0
281
0
282
0
283
0
284
8
285
0
286
0
288
1
289
3
290
0
340
4C
371
-2
372
-2
  0
DIMSTYLE
105
7D
330
4
100
AcDbSymbolTableRecord
100
AcDbDimStyleTableRecord
  2
EZ_M_50_H25_CM
 70
0
 40
1.0
 41
0.125
 42
0.0625
 43
3.75
 44
0.1875
 45
0.0
 46
0.0
 47
0.0
 48
0.0
 49
2.5
140
0.125
141
2.5
142
0.0625
143
0.03937007874
144
100.0
145
0.0
146
0.5
147
0.05
148
0.0
 69
0
 70
0
 71
0
 72
0
 73
0
 74
0
 75
0
 76
0
 77
1
 78
12
 79
3
170
0
171
3
172
1
173
0
174
0
175
0
176
0
177
0
178
0
179
2
271
2
272
2
273
2
274
3
275
0
276
0
277
2
278
46
279
2
280
0
281
0
282
0
283
0
284
8
285
0
286
0
288
1
289
3
290
0
340
4C
371
-2
372
-2
  0
DIMSTYLE
105
7E
330
4
100
AcDbSymbolTableRecord
100
AcDbDimStyleTableRecord
  2
EZ_M_25_H25_CM
 70
0
 40
1.0
 41
0.0625
 42
0.03125
 43
3.75
 44
0.09375
 45
0.0
 46
0.0
 47
0.0
 48
0.0
 49
2.5
140
0.0625
141
2.5
142
0.03125
143
0.03937007874
144
100.0
145
0.0
146
0.5
147
0.025
148
0.0
 69
0
 70
0
 71
0
 72
0
 73
0
 74
0
 75
0
 76
0
 77
1
 78
12
 79
3
170
0
171
3
172
1
173
0
174
0
175
0
176
0
177
0
178
0
179
2
271
2
272
2
273
2
274
3
275
0
276
0
277
2
278
46
279
2
280
0
281
0
282
0
283
0
284
8
285
0
286
0
288
1
289
3
290
0
340
4C
371
-2
372
-2
  0
DIMSTYLE
105
7F
330
4
100
AcDbSymbolTableRecord
100
AcDbDimStyleTableRecord
  2
EZ_M_20_H25_CM
 70
0
 40
1.0
 41
0.05
 42
0.025
 43
3.75
 44
0.07500000000000001
 45
0.0
 46
0.0
 47
0.0
 48
0.0
 49
2.5
140
0.05
141
2.5
142
0.025
143
0.03937007874
144
100.0
145
0.0
146
0.5
147
0.020000000000000004
148
0.0
 69
0
 70
0
 71
0
 72
0
 73
0
 74
0
 75
0
 76
0
 77
1
 78
12
 79
3
170
0
171
3
172
1
173
0
174
0
175
0
176
0
177
0
178
0
179
2
271
2
272
2
273
2
274
3
275
0
276
0
277
2
278
46
279
2
280
0
281
0
282
0
283
0
284
8
285
0
286
0
288
1
289
3
290
0
340
4C
371
-2
372
-2
  0
DIMSTYLE
105
80
330
4
100
AcDbSymbolTableRecord
100
AcDbDimStyleTableRecord
  2
EZ_M_10_H25_CM
 70
0
 40
1.0
 41
0.025
 42
0.0125
 43
3.75
 44
0.037500000000000006
 45
0.0
 46
0.0
 47
0.0
 48
0.0
 49
2.5
140
0.025
141
2.5
142
0.0125
143
0.03937007874
144
100.0
145
0.0
146
0.5
147
0.010000000000000002
148
0.0
 69
0
 70
0
 71
0
 72
0
 73
0
 74
0
 75
0
 76
0
 77
1
 78
12
 79
3
170
0
171
3
172
1
173
0
174
0
175
0
176
0
177
0
178
0
179
2
271
2
272
2
273
2
274
3
275
0
276
0
277
2
278
46
279
2
280
0
281
0
282
0
283
0
284
8
285
0
286
0
288
1
289
3
290
0
340
4C
371
-2
372
-2
  0
DIMSTYLE
105
81
330
4
100
AcDbSymbolTableRecord
100
AcDbDimStyleTableRecord
  2
EZ_M_5_H25_CM
 70
0
 40
1.0
 41
0.0125
 42
0.00625
 43
3.75
 44
0.018750000000000003
 45
0.0
 46
0.0
 47
0.0
 48
0.0
 49
2.5
140
0.0125
141
2.5
142
0.00625
143
0.03937007874
144
100.0
145
0.0
146
0.5
147
0.005000000000000001
148
0.0
 69
0
 70
0
 71
0
 72
0
 73
0
 74
0
 75
0
 76
0
 77
1
 78
12
 79
3
170
0
171
3
172
1
173
0
174
0
175
0
176
0
177
0
178
0
179
2
271
2
272
2
273
2
274
3
275
0
276
0
277
2
278
46
279
2
280
0
281
0
282
0
283
0
284
8
285
0
286
0
288
1
289
3
290
0
340
4C
371
-2
372
-2
  0
DIMSTYLE
105
82
330
4
100
AcDbSymbolTableRecord
100
AcDbDimStyleTableRecord
  2
EZ_M_1_H25_CM
 70
0
 40
1.0
 41
0.0025
 42
0.00125
 43
3.75
 44
0.00375
 45
0.0
 46
0.0
 47
0.0
 48
0.0
 49
2.5
140
0.0025
141
2.5
142
0.00125
143
0.03937007874
144
100.0
145
0.0
146
0.5
147
0.001
148
0.0
 69
0
 70
0
 71
0
 72
0
 73
0
 74
0
 75
0
 76
0
 77
1
 78
12
 79
3
170
0
171
3
172
1
173
0
174
0
175
0
176
0
177
0
178
0
179
2
271
2
272
2
273
2
274
3
275
0
276
0
277
2
278
46
279
2
280
0
281
0
282
0
283
0
284
8
285
0
286
0
288
1
289
3
290
0
340
4C
371
-2
372
-2
  0
DIMSTYLE
105
83
330
4
100
AcDbSymbolTableRecord
100
AcDbDimStyleTableRecord
  2
EZ_RADIUS
 70
0
 40
1.0
 41
0.25
 42
0.125
 43
3.75
 44
0.375
 45
0.0
 46
0.0
 47
0.0
 48
0.0
 49
2.5
140
0.25
141
0.0
142
0.0
143
0.03937007874
144
100.0
145
0.0
146
0.5
147
0.1
148
0.0
 69
0
 70
0
 71
0
 72
0
 73
0
 74
0
 75
0
 76
0
 77
1
 78
12
 79
3
170
0
171
3
172
0
173
0
174
0
175
0
176
0
177
0
178
0
179
2
271
2
272
2
273
2
274
3
275
0
276
0
277
2
278
46
279
1
280
0
281
0
282
0
283
0
284
8
285
0
286
0
288
1
289
3
290
0
340
4C
342
84
371
-2
372
-2
  0
DIMSTYLE
105
88
330
4
100
AcDbSymbolTableRecord
100
AcDbDimStyleTableRecord
  2
EZ_RADIUS_INSIDE
 70
0
 40
1.0
 41
0.25
 42
0.125
 43
3.75
 44
0.375
 45
0.0
 46
0.0
 47
0.0
 48
0.0
 49
2.5
140
0.25
141
0.0
142
0.0
143
0.03937007874
144
100.0
145
0.0
146
0.5
147
0.1
148
0.0
 69
0
 70
0
 71
0
 72
0
 73
0
 74
0
 75
0
 76
0
 77
0
 78
12
 79
3
170
0
171
3
172
0
173
0
174
1
175
0
176
0
177
0
178
0
179
2
271
2
272
2
273
2
274
3
275
0
276
0
277
2
278
46
279
0
280
0
281
0
282
0
283
0
284
8
285
0
286
0
288
1
289
0
290
0
340
4C
342
84
371
-2
372
-2
  0
DIMSTYLE
105
89
330
4
100
AcDbSymbolTableRecord
100
AcDbDimStyleTableRecord
  2
EZ_CURVED
 70
0
 40
1.0
 41
0.25
 42
0.125
 43
3.75
 44
0.375
 45
0.0
 46
0.0
 47
0.0
 48
0.0
 49
2.5
140
0.25
141
2.5
142
0.0
143
0.03937007874
144
100.0
145
0.0
146
0.5
147
0.1
148
0.0
 69
0
 70
0
 71
0
 72
0
 73
0
 74
0
 75
0
 76
0
 77
1
 78
12
 79
2
 90
2
170
0
171
3
172
1
173
0
174
0
175
0
176
0
177
0
178
0
179
2
271
2
272
2
273
2
274
3
275
0
276
0
277
2
278
46
279
2
280
0
281
0
282
0
283
0
284
8
285
0
286
0
288
1
289
3
290
0
340
4C
371
-2
372
-2
  0
ENDTAB
  0
TABLE
  2
BLOCK_RECORD
  5
9
330
0
100
AcDbSymbolTable
 70
5
  0
BLOCK_RECORD
  5
17
330
9
100
AcDbSymbolTableRecord
100
AcDbBlockTableRecord
  2
*Model_Space
340
1A
 70
0
280
1
281
0
  0
BLOCK_RECORD
  5
1B
330
9
100
AcDbSymbolTableRecord
100
AcDbBlockTableRecord
  2
*Paper_Space
340
1E
 70
0
280
1
281
0
  0
BLOCK_RECORD
  5
74
330
9
100
AcDbSymbolTableRecord
100
AcDbBlockTableRecord
  2
_ARCHTICK
340
0
 70
0
280
1
281
0
  0
BLOCK_RECORD
  5
78
330
9
100
AcDbSymbolTableRecord
100
AcDbBlockTableRecord
  2
_CLOSEDFILLED
340
0
 70
0
280
1
281
0
  0
BLOCK_RECORD
  5
84
330
9
100
AcDbSymbolTableRecord
100
AcDbBlockTableRecord
  2
_CLOSEDBLANK
340
0
 70
0
280
1
281
0
  0
ENDTAB
  0
ENDSEC
  0
SECTION
  2
BLOCKS
  0
BLOCK
  5
18
330
17
100
AcDbEntity
  8
0
100
AcDbBlockBegin
  2
*Model_Space
 70
0
 10
0.0
 20
0.0
 30
0.0
  3
*Model_Space
  1

  0
ENDBLK
  5
19
330
17
100
AcDbEntity
  8
0
100
AcDbBlockEnd
  0
BLOCK
  5
1C
330
1B
100
AcDbEntity
  8
0
100
AcDbBlockBegin
  2
*Paper_Space
 70
0
 10
0.0
 20
0.0
 30
0.0
  3
*Paper_Space
  1

  0
ENDBLK
  5
1D
330
1B
100
AcDbEntity
  8
0
100
AcDbBlockEnd
  0
BLOCK
  5
75
330
74
100
AcDbEntity
  8
0
100
AcDbBlockBegin
  2
_ARCHTICK
 70
0
 10
0.0
 20
0.0
 30
0.0
  3
_ARCHTICK
  1

  0
LWPOLYLINE
  5
77
330
74
100
AcDbEntity
  8
0
  6
BYBLOCK
 62
0
100
AcDbPolyline
 90
2
 70
0
 43
0.15
 10
-0.5
 20
-0.5000000000000001
 10
0.5000000000000001
 20
0.5000000000000001
  0
ENDBLK
  5
76
330
74
100
AcDbEntity
  8
0
100
AcDbBlockEnd
  0
BLOCK
  5
79
330
78
100
AcDbEntity
  8
0
100
AcDbBlockBegin
  2
_CLOSEDFILLED
 70
0
 10
0.0
 20
0.0
 30
0.0
  3
_CLOSEDFILLED
  1

  0
SOLID
  5
7B
330
78
100
AcDbEntity
  8
0
  6
BYBLOCK
 62
0
100
AcDbTrace
 10
-1.0
 20
0.1643989837240255
 30
0.0
 11
0.0
 21
0.0
 31
0.0
 12
-1.0
 22
-0.1643989837240255
 32
0.0
 13
-1.0
 23
-0.1643989837240255
 33
0.0
  0
ENDBLK
  5
7A
330
78
100
AcDbEntity
  8
0
100
AcDbBlockEnd
  0
BLOCK
  5
85
330
84
100
AcDbEntity
  8
0
100
AcDbBlockBegin
  2
_CLOSEDBLANK
 70
0
 10
0.0
 20
0.0
 30
0.0
  3
_CLOSEDBLANK
  1

  0
LWPOLYLINE
  5
87
330
84
100
AcDbEntity
  8
0
  6
BYBLOCK
 62
0
100
AcDbPolyline
 90
3
 70
1
 10
-1.0
 20
0.1643989837240255
 10
0.0
 20
0.0
 10
-1.0
 20
-0.1643989837240255
  0
ENDBLK
  5
86
330
84
100
AcDbEntity
  8
0
100
AcDbBlockEnd
  0
ENDSEC
  0
SECTION
  2
ENTITIES
  0
SPLINE
  5
8B
330
17
100
AcDbEntity
  8
layer0
  6
ByLayer
 62
0
370
5
100
AcDbSpline
 70
0
 71
3
 72
0
 73
0
 74
1000
 11
600.0349020000001
 21
0.7079399999999999
 31
0.0
 11
598.134939179106
 21
1.0925055285012113
 31
0.0
 11
596.2346364723953
 21
1.4752801348683975
 31
0.0
 11
594.3340432018787
 21
1.8564096270257382
 31
0.0
 11
592.4332086985808
 21
2.2360398600976232
 31
0.0
 11
590.5321822993305
 21
2.6143167216259853
 31
0.0
 11
588.631013343555
 21
2.991386116788604
 31
0.0
 11
586.7297511700729
 21
3.367393953619711
 31
0.0
 11
584.8284448042631
 21
3.7424845904075013
 31
0.0
 11
582.9271302227182
 21
4.116737583835014
 31
0.0
 11
581.0258258527285
 21
4.490145337287576
 31
0.0
 11
579.1245488909759
 21
4.862694152513163
 31
0.0
 11
577.2233165396574
 21
5.234370370264587
 31
0.0
 11
575.3221460064642
 21
5.60516037133492
 31
0.0
 11
573.4210546693528
 21
5.975051420332289
 31
0.0
 11
571.5200623966649
 21
6.344043531687114
 31
0.0
 11
569.6191909825864
 21
6.7121465837898
 31
0.0
 11
567.7184622723696
 21
7.079370732720004
 31
0.0
 11
565.8178981117711
 21
7.445726154821855
 31
0.0
 11
563.9175203465722
 21
7.811223045396256
 31
0.0
 11
562.0173508220981
 21
8.175871617393524
 31
0.0
 11
560.1174113827391
 21
8.539682100106633
 31
0.0
 11
558.2177237786541
 21
8.902664248987806
 31
0.0
 11
556.3183068600318
 21
9.264812568589479
 31
0.0
 11
554.4191760803998
 21
9.626103697641707
 31
0.0
 11
552.5203467058471
 21
9.986513313747267
 31
0.0
 11
550.6218340091677
 21
10.346017157186385
 31
0.0
 11
548.7236532700283
 21
10.70459103301242
 31
0.0
 11
546.8258197751338
 21
11.062210813142322
 31
0.0
 11
544.9283488183924
 21
11.418852438441741
 31
0.0
 11
543.0312557010797
 21
11.774491920804527
 31
0.0
 11
541.1345557320026
 21
12.129105345226511
 31
0.0
 11
539.2382645047652
 21
12.482670137806634
 31
0.0
 11
537.3423988689739
 21
12.83516950396313
 31
0.0
 11
535.4469760308159
 21
13.186588320804704
 31
0.0
 11
533.5520132008344
 21
13.53691152933348
 31
0.0
 11
531.6575275938835
 21
13.886124135563382
 31
0.0
 11
529.7635364291053
 21
14.234211211724318
 31
0.0
 11
527.8700569299016
 21
14.581157897461562
 31
0.0
 11
525.977106323909
 21
14.926949401030267
 31
0.0
 11
524.0847018429718
 21
15.271571000484984
 31
0.0
 11
522.192860722844
 21
15.615008042484085
 31
0.0
 11
520.3016001108025
 21
15.957245127456853
 31
0.0
 11
518.4109369309416
 21
16.298264920900852
 31
0.0
 11
516.5208880779631
 21
16.638049866970814
 31
0.0
 11
514.6314704515701
 21
16.9765824938049
 31
0.0
 11
512.7427009564711
 21
17.31384541498262
 31
0.0
 11
510.8545965023803
 21
17.649821330975918
 31
0.0
 11
508.9671740040194
 21
17.98449303059342
 31
0.0
 11
507.08045038111635
 21
18.31784339241764
 31
0.0
 11
505.1944425584049
 21
18.649855386235053
 31
0.0
 11
503.3091674698495
 21
18.98051208709267
 31
0.0
 11
501.42464229917147
 21
19.309797395419405
 31
0.0
 11
499.5408846084791
 21
19.63769642280538
 31
0.0
 11
497.6579119944865
 21
19.964194466180576
 31
0.0
 11
495.7757420567548
 21
20.28927691433071
 31
0.0
 11
493.89439239762345
 21
20.61292924909742
 31
0.0
 11
492.01388062214073
 21
20.935137046570983
 31
0.0
 11
490.1342243379927
 21
21.25588597827584
 31
0.0
 11
488.25544115543187
 21
21.575161812348576
 31
0.0
 11
486.37754868720555
 21
21.89295041470841
 31
0.0
 11
484.5005645873191
 21
22.209237961958312
 31
0.0
 11
482.6245073307299
 21
22.52401519387153
 31
0.0
 11
480.7493961705491
 21
22.83727718160066
 31
0.0
 11
478.8752503868289
 21
23.149019233591087
 31
0.0
 11
477.00208925527056
 21
23.459236726517762
 31
0.0
 11
475.12993204699256
 21
23.767925105568484
 31
0.0
 11
473.2587980282999
 21
24.075079884723202
 31
0.0
 11
471.3887064604523
 21
24.38069664702942
 31
0.0
 11
469.51967659943284
 21
24.68477104487353
 31
0.0
 11
467.6517276957163
 21
24.987298800248183
 31
0.0
 11
465.7848788462509
 21
25.28827469199636
 31
0.0
 11
463.91914763788293
 21
25.587683258900835
 31
0.0
 11
462.05455078035584
 21
25.885503140468202
 31
0.0
 11
460.19110497714337
 21
26.181713047976064
 31
0.0
 11
458.3288269365021
 21
26.4762918420564
 31
0.0
 11
456.4677333714658
 21
26.76921853450701
 31
0.0
 11
454.6078409998439
 21
27.060472290089333
 31
0.0
 11
452.7491665442142
 21
27.350032428312012
 31
0.0
 11
450.89172673191547
 21
27.637878425200583
 31
0.0
 11
449.03553829503954
 21
27.923989915052754
 31
0.0
 11
447.18061815378167
 21
28.208347516359424
 31
0.0
 11
445.3269842702343
 21
28.490936671253614
 31
0.0
 11
443.4746549700054
 21
28.771744598059623
 31
0.0
 11
441.623648575805
 21
29.050758646086866
 31
0.0
 11
439.77398340688353
 21
29.32796629485643
 31
0.0
 11
437.92567777887365
 21
29.60335515514432
 31
0.0
 11
436.07875000363526
 21
29.876912970013848
 31
0.0
 11
434.2332183890968
 21
30.148627615836922
 31
0.0
 11
432.389101239096
 21
30.41848710330447
 31
0.0
 11
430.54641685327044
 21
30.686479578716618
 31
0.0
 11
428.7051838490834
 21
30.952595316103487
 31
0.0
 11
426.865421927742
 21
31.216831452597674
 31
0.0
 11
425.027151008093
 21
31.479186637823872
 31
0.0
 11
423.1903909947507
 21
31.739659602871605
 31
0.0
 11
421.35516177779664
 21
31.998249160374353
 31
0.0
 11
419.5214832324768
 21
32.254954204583896
 31
0.0
 11
417.6893752189034
 21
32.509773711440076
 31
0.0
 11
415.85885758175385
 21
32.76270673863586
 31
0.0
 11
414.02995014997225
 21
33.01375242567771
 31
0.0
 11
412.20267273492783
 21
33.26290998052173
 31
0.0
 11
410.3770448446448
 21
33.510176196182
 31
0.0
 11
408.55308535127506
 21
33.75554256056724
 31
0.0
 11
406.73081303461106
 21
33.9989999873511
 31
0.0
 11
404.9102466635044
 21
34.24053952687886
 31
0.0
 11
403.09140499565126
 21
34.48015236690289
 31
0.0
 11
401.2743067773774
 21
34.71782983330653
 31
0.0
 11
399.4589707434235
 21
34.95356339081666
 31
0.0
 11
397.6454156167303
 21
35.18734464370472
 31
0.0
 11
395.83366010822397
 21
35.419165336476155
 31
0.0
 11
394.02372291920966
 21
35.64901735894189
 31
0.0
 11
392.21562289797345
 21
35.876893010868756
 31
0.0
 11
390.40937912754
 21
36.10278515073029
 31
0.0
 11
388.6050106967663
 21
36.32668681136952
 31
0.0
 11
386.8025366783939
 21
36.54859116404256
 31
0.0
 11
385.00197612879805
 21
36.768491518980504
 31
0.0
 11
383.20334808773947
 21
36.986381325940116
 31
0.0
 11
381.40667157811606
 21
37.20225417474299
 31
0.0
 11
379.6119656057137
 21
37.41610379580316
 31
0.0
 11
377.81924915895905
 21
37.62792406064336
 31
0.0
 11
376.028541217154
 21
37.83770903405338
 31
0.0
 11
374.23986110101924
 21
38.04545511087512
 31
0.0
 11
372.45322859455604
 21
38.25116176009777
 31
0.0
 11
370.66866349113417
 21
38.45482876256439
 31
0.0
 11
368.8861855587274
 21
38.656456001212554
 31
0.0
 11
367.105814539602
 21
38.856043461123456
 31
0.0
 11
365.3275701500071
 21
39.05359122956408
 31
0.0
 11
363.55147207986505
 21
39.24909949602239
 31
0.0
 11
361.77753999246454
 21
39.44256855223565
 31
0.0
 11
360.00579352415355
 21
39.63399879221181
 31
0.0
 11
358.23625228931684
 21
39.82339076471983
 31
0.0
 11
356.4689361952387
 21
40.010748304063746
 31
0.0
 11
354.70386561682113
 21
40.196080268687936
 31
0.0
 11
352.9410609370213
 21
40.37939597901635
 31
0.0
 11
351.18054250308796
 21
40.56070478569598
 31
0.0
 11
349.4223306262035
 21
40.740016068983785
 31
0.0
 11
347.66644558112665
 21
40.917339238135156
 31
0.0
 11
345.91290760583786
 21
41.09268373079396
 31
0.0
 11
344.1617369011873
 21
41.2660590123842
 31
0.0
 11
342.4129536305443
 21
41.43747457550336
 31
0.0
 11
340.66657791886075
 21
41.60693993269359
 31
0.0
 11
338.9226295184982
 21
41.77446085975659
 31
0.0
 11
337.18112725546507
 21
41.94003316830458
 31
0.0
 11
335.4420897812242
 21
42.1036511680305
 31
0.0
 11
333.70553572049795
 21
42.26530933298033
 31
0.0
 11
331.9714836710193
 21
42.42500230193901
 31
0.0
 11
330.23995220328334
 21
42.58272487880183
 31
0.0
 11
328.51095986029725
 21
42.73847203293085
 31
0.0
 11
326.78452515733494
 21
42.89223889949691
 31
0.0
 11
325.0606665816891
 21
43.04402077980649
 31
0.0
 11
323.33940259242587
 21
43.19381314161415
 31
0.0
 11
321.6207516776663
 21
43.34161202128153
 31
0.0
 11
319.9047327600821
 21
43.48741685845309
 31
0.0
 11
318.191364952259
 21
43.63122878905171
 31
0.0
 11
316.4806673317258
 21
43.7730490756508
 31
0.0
 11
314.77265893919514
 21
43.91287909710396
 31
0.0
 11
313.0673587782797
 21
44.050720348472126
 31
0.0
 11
311.36478581521055
 21
44.18657444094164
 31
0.0
 11
309.6649589785579
 21
44.32044310173344
 31
0.0
 11
307.967897158952
 21
44.45232817400324
 31
0.0
 11
306.2736192088074
 21
44.58223161673294
 31
0.0
 11
304.5821439416706
 21
44.710155493468314
 31
0.0
 11
302.89349006898675
 21
44.836100115109474
 31
0.0
 11
301.20767613024185
 21
44.960061987160934
 31
0.0
 11
299.52472061076196
 21
45.08203729225942
 31
0.0
 11
297.8446419585813
 21
45.202022395434305
 31
0.0
 11
296.1674585841864
 21
45.320013844263485
 31
0.0
 11
294.4931888602625
 21
45.43600836901288
 31
0.0
 11
292.821851121441
 21
45.5500028827591
 31
0.0
 11
291.1534636640498
 21
45.661994481495384
 31
0.0
 11
289.48804474586314
 21
45.771980444220965
 31
0.0
 11
287.8256125858542
 21
45.879958233013475
 31
0.0
 11
286.1661853731291
 21
45.98592552719321
 31
0.0
 11
284.5097815127607
 21
46.089881137707444
 31
0.0
 11
282.8564196495343
 21
46.1918250962874
 31
0.0
 11
281.206118396828
 21
46.29175764895928
 31
0.0
 11
279.5588963215497
 21
46.389679200960664
 31
0.0
 11
277.91477194387573
 21
46.485590316625114
 31
0.0
 11
276.27376373699065
 21
46.5794917192528
 31
0.0
 11
274.6358901268305
 21
46.67138429096721
 31
0.0
 11
273.00116949182694
 21
46.761269072557894
 31
0.0
 11
271.36962016265505
 21
46.84914726330931
 31
0.0
 11
269.7412604219823
 21
46.93502022081583
 31
0.0
 11
268.1161085046119
 21
47.01888940387675
 31
0.0
 11
266.49418260672473
 21
47.10075499222033
 31
0.0
 11
264.8755008860176
 21
47.180615830727135
 31
0.0
 11
263.2600814514404
 21
47.25847088696044
 31
0.0
 11
261.6479423624552
 21
47.33431932379057
 31
0.0
 11
260.0391016287992
 21
47.40816049922815
 31
0.0
 11
258.4335772102502
 21
47.47999396623905
 31
0.0
 11
256.8313870163936
 21
47.54981947254155
 31
0.0
 11
255.23254890639228
 21
47.617636960385326
 31
0.0
 11
253.6370806887588
 21
47.6834465663127
 31
0.0
 11
252.04500012113004
 21
47.74724862090162
 31
0.0
 11
250.45632490994976
 21
47.809043537095796
 31
0.0
 11
248.87107270048227
 21
47.86882024964233
 31
0.0
 11
247.28926106824815
 21
47.92654633455027
 31
0.0
 11
245.71090753539133
 21
47.98218763990644
 31
0.0
 11
244.136029572492
 21
48.03571068467783
 31
0.0
 11
242.56464459835644
 21
48.08708265915843
 31
0.0
 11
240.99676997980893
 21
48.13627142534548
 31
0.0
 11
239.43242303148529
 21
48.18324551724495
 31
0.0
 11
237.87162101562987
 21
48.22797414110658
 31
0.0
 11
236.31438114189413
 21
48.27042717558836
 31
0.0
 11
234.76072056713735
 21
48.310575171850886
 31
0.0
 11
233.21065639523096
 21
48.34838935358147
 31
0.0
 11
231.66420585987944
 21
48.38384403921227
 31
0.0
 11
230.12138754096736
 21
48.41693274298765
 31
0.0
 11
228.58222059014577
 21
48.44765792774108
 31
0.0
 11
227.0467240767779
 21
48.476022350540724
 31
0.0
 11
225.51491698413528
 21
48.50202901446837
 31
0.0
 11
223.9868182091936
 21
48.52568116794273
 31
0.0
 11
222.4624465624342
 21
48.54698230401976
 31
0.0
 11
220.9418207676527
 21
48.56593615967045
 31
0.0
 11
219.4249594617715
 21
48.58254671503577
 31
0.0
 11
217.9118811946596
 21
48.596818192659136
 31
0.0
 11
216.4026044289568
 21
48.60875505669644
 31
0.0
 11
214.89714753990575
 21
48.61836201210428
 31
0.0
 11
213.39552890139242
 21
48.6256442134523
 31
0.0
 11
211.89776712690227
 21
48.630607850447625
 31
0.0
 11
210.40388081393598
 21
48.63325952585234
 31
0.0
 11
208.91388846434
 21
48.63360606118438
 31
0.0
 11
207.42780848416706
 21
48.63165449579887
 31
0.0
 11
205.9456591835446
 21
48.62741208594945
 31
0.0
 11
204.467458776548
 21
48.62088630382999
 31
0.0
 11
202.99322538108188
 21
48.61208483659677
 31
0.0
 11
201.52297701876645
 21
48.601015585370824
 31
0.0
 11
200.05673161483097
 21
48.5876866642211
 31
0.0
 11
198.5945069980139
 21
48.57210639912823
 31
0.0
 11
197.1363209004688
 21
48.55428332692902
 31
0.0
 11
195.68219105282512
 21
48.53422579322152
 31
0.0
 11
194.23213558087804
 21
48.511940279013345
 31
0.0
 11
192.78617266324437
 21
48.487432842160096
 31
0.0
 11
191.3443203692267
 21
48.460709799296176
 31
0.0
 11
189.9065966586818
 21
48.43177772497762
 31
0.0
 11
188.4730193819807
 21
48.40064345044474
 31
0.0
 11
187.0436062799765
 21
48.36731406236077
 31
0.0
 11
185.61837498397966
 21
48.33179690152681
 31
0.0
 11
184.19734301574096
 21
48.29409956157311
 31
0.0
 11
182.78052778744134
 21
48.25422988762707
 31
0.0
 11
181.36794660168923
 21
48.21219597495768
 31
0.0
 11
179.95961665152592
 21
48.16800616759707
 31
0.0
 11
178.5555550332671
 21
48.121669019881324
 31
0.0
 11
177.15577913341156
 21
48.07319217750886
 31
0.0
 11
175.7603066890918
 21
48.02258220156149
 31
0.0
 11
174.3691553386521
 21
47.96984586527333
 31
0.0
 11
172.98234259464422
 21
47.91499023065708
 31
0.0
 11
171.59988584391294
 21
47.858022646882205
 31
0.0
 11
170.22180234769044
 21
47.79895074862635
 31
0.0
 11
168.84810924169906
 21
47.73778245440041
 31
0.0
 11
167.47882353626278
 21
47.67452596484701
 31
0.0
 11
166.11396211642702
 21
47.609189761012914
 31
0.0
 11
164.75354174208766
 21
47.541782602595504
 31
0.0
 11
163.39757904812785
 21
47.472313526163425
 31
0.0
 11
162.0460905445637
 21
47.40079184335179
 31
0.0
 11
160.69909264787594
 21
47.32722704837208
 31
0.0
 11
159.35660224555775
 21
47.25162717504938
 31
0.0
 11
158.01863662322862
 21
47.17399900737263
 31
0.0
 11
156.68521293859956
 21
47.094349607704835
 31
0.0
 11
155.3563482023097
 21
47.01268637111904
 31
0.0
 11
154.03205927819857
 21
46.929017023219934
 31
0.0
 11
152.7123628835887
 21
46.84334961793476
 31
0.0
 11
151.39727558957813
 21
46.755692535274065
 31
0.0
 11
150.08681382134367
 21
46.66605447906271
 31
0.0
 11
148.78099385845323
 21
46.574444474640956
 31
0.0
 11
147.47983183518895
 21
46.48087186653646
 31
0.0
 11
146.18334374087996
 21
46.38534631610704
 31
0.0
 11
144.89154542024434
 21
46.28787779915468
 31
0.0
 11
143.60445257465
 21
46.188476601383805
 31
0.0
 11
142.32208112688716
 21
46.087152462321704
 31
0.0
 11
141.04444776732956
 21
45.98391329432762
 31
0.0
 11
139.77156915808777
 21
45.87876704526853
 31
0.0
 11
138.5034617882076
 21
45.77172203610678
 31
0.0
 11
137.24014197420487
 21
45.66278695803194
 31
0.0
 11
135.98162586061105
 21
45.55197086955923
 31
0.0
 11
134.7279294205321
 21
45.43928319359532
 31
0.0
 11
133.47906845621804
 21
45.324733714471535
 31
0.0
 11
132.23505859964527
 21
45.20833257494517
 31
0.0
 11
130.9959153131085
 21
45.0900902731688
 31
0.0
 11
129.76165388982668
 21
44.97001765962867
 31
0.0
 11
128.53228945455822
 21
44.84812593405177
 31
0.0
 11
127.30783696422806
 21
44.72442664228252
 31
0.0
 11
126.08831121247027
 21
44.59893166229703
 31
0.0
 11
124.87372744332694
 21
44.47165149997552
 31
0.0
 11
123.66410200025071
 21
44.34259348692203
 31
0.0
 11
122.45945117647521
 21
44.211764968983545
 31
0.0
 11
121.25979105299102
 21
44.07917375444277
 31
0.0
 11
120.06513749950857
 21
43.94482810996719
 31
0.0
 11
118.87550617543502
 21
43.80873675651935
 31
0.0
 11
117.69091253086627
 21
43.670908865228434
 31
0.0
 11
116.5113718075923
 21
43.53135405322414
 31
0.0
 11
115.33689904011686
 21
43.390082379432954
 31
0.0
 11
114.16750905669018
 21
43.247104340337586
 31
0.0
 11
113.00321648035587
 21
43.102430865700214
 31
0.0
 11
111.84403573001133
 21
42.95607331424981
 31
0.0
 11
110.68998102148046
 21
42.808043469334336
 31
0.0
 11
109.54106636860004
 21
42.658353534538215
 31
0.0
 11
108.39730571393702
 21
42.507015838442946
 31
0.0
 11
107.25871432066427
 21
42.35403970973692
 31
0.0
 11
106.12530820039267
 21
42.199432759020354
 31
0.0
 11
104.99710311676115
 21
42.04320311247205
 31
0.0
 11
103.87411456966107
 21
41.88535944527538
 31
0.0
 11
102.7563577968745
 21
41.72591097596651
 31
0.0
 11
101.64384777573
 21
41.56486746074041
 31
0.0
 11
100.53659922477487
 21
41.4022391877154
 31
0.0
 11
99.43462660546344
 21
41.238036971156944
 31
0.0
 11
98.33794412386162
 21
41.07227214566158
 31
0.0
 11
97.24656573236757
 21
40.90495656030163
 31
0.0
 11
96.16050513144712
 21
40.7361025727314
 31
0.0
 11
95.07977577138516
 21
40.565723043255886
 31
0.0
 11
94.00439085405179
 21
40.39383132886246
 31
0.0
 11
92.93436333468298
 21
40.22044127721647
 31
0.0
 11
91.86970595878658
 21
40.045567142900815
 31
0.0
 11
90.81043280420218
 21
39.86922017186618
 31
0.0
 11
89.75655983213638
 21
39.69140737959393
 31
0.0
 11
88.70810281605095
 21
39.512136133606255
 31
0.0
 11
87.66507718134726
 21
39.33141450625971
 31
0.0
 11
86.62749800818125
 21
39.14925126643428
 31
0.0
 11
85.59538003429861
 21
38.9656558711756
 31
0.0
 11
84.56873765788889
 21
38.78063845729184
 31
0.0
 11
83.54758494045933
 21
38.594209832906046
 31
0.0
 11
82.53193560972738
 21
38.406381468965314
 31
0.0
 11
81.52180306253081
 21
38.21716549070772
 31
0.0
 11
80.51720036775683
 21
38.02657466908845
 31
0.0
 11
79.51814026928778
 21
37.83462241216587
 31
0.0
 11
78.52463518896353
 21
37.64132275644892
 31
0.0
 11
77.53669722956191
 21
37.44669035820711
 31
0.0
 11
76.55433817779344
 21
37.2507404847438
 31
0.0
 11
75.57756952477943
 21
37.05348897099939
 31
0.0
 11
74.60640428466847
 21
36.854948610539466
 31
0.0
 11
73.64085850658421
 21
36.655126154646226
 31
0.0
 11
72.68094813949584
 21
36.45402852630797
 31
0.0
 11
71.72668865530903
 21
36.25166356480369
 31
0.0
 11
70.7780950537809
 21
36.04804001314893
 31
0.0
 11
69.83518186745756
 21
35.84316750549543
 31
0.0
 11
68.89796316663242
 21
35.637056554486634
 31
0.0
 11
67.96645256432464
 21
35.429718538570164
 31
0.0
 11
67.04066322127824
 21
35.22116568926961
 31
0.0
 11
66.12060785097977
 21
35.01141107841703
 31
0.0
 11
65.2062987246943
 21
34.800468605347874
 31
0.0
 11
64.29774767651907
 21
34.58835298406013
 31
0.0
 11
63.39496610845388
 21
34.37507973033939
 31
0.0
 11
62.49796499548836
 21
34.16066514885168
 31
0.0
 11
61.606754890703606
 21
33.94512632020551
 31
0.0
 11
60.72134593038898
 21
33.72848108798501
 31
0.0
 11
59.84174785655075
 21
33.510748015887835
 31
0.0
 11
58.967972744677425
 21
33.29194169510795
 31
0.0
 11
58.10003783719076
 21
33.07206787006371
 31
0.0
 11
57.237960381386735
 21
32.85113230668208
 31
0.0
 11
56.38175690985958
 21
32.62914202501031
 31
0.0
 11
55.53144324976242
 21
32.40610527911468
 31
0.0
 11
54.68703453208722
 21
32.182031536945935
 31
0.0
 11
53.84854520096294
 21
31.95693146017398
 31
0.0
 11
53.01598902296933
 21
31.730816883994635
 31
0.0
 11
52.18937909646716
 21
31.50370079691142
 31
0.0
 11
51.36872786094134
 21
31.27559732049466
 31
0.0
 11
50.55404710635757
 21
31.046521689121352
 31
0.0
 11
49.74534798252928
 21
30.816490229697756
 31
0.0
 11
48.94264100849498
 21
30.585520341368035
 31
0.0
 11
48.14593608190426
 21
30.353630475211535
 31
0.0
 11
47.355242488411164
 21
30.12084011393136
 31
0.0
 11
46.57056891107295
 21
29.88716975153702
 31
0.0
 11
45.79192343975402
 21
29.652640873023905
 31
0.0
 11
45.01931359090265
 21
29.417275916364947
 31
0.0
 11
44.25275026760539
 21
29.181091513469056
 31
0.0
 11
43.492253477880695
 21
28.944088732071815
 31
0.0
 11
42.73784360455665
 21
28.706267962682677
 31
0.0
 11
41.98953985898849
 21
28.467631551870177
 31
0.0
 11
41.24736030004401
 21
28.228183765637407
 31
0.0
 11
40.51132185308201
 21
27.987930752814624
 31
0.0
 11
39.78144032892406
 21
27.746880508475044
 31
0.0
 11
39.05773044281336
 21
27.505042837377772
 31
0.0
 11
38.340205833361544
 21
27.262429317444006
 31
0.0
 11
37.62887908147877
 21
27.019053263270887
 31
0.0
 11
36.92376172928394
 21
26.774929689687827
 31
0.0
 11
36.22486429899439
 21
26.53007527536113
 31
0.0
 11
35.53219631179063
 21
26.284508326451082
 31
0.0
 11
34.84576630665472
 21
26.038248740327052
 31
0.0
 11
34.165581859177706
 21
25.791317969344796
 31
0.0
 11
33.49164960033688
 21
25.543738984692215
 31
0.0
 11
32.823975235236226
 21
25.29553624030686
 31
0.0
 11
32.16256356181082
 21
25.046735636871528
 31
0.0
 11
31.50741849953436
 21
24.797364474497318
 31
0.0
 11
30.858550214860433
 21
24.547443354157615
 31
0.0
 11
30.215987068931348
 21
24.29697260827202
 31
0.0
 11
29.57975856846799
 21
24.04595162839937
 31
0.0
 11
28.949891971074408
 21
23.794382701959524
 31
0.0
 11
28.326412330864425
 21
23.542270945934707
 31
0.0
 11
27.709342543958442
 21
23.289624240767655
 31
0.0
 11
27.098703393842204
 21
23.036453164464838
 31
0.0
 11
26.49451359658394
 21
22.782770926915084
 31
0.0
 11
25.896789845900173
 21
22.528593304431347
 31
0.0
 11
25.305546858066744
 21
22.273938574525694
 31
0.0
 11
24.720797416667047
 21
22.018827450925908
 31
0.0
 11
24.14255241717196
 21
21.763283018842912
 31
0.0
 11
23.57082091134472
 21
21.507330670497605
 31
0.0
 11
23.005610151465845
 21
21.250998040916677
 31
0.0
 11
22.446925634369343
 21
20.994314944004866
 31
0.0
 11
21.894771145287265
 21
20.73731330890396
 31
0.0
 11
21.349148801494255
 21
20.480027116646163
 31
0.0
 11
20.810059095746666
 21
20.222492337110744
 31
0.0
 11
20.277500939510816
 21
19.964746866292845
 31
0.0
 11
19.7514730174406
 21
19.70682873267479
 31
0.0
 11
19.23200115062165
 21
19.448739970459684
 31
0.0
 11
18.719135654817578
 21
19.190450101284128
 31
0.0
 11
18.212923162121516
 21
18.931933325842678
 31
0.0
 11
17.71340552762023
 21
18.673169961664506
 31
0.0
 11
17.22061995363186
 21
18.414146273655934
 31
0.0
 11
16.73459911320505
 21
18.15485430565347
 31
0.0
 11
16.25537127286415
 21
17.895291713011815
 31
0.0
 11
15.782960414581515
 21
17.63546159624908
 31
0.0
 11
15.317386356961524
 21
17.375372335773328
 31
0.0
 11
14.858664875617782
 21
17.115037427712352
 31
0.0
 11
14.406807822728359
 21
16.854475320870428
 31
0.0
 11
13.961823245750594
 21
16.59370925483352
 31
0.0
 11
13.523715505281396
 21
16.33276709924674
 31
0.0
 11
13.092485392043562
 21
16.071681194284466
 31
0.0
 11
12.668130242984802
 21
15.810488192336809
 31
0.0
 11
12.250644056471756
 21
15.549228900933308
 31
0.0
 11
11.840017606563256
 21
15.287948126925595
 31
0.0
 11
11.43623855634716
 21
15.026694521950528
 31
0.0
 11
11.039291844418187
 21
14.76552035582711
 31
0.0
 11
10.649197748916684
 21
14.50447120562165
 31
0.0
 11
10.266046975783164
 21
14.243576442340423
 31
0.0
 11
9.889928016846614
 21
13.982868555547523
 31
0.0
 11
9.520917795283147
 21
13.722385538556804
 31
0.0
 11
9.159082055138354
 21
13.462170666498613
 31
0.0
 11
8.804475747088826
 21
13.202272276538334
 31
0.0
 11
8.457143410388989
 21
12.942743550276953
 31
0.0
 11
8.117119550952015
 21
12.683642298365116
 31
0.0
 11
7.784429015509644
 21
12.425030747358393
 31
0.0
 11
7.459087361800565
 21
12.16697532884444
 31
0.0
 11
7.141101224735111
 21
11.909546470870271
 31
0.0
 11
6.8304686784861275
 21
11.652818391698974
 31
0.0
 11
6.527179594454345
 21
11.396868895922957
 31
0.0
 11
6.231215995060562
 21
11.141779172963195
 31
0.0
 11
5.942552403313989
 21
10.887633597980841
 31
0.0
 11
5.661156188108848
 21
10.63451953522872
 31
0.0
 11
5.386987905202331
 21
10.38252714387044
 31
0.0
 11
5.120005626806461
 21
10.131744617451611
 31
0.0
 11
4.860241530673716
 21
9.882170740235296
 31
0.0
 11
4.607787753563876
 21
9.63373126230118
 31
0.0
 11
4.362718421631146
 21
9.386368299571165
 31
0.0
 11
4.1250875051103435
 21
9.140042971706613
 31
0.0
 11
3.894929766083678
 21
8.894734498213182
 31
0.0
 11
3.672261692283535
 21
8.650439307863705
 31
0.0
 11
3.457082416801729
 21
8.407170161563007
 31
0.0
 11
3.24937462357797
 21
8.164955288776747
 31
0.0
 11
3.049105438541052
 21
7.923837537643119
 31
0.0
 11
2.856227306280071
 21
7.683873538886086
 31
0.0
 11
2.6706788521236353
 21
7.44513288364528
 31
0.0
 11
2.4923857295084164
 21
7.207697315337222
 31
0.0
 11
2.321261452518512
 21
6.971659935658058
 31
0.0
 11
2.157208213482179
 21
6.737124424839721
 31
0.0
 11
2.000117691849268
 21
6.504204284346686
 31
0.0
 11
1.8499072655353694
 21
6.273067255210796
 31
0.0
 11
1.7065955389544423
 21
6.044029903286763
 31
0.0
 11
1.5701963431768964
 21
5.817420771846341
 31
0.0
 11
1.4406941915757996
 21
5.593547432921481
 31
0.0
 11
1.3180462704010814
 21
5.372697408190163
 31
0.0
 11
1.2021843863402162
 21
5.155139069983799
 31
0.0
 11
1.0930168707957337
 21
4.941122522290331
 31
0.0
 11
0.9904304406159696
 21
4.730880461630078
 31
0.0
 11
0.8942920150206666
 21
4.5246290176823525
 31
0.0
 11
0.8044504884706218
 21
4.322568573546473
 31
0.0
 11
0.7207384592355573
 21
4.1248845655212865
 31
0.0
 11
0.6429739134216821
 21
3.931748262292491
 31
0.0
 11
0.5709618642254174
 21
3.7433175234171343
 31
0.0
 11
0.5044959461875623
 21
3.559737537001149
 31
0.0
 11
0.443359964227022
 21
3.381141536465307
 31
0.0
 11
0.3873293972404013
 21
3.2076514962998495
 31
0.0
 11
0.3361728560600863
 21
3.0393788067111442
 31
0.0
 11
0.2896534955696717
 21
2.876424927066483
 31
0.0
 11
0.2475303807812224
 21
2.718882018043316
 31
0.0
 11
0.20955980668731686
 21
2.566833552399256
 31
0.0
 11
0.1754965717044884
 21
2.420354904272628
 31
0.0
 11
0.14509520453372218
 21
2.279513916935539
 31
0.0
 11
0.11811114426833395
 21
2.1443714489179717
 31
0.0
 11
0.09430187358692321
 21
2.0149818984275814
 31
0.0
 11
0.07342800487531914
 21
1.8913937059919208
 31
0.0
 11
0.05525431912818865
 21
1.7736498352541616
 31
0.0
 11
0.03955075748694153
 21
1.6617882318531039
 31
0.0
 11
0.026093365277987533
 21
1.555842260326441
 31
0.0
 11
0.014665188421048612
 21
1.4558411189736549
 31
0.0
 11
0.005057122084644909
 21
1.3618102326236665
 31
0.0
 11
-0.00293128852827257
 21
1.273771623250057
 31
0.0
 11
-0.009491095374404214
 21
1.1917442583840736
 31
0.0
 11
-0.014803242847478875
 21
1.1157443772760431
 31
0.0
 11
-0.019037911235725423
 21
1.0457857947602598
 31
0.0
 11
-0.022353908449635588
 21
0.9818801827815224
 31
0.0
 11
-0.024898110103670434
 21
0.9240373295427193
 31
0.0
 11
-0.026804948028700003
 21
0.8722653762394761
 31
0.0
 11
-0.028195947285527753
 21
0.8265710313472289
 31
0.0
 11
-0.02917931174302092
 21
0.7869597624321708
 31
0.0
 11
-0.02984955827779047
 21
0.7534359654584895
 31
0.0
 11
-0.03028719964562
 21
0.7260031115691878
 31
0.0
 11
-0.030558476068196252
 21
0.7046638713199791
 31
0.0
 11
-0.030715135572000597
 21
0.6894202163480498
 31
0.0
 11
-0.030794263109493476
 21
0.6802734984629373
 31
0.0
 11
-0.030818158486062515
 21
0.6772245061478521
 31
0.0
 11
-0.0308404012922353
 21
0.6742324063517441
 31
0.0
 11
-0.03089995549773899
 21
0.6652559197105337
 31
0.0
 11
-0.030975276090396586
 21
0.6502944951681487
 31
0.0
 11
-0.03103038021755247
 21
0.6293472500775594
 31
0.0
 11
-0.031014784309660526
 21
0.602413094524947
 31
0.0
 11
-0.030863546703647538
 21
0.5694910942810036
 31
0.0
 11
-0.030497205278384423
 21
0.5305807679399052
 31
0.0
 11
-0.02982170796097971
 21
0.4856824597145159
 31
0.0
 11
-0.028728341616060627
 21
0.4347977957878105
 31
0.0
 11
-0.0270936500226307
 21
0.37793021070422056
 31
0.0
 11
-0.024779340950305324
 21
0.3150855437249034
 31
0.0
 11
-0.021632182348440585
 21
0.24627270506805335
 31
0.0
 11
-0.017483887663051922
 21
0.17150441193836574
 31
0.0
 11
-0.012150990298189276
 21
0.09079799424690423
 31
0.0
 11
-0.0054347072398730056
 21
0.004176269908487789
 31
0.0
 11
0.002879208137690661
 21
-0.08833151040415173
 31
0.0
 11
0.013020624062292818
 21
-0.1866886491796839
 31
0.0
 11
0.025235108947042405
 21
-0.2908499543614441
 31
0.0
 11
0.03977791246544079
 21
-0.4007630311839019
 31
0.0
 11
0.05690755102936371
 21
-0.5163696653523068
 31
0.0
 11
0.07689193009100585
 21
-0.6376021982669713
 31
0.0
 11
0.1000084905789429
 21
-0.7643821943030936
 31
0.0
 11
0.12654358099048563
 21
-0.8966193492761725
 31
0.0
 11
0.1567917994836491
 21
-1.0342103467769754
 31
0.0
 11
0.1910553060577801
 21
-1.177037662531424
 31
0.0
 11
0.22964310491670653
 21
-1.3249683169524384
 31
0.0
 11
0.2728702971119803
 21
-1.477852576055983
 31
0.0
 11
0.32105730356804274
 21
-1.6355226009217254
 31
0.0
 11
0.37452905859550906
 21
-1.79779104588666
 31
0.0
 11
0.4336140618521489
 21
-1.96445005204322
 31
0.0
 11
0.4986410909839623
 21
-2.1352793843192974
 31
0.0
 11
0.5699377858661594
 21
-2.310046952394834
 31
0.0
 11
0.6478316020451272
 21
-2.4884997355990195
 31
0.0
 11
0.7326488593634763
 21
-2.6703621240644457
 31
0.0
 11
0.8247136718139594
 21
-2.855334568025523
 31
0.0
 11
0.9243468461362234
 21
-3.0430921877025097
 31
0.0
 11
1.0318647493071949
 21
-3.233283343965044
 31
0.0
 11
1.1475781450796227
 21
-3.4255281699734987
 31
0.0
 11
1.271780113355429
 21
-3.6194329818649438
 31
0.0
 11
1.4046603401272881
 21
-3.81471226567651
 31
0.0
 11
1.5463348901769787
 21
-4.011141724529264
 31
0.0
 11
1.6968842742092716
 21
-4.208499115375321
 31
0.0
 11
1.8563509333531985
 21
-4.406564342969829
 31
0.0
 11
2.024736356321599
 21
-4.605120009483674
 31
0.0
 11
2.201998132879862
 21
-4.803951976274327
 31
0.0
 11
2.388046944029609
 21
-5.002849937736633
 31
0.0
 11
2.582743489324329
 21
-5.201608007156401
 31
0.0
 11
2.7859223241399063
 21
-5.400029567364992
 31
0.0
 11
2.997563050552661
 21
-5.597955377021829
 31
0.0
 11
3.2177025175619542
 21
-5.795250861958185
 31
0.0
 11
3.4463557677854495
 21
-5.991794806932306
 31
0.0
 11
3.68351434327274
 21
-6.1874802661488415
 31
0.0
 11
3.929144891832541
 21
-6.382215542149652
 31
0.0
 11
4.183187749160191
 21
-6.5759251817117805
 31
0.0
 11
4.445555496960239
 21
-6.768550988614448
 31
0.0
 11
4.7161314972662085
 21
-6.960053053137485
 31
0.0
 11
4.994768403157
 21
-7.1504107981465745
 31
0.0
 11
5.281286646080325
 21
-7.339624041623941
 31
0.0
 11
5.575472902704777
 21
-7.527714074044603
 31
0.0
 11
5.8771348413602515
 21
-7.714694695153638
 31
0.0
 11
6.186254877979351
 21
-7.90049039902641
 31
0.0
 11
6.502850408509975
 21
-8.085011258529644
 31
0.0
 11
6.826930813662312
 21
-8.268176152289005
 31
0.0
 11
7.158497065159267
 21
-8.44991325286362
 31
0.0
 11
7.497541326756711
 21
-8.630160521412943
 31
0.0
 11
7.8440465500878025
 21
-8.80886620878747
 31
0.0
 11
8.197986065387463
 21
-8.985989362974427
 31
0.0
 11
8.559323167153735
 21
-9.161500342828651
 31
0.0
 11
8.928010694803538
 21
-9.33538133801795
 31
0.0
 11
9.30399060837929
 21
-9.507626895110397
 31
0.0
 11
9.687193559369247
 21
-9.678244449732926
 31
0.0
 11
10.077538456696091
 21
-9.84725486472527
 31
0.0
 11
10.474932027937719
 21
-10.014692974216608
 31
0.0
 11
10.879268375839493
 21
-10.18060813354883
 31
0.0
 11
11.290428530180334
 21
-10.345064774970538
 31
0.0
 11
11.7082895458823
 21
-10.508133339614242
 31
0.0
 11
12.132808110328677
 21
-10.66980608826632
 31
0.0
 11
12.563986947661787
 21
-10.83003108053726
 31
0.0
 11
13.00182673255275
 21
-10.988760764818092
 31
0.0
 11
13.446325466616944
 21
-11.145952716082553
 31
0.0
 11
13.897478381252885
 21
-11.301569843938232
 31
0.0
 11
14.355277839613947
 21
-11.455580602531942
 31
0.0
 11
14.819713237731154
 21
-11.607959202282093
 31
0.0
 11
15.290770904799214
 21
-11.75868582340851
 31
0.0
 11
15.768434002639504
 21
-11.907746831230153
 31
0.0
 11
16.252682424352894
 21
-12.055134993200882
 31
0.0
 11
16.743492692179284
 21
-12.20084969765412
 31
0.0
 11
17.24083785457556
 21
-12.344897174225466
 31
0.0
 11
17.744687382525974
 21
-12.487290715922791
 31
0.0
 11
18.25500706510345
 21
-12.628050902814172
 31
0.0
 11
18.77175890428987
 21
-12.767205827300888
 31
0.0
 11
19.294901009076312
 21
-12.904791320946003
 31
0.0
 11
19.824387488853684
 21
-13.040851182825877
 31
0.0
 11
20.360168346111312
 21
-13.175437409373531
 31
0.0
 11
20.90218936845645
 21
-13.308610425681447
 31
0.0
 11
21.450392019971687
 21
-13.44043931823194
 31
0.0
 11
22.00471865776185
 21
-13.570992348761145
 31
0.0
 11
22.565147995715876
 21
-13.700272263703988
 31
0.0
 11
23.1316755736171
 21
-13.828251975371659
 31
0.0
 11
23.70429621395558
 21
-13.954906615540867
 31
0.0
 11
24.28300391111693
 21
-14.080213773161182
 31
0.0
 11
24.867791810073253
 21
-14.20415356889876
 31
0.0
 11
25.45865218496575
 21
-14.326708730060377
 31
0.0
 11
26.05557641758372
 21
-14.447864665887924
 31
0.0
 11
26.658554975743037
 21
-14.567609543212996
 31
0.0
 11
27.267577391564167
 21
-14.685934362460634
 31
0.0
 11
27.882632239656935
 21
-14.802833033992577
 31
0.0
 11
28.503707115211476
 21
-14.91830245477881
 31
0.0
 11
29.1307886119999
 21
-15.032342585387171
 31
0.0
 11
29.763862300293276
 21
-15.144956527280586
 31
0.0
 11
30.40291270469419
 21
-15.256150600410802
 31
0.0
 11
31.04792328188918
 21
-15.365934421098064
 31
0.0
 11
31.69887639832492
 21
-15.474320980186068
 31
0.0
 11
32.35575330781074
 21
-15.581326721461249
 31
0.0
 11
33.01853412905042
 21
-15.686971620325487
 31
0.0
 11
33.687197823105706
 21
-15.791279262711114
 31
0.0
 11
34.36172217079776
 21
-15.894276924227755
 31
0.0
 11
35.04208375004475
 21
-15.995995649529137
 31
0.0
 11
35.72825791326379
 21
-16.09647033153471
 31
0.0
 11
36.42022230735972
 21
-16.195729291184332
 31
0.0
 11
37.11796644812971
 21
-16.293765913176948
 31
0.0
 11
37.82148231674994
 21
-16.390566528407508
 31
0.0
 11
38.530761525011954
 21
-16.48611882799986
 31
0.0
 11
39.24579530887257
 21
-16.580411894836033
 31
0.0
 11
39.96657452199047
 21
-16.673436235148028
 31
0.0
 11
40.69308962925294
 21
-16.765183810168157
 31
0.0
 11
41.42533070029223
 21
-16.855648067833293
 31
0.0
 11
42.16328740299439
 21
-16.94482397453914
 31
0.0
 11
42.906948996998146
 21
-17.03270804693951
 31
0.0
 11
43.65630432718921
 21
-17.119298383786987
 31
0.0
 11
44.41134181718595
 21
-17.204594697809824
 31
0.0
 11
45.17204946282273
 21
-17.288598347621463
 31
0.0
 11
45.93841482562552
 21
-17.37131236965738
 31
0.0
 11
46.710425026288775
 21
-17.452741510135894
 31
0.0
 11
47.488066738145186
 21
-17.532892257037354
 31
0.0
 11
48.27132618063746
 21
-17.611772872098218
 31
0.0
 11
49.06018911278837
 21
-17.68939342281506
 31
0.0
 11
49.85464082667138
 21
-17.76576581445416
 31
0.0
 11
50.65466614088215
 21
-17.840903822062153
 31
0.0
 11
51.460249394013886
 21
-17.914823122473486
 31
0.0
 11
52.27137443815091
 21
-17.98754132624978
 31
0.0
 11
53.08802602499082
 21
-18.059072992351762
 31
0.0
 11
53.910193705295264
 21
-18.12941558795736
 31
0.0
 11
54.73786802062959
 21
-18.198563217121304
 31
0.0
 11
55.57103931533596
 21
-18.266510909431233
 31
0.0
 11
56.4096977343451
 21
-18.333254636398124
 31
0.0
 11
57.25383322099017
 21
-18.39879132783372
 31
0.0
 11
58.10343551482411
 21
-18.46311888821289
 31
0.0
 11
58.95849414944196
 21
-18.52623621301861
 31
0.0
 11
59.818998450304235
 21
-18.588143205067126
 31
0.0
 11
60.68493753256679
 21
-18.648840790811356
 31
0.0
 11
61.55630029891465
 21
-18.708330936620065
 31
0.0
 11
62.4330754374001
 21
-18.76661666503064
 31
0.0
 11
63.31525141928682
 21
-18.823702070973155
 31
0.0
 11
64.20281649689852
 21
-18.879592337963512
 31
0.0
 11
65.09575870147386
 21
-18.934293754263365
 31
0.0
 11
65.99406584102762
 21
-18.98781372900464
 31
0.0
 11
66.89772549821814
 21
-19.040160808276273
 31
0.0
 11
67.80672502822169
 21
-19.091344691171024
 31
0.0
 11
68.72105155661372
 21
-19.141376245790045
 31
0.0
 11
69.64069197725678
 21
-19.19026752520286
 31
0.0
 11
70.56563311674898
 21
-19.23803089068865
 31
0.0
 11
71.49586352438588
 21
-19.284669422590323
 31
0.0
 11
72.4313728539895
 21
-19.330180238191815
 31
0.0
 11
73.3721506559713
 21
-19.374560970600882
 31
0.0
 11
74.31818635587146
 21
-19.417809888374546
 31
0.0
 11
75.269469253564
 21
-19.45992590439423
 31
0.0
 11
76.22598852246234
 21
-19.50090858471066
 31
0.0
 11
77.18773320873188
 21
-19.540758157357644
 31
0.0
 11
78.15469223050432
 21
-19.57947552113321
 31
0.0
 11
79.12685437709851
 21
-19.617062254347182
 31
0.0
 11
80.10420830824448
 21
-19.65352062353378
 31
0.0
 11
81.08674255331255
 21
-19.68885359212802
 31
0.0
 11
82.07444551054766
 21
-19.72306482910497
 31
0.0
 11
83.06730544630706
 21
-19.75615871758019
 31
0.0
 11
84.06531049430552
 21
-19.78814036337065
 31
0.0
 11
85.06844865486322
 21
-19.819015603514583
 31
0.0
 11
86.07670779416085
 21
-19.848791014749136
 31
0.0
 11
87.09007564349785
 21
-19.877473921944727
 31
0.0
 11
88.10853979855973
 21
-19.905072406494842
 31
0.0
 11
89.13208793951723
 21
-19.931593974890898
 31
0.0
 11
90.16070873512987
 21
-19.957040077466946
 31
0.0
 11
91.1943911097356
 21
-19.981410559445063
 31
0.0
 11
92.23312389969922
 21
-20.00470574913915
 31
0.0
 11
93.27689585302377
 21
-20.026926464176782
 31
0.0
 11
94.32569562908988
 21
-20.048074016944486
 31
0.0
 11
95.37951179839564
 21
-20.0681502200004
 31
0.0
 11
96.43833284230205
 21
-20.087157391453715
 31
0.0
 11
97.50214715277986
 21
-20.105098360310084
 31
0.0
 11
98.5709430321607
 21
-20.12197647178225
 31
0.0
 11
99.64470869289055
 21
-20.137795592565098
 31
0.0
 11
100.72343225728713
 21
-20.152560116074472
 31
0.0
 11
101.80710175730087
 21
-20.166274967648945
 31
0.0
 11
102.89570513427834
 21
-20.1789456097139
 31
0.0
 11
103.98923023873039
 21
-20.190578046906943
 31
0.0
 11
105.08766483010285
 21
-20.20117883116432
 31
0.0
 11
106.19099657655151
 21
-20.21075506676716
 31
0.0
 11
107.2992130797434
 21
-20.219314231476954
 31
0.0
 11
108.41230232333098
 21
-20.226860884553087
 31
0.0
 11
109.5302526354873
 21
-20.233396945393245
 31
0.0
 11
110.6530522913447
 21
-20.238924618101763
 31
0.0
 11
111.78068949849926
 21
-20.24344650131892
 31
0.0
 11
112.91315239697933
 21
-20.24696559175477
 31
0.0
 11
114.05042905921627
 21
-20.249485287692156
 31
0.0
 11
115.19250749001577
 21
-20.251009392458393
 31
0.0
 11
116.3393756265334
 21
-20.25154211786516
 31
0.0
 11
117.4910213382501
 21
-20.251088087616075
 31
0.0
 11
118.64743242695167
 21
-20.249652340681497
 31
0.0
 11
119.80859662670822
 21
-20.24724033463999
 31
0.0
 11
120.97450160385843
 21
-20.243857948986136
 31
0.0
 11
122.14513495699357
 21
-20.239511488403924
 31
0.0
 11
123.32048421694466
 21
-20.234207686005558
 31
0.0
 11
124.50053684677265
 21
-20.22795370653499
 31
0.0
 11
125.6852802436969
 21
-20.2207571344692
 31
0.0
 11
126.87470192657293
 21
-20.212624520001754
 31
0.0
 11
128.06878969810535
 21
-20.20356012134842
 31
0.0
 11
129.2675313430152
 21
-20.19356825369363
 31
0.0
 11
130.4709145918975
 21
-20.182653573125346
 31
0.0
 11
131.67892712129853
 21
-20.170821079042184
 31
0.0
 11
132.8915565537932
 21
-20.158076116531312
 31
0.0
 11
134.1087904580643
 21
-20.144424378716682
 31
0.0
 11
135.33061634898405
 21
-20.12987190907722
 31
0.0
 11
136.55702168769446
 21
-20.11442510373476
 31
0.0
 11
137.7879938816905
 21
-20.0980907137112
 31
0.0
 11
139.02352028490446
 21
-20.080875847154715
 31
0.0
 11
140.26358819779048
 21
-20.062787971534522
 31
0.0
 11
141.50818486741176
 21
-20.043834915803988
 31
0.0
 11
142.7572974875271
 21
-20.024024872531708
 31
0.0
 11
144.01091319868073
 21
-20.00336640000017
 31
0.0
 11
145.26901912686213
 21
-19.981867828016156
 31
0.0
 11
146.53160255503022
 21
-19.959534609825866
 31
0.0
 11
147.798650789094
 21
-19.936371397291893
 31
0.0
 11
149.07015108899486
 21
-19.912383109707264
 31
0.0
 11
150.3460906687775
 21
-19.88757493608288
 31
0.0
 11
151.62645669671429
 21
-19.86195233662069
 31
0.0
 11
152.91123629542855
 21
-19.835521044162093
 31
0.0
 11
154.2004165420204
 21
-19.80828706561138
 31
0.0
 11
155.49398446819185
 21
-19.780256683334052
 31
0.0
 11
156.7919270603728
 21
-19.75143645652973
 31
0.0
 11
158.0942312598477
 21
-19.72183322257942
 31
0.0
 11
159.40088396288232
 21
-19.69145409836701
 31
0.0
 11
160.7118720208531
 21
-19.660306481574665
 31
0.0
 11
162.0271822403742
 21
-19.62839805195199
 31
0.0
 11
163.34680138420228
 21
-19.595736767668217
 31
0.0
 11
164.67071624895877
 21
-19.562330376864516
 31
0.0
 11
165.99891373344443
 21
-19.528185988552732
 31
0.0
 11
167.33138071227347
 21
-19.493310872064082
 31
0.0
 11
168.6681040206377
 21
-19.45771255515558
 31
0.0
 11
170.0090704544534
 21
-19.421398825033148
 31
0.0
 11
171.35426677050535
 21
-19.384377729349968
 31
0.0
 11
172.703679686594
 21
-19.346657577179904
 31
0.0
 11
174.05729588168035
 21
-19.30824693996581
 31
0.0
 11
175.41510199603323
 21
-19.26915465244256
 31
0.0
 11
176.7770846313741
 21
-19.229389813534592
 31
0.0
 11
178.1432303510242
 21
-19.188961787227903
 31
0.0
 11
179.5135256800513
 21
-19.147880203416207
 31
0.0
 11
180.88795710541524
 21
-19.106154958721188
 31
0.0
 11
182.26651107635828
 21
-19.063796207421838
 31
0.0
 11
183.64917403189435
 21
-19.020813251933603
 31
0.0
 11
185.03593242665292
 21
-18.977213500063016
 31
0.0
 11
186.42677268513367
 21
-18.933004329295837
 31
0.0
 11
187.82168119600973
 21
-18.888193324744094
 31
0.0
 11
189.22064431227838
 21
-18.842788279701022
 31
0.0
 11
190.62364835141054
 21
-18.796797196175334
 31
0.0
 11
192.03067959550043
 21
-18.75022828540486
 31
0.0
 11
193.44172429141548
 21
-18.703089968349328
 31
0.0
 11
194.85676865094615
 21
-18.655390876162382
 31
0.0
 11
196.2757988509548
 21
-18.607139850642444
 31
0.0
 11
197.69880103352557
 21
-18.558345944662655
 31
0.0
 11
199.12576130611416
 21
-18.509018422579423
 31
0.0
 11
200.55666574169604
 21
-18.459166760619883
 31
0.0
 11
201.99150038947516
 21
-18.408800676077345
 31
0.0
 11
203.43025135183456
 21
-18.35793033737818
 31
0.0
 11
204.87290474172823
 21
-18.3065662476473
 31
0.0
 11
206.31944664083122
 21
-18.25471913032572
 31
0.0
 11
207.76986309939562
 21
-18.202399928650568
 31
0.0
 11
209.2241401364002
 21
-18.14961980591616
 31
0.0
 11
210.68226373970074
 21
-18.096390145712427
 31
0.0
 11
212.14421986617864
 21
-18.042722552140717
 31
0.0
 11
213.6099944418901
 21
-17.98862885000679
 31
0.0
 11
215.07957336221517
 21
-17.934121084991
 31
0.0
 11
216.55294249200475
 21
-17.87921152379552
 31
0.0
 11
218.03008766572984
 21
-17.823912654268646
 31
0.0
 11
219.5109946876279
 21
-17.768237185505978
 31
0.0
 11
220.99564929997737
 21
-17.712197088008242
 31
0.0
 11
222.48403692109977
 21
-17.655795698661606
 31
0.0
 11
223.9761427762464
 21
-17.599031658316274
 31
0.0
 11
225.4719520522121
 21
-17.541903563952296
 31
0.0
 11
226.97144989898962
 21
-17.48441001405872
 31
0.0
 11
228.47462142991714
 21
-17.426549608712
 31
0.0
 11
229.98145172182836
 21
-17.368320949654656
 31
0.0
 11
231.49192581520202
 21
-17.30972264037427
 31
0.0
 11
233.00602871431255
 21
-17.250753286182842
 31
0.0
 11
234.52374538737973
 21
-17.191411494296435
 31
0.0
 11
236.04506076672098
 21
-17.131695873915174
 31
0.0
 11
237.56995974890077
 21
-17.07160503630354
 31
0.0
 11
239.09842719456282
 21
-17.01113758779862
 31
0.0
 11
240.6304477269592
 21
-16.950287700672092
 31
0.0
 11
242.16600538280844
 21
-16.889037439859802
 31
0.0
 11
243.70508406108695
 21
-16.82736661877548
 31
0.0
 11
245.24766761411388
 21
-16.765254796979033
 31
0.0
 11
246.79373984772184
 21
-16.70268128065048
 31
0.0
 11
248.34328452143097
 21
-16.6396251230925
 31
0.0
 11
249.89628534862308
 21
-16.576065125261795
 31
0.0
 11
251.45272599671793
 21
-16.511979836329026
 31
0.0
 11
253.01259008735215
 21
-16.447347554267555
 31
0.0
 11
254.5758611965581
 21
-16.382146326470977
 31
0.0
 11
256.142522854946
 21
-16.31635395039934
 31
0.0
 11
257.7125585478862
 21
-16.249947974254294
 31
0.0
 11
259.28595190416365
 21
-16.18291019963973
 31
0.0
 11
260.86268750812786
 21
-16.115246077649346
 31
0.0
 11
262.44275024375366
 21
-16.046969036753694
 31
0.0
 11
264.0261249700445
 21
-15.978092725394182
 31
0.0
 11
265.6127965209781
 21
-15.90863100694971
 31
0.0
 11
267.2027497056481
 21
-15.838597959347426
 31
0.0
 11
268.7959693084048
 21
-15.768007874650388
 31
0.0
 11
270.3924400889948
 21
-15.696875258622146
 31
0.0
 11
271.9921467827013
 21
-15.62521483026821
 31
0.0
 11
273.595074100483
 21
-15.553041521354526
 31
0.0
 11
275.20120672911264
 21
-15.480370475902754
 31
0.0
 11
276.8105293313151
 21
-15.407217049660153
 31
0.0
 11
278.42302646723186
 21
-15.333594634779628
 31
0.0
 11
280.0386823663493
 21
-15.25950835085519
 31
0.0
 11
281.6574811556266
 21
-15.184961346737236
 31
0.0
 11
283.27940693314116
 21
-15.109956831865102
 31
0.0
 11
284.90444376824036
 21
-15.034498076169898
 31
0.0
 11
286.53257570169944
 21
-14.958588409971048
 31
0.0
 11
288.1637867458757
 21
-14.882231223866885
 31
0.0
 11
289.7980608848638
 21
-14.8054299686192
 31
0.0
 11
291.4353820746518
 21
-14.728188155031617
 31
0.0
 11
293.0757342432761
 21
-14.650509353822118
 31
0.0
 11
294.71910129097824
 21
-14.572397195489375
 31
0.0
 11
296.36546709246556
 21
-14.493855410567559
 31
0.0
 11
298.01481557776555
 21
-14.414889376684958
 31
0.0
 11
299.6671307587062
 21
-14.33550662316833
 31
0.0
 11
301.32239662932153
 21
-14.255714918326499
 31
0.0
 11
302.9805971587847
 21
-14.175522130834109
 31
0.0
 11
304.64171629155425
 21
-14.094936229361398
 31
0.0
 11
306.3057379475197
 21
-14.013965282193189
 31
0.0
 11
307.9726460221462
 21
-13.932617456837116
 31
0.0
 11
309.6424243866203
 21
-13.85090101962107
 31
0.0
 11
311.3150568879934
 21
-13.768824335280028
 31
0.0
 11
312.9905273493284
 21
-13.68639586653199
 31
0.0
 11
314.6688195698413
 21
-13.603624173620572
 31
0.0
 11
316.3499173122347
 21
-13.520517502866172
 31
0.0
 11
318.0338042699076
 21
-13.437082729678165
 31
0.0
 11
319.7204641021159
 21
-13.353326481444684
 31
0.0
 11
321.409880444168
 21
-13.26925545949497
 31
0.0
 11
323.1020369075715
 21
-13.18487643874195
 31
0.0
 11
324.7969170801816
 21
-13.100196267316749
 31
0.0
 11
326.4945045263478
 21
-13.015221866195233
 31
0.0
 11
328.19478278706043
 21
-12.929960228816643
 31
0.0
 11
329.8977353800992
 21
-12.844418420694211
 31
0.0
 11
331.60334580017894
 21
-12.758603579017981
 31
0.0
 11
333.31159751909695
 21
-12.672522912249663
 31
0.0
 11
335.0224739779429
 21
-12.586183512182906
 31
0.0
 11
336.7359585528665
 21
-12.49959154115224
 31
0.0
 11
338.4520345830814
 21
-12.41275288985684
 31
0.0
 11
340.1706853848779
 21
-12.325673504613542
 31
0.0
 11
341.89189425178444
 21
-12.238359387220926
 31
0.0
 11
343.6156444547162
 21
-12.150816594608486
 31
0.0
 11
345.34191924212604
 21
-12.063051238479618
 31
0.0
 11
347.0707018401551
 21
-11.975069484948667
 31
0.0
 11
348.80197545278264
 21
-11.886877554171818
 31
0.0
 11
350.5357232619761
 21
-11.798481719972086
 31
0.0
 11
352.2719284278414
 21
-11.709888309458254
 31
0.0
 11
354.01057410658063
 21
-11.62110402652075
 31
0.0
 11
355.7516435104105
 21
-11.532137038503658
 31
0.0
 11
357.4951198519679
 21
-11.442995961927492
 31
0.0
 11
359.24098632358914
 21
-11.353689482500064
 31
0.0
 11
360.98922609745136
 21
-11.264226354548324
 31
0.0
 11
362.73982232571365
 21
-11.174615400449468
 31
0.0
 11
364.4927581406591
 21
-11.084865510053985
 31
0.0
 11
366.24801665483415
 21
-10.994985640101072
 31
0.0
 11
368.0055809611913
 21
-10.904984813626115
 31
0.0
 11
369.7654341332285
 21
-10.81487211936063
 31
0.0
 11
371.5275592247679
 21
-10.724656704086001
 31
0.0
 11
373.2919392112715
 21
-10.634346629022875
 31
0.0
 11
375.0585569242369
 21
-10.543947591780732
 31
0.0
 11
376.82739515915404
 21
-10.453465020645446
 31
0.0
 11
378.5984366912644
 21
-10.36290437741766
 31
0.0
 11
380.37166427571464
 21
-10.272271157063216
 31
0.0
 11
382.14706064771286
 21
-10.181570887359564
 31
0.0
 11
383.9246085226825
 21
-10.090809128538384
 31
0.0
 11
385.7042905964176
 21
-9.999991472924215
 31
0.0
 11
387.4860895452386
 21
-9.909123544569274
 31
0.0
 11
389.26998802614577
 21
-9.818210998884432
 31
0.0
 11
391.0559686819875
 21
-9.727259627122413
 31
0.0
 11
392.8440142021215
 21
-9.636276621873535
 31
0.0
 11
394.6341073035086
 21
-9.54527017790104
 31
0.0
 11
396.42623068615256
 21
-9.454248556280392
 31
0.0
 11
398.22036703230475
 21
-9.363220064076197
 31
0.0
 11
400.0164990066067
 21
-9.272193053752359
 31
0.0
 11
401.81460925623804
 21
-9.181175922576431
 31
0.0
 11
403.61468041106036
 21
-9.09017711201854
 31
0.0
 11
405.4166950837634
 21
-8.99920510714467
 31
0.0
 11
407.22063587000974
 21
-8.908268436004496
 31
0.0
 11
409.02648534846037
 21
-8.817375667064159
 31
0.0
 11
410.8342260548329
 21
-8.726534985489858
 31
0.0
 11
412.64384044919325
 21
-8.635753659646339
 31
0.0
 11
414.45531096660164
 21
-8.545038859573552
 31
0.0
 11
416.2686200252516
 21
-8.454397785976898
 31
0.0
 11
418.08375002662035
 21
-8.363837669710414
 31
0.0
 11
419.90068335562347
 21
-8.273365771255758
 31
0.0
 11
421.7194023807661
 21
-8.182989380197311
 31
0.0
 11
423.53988945429654
 21
-8.09271581469326
 31
0.0
 11
425.36212691235727
 21
-8.002552420942802
 31
0.0
 11
427.1860970751396
 21
-7.91250657264946
 31
0.0
 11
429.01178222934556
 21
-7.822585350044543
 31
0.0
 11
430.8391645479494
 21
-7.732794083074895
 31
0.0
 11
432.66822615405863
 21
-7.643137504913849
 31
0.0
 11
434.4989491545986
 21
-7.553620358827011
 31
0.0
 11
436.33131564050746
 21
-7.464247398408725
 31
0.0
 11
438.16530768690257
 21
-7.37502338726033
 31
0.0
 11
440.0009073532463
 21
-7.285953098666608
 31
0.0
 11
441.83809668351137
 21
-7.1970413152704875
 31
0.0
 11
443.6768577063474
 21
-7.108292828745887
 31
0.0
 11
445.51717243524575
 21
-7.019712439468974
 31
0.0
 11
447.35902286455496
 21
-6.93130488253023
 31
0.0
 11
449.2023909313528
 21
-6.843074148088637
 31
0.0
 11
451.04725853299686
 21
-6.755023789404973
 31
0.0
 11
452.89360755169713
 21
-6.667157355499705
 31
0.0
 11
454.7414198550004
 21
-6.579478396453048
 31
0.0
 11
456.59067729596273
 21
-6.491990463180986
 31
0.0
 11
458.4413617133238
 21
-6.404697107210435
 31
0.0
 11
460.29345493167864
 21
-6.31760188045369
 31
0.0
 11
462.14693876165205
 21
-6.230708334981959
 31
0.0
 11
464.0017950000711
 21
-6.1440200227982515
 31
0.0
 11
465.85800543015625
 21
-6.057540502424785
 31
0.0
 11
467.7155518219149
 21
-5.971273428607813
 31
0.0
 11
469.574415932256
 21
-5.885222527654759
 31
0.0
 11
471.43457950499186
 21
-5.799391527321491
 31
0.0
 11
473.29602427100804
 21
-5.713784154868883
 31
0.0
 11
475.15873194843806
 21
-5.628404136814985
 31
0.0
 11
477.0226842428367
 21
-5.543255198686539
 31
0.0
 11
478.88786284735465
 21
-5.458341064769679
 31
0.0
 11
480.7542494429135
 21
-5.373665457859987
 31
0.0
 11
482.6218256983792
 21
-5.289232099011899
 31
0.0
 11
484.49057327733874
 21
-5.205044872050827
 31
0.0
 11
486.36047392503383
 21
-5.121109988856063
 31
0.0
 11
488.23150944472485
 21
-5.037435394757512
 31
0.0
 11
490.1036616305443
 21
-4.95402908796462
 31
0.0
 11
491.9769122660323
 21
-4.870899078361165
 31
0.0
 11
493.851243124295
 21
-4.788053386849509
 31
0.0
 11
495.7266359681637
 21
-4.70550004469243
 31
0.0
 11
497.6030725503542
 21
-4.623247092852743
 31
0.0
 11
499.48053461362633
 21
-4.541302581330675
 31
0.0
 11
501.35900389094155
 21
-4.459674568499084
 31
0.0
 11
503.238462103865
 21
-4.37837113773039
 31
0.0
 11
505.1188909463965
 21
-4.297400557209269
 31
0.0
 11
507.00027209252676
 21
-4.216771206565955
 31
0.0
 11
508.8825872068612
 21
-4.1364914733337805
 31
0.0
 11
510.7658179449169
 21
-4.0565697509147185
 31
0.0
 11
512.649945953287
 21
-3.977014437873962
 31
0.0
 11
514.5349528698005
 21
-3.8978339372326083
 31
0.0
 11
516.4208203236858
 21
-3.819036655758574
 31
0.0
 11
518.3075299357334
 21
-3.740631003255688
 31
0.0
 11
520.1950633184578
 21
-3.662625391851165
 31
0.0
 11
522.0834020414784
 21
-3.585027474894936
 31
0.0
 11
523.9725274536071
 21
-3.5078402531896655
 31
0.0
 11
525.8624208148418
 21
-3.4310649563626288
 31
0.0
 11
527.7530633766474
 21
-3.3547027936548393
 31
0.0
 11
529.644436382299
 21
-3.278754957159355
 31
0.0
 11
531.536521067076
 21
-3.2032226217954625
 31
0.0
 11
533.4292986584576
 21
-3.1281069452835655
 31
0.0
 11
535.3227503763164
 21
-3.053409068120727
 31
0.0
 11
537.2168574331146
 21
-2.979130113556969
 31
0.0
 11
539.1116010340957
 21
-2.9052711875178225
 31
0.0
 11
541.0069623022648
 21
-2.8318311952637685
 31
0.0
 11
542.902922078605
 21
-2.7588010365957527
 31
0.0
 11
544.7994611339881
 21
-2.6861697512842113
 31
0.0
 11
546.6965602321467
 21
-2.613926341312516
 31
0.0
 11
548.59420012991
 21
-2.542059772028597
 31
0.0
 11
550.4923615774406
 21
-2.470558973299731
 31
0.0
 11
552.39102531847
 21
-2.3994128406704425
 31
0.0
 11
554.2901720905363
 21
-2.328610236523322
 31
0.0
 11
556.1897826252188
 21
-2.258139991242828
 31
0.0
 11
558.0898376495958
 21
-2.187990936721732
 31
0.0
 11
559.9903180892933
 21
-2.118157287520093
 31
0.0
 11
561.8912052960643
 21
-2.0486446726866028
 31
0.0
 11
563.7924806721785
 21
-1.9794601668895215
 31
0.0
 11
565.6941256158924
 21
-1.9106108388125236
 31
0.0
 11
567.5961215216204
 21
-1.8421037505309856
 31
0.0
 11
569.4984497801036
 21
-1.7739459568879667
 31
0.0
 11
571.4010917785782
 21
-1.7061445048699146
 31
0.0
 11
573.3040289009476
 21
-1.6387064329821701
 31
0.0
 11
575.2072424061032
 21
-1.5716352116836665
 31
0.0
 11
577.1107124995051
 21
-1.5049036204467388
 31
0.0
 11
579.0144188464045
 21
-1.43846873239309
 31
0.0
 11
580.9183411039952
 21
-1.3722874518621315
 31
0.0
 11
582.8224589260543
 21
-1.3063166443992134
 31
0.0
 11
584.7267519632811
 21
-1.240513141067461
 31
0.0
 11
586.631199611093
 21
-1.1748264390105319
 31
0.0
 11
588.5357793415754
 21
-1.1091504548998419
 31
0.0
 11
590.4404677412934
 21
-1.0433535336379254
 31
0.0
 11
592.3452413895724
 21
-0.9773038432968667
 31
0.0
 11
594.2500768637865
 21
-0.9108695226061698
 31
0.0
 11
596.1549507400016
 21
-0.843918694018723
 31
0.0
 11
598.0598395936152
 21
-0.7763194767801179
 31
0.0
 11
599.9647199999999
 21
-0.70794
 31
0.0
  0
SPLINE
  5
8C
330
17
100
AcDbEntity
  8
layer0
  6
CENTER
 62
3
370
5
100
AcDbSpline
 70
0
 71
3
 72
0
 73
0
 74
500
 11
-0.03103038021755247
 21
0.6293472500775594
 31
0.0
 11
-0.02805764325635382
 21
0.6183400514644507
 31
0.0
 11
-0.01913946183011895
 21
0.6219759607306922
 31
0.0
 11
-0.004275924310931096
 21
0.6241193084589688
 31
0.0
 11
0.016532822015670006
 21
0.6274731957834677
 31
0.0
 11
0.04328657095168728
 21
0.6319514502499864
 31
0.0
 11
0.07598505738906444
 21
0.6373884189739251
 31
0.0
 11
0.1146279573122172
 21
0.6436680916767253
 31
0.0
 11
0.1592148878011641
 21
0.6507698008956065
 31
0.0
 11
0.20974540703539019
 21
0.6586970844055983
 31
0.0
 11
0.2662190142981766
 21
0.6674942034114667
 31
0.0
 11
0.32863514998166343
 21
0.6771999495556074
 31
0.0
 11
0.39699319559231155
 21
0.6878703325663109
 31
0.0
 11
0.4712924737569652
 21
0.6995614469550503
 31
0.0
 11
0.551532248229712
 21
0.7123135979631973
 31
0.0
 11
0.6377117238992115
 21
0.7261669651192446
 31
0.0
 11
0.7298300467962215
 21
0.7411667634723607
 31
0.0
 11
0.8278863041025916
 21
0.7573608644320232
 31
0.0
 11
0.9318795241597887
 21
0.7748000068223186
 31
0.0
 11
1.0418086764790233
 21
0.793537418647565
 31
0.0
 11
1.157672671750974
 21
0.8136293630567998
 31
0.0
 11
1.2794703618569123
 21
0.8351116007419523
 31
0.0
 11
1.4072005398799605
 21
0.8578992078554911
 31
0.0
 11
1.5408619401171477
 21
0.8818669608666584
 31
0.0
 11
1.6804532380917343
 21
0.9069010503825415
 31
0.0
 11
1.825973050566667
 21
0.9328945431277426
 31
0.0
 11
1.9774199355578346
 21
0.9597445269723229
 31
0.0
 11
2.1347923923488574
 21
0.9873482883336714
 31
0.0
 11
2.2980888615056076
 21
1.015595740785567
 31
0.0
 11
2.46730772489173
 21
1.044385936477942
 31
0.0
 11
2.6424473056849633
 21
1.0736301890063669
 31
0.0
 11
2.823505868393126
 21
1.103275423739882
 31
0.0
 11
3.0104816188719683
 21
1.1333253237330112
 31
0.0
 11
3.2033727043426947
 21
1.1637988141441824
 31
0.0
 11
3.402177213410211
 21
1.1947159805138474
 31
0.0
 11
3.6068931760821115
 21
1.2260993207328914
 31
0.0
 11
3.8175185637883975
 21
1.2579735988613612
 31
0.0
 11
4.034051289401393
 21
1.2903657479898112
 31
0.0
 11
4.2564892072563945
 21
1.3233050066135852
 31
0.0
 11
4.484830113173055
 21
1.3568228193914138
 31
0.0
 11
4.719071744477164
 21
1.390953378828444
 31
0.0
 11
4.959211780023167
 21
1.4257320463655652
 31
0.0
 11
5.205247840217009
 21
1.4612012972319819
 31
0.0
 11
5.457177487039718
 21
1.497383917262155
 31
0.0
 11
5.71499822407172
 21
1.534230987982821
 31
0.0
 11
5.978707496517481
 21
1.5716933970112048
 31
0.0
 11
6.248302691230893
 21
1.6097753970978352
 31
0.0
 11
6.523781136740912
 21
1.648478944986205
 31
0.0
 11
6.805140103278481
 21
1.6878059791390712
 31
0.0
 11
7.092376802803094
 21
1.7277573846529493
 31
0.0
 11
7.385488389030787
 21
1.768333073464196
 31
0.0
 11
7.684471957462105
 21
1.809531889617691
 31
0.0
 11
7.989324545411089
 21
1.8513515099402875
 31
0.0
 11
8.300043132034572
 21
1.8937883736118857
 31
0.0
 11
8.61662463836184
 21
1.936837596380543
 31
0.0
 11
8.93906592732565
 21
1.9804928897840923
 31
0.0
 11
9.267363803792833
 21
2.0247464750646866
 31
0.0
 11
9.601515014596306
 21
2.0695890122339073
 31
0.0
 11
9.941516248567073
 21
2.1150094629153506
 31
0.0
 11
10.28736413656711
 21
2.1609951094579265
 31
0.0
 11
10.639055251522889
 21
2.2075310753769566
 31
0.0
 11
10.996586108459068
 21
2.254601134696905
 31
0.0
 11
11.359953164533275
 21
2.302183687773514
 31
0.0
 11
11.729152819071073
 21
2.350239387493235
 31
0.0
 11
12.104181413601738
 21
2.3987532733370203
 31
0.0
 11
12.485035231894352
 21
2.4477279107459675
 31
0.0
 11
12.871710499994789
 21
2.4971662380661965
 31
0.0
 11
13.264203386263
 21
2.5470708982434296
 31
0.0
 11
13.662510001411128
 21
2.5974449406790936
 31
0.0
 11
14.066626398541812
 21
2.6482913875737304
 31
0.0
 11
14.476548573187678
 21
2.699613365487004
 31
0.0
 11
14.892272463350444
 21
2.751414016436649
 31
0.0
 11
15.313793949541834
 21
2.8036964848591346
 31
0.0
 11
15.74110885482379
 21
2.8564638824068007
 31
0.0
 11
16.174212944850385
 21
2.909719260263546
 31
0.0
 11
16.613101927909455
 21
2.963465581091536
 31
0.0
 11
17.057771454965035
 21
3.017705691412164
 31
0.0
 11
17.50821711970097
 21
3.072442291680767
 31
0.0
 11
17.964434458563918
 21
3.1276779220957702
 31
0.0
 11
18.426418950808134
 21
3.183414894389072
 31
0.0
 11
18.894166018539885
 21
3.2396554122786014
 31
0.0
 11
19.367671026763027
 21
3.2964010882527695
 31
0.0
 11
19.84692928342487
 21
3.353654252414468
 31
0.0
 11
20.33193603946268
 21
3.4114129956055024
 31
0.0
 11
20.822686488850742
 21
3.469652895881194
 31
0.0
 11
21.31917576864787
 21
3.5283295652085265
 31
0.0
 11
21.821398959045855
 21
3.5873964808723575
 31
0.0
 11
22.329351083417922
 21
3.6468312052056207
 31
0.0
 11
22.843027108368254
 21
3.7066309939565354
 31
0.0
 11
23.36242194378186
 21
3.7667960868803636
 31
0.0
 11
23.887530442874702
 21
3.827325962731132
 31
0.0
 11
24.418347402245274
 21
3.88822044193126
 31
0.0
 11
24.954867561925614
 21
3.949479327306107
 31
0.0
 11
25.49708560543368
 21
4.011102490243009
 31
0.0
 11
26.044996159825995
 21
4.073089831497494
 31
0.0
 11
26.59859379575102
 21
4.135441274872748
 31
0.0
 11
27.157873027502678
 21
4.198156753555244
 31
0.0
 11
27.7228283130748
 21
4.261236198065708
 31
0.0
 11
28.29345405421634
 21
4.324679524348916
 31
0.0
 11
28.869744596486463
 21
4.388486621823637
 31
0.0
 11
29.4516942293107
 21
4.452657344147713
 31
0.0
 11
30.03929718603757
 21
4.517191489043279
 31
0.0
 11
30.63254764399574
 21
4.582088830620685
 31
0.0
 11
31.231439724551763
 21
4.647348936576603
 31
0.0
 11
31.83596749316818
 21
4.712971486243289
 31
0.0
 11
32.44612495946239
 21
4.7789475179621315
 31
0.0
 11
33.061906077266094
 21
4.845258381150021
 31
0.0
 11
33.68330474468502
 21
4.9118834661460244
 31
0.0
 11
34.310314804159745
 21
4.97880154726404
 31
0.0
 11
34.94293004252619
 21
5.045990498495157
 31
0.0
 11
35.5811441910778
 21
5.113427290031814
 31
0.0
 11
36.22495092562693
 21
5.181090231248412
 31
0.0
 11
36.874343866568296
 21
5.2489720687460935
 31
0.0
 11
37.52931657894163
 21
5.3170724872460395
 31
0.0
 11
38.189862572495656
 21
5.385391266370709
 31
0.0
 11
38.85597530175235
 21
5.453928397956331
 31
0.0
 11
39.52764816607192
 21
5.522684028585505
 31
0.0
 11
40.20487450971807
 21
5.591658473913957
 31
0.0
 11
40.88764762192387
 21
5.660852210983563
 31
0.0
 11
41.57596073695859
 21
5.730265876480933
 31
0.0
 11
42.2698070341945
 21
5.799900266185863
 31
0.0
 11
42.96917963817447
 21
5.869756325248559
 31
0.0
 11
43.67407161868003
 21
5.939835169749816
 31
0.0
 11
44.38447599080023
 21
6.0101380153788675
 31
0.0
 11
45.10038571500083
 21
6.080666358749802
 31
0.0
 11
45.82179369719393
 21
6.151419807259893
 31
0.0
 11
46.54869278880825
 21
6.222389702653253
 31
0.0
 11
47.28107578686012
 21
6.293564443130193
 31
0.0
 11
48.01893543402492
 21
6.364932159253072
 31
0.0
 11
48.76226441870852
 21
6.436480675524273
 31
0.0
 11
49.511055375120364
 21
6.508197487555751
 31
0.0
 11
50.2653008833461
 21
6.580069763884465
 31
0.0
 11
51.02499346942099
 21
6.652084338676605
 31
0.0
 11
51.790125605404405
 21
6.724227680797494
 31
0.0
 11
52.56068970945398
 21
6.796486082576177
 31
0.0
 11
53.336678145901026
 21
6.868850481426076
 31
0.0
 11
54.11808322532607
 21
6.941318417366673
 31
0.0
 11
54.90489720463498
 21
7.013887914389308
 31
0.0
 11
55.69711228713597
 21
7.086557117773018
 31
0.0
 11
56.494720622616505
 21
7.15932426843828
 31
0.0
 11
57.29771430742139
 21
7.232187706215738
 31
0.0
 11
58.106085384530914
 21
7.305145870854442
 31
0.0
 11
58.91982584363973
 21
7.378197298798041
 31
0.0
 11
59.73892762123631
 21
7.451340595903961
 31
0.0
 11
60.563382600682644
 21
7.524574245611127
 31
0.0
 11
61.39318261229498
 21
7.5978923364418804
 31
0.0
 11
62.22831943342443
 21
7.671286145880789
 31
0.0
 11
63.06878478853886
 21
7.74474658854987
 31
0.0
 11
63.914570349304434
 21
7.818264513802919
 31
0.0
 11
64.7656677346685
 21
7.891830601152413
 31
0.0
 11
65.62206851094247
 21
7.965435391762095
 31
0.0
 11
66.48376419188548
 21
8.039069271574022
 31
0.0
 11
67.35074623878833
 21
8.112722479359853
 31
0.0
 11
68.22300606055825
 21
8.18638507239697
 31
0.0
 11
69.10053501380396
 21
8.260047028726147
 31
0.0
 11
69.98332440292145
 21
8.333697897426445
 31
0.0
 11
70.87136548017986
 21
8.407329130625037
 31
0.0
 11
71.7646494458085
 21
8.480936738898379
 31
0.0
 11
72.66316744808367
 21
8.554518533172736
 31
0.0
 11
73.56691058341681
 21
8.628072195073553
 31
0.0
 11
74.47586989644252
 21
8.701595575266069
 31
0.0
 11
75.39003638010698
 21
8.77508656867
 31
0.0
 11
76.3094009757579
 21
8.848543179733314
 31
0.0
 11
77.23395457323352
 21
8.921960689844271
 31
0.0
 11
78.16368801095359
 21
8.995332180260542
 31
0.0
 11
79.0985920760097
 21
9.068650406570795
 31
0.0
 11
80.03865750425652
 21
9.141908158601975
 31
0.0
 11
80.98387498040408
 21
9.215098153886249
 31
0.0
 11
81.93423513810944
 21
9.288213069736338
 31
0.0
 11
82.88972856007017
 21
9.361245531614122
 31
0.0
 11
83.8503457781171
 21
9.434188114854852
 31
0.0
 11
84.8160772733085
 21
9.50703334197826
 31
0.0
 11
85.78691347602415
 21
9.57977368326804
 31
0.0
 11
86.76284476606043
 21
9.652401548475487
 31
0.0
 11
87.74386147272537
 21
9.724909311886233
 31
0.0
 11
88.72995387493481
 21
9.797289360816304
 31
0.0
 11
89.72111220130834
 21
9.869536480901022
 31
0.0
 11
90.71732663026648
 21
9.941647461929499
 31
0.0
 11
91.7185872901279
 21
10.013619274957776
 31
0.0
 11
92.72488425920687
 21
10.085448969538346
 31
0.0
 11
93.73620756591227
 21
10.157131677725642
 31
0.0
 11
94.75254718884585
 21
10.228660697043557
 31
0.0
 11
95.77389305690167
 21
10.300029042144294
 31
0.0
 11
96.80023504936615
 21
10.3712297735973
 31
0.0
 11
97.83156299601782
 21
10.442255905434168
 31
0.0
 11
98.86786667722882
 21
10.513100434782185
 31
0.0
 11
99.90913582406539
 21
10.58375633160097
 31
0.0
 11
100.95536011839022
 21
10.654216541011408
 31
0.0
 11
102.00652919296456
 21
10.724473981433439
 31
0.0
 11
103.06263263155063
 21
10.794521545193387
 31
0.0
 11
104.12365996901526
 21
10.864352094614281
 31
0.0
 11
105.18960069143336
 21
10.933958470709557
 31
0.0
 11
106.26044423619227
 21
11.003333466698345
 31
0.0
 11
107.33617999209613
 21
11.072469993153941
 31
0.0
 11
108.41679729947131
 21
11.14136257388715
 31
0.0
 11
109.50228545027194
 21
11.210007082582369
 31
0.0
 11
110.592633688186
 21
11.278398464607555
 31
0.0
 11
111.68783120874197
 21
11.346530109726807
 31
0.0
 11
112.78786715941577
 21
11.414395231923503
 31
0.0
 11
113.89273063973852
 21
11.481987053621866
 31
0.0
 11
115.00241070140426
 21
11.549298780437177
 31
0.0
 11
116.11689634837862
 21
11.616323611882242
 31
0.0
 11
117.2361765370079
 21
11.683054736899347
 31
0.0
 11
118.36024017612823
 21
11.749485334986804
 31
0.0
 11
119.48907612717551
 21
11.815608575545257
 31
0.0
 11
120.62267320429616
 21
11.881417617289033
 31
0.0
 11
121.76102017445747
 21
11.946905609607295
 31
0.0
 11
122.90410575755911
 21
12.012065686027887
 31
0.0
 11
124.05191862654499
 21
12.076890986925196
 31
0.0
 11
125.2044474075155
 21
12.141374577434771
 31
0.0
 11
126.36168067983998
 21
12.205509895237384
 31
0.0
 11
127.52360697627014
 21
12.269291017482294
 31
0.0
 11
128.69021478305373
 21
12.332711057609673
 31
0.0
 11
129.86149254004823
 21
12.395762529635173
 31
0.0
 11
131.03742864083588
 21
12.458437988085832
 31
0.0
 11
132.2180114328385
 21
12.52072995634401
 31
0.0
 11
133.40322921743288
 21
12.582630943922078
 31
0.0
 11
134.5930702500667
 21
12.644133442451215
 31
0.0
 11
135.7875227403751
 21
12.705229926249016
 31
0.0
 11
136.98657485229745
 21
12.76591285204115
 31
0.0
 11
138.19021470419446
 21
12.82617465878604
 31
0.0
 11
139.39843036896596
 21
12.886007767592096
 31
0.0
 11
140.6112098741694
 21
12.945404581165718
 31
0.0
 11
141.8285412021381
 21
13.004357485483117
 31
0.0
 11
143.0504122901004
 21
13.062858841858983
 31
0.0
 11
144.27681103029957
 21
13.120900996018896
 31
0.0
 11
145.5077252701132
 21
13.178476156830063
 31
0.0
 11
146.74314281217414
 21
13.235577202367612
 31
0.0
 11
147.98305141449094
 21
13.29219720171557
 31
0.0
 11
149.22743879056952
 21
13.348329233024671
 31
0.0
 11
150.47629260953477
 21
13.40396637553756
 31
0.0
 11
151.72960049625263
 21
13.45910171232823
 31
0.0
 11
152.98735003145285
 21
13.513728329495255
 31
0.0
 11
154.2495287518521
 21
13.567839316416228
 31
0.0
 11
155.51612415027742
 21
13.621427765846667
 31
0.0
 11
156.78712367578993
 21
13.67448677364291
 31
0.0
 11
158.06251473380962
 21
13.727009439603249
 31
0.0
 11
159.34228468623982
 21
13.77898886626494
 31
0.0
 11
160.6264208515925
 21
13.83041815791794
 31
0.0
 11
161.91491050511425
 21
13.881290422172308
 31
0.0
 11
163.20774087891175
 21
13.931598108284843
 31
0.0
 11
164.5048991620789
 21
13.981333040500479
 31
0.0
 11
165.8063725008234
 21
14.03048736431354
 31
0.0
 11
167.11214799859417
 21
14.079053314114232
 31
0.0
 11
168.42221271620932
 21
14.127023102331645
 31
0.0
 11
169.73655367198435
 21
14.174388936285954
 31
0.0
 11
171.05515784186034
 21
14.221143012773684
 31
0.0
 11
172.37801215953374
 21
14.267277519799554
 31
0.0
 11
173.70510351658518
 21
14.312784636433417
 31
0.0
 11
175.03641876260974
 21
14.35765653190937
 31
0.0
 11
176.37194470534732
 21
14.401885369756116
 31
0.0
 11
177.71166811081298
 21
14.445463293560948
 31
0.0
 11
179.05557570342842
 21
14.48838247468517
 31
0.0
 11
180.40365416615342
 21
14.530634847401112
 31
0.0
 11
181.7558901406178
 21
14.572211631883363
 31
0.0
 11
183.11227022725382
 21
14.613103955479213
 31
0.0
 11
184.47278098542878
 21
14.653303935772133
 31
0.0
 11
185.83740893357853
 21
14.692804150311959
 31
0.0
 11
187.20614054934094
 21
14.731597139814319
 31
0.0
 11
188.57896226968955
 21
14.769675461434773
 31
0.0
 11
189.95586049106856
 21
14.807031672272428
 31
0.0
 11
191.33682156952716
 21
14.84365833421642
 31
0.0
 11
192.721831820855
 21
14.879548012808726
 31
0.0
 11
194.11087752071765
 21
14.914693277978666
 31
0.0
 11
195.50394490479258
 21
14.94908670280232
 31
0.0
 11
196.90102016890586
 21
14.982720870533715
 31
0.0
 11
198.30208946916832
 21
15.015588167508296
 31
0.0
 11
199.70713892211342
 21
15.047680060471304
 31
0.0
 11
201.11615460483438
 21
15.078987690809862
 31
0.0
 11
202.52912255512234
 21
15.109502135716985
 31
0.0
 11
203.94602877160455
 21
15.139214343656425
 31
0.0
 11
205.36685921388337
 21
15.168115218011636
 31
0.0
 11
206.79159980267528
 21
15.196195645866785
 31
0.0
 11
208.22023641995003
 21
15.223446494171528
 31
0.0
 11
209.6527549090712
 21
15.24985861103866
 31
0.0
 11
211.08914107493607
 21
15.275422825633997
 31
0.0
 11
212.52938068411632
 21
15.300129948555293
 31
0.0
 11
213.9734594649992
 21
15.323970771699651
 31
0.0
 11
215.42136310792873
 21
15.346936073763823
 31
0.0
 11
216.87307726534777
 21
15.36901681555426
 31
0.0
 11
218.32858755193985
 21
15.390204282476502
 31
0.0
 11
219.7878795447722
 21
15.410489677438
 31
0.0
 11
221.25093878343827
 21
15.429865328578622
 31
0.0
 11
222.717750770201
 21
15.448327883626975
 31
0.0
 11
224.18830097013685
 21
15.465875773680958
 31
0.0
 11
225.66257481127948
 21
15.482507428391038
 31
0.0
 11
227.1405576847643
 21
15.498221408666248
 31
0.0
 11
228.62223494497312
 21
15.513016368099649
 31
0.0
 11
230.1075919096795
 21
15.52689106642908
 31
0.0
 11
231.59661386019403
 21
15.539844370040914
 31
0.0
 11
233.08928604151023
 21
15.55187520248347
 31
0.0
 11
234.58559366245075
 21
15.562986039793584
 31
0.0
 11
236.08552189581408
 21
15.573188073713156
 31
0.0
 11
237.58905587852124
 21
15.582494418762352
 31
0.0
 11
239.09618071176325
 21
15.590918409143995
 31
0.0
 11
240.60688146114865
 21
15.598475851549876
 31
0.0
 11
242.12114315685153
 21
15.605188665174126
 31
0.0
 11
243.63895079376013
 21
15.611080170255159
 31
0.0
 11
245.16028933162468
 21
15.616174119408564
 31
0.0
 11
246.6851436952077
 21
15.620494690979054
 31
0.0
 11
248.2134987744323
 21
15.624066544878987
 31
0.0
 11
249.74533942453246
 21
15.626914600036846
 31
0.0
 11
251.2806504662029
 21
15.62906469230245
 31
0.0
 11
252.8194166857496
 21
15.630536740310022
 31
0.0
 11
254.3616228352406
 21
15.631342256351985
 31
0.0
 11
255.90725363265682
 21
15.631491034516781
 31
0.0
 11
257.45629376204386
 21
15.630993373882687
 31
0.0
 11
259.0087278736635
 21
15.629858658740181
 31
0.0
 11
260.5645405841457
 21
15.628085650446707
 31
0.0
 11
262.12371647664173
 21
15.625667768200206
 31
0.0
 11
263.68624010097597
 21
15.622598243149993
 31
0.0
 11
265.2520959737998
 21
15.618870332303032
 31
0.0
 11
266.8212685787444
 21
15.614477254194856
 31
0.0
 11
268.39374236657505
 21
15.60941223483136
 31
0.0
 11
269.96950175534494
 21
15.60366835559238
 31
0.0
 11
271.5485311305494
 21
15.597237925819186
 31
0.0
 11
273.1308148452811
 21
15.590112655218809
 31
0.0
 11
274.71633722038473
 21
15.58228423973624
 31
0.0
 11
276.30508254461233
 21
15.573744328061148
 31
0.0
 11
277.8970350747795
 21
15.5644848846423
 31
0.0
 11
279.4921790359205
 21
15.554501419486844
 31
0.0
 11
281.09049862144536
 21
15.543791637491573
 31
0.0
 11
282.69197799329635
 21
15.532353305664998
 31
0.0
 11
284.2966012821046
 21
15.520184232626198
 31
0.0
 11
285.9043525873475
 21
15.507282273485307
 31
0.0
 11
287.5152159775066
 21
15.493645310008521
 31
0.0
 11
289.12917549022495
 21
15.479271691238845
 31
0.0
 11
290.7462151324658
 21
15.464160310141883
 31
0.0
 11
292.36631888067046
 21
15.448310195771283
 31
0.0
 11
293.9894706809175
 21
15.431720399370505
 31
0.0
 11
295.6156544490821
 21
15.414390087154374
 31
0.0
 11
297.2448540709947
 21
15.396318088920658
 31
0.0
 11
298.87705340260095
 21
15.377502226803967
 31
0.0
 11
300.51223627012234
 21
15.35793985540693
 31
0.0
 11
302.15038647021555
 21
15.337628432848923
 31
0.0
 11
303.7914877701332
 21
15.316565404154861
 31
0.0
 11
305.43552390788545
 21
15.294748324603951
 31
0.0
 11
307.0824785924002
 21
15.272173610987041
 31
0.0
 11
308.73233550368474
 21
15.248836137981163
 31
0.0
 11
310.38507829298834
 21
15.224730482973754
 31
0.0
 11
312.04069058296255
 21
15.199851277960816
 31
0.0
 11
313.6991559678254
 21
15.174193140364931
 31
0.0
 11
315.36045801352253
 21
15.147750717365383
 31
0.0
 11
317.02458025789065
 21
15.120519128500591
 31
0.0
 11
318.6915062108208
 21
15.092494051025351
 31
0.0
 11
320.3612193544211
 21
15.063671205316778
 31
0.0
 11
322.0337031431812
 21
15.034046303888836
 31
0.0
 11
323.70894100413585
 21
15.003615173788369
 31
0.0
 11
325.38691633702916
 21
14.972374668749417
 31
0.0
 11
327.0676125144789
 21
14.940323017810092
 31
0.0
 11
328.75101288214177
 21
14.907458504016953
 31
0.0
 11
330.43710075887793
 21
14.873779471317167
 31
0.0
 11
332.12585943691647
 21
14.839284303530363
 31
0.0
 11
333.8172721820211
 21
14.80397142194337
 31
0.0
 11
335.51132223365585
 21
14.76783951388912
 31
0.0
 11
337.20799280515115
 21
14.730887758909091
 31
0.0
 11
338.9072670838703
 21
14.693115458661914
 31
0.0
 11
340.60912823137556
 21
14.654521956015405
 31
0.0
 11
342.31355938359604
 21
14.615105979169963
 31
0.0
 11
344.0205436509937
 21
14.574861593350693
 31
0.0
 11
345.7300641187311
 21
14.533780950553925
 31
0.0
 11
347.4421038468397
 21
14.491856149675076
 31
0.0
 11
349.1566458703865
 21
14.449079279464208
 31
0.0
 11
350.8736731996432
 21
14.405442403270662
 31
0.0
 11
352.5931688202537
 21
14.360937566003576
 31
0.0
 11
354.3151156934036
 21
14.31555652639757
 31
0.0
 11
356.0394967559882
 21
14.269290353483948
 31
0.0
 11
357.76629492078206
 21
14.222130024880023
 31
0.0
 11
359.4954930766083
 21
14.17406640980757
 31
0.0
 11
361.22707408850795
 21
14.125092246841113
 31
0.0
 11
362.96102079790995
 21
14.07520224380079
 31
0.0
 11
364.69731602280086
 21
14.024391449217314
 31
0.0
 11
366.43594255789577
 21
13.97265485149248
 31
0.0
 11
368.17688317480804
 21
13.919987474146156
 31
0.0
 11
369.92012062222017
 21
13.86638434106138
 31
0.0
 11
371.6656376260555
 21
13.811840517197714
 31
0.0
 11
373.4134168896484
 21
13.756351707239865
 31
0.0
 11
375.16344109391594
 21
13.699914805483807
 31
0.0
 11
376.9156928975301
 21
13.642526731259306
 31
0.0
 11
378.6701549370889
 21
13.584185229389481
 31
0.0
 11
380.4268098272883
 21
13.52488953403371
 31
0.0
 11
382.1856401610958
 21
13.464639414474636
 31
0.0
 11
383.9466285099211
 21
13.403434613925995
 31
0.0
 11
385.7097574237905
 21
13.34127494983642
 31
0.0
 11
387.4750094315183
 21
13.278160285471065
 31
0.0
 11
389.2423670408809
 21
13.21409053733889
 31
0.0
 11
391.01181273879024
 21
13.149065628676714
 31
0.0
 11
392.7833289914666
 21
13.08308487631023
 31
0.0
 11
394.5568982446128
 21
13.016147157083712
 31
0.0
 11
396.3325029235881
 21
12.948251451992165
 31
0.0
 11
398.1101254335825
 21
12.879397008678819
 31
0.0
 11
399.8897481597907
 21
12.809583210638737
 31
0.0
 11
401.6713534675869
 21
12.738809480089841
 31
0.0
 11
403.45492370269966
 21
12.667075289342353
 31
0.0
 11
405.24044119138637
 21
12.594380157608033
 31
0.0
 11
407.0278882406093
 21
12.520723652515397
 31
0.0
 11
408.8172471382096
 21
12.446105387132889
 31
0.0
 11
410.60850015308426
 21
12.370525180249736
 31
0.0
 11
412.4016295353606
 21
12.29398340336334
 31
0.0
 11
414.1966175165726
 21
12.216480014141679
 31
0.0
 11
415.99344630983757
 21
12.138012367390306
 31
0.0
 11
417.7920981100313
 21
12.058576844945302
 31
0.0
 11
419.5925550939653
 21
11.978169879663962
 31
0.0
 11
421.3947994205631
 21
11.896787919492484
 31
0.0
 11
423.1988132310373
 21
11.81442743731049
 31
0.0
 11
425.00457864906593
 21
11.731084927342604
 31
0.0
 11
426.8120777809704
 21
11.646756913476572
 31
0.0
 11
428.6212927158924
 21
11.56143999750899
 31
0.0
 11
430.43220552597086
 21
11.475131604492882
 31
0.0
 11
432.244798266521
 21
11.387830192235622
 31
0.0
 11
434.05905297621035
 21
11.299537542244575
 31
0.0
 11
435.8749516772386
 21
11.210256631916884
 31
0.0
 11
437.69247637551405
 21
11.11999051579911
 31
0.0
 11
439.51160906083305
 21
11.028742309862412
 31
0.0
 11
441.3323317070581
 21
10.93651519649518
 31
0.0
 11
443.1546262722963
 21
10.843312421159997
 31
0.0
 11
444.97847469907833
 21
10.749137298406128
 31
0.0
 11
446.8038589145376
 21
10.65399320246376
 31
0.0
 11
448.6307608305888
 21
10.557883838433526
 31
0.0
 11
450.4591623441075
 21
10.460813759241374
 31
0.0
 11
452.2890453371096
 21
10.362789871939281
 31
0.0
 11
454.12039167693075
 21
10.263820021745929
 31
0.0
 11
455.9531832164056
 21
10.16391211115398
 31
0.0
 11
457.7874017940486
 21
10.063074139036347
 31
0.0
 11
459.62302923423306
 21
9.96131418833404
 31
0.0
 11
461.4600473473717
 21
9.858640424261235
 31
0.0
 11
463.29843793009684
 21
9.755061110277264
 31
0.0
 11
465.1381827654405
 21
9.65058453979987
 31
0.0
 11
466.9792636230155
 21
9.54521925949395
 31
0.0
 11
468.8216622591956
 21
9.438972206855563
 31
0.0
 11
470.66536041729614
 21
9.33184532656235
 31
0.0
 11
472.5103398277559
 21
9.223838375480032
 31
0.0
 11
474.35658220831687
 21
9.114951376250776
 31
0.0
 11
476.20406926420617
 21
9.005184316184042
 31
0.0
 11
478.0527826883176
 21
8.894537234394384
 31
0.0
 11
479.90270416139214
 21
8.783010208634199
 31
0.0
 11
481.7538153521999
 21
8.670603318669112
 31
0.0
 11
483.6060979177227
 21
8.557316793661379
 31
0.0
 11
485.4595335033339
 21
8.44315008187762
 31
0.0
 11
487.31410374298207
 21
8.328102585749555
 31
0.0
 11
489.169790259372
 21
8.212175953966483
 31
0.0
 11
491.026574664147
 21
8.095373059567757
 31
0.0
 11
492.8844385580716
 21
7.977696653855219
 31
0.0
 11
494.74336353121294
 21
7.859149586990825
 31
0.0
 11
496.60333116312415
 21
7.739734743989748
 31
0.0
 11
498.46432302302605
 21
7.619455063015595
 31
0.0
 11
500.3263206699907
 21
7.498313525599805
 31
0.0
 11
502.18930565312303
 21
7.376313174822021
 31
0.0
 11
504.0532595117447
 21
7.2534570261841065
 31
0.0
 11
505.91816377557666
 21
7.129748322483213
 31
0.0
 11
507.7839999649215
 21
7.005190913942078
 31
0.0
 11
509.65074959084797
 21
6.879788907473491
 31
0.0
 11
511.5183941553727
 21
6.7535464328656305
 31
0.0
 11
513.3869151516448
 21
6.6264676775481925
 31
0.0
 11
515.2562940641282
 21
6.498556878193654
 31
0.0
 11
517.1265123687856
 21
6.369818315902067
 31
0.0
 11
518.9975515332626
 21
6.240256341047287
 31
0.0
 11
520.8693930170699
 21
6.109875295634719
 31
0.0
 11
522.7420182717683
 21
5.9786807370322474
 31
0.0
 11
524.6154087411521
 21
5.8466799083249885
 31
0.0
 11
526.4895458614329
 21
5.713879524527514
 31
0.0
 11
528.3644110614232
 21
5.580286094807613
 31
0.0
 11
530.2399857627216
 21
5.445906206432508
 31
0.0
 11
532.1162513798955
 21
5.310746487611186
 31
0.0
 11
533.9931893206658
 21
5.174813616223907
 31
0.0
 11
535.870780986092
 21
5.038114318545172
 31
0.0
 11
537.7490077707546
 21
4.900655362281485
 31
0.0
 11
539.6278510629417
 21
4.762443603538225
 31
0.0
 11
541.5072922448313
 21
4.623487989610787
 31
0.0
 11
543.3873126926776
 21
4.48380230782666
 31
0.0
 11
545.2678937769942
 21
4.343403421715746
 31
0.0
 11
547.1490168627397
 21
4.202308568888649
 31
0.0
 11
549.0306633095014
 21
4.060535055680092
 31
0.0
 11
550.9128144716809
 21
3.9181002481388094
 31
0.0
 11
552.7954516986784
 21
3.7750215733500316
 31
0.0
 11
554.6785563350774
 21
3.631316512233582
 31
0.0
 11
556.5621097208299
 21
3.4870026168507535
 31
0.0
 11
558.4460931914413
 21
3.3420973908954927
 31
0.0
 11
560.3304880781548
 21
3.1966135781230314
 31
0.0
 11
562.2152757081373
 21
3.0505493177801783
 31
0.0
 11
564.1004374046634
 21
2.9038957646287518
 31
0.0
 11
565.9859544873017
 21
2.7566441759914673
 31
0.0
 11
567.8718082720984
 21
2.608785753208258
 31
0.0
 11
569.7579800717639
 21
2.460311700189058
 31
0.0
 11
571.6444511958568
 21
2.3112132986706304
 31
0.0
 11
573.5312029509703
 21
2.1614815876351328
 31
0.0
 11
575.418216640916
 21
2.0111110859418275
 31
0.0
 11
577.3054735669105
 21
1.8601168165345447
 31
0.0
 11
579.19295502776
 21
1.7085264078958804
 31
0.0
 11
581.0806423200455
 21
1.556367536130801
 31
0.0
 11
582.9685167383087
 21
1.4036680360296403
 31
0.0
 11
584.856559575237
 21
1.250455678021101
 31
0.0
 11
586.7447521218486
 21
1.0967597158994218
 31
0.0
 11
588.6330756676786
 21
0.9425921702051017
 31
0.0
 11
590.5215115009635
 21
0.787943564539655
 31
0.0
 11
592.4100409088277
 21
0.6328035438899995
 31
0.0
 11
594.2986451774681
 21
0.47716172307907456
 31
0.0
 11
596.1873055923394
 21
0.3210076132924163
 31
0.0
 11
598.0760034383409
 21
0.16433063667592837
 31
0.0
 11
599.9647199999998
 21
0.007120105908515551
 31
0.0
  0
SPLINE
  5
8D
330
17
100
AcDbEntity
  8
layer0
  6
ByLayer
 62
0
370
5
100
AcDbSpline
 70
0
 71
3
 72
0
 73
0
 74
615
 11
419.99999999999994
 21
30.168662966040493
 31
0.0
 11
419.24508117717556
 21
30.274145808038366
 31
0.0
 11
417.41474051812963
 21
30.528719501901406
 31
0.0
 11
415.5859920418456
 21
30.781408074342522
 31
0.0
 11
413.75885535739934
 21
31.032210699283873
 31
0.0
 11
411.9333510127102
 21
31.28112648832543
 31
0.0
 11
410.1095037819652
 21
31.528151529387895
 31
0.0
 11
408.2873362320201
 21
31.77327683528841
 31
0.0
 11
406.46686670310635
 21
32.0164934087781
 31
0.0
 11
404.6481140140514
 21
32.25779232310054
 31
0.0
 11
402.83109684086253
 21
32.49716480654088
 31
0.0
 11
401.01583388208513
 21
32.73460222095356
 31
0.0
 11
399.20234381725885
 21
32.97009606797837
 31
0.0
 11
397.3906453065116
 21
33.203637989728115
 31
0.0
 11
395.5807570324012
 21
33.43521976407771
 31
0.0
 11
393.7726975190531
 21
33.664833333082335
 31
0.0
 11
391.9664850598188
 21
33.89247109565021
 31
0.0
 11
390.1621384000522
 21
34.11812598032564
 31
0.0
 11
388.3596766155551
 21
34.34179104871693
 31
0.0
 11
386.55911871208355
 21
34.56345950753276
 31
0.0
 11
384.76048369421665
 21
34.78312470047065
 31
0.0
 11
382.9637905399294
 21
35.000780111877425
 31
0.0
 11
381.1690582319544
 21
35.216419363454335
 31
0.0
 11
379.376305656313
 21
35.430036226900114
 31
0.0
 11
377.58555197517
 21
35.641624580129644
 31
0.0
 11
375.7968150716783
 21
35.85117864327076
 31
0.0
 11
374.01011061974634
 21
36.058695257154774
 31
0.0
 11
372.2254565349516
 21
36.26417411824804
 31
0.0
 11
370.44287287460287
 21
36.46761498506424
 31
0.0
 11
368.66237928671757
 21
36.66901776252209
 31
0.0
 11
366.88399549808514
 21
36.868382445552506
 31
0.0
 11
365.1077411738586
 21
37.065709135161725
 31
0.0
 11
363.33363598949103
 21
37.260998030369656
 31
0.0
 11
361.5616994815554
 21
37.45424944458454
 31
0.0
 11
359.79195157044217
 21
37.64546374881104
 31
0.0
 11
358.0244104463951
 21
37.83464165193875
 31
0.0
 11
356.25909026778345
 21
38.02178759888869
 31
0.0
 11
354.4960081630541
 21
38.20691077392046
 31
0.0
 11
352.73518499106945
 21
38.390020425009915
 31
0.0
 11
350.9766409678158
 21
38.57112589459524
 31
0.0
 11
349.2203964347389
 21
38.75023653790062
 31
0.0
 11
347.46647165904886
 21
38.92736174316472
 31
0.0
 11
345.71488686245044
 21
39.10251092794786
 31
0.0
 11
343.9656623036067
 21
39.27569353032227
 31
0.0
 11
342.2188179176724
 21
39.44691904375155
 31
0.0
 11
340.47437469481997
 21
39.61619687527299
 31
0.0
 11
338.7323620468055
 21
39.78353185820588
 31
0.0
 11
336.9928064800431
 21
39.94891908680536
 31
0.0
 11
335.25572601772865
 21
40.112352961418594
 31
0.0
 11
333.5211393564108
 21
40.27382797958748
 31
0.0
 11
331.7890649770344
 21
40.43333882130659
 31
0.0
 11
330.05952138469524
 21
40.59088032670856
 31
0.0
 11
328.33252703654955
 21
40.746447503109636
 31
0.0
 11
326.60810038906266
 21
40.90003552103876
 31
0.0
 11
324.8862597796643
 21
41.051639725036225
 31
0.0
 11
323.16702385114087
 21
41.201255596760554
 31
0.0
 11
321.45040862485195
 21
41.34887941394107
 31
0.0
 11
319.73642947917233
 21
41.494510938537395
 31
0.0
 11
318.0251049267237
 21
41.63815136860136
 31
0.0
 11
316.31645412975183
 21
41.779801969971864
 31
0.0
 11
314.61049603991256
 21
41.91946413927499
 31
0.0
 11
312.9072496169542
 21
42.05713938536588
 31
0.0
 11
311.20673377445377
 21
42.192829333759526
 31
0.0
 11
309.50896737667586
 21
42.32653572671767
 31
0.0
 11
307.8139693036476
 21
42.458260418042734
 31
0.0
 11
306.1217581925359
 21
42.588005392921566
 31
0.0
 11
304.4323534436355
 21
42.71577267998982
 31
0.0
 11
302.74577795254936
 21
42.841562291287225
 31
0.0
 11
301.06205312704674
 21
42.96537054712806
 31
0.0
 11
299.3811970448719
 21
43.08719369286768
 31
0.0
 11
297.7032281460495
 21
43.20702812636353
 31
0.0
 11
296.0281647251545
 21
43.32487043567452
 31
0.0
 11
294.35602506780066
 21
43.44071738922134
 31
0.0
 11
292.6868274105232
 21
43.55456593875661
 31
0.0
 11
291.02058996335603
 21
43.666413217887225
 31
0.0
 11
289.3573308581611
 21
43.77625654559124
 31
0.0
 11
287.69706833111314
 21
43.884093414301276
 31
0.0
 11
286.0398199280018
 21
43.989921575724736
 31
0.0
 11
284.3856024305768
 21
44.09373997146996
 31
0.0
 11
282.73443373831634
 21
44.19554870323349
 31
0.0
 11
281.08633250596625
 21
44.29534803659251
 31
0.0
 11
279.4413171843636
 21
44.393138405860654
 31
0.0
 11
277.7994062194806
 21
44.488920401582874
 31
0.0
 11
276.16061799747865
 21
44.58269477373473
 31
0.0
 11
274.52497086406925
 21
44.6744624304157
 31
0.0
 11
272.8924831004643
 21
44.764224439022485
 31
0.0
 11
271.2631729986488
 21
44.8519820219547
 31
0.0
 11
269.6370585830829
 21
44.93773657126327
 31
0.0
 11
268.0141588558117
 21
45.02148952675912
 31
0.0
 11
266.3944941938008
 21
45.10324098217467
 31
0.0
 11
264.7780835880704
 21
45.18298977211139
 31
0.0
 11
263.16494485785597
 21
45.26073491127167
 31
0.0
 11
261.55509600066955
 21
45.33647559789428
 31
0.0
 11
259.94855490456933
 21
45.41021122791738
 31
0.0
 11
258.3453394156083
 21
45.48194139145611
 31
0.0
 11
256.7454673540851
 21
45.55166587193203
 31
0.0
 11
255.14895638092125
 21
45.6193846515701
 31
0.0
 11
253.55582451403515
 21
45.68509788951246
 31
0.0
 11
251.9660881969772
 21
45.74880600020257
 31
0.0
 11
250.37976991943742
 21
45.81050924081073
 31
0.0
 11
248.79691334976678
 21
45.870195624881234
 31
0.0
 11
247.2175525139256
 21
45.92783227715312
 31
0.0
 11
245.64170243632125
 21
45.983385334959124
 31
0.0
 11
244.06938073953023
 21
46.036821509894786
 31
0.0
 11
242.5006042828615
 21
46.088108212600574
 31
0.0
 11
240.9353900584161
 21
46.13721352091904
 31
0.0
 11
239.37375496331546
 21
46.18410618798917
 31
0.0
 11
237.81571581411032
 21
46.2287556416816
 31
0.0
 11
236.26128951492905
 21
46.27113197998912
 31
0.0
 11
234.71049236972377
 21
46.3112059892874
 31
0.0
 11
233.16334266091346
 21
46.34894907926844
 31
0.0
 11
231.61984180732134
 21
46.384336142043416
 31
0.0
 11
230.0799862773401
 21
46.41736130506149
 31
0.0
 11
228.54379188979192
 21
46.44802715307564
 31
0.0
 11
227.0112783636722
 21
46.47633647485364
 31
0.0
 11
225.48246431446586
 21
46.502292325743745
 31
0.0
 11
223.95736854265454
 21
46.52589800041162
 31
0.0
 11
222.43600968864084
 21
46.5471570387268
 31
0.0
 11
220.918406324809
 21
46.56607322340049
 31
0.0
 11
219.40457693086773
 21
46.58265057962424
 31
0.0
 11
217.89453989944792
 21
46.596893374202104
 31
0.0
 11
216.3883135372992
 21
46.60880611474426
 31
0.0
 11
214.88591605392332
 21
46.61839354892226
 31
0.0
 11
213.387364851792
 21
46.62566087644818
 31
0.0
 11
211.89267760118935
 21
46.6306143262761
 31
0.0
 11
210.40187276127676
 21
46.633260533921465
 31
0.0
 11
208.9149686861741
 21
46.6336063529042
 31
0.0
 11
207.43198363592458
 21
46.63165885377667
 31
0.0
 11
205.95293577334974
 21
46.627425323183054
 31
0.0
 11
204.47784316494125
 21
46.620913262892266
 31
0.0
 11
203.00672377973373
 21
46.61213038880707
 31
0.0
 11
201.53959549226153
 21
46.60108462997794
 31
0.0
 11
200.07647607125227
 21
46.58778412748572
 31
0.0
 11
198.61738322126308
 21
46.5722372338052
 31
0.0
 11
197.1623344271021
 21
46.55445250997672
 31
0.0
 11
195.71134928811006
 21
46.534438355188406
 31
0.0
 11
194.26444808403164
 21
46.51220132051402
 31
0.0
 11
192.82164893801456
 21
46.4877475084317
 31
0.0
 11
191.3829696997487
 21
46.461083276855
 31
0.0
 11
189.9484281520803
 21
46.43221524129274
 31
0.0
 11
188.51804195597109
 21
46.40115027270412
 31
0.0
 11
187.09182866553496
 21
46.36789549649442
 31
0.0
 11
185.669805722738
 21
46.33245829110816
 31
0.0
 11
184.2519904634991
 21
46.294846286859396
 31
0.0
 11
182.83840009857838
 21
46.255067364067855
 31
0.0
 11
181.42905178384294
 21
46.2131296537182
 31
0.0
 11
180.02396235874528
 21
46.1690415280993
 31
0.0
 11
178.62314949361678
 21
46.12281159902059
 31
0.0
 11
177.22663264738614
 21
46.07444762665764
 31
0.0
 11
175.8344303704129
 21
46.02395625359939
 31
0.0
 11
174.44655989140296
 21
45.97134429279122
 31
0.0
 11
173.06303854911712
 21
45.91661885302686
 31
0.0
 11
171.68388349255957
 21
45.85978732665042
 31
0.0
 11
170.30911176117883
 21
45.80085739086844
 31
0.0
 11
168.93874026408614
 21
45.73983700524994
 31
0.0
 11
167.57278578380826
 21
45.67673441014561
 31
0.0
 11
166.21126498277647
 21
45.611558125250156
 31
0.0
 11
164.8541943744862
 21
45.54431694642235
 31
0.0
 11
163.50159043306914
 21
45.47501994939445
 31
0.0
 11
162.1534691854042
 21
45.403676466742006
 31
0.0
 11
160.80984817246062
 21
45.3302960996976
 31
0.0
 11
159.47074715975347
 21
45.254887097181644
 31
0.0
 11
158.13618427289725
 21
45.17745635817693
 31
0.0
 11
156.8061761619056
 21
45.09801098447294
 31
0.0
 11
155.4807396208839
 21
45.01655842557419
 31
0.0
 11
154.1598912182244
 21
44.93310645530632
 31
0.0
 11
152.84364739585558
 21
44.8476631754196
 31
0.0
 11
151.53202444325348
 21
44.76023701173234
 31
0.0
 11
150.22503850418116
 21
44.67083671223762
 31
0.0
 11
148.9227055776091
 21
44.579471344833465
 31
0.0
 11
147.6250415093221
 21
44.48615029435198
 31
0.0
 11
146.33206202657328
 21
44.390883262676255
 31
0.0
 11
145.04378261021222
 21
44.29368025678565
 31
0.0
 11
143.7602189839341
 21
44.19455162141622
 31
0.0
 11
142.48138974927997
 21
44.09350736781985
 31
0.0
 11
141.20731357341774
 21
43.9905556422222
 31
0.0
 11
139.9380065977372
 21
43.885704432432966
 31
0.0
 11
138.67348502294234
 21
43.77896211588299
 31
0.0
 11
137.41376481402745
 21
43.6703374330773
 31
0.0
 11
136.15886177992556
 21
43.55983949113441
 31
0.0
 11
134.90879155282485
 21
43.44747775904542
 31
0.0
 11
133.66356959489875
 21
43.33326206520672
 31
0.0
 11
132.4232111956077
 21
43.21720259409695
 31
0.0
 11
131.18773147941218
 21
43.09930988388811
 31
0.0
 11
129.9571453813857
 21
42.97959482095141
 31
0.0
 11
128.73146774067627
 21
42.85806864584646
 31
0.0
 11
127.51071295558474
 21
42.73474291562368
 31
0.0
 11
126.29489632953828
 21
42.60962962655535
 31
0.0
 11
125.08403825390661
 21
42.48273989737642
 31
0.0
 11
123.87815843915548
 21
42.35408152040953
 31
0.0
 11
122.67727231397954
 21
42.223661865003194
 31
0.0
 11
121.481395617888
 21
42.091488815420284
 31
0.0
 11
120.2905437382148
 21
41.95757069645672
 31
0.0
 11
119.10473188863197
 21
41.82191628843238
 31
0.0
 11
117.92397506279875
 21
41.68453481782215
 31
0.0
 11
116.74828804776418
 21
41.54543595442379
 31
0.0
 11
115.57768542284875
 21
41.4046298068715
 31
0.0
 11
114.41218155708822
 21
41.26212691790957
 31
0.0
 11
113.2517906269588
 21
41.11793826212603
 31
0.0
 11
112.09652655468757
 21
40.9720752337431
 31
0.0
 11
110.94640324339093
 21
40.82454967198822
 31
0.0
 11
109.80143370679127
 21
40.67537374412097
 31
0.0
 11
108.66163501852822
 21
40.52456028566646
 31
0.0
 11
107.52702833077312
 21
40.37211953173294
 31
0.0
 11
106.39763065745984
 21
40.21805937689953
 31
0.0
 11
105.2734568042265
 21
40.06238796727947
 31
0.0
 11
104.15452177955716
 21
39.905114057289765
 31
0.0
 11
103.04084020423944
 21
39.746246923683934
 31
0.0
 11
101.93242647133705
 21
39.585796381561664
 31
0.0
 11
100.82929470570305
 21
39.423772772674646
 31
0.0
 11
99.7314587766373
 21
39.260186961131865
 31
0.0
 11
98.6389322980736
 21
39.09505032730519
 31
0.0
 11
97.55172862575921
 21
38.928374761210875
 31
0.0
 11
96.46986087894989
 21
38.76017265963048
 31
0.0
 11
95.39334186739343
 21
38.59045690841883
 31
0.0
 11
94.32218437189314
 21
38.419240920697256
 31
0.0
 11
93.25640010858746
 21
38.24653846394192
 31
0.0
 11
92.19600407993792
 21
38.0723642805136
 31
0.0
 11
91.14101987434609
 21
37.89673134070549
 31
0.0
 11
90.09146793007066
 21
37.719647615845304
 31
0.0
 11
89.04736233816024
 21
37.54112041153345
 31
0.0
 11
88.00871792562515
 21
37.36115791411945
 31
0.0
 11
86.97554888400825
 21
37.17976895175459
 31
0.0
 11
85.9478691395111
 21
36.996963048334386
 31
0.0
 11
84.92569225776714
 21
36.81275039807055
 31
0.0
 11
83.90903147310901
 21
36.62714186152439
 31
0.0
 11
82.89789968414765
 21
36.44014895569693
 31
0.0
 11
81.89230946007511
 21
36.251783845993714
 31
0.0
 11
80.8922730378264
 21
36.062059336451185
 31
0.0
 11
79.89780234517579
 21
35.87098886485303
 31
0.0
 11
78.90890892961876
 21
35.67858647965501
 31
0.0
 11
77.92560423733148
 21
35.484866885183166
 31
0.0
 11
76.94789858982554
 21
35.28984522948892
 31
0.0
 11
75.9758052443112
 21
35.09353787168874
 31
0.0
 11
75.00935019790408
 21
34.89596045564758
 31
0.0
 11
74.04855727583835
 21
34.69712163127335
 31
0.0
 11
73.09344012549177
 21
34.49702817845692
 31
0.0
 11
72.1440133199275
 21
34.29568807306023
 31
0.0
 11
71.200290585657
 21
34.09311010830225
 31
0.0
 11
70.26228528235785
 21
33.8893039808396
 31
0.0
 11
69.33001028116689
 21
33.68428025116297
 31
0.0
 11
68.40347800359736
 21
33.478050337920145
 31
0.0
 11
67.48270041775953
 21
33.27062650306315
 31
0.0
 11
66.56768904541515
 21
33.062021839300776
 31
0.0
 11
65.65845496842552
 21
32.85225025740664
 31
0.0
 11
64.7550088270214
 21
32.641326471595214
 31
0.0
 11
63.85736085143557
 21
32.429265992680286
 31
0.0
 11
62.96552076882169
 21
32.21608509166126
 31
0.0
 11
62.079498174304504
 21
32.00180087452992
 31
0.0
 11
61.19930117603657
 21
31.786430938488877
 31
0.0
 11
60.324941689395054
 21
31.569994626118483
 31
0.0
 11
59.456452107628735
 21
31.352511904687404
 31
0.0
 11
58.59386283917102
 21
31.133992312346933
 31
0.0
 11
57.737187665641954
 21
30.914441283659784
 31
0.0
 11
56.88644170852144
 21
30.69386601007093
 31
0.0
 11
56.04163883754731
 21
30.472274763737282
 31
0.0
 11
55.202792374454546
 21
30.249677053928753
 31
0.0
 11
54.36991491710843
 21
30.026083558580908
 31
0.0
 11
53.543018398495164
 21
29.80150611656165
 31
0.0
 11
52.722114083020344
 21
29.57595770352419
 31
0.0
 11
51.90721257979585
 21
29.349452412249132
 31
0.0
 11
51.09832385065987
 21
29.122005431561625
 31
0.0
 11
50.29545722253754
 21
28.893633026456307
 31
0.0
 11
49.498621387926164
 21
28.664352514839713
 31
0.0
 11
48.70782444856637
 21
28.43418225673577
 31
0.0
 11
47.92307379903411
 21
28.203141596782164
 31
0.0
 11
47.14437660528796
 21
27.97125098236656
 31
0.0
 11
46.371738072386684
 21
27.738531421664067
 31
0.0
 11
45.60516807974472
 21
27.505006448454214
 31
0.0
 11
44.844714858265775
 21
27.27070466170204
 31
0.0
 11
44.09042573693186
 21
27.035636493082947
 31
0.0
 11
43.34231532987092
 21
26.799801615406757
 31
0.0
 11
42.600400204670194
 21
26.563202598594778
 31
0.0
 11
41.86469494957497
 21
26.325843646077164
 31
0.0
 11
41.1352132468327
 21
26.08773088732578
 31
0.0
 11
40.41196761087527
 21
25.84887225066497
 31
0.0
 11
39.69496948267372
 21
25.609277449446594
 31
0.0
 11
38.98422922920601
 21
25.36895793778046
 31
0.0
 11
38.27975616822973
 21
25.127926874595985
 31
0.0
 11
37.581558586636014
 21
24.886199085695363
 31
0.0
 11
36.889643759595394
 21
24.64379102616563
 31
0.0
 11
36.204017973180854
 21
24.40072074413537
 31
0.0
 11
35.52468653260611
 21
24.157007839539993
 31
0.0
 11
34.851653824469935
 21
23.912673442447794
 31
0.0
 11
34.184923178499574
 21
23.667740118535445
 31
0.0
 11
33.52449747376716
 21
23.422232048958428
 31
0.0
 11
32.8703769813955
 21
23.176174180234554
 31
0.0
 11
32.22256758872961
 21
22.929595275633815
 31
0.0
 11
31.581138595270854
 21
22.682539594577555
 31
0.0
 11
30.94616398695631
 21
22.435026940862908
 31
0.0
 11
30.317663938139948
 21
22.18705527157651
 31
0.0
 11
29.695660645538503
 21
21.93862703803497
 31
0.0
 11
29.080172981663804
 21
21.689747024009137
 31
0.0
 11
28.471217976985866
 21
21.440422838932452
 31
0.0
 11
27.86881048320749
 21
21.190664695839754
 31
0.0
 11
27.27296332120371
 21
20.940485382750065
 31
0.0
 11
26.68368729998589
 21
20.689900182468516
 31
0.0
 11
26.10099127035722
 21
20.43892680700052
 31
0.0
 11
25.524882168683618
 21
20.187585328328666
 31
0.0
 11
24.955365066226918
 21
19.935898112060475
 31
0.0
 11
24.39244320655558
 21
19.68388974630718
 31
0.0
 11
23.836118085157302
 21
19.431586990033576
 31
0.0
 11
23.286389373327925
 21
19.179018651116657
 31
0.0
 11
22.74325541918391
 21
18.926215730928085
 31
0.0
 11
22.206711609607233
 21
18.673210570855918
 31
0.0
 11
21.67675665931575
 21
18.42003974874582
 31
0.0
 11
21.153369525625607
 21
18.16673290086953
 31
0.0
 11
20.636616048837237
 21
17.91336230868744
 31
0.0
 11
20.126692844627804
 21
17.66001786440844
 31
0.0
 11
19.623704621264935
 21
17.40670264580161
 31
0.0
 11
19.127668248513583
 21
17.15338295351088
 31
0.0
 11
18.63861336853761
 21
16.900039833584504
 31
0.0
 11
18.1565603274341
 21
16.64665776826561
 31
0.0
 11
17.681526201696233
 21
16.393227475396387
 31
0.0
 11
17.213523358340257
 21
16.139744908993823
 31
0.0
 11
16.75256000050799
 21
15.886211287410688
 31
0.0
 11
16.298640186967962
 21
15.632632848329006
 31
0.0
 11
15.851763992081315
 21
15.37902068099608
 31
0.0
 11
15.41192763117209
 21
15.1253905425342
 31
0.0
 11
14.979123589823363
 21
14.871762679021883
 31
0.0
 11
14.553340775602223
 21
14.618161662792987
 31
0.0
 11
14.134564580304923
 21
14.364616179297473
 31
0.0
 11
13.722777276972067
 21
14.111159020662921
 31
0.0
 11
13.317957180367287
 21
13.857826318589186
 31
0.0
 11
12.920082375240266
 21
13.604659650323121
 31
0.0
 11
12.529117575665106
 21
13.351697372957538
 31
0.0
 11
12.145065768648642
 21
13.099007821073178
 31
0.0
 11
11.768130123295535
 21
12.846764856002723
 31
0.0
 11
11.398511732369347
 21
12.595085139636584
 31
0.0
 11
11.036258232097815
 21
12.343988743724173
 31
0.0
 11
10.681424705536596
 21
12.093513624852724
 31
0.0
 11
10.334050045886954
 21
11.843699097172728
 31
0.0
 11
9.994163689659443
 21
11.594589907628949
 31
0.0
 11
9.661784318216336
 21
11.346234770724237
 31
0.0
 11
9.336920690562172
 21
11.098686406295636
 31
0.0
 11
9.019571915088571
 21
10.852001180687836
 31
0.0
 11
8.709727884902959
 21
10.606238873841813
 31
0.0
 11
8.407369635089017
 21
10.361462392746674
 31
0.0
 11
8.112469867108041
 21
10.117737627578727
 31
0.0
 11
7.824992905231557
 21
9.875132844444419
 31
0.0
 11
7.544896738404697
 21
9.633719855639503
 31
0.0
 11
7.272127410879954
 21
9.39356857287117
 31
0.0
 11
7.0066414958956935
 21
9.15476641847926
 31
0.0
 11
6.748325544582082
 21
8.917344618855907
 31
0.0
 11
6.497369280207084
 21
8.681617255358582
 31
0.0
 11
6.254354735340223
 21
8.44813853258636
 31
0.0
 11
6.019497774867389
 21
8.217018582979351
 31
0.0
 11
5.792720953591115
 21
7.988121984150282
 31
0.0
 11
5.573984050452977
 21
7.761384638074172
 31
0.0
 11
5.363213108702429
 21
7.536741852508388
 31
0.0
 11
5.160320914987406
 21
7.314146020547649
 31
0.0
 11
4.965203540190094
 21
7.093560372778752
 31
0.0
 11
4.777743181074851
 21
6.874959338219187
 31
0.0
 11
4.597809364596496
 21
6.658327304804027
 31
0.0
 11
4.425260570629789
 21
6.44365798690971
 31
0.0
 11
4.259945712602995
 21
6.230953800403405
 31
0.0
 11
4.101705604133014
 21
6.020225403611192
 31
0.0
 11
3.9503743391056996
 21
5.811491326034629
 31
0.0
 11
3.8057806481045375
 21
5.604777778355832
 31
0.0
 11
3.6677489711355435
 21
5.400118274859191
 31
0.0
 11
3.536198004181559
 21
5.1976959031857906
 31
0.0
 11
3.411167225870126
 21
4.997877254690287
 31
0.0
 11
3.2926539596288604
 21
4.800985943868365
 31
0.0
 11
3.18062267653004
 21
4.607317810954648
 31
0.0
 11
3.0750082798460374
 21
4.417142858534759
 31
0.0
 11
2.975718482750492
 21
4.2307058334165575
 31
0.0
 11
2.882636357309523
 21
4.048227179324471
 31
0.0
 11
2.795622778904346
 21
3.8699039103901827
 31
0.0
 11
2.7145188368494937
 21
3.69591053888818
 31
0.0
 11
2.6391481893021638
 21
3.5264000319904447
 31
0.0
 11
2.569319361686349
 21
3.361504812649744
 31
0.0
 11
2.504827980173814
 21
3.2013378063716114
 31
0.0
 11
2.4454589320053848
 21
3.045993536389365
 31
0.0
 11
2.390988443224459
 21
2.8955492665359936
 31
0.0
 11
2.3411860641650226
 21
2.7500661888291327
 31
0.0
 11
2.2958165531948262
 21
2.6095906502674495
 31
0.0
 11
2.2546416499079394
 21
2.474155411024125
 31
0.0
 11
2.2174217301212247
 21
2.3437809241395855
 31
0.0
 11
2.1839173366092015
 21
2.2184766250875123
 31
0.0
 11
2.1538905814327896
 21
2.098242218316273
 31
0.0
 11
2.1271064178708072
 21
1.983068947092801
 31
0.0
 11
2.1033337822459246
 21
1.8729408327800696
 31
0.0
 11
2.082346608215831
 21
1.7678358700267323
 31
0.0
 11
2.0639247182676077
 21
1.667727165253261
 31
0.0
 11
2.0478545990929833
 21
1.5725840071964854
 31
0.0
 11
2.0339300691501734
 21
1.4823728600657056
 31
0.0
 11
2.0219528479639375
 21
1.397058271945962
 31
0.0
 11
2.011733037544408
 21
1.316603693365129
 31
0.0
 11
2.003089526702711
 21
1.2409722032851966
 31
0.0
 11
1.9958503290258205
 21
1.1701271420891344
 31
0.0
 11
1.989852864881505
 21
1.1040326533024483
 31
0.0
 11
1.9849441971146093
 21
1.0426541377379925
 31
0.0
 11
1.9809812291370137
 21
0.9859586254171436
 31
0.0
 11
1.977830872981458
 21
0.933915071963866
 31
0.0
 11
1.9753701936599386
 21
0.8864945871682681
 31
0.0
 11
1.9734865349127149
 21
0.8436706040729378
 31
0.0
 11
1.9720776302181857
 21
0.8054189972718586
 31
0.0
 11
1.9710517018091505
 21
0.7717181591398184
 31
0.0
 11
1.9703275494489714
 21
0.7425490424858977
 31
0.0
 11
1.9698346298888474
 21
0.7178951776741112
 31
0.0
 11
1.9695131272701976
 21
0.6977426715975688
 31
0.0
 11
1.9693140142606143
 21
0.6820801952232574
 31
0.0
 11
1.9691991034024383
 21
0.6708989651135556
 31
0.0
 11
1.9691410880261466
 21
0.6641927249130151
 31
0.0
 11
1.969123572025759
 21
0.6619577266125113
 31
0.0
 11
1.9691072691574105
 21
0.6597646676536782
 31
0.0
 11
1.969063627732549
 21
0.6531867129152836
 31
0.0
 11
1.9690084555289928
 21
0.6422276954444557
 31
0.0
 11
1.9689681142739748
 21
0.6268932672689713
 31
0.0
 11
1.96897952615936
 21
0.6071836386813152
 31
0.0
 11
1.969090176208882
 21
0.5830964685247741
 31
0.0
 11
1.969358138781956
 21
0.5546349325127311
 31
0.0
 11
1.9698520877790708
 21
0.5218032380917713
 31
0.0
 11
1.9706513032071158
 21
0.48460779344640476
 31
0.0
 11
1.9718456744039625
 21
0.44305760325877724
 31
0.0
 11
1.9735356905152535
 21
0.3971649870636713
 31
0.0
 11
1.9758324186183693
 21
0.3469462760015517
 31
0.0
 11
1.9788574591297692
 21
0.29242267807473254
 31
0.0
 11
1.9827428976593524
 21
0.23362087683104266
 31
0.0
 11
1.9876311427594655
 21
0.17057494047533592
 31
0.0
 11
1.9936751256217728
 21
0.10332342673212809
 31
0.0
 11
2.0010367092113936
 21
0.03192526892353992
 31
0.0
 11
2.009893359132059
 21
-0.043601840167326794
 31
0.0
 11
2.020450141168242
 21
-0.12338689225793026
 31
0.0
 11
2.0329149402471827
 21
-0.20750918267998752
 31
0.0
 11
2.047490253775064
 21
-0.29592655281710706
 31
0.0
 11
2.064389460896054
 21
-0.38860645871602206
 31
0.0
 11
2.083832806389019
 21
-0.48550028119636307
 31
0.0
 11
2.1060477925891417
 21
-0.5865485622316333
 31
0.0
 11
2.1312680910130055
 21
-0.6916776424470661
 31
0.0
 11
2.159732812040241
 21
-0.8007987618886309
 31
0.0
 11
2.19168532987619
 21
-0.9138057074022472
 31
0.0
 11
2.2273728728949975
 21
-1.03057553700485
 31
0.0
 11
2.2670425094798663
 21
-1.150958116745153
 31
0.0
 11
2.3109540017463193
 21
-1.2748162723614587
 31
0.0
 11
2.359387003081003
 21
-1.4020504633033894
 31
0.0
 11
2.4126110604256286
 21
-1.532515471858976
 31
0.0
 11
2.4708831600109824
 21
-1.6660138591255884
 31
0.0
 11
2.5344596330029274
 21
-1.8023310554978864
 31
0.0
 11
2.6035922109242593
 21
-1.9412278220200005
 31
0.0
 11
2.678522637575241
 21
-2.0824323661583297
 31
0.0
 11
2.7594983527596826
 21
-2.2256712498426223
 31
0.0
 11
2.846699143983049
 21
-2.3705457857198935
 31
0.0
 11
2.940762493085695
 21
-2.5173904163757976
 31
0.0
 11
3.0425828942163085
 21
-2.6670146980192024
 31
0.0
 11
3.1525631178712485
 21
-2.819491238624053
 31
0.0
 11
3.270946592210323
 21
-2.9746726206649994
 31
0.0
 11
3.3979771280333875
 21
-3.132441634642299
 31
0.0
 11
3.5338476566916057
 21
-3.292647882886104
 31
0.0
 11
3.6787106920009345
 21
-3.4551302616900412
 31
0.0
 11
3.8326572047334193
 21
-3.619700923830586
 31
0.0
 11
3.9957622464910267
 21
-3.7862006481621497
 31
0.0
 11
4.167677817953598
 21
-3.954086361248071
 31
0.0
 11
4.348036787188712
 21
-4.12275346316181
 31
0.0
 11
4.536957561439446
 21
-4.292065534327625
 31
0.0
 11
4.734616331755961
 21
-4.461963208579606
 31
0.0
 11
4.941145747981009
 21
-4.632371507929177
 31
0.0
 11
5.156658751740585
 21
-4.803225446001593
 31
0.0
 11
5.381238991592698
 21
-4.9744654661691365
 31
0.0
 11
5.614940531400032
 21
-5.146041006756635
 31
0.0
 11
5.857785860729336
 21
-5.317912585824898
 31
0.0
 11
6.109762405345099
 21
-5.490052892427279
 31
0.0
 11
6.370828296235183
 21
-5.662454106114177
 31
0.0
 11
6.640883343319161
 21
-5.835112350947919
 31
0.0
 11
6.919134086008214
 21
-6.007580881094049
 31
0.0
 11
7.2049496941868085
 21
-6.179368418621751
 31
0.0
 11
7.498416261278421
 21
-6.35040795148753
 31
0.0
 11
7.799592325990034
 21
-6.520626558590346
 31
0.0
 11
8.10853374085248
 21
-6.689961459535805
 31
0.0
 11
8.425286172620481
 21
-6.858356496986651
 31
0.0
 11
8.749886415469062
 21
-7.025763817367935
 31
0.0
 11
9.082361334398026
 21
-7.192144223737907
 31
0.0
 11
9.422727470569031
 21
-7.357467912731025
 31
0.0
 11
9.770990519370311
 21
-7.521715157219131
 31
0.0
 11
10.12714478117256
 21
-7.684876992404864
 31
0.0
 11
10.49117299903415
 21
-7.846956088879805
 31
0.0
 11
10.863044810117767
 21
-8.007967021908334
 31
0.0
 11
11.24272056974161
 21
-8.167938860893816
 31
0.0
 11
11.6301350165893
 21
-8.326909320955721
 31
0.0
 11
12.025257119882719
 21
-8.484950008684327
 31
0.0
 11
12.42771712929652
 21
-8.642007954699611
 31
0.0
 11
12.837029485631794
 21
-8.797889355458425
 31
0.0
 11
13.253122816647565
 21
-8.952508309949053
 31
0.0
 11
13.676039361415326
 21
-9.105827592588602
 31
0.0
 11
14.105789853898086
 21
-9.257803696034635
 31
0.0
 11
14.542390159435726
 21
-9.408400860893916
 31
0.0
 11
14.98585121509661
 21
-9.557587657831567
 31
0.0
 11
15.436181596963342
 21
-9.705338177993342
 31
0.0
 11
15.893386676180372
 21
-9.851632013972946
 31
0.0
 11
16.357468699056792
 21
-9.996454565139853
 31
0.0
 11
16.828426620005224
 21
-10.139797262884723
 31
0.0
 11
17.306256003687167
 21
-10.281657822092772
 31
0.0
 11
17.790948912137676
 21
-10.422040490968003
 31
0.0
 11
18.282493795838306
 21
-10.560956305234935
 31
0.0
 11
18.780875398516805
 21
-10.698423349136245
 31
0.0
 11
19.286074617554334
 21
-10.834467007105756
 31
0.0
 11
19.798068544649553
 21
-10.969120266467698
 31
0.0
 11
20.316829840884363
 21
-11.102423848638058
 31
0.0
 11
20.842328625543097
 21
-11.23442698566678
 31
0.0
 11
21.374524932267647
 21
-11.3651858413049
 31
0.0
 11
21.913396611551423
 21
-11.494770603322827
 31
0.0
 11
22.458729857145133
 21
-11.62320544285112
 31
0.0
 11
23.010268949671396
 21
-11.750434491900979
 31
0.0
 11
23.56798137182182
 21
-11.876422769100541
 31
0.0
 11
24.131876791726256
 21
-12.001147457017664
 31
0.0
 11
24.701953021181698
 21
-12.124585576602353
 31
0.0
 11
25.27821003085975
 21
-12.246717264942372
 31
0.0
 11
25.86064614266002
 21
-12.36752500769606
 31
0.0
 11
26.44925902558077
 21
-12.486993939868322
 31
0.0
 11
27.04404539725416
 21
-12.605111865526936
 31
0.0
 11
27.645001074395235
 21
-12.721869352427047
 31
0.0
 11
28.25212092941078
 21
-12.837259807642567
 31
0.0
 11
28.865398872475293
 21
-12.951279558946784
 31
0.0
 11
29.484827826943274
 21
-13.063927935400468
 31
0.0
 11
30.110399706798173
 21
-13.175207348858912
 31
0.0
 11
30.742105393701024
 21
-13.285123375909752
 31
0.0
 11
31.379934714705936
 21
-13.393684840421479
 31
0.0
 11
32.023876418875005
 21
-13.500903896383852
 31
0.0
 11
32.67391815887686
 21
-13.606796112038829
 31
0.0
 11
33.330046454942355
 21
-13.71138055160266
 31
0.0
 11
33.99224672600485
 21
-13.814679868084061
 31
0.0
 11
34.6605030700008
 21
-13.916720357585117
 31
0.0
 11
35.33479898568627
 21
-14.017532157113031
 31
0.0
 11
36.015114562887796
 21
-14.117148916865913
 31
0.0
 11
36.70134786906222
 21
-14.215585756347158
 31
0.0
 11
37.39341067472652
 21
-14.312824097263496
 31
0.0
 11
38.091299086572036
 21
-14.408850375492875
 31
0.0
 11
38.795006871096156
 21
-14.503652082484859
 31
0.0
 11
39.50452796117768
 21
-14.597218153763022
 31
0.0
 11
40.21985577286588
 21
-14.68953890717085
 31
0.0
 11
40.94098338049432
 21
-14.780606099899428
 31
0.0
 11
41.667903460880495
 21
-14.870412954346584
 31
0.0
 11
42.400608299685736
 21
-14.958954192304258
 31
0.0
 11
43.13908978108547
 21
-15.046226067065714
 31
0.0
 11
43.88333938196979
 21
-15.132226396187951
 31
0.0
 11
44.63334816496202
 21
-15.216954594182628
 31
0.0
 11
45.38910677180732
 21
-15.300411705322414
 31
0.0
 11
46.15060541668059
 21
-15.382600436503738
 31
0.0
 11
46.91783387965823
 21
-15.463525190188774
 31
0.0
 11
47.69078149985227
 21
-15.543192097368555
 31
0.0
 11
48.46943716996535
 21
-15.621609050723826
 31
0.0
 11
49.25378932573872
 21
-15.69878573732161
 31
0.0
 11
50.04382595472862
 21
-15.774733673246498
 31
0.0
 11
50.83953453290012
 21
-15.849466231367257
 31
0.0
 11
51.64090223178904
 21
-15.92299869441669
 31
0.0
 11
52.44791511211832
 21
-15.99534821552102
 31
0.0
 11
53.2605251773873
 21
-16.066525868085314
 31
0.0
 11
54.07868964137736
 21
-16.136525947379184
 31
0.0
 11
54.90240089533634
 21
-16.205342473415094
 31
0.0
 11
55.731650550614596
 21
-16.272970332692882
 31
0.0
 11
56.566430180545545
 21
-16.33940535916877
 31
0.0
 11
57.40673111806529
 21
-16.404644333986475
 31
0.0
 11
58.25254450720859
 21
-16.468685006533658
 31
0.0
 11
59.10386128637132
 21
-16.531526109895612
 31
0.0
 11
59.96067218992851
 21
-16.593167377769745
 31
0.0
 11
60.82296774494398
 21
-16.653609560985824
 31
0.0
 11
61.69073826919216
 21
-16.71285444411316
 31
0.0
 11
62.56397386893971
 21
-16.770904862033905
 31
0.0
 11
63.442664436458465
 21
-16.827764716481482
 31
0.0
 11
64.32679964895311
 21
-16.88343899264993
 31
0.0
 11
65.21636896217525
 21
-16.937933775448535
 31
0.0
 11
66.11136162403388
 21
-16.991256266949275
 31
0.0
 11
67.01176661342188
 21
-17.043414799380027
 31
0.0
 11
67.91757285907399
 21
-17.094418864207153
 31
0.0
 11
68.8287684102629
 21
-17.14427908254537
 31
0.0
 11
69.74534353106199
 21
-17.193007388844514
 31
0.0
 11
70.66727345177539
 21
-17.24061524984278
 31
0.0
 11
71.59452470229151
 21
-17.287104411889977
 31
0.0
 11
72.52708211958596
 21
-17.332471616675907
 31
0.0
 11
73.46493736955782
 21
-17.376714473549164
 31
0.0
 11
74.40808032649558
 21
-17.419831141228965
 31
0.0
 11
75.35650118884747
 21
-17.461820441151406
 31
0.0
 11
76.31018990962838
 21
-17.50268183921872
 31
0.0
 11
77.269136348416
 21
-17.542415461809764
 31
0.0
 11
78.2333302294637
 21
-17.581022102832033
 31
0.0
 11
79.20276115191432
 21
-17.618503233067834
 31
0.0
 11
80.1774185860427
 21
-17.654861008885828
 31
0.0
 11
81.15729187319067
 21
-17.69009828107448
 31
0.0
 11
82.1423702249873
 21
-17.7242186036118
 31
0.0
 11
83.13264272177092
 21
-17.757226242373743
 31
0.0
 11
84.12809831497547
 21
-17.78912618393732
 31
0.0
 11
85.12872581447601
 21
-17.81992414386872
 31
0.0
 11
86.13451393231351
 21
-17.849626576692106
 31
0.0
 11
87.14545111549123
 21
-17.878240679648695
 31
0.0
 11
88.16152616802873
 21
-17.905774418537444
 31
0.0
 11
89.18271826166547
 21
-17.932234934978567
 31
0.0
 11
90.20900615120074
 21
-17.957623322610452
 31
0.0
 11
91.24037879466167
 21
-17.98193934614012
 31
0.0
 11
92.27682569871901
 21
-18.005183267954596
 31
0.0
 11
93.31833611272388
 21
-18.027355834047405
 31
0.0
 11
94.36489924362458
 21
-18.04845828470806
 31
0.0
 11
95.41650419787992
 21
-18.06849235867002
 31
0.0
 11
96.47313999670202
 21
-18.0874602988913
 31
0.0
 11
97.53479557163679
 21
-18.105364857878786
 31
0.0
 11
98.60145976532174
 21
-18.12220930308556
 31
0.0
 11
99.67312133126914
 21
-18.13799742225381
 31
0.0
 11
100.74976893238069
 21
-18.152733528706204
 31
0.0
 11
101.8313911455562
 21
-18.16642246668339
 31
0.0
 11
102.9179764431729
 21
-18.17906961635828
 31
0.0
 11
104.00951326119687
 21
-18.190680899801716
 31
0.0
 11
105.10598974324593
 21
-18.201262783536745
 31
0.0
 11
106.20739469677339
 21
-18.210822292483687
 31
0.0
 11
107.31371304403449
 21
-18.21936679440878
 31
0.0
 11
108.42492587241354
 21
-18.22690072344773
 31
0.0
 11
109.54101931294768
 21
-18.2334259259391
 31
0.0
 11
110.66198256772991
 21
-18.23894455566022
 31
0.0
 11
111.78780408737073
 21
-18.243459155702656
 31
0.0
 11
112.91847243888634
 21
-18.246972667478758
 31
0.0
 11
114.05397607258661
 21
-18.24948843302059
 31
0.0
 11
115.1943033846241
 21
-18.251010198767915
 31
0.0
 11
116.33944270011892
 21
-18.251542118989878
 31
0.0
 11
117.48938227775263
 21
-18.251088759246016
 31
0.0
 11
118.64411030807702
 21
-18.249655099801853
 31
0.0
 11
119.8036149154757
 21
-18.247246539011314
 31
0.0
 11
120.0
 21
-18.246743711329504
 31
0.0
  0
LINE
  5
8E
330
17
100
AcDbEntity
  8
layer0
  6
ByLayer
 62
0
370
5
100
AcDbLine
 10
420.0
 20
30.168662966040493
 30
0.0
 11
420.0
 21
32.18812518041349
 31
0.0
  0
LINE
  5
8F
330
17
100
AcDbEntity
  8
layer0
  6
ByLayer
 62
0
370
5
100
AcDbLine
 10
120.0
 20
-18.246743711329504
 30
0.0
 11
120.0
 21
-20.246750617913445
 31
0.0
  0
LWPOLYLINE
  5
90
330
17
100
AcDbEntity
  8
layer0
  6
ByLayer
 62
0
370
5
100
AcDbPolyline
 90
4
 70
0
 10
400.0
 20
32.866726527473645
 10
400.0
 20
28.866726527473645
 10
403.0
 20
28.474985400384725
 10
403.0
 20
32.474985400384725
  0
LWPOLYLINE
  5
91
330
17
100
AcDbEntity
  8
layer0
  6
ByLayer
 62
0
370
5
100
AcDbPolyline
 90
4
 70
0
 10
100.0
 20
-18.14258973594537
 10
100.0
 20
-14.142589735945371
 10
103.0
 20
-14.179979965986771
 10
103.0
 20
-18.17997996598677
  0
CIRCLE
  5
92
330
17
100
AcDbEntity
  8
layer0
  6
ByLayer
 62
0
370
5
100
AcDbCircle
 10
210.0
 20
15.256123156795596
 30
0.0
 40
25.0
  0
LINE
  5
93
330
17
100
AcDbEntity
  8
layer0
  6
ByLayer
 62
0
370
5
100
AcDbLine
 10
-20.0
 20
15.256123156795596
 30
0.0
 11
620.0
 21
15.256123156795596
 31
0.0
  0
LINE
  5
94
330
17
100
AcDbEntity
  8
layer0
  6
CENTER
 62
1
370
5
100
AcDbLine
 10
-19.68479299355198
 20
3.218853220918513
 30
0.0
 11
619.4381092493752
 21
36.71386521640257
 31
0.0
  0
LINE
  5
95
330
17
100
AcDbEntity
  8
layer0
  6
ByLayer
 62
0
370
5
100
AcDbLine
 10
177.26664556860698
 20
28.560290179462967
 30
0.0
 11
160.3236224477847
 21
-0.7858866996153928
 31
0.0
  0
ARC
  5
96
330
17
100
AcDbEntity
  8
layer0
  6
ByLayer
 62
0
370
5
100
AcDbCircle
 10
155.12747002507805
 20
2.214113300384613
 30
0.0
 40
6.0
100
AcDbArc
 50
-149.99999999999994
 51
-30.00000000000005
  0
LINE
  5
97
330
17
100
AcDbEntity
  8
layer0
  6
ByLayer
 62
0
370
5
100
AcDbLine
 10
149.93131760237142
 20
-0.7858866996153946
 30
0.0
 11
134.17808343602786
 21
26.499515260021596
 31
0.0
  0
ARC
  5
98
330
17
100
AcDbEntity
  8
layer0
  6
ByLayer
 62
0
370
5
100
AcDbCircle
 10
139.37423585873447
 20
29.49951526002159
 30
0.0
 40
6.0
100
AcDbArc
 50
-266.3935405110976
 51
-149.99999999999994
  0
LINE
  5
99
330
17
100
AcDbEntity
  8
layer0
  6
ByLayer
 62
0
370
5
100
AcDbLine
 10
138.9968176426503
 20
35.487633118762176
 30
0.0
 11
171.69307492981616
 21
37.54840803820355
 31
0.0
  0
ARC
  5
9A
330
17
100
AcDbEntity
  8
layer0
  6
ByLayer
 62
0
370
5
100
AcDbCircle
 10
172.07049314590034
 20
31.560290179462974
 30
0.0
 40
6.0
100
AcDbArc
 50
-30.00000000000006
 51
93.60645948890264
  0
ENDSEC
  0
SECTION
  2
OBJECTS
  0
DICTIONARY
  5
A
330
0
100
AcDbDictionary
280
0
281
1
  3
ACAD_COLOR
350
B
  3
ACAD_GROUP
350
C
  3
ACAD_LAYOUT
350
D
  3
ACAD_MATERIAL
350
E
  3
ACAD_MLEADERSTYLE
350
F
  3
ACAD_MLINESTYLE
350
10
  3
ACAD_PLOTSETTINGS
350
11
  3
ACAD_PLOTSTYLENAME
350
12
  3
ACAD_SCALELIST
350
14
  3
ACAD_TABLESTYLE
350
15
  3
ACAD_VISUALSTYLE
350
16
  3
EZDXF_META
350
2D
  0
DICTIONARY
  5
B
330
A
100
AcDbDictionary
280
0
281
1
  0
DICTIONARY
  5
C
330
A
100
AcDbDictionary
280
0
281
1
  0
DICTIONARY
  5
D
330
A
100
AcDbDictionary
280
0
281
1
  3
Model
350
1A
  3
Layout1
350
1E
  0
DICTIONARY
  5
E
330
A
100
AcDbDictionary
280
0
281
1
  3
ByBlock
350
1F
  3
ByLayer
350
20
  3
Global
350
21
  0
DICTIONARY
  5
F
330
A
100
AcDbDictionary
280
0
281
1
  3
Standard
350
2C
  0
DICTIONARY
  5
10
330
A
100
AcDbDictionary
280
0
281
1
  3
Standard
350
22
  0
DICTIONARY
  5
11
330
A
100
AcDbDictionary
280
0
281
1
  0
ACDBDICTIONARYWDFLT
  5
12
330
A
100
AcDbDictionary
280
0
281
1
  3
Normal
350
13
100
AcDbDictionaryWithDefault
340
13
  0
ACDBPLACEHOLDER
  5
13
330
12
  0
DICTIONARY
  5
14
330
A
100
AcDbDictionary
280
0
281
1
  0
DICTIONARY
  5
15
330
A
100
AcDbDictionary
280
0
281
1
  0
DICTIONARY
  5
16
330
A
100
AcDbDictionary
280
0
281
1
  3
2dWireframe
350
5A
  3
Basic
350
5B
  3
Brighten
350
5C
  3
ColorChange
350
5D
  3
Conceptual
350
5E
  3
Dim
350
5F
  3
EdgeColorOff
350
60
  3
Facepattern
350
61
  3
Flat
350
62
  3
FlatWithEdges
350
63
  3
Gouraud
350
64
  3
GouraudWithEdges
350
65
  3
Hidden
350
66
  3
JitterOff
350
67
  3
Linepattern
350
68
  3
Modeling
350
69
  3
OverhangOff
350
6A
  3
Realistic
350
6B
  3
Shaded
350
6C
  3
Shaded with edges
350
6D
  3
Shades of Gray
350
6E
  3
Sketchy
350
6F
  3
Thicken
350
70
  3
Wireframe
350
71
  3
X-Ray
350
72
  0
LAYOUT
  5
1A
330
D
100
AcDbPlotSettings
  1

  2
Adobe PDF
  4
A3
  6

 40
7.5
 41
20.0
 42
7.5
 43
20.0
 44
420.0
 45
297.0
 46
0.0
 47
0.0
 48
0.0
 49
0.0
140
0.0
141
0.0
142
1.0
143
1.0
 70
1024
 72
1
 73
0
 74
5
  7

 75
16
 76
0
 77
2
 78
300
147
1.0
148
0.0
149
0.0
100
AcDbLayout
  1
Model
 70
1
 71
0
 10
0.0
 20
0.0
 11
420.0
 21
297.0
 12
0.0
 22
0.0
 32
0.0
 14
1e+20
 24
1e+20
 34
1e+20
 15
-1e+20
 25
-1e+20
 35
-1e+20
146
0.0
 13
0.0
 23
0.0
 33
0.0
 16
1.0
 26
0.0
 36
0.0
 17
0.0
 27
1.0
 37
0.0
 76
1
330
17
  0
LAYOUT
  5
1E
330
D
100
AcDbPlotSettings
  1

  2
Adobe PDF
  4
A3
  6

 40
7.5
 41
20.0
 42
7.5
 43
20.0
 44
420.0
 45
297.0
 46
0.0
 47
0.0
 48
0.0
 49
0.0
140
0.0
141
0.0
142
1.0
143
1.0
 70
0
 72
1
 73
0
 74
5
  7

 75
16
 76
0
 77
2
 78
300
147
1.0
148
0.0
149
0.0
100
AcDbLayout
  1
Layout1
 70
1
 71
1
 10
0.0
 20
0.0
 11
420.0
 21
297.0
 12
0.0
 22
0.0
 32
0.0
 14
1e+20
 24
1e+20
 34
1e+20
 15
-1e+20
 25
-1e+20
 35
-1e+20
146
0.0
 13
0.0
 23
0.0
 33
0.0
 16
1.0
 26
0.0
 36
0.0
 17
0.0
 27
1.0
 37
0.0
 76
1
330
1B
  0
MATERIAL
  5
1F
102
{ACAD_REACTORS
330
E
102
}
330
E
100
AcDbMaterial
  1
ByBlock
  2

 70
0
 40
1.0
 71
1
 41
1.0
 91
-1023410177
 42
1.0
 72
1
  3

 73
1
 74
1
 75
1
 44
0.5
 73
0
 45
1.0
 46
1.0
 77
1
  4

 78
1
 79
1
170
1
 48
1.0
171
1
  6

172
1
173
1
174
1
140
1.0
141
1.0
175
1
  7

176
1
177
1
178
1
143
1.0
179
1
  8

270
1
271
1
272
1
145
1.0
146
1.0
273
1
  9

274
1
275
1
276
1
 42
1.0
 72
1
  3

 73
1
 74
1
 75
1
 94
63
  0
MATERIAL
  5
20
102
{ACAD_REACTORS
330
E
102
}
330
E
100
AcDbMaterial
  1
ByLayer
  2

 70
0
 40
1.0
 71
1
 41
1.0
 91
-1023410177
 42
1.0
 72
1
  3

 73
1
 74
1
 75
1
 44
0.5
 73
0
 45
1.0
 46
1.0
 77
1
  4

 78
1
 79
1
170
1
 48
1.0
171
1
  6

172
1
173
1
174
1
140
1.0
141
1.0
175
1
  7

176
1
177
1
178
1
143
1.0
179
1
  8

270
1
271
1
272
1
145
1.0
146
1.0
273
1
  9

274
1
275
1
276
1
 42
1.0
 72
1
  3

 73
1
 74
1
 75
1
 94
63
  0
MATERIAL
  5
21
102
{ACAD_REACTORS
330
E
102
}
330
E
100
AcDbMaterial
  1
Global
  2

 70
0
 40
1.0
 71
1
 41
1.0
 91
-1023410177
 42
1.0
 72
1
  3

 73
1
 74
1
 75
1
 44
0.5
 73
0
 45
1.0
 46
1.0
 77
1
  4

 78
1
 79
1
170
1
 48
1.0
171
1
  6

172
1
173
1
174
1
140
1.0
141
1.0
175
1
  7

176
1
177
1
178
1
143
1.0
179
1
  8

270
1
271
1
272
1
145
1.0
146
1.0
273
1
  9

274
1
275
1
276
1
 42
1.0
 72
1
  3

 73
1
 74
1
 75
1
 94
63
  0
MLINESTYLE
  5
22
102
{ACAD_REACTORS
330
10
102
}
330
10
100
AcDbMlineStyle
  2
Standard
 70
0
  3

 62
256
 51
90.0
 52
90.0
 71
2
 49
0.5
 62
256
  6
BYLAYER
 49
-0.5
 62
256
  6
BYLAYER
  0
MLEADERSTYLE
  5
2C
102
{ACAD_REACTORS
330
F
102
}
330
F
100
AcDbMLeaderStyle
179
2
170
2
171
1
172
0
 90
2
 40
0.0
 41
0.0
173
1
 91
-1056964608
 92
-2
290
1
 42
2.0
291
1
 43
8.0
  3
Standard
 44
4.0
300

342
29
174
1
175
1
176
0
178
1
 93
-1056964608
 45
4.0
292
0
297
0
 46
4.0
 94
-1056964608
 47
1.0
 49
1.0
140
1.0
294
1
141
0.0
177
0
142
1.0
295
0
296
0
143
3.75
271
0
272
9
273
9
  0
DICTIONARY
  5
2D
330
A
100
AcDbDictionary
281
1
  3
CREATED_BY_EZDXF
350
2E
  3
WRITTEN_BY_EZDXF
350
9D
  0
DICTIONARYVAR
  5
2E
330
2D
100
DictionaryVariables
280
0
  1
1.1.4 @ 2025-09-07T02:48:07.233661+00:00
  0
VISUALSTYLE
  5
5A
102
{ACAD_REACTORS
330
16
102
}
330
16
100
AcDbVisualStyle
  2
2dWireframe
 70
4
 90
0
 40
0.6
 62
7
290
0
291
0
  0
VISUALSTYLE
  5
5B
102
{ACAD_REACTORS
330
16
102
}
330
16
100
AcDbVisualStyle
  2
Basic
 70
7
 90
1
 40
0.6
 62
7
290
0
291
1
  0
VISUALSTYLE
  5
5C
102
{ACAD_REACTORS
330
16
102
}
330
16
100
AcDbVisualStyle
  2
Brighten
 70
12
 90
2
 40
0.6
 62
7
290
0
291
1
  0
VISUALSTYLE
  5
5D
102
{ACAD_REACTORS
330
16
102
}
330
16
100
AcDbVisualStyle
  2
ColorChange
 70
16
 90
2
 40
0.6
 62
8
290
0
291
1
  0
VISUALSTYLE
  5
5E
102
{ACAD_REACTORS
330
16
102
}
330
16
100
AcDbVisualStyle
  2
Conceptual
 70
9
 90
3
 40
0.6
 62
7
290
0
291
0
  0
VISUALSTYLE
  5
5F
102
{ACAD_REACTORS
330
16
102
}
330
16
100
AcDbVisualStyle
  2
Dim
 70
11
 90
2
 40
0.6
 62
7
290
0
291
1
  0
VISUALSTYLE
  5
60
102
{ACAD_REACTORS
330
16
102
}
330
16
100
AcDbVisualStyle
  2
EdgeColorOff
 70
22
 90
2
 40
0.6
 62
7
290
0
291
1
  0
VISUALSTYLE
  5
61
102
{ACAD_REACTORS
330
16
102
}
330
16
100
AcDbVisualStyle
  2
Facepattern
 70
15
 90
2
 40
0.6
 62
7
290
0
291
1
  0
VISUALSTYLE
  5
62
102
{ACAD_REACTORS
330
16
102
}
330
16
100
AcDbVisualStyle
  2
Flat
 70
0
 90
2
 40
0.6
 62
7
290
0
291
1
  0
VISUALSTYLE
  5
63
102
{ACAD_REACTORS
330
16
102
}
330
16
100
AcDbVisualStyle
  2
FlatWithEdges
 70
1
 90
2
 40
0.6
 62
7
290
0
291
1
  0
VISUALSTYLE
  5
64
102
{ACAD_REACTORS
330
16
102
}
330
16
100
AcDbVisualStyle
  2
Gouraud
 70
2
 90
2
 40
0.6
 62
7
290
0
291
1
  0
VISUALSTYLE
  5
65
102
{ACAD_REACTORS
330
16
102
}
330
16
100
AcDbVisualStyle
  2
GouraudWithEdges
 70
3
 90
2
 40
0.6
 62
7
290
0
291
1
  0
VISUALSTYLE
  5
66
102
{ACAD_REACTORS
330
16
102
}
330
16
100
AcDbVisualStyle
  2
Hidden
 70
6
 90
1
 40
0.6
 62
7
290
0
291
0
  0
VISUALSTYLE
  5
67
102
{ACAD_REACTORS
330
16
102
}
330
16
100
AcDbVisualStyle
  2
JitterOff
 70
20
 90
2
 40
0.6
 62
7
290
0
291
1
  0
VISUALSTYLE
  5
68
102
{ACAD_REACTORS
330
16
102
}
330
16
100
AcDbVisualStyle
  2
Linepattern
 70
14
 90
2
 40
0.6
 62
7
290
0
291
1
  0
VISUALSTYLE
  5
69
102
{ACAD_REACTORS
330
16
102
}
330
16
100
AcDbVisualStyle
  2
Modeling
 70
10
 90
2
 40
0.6
 62
7
290
0
291
0
  0
VISUALSTYLE
  5
6A
102
{ACAD_REACTORS
330
16
102
}
330
16
100
AcDbVisualStyle
  2
OverhangOff
 70
21
 90
2
 40
0.6
 62
7
290
0
291
1
  0
VISUALSTYLE
  5
6B
102
{ACAD_REACTORS
330
16
102
}
330
16
100
AcDbVisualStyle
  2
Realistic
 70
8
 90
2
 40
0.6
 62
7
290
0
291
0
  0
VISUALSTYLE
  5
6C
102
{ACAD_REACTORS
330
16
102
}
330
16
100
AcDbVisualStyle
  2
Shaded
 70
27
 90
2
 40
0.6
 62
7
290
0
291
0
  0
VISUALSTYLE
  5
6D
102
{ACAD_REACTORS
330
16
102
}
330
16
100
AcDbVisualStyle
  2
Shaded with edges
 70
26
 90
2
 40
0.6
 62
7
290
0
291
0
  0
VISUALSTYLE
  5
6E
102
{ACAD_REACTORS
330
16
102
}
330
16
100
AcDbVisualStyle
  2
Shades of Gray
 70
23
 90
2
 40
0.6
 62
7
290
0
291
0
  0
VISUALSTYLE
  5
6F
102
{ACAD_REACTORS
330
16
102
}
330
16
100
AcDbVisualStyle
  2
Sketchy
 70
24
 90
1
 40
0.6
 62
7
290
0
291
0
  0
VISUALSTYLE
  5
70
102
{ACAD_REACTORS
330
16
102
}
330
16
100
AcDbVisualStyle
  2
Thicken
 70
13
 90
2
 40
0.6
 62
7
290
0
291
1
  0
VISUALSTYLE
  5
71
102
{ACAD_REACTORS
330
16
102
}
330
16
100
AcDbVisualStyle
  2
Wireframe
 70
5
 90
0
 40
0.6
 62
7
290
0
291
0
  0
VISUALSTYLE
  5
72
102
{ACAD_REACTORS
330
16
102
}
330
16
100
AcDbVisualStyle
  2
X-Ray
 70
25
 90
2
 40
0.5
 62
7
290
0
291
0
  0
DICTIONARYVAR
  5
9D
330
2D
100
DictionaryVariables
280
0
  1
1.1.4 @ 2025-09-07T02:48:07.233661+00:00
  0
ENDSEC
  0
EOF
