<?xml version="1.0" encoding="utf-8" standalone="no"?>
<!DOCTYPE svg PUBLIC "-//W3C//DTD SVG 1.1//EN"
  "http://www.w3.org/Graphics/SVG/1.1/DTD/svg11.dtd">
<!-- Created with matplotlib (https://matplotlib.org/) -->
<svg height="576pt" version="1.1" viewBox="0 0 720 576" width="720pt" xmlns="http://www.w3.org/2000/svg" xmlns:xlink="http://www.w3.org/1999/xlink">
 <metadata>
  <rdf:RDF xmlns:cc="http://creativecommons.org/ns#" xmlns:dc="http://purl.org/dc/elements/1.1/" xmlns:rdf="http://www.w3.org/1999/02/22-rdf-syntax-ns#">
   <cc:Work>
    <dc:type rdf:resource="http://purl.org/dc/dcmitype/StillImage"/>
    <dc:date>2025-09-03T01:04:20.917827</dc:date>
    <dc:format>image/svg+xml</dc:format>
    <dc:creator>
     <cc:Agent>
      <dc:title>Matplotlib v3.3.2, https://matplotlib.org/</dc:title>
     </cc:Agent>
    </dc:creator>
   </cc:Work>
  </rdf:RDF>
 </metadata>
 <defs>
  <style type="text/css">*{stroke-linecap:butt;stroke-linejoin:round;}</style>
 </defs>
 <g id="figure_1">
  <g id="patch_1">
   <path d="M 0 576 
L 720 576 
L 720 0 
L 0 0 
z
" style="fill:#ffffff;"/>
  </g>
  <g id="axes_1">
   <g id="patch_2">
    <path d="M 90 512.64 
L 648 512.64 
L 648 69.12 
L 90 69.12 
z
" style="fill:#ffffff;"/>
   </g>
   <g id="matplotlib.axis_1">
    <g id="xtick_1">
     <g id="line2d_1">
      <defs>
       <path d="M 0 0 
L 0 3.5 
" id="m745d425bd4" style="stroke:#000000;stroke-width:0.8;"/>
      </defs>
      <g>
       <use style="stroke:#000000;stroke-width:0.8;" x="115.401103" xlink:href="#m745d425bd4" y="512.64"/>
      </g>
     </g>
     <g id="text_1">
      <!-- 0.0 -->
      <g transform="translate(107.449541 527.238438)scale(0.1 -0.1)">
       <defs>
        <path d="M 31.78125 66.40625 
Q 24.171875 66.40625 20.328125 58.90625 
Q 16.5 51.421875 16.5 36.375 
Q 16.5 21.390625 20.328125 13.890625 
Q 24.171875 6.390625 31.78125 6.390625 
Q 39.453125 6.390625 43.28125 13.890625 
Q 47.125 21.390625 47.125 36.375 
Q 47.125 51.421875 43.28125 58.90625 
Q 39.453125 66.40625 31.78125 66.40625 
z
M 31.78125 74.21875 
Q 44.046875 74.21875 50.515625 64.515625 
Q 56.984375 54.828125 56.984375 36.375 
Q 56.984375 17.96875 50.515625 8.265625 
Q 44.046875 -1.421875 31.78125 -1.421875 
Q 19.53125 -1.421875 13.0625 8.265625 
Q 6.59375 17.96875 6.59375 36.375 
Q 6.59375 54.828125 13.0625 64.515625 
Q 19.53125 74.21875 31.78125 74.21875 
z
" id="DejaVuSans-48"/>
        <path d="M 10.6875 12.40625 
L 21 12.40625 
L 21 0 
L 10.6875 0 
z
" id="DejaVuSans-46"/>
       </defs>
       <use xlink:href="#DejaVuSans-48"/>
       <use x="63.623047" xlink:href="#DejaVuSans-46"/>
       <use x="95.410156" xlink:href="#DejaVuSans-48"/>
      </g>
     </g>
    </g>
    <g id="xtick_2">
     <g id="line2d_2">
      <g>
       <use style="stroke:#000000;stroke-width:0.8;" x="216.839635" xlink:href="#m745d425bd4" y="512.64"/>
      </g>
     </g>
     <g id="text_2">
      <!-- 0.2 -->
      <g transform="translate(208.888072 527.238438)scale(0.1 -0.1)">
       <defs>
        <path d="M 19.1875 8.296875 
L 53.609375 8.296875 
L 53.609375 0 
L 7.328125 0 
L 7.328125 8.296875 
Q 12.9375 14.109375 22.625 23.890625 
Q 32.328125 33.6875 34.8125 36.53125 
Q 39.546875 41.84375 41.421875 45.53125 
Q 43.3125 49.21875 43.3125 52.78125 
Q 43.3125 58.59375 39.234375 62.25 
Q 35.15625 65.921875 28.609375 65.921875 
Q 23.96875 65.921875 18.8125 64.3125 
Q 13.671875 62.703125 7.8125 59.421875 
L 7.8125 69.390625 
Q 13.765625 71.78125 18.9375 73 
Q 24.125 74.21875 28.421875 74.21875 
Q 39.75 74.21875 46.484375 68.546875 
Q 53.21875 62.890625 53.21875 53.421875 
Q 53.21875 48.921875 51.53125 44.890625 
Q 49.859375 40.875 45.40625 35.40625 
Q 44.1875 33.984375 37.640625 27.21875 
Q 31.109375 20.453125 19.1875 8.296875 
z
" id="DejaVuSans-50"/>
       </defs>
       <use xlink:href="#DejaVuSans-48"/>
       <use x="63.623047" xlink:href="#DejaVuSans-46"/>
       <use x="95.410156" xlink:href="#DejaVuSans-50"/>
      </g>
     </g>
    </g>
    <g id="xtick_3">
     <g id="line2d_3">
      <g>
       <use style="stroke:#000000;stroke-width:0.8;" x="318.278166" xlink:href="#m745d425bd4" y="512.64"/>
      </g>
     </g>
     <g id="text_3">
      <!-- 0.4 -->
      <g transform="translate(310.326603 527.238438)scale(0.1 -0.1)">
       <defs>
        <path d="M 37.796875 64.3125 
L 12.890625 25.390625 
L 37.796875 25.390625 
z
M 35.203125 72.90625 
L 47.609375 72.90625 
L 47.609375 25.390625 
L 58.015625 25.390625 
L 58.015625 17.1875 
L 47.609375 17.1875 
L 47.609375 0 
L 37.796875 0 
L 37.796875 17.1875 
L 4.890625 17.1875 
L 4.890625 26.703125 
z
" id="DejaVuSans-52"/>
       </defs>
       <use xlink:href="#DejaVuSans-48"/>
       <use x="63.623047" xlink:href="#DejaVuSans-46"/>
       <use x="95.410156" xlink:href="#DejaVuSans-52"/>
      </g>
     </g>
    </g>
    <g id="xtick_4">
     <g id="line2d_4">
      <g>
       <use style="stroke:#000000;stroke-width:0.8;" x="419.716697" xlink:href="#m745d425bd4" y="512.64"/>
      </g>
     </g>
     <g id="text_4">
      <!-- 0.6 -->
      <g transform="translate(411.765135 527.238438)scale(0.1 -0.1)">
       <defs>
        <path d="M 33.015625 40.375 
Q 26.375 40.375 22.484375 35.828125 
Q 18.609375 31.296875 18.609375 23.390625 
Q 18.609375 15.53125 22.484375 10.953125 
Q 26.375 6.390625 33.015625 6.390625 
Q 39.65625 6.390625 43.53125 10.953125 
Q 47.40625 15.53125 47.40625 23.390625 
Q 47.40625 31.296875 43.53125 35.828125 
Q 39.65625 40.375 33.015625 40.375 
z
M 52.59375 71.296875 
L 52.59375 62.3125 
Q 48.875 64.0625 45.09375 64.984375 
Q 41.3125 65.921875 37.59375 65.921875 
Q 27.828125 65.921875 22.671875 59.328125 
Q 17.53125 52.734375 16.796875 39.40625 
Q 19.671875 43.65625 24.015625 45.921875 
Q 28.375 48.1875 33.59375 48.1875 
Q 44.578125 48.1875 50.953125 41.515625 
Q 57.328125 34.859375 57.328125 23.390625 
Q 57.328125 12.15625 50.6875 5.359375 
Q 44.046875 -1.421875 33.015625 -1.421875 
Q 20.359375 -1.421875 13.671875 8.265625 
Q 6.984375 17.96875 6.984375 36.375 
Q 6.984375 53.65625 15.1875 63.9375 
Q 23.390625 74.21875 37.203125 74.21875 
Q 40.921875 74.21875 44.703125 73.484375 
Q 48.484375 72.75 52.59375 71.296875 
z
" id="DejaVuSans-54"/>
       </defs>
       <use xlink:href="#DejaVuSans-48"/>
       <use x="63.623047" xlink:href="#DejaVuSans-46"/>
       <use x="95.410156" xlink:href="#DejaVuSans-54"/>
      </g>
     </g>
    </g>
    <g id="xtick_5">
     <g id="line2d_5">
      <g>
       <use style="stroke:#000000;stroke-width:0.8;" x="521.155228" xlink:href="#m745d425bd4" y="512.64"/>
      </g>
     </g>
     <g id="text_5">
      <!-- 0.8 -->
      <g transform="translate(513.203666 527.238438)scale(0.1 -0.1)">
       <defs>
        <path d="M 31.78125 34.625 
Q 24.75 34.625 20.71875 30.859375 
Q 16.703125 27.09375 16.703125 20.515625 
Q 16.703125 13.921875 20.71875 10.15625 
Q 24.75 6.390625 31.78125 6.390625 
Q 38.8125 6.390625 42.859375 10.171875 
Q 46.921875 13.96875 46.921875 20.515625 
Q 46.921875 27.09375 42.890625 30.859375 
Q 38.875 34.625 31.78125 34.625 
z
M 21.921875 38.8125 
Q 15.578125 40.375 12.03125 44.71875 
Q 8.5 49.078125 8.5 55.328125 
Q 8.5 64.0625 14.71875 69.140625 
Q 20.953125 74.21875 31.78125 74.21875 
Q 42.671875 74.21875 48.875 69.140625 
Q 55.078125 64.0625 55.078125 55.328125 
Q 55.078125 49.078125 51.53125 44.71875 
Q 48 40.375 41.703125 38.8125 
Q 48.828125 37.15625 52.796875 32.3125 
Q 56.78125 27.484375 56.78125 20.515625 
Q 56.78125 9.90625 50.3125 4.234375 
Q 43.84375 -1.421875 31.78125 -1.421875 
Q 19.734375 -1.421875 13.25 4.234375 
Q 6.78125 9.90625 6.78125 20.515625 
Q 6.78125 27.484375 10.78125 32.3125 
Q 14.796875 37.15625 21.921875 38.8125 
z
M 18.3125 54.390625 
Q 18.3125 48.734375 21.84375 45.5625 
Q 25.390625 42.390625 31.78125 42.390625 
Q 38.140625 42.390625 41.71875 45.5625 
Q 45.3125 48.734375 45.3125 54.390625 
Q 45.3125 60.0625 41.71875 63.234375 
Q 38.140625 66.40625 31.78125 66.40625 
Q 25.390625 66.40625 21.84375 63.234375 
Q 18.3125 60.0625 18.3125 54.390625 
z
" id="DejaVuSans-56"/>
       </defs>
       <use xlink:href="#DejaVuSans-48"/>
       <use x="63.623047" xlink:href="#DejaVuSans-46"/>
       <use x="95.410156" xlink:href="#DejaVuSans-56"/>
      </g>
     </g>
    </g>
    <g id="xtick_6">
     <g id="line2d_6">
      <g>
       <use style="stroke:#000000;stroke-width:0.8;" x="622.593759" xlink:href="#m745d425bd4" y="512.64"/>
      </g>
     </g>
     <g id="text_6">
      <!-- 1.0 -->
      <g transform="translate(614.642197 527.238438)scale(0.1 -0.1)">
       <defs>
        <path d="M 12.40625 8.296875 
L 28.515625 8.296875 
L 28.515625 63.921875 
L 10.984375 60.40625 
L 10.984375 69.390625 
L 28.421875 72.90625 
L 38.28125 72.90625 
L 38.28125 8.296875 
L 54.390625 8.296875 
L 54.390625 0 
L 12.40625 0 
z
" id="DejaVuSans-49"/>
       </defs>
       <use xlink:href="#DejaVuSans-49"/>
       <use x="63.623047" xlink:href="#DejaVuSans-46"/>
       <use x="95.410156" xlink:href="#DejaVuSans-48"/>
      </g>
     </g>
    </g>
   </g>
   <g id="matplotlib.axis_2">
    <g id="ytick_1">
     <g id="line2d_7">
      <defs>
       <path d="M 0 0 
L -3.5 0 
" id="mb96ddf2538" style="stroke:#000000;stroke-width:0.8;"/>
      </defs>
      <g>
       <use style="stroke:#000000;stroke-width:0.8;" x="90" xlink:href="#mb96ddf2538" y="504.737657"/>
      </g>
     </g>
     <g id="text_7">
      <!-- −0.4 -->
      <g transform="translate(58.717187 508.536876)scale(0.1 -0.1)">
       <defs>
        <path d="M 10.59375 35.5 
L 73.1875 35.5 
L 73.1875 27.203125 
L 10.59375 27.203125 
z
" id="DejaVuSans-8722"/>
       </defs>
       <use xlink:href="#DejaVuSans-8722"/>
       <use x="83.789062" xlink:href="#DejaVuSans-48"/>
       <use x="147.412109" xlink:href="#DejaVuSans-46"/>
       <use x="179.199219" xlink:href="#DejaVuSans-52"/>
      </g>
     </g>
    </g>
    <g id="ytick_2">
     <g id="line2d_8">
      <g>
       <use style="stroke:#000000;stroke-width:0.8;" x="90" xlink:href="#mb96ddf2538" y="454.018392"/>
      </g>
     </g>
     <g id="text_8">
      <!-- −0.3 -->
      <g transform="translate(58.717187 457.817611)scale(0.1 -0.1)">
       <defs>
        <path d="M 40.578125 39.3125 
Q 47.65625 37.796875 51.625 33 
Q 55.609375 28.21875 55.609375 21.1875 
Q 55.609375 10.40625 48.1875 4.484375 
Q 40.765625 -1.421875 27.09375 -1.421875 
Q 22.515625 -1.421875 17.65625 -0.515625 
Q 12.796875 0.390625 7.625 2.203125 
L 7.625 11.71875 
Q 11.71875 9.328125 16.59375 8.109375 
Q 21.484375 6.890625 26.8125 6.890625 
Q 36.078125 6.890625 40.9375 10.546875 
Q 45.796875 14.203125 45.796875 21.1875 
Q 45.796875 27.640625 41.28125 31.265625 
Q 36.765625 34.90625 28.71875 34.90625 
L 20.21875 34.90625 
L 20.21875 43.015625 
L 29.109375 43.015625 
Q 36.375 43.015625 40.234375 45.921875 
Q 44.09375 48.828125 44.09375 54.296875 
Q 44.09375 59.90625 40.109375 62.90625 
Q 36.140625 65.921875 28.71875 65.921875 
Q 24.65625 65.921875 20.015625 65.03125 
Q 15.375 64.15625 9.8125 62.3125 
L 9.8125 71.09375 
Q 15.4375 72.65625 20.34375 73.4375 
Q 25.25 74.21875 29.59375 74.21875 
Q 40.828125 74.21875 47.359375 69.109375 
Q 53.90625 64.015625 53.90625 55.328125 
Q 53.90625 49.265625 50.4375 45.09375 
Q 46.96875 40.921875 40.578125 39.3125 
z
" id="DejaVuSans-51"/>
       </defs>
       <use xlink:href="#DejaVuSans-8722"/>
       <use x="83.789062" xlink:href="#DejaVuSans-48"/>
       <use x="147.412109" xlink:href="#DejaVuSans-46"/>
       <use x="179.199219" xlink:href="#DejaVuSans-51"/>
      </g>
     </g>
    </g>
    <g id="ytick_3">
     <g id="line2d_9">
      <g>
       <use style="stroke:#000000;stroke-width:0.8;" x="90" xlink:href="#mb96ddf2538" y="403.299126"/>
      </g>
     </g>
     <g id="text_9">
      <!-- −0.2 -->
      <g transform="translate(58.717187 407.098345)scale(0.1 -0.1)">
       <use xlink:href="#DejaVuSans-8722"/>
       <use x="83.789062" xlink:href="#DejaVuSans-48"/>
       <use x="147.412109" xlink:href="#DejaVuSans-46"/>
       <use x="179.199219" xlink:href="#DejaVuSans-50"/>
      </g>
     </g>
    </g>
    <g id="ytick_4">
     <g id="line2d_10">
      <g>
       <use style="stroke:#000000;stroke-width:0.8;" x="90" xlink:href="#mb96ddf2538" y="352.579861"/>
      </g>
     </g>
     <g id="text_10">
      <!-- −0.1 -->
      <g transform="translate(58.717187 356.379079)scale(0.1 -0.1)">
       <use xlink:href="#DejaVuSans-8722"/>
       <use x="83.789062" xlink:href="#DejaVuSans-48"/>
       <use x="147.412109" xlink:href="#DejaVuSans-46"/>
       <use x="179.199219" xlink:href="#DejaVuSans-49"/>
      </g>
     </g>
    </g>
    <g id="ytick_5">
     <g id="line2d_11">
      <g>
       <use style="stroke:#000000;stroke-width:0.8;" x="90" xlink:href="#mb96ddf2538" y="301.860595"/>
      </g>
     </g>
     <g id="text_11">
      <!-- 0.0 -->
      <g transform="translate(67.096875 305.659814)scale(0.1 -0.1)">
       <use xlink:href="#DejaVuSans-48"/>
       <use x="63.623047" xlink:href="#DejaVuSans-46"/>
       <use x="95.410156" xlink:href="#DejaVuSans-48"/>
      </g>
     </g>
    </g>
    <g id="ytick_6">
     <g id="line2d_12">
      <g>
       <use style="stroke:#000000;stroke-width:0.8;" x="90" xlink:href="#mb96ddf2538" y="251.141329"/>
      </g>
     </g>
     <g id="text_12">
      <!-- 0.1 -->
      <g transform="translate(67.096875 254.940548)scale(0.1 -0.1)">
       <use xlink:href="#DejaVuSans-48"/>
       <use x="63.623047" xlink:href="#DejaVuSans-46"/>
       <use x="95.410156" xlink:href="#DejaVuSans-49"/>
      </g>
     </g>
    </g>
    <g id="ytick_7">
     <g id="line2d_13">
      <g>
       <use style="stroke:#000000;stroke-width:0.8;" x="90" xlink:href="#mb96ddf2538" y="200.422064"/>
      </g>
     </g>
     <g id="text_13">
      <!-- 0.2 -->
      <g transform="translate(67.096875 204.221283)scale(0.1 -0.1)">
       <use xlink:href="#DejaVuSans-48"/>
       <use x="63.623047" xlink:href="#DejaVuSans-46"/>
       <use x="95.410156" xlink:href="#DejaVuSans-50"/>
      </g>
     </g>
    </g>
    <g id="ytick_8">
     <g id="line2d_14">
      <g>
       <use style="stroke:#000000;stroke-width:0.8;" x="90" xlink:href="#mb96ddf2538" y="149.702798"/>
      </g>
     </g>
     <g id="text_14">
      <!-- 0.3 -->
      <g transform="translate(67.096875 153.502017)scale(0.1 -0.1)">
       <use xlink:href="#DejaVuSans-48"/>
       <use x="63.623047" xlink:href="#DejaVuSans-46"/>
       <use x="95.410156" xlink:href="#DejaVuSans-51"/>
      </g>
     </g>
    </g>
    <g id="ytick_9">
     <g id="line2d_15">
      <g>
       <use style="stroke:#000000;stroke-width:0.8;" x="90" xlink:href="#mb96ddf2538" y="98.983533"/>
      </g>
     </g>
     <g id="text_15">
      <!-- 0.4 -->
      <g transform="translate(67.096875 102.782751)scale(0.1 -0.1)">
       <use xlink:href="#DejaVuSans-48"/>
       <use x="63.623047" xlink:href="#DejaVuSans-46"/>
       <use x="95.410156" xlink:href="#DejaVuSans-52"/>
      </g>
     </g>
    </g>
   </g>
   <g id="line2d_16">
    <path clip-path="url(#pbe345ef941)" d="M 622.592694 301.353402 
L 579.165574 293.050207 
L 507.71445 278.978464 
L 487.38185 275.28713 
L 470.315491 272.410905 
L 453.396511 269.787207 
L 438.161164 267.637961 
L 423.081258 265.727767 
L 408.175078 264.056894 
L 392.002559 262.474317 
L 376.088158 261.151884 
L 360.454606 260.089375 
L 345.12443 259.286499 
L 330.119936 258.742346 
L 316.780692 258.471486 
L 303.745308 258.409672 
L 291.029971 258.552432 
L 278.65054 258.894374 
L 265.439534 259.490774 
L 252.673434 260.30541 
L 240.371401 261.326548 
L 228.551956 262.542428 
L 217.232983 263.941077 
L 206.431847 265.510885 
L 196.165361 267.240221 
L 186.449729 269.116601 
L 177.300687 271.126925 
L 169.487742 273.058988 
L 162.166321 275.078987 
L 155.346893 277.173438 
L 149.038342 279.326028 
L 143.249954 281.523214 
L 137.988847 283.746929 
L 133.265535 285.976735 
L 129.085658 288.190499 
L 125.794656 290.164673 
L 122.952738 292.101632 
L 120.579985 293.962211 
L 118.674046 295.721435 
L 117.354212 297.228221 
L 116.388431 298.639768 
L 115.798739 299.854971 
L 115.477289 300.996837 
L 115.406181 302.073963 
L 115.556022 303.029664 
L 115.881142 303.869597 
L 116.413435 304.67909 
L 117.085522 305.340329 
L 117.978087 305.929692 
L 119.294374 306.539011 
L 121.112763 307.133489 
L 123.854055 307.777879 
L 127.402547 308.368237 
L 131.89273 308.890725 
L 137.973063 309.355712 
L 146.003758 309.731125 
L 155.742935 309.956908 
L 168.111363 310.011135 
L 183.556316 309.845358 
L 202.541676 309.414654 
L 225.53169 308.668352 
L 256.300266 307.438155 
L 390.985668 301.776527 
L 425.87958 300.652105 
L 455.82636 299.90383 
L 481.807838 299.470207 
L 506.631946 299.285604 
L 530.172505 299.339425 
L 550.740751 299.596785 
L 569.830143 300.050718 
L 588.987999 300.728681 
L 608.185082 301.617107 
L 622.593759 302.367788 
L 622.593759 302.367788 
" style="fill:none;stroke:#008000;stroke-dasharray:5.55,2.4;stroke-dashoffset:0;stroke-width:1.5;"/>
   </g>
   <g id="line2d_17">
    <path clip-path="url(#pbe345ef941)" d="M 622.636364 301.223054 
L 603.370706 297.310971 
L 582.487176 293.303557 
L 561.629412 289.531807 
L 540.836312 285.993228 
L 520.14628 282.685751 
L 498.02318 279.382029 
L 476.10974 276.34631 
L 454.45149 273.581196 
L 433.093456 271.088652 
L 412.079663 268.874138 
L 392.913241 267.0697 
L 374.115503 265.513048 
L 355.720389 264.206822 
L 337.761321 263.155118 
L 320.271135 262.359095 
L 305.861394 261.911996 
L 291.82934 261.701304 
L 278.19569 261.721969 
L 264.980644 261.96757 
L 252.203891 262.431456 
L 239.88464 263.105815 
L 228.041595 263.982053 
L 216.692878 265.050366 
L 205.855965 266.299959 
L 195.547811 267.719803 
L 185.784846 269.298197 
L 176.58289 271.022725 
L 167.957365 272.880842 
L 160.628977 274.675055 
L 153.800685 276.558798 
L 147.48411 278.522991 
L 141.691583 280.558593 
L 136.43517 282.654734 
L 132.175405 284.585975 
L 128.373954 286.550905 
L 125.044118 288.540123 
L 122.495083 290.318478 
L 120.343406 292.090927 
L 118.798005 293.620066 
L 117.569758 295.106836 
L 116.544534 296.706806 
L 115.898756 298.136344 
L 115.50437 299.587475 
L 115.364148 301.010698 
L 115.459146 302.306183 
L 115.793931 303.642796 
L 116.382372 304.990812 
L 117.220228 306.291609 
L 118.215205 307.445082 
L 119.703268 308.791907 
L 121.526883 310.102777 
L 123.677394 311.357177 
L 126.133087 312.550082 
L 129.299938 313.829235 
L 132.831001 315.020859 
L 137.223885 316.255337 
L 142.045175 317.382814 
L 147.889834 318.511696 
L 154.232949 319.513804 
L 161.77023 320.473855 
L 169.878708 321.287858 
L 179.357944 322.014134 
L 190.351905 322.616871 
L 202.076722 323.035104 
L 215.493827 323.289325 
L 230.745989 323.349825 
L 247.973831 323.193552 
L 268.482317 322.777373 
L 293.830949 322.026088 
L 327.178715 320.800119 
L 352.800053 319.650621 
L 383.651447 318.042734 
L 423.04597 315.750764 
L 476.191618 312.415711 
L 550.206532 307.536552 
L 611.262821 303.31194 
L 622.551155 302.498136 
L 622.551155 302.498136 
" style="fill:none;stroke:#0000ff;stroke-dasharray:5.55,2.4;stroke-dashoffset:0;stroke-width:1.5;"/>
   </g>
   <g id="line2d_18">
    <path clip-path="url(#pbe345ef941)" d="M 622.62763 301.249124 
L 600.133419 296.765518 
L 574.437726 291.878645 
L 550.417209 287.537352 
L 528.105287 283.722977 
L 505.940846 280.160419 
L 485.529939 277.092662 
L 465.318267 274.275708 
L 445.341604 271.718001 
L 425.635446 269.428489 
L 406.235399 267.412864 
L 387.177605 265.667104 
L 368.497006 264.19329 
L 351.617964 263.075764 
L 335.116335 262.193644 
L 319.018421 261.548291 
L 304.638351 261.187577 
L 290.639011 261.065398 
L 277.041134 261.176437 
L 263.864935 261.512865 
L 251.130123 262.066901 
L 238.855867 262.829878 
L 227.060786 263.792479 
L 215.762887 264.944297 
L 204.979627 266.274557 
L 194.727874 267.771983 
L 185.023869 269.424431 
L 175.8835 271.21972 
L 167.322126 273.144942 
L 160.053801 274.995981 
L 153.287646 276.932939 
L 147.0342 278.944165 
L 141.305584 281.020743 
L 136.112921 283.149681 
L 131.909927 285.100929 
L 128.161773 287.073802 
L 124.884858 289.066687 
L 122.374282 290.839418 
L 120.261292 292.592658 
L 118.54828 294.298142 
L 117.385247 295.744056 
L 116.425889 297.314441 
L 115.827878 298.703698 
L 115.475442 300.062555 
L 115.371974 301.368915 
L 115.492943 302.524532 
L 115.82604 303.685585 
L 116.35604 304.786474 
L 117.066475 305.807604 
L 118.034911 306.853389 
L 119.490437 308.060961 
L 121.276826 309.231247 
L 123.378696 310.345581 
L 126.147183 311.542697 
L 129.283398 312.656191 
L 133.239589 313.801881 
L 138.138346 314.95955 
L 143.552266 315.993408 
L 150.084731 316.996377 
L 157.205858 317.862154 
L 165.628198 318.654698 
L 174.715162 319.29303 
L 185.288881 319.817802 
L 197.499908 320.195274 
L 211.500492 320.393777 
L 227.442098 320.385161 
L 245.472333 320.14858 
L 266.890944 319.640887 
L 294.501057 318.747861 
L 331.728817 317.311371 
L 362.977051 315.883602 
L 404.276356 313.76554 
L 582.327277 304.37556 
L 622.559676 302.472066 
L 622.559676 302.472066 
" style="fill:none;stroke:#00bfbf;stroke-dasharray:5.55,2.4;stroke-dashoffset:0;stroke-width:1.5;"/>
   </g>
   <g id="line2d_19">
    <defs>
     <path d="M 0 3 
C 0.795609 3 1.55874 2.683901 2.12132 2.12132 
C 2.683901 1.55874 3 0.795609 3 0 
C 3 -0.795609 2.683901 -1.55874 2.12132 -2.12132 
C 1.55874 -2.683901 0.795609 -3 0 -3 
C -0.795609 -3 -1.55874 -2.683901 -2.12132 -2.12132 
C -2.683901 -1.55874 -3 -0.795609 -3 0 
C -3 0.795609 -2.683901 1.55874 -2.12132 2.12132 
C -1.55874 2.683901 -0.795609 3 0 3 
z
" id="m51790ae863" style="stroke:#ff0000;"/>
    </defs>
    <g clip-path="url(#pbe345ef941)">
     <use style="fill:#ff0000;stroke:#ff0000;" x="622.62764" xlink:href="#m51790ae863" y="301.249124"/>
     <use style="fill:#ff0000;stroke:#ff0000;" x="617.150213" xlink:href="#m51790ae863" y="300.13614"/>
     <use style="fill:#ff0000;stroke:#ff0000;" x="610.399631" xlink:href="#m51790ae863" y="298.785537"/>
     <use style="fill:#ff0000;stroke:#ff0000;" x="601.09858" xlink:href="#m51790ae863" y="296.95376"/>
     <use style="fill:#ff0000;stroke:#ff0000;" x="587.991504" xlink:href="#m51790ae863" y="294.426926"/>
     <use style="fill:#ff0000;stroke:#ff0000;" x="572.779528" xlink:href="#m51790ae863" y="291.571583"/>
     <use style="fill:#ff0000;stroke:#ff0000;" x="557.090944" xlink:href="#m51790ae863" y="288.720096"/>
     <use style="fill:#ff0000;stroke:#ff0000;" x="541.394548" xlink:href="#m51790ae863" y="285.968372"/>
     <use style="fill:#ff0000;stroke:#ff0000;" x="525.770529" xlink:href="#m51790ae863" y="283.336803"/>
     <use style="fill:#ff0000;stroke:#ff0000;" x="510.228371" xlink:href="#m51790ae863" y="280.831475"/>
     <use style="fill:#ff0000;stroke:#ff0000;" x="494.770052" xlink:href="#m51790ae863" y="278.454719"/>
     <use style="fill:#ff0000;stroke:#ff0000;" x="479.400593" xlink:href="#m51790ae863" y="276.2145"/>
     <use style="fill:#ff0000;stroke:#ff0000;" x="464.126486" xlink:href="#m51790ae863" y="274.1167"/>
     <use style="fill:#ff0000;stroke:#ff0000;" x="448.935457" xlink:href="#m51790ae863" y="272.161016"/>
     <use style="fill:#ff0000;stroke:#ff0000;" x="433.79814" xlink:href="#m51790ae863" y="270.347701"/>
     <use style="fill:#ff0000;stroke:#ff0000;" x="418.668685" xlink:href="#m51790ae863" y="268.67711"/>
     <use style="fill:#ff0000;stroke:#ff0000;" x="403.522441" xlink:href="#m51790ae863" y="267.150003"/>
     <use style="fill:#ff0000;stroke:#ff0000;" x="388.343027" xlink:href="#m51790ae863" y="265.76699"/>
     <use style="fill:#ff0000;stroke:#ff0000;" x="373.132167" xlink:href="#m51790ae863" y="264.536389"/>
     <use style="fill:#ff0000;stroke:#ff0000;" x="357.898839" xlink:href="#m51790ae863" y="263.466872"/>
     <use style="fill:#ff0000;stroke:#ff0000;" x="342.65562" xlink:href="#m51790ae863" y="262.570054"/>
     <use style="fill:#ff0000;stroke:#ff0000;" x="327.425791" xlink:href="#m51790ae863" y="261.857397"/>
     <use style="fill:#ff0000;stroke:#ff0000;" x="312.216605" xlink:href="#m51790ae863" y="261.34919"/>
     <use style="fill:#ff0000;stroke:#ff0000;" x="297.03359" xlink:href="#m51790ae863" y="261.092196"/>
     <use style="fill:#ff0000;stroke:#ff0000;" x="281.894041" xlink:href="#m51790ae863" y="261.110049"/>
     <use style="fill:#ff0000;stroke:#ff0000;" x="266.814899" xlink:href="#m51790ae863" y="261.417205"/>
     <use style="fill:#ff0000;stroke:#ff0000;" x="251.813561" xlink:href="#m51790ae863" y="262.031212"/>
     <use style="fill:#ff0000;stroke:#ff0000;" x="236.916095" xlink:href="#m51790ae863" y="262.972257"/>
     <use style="fill:#ff0000;stroke:#ff0000;" x="222.167592" xlink:href="#m51790ae863" y="264.262556"/>
     <use style="fill:#ff0000;stroke:#ff0000;" x="207.617401" xlink:href="#m51790ae863" y="265.92706"/>
     <use style="fill:#ff0000;stroke:#ff0000;" x="193.338356" xlink:href="#m51790ae863" y="267.993921"/>
     <use style="fill:#ff0000;stroke:#ff0000;" x="179.439299" xlink:href="#m51790ae863" y="270.491693"/>
     <use style="fill:#ff0000;stroke:#ff0000;" x="166.077258" xlink:href="#m51790ae863" y="273.446902"/>
     <use style="fill:#ff0000;stroke:#ff0000;" x="153.474078" xlink:href="#m51790ae863" y="276.876488"/>
     <use style="fill:#ff0000;stroke:#ff0000;" x="142.007111" xlink:href="#m51790ae863" y="280.752657"/>
     <use style="fill:#ff0000;stroke:#ff0000;" x="132.216822" xlink:href="#m51790ae863" y="284.950285"/>
     <use style="fill:#ff0000;stroke:#ff0000;" x="124.705553" xlink:href="#m51790ae863" y="289.185039"/>
     <use style="fill:#ff0000;stroke:#ff0000;" x="119.756062" xlink:href="#m51790ae863" y="293.061817"/>
     <use style="fill:#ff0000;stroke:#ff0000;" x="117.039285" xlink:href="#m51790ae863" y="296.255102"/>
     <use style="fill:#ff0000;stroke:#ff0000;" x="115.371128" xlink:href="#m51790ae863" y="301.24679"/>
     <use style="fill:#ff0000;stroke:#ff0000;" x="115.412414" xlink:href="#m51790ae863" y="301.999667"/>
     <use style="fill:#ff0000;stroke:#ff0000;" x="115.716273" xlink:href="#m51790ae863" y="303.377101"/>
     <use style="fill:#ff0000;stroke:#ff0000;" x="116.333324" xlink:href="#m51790ae863" y="304.747181"/>
     <use style="fill:#ff0000;stroke:#ff0000;" x="117.494338" xlink:href="#m51790ae863" y="306.3034"/>
     <use style="fill:#ff0000;stroke:#ff0000;" x="119.907307" xlink:href="#m51790ae863" y="308.357429"/>
     <use style="fill:#ff0000;stroke:#ff0000;" x="124.772147" xlink:href="#m51790ae863" y="310.977687"/>
     <use style="fill:#ff0000;stroke:#ff0000;" x="133.307489" xlink:href="#m51790ae863" y="313.819538"/>
     <use style="fill:#ff0000;stroke:#ff0000;" x="145.237726" xlink:href="#m51790ae863" y="316.274097"/>
     <use style="fill:#ff0000;stroke:#ff0000;" x="159.220267" xlink:href="#m51790ae863" y="318.071842"/>
     <use style="fill:#ff0000;stroke:#ff0000;" x="174.184428" xlink:href="#m51790ae863" y="319.260904"/>
     <use style="fill:#ff0000;stroke:#ff0000;" x="189.611606" xlink:href="#m51790ae863" y="319.97635"/>
     <use style="fill:#ff0000;stroke:#ff0000;" x="205.269962" xlink:href="#m51790ae863" y="320.33245"/>
     <use style="fill:#ff0000;stroke:#ff0000;" x="221.06318" xlink:href="#m51790ae863" y="320.414514"/>
     <use style="fill:#ff0000;stroke:#ff0000;" x="236.948251" xlink:href="#m51790ae863" y="320.286042"/>
     <use style="fill:#ff0000;stroke:#ff0000;" x="252.901945" xlink:href="#m51790ae863" y="319.996283"/>
     <use style="fill:#ff0000;stroke:#ff0000;" x="268.910974" xlink:href="#m51790ae863" y="319.583225"/>
     <use style="fill:#ff0000;stroke:#ff0000;" x="284.968643" xlink:href="#m51790ae863" y="319.078923"/>
     <use style="fill:#ff0000;stroke:#ff0000;" x="301.05649" xlink:href="#m51790ae863" y="318.510158"/>
     <use style="fill:#ff0000;stroke:#ff0000;" x="317.124252" xlink:href="#m51790ae863" y="317.901476"/>
     <use style="fill:#ff0000;stroke:#ff0000;" x="333.166147" xlink:href="#m51790ae863" y="317.250595"/>
     <use style="fill:#ff0000;stroke:#ff0000;" x="349.187095" xlink:href="#m51790ae863" y="316.537787"/>
     <use style="fill:#ff0000;stroke:#ff0000;" x="365.189226" xlink:href="#m51790ae863" y="315.775679"/>
     <use style="fill:#ff0000;stroke:#ff0000;" x="381.172642" xlink:href="#m51790ae863" y="314.974416"/>
     <use style="fill:#ff0000;stroke:#ff0000;" x="397.136074" xlink:href="#m51790ae863" y="314.144193"/>
     <use style="fill:#ff0000;stroke:#ff0000;" x="413.07927" xlink:href="#m51790ae863" y="313.293783"/>
     <use style="fill:#ff0000;stroke:#ff0000;" x="428.997359" xlink:href="#m51790ae863" y="312.430389"/>
     <use style="fill:#ff0000;stroke:#ff0000;" x="444.887046" xlink:href="#m51790ae863" y="311.561517"/>
     <use style="fill:#ff0000;stroke:#ff0000;" x="460.746047" xlink:href="#m51790ae863" y="310.692442"/>
     <use style="fill:#ff0000;stroke:#ff0000;" x="476.575073" xlink:href="#m51790ae863" y="309.828693"/>
     <use style="fill:#ff0000;stroke:#ff0000;" x="492.377168" xlink:href="#m51790ae863" y="308.974581"/>
     <use style="fill:#ff0000;stroke:#ff0000;" x="508.156743" xlink:href="#m51790ae863" y="308.132489"/>
     <use style="fill:#ff0000;stroke:#ff0000;" x="523.909335" xlink:href="#m51790ae863" y="307.304192"/>
     <use style="fill:#ff0000;stroke:#ff0000;" x="539.623736" xlink:href="#m51790ae863" y="306.491873"/>
     <use style="fill:#ff0000;stroke:#ff0000;" x="555.305321" xlink:href="#m51790ae863" y="305.698065"/>
     <use style="fill:#ff0000;stroke:#ff0000;" x="571.034786" xlink:href="#m51790ae863" y="304.921452"/>
     <use style="fill:#ff0000;stroke:#ff0000;" x="586.783574" xlink:href="#m51790ae863" y="304.162235"/>
     <use style="fill:#ff0000;stroke:#ff0000;" x="600.404182" xlink:href="#m51790ae863" y="303.516427"/>
     <use style="fill:#ff0000;stroke:#ff0000;" x="610.005846" xlink:href="#m51790ae863" y="303.066293"/>
     <use style="fill:#ff0000;stroke:#ff0000;" x="616.939373" xlink:href="#m51790ae863" y="302.740574"/>
     <use style="fill:#ff0000;stroke:#ff0000;" x="622.559676" xlink:href="#m51790ae863" y="302.472066"/>
    </g>
   </g>
   <g id="line2d_20">
    <defs>
     <path d="M 0 3 
C 0.795609 3 1.55874 2.683901 2.12132 2.12132 
C 2.683901 1.55874 3 0.795609 3 0 
C 3 -0.795609 2.683901 -1.55874 2.12132 -2.12132 
C 1.55874 -2.683901 0.795609 -3 0 -3 
C -0.795609 -3 -1.55874 -2.683901 -2.12132 -2.12132 
C -2.683901 -1.55874 -3 -0.795609 -3 0 
C -3 0.795609 -2.683901 1.55874 -2.12132 2.12132 
C -1.55874 2.683901 -0.795609 3 0 3 
z
" id="m50020784f7" style="stroke:#008000;"/>
    </defs>
    <g clip-path="url(#pbe345ef941)">
     <use style="fill:#008000;stroke:#008000;" x="622.592694" xlink:href="#m50020784f7" y="301.353402"/>
     <use style="fill:#008000;stroke:#008000;" x="617.096704" xlink:href="#m50020784f7" y="300.32091"/>
     <use style="fill:#008000;stroke:#008000;" x="610.325834" xlink:href="#m50020784f7" y="299.057443"/>
     <use style="fill:#008000;stroke:#008000;" x="601.006423" xlink:href="#m50020784f7" y="297.297078"/>
     <use style="fill:#008000;stroke:#008000;" x="587.893362" xlink:href="#m50020784f7" y="294.768165"/>
     <use style="fill:#008000;stroke:#008000;" x="572.702334" xlink:href="#m50020784f7" y="291.764672"/>
     <use style="fill:#008000;stroke:#008000;" x="557.059295" xlink:href="#m50020784f7" y="288.631337"/>
     <use style="fill:#008000;stroke:#008000;" x="541.424371" xlink:href="#m50020784f7" y="285.505052"/>
     <use style="fill:#008000;stroke:#008000;" x="525.869685" xlink:href="#m50020784f7" y="282.444144"/>
     <use style="fill:#008000;stroke:#008000;" x="510.398737" xlink:href="#m50020784f7" y="279.482545"/>
     <use style="fill:#008000;stroke:#008000;" x="495.009599" xlink:href="#m50020784f7" y="276.642063"/>
     <use style="fill:#008000;stroke:#008000;" x="479.701257" xlink:href="#m50020784f7" y="273.964847"/>
     <use style="fill:#008000;stroke:#008000;" x="464.476855" xlink:href="#m50020784f7" y="271.479248"/>
     <use style="fill:#008000;stroke:#008000;" x="449.324068" xlink:href="#m50020784f7" y="269.19186"/>
     <use style="fill:#008000;stroke:#008000;" x="434.212669" xlink:href="#m50020784f7" y="267.116478"/>
     <use style="fill:#008000;stroke:#008000;" x="419.097415" xlink:href="#m50020784f7" y="265.260204"/>
     <use style="fill:#008000;stroke:#008000;" x="403.955533" xlink:href="#m50020784f7" y="263.621515"/>
     <use style="fill:#008000;stroke:#008000;" x="388.773735" xlink:href="#m50020784f7" y="262.186768"/>
     <use style="fill:#008000;stroke:#008000;" x="373.555166" xlink:href="#m50020784f7" y="260.963572"/>
     <use style="fill:#008000;stroke:#008000;" x="358.309969" xlink:href="#m50020784f7" y="259.962526"/>
     <use style="fill:#008000;stroke:#008000;" x="343.052346" xlink:href="#m50020784f7" y="259.196817"/>
     <use style="fill:#008000;stroke:#008000;" x="327.807149" xlink:href="#m50020784f7" y="258.680698"/>
     <use style="fill:#008000;stroke:#008000;" x="312.583965" xlink:href="#m50020784f7" y="258.429282"/>
     <use style="fill:#008000;stroke:#008000;" x="297.391059" xlink:href="#m50020784f7" y="258.45525"/>
     <use style="fill:#008000;stroke:#008000;" x="282.247149" xlink:href="#m50020784f7" y="258.773818"/>
     <use style="fill:#008000;stroke:#008000;" x="267.169985" xlink:href="#m50020784f7" y="259.398679"/>
     <use style="fill:#008000;stroke:#008000;" x="252.177877" xlink:href="#m50020784f7" y="260.341956"/>
     <use style="fill:#008000;stroke:#008000;" x="237.297656" xlink:href="#m50020784f7" y="261.619879"/>
     <use style="fill:#008000;stroke:#008000;" x="222.575071" xlink:href="#m50020784f7" y="263.251112"/>
     <use style="fill:#008000;stroke:#008000;" x="208.060333" xlink:href="#m50020784f7" y="265.25853"/>
     <use style="fill:#008000;stroke:#008000;" x="193.827442" xlink:href="#m50020784f7" y="267.669318"/>
     <use style="fill:#008000;stroke:#008000;" x="179.98661" xlink:href="#m50020784f7" y="270.510307"/>
     <use style="fill:#008000;stroke:#008000;" x="166.696033" xlink:href="#m50020784f7" y="273.803661"/>
     <use style="fill:#008000;stroke:#008000;" x="154.177351" xlink:href="#m50020784f7" y="277.555771"/>
     <use style="fill:#008000;stroke:#008000;" x="142.798738" xlink:href="#m50020784f7" y="281.704759"/>
     <use style="fill:#008000;stroke:#008000;" x="133.075855" xlink:href="#m50020784f7" y="286.071688"/>
     <use style="fill:#008000;stroke:#008000;" x="125.562708" xlink:href="#m50020784f7" y="290.313593"/>
     <use style="fill:#008000;stroke:#008000;" x="120.491086" xlink:href="#m50020784f7" y="294.037605"/>
     <use style="fill:#008000;stroke:#008000;" x="117.530146" xlink:href="#m50020784f7" y="297.006761"/>
     <use style="fill:#008000;stroke:#008000;" x="115.401103" xlink:href="#m50020784f7" y="301.860595"/>
     <use style="fill:#008000;stroke:#008000;" x="115.462423" xlink:href="#m50020784f7" y="302.603937"/>
     <use style="fill:#008000;stroke:#008000;" x="115.911289" xlink:href="#m50020784f7" y="303.927557"/>
     <use style="fill:#008000;stroke:#008000;" x="116.820939" xlink:href="#m50020784f7" y="305.111903"/>
     <use style="fill:#008000;stroke:#008000;" x="118.458258" xlink:href="#m50020784f7" y="306.176297"/>
     <use style="fill:#008000;stroke:#008000;" x="121.472555" xlink:href="#m50020784f7" y="307.230649"/>
     <use style="fill:#008000;stroke:#008000;" x="126.919905" xlink:href="#m50020784f7" y="308.299203"/>
     <use style="fill:#008000;stroke:#008000;" x="135.865211" xlink:href="#m50020784f7" y="309.216562"/>
     <use style="fill:#008000;stroke:#008000;" x="147.987724" xlink:href="#m50020784f7" y="309.793747"/>
     <use style="fill:#008000;stroke:#008000;" x="162.011297" xlink:href="#m50020784f7" y="310.01042"/>
     <use style="fill:#008000;stroke:#008000;" x="176.934325" xlink:href="#m50020784f7" y="309.941138"/>
     <use style="fill:#008000;stroke:#008000;" x="192.279135" xlink:href="#m50020784f7" y="309.673036"/>
     <use style="fill:#008000;stroke:#008000;" x="207.834835" xlink:href="#m50020784f7" y="309.261246"/>
     <use style="fill:#008000;stroke:#008000;" x="223.515659" xlink:href="#m50020784f7" y="308.741221"/>
     <use style="fill:#008000;stroke:#008000;" x="239.284127" xlink:href="#m50020784f7" y="308.142531"/>
     <use style="fill:#008000;stroke:#008000;" x="255.120051" xlink:href="#m50020784f7" y="307.488506"/>
     <use style="fill:#008000;stroke:#008000;" x="271.011665" xlink:href="#m50020784f7" y="306.796848"/>
     <use style="fill:#008000;stroke:#008000;" x="286.952984" xlink:href="#m50020784f7" y="306.084901"/>
     <use style="fill:#008000;stroke:#008000;" x="302.926256" xlink:href="#m50020784f7" y="305.372346"/>
     <use style="fill:#008000;stroke:#008000;" x="318.881319" xlink:href="#m50020784f7" y="304.667957"/>
     <use style="fill:#008000;stroke:#008000;" x="334.813001" xlink:href="#m50020784f7" y="303.980863"/>
     <use style="fill:#008000;stroke:#008000;" x="350.72749" xlink:href="#m50020784f7" y="303.318115"/>
     <use style="fill:#008000;stroke:#008000;" x="366.626813" xlink:href="#m50020784f7" y="302.683261"/>
     <use style="fill:#008000;stroke:#008000;" x="382.510971" xlink:href="#m50020784f7" y="302.081934"/>
     <use style="fill:#008000;stroke:#008000;" x="398.378392" xlink:href="#m50020784f7" y="301.51966"/>
     <use style="fill:#008000;stroke:#008000;" x="414.228619" xlink:href="#m50020784f7" y="301.001512"/>
     <use style="fill:#008000;stroke:#008000;" x="430.05658" xlink:href="#m50020784f7" y="300.534134"/>
     <use style="fill:#008000;stroke:#008000;" x="445.858725" xlink:href="#m50020784f7" y="300.126605"/>
     <use style="fill:#008000;stroke:#008000;" x="461.632569" xlink:href="#m50020784f7" y="299.787597"/>
     <use style="fill:#008000;stroke:#008000;" x="477.378568" xlink:href="#m50020784f7" y="299.527712"/>
     <use style="fill:#008000;stroke:#008000;" x="493.099359" xlink:href="#m50020784f7" y="299.356636"/>
     <use style="fill:#008000;stroke:#008000;" x="508.798899" xlink:href="#m50020784f7" y="299.280962"/>
     <use style="fill:#008000;stroke:#008000;" x="524.472167" xlink:href="#m50020784f7" y="299.304699"/>
     <use style="fill:#008000;stroke:#008000;" x="540.107547" xlink:href="#m50020784f7" y="299.436468"/>
     <use style="fill:#008000;stroke:#008000;" x="555.709554" xlink:href="#m50020784f7" y="299.693614"/>
     <use style="fill:#008000;stroke:#008000;" x="571.35736" xlink:href="#m50020784f7" y="300.096731"/>
     <use style="fill:#008000;stroke:#008000;" x="587.021549" xlink:href="#m50020784f7" y="300.64947"/>
     <use style="fill:#008000;stroke:#008000;" x="600.56623" xlink:href="#m50020784f7" y="301.239436"/>
     <use style="fill:#008000;stroke:#008000;" x="610.11256" xlink:href="#m50020784f7" y="301.716857"/>
     <use style="fill:#008000;stroke:#008000;" x="617.005714" xlink:href="#m50020784f7" y="302.079956"/>
     <use style="fill:#008000;stroke:#008000;" x="622.593759" xlink:href="#m50020784f7" y="302.367788"/>
    </g>
   </g>
   <g id="line2d_21">
    <defs>
     <path d="M 0 3 
C 0.795609 3 1.55874 2.683901 2.12132 2.12132 
C 2.683901 1.55874 3 0.795609 3 0 
C 3 -0.795609 2.683901 -1.55874 2.12132 -2.12132 
C 1.55874 -2.683901 0.795609 -3 0 -3 
C -0.795609 -3 -1.55874 -2.683901 -2.12132 -2.12132 
C -2.683901 -1.55874 -3 -0.795609 -3 0 
C -3 0.795609 -2.683901 1.55874 -2.12132 2.12132 
C -1.55874 2.683901 -0.795609 3 0 3 
z
" id="m2ec0ba8832" style="stroke:#0000ff;"/>
    </defs>
    <g clip-path="url(#pbe345ef941)">
     <use style="fill:#0000ff;stroke:#0000ff;" x="622.636364" xlink:href="#m2ec0ba8832" y="301.223054"/>
     <use style="fill:#0000ff;stroke:#0000ff;" x="617.163551" xlink:href="#m2ec0ba8832" y="300.089934"/>
     <use style="fill:#0000ff;stroke:#0000ff;" x="610.418001" xlink:href="#m2ec0ba8832" y="298.717531"/>
     <use style="fill:#0000ff;stroke:#0000ff;" x="601.121517" xlink:href="#m2ec0ba8832" y="296.867884"/>
     <use style="fill:#0000ff;stroke:#0000ff;" x="588.015859" xlink:href="#m2ec0ba8832" y="294.341604"/>
     <use style="fill:#0000ff;stroke:#0000ff;" x="572.798555" xlink:href="#m2ec0ba8832" y="291.523258"/>
     <use style="fill:#0000ff;stroke:#0000ff;" x="557.098484" xlink:href="#m2ec0ba8832" y="288.742198"/>
     <use style="fill:#0000ff;stroke:#0000ff;" x="541.38659" xlink:href="#m2ec0ba8832" y="286.084091"/>
     <use style="fill:#0000ff;stroke:#0000ff;" x="525.745168" xlink:href="#m2ec0ba8832" y="283.559904"/>
     <use style="fill:#0000ff;stroke:#0000ff;" x="510.185124" xlink:href="#m2ec0ba8832" y="281.16858"/>
     <use style="fill:#0000ff;stroke:#0000ff;" x="494.709381" xlink:href="#m2ec0ba8832" y="278.907777"/>
     <use style="fill:#0000ff;stroke:#0000ff;" x="479.32459" xlink:href="#m2ec0ba8832" y="276.776798"/>
     <use style="fill:#0000ff;stroke:#0000ff;" x="464.037947" xlink:href="#m2ec0ba8832" y="274.775952"/>
     <use style="fill:#0000ff;stroke:#0000ff;" x="448.837296" xlink:href="#m2ec0ba8832" y="272.903177"/>
     <use style="fill:#0000ff;stroke:#0000ff;" x="433.6934" xlink:href="#m2ec0ba8832" y="271.155404"/>
     <use style="fill:#0000ff;stroke:#0000ff;" x="418.560314" xlink:href="#m2ec0ba8832" y="269.531236"/>
     <use style="fill:#0000ff;stroke:#0000ff;" x="403.412836" xlink:href="#m2ec0ba8832" y="268.032033"/>
     <use style="fill:#0000ff;stroke:#0000ff;" x="388.233926" xlink:href="#m2ec0ba8832" y="266.661914"/>
     <use style="fill:#0000ff;stroke:#0000ff;" x="373.024955" xlink:href="#m2ec0ba8832" y="265.429493"/>
     <use style="fill:#0000ff;stroke:#0000ff;" x="357.794451" xlink:href="#m2ec0ba8832" y="264.342865"/>
     <use style="fill:#0000ff;stroke:#0000ff;" x="342.554798" xlink:href="#m2ec0ba8832" y="263.413277"/>
     <use style="fill:#0000ff;stroke:#0000ff;" x="327.328677" xlink:href="#m2ec0ba8832" y="262.651501"/>
     <use style="fill:#0000ff;stroke:#0000ff;" x="312.122936" xlink:href="#m2ec0ba8832" y="262.079097"/>
     <use style="fill:#0000ff;stroke:#0000ff;" x="296.942278" xlink:href="#m2ec0ba8832" y="261.751426"/>
     <use style="fill:#0000ff;stroke:#0000ff;" x="281.803758" xlink:href="#m2ec0ba8832" y="261.694142"/>
     <use style="fill:#0000ff;stroke:#0000ff;" x="266.724012" xlink:href="#m2ec0ba8832" y="261.921904"/>
     <use style="fill:#0000ff;stroke:#0000ff;" x="251.720267" xlink:href="#m2ec0ba8832" y="262.453608"/>
     <use style="fill:#0000ff;stroke:#0000ff;" x="236.818428" xlink:href="#m2ec0ba8832" y="263.310488"/>
     <use style="fill:#0000ff;stroke:#0000ff;" x="222.063357" xlink:href="#m2ec0ba8832" y="264.515627"/>
     <use style="fill:#0000ff;stroke:#0000ff;" x="207.504214" xlink:href="#m2ec0ba8832" y="266.094477"/>
     <use style="fill:#0000ff;stroke:#0000ff;" x="193.213549" xlink:href="#m2ec0ba8832" y="268.07545"/>
     <use style="fill:#0000ff;stroke:#0000ff;" x="179.299867" xlink:href="#m2ec0ba8832" y="270.487559"/>
     <use style="fill:#0000ff;stroke:#0000ff;" x="165.919887" xlink:href="#m2ec0ba8832" y="273.35835"/>
     <use style="fill:#0000ff;stroke:#0000ff;" x="153.295568" xlink:href="#m2ec0ba8832" y="276.707463"/>
     <use style="fill:#0000ff;stroke:#0000ff;" x="141.806537" xlink:href="#m2ec0ba8832" y="280.515646"/>
     <use style="fill:#0000ff;stroke:#0000ff;" x="131.999439" xlink:href="#m2ec0ba8832" y="284.671218"/>
     <use style="fill:#0000ff;stroke:#0000ff;" x="124.488769" xlink:href="#m2ec0ba8832" y="288.90456"/>
     <use style="fill:#0000ff;stroke:#0000ff;" x="119.570127" xlink:href="#m2ec0ba8832" y="292.820014"/>
     <use style="fill:#0000ff;stroke:#0000ff;" x="116.914963" xlink:href="#m2ec0ba8832" y="296.069785"/>
     <use style="fill:#0000ff;stroke:#0000ff;" x="115.363637" xlink:href="#m2ec0ba8832" y="301.09637"/>
     <use style="fill:#0000ff;stroke:#0000ff;" x="115.400214" xlink:href="#m2ec0ba8832" y="301.851635"/>
     <use style="fill:#0000ff;stroke:#0000ff;" x="115.668356" xlink:href="#m2ec0ba8832" y="303.242416"/>
     <use style="fill:#0000ff;stroke:#0000ff;" x="116.212726" xlink:href="#m2ec0ba8832" y="304.658701"/>
     <use style="fill:#0000ff;stroke:#0000ff;" x="117.255189" xlink:href="#m2ec0ba8832" y="306.337583"/>
     <use style="fill:#0000ff;stroke:#0000ff;" x="119.5183" xlink:href="#m2ec0ba8832" y="308.640992"/>
     <use style="fill:#0000ff;stroke:#0000ff;" x="124.237821" xlink:href="#m2ec0ba8832" y="311.648635"/>
     <use style="fill:#0000ff;stroke:#0000ff;" x="132.67079" xlink:href="#m2ec0ba8832" y="314.971144"/>
     <use style="fill:#0000ff;stroke:#0000ff;" x="144.552997" xlink:href="#m2ec0ba8832" y="317.894749"/>
     <use style="fill:#0000ff;stroke:#0000ff;" x="158.525218" xlink:href="#m2ec0ba8832" y="320.08755"/>
     <use style="fill:#0000ff;stroke:#0000ff;" x="173.499601" xlink:href="#m2ec0ba8832" y="321.591083"/>
     <use style="fill:#0000ff;stroke:#0000ff;" x="188.947297" xlink:href="#m2ec0ba8832" y="322.552287"/>
     <use style="fill:#0000ff;stroke:#0000ff;" x="204.631224" xlink:href="#m2ec0ba8832" y="323.100281"/>
     <use style="fill:#0000ff;stroke:#0000ff;" x="220.45244" xlink:href="#m2ec0ba8832" y="323.332861"/>
     <use style="fill:#0000ff;stroke:#0000ff;" x="236.366528" xlink:href="#m2ec0ba8832" y="323.321905"/>
     <use style="fill:#0000ff;stroke:#0000ff;" x="252.349577" xlink:href="#m2ec0ba8832" y="323.12319"/>
     <use style="fill:#0000ff;stroke:#0000ff;" x="268.387903" xlink:href="#m2ec0ba8832" y="322.779746"/>
     <use style="fill:#0000ff;stroke:#0000ff;" x="284.47453" xlink:href="#m2ec0ba8832" y="322.327386"/>
     <use style="fill:#0000ff;stroke:#0000ff;" x="300.590917" xlink:href="#m2ec0ba8832" y="321.794572"/>
     <use style="fill:#0000ff;stroke:#0000ff;" x="316.686805" xlink:href="#m2ec0ba8832" y="321.20979"/>
     <use style="fill:#0000ff;stroke:#0000ff;" x="332.756148" xlink:href="#m2ec0ba8832" y="320.567956"/>
     <use style="fill:#0000ff;stroke:#0000ff;" x="348.803583" xlink:href="#m2ec0ba8832" y="319.842643"/>
     <use style="fill:#0000ff;stroke:#0000ff;" x="364.831313" xlink:href="#m2ec0ba8832" y="319.0487"/>
     <use style="fill:#0000ff;stroke:#0000ff;" x="380.839477" xlink:href="#m2ec0ba8832" y="318.197469"/>
     <use style="fill:#0000ff;stroke:#0000ff;" x="396.826795" xlink:href="#m2ec0ba8832" y="317.300281"/>
     <use style="fill:#0000ff;stroke:#0000ff;" x="412.793151" xlink:href="#m2ec0ba8832" y="316.366751"/>
     <use style="fill:#0000ff;stroke:#0000ff;" x="428.733714" xlink:href="#m2ec0ba8832" y="315.404369"/>
     <use style="fill:#0000ff;stroke:#0000ff;" x="444.645199" xlink:href="#m2ec0ba8832" y="314.420197"/>
     <use style="fill:#0000ff;stroke:#0000ff;" x="460.52537" xlink:href="#m2ec0ba8832" y="313.418621"/>
     <use style="fill:#0000ff;stroke:#0000ff;" x="476.375053" xlink:href="#m2ec0ba8832" y="312.403894"/>
     <use style="fill:#0000ff;stroke:#0000ff;" x="492.197382" xlink:href="#m2ec0ba8832" y="311.379038"/>
     <use style="fill:#0000ff;stroke:#0000ff;" x="507.9969" xlink:href="#m2ec0ba8832" y="310.345315"/>
     <use style="fill:#0000ff;stroke:#0000ff;" x="523.769204" xlink:href="#m2ec0ba8832" y="309.304054"/>
     <use style="fill:#0000ff;stroke:#0000ff;" x="539.503284" xlink:href="#m2ec0ba8832" y="308.25567"/>
     <use style="fill:#0000ff;stroke:#0000ff;" x="555.204668" xlink:href="#m2ec0ba8832" y="307.19916"/>
     <use style="fill:#0000ff;stroke:#0000ff;" x="570.954436" xlink:href="#m2ec0ba8832" y="306.127623"/>
     <use style="fill:#0000ff;stroke:#0000ff;" x="586.724299" xlink:href="#m2ec0ba8832" y="305.04044"/>
     <use style="fill:#0000ff;stroke:#0000ff;" x="600.363796" xlink:href="#m2ec0ba8832" y="304.08566"/>
     <use style="fill:#0000ff;stroke:#0000ff;" x="609.979224" xlink:href="#m2ec0ba8832" y="303.403665"/>
     <use style="fill:#0000ff;stroke:#0000ff;" x="616.922836" xlink:href="#m2ec0ba8832" y="302.905757"/>
     <use style="fill:#0000ff;stroke:#0000ff;" x="622.551155" xlink:href="#m2ec0ba8832" y="302.498136"/>
    </g>
   </g>
   <g id="line2d_22">
    <defs>
     <path d="M 0 3 
C 0.795609 3 1.55874 2.683901 2.12132 2.12132 
C 2.683901 1.55874 3 0.795609 3 0 
C 3 -0.795609 2.683901 -1.55874 2.12132 -2.12132 
C 1.55874 -2.683901 0.795609 -3 0 -3 
C -0.795609 -3 -1.55874 -2.683901 -2.12132 -2.12132 
C -2.683901 -1.55874 -3 -0.795609 -3 0 
C -3 0.795609 -2.683901 1.55874 -2.12132 2.12132 
C -1.55874 2.683901 -0.795609 3 0 3 
z
" id="m2a51e4a106" style="stroke:#00bfbf;"/>
    </defs>
    <g clip-path="url(#pbe345ef941)">
     <use style="fill:#00bfbf;stroke:#00bfbf;" x="622.62763" xlink:href="#m2a51e4a106" y="301.249124"/>
     <use style="fill:#00bfbf;stroke:#00bfbf;" x="617.150182" xlink:href="#m2a51e4a106" y="300.136129"/>
     <use style="fill:#00bfbf;stroke:#00bfbf;" x="610.399568" xlink:href="#m2a51e4a106" y="298.785513"/>
     <use style="fill:#00bfbf;stroke:#00bfbf;" x="601.098498" xlink:href="#m2a51e4a106" y="296.953723"/>
     <use style="fill:#00bfbf;stroke:#00bfbf;" x="587.99136" xlink:href="#m2a51e4a106" y="294.426916"/>
     <use style="fill:#00bfbf;stroke:#00bfbf;" x="572.779311" xlink:href="#m2a51e4a106" y="291.571541"/>
     <use style="fill:#00bfbf;stroke:#00bfbf;" x="557.090646" xlink:href="#m2a51e4a106" y="288.720026"/>
     <use style="fill:#00bfbf;stroke:#00bfbf;" x="541.394146" xlink:href="#m2a51e4a106" y="285.968283"/>
     <use style="fill:#00bfbf;stroke:#00bfbf;" x="525.770071" xlink:href="#m2a51e4a106" y="283.336752"/>
     <use style="fill:#00bfbf;stroke:#00bfbf;" x="510.227847" xlink:href="#m2a51e4a106" y="280.831373"/>
     <use style="fill:#00bfbf;stroke:#00bfbf;" x="494.769424" xlink:href="#m2a51e4a106" y="278.454634"/>
     <use style="fill:#00bfbf;stroke:#00bfbf;" x="479.399924" xlink:href="#m2a51e4a106" y="276.214408"/>
     <use style="fill:#00bfbf;stroke:#00bfbf;" x="464.125728" xlink:href="#m2a51e4a106" y="274.116611"/>
     <use style="fill:#00bfbf;stroke:#00bfbf;" x="448.93465" xlink:href="#m2a51e4a106" y="272.160914"/>
     <use style="fill:#00bfbf;stroke:#00bfbf;" x="433.797254" xlink:href="#m2a51e4a106" y="270.347619"/>
     <use style="fill:#00bfbf;stroke:#00bfbf;" x="418.667735" xlink:href="#m2a51e4a106" y="268.67703"/>
     <use style="fill:#00bfbf;stroke:#00bfbf;" x="403.521375" xlink:href="#m2a51e4a106" y="267.149929"/>
     <use style="fill:#00bfbf;stroke:#00bfbf;" x="388.341888" xlink:href="#m2a51e4a106" y="265.766884"/>
     <use style="fill:#00bfbf;stroke:#00bfbf;" x="373.130997" xlink:href="#m2a51e4a106" y="264.536309"/>
     <use style="fill:#00bfbf;stroke:#00bfbf;" x="357.897555" xlink:href="#m2a51e4a106" y="263.466797"/>
     <use style="fill:#00bfbf;stroke:#00bfbf;" x="342.654308" xlink:href="#m2a51e4a106" y="262.569985"/>
     <use style="fill:#00bfbf;stroke:#00bfbf;" x="327.424372" xlink:href="#m2a51e4a106" y="261.857341"/>
     <use style="fill:#00bfbf;stroke:#00bfbf;" x="312.215142" xlink:href="#m2a51e4a106" y="261.349134"/>
     <use style="fill:#00bfbf;stroke:#00bfbf;" x="297.032034" xlink:href="#m2a51e4a106" y="261.092191"/>
     <use style="fill:#00bfbf;stroke:#00bfbf;" x="281.892436" xlink:href="#m2a51e4a106" y="261.110077"/>
     <use style="fill:#00bfbf;stroke:#00bfbf;" x="266.813207" xlink:href="#m2a51e4a106" y="261.417259"/>
     <use style="fill:#00bfbf;stroke:#00bfbf;" x="251.811789" xlink:href="#m2a51e4a106" y="262.031278"/>
     <use style="fill:#00bfbf;stroke:#00bfbf;" x="236.914273" xlink:href="#m2a51e4a106" y="262.972366"/>
     <use style="fill:#00bfbf;stroke:#00bfbf;" x="222.1657" xlink:href="#m2a51e4a106" y="264.262724"/>
     <use style="fill:#00bfbf;stroke:#00bfbf;" x="207.615438" xlink:href="#m2a51e4a106" y="265.927288"/>
     <use style="fill:#00bfbf;stroke:#00bfbf;" x="193.336327" xlink:href="#m2a51e4a106" y="267.994223"/>
     <use style="fill:#00bfbf;stroke:#00bfbf;" x="179.437216" xlink:href="#m2a51e4a106" y="270.492108"/>
     <use style="fill:#00bfbf;stroke:#00bfbf;" x="166.075116" xlink:href="#m2a51e4a106" y="273.447412"/>
     <use style="fill:#00bfbf;stroke:#00bfbf;" x="153.471925" xlink:href="#m2a51e4a106" y="276.877124"/>
     <use style="fill:#00bfbf;stroke:#00bfbf;" x="142.004977" xlink:href="#m2a51e4a106" y="280.753469"/>
     <use style="fill:#00bfbf;stroke:#00bfbf;" x="132.214722" xlink:href="#m2a51e4a106" y="284.951312"/>
     <use style="fill:#00bfbf;stroke:#00bfbf;" x="124.703557" xlink:href="#m2a51e4a106" y="289.186367"/>
     <use style="fill:#00bfbf;stroke:#00bfbf;" x="119.754319" xlink:href="#m2a51e4a106" y="293.063532"/>
     <use style="fill:#00bfbf;stroke:#00bfbf;" x="117.037999" xlink:href="#m2a51e4a106" y="296.25718"/>
     <use style="fill:#00bfbf;stroke:#00bfbf;" x="115.371131" xlink:href="#m2a51e4a106" y="301.249215"/>
     <use style="fill:#00bfbf;stroke:#00bfbf;" x="115.412656" xlink:href="#m2a51e4a106" y="302.002095"/>
     <use style="fill:#00bfbf;stroke:#00bfbf;" x="115.716943" xlink:href="#m2a51e4a106" y="303.379445"/>
     <use style="fill:#00bfbf;stroke:#00bfbf;" x="116.334368" xlink:href="#m2a51e4a106" y="304.749342"/>
     <use style="fill:#00bfbf;stroke:#00bfbf;" x="117.495803" xlink:href="#m2a51e4a106" y="306.305326"/>
     <use style="fill:#00bfbf;stroke:#00bfbf;" x="119.909151" xlink:href="#m2a51e4a106" y="308.358923"/>
     <use style="fill:#00bfbf;stroke:#00bfbf;" x="124.774238" xlink:href="#m2a51e4a106" y="310.978748"/>
     <use style="fill:#00bfbf;stroke:#00bfbf;" x="133.309674" xlink:href="#m2a51e4a106" y="313.820228"/>
     <use style="fill:#00bfbf;stroke:#00bfbf;" x="145.239942" xlink:href="#m2a51e4a106" y="316.274548"/>
     <use style="fill:#00bfbf;stroke:#00bfbf;" x="159.222434" xlink:href="#m2a51e4a106" y="318.072124"/>
     <use style="fill:#00bfbf;stroke:#00bfbf;" x="174.186546" xlink:href="#m2a51e4a106" y="319.261094"/>
     <use style="fill:#00bfbf;stroke:#00bfbf;" x="189.613665" xlink:href="#m2a51e4a106" y="319.976437"/>
     <use style="fill:#00bfbf;stroke:#00bfbf;" x="205.271946" xlink:href="#m2a51e4a106" y="320.332474"/>
     <use style="fill:#00bfbf;stroke:#00bfbf;" x="221.065084" xlink:href="#m2a51e4a106" y="320.414533"/>
     <use style="fill:#00bfbf;stroke:#00bfbf;" x="236.950048" xlink:href="#m2a51e4a106" y="320.28603"/>
     <use style="fill:#00bfbf;stroke:#00bfbf;" x="252.903672" xlink:href="#m2a51e4a106" y="319.996253"/>
     <use style="fill:#00bfbf;stroke:#00bfbf;" x="268.912655" xlink:href="#m2a51e4a106" y="319.583166"/>
     <use style="fill:#00bfbf;stroke:#00bfbf;" x="284.970221" xlink:href="#m2a51e4a106" y="319.078889"/>
     <use style="fill:#00bfbf;stroke:#00bfbf;" x="301.057985" xlink:href="#m2a51e4a106" y="318.510127"/>
     <use style="fill:#00bfbf;stroke:#00bfbf;" x="317.125708" xlink:href="#m2a51e4a106" y="317.901424"/>
     <use style="fill:#00bfbf;stroke:#00bfbf;" x="333.167519" xlink:href="#m2a51e4a106" y="317.250537"/>
     <use style="fill:#00bfbf;stroke:#00bfbf;" x="349.188364" xlink:href="#m2a51e4a106" y="316.537737"/>
     <use style="fill:#00bfbf;stroke:#00bfbf;" x="365.190413" xlink:href="#m2a51e4a106" y="315.775612"/>
     <use style="fill:#00bfbf;stroke:#00bfbf;" x="381.173776" xlink:href="#m2a51e4a106" y="314.974362"/>
     <use style="fill:#00bfbf;stroke:#00bfbf;" x="397.137114" xlink:href="#m2a51e4a106" y="314.144157"/>
     <use style="fill:#00bfbf;stroke:#00bfbf;" x="413.080244" xlink:href="#m2a51e4a106" y="313.293703"/>
     <use style="fill:#00bfbf;stroke:#00bfbf;" x="428.998287" xlink:href="#m2a51e4a106" y="312.430322"/>
     <use style="fill:#00bfbf;stroke:#00bfbf;" x="444.887904" xlink:href="#m2a51e4a106" y="311.561478"/>
     <use style="fill:#00bfbf;stroke:#00bfbf;" x="460.746809" xlink:href="#m2a51e4a106" y="310.692416"/>
     <use style="fill:#00bfbf;stroke:#00bfbf;" x="476.575756" xlink:href="#m2a51e4a106" y="309.828658"/>
     <use style="fill:#00bfbf;stroke:#00bfbf;" x="492.377778" xlink:href="#m2a51e4a106" y="308.974558"/>
     <use style="fill:#00bfbf;stroke:#00bfbf;" x="508.1573" xlink:href="#m2a51e4a106" y="308.132445"/>
     <use style="fill:#00bfbf;stroke:#00bfbf;" x="523.909796" xlink:href="#m2a51e4a106" y="307.304183"/>
     <use style="fill:#00bfbf;stroke:#00bfbf;" x="539.624136" xlink:href="#m2a51e4a106" y="306.49183"/>
     <use style="fill:#00bfbf;stroke:#00bfbf;" x="555.305645" xlink:href="#m2a51e4a106" y="305.698051"/>
     <use style="fill:#00bfbf;stroke:#00bfbf;" x="571.035021" xlink:href="#m2a51e4a106" y="304.921445"/>
     <use style="fill:#00bfbf;stroke:#00bfbf;" x="586.783749" xlink:href="#m2a51e4a106" y="304.162246"/>
     <use style="fill:#00bfbf;stroke:#00bfbf;" x="600.404283" xlink:href="#m2a51e4a106" y="303.516415"/>
     <use style="fill:#00bfbf;stroke:#00bfbf;" x="610.005891" xlink:href="#m2a51e4a106" y="303.066303"/>
     <use style="fill:#00bfbf;stroke:#00bfbf;" x="616.939411" xlink:href="#m2a51e4a106" y="302.740596"/>
     <use style="fill:#00bfbf;stroke:#00bfbf;" x="622.559676" xlink:href="#m2a51e4a106" y="302.472066"/>
    </g>
   </g>
   <g id="patch_3">
    <path d="M 90 512.64 
L 90 69.12 
" style="fill:none;stroke:#000000;stroke-linecap:square;stroke-linejoin:miter;stroke-width:0.8;"/>
   </g>
   <g id="patch_4">
    <path d="M 648 512.64 
L 648 69.12 
" style="fill:none;stroke:#000000;stroke-linecap:square;stroke-linejoin:miter;stroke-width:0.8;"/>
   </g>
   <g id="patch_5">
    <path d="M 90 512.64 
L 648 512.64 
" style="fill:none;stroke:#000000;stroke-linecap:square;stroke-linejoin:miter;stroke-width:0.8;"/>
   </g>
   <g id="patch_6">
    <path d="M 90 69.12 
L 648 69.12 
" style="fill:none;stroke:#000000;stroke-linecap:square;stroke-linejoin:miter;stroke-width:0.8;"/>
   </g>
   <g id="text_16">
    <!-- Example of 3.9.3 (XFLR Method) -->
    <g transform="translate(272.0325 63.12)scale(0.12 -0.12)">
     <defs>
      <path d="M 9.8125 72.90625 
L 55.90625 72.90625 
L 55.90625 64.59375 
L 19.671875 64.59375 
L 19.671875 43.015625 
L 54.390625 43.015625 
L 54.390625 34.71875 
L 19.671875 34.71875 
L 19.671875 8.296875 
L 56.78125 8.296875 
L 56.78125 0 
L 9.8125 0 
z
" id="DejaVuSans-69"/>
      <path d="M 54.890625 54.6875 
L 35.109375 28.078125 
L 55.90625 0 
L 45.3125 0 
L 29.390625 21.484375 
L 13.484375 0 
L 2.875 0 
L 24.125 28.609375 
L 4.6875 54.6875 
L 15.28125 54.6875 
L 29.78125 35.203125 
L 44.28125 54.6875 
z
" id="DejaVuSans-120"/>
      <path d="M 34.28125 27.484375 
Q 23.390625 27.484375 19.1875 25 
Q 14.984375 22.515625 14.984375 16.5 
Q 14.984375 11.71875 18.140625 8.90625 
Q 21.296875 6.109375 26.703125 6.109375 
Q 34.1875 6.109375 38.703125 11.40625 
Q 43.21875 16.703125 43.21875 25.484375 
L 43.21875 27.484375 
z
M 52.203125 31.203125 
L 52.203125 0 
L 43.21875 0 
L 43.21875 8.296875 
Q 40.140625 3.328125 35.546875 0.953125 
Q 30.953125 -1.421875 24.3125 -1.421875 
Q 15.921875 -1.421875 10.953125 3.296875 
Q 6 8.015625 6 15.921875 
Q 6 25.140625 12.171875 29.828125 
Q 18.359375 34.515625 30.609375 34.515625 
L 43.21875 34.515625 
L 43.21875 35.40625 
Q 43.21875 41.609375 39.140625 45 
Q 35.0625 48.390625 27.6875 48.390625 
Q 23 48.390625 18.546875 47.265625 
Q 14.109375 46.140625 10.015625 43.890625 
L 10.015625 52.203125 
Q 14.9375 54.109375 19.578125 55.046875 
Q 24.21875 56 28.609375 56 
Q 40.484375 56 46.34375 49.84375 
Q 52.203125 43.703125 52.203125 31.203125 
z
" id="DejaVuSans-97"/>
      <path d="M 52 44.1875 
Q 55.375 50.25 60.0625 53.125 
Q 64.75 56 71.09375 56 
Q 79.640625 56 84.28125 50.015625 
Q 88.921875 44.046875 88.921875 33.015625 
L 88.921875 0 
L 79.890625 0 
L 79.890625 32.71875 
Q 79.890625 40.578125 77.09375 44.375 
Q 74.3125 48.1875 68.609375 48.1875 
Q 61.625 48.1875 57.5625 43.546875 
Q 53.515625 38.921875 53.515625 30.90625 
L 53.515625 0 
L 44.484375 0 
L 44.484375 32.71875 
Q 44.484375 40.625 41.703125 44.40625 
Q 38.921875 48.1875 33.109375 48.1875 
Q 26.21875 48.1875 22.15625 43.53125 
Q 18.109375 38.875 18.109375 30.90625 
L 18.109375 0 
L 9.078125 0 
L 9.078125 54.6875 
L 18.109375 54.6875 
L 18.109375 46.1875 
Q 21.1875 51.21875 25.484375 53.609375 
Q 29.78125 56 35.6875 56 
Q 41.65625 56 45.828125 52.96875 
Q 50 49.953125 52 44.1875 
z
" id="DejaVuSans-109"/>
      <path d="M 18.109375 8.203125 
L 18.109375 -20.796875 
L 9.078125 -20.796875 
L 9.078125 54.6875 
L 18.109375 54.6875 
L 18.109375 46.390625 
Q 20.953125 51.265625 25.265625 53.625 
Q 29.59375 56 35.59375 56 
Q 45.5625 56 51.78125 48.09375 
Q 58.015625 40.1875 58.015625 27.296875 
Q 58.015625 14.40625 51.78125 6.484375 
Q 45.5625 -1.421875 35.59375 -1.421875 
Q 29.59375 -1.421875 25.265625 0.953125 
Q 20.953125 3.328125 18.109375 8.203125 
z
M 48.6875 27.296875 
Q 48.6875 37.203125 44.609375 42.84375 
Q 40.53125 48.484375 33.40625 48.484375 
Q 26.265625 48.484375 22.1875 42.84375 
Q 18.109375 37.203125 18.109375 27.296875 
Q 18.109375 17.390625 22.1875 11.75 
Q 26.265625 6.109375 33.40625 6.109375 
Q 40.53125 6.109375 44.609375 11.75 
Q 48.6875 17.390625 48.6875 27.296875 
z
" id="DejaVuSans-112"/>
      <path d="M 9.421875 75.984375 
L 18.40625 75.984375 
L 18.40625 0 
L 9.421875 0 
z
" id="DejaVuSans-108"/>
      <path d="M 56.203125 29.59375 
L 56.203125 25.203125 
L 14.890625 25.203125 
Q 15.484375 15.921875 20.484375 11.0625 
Q 25.484375 6.203125 34.421875 6.203125 
Q 39.59375 6.203125 44.453125 7.46875 
Q 49.3125 8.734375 54.109375 11.28125 
L 54.109375 2.78125 
Q 49.265625 0.734375 44.1875 -0.34375 
Q 39.109375 -1.421875 33.890625 -1.421875 
Q 20.796875 -1.421875 13.15625 6.1875 
Q 5.515625 13.8125 5.515625 26.8125 
Q 5.515625 40.234375 12.765625 48.109375 
Q 20.015625 56 32.328125 56 
Q 43.359375 56 49.78125 48.890625 
Q 56.203125 41.796875 56.203125 29.59375 
z
M 47.21875 32.234375 
Q 47.125 39.59375 43.09375 43.984375 
Q 39.0625 48.390625 32.421875 48.390625 
Q 24.90625 48.390625 20.390625 44.140625 
Q 15.875 39.890625 15.1875 32.171875 
z
" id="DejaVuSans-101"/>
      <path id="DejaVuSans-32"/>
      <path d="M 30.609375 48.390625 
Q 23.390625 48.390625 19.1875 42.75 
Q 14.984375 37.109375 14.984375 27.296875 
Q 14.984375 17.484375 19.15625 11.84375 
Q 23.34375 6.203125 30.609375 6.203125 
Q 37.796875 6.203125 41.984375 11.859375 
Q 46.1875 17.53125 46.1875 27.296875 
Q 46.1875 37.015625 41.984375 42.703125 
Q 37.796875 48.390625 30.609375 48.390625 
z
M 30.609375 56 
Q 42.328125 56 49.015625 48.375 
Q 55.71875 40.765625 55.71875 27.296875 
Q 55.71875 13.875 49.015625 6.21875 
Q 42.328125 -1.421875 30.609375 -1.421875 
Q 18.84375 -1.421875 12.171875 6.21875 
Q 5.515625 13.875 5.515625 27.296875 
Q 5.515625 40.765625 12.171875 48.375 
Q 18.84375 56 30.609375 56 
z
" id="DejaVuSans-111"/>
      <path d="M 37.109375 75.984375 
L 37.109375 68.5 
L 28.515625 68.5 
Q 23.6875 68.5 21.796875 66.546875 
Q 19.921875 64.59375 19.921875 59.515625 
L 19.921875 54.6875 
L 34.71875 54.6875 
L 34.71875 47.703125 
L 19.921875 47.703125 
L 19.921875 0 
L 10.890625 0 
L 10.890625 47.703125 
L 2.296875 47.703125 
L 2.296875 54.6875 
L 10.890625 54.6875 
L 10.890625 58.5 
Q 10.890625 67.625 15.140625 71.796875 
Q 19.390625 75.984375 28.609375 75.984375 
z
" id="DejaVuSans-102"/>
      <path d="M 10.984375 1.515625 
L 10.984375 10.5 
Q 14.703125 8.734375 18.5 7.8125 
Q 22.3125 6.890625 25.984375 6.890625 
Q 35.75 6.890625 40.890625 13.453125 
Q 46.046875 20.015625 46.78125 33.40625 
Q 43.953125 29.203125 39.59375 26.953125 
Q 35.25 24.703125 29.984375 24.703125 
Q 19.046875 24.703125 12.671875 31.3125 
Q 6.296875 37.9375 6.296875 49.421875 
Q 6.296875 60.640625 12.9375 67.421875 
Q 19.578125 74.21875 30.609375 74.21875 
Q 43.265625 74.21875 49.921875 64.515625 
Q 56.59375 54.828125 56.59375 36.375 
Q 56.59375 19.140625 48.40625 8.859375 
Q 40.234375 -1.421875 26.421875 -1.421875 
Q 22.703125 -1.421875 18.890625 -0.6875 
Q 15.09375 0.046875 10.984375 1.515625 
z
M 30.609375 32.421875 
Q 37.25 32.421875 41.125 36.953125 
Q 45.015625 41.5 45.015625 49.421875 
Q 45.015625 57.28125 41.125 61.84375 
Q 37.25 66.40625 30.609375 66.40625 
Q 23.96875 66.40625 20.09375 61.84375 
Q 16.21875 57.28125 16.21875 49.421875 
Q 16.21875 41.5 20.09375 36.953125 
Q 23.96875 32.421875 30.609375 32.421875 
z
" id="DejaVuSans-57"/>
      <path d="M 31 75.875 
Q 24.46875 64.65625 21.28125 53.65625 
Q 18.109375 42.671875 18.109375 31.390625 
Q 18.109375 20.125 21.3125 9.0625 
Q 24.515625 -2 31 -13.1875 
L 23.1875 -13.1875 
Q 15.875 -1.703125 12.234375 9.375 
Q 8.59375 20.453125 8.59375 31.390625 
Q 8.59375 42.28125 12.203125 53.3125 
Q 15.828125 64.359375 23.1875 75.875 
z
" id="DejaVuSans-40"/>
      <path d="M 6.296875 72.90625 
L 16.890625 72.90625 
L 35.015625 45.796875 
L 53.21875 72.90625 
L 63.8125 72.90625 
L 40.375 37.890625 
L 65.375 0 
L 54.78125 0 
L 34.28125 31 
L 13.625 0 
L 2.984375 0 
L 29 38.921875 
z
" id="DejaVuSans-88"/>
      <path d="M 9.8125 72.90625 
L 51.703125 72.90625 
L 51.703125 64.59375 
L 19.671875 64.59375 
L 19.671875 43.109375 
L 48.578125 43.109375 
L 48.578125 34.8125 
L 19.671875 34.8125 
L 19.671875 0 
L 9.8125 0 
z
" id="DejaVuSans-70"/>
      <path d="M 9.8125 72.90625 
L 19.671875 72.90625 
L 19.671875 8.296875 
L 55.171875 8.296875 
L 55.171875 0 
L 9.8125 0 
z
" id="DejaVuSans-76"/>
      <path d="M 44.390625 34.1875 
Q 47.5625 33.109375 50.5625 29.59375 
Q 53.5625 26.078125 56.59375 19.921875 
L 66.609375 0 
L 56 0 
L 46.6875 18.703125 
Q 43.0625 26.03125 39.671875 28.421875 
Q 36.28125 30.8125 30.421875 30.8125 
L 19.671875 30.8125 
L 19.671875 0 
L 9.8125 0 
L 9.8125 72.90625 
L 32.078125 72.90625 
Q 44.578125 72.90625 50.734375 67.671875 
Q 56.890625 62.453125 56.890625 51.90625 
Q 56.890625 45.015625 53.6875 40.46875 
Q 50.484375 35.9375 44.390625 34.1875 
z
M 19.671875 64.796875 
L 19.671875 38.921875 
L 32.078125 38.921875 
Q 39.203125 38.921875 42.84375 42.21875 
Q 46.484375 45.515625 46.484375 51.90625 
Q 46.484375 58.296875 42.84375 61.546875 
Q 39.203125 64.796875 32.078125 64.796875 
z
" id="DejaVuSans-82"/>
      <path d="M 9.8125 72.90625 
L 24.515625 72.90625 
L 43.109375 23.296875 
L 61.8125 72.90625 
L 76.515625 72.90625 
L 76.515625 0 
L 66.890625 0 
L 66.890625 64.015625 
L 48.09375 14.015625 
L 38.1875 14.015625 
L 19.390625 64.015625 
L 19.390625 0 
L 9.8125 0 
z
" id="DejaVuSans-77"/>
      <path d="M 18.3125 70.21875 
L 18.3125 54.6875 
L 36.8125 54.6875 
L 36.8125 47.703125 
L 18.3125 47.703125 
L 18.3125 18.015625 
Q 18.3125 11.328125 20.140625 9.421875 
Q 21.96875 7.515625 27.59375 7.515625 
L 36.8125 7.515625 
L 36.8125 0 
L 27.59375 0 
Q 17.1875 0 13.234375 3.875 
Q 9.28125 7.765625 9.28125 18.015625 
L 9.28125 47.703125 
L 2.6875 47.703125 
L 2.6875 54.6875 
L 9.28125 54.6875 
L 9.28125 70.21875 
z
" id="DejaVuSans-116"/>
      <path d="M 54.890625 33.015625 
L 54.890625 0 
L 45.90625 0 
L 45.90625 32.71875 
Q 45.90625 40.484375 42.875 44.328125 
Q 39.84375 48.1875 33.796875 48.1875 
Q 26.515625 48.1875 22.3125 43.546875 
Q 18.109375 38.921875 18.109375 30.90625 
L 18.109375 0 
L 9.078125 0 
L 9.078125 75.984375 
L 18.109375 75.984375 
L 18.109375 46.1875 
Q 21.34375 51.125 25.703125 53.5625 
Q 30.078125 56 35.796875 56 
Q 45.21875 56 50.046875 50.171875 
Q 54.890625 44.34375 54.890625 33.015625 
z
" id="DejaVuSans-104"/>
      <path d="M 45.40625 46.390625 
L 45.40625 75.984375 
L 54.390625 75.984375 
L 54.390625 0 
L 45.40625 0 
L 45.40625 8.203125 
Q 42.578125 3.328125 38.25 0.953125 
Q 33.9375 -1.421875 27.875 -1.421875 
Q 17.96875 -1.421875 11.734375 6.484375 
Q 5.515625 14.40625 5.515625 27.296875 
Q 5.515625 40.1875 11.734375 48.09375 
Q 17.96875 56 27.875 56 
Q 33.9375 56 38.25 53.625 
Q 42.578125 51.265625 45.40625 46.390625 
z
M 14.796875 27.296875 
Q 14.796875 17.390625 18.875 11.75 
Q 22.953125 6.109375 30.078125 6.109375 
Q 37.203125 6.109375 41.296875 11.75 
Q 45.40625 17.390625 45.40625 27.296875 
Q 45.40625 37.203125 41.296875 42.84375 
Q 37.203125 48.484375 30.078125 48.484375 
Q 22.953125 48.484375 18.875 42.84375 
Q 14.796875 37.203125 14.796875 27.296875 
z
" id="DejaVuSans-100"/>
      <path d="M 8.015625 75.875 
L 15.828125 75.875 
Q 23.140625 64.359375 26.78125 53.3125 
Q 30.421875 42.28125 30.421875 31.390625 
Q 30.421875 20.453125 26.78125 9.375 
Q 23.140625 -1.703125 15.828125 -13.1875 
L 8.015625 -13.1875 
Q 14.5 -2 17.703125 9.0625 
Q 20.90625 20.125 20.90625 31.390625 
Q 20.90625 42.671875 17.703125 53.65625 
Q 14.5 64.65625 8.015625 75.875 
z
" id="DejaVuSans-41"/>
     </defs>
     <use xlink:href="#DejaVuSans-69"/>
     <use x="63.183594" xlink:href="#DejaVuSans-120"/>
     <use x="122.363281" xlink:href="#DejaVuSans-97"/>
     <use x="183.642578" xlink:href="#DejaVuSans-109"/>
     <use x="281.054688" xlink:href="#DejaVuSans-112"/>
     <use x="344.53125" xlink:href="#DejaVuSans-108"/>
     <use x="372.314453" xlink:href="#DejaVuSans-101"/>
     <use x="433.837891" xlink:href="#DejaVuSans-32"/>
     <use x="465.625" xlink:href="#DejaVuSans-111"/>
     <use x="526.806641" xlink:href="#DejaVuSans-102"/>
     <use x="562.011719" xlink:href="#DejaVuSans-32"/>
     <use x="593.798828" xlink:href="#DejaVuSans-51"/>
     <use x="657.421875" xlink:href="#DejaVuSans-46"/>
     <use x="689.208984" xlink:href="#DejaVuSans-57"/>
     <use x="752.832031" xlink:href="#DejaVuSans-46"/>
     <use x="784.619141" xlink:href="#DejaVuSans-51"/>
     <use x="848.242188" xlink:href="#DejaVuSans-32"/>
     <use x="880.029297" xlink:href="#DejaVuSans-40"/>
     <use x="919.042969" xlink:href="#DejaVuSans-88"/>
     <use x="987.548828" xlink:href="#DejaVuSans-70"/>
     <use x="1045.068359" xlink:href="#DejaVuSans-76"/>
     <use x="1100.78125" xlink:href="#DejaVuSans-82"/>
     <use x="1170.263672" xlink:href="#DejaVuSans-32"/>
     <use x="1202.050781" xlink:href="#DejaVuSans-77"/>
     <use x="1288.330078" xlink:href="#DejaVuSans-101"/>
     <use x="1349.853516" xlink:href="#DejaVuSans-116"/>
     <use x="1389.0625" xlink:href="#DejaVuSans-104"/>
     <use x="1452.441406" xlink:href="#DejaVuSans-111"/>
     <use x="1513.623047" xlink:href="#DejaVuSans-100"/>
     <use x="1577.099609" xlink:href="#DejaVuSans-41"/>
    </g>
   </g>
   <g id="legend_1">
    <g id="patch_7">
     <path d="M 502.620313 135.8325 
L 641 135.8325 
Q 643 135.8325 643 133.8325 
L 643 76.12 
Q 643 74.12 641 74.12 
L 502.620313 74.12 
Q 500.620313 74.12 500.620313 76.12 
L 500.620313 133.8325 
Q 500.620313 135.8325 502.620313 135.8325 
z
" style="fill:#ffffff;opacity:0.8;stroke:#cccccc;stroke-linejoin:miter;"/>
    </g>
    <g id="line2d_23">
     <path d="M 504.620313 82.218437 
L 524.620312 82.218437 
" style="fill:none;stroke:#008000;stroke-dasharray:5.55,2.4;stroke-dashoffset:0;stroke-width:1.5;"/>
    </g>
    <g id="line2d_24"/>
    <g id="text_17">
     <!-- DAE51 -->
     <g transform="translate(532.620312 85.718437)scale(0.1 -0.1)">
      <defs>
       <path d="M 19.671875 64.796875 
L 19.671875 8.109375 
L 31.59375 8.109375 
Q 46.6875 8.109375 53.6875 14.9375 
Q 60.6875 21.78125 60.6875 36.53125 
Q 60.6875 51.171875 53.6875 57.984375 
Q 46.6875 64.796875 31.59375 64.796875 
z
M 9.8125 72.90625 
L 30.078125 72.90625 
Q 51.265625 72.90625 61.171875 64.09375 
Q 71.09375 55.28125 71.09375 36.53125 
Q 71.09375 17.671875 61.125 8.828125 
Q 51.171875 0 30.078125 0 
L 9.8125 0 
z
" id="DejaVuSans-68"/>
       <path d="M 34.1875 63.1875 
L 20.796875 26.90625 
L 47.609375 26.90625 
z
M 28.609375 72.90625 
L 39.796875 72.90625 
L 67.578125 0 
L 57.328125 0 
L 50.6875 18.703125 
L 17.828125 18.703125 
L 11.1875 0 
L 0.78125 0 
z
" id="DejaVuSans-65"/>
       <path d="M 10.796875 72.90625 
L 49.515625 72.90625 
L 49.515625 64.59375 
L 19.828125 64.59375 
L 19.828125 46.734375 
Q 21.96875 47.46875 24.109375 47.828125 
Q 26.265625 48.1875 28.421875 48.1875 
Q 40.625 48.1875 47.75 41.5 
Q 54.890625 34.8125 54.890625 23.390625 
Q 54.890625 11.625 47.5625 5.09375 
Q 40.234375 -1.421875 26.90625 -1.421875 
Q 22.3125 -1.421875 17.546875 -0.640625 
Q 12.796875 0.140625 7.71875 1.703125 
L 7.71875 11.625 
Q 12.109375 9.234375 16.796875 8.0625 
Q 21.484375 6.890625 26.703125 6.890625 
Q 35.15625 6.890625 40.078125 11.328125 
Q 45.015625 15.765625 45.015625 23.390625 
Q 45.015625 31 40.078125 35.4375 
Q 35.15625 39.890625 26.703125 39.890625 
Q 22.75 39.890625 18.8125 39.015625 
Q 14.890625 38.140625 10.796875 36.28125 
z
" id="DejaVuSans-53"/>
      </defs>
      <use xlink:href="#DejaVuSans-68"/>
      <use x="75.251953" xlink:href="#DejaVuSans-65"/>
      <use x="143.660156" xlink:href="#DejaVuSans-69"/>
      <use x="206.84375" xlink:href="#DejaVuSans-53"/>
      <use x="270.466797" xlink:href="#DejaVuSans-49"/>
     </g>
    </g>
    <g id="line2d_25">
     <path d="M 504.620313 96.896563 
L 524.620312 96.896563 
" style="fill:none;stroke:#0000ff;stroke-dasharray:5.55,2.4;stroke-dashoffset:0;stroke-width:1.5;"/>
    </g>
    <g id="line2d_26"/>
    <g id="text_18">
     <!-- NACA2412 -->
     <g transform="translate(532.620312 100.396563)scale(0.1 -0.1)">
      <defs>
       <path d="M 9.8125 72.90625 
L 23.09375 72.90625 
L 55.421875 11.921875 
L 55.421875 72.90625 
L 64.984375 72.90625 
L 64.984375 0 
L 51.703125 0 
L 19.390625 60.984375 
L 19.390625 0 
L 9.8125 0 
z
" id="DejaVuSans-78"/>
       <path d="M 64.40625 67.28125 
L 64.40625 56.890625 
Q 59.421875 61.53125 53.78125 63.8125 
Q 48.140625 66.109375 41.796875 66.109375 
Q 29.296875 66.109375 22.65625 58.46875 
Q 16.015625 50.828125 16.015625 36.375 
Q 16.015625 21.96875 22.65625 14.328125 
Q 29.296875 6.6875 41.796875 6.6875 
Q 48.140625 6.6875 53.78125 8.984375 
Q 59.421875 11.28125 64.40625 15.921875 
L 64.40625 5.609375 
Q 59.234375 2.09375 53.4375 0.328125 
Q 47.65625 -1.421875 41.21875 -1.421875 
Q 24.65625 -1.421875 15.125 8.703125 
Q 5.609375 18.84375 5.609375 36.375 
Q 5.609375 53.953125 15.125 64.078125 
Q 24.65625 74.21875 41.21875 74.21875 
Q 47.75 74.21875 53.53125 72.484375 
Q 59.328125 70.75 64.40625 67.28125 
z
" id="DejaVuSans-67"/>
      </defs>
      <use xlink:href="#DejaVuSans-78"/>
      <use x="74.804688" xlink:href="#DejaVuSans-65"/>
      <use x="141.462891" xlink:href="#DejaVuSans-67"/>
      <use x="211.287109" xlink:href="#DejaVuSans-65"/>
      <use x="279.695312" xlink:href="#DejaVuSans-50"/>
      <use x="343.318359" xlink:href="#DejaVuSans-52"/>
      <use x="406.941406" xlink:href="#DejaVuSans-49"/>
      <use x="470.564453" xlink:href="#DejaVuSans-50"/>
     </g>
    </g>
    <g id="line2d_27">
     <path d="M 504.620313 111.574687 
L 524.620312 111.574687 
" style="fill:none;stroke:#00bfbf;stroke-dasharray:5.55,2.4;stroke-dashoffset:0;stroke-width:1.5;"/>
    </g>
    <g id="line2d_28"/>
    <g id="text_19">
     <!-- Mix(by XFLR Method) -->
     <g transform="translate(532.620312 115.074687)scale(0.1 -0.1)">
      <defs>
       <path d="M 9.421875 54.6875 
L 18.40625 54.6875 
L 18.40625 0 
L 9.421875 0 
z
M 9.421875 75.984375 
L 18.40625 75.984375 
L 18.40625 64.59375 
L 9.421875 64.59375 
z
" id="DejaVuSans-105"/>
       <path d="M 48.6875 27.296875 
Q 48.6875 37.203125 44.609375 42.84375 
Q 40.53125 48.484375 33.40625 48.484375 
Q 26.265625 48.484375 22.1875 42.84375 
Q 18.109375 37.203125 18.109375 27.296875 
Q 18.109375 17.390625 22.1875 11.75 
Q 26.265625 6.109375 33.40625 6.109375 
Q 40.53125 6.109375 44.609375 11.75 
Q 48.6875 17.390625 48.6875 27.296875 
z
M 18.109375 46.390625 
Q 20.953125 51.265625 25.265625 53.625 
Q 29.59375 56 35.59375 56 
Q 45.5625 56 51.78125 48.09375 
Q 58.015625 40.1875 58.015625 27.296875 
Q 58.015625 14.40625 51.78125 6.484375 
Q 45.5625 -1.421875 35.59375 -1.421875 
Q 29.59375 -1.421875 25.265625 0.953125 
Q 20.953125 3.328125 18.109375 8.203125 
L 18.109375 0 
L 9.078125 0 
L 9.078125 75.984375 
L 18.109375 75.984375 
z
" id="DejaVuSans-98"/>
       <path d="M 32.171875 -5.078125 
Q 28.375 -14.84375 24.75 -17.8125 
Q 21.140625 -20.796875 15.09375 -20.796875 
L 7.90625 -20.796875 
L 7.90625 -13.28125 
L 13.1875 -13.28125 
Q 16.890625 -13.28125 18.9375 -11.515625 
Q 21 -9.765625 23.484375 -3.21875 
L 25.09375 0.875 
L 2.984375 54.6875 
L 12.5 54.6875 
L 29.59375 11.921875 
L 46.6875 54.6875 
L 56.203125 54.6875 
z
" id="DejaVuSans-121"/>
      </defs>
      <use xlink:href="#DejaVuSans-77"/>
      <use x="86.279297" xlink:href="#DejaVuSans-105"/>
      <use x="114.0625" xlink:href="#DejaVuSans-120"/>
      <use x="173.242188" xlink:href="#DejaVuSans-40"/>
      <use x="212.255859" xlink:href="#DejaVuSans-98"/>
      <use x="275.732422" xlink:href="#DejaVuSans-121"/>
      <use x="334.912109" xlink:href="#DejaVuSans-32"/>
      <use x="366.699219" xlink:href="#DejaVuSans-88"/>
      <use x="435.205078" xlink:href="#DejaVuSans-70"/>
      <use x="492.724609" xlink:href="#DejaVuSans-76"/>
      <use x="548.4375" xlink:href="#DejaVuSans-82"/>
      <use x="617.919922" xlink:href="#DejaVuSans-32"/>
      <use x="649.707031" xlink:href="#DejaVuSans-77"/>
      <use x="735.986328" xlink:href="#DejaVuSans-101"/>
      <use x="797.509766" xlink:href="#DejaVuSans-116"/>
      <use x="836.71875" xlink:href="#DejaVuSans-104"/>
      <use x="900.097656" xlink:href="#DejaVuSans-111"/>
      <use x="961.279297" xlink:href="#DejaVuSans-100"/>
      <use x="1024.755859" xlink:href="#DejaVuSans-41"/>
     </g>
    </g>
    <g id="line2d_29"/>
    <g id="line2d_30">
     <g>
      <use style="fill:#ff0000;stroke:#ff0000;" x="514.620312" xlink:href="#m51790ae863" y="126.252813"/>
     </g>
    </g>
    <g id="text_20">
     <!-- XFLR Mix -->
     <g transform="translate(532.620312 129.752813)scale(0.1 -0.1)">
      <use xlink:href="#DejaVuSans-88"/>
      <use x="68.505859" xlink:href="#DejaVuSans-70"/>
      <use x="126.025391" xlink:href="#DejaVuSans-76"/>
      <use x="181.738281" xlink:href="#DejaVuSans-82"/>
      <use x="251.220703" xlink:href="#DejaVuSans-32"/>
      <use x="283.007812" xlink:href="#DejaVuSans-77"/>
      <use x="369.287109" xlink:href="#DejaVuSans-105"/>
      <use x="397.070312" xlink:href="#DejaVuSans-120"/>
     </g>
    </g>
   </g>
  </g>
 </g>
 <defs>
  <clipPath id="pbe345ef941">
   <rect height="443.52" width="558" x="90" y="69.12"/>
  </clipPath>
 </defs>
</svg>
