<?xml version="1.0" encoding="utf-8" standalone="no"?>
<!DOCTYPE svg PUBLIC "-//W3C//DTD SVG 1.1//EN"
  "http://www.w3.org/Graphics/SVG/1.1/DTD/svg11.dtd">
<!-- Created with matplotlib (https://matplotlib.org/) -->
<svg height="576pt" version="1.1" viewBox="0 0 720 576" width="720pt" xmlns="http://www.w3.org/2000/svg" xmlns:xlink="http://www.w3.org/1999/xlink">
 <metadata>
  <rdf:RDF xmlns:cc="http://creativecommons.org/ns#" xmlns:dc="http://purl.org/dc/elements/1.1/" xmlns:rdf="http://www.w3.org/1999/02/22-rdf-syntax-ns#">
   <cc:Work>
    <dc:type rdf:resource="http://purl.org/dc/dcmitype/StillImage"/>
    <dc:date>2025-09-03T12:47:27.416824</dc:date>
    <dc:format>image/svg+xml</dc:format>
    <dc:creator>
     <cc:Agent>
      <dc:title>Matplotlib v3.3.2, https://matplotlib.org/</dc:title>
     </cc:Agent>
    </dc:creator>
   </cc:Work>
  </rdf:RDF>
 </metadata>
 <defs>
  <style type="text/css">*{stroke-linecap:butt;stroke-linejoin:round;}</style>
 </defs>
 <g id="figure_1">
  <g id="patch_1">
   <path d="M 0 576 
L 720 576 
L 720 0 
L 0 0 
z
" style="fill:#ffffff;"/>
  </g>
  <g id="axes_1">
   <g id="patch_2">
    <path d="M 90 512.64 
L 648 512.64 
L 648 69.12 
L 90 69.12 
z
" style="fill:#ffffff;"/>
   </g>
   <g id="matplotlib.axis_1">
    <g id="xtick_1">
     <g id="line2d_1">
      <defs>
       <path d="M 0 0 
L 0 3.5 
" id="mfae8ea6dbe" style="stroke:#000000;stroke-width:0.8;"/>
      </defs>
      <g>
       <use style="stroke:#000000;stroke-width:0.8;" x="92.063106" xlink:href="#mfae8ea6dbe" y="512.64"/>
      </g>
     </g>
     <g id="text_1">
      <!-- −0.5 -->
      <g transform="translate(79.9217 527.238438)scale(0.1 -0.1)">
       <defs>
        <path d="M 10.59375 35.5 
L 73.1875 35.5 
L 73.1875 27.203125 
L 10.59375 27.203125 
z
" id="DejaVuSans-8722"/>
        <path d="M 31.78125 66.40625 
Q 24.171875 66.40625 20.328125 58.90625 
Q 16.5 51.421875 16.5 36.375 
Q 16.5 21.390625 20.328125 13.890625 
Q 24.171875 6.390625 31.78125 6.390625 
Q 39.453125 6.390625 43.28125 13.890625 
Q 47.125 21.390625 47.125 36.375 
Q 47.125 51.421875 43.28125 58.90625 
Q 39.453125 66.40625 31.78125 66.40625 
z
M 31.78125 74.21875 
Q 44.046875 74.21875 50.515625 64.515625 
Q 56.984375 54.828125 56.984375 36.375 
Q 56.984375 17.96875 50.515625 8.265625 
Q 44.046875 -1.421875 31.78125 -1.421875 
Q 19.53125 -1.421875 13.0625 8.265625 
Q 6.59375 17.96875 6.59375 36.375 
Q 6.59375 54.828125 13.0625 64.515625 
Q 19.53125 74.21875 31.78125 74.21875 
z
" id="DejaVuSans-48"/>
        <path d="M 10.6875 12.40625 
L 21 12.40625 
L 21 0 
L 10.6875 0 
z
" id="DejaVuSans-46"/>
        <path d="M 10.796875 72.90625 
L 49.515625 72.90625 
L 49.515625 64.59375 
L 19.828125 64.59375 
L 19.828125 46.734375 
Q 21.96875 47.46875 24.109375 47.828125 
Q 26.265625 48.1875 28.421875 48.1875 
Q 40.625 48.1875 47.75 41.5 
Q 54.890625 34.8125 54.890625 23.390625 
Q 54.890625 11.625 47.5625 5.09375 
Q 40.234375 -1.421875 26.90625 -1.421875 
Q 22.3125 -1.421875 17.546875 -0.640625 
Q 12.796875 0.140625 7.71875 1.703125 
L 7.71875 11.625 
Q 12.109375 9.234375 16.796875 8.0625 
Q 21.484375 6.890625 26.703125 6.890625 
Q 35.15625 6.890625 40.078125 11.328125 
Q 45.015625 15.765625 45.015625 23.390625 
Q 45.015625 31 40.078125 35.4375 
Q 35.15625 39.890625 26.703125 39.890625 
Q 22.75 39.890625 18.8125 39.015625 
Q 14.890625 38.140625 10.796875 36.28125 
z
" id="DejaVuSans-53"/>
       </defs>
       <use xlink:href="#DejaVuSans-8722"/>
       <use x="83.789062" xlink:href="#DejaVuSans-48"/>
       <use x="147.412109" xlink:href="#DejaVuSans-46"/>
       <use x="179.199219" xlink:href="#DejaVuSans-53"/>
      </g>
     </g>
    </g>
    <g id="xtick_2">
     <g id="line2d_2">
      <g>
       <use style="stroke:#000000;stroke-width:0.8;" x="202.837864" xlink:href="#mfae8ea6dbe" y="512.64"/>
      </g>
     </g>
     <g id="text_2">
      <!-- 0.0 -->
      <g transform="translate(194.886301 527.238438)scale(0.1 -0.1)">
       <use xlink:href="#DejaVuSans-48"/>
       <use x="63.623047" xlink:href="#DejaVuSans-46"/>
       <use x="95.410156" xlink:href="#DejaVuSans-48"/>
      </g>
     </g>
    </g>
    <g id="xtick_3">
     <g id="line2d_3">
      <g>
       <use style="stroke:#000000;stroke-width:0.8;" x="313.612621" xlink:href="#mfae8ea6dbe" y="512.64"/>
      </g>
     </g>
     <g id="text_3">
      <!-- 0.5 -->
      <g transform="translate(305.661059 527.238438)scale(0.1 -0.1)">
       <use xlink:href="#DejaVuSans-48"/>
       <use x="63.623047" xlink:href="#DejaVuSans-46"/>
       <use x="95.410156" xlink:href="#DejaVuSans-53"/>
      </g>
     </g>
    </g>
    <g id="xtick_4">
     <g id="line2d_4">
      <g>
       <use style="stroke:#000000;stroke-width:0.8;" x="424.387379" xlink:href="#mfae8ea6dbe" y="512.64"/>
      </g>
     </g>
     <g id="text_4">
      <!-- 1.0 -->
      <g transform="translate(416.435816 527.238438)scale(0.1 -0.1)">
       <defs>
        <path d="M 12.40625 8.296875 
L 28.515625 8.296875 
L 28.515625 63.921875 
L 10.984375 60.40625 
L 10.984375 69.390625 
L 28.421875 72.90625 
L 38.28125 72.90625 
L 38.28125 8.296875 
L 54.390625 8.296875 
L 54.390625 0 
L 12.40625 0 
z
" id="DejaVuSans-49"/>
       </defs>
       <use xlink:href="#DejaVuSans-49"/>
       <use x="63.623047" xlink:href="#DejaVuSans-46"/>
       <use x="95.410156" xlink:href="#DejaVuSans-48"/>
      </g>
     </g>
    </g>
    <g id="xtick_5">
     <g id="line2d_5">
      <g>
       <use style="stroke:#000000;stroke-width:0.8;" x="535.162136" xlink:href="#mfae8ea6dbe" y="512.64"/>
      </g>
     </g>
     <g id="text_5">
      <!-- 1.5 -->
      <g transform="translate(527.210574 527.238438)scale(0.1 -0.1)">
       <use xlink:href="#DejaVuSans-49"/>
       <use x="63.623047" xlink:href="#DejaVuSans-46"/>
       <use x="95.410156" xlink:href="#DejaVuSans-53"/>
      </g>
     </g>
    </g>
    <g id="xtick_6">
     <g id="line2d_6">
      <g>
       <use style="stroke:#000000;stroke-width:0.8;" x="645.936894" xlink:href="#mfae8ea6dbe" y="512.64"/>
      </g>
     </g>
     <g id="text_6">
      <!-- 2.0 -->
      <g transform="translate(637.985332 527.238438)scale(0.1 -0.1)">
       <defs>
        <path d="M 19.1875 8.296875 
L 53.609375 8.296875 
L 53.609375 0 
L 7.328125 0 
L 7.328125 8.296875 
Q 12.9375 14.109375 22.625 23.890625 
Q 32.328125 33.6875 34.8125 36.53125 
Q 39.546875 41.84375 41.421875 45.53125 
Q 43.3125 49.21875 43.3125 52.78125 
Q 43.3125 58.59375 39.234375 62.25 
Q 35.15625 65.921875 28.609375 65.921875 
Q 23.96875 65.921875 18.8125 64.3125 
Q 13.671875 62.703125 7.8125 59.421875 
L 7.8125 69.390625 
Q 13.765625 71.78125 18.9375 73 
Q 24.125 74.21875 28.421875 74.21875 
Q 39.75 74.21875 46.484375 68.546875 
Q 53.21875 62.890625 53.21875 53.421875 
Q 53.21875 48.921875 51.53125 44.890625 
Q 49.859375 40.875 45.40625 35.40625 
Q 44.1875 33.984375 37.640625 27.21875 
Q 31.109375 20.453125 19.1875 8.296875 
z
" id="DejaVuSans-50"/>
       </defs>
       <use xlink:href="#DejaVuSans-50"/>
       <use x="63.623047" xlink:href="#DejaVuSans-46"/>
       <use x="95.410156" xlink:href="#DejaVuSans-48"/>
      </g>
     </g>
    </g>
   </g>
   <g id="matplotlib.axis_2">
    <g id="ytick_1">
     <g id="line2d_7">
      <defs>
       <path d="M 0 0 
L -3.5 0 
" id="mf053ec5b2a" style="stroke:#000000;stroke-width:0.8;"/>
      </defs>
      <g>
       <use style="stroke:#000000;stroke-width:0.8;" x="90" xlink:href="#mf053ec5b2a" y="480.024978"/>
      </g>
     </g>
     <g id="text_7">
      <!-- −0.25 -->
      <g transform="translate(52.354687 483.824196)scale(0.1 -0.1)">
       <use xlink:href="#DejaVuSans-8722"/>
       <use x="83.789062" xlink:href="#DejaVuSans-48"/>
       <use x="147.412109" xlink:href="#DejaVuSans-46"/>
       <use x="179.199219" xlink:href="#DejaVuSans-50"/>
       <use x="242.822266" xlink:href="#DejaVuSans-53"/>
      </g>
     </g>
    </g>
    <g id="ytick_2">
     <g id="line2d_8">
      <g>
       <use style="stroke:#000000;stroke-width:0.8;" x="90" xlink:href="#mf053ec5b2a" y="424.637599"/>
      </g>
     </g>
     <g id="text_8">
      <!-- 0.00 -->
      <g transform="translate(60.734375 428.436817)scale(0.1 -0.1)">
       <use xlink:href="#DejaVuSans-48"/>
       <use x="63.623047" xlink:href="#DejaVuSans-46"/>
       <use x="95.410156" xlink:href="#DejaVuSans-48"/>
       <use x="159.033203" xlink:href="#DejaVuSans-48"/>
      </g>
     </g>
    </g>
    <g id="ytick_3">
     <g id="line2d_9">
      <g>
       <use style="stroke:#000000;stroke-width:0.8;" x="90" xlink:href="#mf053ec5b2a" y="369.25022"/>
      </g>
     </g>
     <g id="text_9">
      <!-- 0.25 -->
      <g transform="translate(60.734375 373.049439)scale(0.1 -0.1)">
       <use xlink:href="#DejaVuSans-48"/>
       <use x="63.623047" xlink:href="#DejaVuSans-46"/>
       <use x="95.410156" xlink:href="#DejaVuSans-50"/>
       <use x="159.033203" xlink:href="#DejaVuSans-53"/>
      </g>
     </g>
    </g>
    <g id="ytick_4">
     <g id="line2d_10">
      <g>
       <use style="stroke:#000000;stroke-width:0.8;" x="90" xlink:href="#mf053ec5b2a" y="313.862841"/>
      </g>
     </g>
     <g id="text_10">
      <!-- 0.50 -->
      <g transform="translate(60.734375 317.66206)scale(0.1 -0.1)">
       <use xlink:href="#DejaVuSans-48"/>
       <use x="63.623047" xlink:href="#DejaVuSans-46"/>
       <use x="95.410156" xlink:href="#DejaVuSans-53"/>
       <use x="159.033203" xlink:href="#DejaVuSans-48"/>
      </g>
     </g>
    </g>
    <g id="ytick_5">
     <g id="line2d_11">
      <g>
       <use style="stroke:#000000;stroke-width:0.8;" x="90" xlink:href="#mf053ec5b2a" y="258.475462"/>
      </g>
     </g>
     <g id="text_11">
      <!-- 0.75 -->
      <g transform="translate(60.734375 262.274681)scale(0.1 -0.1)">
       <defs>
        <path d="M 8.203125 72.90625 
L 55.078125 72.90625 
L 55.078125 68.703125 
L 28.609375 0 
L 18.3125 0 
L 43.21875 64.59375 
L 8.203125 64.59375 
z
" id="DejaVuSans-55"/>
       </defs>
       <use xlink:href="#DejaVuSans-48"/>
       <use x="63.623047" xlink:href="#DejaVuSans-46"/>
       <use x="95.410156" xlink:href="#DejaVuSans-55"/>
       <use x="159.033203" xlink:href="#DejaVuSans-53"/>
      </g>
     </g>
    </g>
    <g id="ytick_6">
     <g id="line2d_12">
      <g>
       <use style="stroke:#000000;stroke-width:0.8;" x="90" xlink:href="#mf053ec5b2a" y="203.088083"/>
      </g>
     </g>
     <g id="text_12">
      <!-- 1.00 -->
      <g transform="translate(60.734375 206.887302)scale(0.1 -0.1)">
       <use xlink:href="#DejaVuSans-49"/>
       <use x="63.623047" xlink:href="#DejaVuSans-46"/>
       <use x="95.410156" xlink:href="#DejaVuSans-48"/>
       <use x="159.033203" xlink:href="#DejaVuSans-48"/>
      </g>
     </g>
    </g>
    <g id="ytick_7">
     <g id="line2d_13">
      <g>
       <use style="stroke:#000000;stroke-width:0.8;" x="90" xlink:href="#mf053ec5b2a" y="147.700705"/>
      </g>
     </g>
     <g id="text_13">
      <!-- 1.25 -->
      <g transform="translate(60.734375 151.499923)scale(0.1 -0.1)">
       <use xlink:href="#DejaVuSans-49"/>
       <use x="63.623047" xlink:href="#DejaVuSans-46"/>
       <use x="95.410156" xlink:href="#DejaVuSans-50"/>
       <use x="159.033203" xlink:href="#DejaVuSans-53"/>
      </g>
     </g>
    </g>
    <g id="ytick_8">
     <g id="line2d_14">
      <g>
       <use style="stroke:#000000;stroke-width:0.8;" x="90" xlink:href="#mf053ec5b2a" y="92.313326"/>
      </g>
     </g>
     <g id="text_14">
      <!-- 1.50 -->
      <g transform="translate(60.734375 96.112545)scale(0.1 -0.1)">
       <use xlink:href="#DejaVuSans-49"/>
       <use x="63.623047" xlink:href="#DejaVuSans-46"/>
       <use x="95.410156" xlink:href="#DejaVuSans-53"/>
       <use x="159.033203" xlink:href="#DejaVuSans-48"/>
      </g>
     </g>
    </g>
   </g>
   <g id="line2d_15">
    <path clip-path="url(#p42ac271ca0)" d="M 224.992815 468.947502 
L 291.45767 358.172744 
" style="fill:none;stroke:#0000ff;stroke-dasharray:5.55,2.4;stroke-dashoffset:0;stroke-width:1.5;"/>
   </g>
   <g id="line2d_16">
    <path clip-path="url(#p42ac271ca0)" d="M 424.405103 424.358446 
L 412.98201 422.060978 
L 402.190333 420.040446 
L 391.987978 418.259188 
L 382.33285 416.683971 
L 373.187286 415.288209 
L 364.520269 414.049747 
L 356.298566 412.955293 
L 348.491161 411.989337 
L 341.073684 411.136371 
L 334.019547 410.387534 
L 327.306597 409.736178 
L 320.912678 409.169012 
L 314.817851 408.681603 
L 309.006607 408.267305 
L 303.459007 407.921688 
L 298.161758 407.638104 
L 293.099352 407.414339 
L 288.234124 407.243746 
L 283.56386 407.139618 
L 279.092991 407.090877 
L 274.810439 407.097524 
L 270.705127 407.152911 
L 266.768192 407.252608 
L 262.990772 407.396615 
L 259.366222 407.578286 
L 255.885679 407.79762 
L 252.542497 408.050186 
L 249.330029 408.33377 
L 246.241629 408.64837 
L 243.27065 408.989556 
L 240.412661 409.357329 
L 237.663232 409.751687 
L 235.0135 410.170415 
L 232.463465 410.613514 
L 230.006481 411.078768 
L 227.640332 411.568393 
L 225.358372 412.080172 
L 223.158385 412.616322 
L 221.038156 413.179058 
L 218.993254 413.768379 
L 217.019248 414.388718 
L 215.118353 415.040074 
L 213.283923 415.731308 
L 211.518174 416.469068 
L 209.814458 417.264431 
L 208.177207 418.13512 
L 206.606421 419.114369 
L 205.106531 420.273073 
L 203.69526 421.812842 
L 203.052767 423.018072 
L 202.837864 424.637599 
L 203.367367 426.181799 
L 204.23141 427.23859 
L 205.901893 428.477052 
L 207.579023 429.330017 
L 209.284954 430.001312 
L 211.030765 430.559617 
L 212.820885 431.038164 
L 214.659746 431.456893 
L 216.549563 431.82688 
L 218.496983 432.154774 
L 220.504222 432.447219 
L 222.571279 432.708648 
L 224.707016 432.941275 
L 226.911434 433.147316 
L 229.186747 433.331202 
L 231.541819 433.490717 
L 233.976648 433.628078 
L 236.495666 433.743284 
L 239.105519 433.83855 
L 241.808423 433.916092 
L 244.611025 433.97148 
L 247.517754 434.006928 
L 250.533043 434.024652 
L 253.667969 434.022436 
L 256.922531 434.002497 
L 260.307808 433.962618 
L 263.830445 433.905015 
L 267.49709 433.827473 
L 271.316603 433.732206 
L 275.300064 433.619216 
L 279.456332 433.490717 
L 283.794272 433.342279 
L 288.327175 433.180548 
L 293.079412 433.001093 
L 298.077569 432.797267 
L 303.312784 432.562425 
L 308.796135 432.296565 
L 314.54756 432.001905 
L 320.582569 431.674011 
L 326.921101 431.315101 
L 333.583094 430.925174 
L 340.595137 430.499799 
L 347.977166 430.041191 
L 355.760201 429.547136 
L 363.975257 429.019848 
L 372.651136 428.454897 
L 381.825501 427.847851 
L 391.538232 427.200927 
L 401.831423 426.50083 
L 412.758245 425.745346 
L 424.369655 424.916751 
" style="fill:none;stroke:#0000ff;stroke-dasharray:5.55,2.4;stroke-dashoffset:0;stroke-width:1.5;"/>
   </g>
   <g id="line2d_17">
    <path clip-path="url(#p42ac271ca0)" d="M 535.162136 203.088083 
L 534.939111 199.575199 
L 534.270933 196.076459 
L 533.160292 192.605953 
L 531.611662 189.177655 
L 529.631277 185.805369 
L 527.227112 182.502674 
L 524.408847 179.28287 
L 521.187832 176.158921 
L 517.577035 173.143406 
L 513.590996 170.248467 
L 509.245766 167.485763 
L 504.558841 164.866416 
L 499.549094 162.400974 
L 494.236698 160.099365 
L 488.643042 157.970857 
L 482.790652 156.024019 
L 476.703093 154.266692 
L 470.404876 152.705952 
L 463.921364 151.348082 
L 457.278661 150.198551 
L 450.503518 149.261988 
L 443.623214 148.542163 
L 436.665454 148.041976 
L 429.658254 147.76344 
L 422.629831 147.707676 
L 415.608484 147.87491 
L 408.622487 148.264468 
L 401.69997 148.874782 
L 394.868807 149.703393 
L 388.156504 150.746965 
L 381.590091 152.001297 
L 375.196007 153.461337 
L 369 155.121206 
L 363.027018 156.974221 
L 357.301113 159.012921 
L 351.84534 161.229095 
L 346.681668 163.613821 
L 341.83089 166.157496 
L 337.312538 168.849877 
L 333.144805 171.680124 
L 329.344474 174.636839 
L 325.926847 177.708117 
L 322.905686 180.881592 
L 320.293157 184.144484 
L 318.099777 187.483656 
L 316.334381 190.88566 
L 315.004075 194.3368 
L 314.114218 197.823178 
L 313.668392 201.330756 
L 313.668392 204.845411 
L 314.114218 208.352989 
L 315.004075 211.839367 
L 316.334381 215.290506 
L 318.099777 218.692511 
L 320.293157 222.031683 
L 322.905686 225.294575 
L 325.926847 228.468049 
L 329.344474 231.539328 
L 333.144805 234.496043 
L 337.312538 237.326289 
L 341.83089 240.018671 
L 346.681668 242.562345 
L 351.84534 244.947071 
L 357.301113 247.163246 
L 363.027018 249.201945 
L 369 251.054961 
L 375.196007 252.71483 
L 381.590091 254.17487 
L 388.156504 255.429202 
L 394.868807 256.472774 
L 401.69997 257.301385 
L 408.622487 257.911699 
L 415.608484 258.301257 
L 422.629831 258.468491 
L 429.658254 258.412727 
L 436.665454 258.134191 
L 443.623214 257.634004 
L 450.503518 256.914179 
L 457.278661 255.977616 
L 463.921364 254.828085 
L 470.404876 253.470215 
L 476.703093 251.909475 
L 482.790652 250.152148 
L 488.643042 248.20531 
L 494.236698 246.076802 
L 499.549094 243.775193 
L 504.558841 241.309751 
L 509.245766 238.690404 
L 513.590996 235.927699 
L 517.577035 233.032761 
L 521.187832 230.017246 
L 524.408847 226.893297 
L 527.227112 223.673493 
L 529.631277 220.370798 
L 531.611662 216.998512 
L 533.160292 213.570214 
L 534.270933 210.099708 
L 534.939111 206.600968 
L 535.162136 203.088083 
" style="fill:none;stroke:#0000ff;stroke-dasharray:5.55,2.4;stroke-dashoffset:0;stroke-width:1.5;"/>
   </g>
   <g id="line2d_18">
    <path clip-path="url(#p42ac271ca0)" d="M 314.407948 492.48 
L 316.580822 363.313819 
" style="fill:none;stroke:#ff0000;stroke-linecap:square;stroke-width:1.5;"/>
   </g>
   <g id="line2d_19">
    <path clip-path="url(#p42ac271ca0)" d="M 464.809527 354.158601 
L 453.768104 357.880482 
L 443.411972 361.526489 
L 433.685845 365.085051 
L 424.53665 368.548437 
L 415.918478 371.912454 
L 407.79339 375.173423 
L 400.12596 378.336449 
L 392.881571 381.403609 
L 386.031364 384.373658 
L 379.547884 387.252214 
L 373.40862 390.044599 
L 367.587741 392.750378 
L 362.065761 395.375683 
L 356.825928 397.922512 
L 351.848757 400.396999 
L 347.119413 402.800033 
L 342.623358 405.13745 
L 338.324651 407.422326 
L 334.228019 409.66728 
L 330.331763 411.860504 
L 326.626287 414.007536 
L 323.098676 416.108159 
L 319.739039 418.162967 
L 316.539701 420.17639 
L 313.491584 422.145997 
L 310.587013 424.076217 
L 307.818015 425.966537 
L 305.177728 427.818361 
L 302.660395 429.635013 
L 300.258045 431.415979 
L 297.96684 433.163473 
L 295.782943 434.879712 
L 293.697572 436.567208 
L 291.710727 438.22596 
L 289.815543 439.857374 
L 288.01121 441.464476 
L 286.290865 443.04867 
L 284.653695 444.612982 
L 283.098891 446.16044 
L 281.622615 447.693259 
L 280.223245 449.217491 
L 278.902699 450.732029 
L 277.659654 452.24787 
L 276.499349 453.769664 
L 275.42157 455.310326 
L 274.439014 456.882991 
L 273.568297 458.516438 
L 272.848706 460.269851 
L 272.396395 462.308965 
L 272.442594 463.673971 
L 273.066246 465.183974 
L 274.296909 466.256539 
L 275.573588 466.739725 
L 277.6395 466.977023 
L 279.51842 466.877148 
L 281.331447 466.605541 
L 283.122516 466.216142 
L 284.912078 465.735516 
L 286.713943 465.178715 
L 288.535567 464.554225 
L 290.386029 463.864479 
L 292.270571 463.114125 
L 294.191409 462.307 
L 296.157325 461.440592 
L 298.169428 460.51682 
L 300.23185 459.538413 
L 302.351159 458.499022 
L 304.528464 457.400565 
L 306.7676 456.240827 
L 309.075433 455.018404 
L 311.454987 453.734105 
L 313.909805 452.380772 
L 316.444831 450.958106 
L 319.065009 449.465811 
L 321.778827 447.896429 
L 324.587391 446.25188 
L 327.499187 444.524705 
L 330.521079 442.713501 
L 333.657715 440.813025 
L 336.917878 438.820765 
L 340.31116 436.731183 
L 343.846346 434.541765 
L 347.528892 432.244244 
L 351.373636 429.837729 
L 355.399466 427.306198 
L 359.626085 424.630602 
L 364.042493 421.809615 
L 368.658284 418.837698 
L 373.491834 415.706802 
L 378.554358 412.405333 
L 383.864232 408.925242 
L 389.438725 405.256559 
L 395.298644 401.382152 
L 401.462366 397.293971 
L 407.955643 392.974589 
L 414.806447 388.410417 
L 422.037503 383.583215 
L 429.679213 378.470315 
L 437.767223 373.053697 
L 446.331339 367.3008 
L 455.416502 361.183121 
L 465.057981 354.659831 
" style="fill:none;stroke:#ff0000;stroke-linecap:square;stroke-width:1.5;"/>
   </g>
   <g id="line2d_20">
    <path clip-path="url(#p42ac271ca0)" d="M 450.092751 107.154329 
L 448.143163 104.223595 
L 445.815134 101.527686 
L 443.118038 99.07746 
L 440.062735 96.882782 
L 436.661528 94.952489 
L 432.928113 93.294354 
L 428.877522 91.915054 
L 424.526067 90.820142 
L 419.891267 90.014028 
L 414.991787 89.499957 
L 409.847355 89.28 
L 404.478686 89.355042 
L 398.907397 89.72478 
L 393.155922 90.387727 
L 387.24742 91.341212 
L 381.205683 92.581396 
L 375.055038 94.103286 
L 368.820252 95.900753 
L 362.526431 97.96656 
L 356.198917 100.292388 
L 349.863189 102.868873 
L 343.544758 105.685638 
L 337.269067 108.731343 
L 331.061387 111.993724 
L 324.946712 115.459643 
L 318.949664 119.115145 
L 313.094392 122.94551 
L 307.404473 126.935316 
L 301.902818 131.068496 
L 296.61158 135.328407 
L 291.552065 139.697897 
L 286.744646 144.15937 
L 282.208681 148.694863 
L 277.962434 153.286113 
L 274.023004 157.914631 
L 270.406254 162.561781 
L 267.126746 167.20885 
L 264.197686 171.837126 
L 261.630869 176.427972 
L 259.43663 180.962904 
L 257.623805 185.42366 
L 256.199692 189.792278 
L 255.170027 194.051168 
L 254.538956 198.183181 
L 254.30902 202.171678 
L 254.481144 206.000599 
L 255.054635 209.654526 
L 256.027185 213.118747 
L 257.394877 216.379312 
L 259.152204 219.423092 
L 261.29209 222.23783 
L 263.805919 224.812193 
L 266.683567 227.135815 
L 269.913447 229.19934 
L 273.482555 230.994457 
L 277.376519 232.51394 
L 281.579658 233.751669 
L 286.075049 234.702661 
L 290.84459 235.363086 
L 295.869075 235.730285 
L 301.128274 235.802779 
L 306.601008 235.580277 
L 312.265242 235.063675 
L 318.098167 234.255052 
L 324.076296 233.157664 
L 330.175558 231.775932 
L 336.371393 230.115417 
L 342.638852 228.182807 
L 348.952698 225.985883 
L 355.287509 223.533492 
L 361.617775 220.835509 
L 367.918007 217.902797 
L 374.162837 214.747166 
L 380.327119 211.381322 
L 386.38603 207.818817 
L 392.315175 204.073998 
L 398.090678 200.161943 
L 403.689284 196.098405 
L 409.088449 191.899745 
L 414.266432 187.582871 
L 419.202384 183.165165 
L 423.876429 178.664416 
L 428.269747 174.098747 
L 432.364647 169.486541 
L 436.14464 164.846371 
L 439.594506 160.19692 
L 442.700354 155.556912 
L 445.449676 150.945029 
L 447.831404 146.379841 
L 449.835945 141.879732 
L 451.455229 137.462821 
L 452.682736 133.146894 
L 453.513522 128.949329 
L 453.944243 124.887029 
L 453.973164 120.976351 
L 453.600168 117.233042 
L 452.826758 113.672176 
L 451.656047 110.308089 
L 450.092751 107.154329 
" style="fill:none;stroke:#ff0000;stroke-linecap:square;stroke-width:1.5;"/>
   </g>
   <g id="line2d_21">
    <defs>
     <path d="M 0 3 
C 0.795609 3 1.55874 2.683901 2.12132 2.12132 
C 2.683901 1.55874 3 0.795609 3 0 
C 3 -0.795609 2.683901 -1.55874 2.12132 -2.12132 
C 1.55874 -2.683901 0.795609 -3 0 -3 
C -0.795609 -3 -1.55874 -2.683901 -2.12132 -2.12132 
C -2.683901 -1.55874 -3 -0.795609 -3 0 
C -3 0.795609 -2.683901 1.55874 -2.12132 2.12132 
C -1.55874 2.683901 -0.795609 3 0 3 
z
" id="mb616bcb819" style="stroke:#ff0000;"/>
    </defs>
    <g clip-path="url(#p42ac271ca0)">
     <use style="fill:#ff0000;stroke:#ff0000;" x="313.612621" xlink:href="#mb616bcb819" y="313.862841"/>
    </g>
   </g>
   <g id="patch_3">
    <path d="M 90 512.64 
L 90 69.12 
" style="fill:none;stroke:#000000;stroke-linecap:square;stroke-linejoin:miter;stroke-width:0.8;"/>
   </g>
   <g id="patch_4">
    <path d="M 648 512.64 
L 648 69.12 
" style="fill:none;stroke:#000000;stroke-linecap:square;stroke-linejoin:miter;stroke-width:0.8;"/>
   </g>
   <g id="patch_5">
    <path d="M 90 512.64 
L 648 512.64 
" style="fill:none;stroke:#000000;stroke-linecap:square;stroke-linejoin:miter;stroke-width:0.8;"/>
   </g>
   <g id="patch_6">
    <path d="M 90 69.12 
L 648 69.12 
" style="fill:none;stroke:#000000;stroke-linecap:square;stroke-linejoin:miter;stroke-width:0.8;"/>
   </g>
   <g id="text_15">
    <!-- Example of 4.3 -->
    <g transform="translate(323.829375 63.12)scale(0.12 -0.12)">
     <defs>
      <path d="M 9.8125 72.90625 
L 55.90625 72.90625 
L 55.90625 64.59375 
L 19.671875 64.59375 
L 19.671875 43.015625 
L 54.390625 43.015625 
L 54.390625 34.71875 
L 19.671875 34.71875 
L 19.671875 8.296875 
L 56.78125 8.296875 
L 56.78125 0 
L 9.8125 0 
z
" id="DejaVuSans-69"/>
      <path d="M 54.890625 54.6875 
L 35.109375 28.078125 
L 55.90625 0 
L 45.3125 0 
L 29.390625 21.484375 
L 13.484375 0 
L 2.875 0 
L 24.125 28.609375 
L 4.6875 54.6875 
L 15.28125 54.6875 
L 29.78125 35.203125 
L 44.28125 54.6875 
z
" id="DejaVuSans-120"/>
      <path d="M 34.28125 27.484375 
Q 23.390625 27.484375 19.1875 25 
Q 14.984375 22.515625 14.984375 16.5 
Q 14.984375 11.71875 18.140625 8.90625 
Q 21.296875 6.109375 26.703125 6.109375 
Q 34.1875 6.109375 38.703125 11.40625 
Q 43.21875 16.703125 43.21875 25.484375 
L 43.21875 27.484375 
z
M 52.203125 31.203125 
L 52.203125 0 
L 43.21875 0 
L 43.21875 8.296875 
Q 40.140625 3.328125 35.546875 0.953125 
Q 30.953125 -1.421875 24.3125 -1.421875 
Q 15.921875 -1.421875 10.953125 3.296875 
Q 6 8.015625 6 15.921875 
Q 6 25.140625 12.171875 29.828125 
Q 18.359375 34.515625 30.609375 34.515625 
L 43.21875 34.515625 
L 43.21875 35.40625 
Q 43.21875 41.609375 39.140625 45 
Q 35.0625 48.390625 27.6875 48.390625 
Q 23 48.390625 18.546875 47.265625 
Q 14.109375 46.140625 10.015625 43.890625 
L 10.015625 52.203125 
Q 14.9375 54.109375 19.578125 55.046875 
Q 24.21875 56 28.609375 56 
Q 40.484375 56 46.34375 49.84375 
Q 52.203125 43.703125 52.203125 31.203125 
z
" id="DejaVuSans-97"/>
      <path d="M 52 44.1875 
Q 55.375 50.25 60.0625 53.125 
Q 64.75 56 71.09375 56 
Q 79.640625 56 84.28125 50.015625 
Q 88.921875 44.046875 88.921875 33.015625 
L 88.921875 0 
L 79.890625 0 
L 79.890625 32.71875 
Q 79.890625 40.578125 77.09375 44.375 
Q 74.3125 48.1875 68.609375 48.1875 
Q 61.625 48.1875 57.5625 43.546875 
Q 53.515625 38.921875 53.515625 30.90625 
L 53.515625 0 
L 44.484375 0 
L 44.484375 32.71875 
Q 44.484375 40.625 41.703125 44.40625 
Q 38.921875 48.1875 33.109375 48.1875 
Q 26.21875 48.1875 22.15625 43.53125 
Q 18.109375 38.875 18.109375 30.90625 
L 18.109375 0 
L 9.078125 0 
L 9.078125 54.6875 
L 18.109375 54.6875 
L 18.109375 46.1875 
Q 21.1875 51.21875 25.484375 53.609375 
Q 29.78125 56 35.6875 56 
Q 41.65625 56 45.828125 52.96875 
Q 50 49.953125 52 44.1875 
z
" id="DejaVuSans-109"/>
      <path d="M 18.109375 8.203125 
L 18.109375 -20.796875 
L 9.078125 -20.796875 
L 9.078125 54.6875 
L 18.109375 54.6875 
L 18.109375 46.390625 
Q 20.953125 51.265625 25.265625 53.625 
Q 29.59375 56 35.59375 56 
Q 45.5625 56 51.78125 48.09375 
Q 58.015625 40.1875 58.015625 27.296875 
Q 58.015625 14.40625 51.78125 6.484375 
Q 45.5625 -1.421875 35.59375 -1.421875 
Q 29.59375 -1.421875 25.265625 0.953125 
Q 20.953125 3.328125 18.109375 8.203125 
z
M 48.6875 27.296875 
Q 48.6875 37.203125 44.609375 42.84375 
Q 40.53125 48.484375 33.40625 48.484375 
Q 26.265625 48.484375 22.1875 42.84375 
Q 18.109375 37.203125 18.109375 27.296875 
Q 18.109375 17.390625 22.1875 11.75 
Q 26.265625 6.109375 33.40625 6.109375 
Q 40.53125 6.109375 44.609375 11.75 
Q 48.6875 17.390625 48.6875 27.296875 
z
" id="DejaVuSans-112"/>
      <path d="M 9.421875 75.984375 
L 18.40625 75.984375 
L 18.40625 0 
L 9.421875 0 
z
" id="DejaVuSans-108"/>
      <path d="M 56.203125 29.59375 
L 56.203125 25.203125 
L 14.890625 25.203125 
Q 15.484375 15.921875 20.484375 11.0625 
Q 25.484375 6.203125 34.421875 6.203125 
Q 39.59375 6.203125 44.453125 7.46875 
Q 49.3125 8.734375 54.109375 11.28125 
L 54.109375 2.78125 
Q 49.265625 0.734375 44.1875 -0.34375 
Q 39.109375 -1.421875 33.890625 -1.421875 
Q 20.796875 -1.421875 13.15625 6.1875 
Q 5.515625 13.8125 5.515625 26.8125 
Q 5.515625 40.234375 12.765625 48.109375 
Q 20.015625 56 32.328125 56 
Q 43.359375 56 49.78125 48.890625 
Q 56.203125 41.796875 56.203125 29.59375 
z
M 47.21875 32.234375 
Q 47.125 39.59375 43.09375 43.984375 
Q 39.0625 48.390625 32.421875 48.390625 
Q 24.90625 48.390625 20.390625 44.140625 
Q 15.875 39.890625 15.1875 32.171875 
z
" id="DejaVuSans-101"/>
      <path id="DejaVuSans-32"/>
      <path d="M 30.609375 48.390625 
Q 23.390625 48.390625 19.1875 42.75 
Q 14.984375 37.109375 14.984375 27.296875 
Q 14.984375 17.484375 19.15625 11.84375 
Q 23.34375 6.203125 30.609375 6.203125 
Q 37.796875 6.203125 41.984375 11.859375 
Q 46.1875 17.53125 46.1875 27.296875 
Q 46.1875 37.015625 41.984375 42.703125 
Q 37.796875 48.390625 30.609375 48.390625 
z
M 30.609375 56 
Q 42.328125 56 49.015625 48.375 
Q 55.71875 40.765625 55.71875 27.296875 
Q 55.71875 13.875 49.015625 6.21875 
Q 42.328125 -1.421875 30.609375 -1.421875 
Q 18.84375 -1.421875 12.171875 6.21875 
Q 5.515625 13.875 5.515625 27.296875 
Q 5.515625 40.765625 12.171875 48.375 
Q 18.84375 56 30.609375 56 
z
" id="DejaVuSans-111"/>
      <path d="M 37.109375 75.984375 
L 37.109375 68.5 
L 28.515625 68.5 
Q 23.6875 68.5 21.796875 66.546875 
Q 19.921875 64.59375 19.921875 59.515625 
L 19.921875 54.6875 
L 34.71875 54.6875 
L 34.71875 47.703125 
L 19.921875 47.703125 
L 19.921875 0 
L 10.890625 0 
L 10.890625 47.703125 
L 2.296875 47.703125 
L 2.296875 54.6875 
L 10.890625 54.6875 
L 10.890625 58.5 
Q 10.890625 67.625 15.140625 71.796875 
Q 19.390625 75.984375 28.609375 75.984375 
z
" id="DejaVuSans-102"/>
      <path d="M 37.796875 64.3125 
L 12.890625 25.390625 
L 37.796875 25.390625 
z
M 35.203125 72.90625 
L 47.609375 72.90625 
L 47.609375 25.390625 
L 58.015625 25.390625 
L 58.015625 17.1875 
L 47.609375 17.1875 
L 47.609375 0 
L 37.796875 0 
L 37.796875 17.1875 
L 4.890625 17.1875 
L 4.890625 26.703125 
z
" id="DejaVuSans-52"/>
      <path d="M 40.578125 39.3125 
Q 47.65625 37.796875 51.625 33 
Q 55.609375 28.21875 55.609375 21.1875 
Q 55.609375 10.40625 48.1875 4.484375 
Q 40.765625 -1.421875 27.09375 -1.421875 
Q 22.515625 -1.421875 17.65625 -0.515625 
Q 12.796875 0.390625 7.625 2.203125 
L 7.625 11.71875 
Q 11.71875 9.328125 16.59375 8.109375 
Q 21.484375 6.890625 26.8125 6.890625 
Q 36.078125 6.890625 40.9375 10.546875 
Q 45.796875 14.203125 45.796875 21.1875 
Q 45.796875 27.640625 41.28125 31.265625 
Q 36.765625 34.90625 28.71875 34.90625 
L 20.21875 34.90625 
L 20.21875 43.015625 
L 29.109375 43.015625 
Q 36.375 43.015625 40.234375 45.921875 
Q 44.09375 48.828125 44.09375 54.296875 
Q 44.09375 59.90625 40.109375 62.90625 
Q 36.140625 65.921875 28.71875 65.921875 
Q 24.65625 65.921875 20.015625 65.03125 
Q 15.375 64.15625 9.8125 62.3125 
L 9.8125 71.09375 
Q 15.4375 72.65625 20.34375 73.4375 
Q 25.25 74.21875 29.59375 74.21875 
Q 40.828125 74.21875 47.359375 69.109375 
Q 53.90625 64.015625 53.90625 55.328125 
Q 53.90625 49.265625 50.4375 45.09375 
Q 46.96875 40.921875 40.578125 39.3125 
z
" id="DejaVuSans-51"/>
     </defs>
     <use xlink:href="#DejaVuSans-69"/>
     <use x="63.183594" xlink:href="#DejaVuSans-120"/>
     <use x="122.363281" xlink:href="#DejaVuSans-97"/>
     <use x="183.642578" xlink:href="#DejaVuSans-109"/>
     <use x="281.054688" xlink:href="#DejaVuSans-112"/>
     <use x="344.53125" xlink:href="#DejaVuSans-108"/>
     <use x="372.314453" xlink:href="#DejaVuSans-101"/>
     <use x="433.837891" xlink:href="#DejaVuSans-32"/>
     <use x="465.625" xlink:href="#DejaVuSans-111"/>
     <use x="526.806641" xlink:href="#DejaVuSans-102"/>
     <use x="562.011719" xlink:href="#DejaVuSans-32"/>
     <use x="593.798828" xlink:href="#DejaVuSans-52"/>
     <use x="657.421875" xlink:href="#DejaVuSans-46"/>
     <use x="689.208984" xlink:href="#DejaVuSans-51"/>
    </g>
   </g>
   <g id="legend_1">
    <g id="patch_7">
     <path d="M 530.34375 179.866875 
L 641 179.866875 
Q 643 179.866875 643 177.866875 
L 643 76.12 
Q 643 74.12 641 74.12 
L 530.34375 74.12 
Q 528.34375 74.12 528.34375 76.12 
L 528.34375 177.866875 
Q 528.34375 179.866875 530.34375 179.866875 
z
" style="fill:#ffffff;opacity:0.8;stroke:#cccccc;stroke-linejoin:miter;"/>
    </g>
    <g id="line2d_22">
     <path d="M 532.34375 82.218438 
L 552.34375 82.218438 
" style="fill:none;stroke:#0000ff;stroke-dasharray:5.55,2.4;stroke-dashoffset:0;stroke-width:1.5;"/>
    </g>
    <g id="line2d_23"/>
    <g id="text_16">
     <!-- Line -->
     <g transform="translate(560.34375 85.718438)scale(0.1 -0.1)">
      <defs>
       <path d="M 9.8125 72.90625 
L 19.671875 72.90625 
L 19.671875 8.296875 
L 55.171875 8.296875 
L 55.171875 0 
L 9.8125 0 
z
" id="DejaVuSans-76"/>
       <path d="M 9.421875 54.6875 
L 18.40625 54.6875 
L 18.40625 0 
L 9.421875 0 
z
M 9.421875 75.984375 
L 18.40625 75.984375 
L 18.40625 64.59375 
L 9.421875 64.59375 
z
" id="DejaVuSans-105"/>
       <path d="M 54.890625 33.015625 
L 54.890625 0 
L 45.90625 0 
L 45.90625 32.71875 
Q 45.90625 40.484375 42.875 44.328125 
Q 39.84375 48.1875 33.796875 48.1875 
Q 26.515625 48.1875 22.3125 43.546875 
Q 18.109375 38.921875 18.109375 30.90625 
L 18.109375 0 
L 9.078125 0 
L 9.078125 54.6875 
L 18.109375 54.6875 
L 18.109375 46.1875 
Q 21.34375 51.125 25.703125 53.5625 
Q 30.078125 56 35.796875 56 
Q 45.21875 56 50.046875 50.171875 
Q 54.890625 44.34375 54.890625 33.015625 
z
" id="DejaVuSans-110"/>
      </defs>
      <use xlink:href="#DejaVuSans-76"/>
      <use x="55.712891" xlink:href="#DejaVuSans-105"/>
      <use x="83.496094" xlink:href="#DejaVuSans-110"/>
      <use x="146.875" xlink:href="#DejaVuSans-101"/>
     </g>
    </g>
    <g id="line2d_24">
     <path d="M 532.34375 96.896563 
L 552.34375 96.896563 
" style="fill:none;stroke:#0000ff;stroke-dasharray:5.55,2.4;stroke-dashoffset:0;stroke-width:1.5;"/>
    </g>
    <g id="line2d_25"/>
    <g id="text_17">
     <!-- Spline -->
     <g transform="translate(560.34375 100.396563)scale(0.1 -0.1)">
      <defs>
       <path d="M 53.515625 70.515625 
L 53.515625 60.890625 
Q 47.90625 63.578125 42.921875 64.890625 
Q 37.9375 66.21875 33.296875 66.21875 
Q 25.25 66.21875 20.875 63.09375 
Q 16.5 59.96875 16.5 54.203125 
Q 16.5 49.359375 19.40625 46.890625 
Q 22.3125 44.4375 30.421875 42.921875 
L 36.375 41.703125 
Q 47.40625 39.59375 52.65625 34.296875 
Q 57.90625 29 57.90625 20.125 
Q 57.90625 9.515625 50.796875 4.046875 
Q 43.703125 -1.421875 29.984375 -1.421875 
Q 24.8125 -1.421875 18.96875 -0.25 
Q 13.140625 0.921875 6.890625 3.21875 
L 6.890625 13.375 
Q 12.890625 10.015625 18.65625 8.296875 
Q 24.421875 6.59375 29.984375 6.59375 
Q 38.421875 6.59375 43.015625 9.90625 
Q 47.609375 13.234375 47.609375 19.390625 
Q 47.609375 24.75 44.3125 27.78125 
Q 41.015625 30.8125 33.5 32.328125 
L 27.484375 33.5 
Q 16.453125 35.6875 11.515625 40.375 
Q 6.59375 45.0625 6.59375 53.421875 
Q 6.59375 63.09375 13.40625 68.65625 
Q 20.21875 74.21875 32.171875 74.21875 
Q 37.3125 74.21875 42.625 73.28125 
Q 47.953125 72.359375 53.515625 70.515625 
z
" id="DejaVuSans-83"/>
      </defs>
      <use xlink:href="#DejaVuSans-83"/>
      <use x="63.476562" xlink:href="#DejaVuSans-112"/>
      <use x="126.953125" xlink:href="#DejaVuSans-108"/>
      <use x="154.736328" xlink:href="#DejaVuSans-105"/>
      <use x="182.519531" xlink:href="#DejaVuSans-110"/>
      <use x="245.898438" xlink:href="#DejaVuSans-101"/>
     </g>
    </g>
    <g id="line2d_26">
     <path d="M 532.34375 111.574688 
L 552.34375 111.574688 
" style="fill:none;stroke:#0000ff;stroke-dasharray:5.55,2.4;stroke-dashoffset:0;stroke-width:1.5;"/>
    </g>
    <g id="line2d_27"/>
    <g id="text_18">
     <!-- Ellipese -->
     <g transform="translate(560.34375 115.074688)scale(0.1 -0.1)">
      <defs>
       <path d="M 44.28125 53.078125 
L 44.28125 44.578125 
Q 40.484375 46.53125 36.375 47.5 
Q 32.28125 48.484375 27.875 48.484375 
Q 21.1875 48.484375 17.84375 46.4375 
Q 14.5 44.390625 14.5 40.28125 
Q 14.5 37.15625 16.890625 35.375 
Q 19.28125 33.59375 26.515625 31.984375 
L 29.59375 31.296875 
Q 39.15625 29.25 43.1875 25.515625 
Q 47.21875 21.78125 47.21875 15.09375 
Q 47.21875 7.46875 41.1875 3.015625 
Q 35.15625 -1.421875 24.609375 -1.421875 
Q 20.21875 -1.421875 15.453125 -0.5625 
Q 10.6875 0.296875 5.421875 2 
L 5.421875 11.28125 
Q 10.40625 8.6875 15.234375 7.390625 
Q 20.0625 6.109375 24.8125 6.109375 
Q 31.15625 6.109375 34.5625 8.28125 
Q 37.984375 10.453125 37.984375 14.40625 
Q 37.984375 18.0625 35.515625 20.015625 
Q 33.0625 21.96875 24.703125 23.78125 
L 21.578125 24.515625 
Q 13.234375 26.265625 9.515625 29.90625 
Q 5.8125 33.546875 5.8125 39.890625 
Q 5.8125 47.609375 11.28125 51.796875 
Q 16.75 56 26.8125 56 
Q 31.78125 56 36.171875 55.265625 
Q 40.578125 54.546875 44.28125 53.078125 
z
" id="DejaVuSans-115"/>
      </defs>
      <use xlink:href="#DejaVuSans-69"/>
      <use x="63.183594" xlink:href="#DejaVuSans-108"/>
      <use x="90.966797" xlink:href="#DejaVuSans-108"/>
      <use x="118.75" xlink:href="#DejaVuSans-105"/>
      <use x="146.533203" xlink:href="#DejaVuSans-112"/>
      <use x="210.009766" xlink:href="#DejaVuSans-101"/>
      <use x="271.533203" xlink:href="#DejaVuSans-115"/>
      <use x="323.632812" xlink:href="#DejaVuSans-101"/>
     </g>
    </g>
    <g id="line2d_28">
     <path d="M 532.34375 126.252813 
L 552.34375 126.252813 
" style="fill:none;stroke:#ff0000;stroke-linecap:square;stroke-width:1.5;"/>
    </g>
    <g id="line2d_29"/>
    <g id="text_19">
     <!-- Rotated line -->
     <g transform="translate(560.34375 129.752813)scale(0.1 -0.1)">
      <defs>
       <path d="M 44.390625 34.1875 
Q 47.5625 33.109375 50.5625 29.59375 
Q 53.5625 26.078125 56.59375 19.921875 
L 66.609375 0 
L 56 0 
L 46.6875 18.703125 
Q 43.0625 26.03125 39.671875 28.421875 
Q 36.28125 30.8125 30.421875 30.8125 
L 19.671875 30.8125 
L 19.671875 0 
L 9.8125 0 
L 9.8125 72.90625 
L 32.078125 72.90625 
Q 44.578125 72.90625 50.734375 67.671875 
Q 56.890625 62.453125 56.890625 51.90625 
Q 56.890625 45.015625 53.6875 40.46875 
Q 50.484375 35.9375 44.390625 34.1875 
z
M 19.671875 64.796875 
L 19.671875 38.921875 
L 32.078125 38.921875 
Q 39.203125 38.921875 42.84375 42.21875 
Q 46.484375 45.515625 46.484375 51.90625 
Q 46.484375 58.296875 42.84375 61.546875 
Q 39.203125 64.796875 32.078125 64.796875 
z
" id="DejaVuSans-82"/>
       <path d="M 18.3125 70.21875 
L 18.3125 54.6875 
L 36.8125 54.6875 
L 36.8125 47.703125 
L 18.3125 47.703125 
L 18.3125 18.015625 
Q 18.3125 11.328125 20.140625 9.421875 
Q 21.96875 7.515625 27.59375 7.515625 
L 36.8125 7.515625 
L 36.8125 0 
L 27.59375 0 
Q 17.1875 0 13.234375 3.875 
Q 9.28125 7.765625 9.28125 18.015625 
L 9.28125 47.703125 
L 2.6875 47.703125 
L 2.6875 54.6875 
L 9.28125 54.6875 
L 9.28125 70.21875 
z
" id="DejaVuSans-116"/>
       <path d="M 45.40625 46.390625 
L 45.40625 75.984375 
L 54.390625 75.984375 
L 54.390625 0 
L 45.40625 0 
L 45.40625 8.203125 
Q 42.578125 3.328125 38.25 0.953125 
Q 33.9375 -1.421875 27.875 -1.421875 
Q 17.96875 -1.421875 11.734375 6.484375 
Q 5.515625 14.40625 5.515625 27.296875 
Q 5.515625 40.1875 11.734375 48.09375 
Q 17.96875 56 27.875 56 
Q 33.9375 56 38.25 53.625 
Q 42.578125 51.265625 45.40625 46.390625 
z
M 14.796875 27.296875 
Q 14.796875 17.390625 18.875 11.75 
Q 22.953125 6.109375 30.078125 6.109375 
Q 37.203125 6.109375 41.296875 11.75 
Q 45.40625 17.390625 45.40625 27.296875 
Q 45.40625 37.203125 41.296875 42.84375 
Q 37.203125 48.484375 30.078125 48.484375 
Q 22.953125 48.484375 18.875 42.84375 
Q 14.796875 37.203125 14.796875 27.296875 
z
" id="DejaVuSans-100"/>
      </defs>
      <use xlink:href="#DejaVuSans-82"/>
      <use x="64.982422" xlink:href="#DejaVuSans-111"/>
      <use x="126.164062" xlink:href="#DejaVuSans-116"/>
      <use x="165.373047" xlink:href="#DejaVuSans-97"/>
      <use x="226.652344" xlink:href="#DejaVuSans-116"/>
      <use x="265.861328" xlink:href="#DejaVuSans-101"/>
      <use x="327.384766" xlink:href="#DejaVuSans-100"/>
      <use x="390.861328" xlink:href="#DejaVuSans-32"/>
      <use x="422.648438" xlink:href="#DejaVuSans-108"/>
      <use x="450.431641" xlink:href="#DejaVuSans-105"/>
      <use x="478.214844" xlink:href="#DejaVuSans-110"/>
      <use x="541.59375" xlink:href="#DejaVuSans-101"/>
     </g>
    </g>
    <g id="line2d_30">
     <path d="M 532.34375 140.930938 
L 552.34375 140.930938 
" style="fill:none;stroke:#ff0000;stroke-linecap:square;stroke-width:1.5;"/>
    </g>
    <g id="line2d_31"/>
    <g id="text_20">
     <!-- Rotated spline -->
     <g transform="translate(560.34375 144.430938)scale(0.1 -0.1)">
      <use xlink:href="#DejaVuSans-82"/>
      <use x="64.982422" xlink:href="#DejaVuSans-111"/>
      <use x="126.164062" xlink:href="#DejaVuSans-116"/>
      <use x="165.373047" xlink:href="#DejaVuSans-97"/>
      <use x="226.652344" xlink:href="#DejaVuSans-116"/>
      <use x="265.861328" xlink:href="#DejaVuSans-101"/>
      <use x="327.384766" xlink:href="#DejaVuSans-100"/>
      <use x="390.861328" xlink:href="#DejaVuSans-32"/>
      <use x="422.648438" xlink:href="#DejaVuSans-115"/>
      <use x="474.748047" xlink:href="#DejaVuSans-112"/>
      <use x="538.224609" xlink:href="#DejaVuSans-108"/>
      <use x="566.007812" xlink:href="#DejaVuSans-105"/>
      <use x="593.791016" xlink:href="#DejaVuSans-110"/>
      <use x="657.169922" xlink:href="#DejaVuSans-101"/>
     </g>
    </g>
    <g id="line2d_32">
     <path d="M 532.34375 155.609063 
L 552.34375 155.609063 
" style="fill:none;stroke:#ff0000;stroke-linecap:square;stroke-width:1.5;"/>
    </g>
    <g id="line2d_33"/>
    <g id="text_21">
     <!-- Rotated ellipse -->
     <g transform="translate(560.34375 159.109063)scale(0.1 -0.1)">
      <use xlink:href="#DejaVuSans-82"/>
      <use x="64.982422" xlink:href="#DejaVuSans-111"/>
      <use x="126.164062" xlink:href="#DejaVuSans-116"/>
      <use x="165.373047" xlink:href="#DejaVuSans-97"/>
      <use x="226.652344" xlink:href="#DejaVuSans-116"/>
      <use x="265.861328" xlink:href="#DejaVuSans-101"/>
      <use x="327.384766" xlink:href="#DejaVuSans-100"/>
      <use x="390.861328" xlink:href="#DejaVuSans-32"/>
      <use x="422.648438" xlink:href="#DejaVuSans-101"/>
      <use x="484.171875" xlink:href="#DejaVuSans-108"/>
      <use x="511.955078" xlink:href="#DejaVuSans-108"/>
      <use x="539.738281" xlink:href="#DejaVuSans-105"/>
      <use x="567.521484" xlink:href="#DejaVuSans-112"/>
      <use x="630.998047" xlink:href="#DejaVuSans-115"/>
      <use x="683.097656" xlink:href="#DejaVuSans-101"/>
     </g>
    </g>
    <g id="line2d_34"/>
    <g id="line2d_35">
     <g>
      <use style="fill:#ff0000;stroke:#ff0000;" x="542.34375" xlink:href="#mb616bcb819" y="170.287188"/>
     </g>
    </g>
    <g id="text_22">
     <!-- Rotation Center -->
     <g transform="translate(560.34375 173.787188)scale(0.1 -0.1)">
      <defs>
       <path d="M 64.40625 67.28125 
L 64.40625 56.890625 
Q 59.421875 61.53125 53.78125 63.8125 
Q 48.140625 66.109375 41.796875 66.109375 
Q 29.296875 66.109375 22.65625 58.46875 
Q 16.015625 50.828125 16.015625 36.375 
Q 16.015625 21.96875 22.65625 14.328125 
Q 29.296875 6.6875 41.796875 6.6875 
Q 48.140625 6.6875 53.78125 8.984375 
Q 59.421875 11.28125 64.40625 15.921875 
L 64.40625 5.609375 
Q 59.234375 2.09375 53.4375 0.328125 
Q 47.65625 -1.421875 41.21875 -1.421875 
Q 24.65625 -1.421875 15.125 8.703125 
Q 5.609375 18.84375 5.609375 36.375 
Q 5.609375 53.953125 15.125 64.078125 
Q 24.65625 74.21875 41.21875 74.21875 
Q 47.75 74.21875 53.53125 72.484375 
Q 59.328125 70.75 64.40625 67.28125 
z
" id="DejaVuSans-67"/>
       <path d="M 41.109375 46.296875 
Q 39.59375 47.171875 37.8125 47.578125 
Q 36.03125 48 33.890625 48 
Q 26.265625 48 22.1875 43.046875 
Q 18.109375 38.09375 18.109375 28.8125 
L 18.109375 0 
L 9.078125 0 
L 9.078125 54.6875 
L 18.109375 54.6875 
L 18.109375 46.1875 
Q 20.953125 51.171875 25.484375 53.578125 
Q 30.03125 56 36.53125 56 
Q 37.453125 56 38.578125 55.875 
Q 39.703125 55.765625 41.0625 55.515625 
z
" id="DejaVuSans-114"/>
      </defs>
      <use xlink:href="#DejaVuSans-82"/>
      <use x="64.982422" xlink:href="#DejaVuSans-111"/>
      <use x="126.164062" xlink:href="#DejaVuSans-116"/>
      <use x="165.373047" xlink:href="#DejaVuSans-97"/>
      <use x="226.652344" xlink:href="#DejaVuSans-116"/>
      <use x="265.861328" xlink:href="#DejaVuSans-105"/>
      <use x="293.644531" xlink:href="#DejaVuSans-111"/>
      <use x="354.826172" xlink:href="#DejaVuSans-110"/>
      <use x="418.205078" xlink:href="#DejaVuSans-32"/>
      <use x="449.992188" xlink:href="#DejaVuSans-67"/>
      <use x="519.816406" xlink:href="#DejaVuSans-101"/>
      <use x="581.339844" xlink:href="#DejaVuSans-110"/>
      <use x="644.71875" xlink:href="#DejaVuSans-116"/>
      <use x="683.927734" xlink:href="#DejaVuSans-101"/>
      <use x="745.451172" xlink:href="#DejaVuSans-114"/>
     </g>
    </g>
   </g>
  </g>
 </g>
 <defs>
  <clipPath id="p42ac271ca0">
   <rect height="443.52" width="558" x="90" y="69.12"/>
  </clipPath>
 </defs>
</svg>
