<?xml version="1.0" encoding="utf-8" standalone="no"?>
<!DOCTYPE svg PUBLIC "-//W3C//DTD SVG 1.1//EN"
  "http://www.w3.org/Graphics/SVG/1.1/DTD/svg11.dtd">
<!-- Created with matplotlib (https://matplotlib.org/) -->
<svg height="345.6pt" version="1.1" viewBox="0 0 460.8 345.6" width="460.8pt" xmlns="http://www.w3.org/2000/svg" xmlns:xlink="http://www.w3.org/1999/xlink">
 <metadata>
  <rdf:RDF xmlns:cc="http://creativecommons.org/ns#" xmlns:dc="http://purl.org/dc/elements/1.1/" xmlns:rdf="http://www.w3.org/1999/02/22-rdf-syntax-ns#">
   <cc:Work>
    <dc:type rdf:resource="http://purl.org/dc/dcmitype/StillImage"/>
    <dc:date>2025-09-10T01:57:34.621479</dc:date>
    <dc:format>image/svg+xml</dc:format>
    <dc:creator>
     <cc:Agent>
      <dc:title>Matplotlib v3.3.2, https://matplotlib.org/</dc:title>
     </cc:Agent>
    </dc:creator>
   </cc:Work>
  </rdf:RDF>
 </metadata>
 <defs>
  <style type="text/css">*{stroke-linecap:butt;stroke-linejoin:round;}</style>
 </defs>
 <g id="figure_1">
  <g id="patch_1">
   <path d="M 0 345.6 
L 460.8 345.6 
L 460.8 0 
L 0 0 
z
" style="fill:#ffffff;"/>
  </g>
  <g id="axes_1">
   <g id="patch_2">
    <path d="M 57.6 307.584 
L 414.72 307.584 
L 414.72 41.472 
L 57.6 41.472 
z
" style="fill:#ffffff;"/>
   </g>
   <g id="matplotlib.axis_1">
    <g id="xtick_1">
     <g id="line2d_1">
      <defs>
       <path d="M 0 0 
L 0 3.5 
" id="me0d63d427c" style="stroke:#000000;stroke-width:0.8;"/>
      </defs>
      <g>
       <use style="stroke:#000000;stroke-width:0.8;" x="83.978182" xlink:href="#me0d63d427c" y="307.584"/>
      </g>
     </g>
     <g id="text_1">
      <!-- 0 -->
      <g transform="translate(80.796932 322.182437)scale(0.1 -0.1)">
       <defs>
        <path d="M 31.78125 66.40625 
Q 24.171875 66.40625 20.328125 58.90625 
Q 16.5 51.421875 16.5 36.375 
Q 16.5 21.390625 20.328125 13.890625 
Q 24.171875 6.390625 31.78125 6.390625 
Q 39.453125 6.390625 43.28125 13.890625 
Q 47.125 21.390625 47.125 36.375 
Q 47.125 51.421875 43.28125 58.90625 
Q 39.453125 66.40625 31.78125 66.40625 
z
M 31.78125 74.21875 
Q 44.046875 74.21875 50.515625 64.515625 
Q 56.984375 54.828125 56.984375 36.375 
Q 56.984375 17.96875 50.515625 8.265625 
Q 44.046875 -1.421875 31.78125 -1.421875 
Q 19.53125 -1.421875 13.0625 8.265625 
Q 6.59375 17.96875 6.59375 36.375 
Q 6.59375 54.828125 13.0625 64.515625 
Q 19.53125 74.21875 31.78125 74.21875 
z
" id="DejaVuSans-48"/>
       </defs>
       <use xlink:href="#DejaVuSans-48"/>
      </g>
     </g>
    </g>
    <g id="xtick_2">
     <g id="line2d_2">
      <g>
       <use style="stroke:#000000;stroke-width:0.8;" x="134.705455" xlink:href="#me0d63d427c" y="307.584"/>
      </g>
     </g>
     <g id="text_2">
      <!-- 100 -->
      <g transform="translate(125.161705 322.182437)scale(0.1 -0.1)">
       <defs>
        <path d="M 12.40625 8.296875 
L 28.515625 8.296875 
L 28.515625 63.921875 
L 10.984375 60.40625 
L 10.984375 69.390625 
L 28.421875 72.90625 
L 38.28125 72.90625 
L 38.28125 8.296875 
L 54.390625 8.296875 
L 54.390625 0 
L 12.40625 0 
z
" id="DejaVuSans-49"/>
       </defs>
       <use xlink:href="#DejaVuSans-49"/>
       <use x="63.623047" xlink:href="#DejaVuSans-48"/>
       <use x="127.246094" xlink:href="#DejaVuSans-48"/>
      </g>
     </g>
    </g>
    <g id="xtick_3">
     <g id="line2d_3">
      <g>
       <use style="stroke:#000000;stroke-width:0.8;" x="185.432727" xlink:href="#me0d63d427c" y="307.584"/>
      </g>
     </g>
     <g id="text_3">
      <!-- 200 -->
      <g transform="translate(175.888977 322.182437)scale(0.1 -0.1)">
       <defs>
        <path d="M 19.1875 8.296875 
L 53.609375 8.296875 
L 53.609375 0 
L 7.328125 0 
L 7.328125 8.296875 
Q 12.9375 14.109375 22.625 23.890625 
Q 32.328125 33.6875 34.8125 36.53125 
Q 39.546875 41.84375 41.421875 45.53125 
Q 43.3125 49.21875 43.3125 52.78125 
Q 43.3125 58.59375 39.234375 62.25 
Q 35.15625 65.921875 28.609375 65.921875 
Q 23.96875 65.921875 18.8125 64.3125 
Q 13.671875 62.703125 7.8125 59.421875 
L 7.8125 69.390625 
Q 13.765625 71.78125 18.9375 73 
Q 24.125 74.21875 28.421875 74.21875 
Q 39.75 74.21875 46.484375 68.546875 
Q 53.21875 62.890625 53.21875 53.421875 
Q 53.21875 48.921875 51.53125 44.890625 
Q 49.859375 40.875 45.40625 35.40625 
Q 44.1875 33.984375 37.640625 27.21875 
Q 31.109375 20.453125 19.1875 8.296875 
z
" id="DejaVuSans-50"/>
       </defs>
       <use xlink:href="#DejaVuSans-50"/>
       <use x="63.623047" xlink:href="#DejaVuSans-48"/>
       <use x="127.246094" xlink:href="#DejaVuSans-48"/>
      </g>
     </g>
    </g>
    <g id="xtick_4">
     <g id="line2d_4">
      <g>
       <use style="stroke:#000000;stroke-width:0.8;" x="236.16" xlink:href="#me0d63d427c" y="307.584"/>
      </g>
     </g>
     <g id="text_4">
      <!-- 300 -->
      <g transform="translate(226.61625 322.182437)scale(0.1 -0.1)">
       <defs>
        <path d="M 40.578125 39.3125 
Q 47.65625 37.796875 51.625 33 
Q 55.609375 28.21875 55.609375 21.1875 
Q 55.609375 10.40625 48.1875 4.484375 
Q 40.765625 -1.421875 27.09375 -1.421875 
Q 22.515625 -1.421875 17.65625 -0.515625 
Q 12.796875 0.390625 7.625 2.203125 
L 7.625 11.71875 
Q 11.71875 9.328125 16.59375 8.109375 
Q 21.484375 6.890625 26.8125 6.890625 
Q 36.078125 6.890625 40.9375 10.546875 
Q 45.796875 14.203125 45.796875 21.1875 
Q 45.796875 27.640625 41.28125 31.265625 
Q 36.765625 34.90625 28.71875 34.90625 
L 20.21875 34.90625 
L 20.21875 43.015625 
L 29.109375 43.015625 
Q 36.375 43.015625 40.234375 45.921875 
Q 44.09375 48.828125 44.09375 54.296875 
Q 44.09375 59.90625 40.109375 62.90625 
Q 36.140625 65.921875 28.71875 65.921875 
Q 24.65625 65.921875 20.015625 65.03125 
Q 15.375 64.15625 9.8125 62.3125 
L 9.8125 71.09375 
Q 15.4375 72.65625 20.34375 73.4375 
Q 25.25 74.21875 29.59375 74.21875 
Q 40.828125 74.21875 47.359375 69.109375 
Q 53.90625 64.015625 53.90625 55.328125 
Q 53.90625 49.265625 50.4375 45.09375 
Q 46.96875 40.921875 40.578125 39.3125 
z
" id="DejaVuSans-51"/>
       </defs>
       <use xlink:href="#DejaVuSans-51"/>
       <use x="63.623047" xlink:href="#DejaVuSans-48"/>
       <use x="127.246094" xlink:href="#DejaVuSans-48"/>
      </g>
     </g>
    </g>
    <g id="xtick_5">
     <g id="line2d_5">
      <g>
       <use style="stroke:#000000;stroke-width:0.8;" x="286.887273" xlink:href="#me0d63d427c" y="307.584"/>
      </g>
     </g>
     <g id="text_5">
      <!-- 400 -->
      <g transform="translate(277.343523 322.182437)scale(0.1 -0.1)">
       <defs>
        <path d="M 37.796875 64.3125 
L 12.890625 25.390625 
L 37.796875 25.390625 
z
M 35.203125 72.90625 
L 47.609375 72.90625 
L 47.609375 25.390625 
L 58.015625 25.390625 
L 58.015625 17.1875 
L 47.609375 17.1875 
L 47.609375 0 
L 37.796875 0 
L 37.796875 17.1875 
L 4.890625 17.1875 
L 4.890625 26.703125 
z
" id="DejaVuSans-52"/>
       </defs>
       <use xlink:href="#DejaVuSans-52"/>
       <use x="63.623047" xlink:href="#DejaVuSans-48"/>
       <use x="127.246094" xlink:href="#DejaVuSans-48"/>
      </g>
     </g>
    </g>
    <g id="xtick_6">
     <g id="line2d_6">
      <g>
       <use style="stroke:#000000;stroke-width:0.8;" x="337.614545" xlink:href="#me0d63d427c" y="307.584"/>
      </g>
     </g>
     <g id="text_6">
      <!-- 500 -->
      <g transform="translate(328.070795 322.182437)scale(0.1 -0.1)">
       <defs>
        <path d="M 10.796875 72.90625 
L 49.515625 72.90625 
L 49.515625 64.59375 
L 19.828125 64.59375 
L 19.828125 46.734375 
Q 21.96875 47.46875 24.109375 47.828125 
Q 26.265625 48.1875 28.421875 48.1875 
Q 40.625 48.1875 47.75 41.5 
Q 54.890625 34.8125 54.890625 23.390625 
Q 54.890625 11.625 47.5625 5.09375 
Q 40.234375 -1.421875 26.90625 -1.421875 
Q 22.3125 -1.421875 17.546875 -0.640625 
Q 12.796875 0.140625 7.71875 1.703125 
L 7.71875 11.625 
Q 12.109375 9.234375 16.796875 8.0625 
Q 21.484375 6.890625 26.703125 6.890625 
Q 35.15625 6.890625 40.078125 11.328125 
Q 45.015625 15.765625 45.015625 23.390625 
Q 45.015625 31 40.078125 35.4375 
Q 35.15625 39.890625 26.703125 39.890625 
Q 22.75 39.890625 18.8125 39.015625 
Q 14.890625 38.140625 10.796875 36.28125 
z
" id="DejaVuSans-53"/>
       </defs>
       <use xlink:href="#DejaVuSans-53"/>
       <use x="63.623047" xlink:href="#DejaVuSans-48"/>
       <use x="127.246094" xlink:href="#DejaVuSans-48"/>
      </g>
     </g>
    </g>
    <g id="xtick_7">
     <g id="line2d_7">
      <g>
       <use style="stroke:#000000;stroke-width:0.8;" x="388.341818" xlink:href="#me0d63d427c" y="307.584"/>
      </g>
     </g>
     <g id="text_7">
      <!-- 600 -->
      <g transform="translate(378.798068 322.182437)scale(0.1 -0.1)">
       <defs>
        <path d="M 33.015625 40.375 
Q 26.375 40.375 22.484375 35.828125 
Q 18.609375 31.296875 18.609375 23.390625 
Q 18.609375 15.53125 22.484375 10.953125 
Q 26.375 6.390625 33.015625 6.390625 
Q 39.65625 6.390625 43.53125 10.953125 
Q 47.40625 15.53125 47.40625 23.390625 
Q 47.40625 31.296875 43.53125 35.828125 
Q 39.65625 40.375 33.015625 40.375 
z
M 52.59375 71.296875 
L 52.59375 62.3125 
Q 48.875 64.0625 45.09375 64.984375 
Q 41.3125 65.921875 37.59375 65.921875 
Q 27.828125 65.921875 22.671875 59.328125 
Q 17.53125 52.734375 16.796875 39.40625 
Q 19.671875 43.65625 24.015625 45.921875 
Q 28.375 48.1875 33.59375 48.1875 
Q 44.578125 48.1875 50.953125 41.515625 
Q 57.328125 34.859375 57.328125 23.390625 
Q 57.328125 12.15625 50.6875 5.359375 
Q 44.046875 -1.421875 33.015625 -1.421875 
Q 20.359375 -1.421875 13.671875 8.265625 
Q 6.984375 17.96875 6.984375 36.375 
Q 6.984375 53.65625 15.1875 63.9375 
Q 23.390625 74.21875 37.203125 74.21875 
Q 40.921875 74.21875 44.703125 73.484375 
Q 48.484375 72.75 52.59375 71.296875 
z
" id="DejaVuSans-54"/>
       </defs>
       <use xlink:href="#DejaVuSans-54"/>
       <use x="63.623047" xlink:href="#DejaVuSans-48"/>
       <use x="127.246094" xlink:href="#DejaVuSans-48"/>
      </g>
     </g>
    </g>
   </g>
   <g id="matplotlib.axis_2">
    <g id="ytick_1">
     <g id="line2d_8">
      <defs>
       <path d="M 0 0 
L -3.5 0 
" id="mc7c7bfea3d" style="stroke:#000000;stroke-width:0.8;"/>
      </defs>
      <g>
       <use style="stroke:#000000;stroke-width:0.8;" x="57.6" xlink:href="#mc7c7bfea3d" y="283.181269"/>
      </g>
     </g>
     <g id="text_8">
      <!-- −200 -->
      <g transform="translate(23.132812 286.980488)scale(0.1 -0.1)">
       <defs>
        <path d="M 10.59375 35.5 
L 73.1875 35.5 
L 73.1875 27.203125 
L 10.59375 27.203125 
z
" id="DejaVuSans-8722"/>
       </defs>
       <use xlink:href="#DejaVuSans-8722"/>
       <use x="83.789062" xlink:href="#DejaVuSans-50"/>
       <use x="147.412109" xlink:href="#DejaVuSans-48"/>
       <use x="211.035156" xlink:href="#DejaVuSans-48"/>
      </g>
     </g>
    </g>
    <g id="ytick_2">
     <g id="line2d_9">
      <g>
       <use style="stroke:#000000;stroke-width:0.8;" x="57.6" xlink:href="#mc7c7bfea3d" y="232.453996"/>
      </g>
     </g>
     <g id="text_9">
      <!-- −100 -->
      <g transform="translate(23.132812 236.253215)scale(0.1 -0.1)">
       <use xlink:href="#DejaVuSans-8722"/>
       <use x="83.789062" xlink:href="#DejaVuSans-49"/>
       <use x="147.412109" xlink:href="#DejaVuSans-48"/>
       <use x="211.035156" xlink:href="#DejaVuSans-48"/>
      </g>
     </g>
    </g>
    <g id="ytick_3">
     <g id="line2d_10">
      <g>
       <use style="stroke:#000000;stroke-width:0.8;" x="57.6" xlink:href="#mc7c7bfea3d" y="181.726723"/>
      </g>
     </g>
     <g id="text_10">
      <!-- 0 -->
      <g transform="translate(44.2375 185.525942)scale(0.1 -0.1)">
       <use xlink:href="#DejaVuSans-48"/>
      </g>
     </g>
    </g>
    <g id="ytick_4">
     <g id="line2d_11">
      <g>
       <use style="stroke:#000000;stroke-width:0.8;" x="57.6" xlink:href="#mc7c7bfea3d" y="130.999451"/>
      </g>
     </g>
     <g id="text_11">
      <!-- 100 -->
      <g transform="translate(31.5125 134.79867)scale(0.1 -0.1)">
       <use xlink:href="#DejaVuSans-49"/>
       <use x="63.623047" xlink:href="#DejaVuSans-48"/>
       <use x="127.246094" xlink:href="#DejaVuSans-48"/>
      </g>
     </g>
    </g>
    <g id="ytick_5">
     <g id="line2d_12">
      <g>
       <use style="stroke:#000000;stroke-width:0.8;" x="57.6" xlink:href="#mc7c7bfea3d" y="80.272178"/>
      </g>
     </g>
     <g id="text_12">
      <!-- 200 -->
      <g transform="translate(31.5125 84.071397)scale(0.1 -0.1)">
       <use xlink:href="#DejaVuSans-50"/>
       <use x="63.623047" xlink:href="#DejaVuSans-48"/>
       <use x="127.246094" xlink:href="#DejaVuSans-48"/>
      </g>
     </g>
    </g>
   </g>
   <g id="line2d_13">
    <path clip-path="url(#p642d3b9bf0)" d="M 388.359523 181.367605 
L 370.03816 177.764303 
L 348.872378 173.805656 
L 330.704247 170.621027 
L 313.645486 167.852798 
L 297.720164 165.494884 
L 297.032727 165.398565 
L 297.032727 165.398565 
L 296.926352 165.936591 
L 296.62539 166.222337 
L 296.219253 166.307658 
L 294.793621 166.112155 
L 280.06908 164.193623 
L 265.594201 162.534242 
L 251.408375 161.136077 
L 237.552858 159.994367 
L 224.066932 159.111138 
L 210.989011 158.488302 
L 199.134812 158.150546 
L 188.452489 158.073902 
L 178.163411 158.223531 
L 168.292624 158.589224 
L 158.864339 159.160113 
L 149.901897 159.924347 
L 141.427727 160.868715 
L 133.463513 161.979421 
L 126.030025 163.24163 
L 119.147405 164.639607 
L 112.835122 166.156562 
L 107.5013 167.655723 
L 102.691292 169.2256 
L 98.420854 170.850582 
L 94.974209 172.38274 
L 92.019349 173.925366 
L 89.760336 175.33758 
L 87.947587 176.717338 
L 86.595872 178.016457 
L 85.771999 179.090074 
L 85.218696 180.181574 
L 84.990622 181.13315 
L 85.02539 181.923853 
L 85.263844 182.640997 
L 85.701883 183.315726 
L 86.48469 184.076599 
L 87.633056 184.861349 
L 89.300068 185.70727 
L 91.580095 186.575027 
L 94.284356 187.35868 
L 98.001737 188.180181 
L 102.247667 188.887968 
L 107.778319 189.570948 
L 114.394596 190.143985 
L 122.20448 190.584629 
L 131.316029 190.871509 
L 142.41311 190.984963 
L 144.480187 191.092059 
L 144.760529 191.385628 
L 144.850909 191.745316 
L 144.850909 191.745316 
L 144.850909 191.997348 
L 144.850909 191.997348 
L 158.309667 191.851651 
L 175.040498 191.439921 
L 198.353954 190.625253 
L 227.678099 189.391593 
L 264.441288 187.576662 
L 325.95878 184.538666 
L 359.378028 183.126188 
L 388.323922 182.085842 
L 388.323922 182.085842 
L 388.359523 181.367605 
L 388.359523 181.367605 
" style="fill:none;stroke:#0000ff;stroke-linecap:square;stroke-width:3;"/>
   </g>
   <g id="line2d_14">
    <path clip-path="url(#p642d3b9bf0)" d="M 83.962441 181.407473 
L 84.058947 181.396606 
L 91.532625 180.331006 
L 102.354111 179.098498 
L 115.121269 177.87252 
L 129.491255 176.720177 
L 144.591731 175.732988 
L 160.310701 174.927257 
L 176.177988 174.334638 
L 191.78854 173.965385 
L 207.569577 173.807648 
L 227.380112 173.847584 
L 248.186899 174.115799 
L 268.979184 174.612532 
L 288.639861 175.301062 
L 308.778438 176.226207 
L 330.238563 177.443744 
L 352.954466 178.964164 
L 377.786972 180.860035 
L 388.323922 181.723112 
L 388.323922 181.723112 
" style="fill:none;stroke:#008000;stroke-dasharray:5.55,2.4;stroke-dashoffset:0;stroke-width:1.5;"/>
   </g>
   <g id="line2d_15">
    <path clip-path="url(#p642d3b9bf0)" d="M 297.032727 165.398565 
L 282.022212 163.412765 
L 267.498061 161.718584 
L 253.257899 160.286685 
L 239.342436 159.111373 
L 225.790786 158.194504 
L 212.641355 157.538212 
L 200.712486 157.166134 
L 189.9545 157.056222 
L 179.585404 157.174397 
L 169.630223 157.510648 
L 160.113129 158.054307 
L 151.057421 158.793769 
L 142.485445 159.716118 
L 134.418656 160.807792 
L 126.877596 162.054363 
L 119.881979 163.440536 
L 113.450746 164.950165 
L 108.000205 166.447243 
L 103.066286 168.020695 
L 98.663672 169.656482 
L 95.084802 171.20725 
L 91.984447 172.780735 
L 89.578113 174.236578 
L 87.600668 175.685335 
L 86.070726 177.090229 
L 85.072475 178.309164 
L 84.431832 179.431503 
L 84.067206 180.498943 
L 83.963054 181.48035 
L 84.075099 182.323803 
L 84.396537 183.175157 
L 84.919858 183.962053 
L 85.726424 184.766198 
L 86.959492 185.640178 
L 88.507118 186.462308 
L 90.573654 187.301022 
L 93.238449 188.132589 
L 96.592934 188.932103 
L 100.727584 189.684296 
L 105.743707 190.366952 
L 111.745209 190.958358 
L 118.838497 191.436622 
L 127.642548 191.795474 
L 137.845978 191.979088 
L 144.850909 191.997348 
L 144.850909 191.997348 
L 144.850909 190.982799 
L 144.751288 190.983054 
L 132.916375 190.901999 
L 123.174707 190.625512 
L 114.832015 190.174645 
L 107.778319 189.570948 
L 102.247667 188.887968 
L 97.696888 188.120953 
L 94.021202 187.291059 
L 91.133664 186.422955 
L 88.934739 185.542284 
L 87.346921 184.686717 
L 86.183822 183.818084 
L 85.46995 183.003727 
L 85.108067 182.249506 
L 84.977183 181.445372 
L 85.070792 180.662342 
L 85.396325 179.763627 
L 85.982099 178.778712 
L 86.916671 177.674567 
L 88.243011 176.470636 
L 89.947833 175.20991 
L 92.246037 173.796715 
L 94.974209 172.38274 
L 98.420854 170.850582 
L 102.343493 169.348903 
L 107.11244 167.774184 
L 112.406577 166.26897 
L 118.210315 164.849442 
L 124.508158 163.530349 
L 131.28461 162.325298 
L 139.099266 161.169719 
L 147.429903 160.176388 
L 156.255105 159.35929 
L 165.552632 158.731901 
L 175.299428 158.306428 
L 185.471521 158.094011 
L 196.044064 158.105025 
L 206.992125 158.347483 
L 219.112843 158.847079 
L 231.60499 159.575943 
L 245.303644 160.604825 
L 259.349915 161.891086 
L 273.703311 163.435131 
L 288.323411 165.241798 
L 297.032727 166.422984 
L 297.032727 165.398565 
L 297.032727 165.398565 
" style="fill:none;stroke:#ff0000;stroke-linecap:square;stroke-width:1.5;"/>
   </g>
   <g id="line2d_16">
    <path clip-path="url(#p642d3b9bf0)" d="M 285.872727 164.923172 
L 285.76634 166.582324 
L 286.021369 166.897618 
L 286.366124 167.033327 
L 286.366124 167.033327 
L 287.287576 167.043962 
L 287.60287 166.788933 
L 287.738579 166.444178 
L 287.738579 166.444178 
L 287.901818 165.186546 
L 287.901818 165.186546 
" style="fill:none;stroke:#0000ff;stroke-linecap:square;stroke-width:1.5;"/>
   </g>
   <g id="line2d_17">
    <path clip-path="url(#p642d3b9bf0)" d="M 133.690909 190.914879 
L 133.822021 189.257498 
L 134.119375 188.98176 
L 134.479949 188.896561 
L 134.479949 188.896561 
L 135.376691 189.017099 
L 135.652428 189.314452 
L 135.737628 189.675027 
L 135.737628 189.675027 
L 135.72 190.943086 
L 135.72 190.943086 
" style="fill:none;stroke:#0000ff;stroke-linecap:square;stroke-width:1.5;"/>
   </g>
   <g id="line2d_18">
    <path clip-path="url(#p642d3b9bf0)" d="M 203.187273 173.987708 
L 203.16174 173.183378 
L 203.085245 172.382286 
L 202.958096 171.587658 
L 202.780804 170.802695 
L 202.554084 170.030557 
L 202.278848 169.274353 
L 201.956205 168.537127 
L 201.587453 167.82185 
L 201.174079 167.1314 
L 200.717746 166.468558 
L 200.220291 165.835993 
L 199.683718 165.236252 
L 199.110188 164.67175 
L 198.502009 164.14476 
L 197.861631 163.657404 
L 197.191632 163.211645 
L 196.49471 162.809277 
L 195.773672 162.451921 
L 195.031421 162.141015 
L 194.270945 161.877812 
L 193.495307 161.663371 
L 192.707629 161.498555 
L 191.911084 161.38403 
L 191.10888 161.320254 
L 190.304245 161.307486 
L 189.500421 161.345777 
L 188.700644 161.434973 
L 187.908134 161.574714 
L 187.126082 161.764437 
L 186.357638 162.00338 
L 185.605896 162.290579 
L 184.873883 162.624878 
L 184.164545 163.004932 
L 183.480741 163.429209 
L 182.825223 163.896001 
L 182.20063 164.40343 
L 181.609478 164.94945 
L 181.054146 165.531865 
L 180.536872 166.148328 
L 180.059738 166.796358 
L 179.624665 167.473345 
L 179.233405 168.176563 
L 178.887534 168.90318 
L 178.588444 169.650271 
L 178.337339 170.414827 
L 178.135231 171.19377 
L 177.982934 171.983963 
L 177.881061 172.782225 
L 177.830021 173.58534 
L 177.830021 174.390076 
L 177.881061 175.193192 
L 177.982934 175.991453 
L 178.135231 176.781646 
L 178.337339 177.560589 
L 178.588444 178.325146 
L 178.887534 179.072236 
L 179.233405 179.798854 
L 179.624665 180.502072 
L 180.059738 181.179058 
L 180.536872 181.827088 
L 181.054146 182.443552 
L 181.609478 183.025966 
L 182.20063 183.571987 
L 182.825223 184.079415 
L 183.480741 184.546208 
L 184.164545 184.970485 
L 184.873883 185.350538 
L 185.605896 185.684838 
L 186.357638 185.972037 
L 187.126082 186.210979 
L 187.908134 186.400703 
L 188.700644 186.540444 
L 189.500421 186.629639 
L 190.304245 186.66793 
L 191.10888 186.655162 
L 191.911084 186.591387 
L 192.707629 186.476861 
L 193.495307 186.312046 
L 194.270945 186.097605 
L 195.031421 185.834402 
L 195.773672 185.523496 
L 196.49471 185.16614 
L 197.191632 184.763772 
L 197.861631 184.318012 
L 198.502009 183.830657 
L 199.110188 183.303667 
L 199.683718 182.739165 
L 200.220291 182.139424 
L 200.717746 181.506859 
L 201.174079 180.844017 
L 201.587453 180.153567 
L 201.956205 179.438289 
L 202.278848 178.701064 
L 202.554084 177.94486 
L 202.780804 177.172721 
L 202.958096 176.387758 
L 203.085245 175.593131 
L 203.16174 174.792039 
L 203.187273 173.987708 
" style="fill:none;stroke:#0000ff;stroke-linecap:square;stroke-width:1.5;"/>
   </g>
   <g id="line2d_19">
    <path clip-path="url(#p642d3b9bf0)" d="M 73.832727 173.987708 
L 398.487273 173.987708 
" style="fill:none;stroke:#0000ff;stroke-dasharray:5.55,2.4;stroke-dashoffset:0;stroke-width:1.5;"/>
   </g>
   <g id="line2d_20">
    <path clip-path="url(#p642d3b9bf0)" d="M 73.992623 180.093887 
L 398.202241 163.102781 
" style="fill:none;stroke:#ff0000;stroke-dasharray:5.55,2.4;stroke-dashoffset:0;stroke-width:1.5;"/>
   </g>
   <g id="line2d_21">
    <path clip-path="url(#p642d3b9bf0)" d="M 174.846904 165.600022 
L 164.023052 184.144864 
L 163.444137 184.508316 
L 162.777383 184.658909 
L 162.098456 184.579554 
L 161.484403 184.279256 
L 161.004911 183.792094 
L 160.912872 183.647201 
L 160.912872 183.647201 
L 150.991741 166.246537 
L 150.971102 165.583665 
L 151.165307 164.949543 
L 151.553611 164.411914 
L 152.094533 164.028209 
L 152.730287 163.839418 
L 152.854628 163.82773 
L 152.854628 163.82773 
L 173.618992 162.626646 
L 174.219907 162.90032 
L 174.701132 163.352445 
L 175.01171 163.935143 
L 175.118751 164.586709 
L 175.010919 165.238144 
L 174.846904 165.600022 
L 174.846904 165.600022 
" style="fill:none;stroke:#0000ff;stroke-linecap:square;stroke-width:1.5;"/>
   </g>
   <g id="line2d_22">
    <path clip-path="url(#p642d3b9bf0)" d="M 155.120838 183.760558 
L 145.431313 167.180429 
L 144.852399 166.816978 
L 144.185645 166.666385 
L 143.506718 166.74574 
L 142.892665 167.046038 
L 142.413173 167.533199 
L 142.321134 167.678093 
L 132.803479 184.36584 
L 132.778227 185.049031 
L 132.981305 185.70183 
L 133.389658 186.250131 
L 133.956931 186.631691 
L 134.618727 186.803196 
L 134.790257 186.810402 
L 134.790257 186.810402 
L 153.997285 186.702704 
L 154.601323 186.38297 
L 155.064942 185.880826 
L 155.335546 185.25324 
L 155.382435 184.571409 
L 155.200289 183.912687 
L 155.120838 183.760558 
L 155.120838 183.760558 
" style="fill:none;stroke:#0000ff;stroke-linecap:square;stroke-width:1.5;"/>
   </g>
   <g id="line2d_23">
    <path clip-path="url(#p642d3b9bf0)" d="M 135.539061 169.279533 
L 126.861753 184.106451 
L 126.282838 184.469902 
L 125.616084 184.620496 
L 124.937157 184.54114 
L 124.323105 184.240843 
L 123.843613 183.753681 
L 123.751574 183.608787 
L 123.751574 183.608787 
L 116.873114 171.479153 
L 116.851786 170.817786 
L 117.044385 170.184725 
L 117.430429 169.647295 
L 117.968862 169.262651 
L 118.4866 169.090136 
L 118.4866 169.090136 
L 134.056585 166.254586 
L 134.679751 166.445393 
L 135.210285 166.823915 
L 135.593453 167.351102 
L 135.789727 167.972568 
L 135.778859 168.624201 
L 135.56197 169.238777 
L 135.539061 169.279533 
L 135.539061 169.279533 
" style="fill:none;stroke:#0000ff;stroke-linecap:square;stroke-width:1.5;"/>
   </g>
   <g id="line2d_24">
    <path clip-path="url(#p642d3b9bf0)" d="M 117.541481 182.998046 
L 111.952262 173.519854 
L 111.373347 173.156403 
L 110.706593 173.00581 
L 110.027666 173.085165 
L 109.413613 173.385463 
L 108.934121 173.872624 
L 108.842083 174.017518 
L 108.842083 174.017518 
L 103.9485 182.704174 
L 103.923596 183.35759 
L 104.107802 183.984999 
L 104.48199 184.521243 
L 105.007298 184.910633 
L 105.629174 185.112731 
L 105.751381 185.127719 
L 105.751381 185.127719 
L 116.265637 185.983749 
L 116.880495 185.720054 
L 117.376178 185.270739 
L 117.698799 184.68465 
L 117.813287 184.0255 
L 117.707195 183.364947 
L 117.541481 182.998046 
L 117.541481 182.998046 
" style="fill:none;stroke:#0000ff;stroke-linecap:square;stroke-width:1.5;"/>
   </g>
   <g id="line2d_25">
    <path clip-path="url(#p642d3b9bf0)" d="M 206.317659 182.109258 
L 216.096312 165.374754 
L 216.675227 165.011303 
L 217.341981 164.86071 
L 218.020908 164.940065 
L 218.634961 165.240363 
L 219.114453 165.727524 
L 219.206491 165.872418 
L 219.206491 165.872418 
L 228.358262 181.944692 
L 228.375905 182.614022 
L 228.174748 183.252653 
L 227.776694 183.791046 
L 227.225087 184.170577 
L 226.57999 184.349919 
L 226.454238 184.359284 
L 226.454238 184.359284 
L 207.512923 185.073518 
L 206.921639 184.793292 
L 206.450282 184.339457 
L 206.147867 183.759209 
L 206.045842 183.112886 
L 206.154816 182.467698 
L 206.317659 182.109258 
L 206.317659 182.109258 
" style="fill:none;stroke:#0000ff;stroke-linecap:square;stroke-width:1.5;"/>
   </g>
   <g id="line2d_26">
    <path clip-path="url(#p642d3b9bf0)" d="M 225.398974 166.452657 
L 234.144604 181.397913 
L 234.723519 181.761364 
L 235.390273 181.911957 
L 236.0692 181.832602 
L 236.683253 181.532304 
L 237.162745 181.045143 
L 237.254783 180.900249 
L 237.254783 180.900249 
L 245.171098 166.973725 
L 245.192942 166.313492 
L 245.001548 165.681231 
L 244.617203 165.143956 
L 244.080642 164.758614 
L 243.448737 164.566046 
L 243.324984 164.553425 
L 226.640246 163.475719 
L 226.035422 163.746654 
L 225.550162 164.198032 
L 225.236235 164.7817 
L 225.127129 165.435393 
L 225.234483 166.089376 
L 225.398974 166.452657 
L 225.398974 166.452657 
" style="fill:none;stroke:#0000ff;stroke-linecap:square;stroke-width:1.5;"/>
   </g>
   <g id="line2d_27">
    <path clip-path="url(#p642d3b9bf0)" d="M 243.387969 180.422715 
L 250.779339 167.823106 
L 251.358254 167.459655 
L 252.025008 167.309062 
L 252.703935 167.388417 
L 253.317988 167.688715 
L 253.79748 168.175876 
L 253.889519 168.32077 
L 253.889519 168.32077 
L 260.716652 180.365173 
L 260.735361 181.032224 
L 260.536669 181.66927 
L 260.142067 182.207411 
L 259.594234 182.588442 
L 258.952421 182.771153 
L 258.827163 182.781344 
L 244.594749 183.390257 
L 244.000056 183.11232 
L 243.525216 182.659069 
L 243.219925 182.077944 
L 243.116136 181.429764 
L 243.224712 180.782369 
L 243.387969 180.422715 
L 243.387969 180.422715 
" style="fill:none;stroke:#0000ff;stroke-linecap:square;stroke-width:1.5;"/>
   </g>
   <g id="line2d_28">
    <path clip-path="url(#p642d3b9bf0)" d="M 260.331396 169.332974 
L 266.478742 179.777869 
L 267.057656 180.14132 
L 267.72441 180.291913 
L 268.403337 180.212558 
L 269.01739 179.91226 
L 269.496882 179.425099 
L 269.588921 179.280205 
L 269.588921 179.280205 
L 274.882842 169.903628 
L 274.904966 169.215376 
L 274.695632 168.559359 
L 274.27895 168.011129 
L 273.70291 167.633827 
L 273.114937 167.478093 
L 273.114937 167.478093 
L 261.679468 166.331021 
L 261.050964 166.574743 
L 260.536988 167.010917 
L 260.194269 167.591401 
L 260.060632 168.252128 
L 260.150828 168.920172 
L 260.331396 169.332974 
L 260.331396 169.332974 
" style="fill:none;stroke:#0000ff;stroke-linecap:square;stroke-width:1.5;"/>
   </g>
   <g id="line2d_29">
    <path clip-path="url(#p642d3b9bf0)" d="M 275.732772 178.784198 
L 280.327701 171.028167 
L 280.906616 170.664716 
L 281.57337 170.514123 
L 282.252297 170.593478 
L 282.866349 170.893776 
L 283.345842 171.380937 
L 283.43788 171.525831 
L 283.43788 171.525831 
L 287.623298 178.994512 
L 287.642104 179.661352 
L 287.443638 180.298252 
L 287.049353 180.836368 
L 286.501868 181.217536 
L 285.860358 181.400556 
L 285.735146 181.410823 
L 285.735146 181.410823 
L 276.940612 181.752039 
L 276.345606 181.474313 
L 275.870445 181.021118 
L 275.564889 180.439912 
L 275.460938 179.791562 
L 275.569476 179.143964 
L 275.732772 178.784198 
L 275.732772 178.784198 
" style="fill:none;stroke:#0000ff;stroke-linecap:square;stroke-width:1.5;"/>
   </g>
   <g id="patch_3">
    <path d="M 57.6 307.584 
L 57.6 41.472 
" style="fill:none;stroke:#000000;stroke-linecap:square;stroke-linejoin:miter;stroke-width:0.8;"/>
   </g>
   <g id="patch_4">
    <path d="M 414.72 307.584 
L 414.72 41.472 
" style="fill:none;stroke:#000000;stroke-linecap:square;stroke-linejoin:miter;stroke-width:0.8;"/>
   </g>
   <g id="patch_5">
    <path d="M 57.6 307.584 
L 414.72 307.584 
" style="fill:none;stroke:#000000;stroke-linecap:square;stroke-linejoin:miter;stroke-width:0.8;"/>
   </g>
   <g id="patch_6">
    <path d="M 57.6 41.472 
L 414.72 41.472 
" style="fill:none;stroke:#000000;stroke-linecap:square;stroke-linejoin:miter;stroke-width:0.8;"/>
   </g>
   <g id="text_13">
    <!-- Rib generation Example -->
    <g transform="translate(164.038125 35.472)scale(0.12 -0.12)">
     <defs>
      <path d="M 44.390625 34.1875 
Q 47.5625 33.109375 50.5625 29.59375 
Q 53.5625 26.078125 56.59375 19.921875 
L 66.609375 0 
L 56 0 
L 46.6875 18.703125 
Q 43.0625 26.03125 39.671875 28.421875 
Q 36.28125 30.8125 30.421875 30.8125 
L 19.671875 30.8125 
L 19.671875 0 
L 9.8125 0 
L 9.8125 72.90625 
L 32.078125 72.90625 
Q 44.578125 72.90625 50.734375 67.671875 
Q 56.890625 62.453125 56.890625 51.90625 
Q 56.890625 45.015625 53.6875 40.46875 
Q 50.484375 35.9375 44.390625 34.1875 
z
M 19.671875 64.796875 
L 19.671875 38.921875 
L 32.078125 38.921875 
Q 39.203125 38.921875 42.84375 42.21875 
Q 46.484375 45.515625 46.484375 51.90625 
Q 46.484375 58.296875 42.84375 61.546875 
Q 39.203125 64.796875 32.078125 64.796875 
z
" id="DejaVuSans-82"/>
      <path d="M 9.421875 54.6875 
L 18.40625 54.6875 
L 18.40625 0 
L 9.421875 0 
z
M 9.421875 75.984375 
L 18.40625 75.984375 
L 18.40625 64.59375 
L 9.421875 64.59375 
z
" id="DejaVuSans-105"/>
      <path d="M 48.6875 27.296875 
Q 48.6875 37.203125 44.609375 42.84375 
Q 40.53125 48.484375 33.40625 48.484375 
Q 26.265625 48.484375 22.1875 42.84375 
Q 18.109375 37.203125 18.109375 27.296875 
Q 18.109375 17.390625 22.1875 11.75 
Q 26.265625 6.109375 33.40625 6.109375 
Q 40.53125 6.109375 44.609375 11.75 
Q 48.6875 17.390625 48.6875 27.296875 
z
M 18.109375 46.390625 
Q 20.953125 51.265625 25.265625 53.625 
Q 29.59375 56 35.59375 56 
Q 45.5625 56 51.78125 48.09375 
Q 58.015625 40.1875 58.015625 27.296875 
Q 58.015625 14.40625 51.78125 6.484375 
Q 45.5625 -1.421875 35.59375 -1.421875 
Q 29.59375 -1.421875 25.265625 0.953125 
Q 20.953125 3.328125 18.109375 8.203125 
L 18.109375 0 
L 9.078125 0 
L 9.078125 75.984375 
L 18.109375 75.984375 
z
" id="DejaVuSans-98"/>
      <path id="DejaVuSans-32"/>
      <path d="M 45.40625 27.984375 
Q 45.40625 37.75 41.375 43.109375 
Q 37.359375 48.484375 30.078125 48.484375 
Q 22.859375 48.484375 18.828125 43.109375 
Q 14.796875 37.75 14.796875 27.984375 
Q 14.796875 18.265625 18.828125 12.890625 
Q 22.859375 7.515625 30.078125 7.515625 
Q 37.359375 7.515625 41.375 12.890625 
Q 45.40625 18.265625 45.40625 27.984375 
z
M 54.390625 6.78125 
Q 54.390625 -7.171875 48.1875 -13.984375 
Q 42 -20.796875 29.203125 -20.796875 
Q 24.46875 -20.796875 20.265625 -20.09375 
Q 16.0625 -19.390625 12.109375 -17.921875 
L 12.109375 -9.1875 
Q 16.0625 -11.328125 19.921875 -12.34375 
Q 23.78125 -13.375 27.78125 -13.375 
Q 36.625 -13.375 41.015625 -8.765625 
Q 45.40625 -4.15625 45.40625 5.171875 
L 45.40625 9.625 
Q 42.625 4.78125 38.28125 2.390625 
Q 33.9375 0 27.875 0 
Q 17.828125 0 11.671875 7.65625 
Q 5.515625 15.328125 5.515625 27.984375 
Q 5.515625 40.671875 11.671875 48.328125 
Q 17.828125 56 27.875 56 
Q 33.9375 56 38.28125 53.609375 
Q 42.625 51.21875 45.40625 46.390625 
L 45.40625 54.6875 
L 54.390625 54.6875 
z
" id="DejaVuSans-103"/>
      <path d="M 56.203125 29.59375 
L 56.203125 25.203125 
L 14.890625 25.203125 
Q 15.484375 15.921875 20.484375 11.0625 
Q 25.484375 6.203125 34.421875 6.203125 
Q 39.59375 6.203125 44.453125 7.46875 
Q 49.3125 8.734375 54.109375 11.28125 
L 54.109375 2.78125 
Q 49.265625 0.734375 44.1875 -0.34375 
Q 39.109375 -1.421875 33.890625 -1.421875 
Q 20.796875 -1.421875 13.15625 6.1875 
Q 5.515625 13.8125 5.515625 26.8125 
Q 5.515625 40.234375 12.765625 48.109375 
Q 20.015625 56 32.328125 56 
Q 43.359375 56 49.78125 48.890625 
Q 56.203125 41.796875 56.203125 29.59375 
z
M 47.21875 32.234375 
Q 47.125 39.59375 43.09375 43.984375 
Q 39.0625 48.390625 32.421875 48.390625 
Q 24.90625 48.390625 20.390625 44.140625 
Q 15.875 39.890625 15.1875 32.171875 
z
" id="DejaVuSans-101"/>
      <path d="M 54.890625 33.015625 
L 54.890625 0 
L 45.90625 0 
L 45.90625 32.71875 
Q 45.90625 40.484375 42.875 44.328125 
Q 39.84375 48.1875 33.796875 48.1875 
Q 26.515625 48.1875 22.3125 43.546875 
Q 18.109375 38.921875 18.109375 30.90625 
L 18.109375 0 
L 9.078125 0 
L 9.078125 54.6875 
L 18.109375 54.6875 
L 18.109375 46.1875 
Q 21.34375 51.125 25.703125 53.5625 
Q 30.078125 56 35.796875 56 
Q 45.21875 56 50.046875 50.171875 
Q 54.890625 44.34375 54.890625 33.015625 
z
" id="DejaVuSans-110"/>
      <path d="M 41.109375 46.296875 
Q 39.59375 47.171875 37.8125 47.578125 
Q 36.03125 48 33.890625 48 
Q 26.265625 48 22.1875 43.046875 
Q 18.109375 38.09375 18.109375 28.8125 
L 18.109375 0 
L 9.078125 0 
L 9.078125 54.6875 
L 18.109375 54.6875 
L 18.109375 46.1875 
Q 20.953125 51.171875 25.484375 53.578125 
Q 30.03125 56 36.53125 56 
Q 37.453125 56 38.578125 55.875 
Q 39.703125 55.765625 41.0625 55.515625 
z
" id="DejaVuSans-114"/>
      <path d="M 34.28125 27.484375 
Q 23.390625 27.484375 19.1875 25 
Q 14.984375 22.515625 14.984375 16.5 
Q 14.984375 11.71875 18.140625 8.90625 
Q 21.296875 6.109375 26.703125 6.109375 
Q 34.1875 6.109375 38.703125 11.40625 
Q 43.21875 16.703125 43.21875 25.484375 
L 43.21875 27.484375 
z
M 52.203125 31.203125 
L 52.203125 0 
L 43.21875 0 
L 43.21875 8.296875 
Q 40.140625 3.328125 35.546875 0.953125 
Q 30.953125 -1.421875 24.3125 -1.421875 
Q 15.921875 -1.421875 10.953125 3.296875 
Q 6 8.015625 6 15.921875 
Q 6 25.140625 12.171875 29.828125 
Q 18.359375 34.515625 30.609375 34.515625 
L 43.21875 34.515625 
L 43.21875 35.40625 
Q 43.21875 41.609375 39.140625 45 
Q 35.0625 48.390625 27.6875 48.390625 
Q 23 48.390625 18.546875 47.265625 
Q 14.109375 46.140625 10.015625 43.890625 
L 10.015625 52.203125 
Q 14.9375 54.109375 19.578125 55.046875 
Q 24.21875 56 28.609375 56 
Q 40.484375 56 46.34375 49.84375 
Q 52.203125 43.703125 52.203125 31.203125 
z
" id="DejaVuSans-97"/>
      <path d="M 18.3125 70.21875 
L 18.3125 54.6875 
L 36.8125 54.6875 
L 36.8125 47.703125 
L 18.3125 47.703125 
L 18.3125 18.015625 
Q 18.3125 11.328125 20.140625 9.421875 
Q 21.96875 7.515625 27.59375 7.515625 
L 36.8125 7.515625 
L 36.8125 0 
L 27.59375 0 
Q 17.1875 0 13.234375 3.875 
Q 9.28125 7.765625 9.28125 18.015625 
L 9.28125 47.703125 
L 2.6875 47.703125 
L 2.6875 54.6875 
L 9.28125 54.6875 
L 9.28125 70.21875 
z
" id="DejaVuSans-116"/>
      <path d="M 30.609375 48.390625 
Q 23.390625 48.390625 19.1875 42.75 
Q 14.984375 37.109375 14.984375 27.296875 
Q 14.984375 17.484375 19.15625 11.84375 
Q 23.34375 6.203125 30.609375 6.203125 
Q 37.796875 6.203125 41.984375 11.859375 
Q 46.1875 17.53125 46.1875 27.296875 
Q 46.1875 37.015625 41.984375 42.703125 
Q 37.796875 48.390625 30.609375 48.390625 
z
M 30.609375 56 
Q 42.328125 56 49.015625 48.375 
Q 55.71875 40.765625 55.71875 27.296875 
Q 55.71875 13.875 49.015625 6.21875 
Q 42.328125 -1.421875 30.609375 -1.421875 
Q 18.84375 -1.421875 12.171875 6.21875 
Q 5.515625 13.875 5.515625 27.296875 
Q 5.515625 40.765625 12.171875 48.375 
Q 18.84375 56 30.609375 56 
z
" id="DejaVuSans-111"/>
      <path d="M 9.8125 72.90625 
L 55.90625 72.90625 
L 55.90625 64.59375 
L 19.671875 64.59375 
L 19.671875 43.015625 
L 54.390625 43.015625 
L 54.390625 34.71875 
L 19.671875 34.71875 
L 19.671875 8.296875 
L 56.78125 8.296875 
L 56.78125 0 
L 9.8125 0 
z
" id="DejaVuSans-69"/>
      <path d="M 54.890625 54.6875 
L 35.109375 28.078125 
L 55.90625 0 
L 45.3125 0 
L 29.390625 21.484375 
L 13.484375 0 
L 2.875 0 
L 24.125 28.609375 
L 4.6875 54.6875 
L 15.28125 54.6875 
L 29.78125 35.203125 
L 44.28125 54.6875 
z
" id="DejaVuSans-120"/>
      <path d="M 52 44.1875 
Q 55.375 50.25 60.0625 53.125 
Q 64.75 56 71.09375 56 
Q 79.640625 56 84.28125 50.015625 
Q 88.921875 44.046875 88.921875 33.015625 
L 88.921875 0 
L 79.890625 0 
L 79.890625 32.71875 
Q 79.890625 40.578125 77.09375 44.375 
Q 74.3125 48.1875 68.609375 48.1875 
Q 61.625 48.1875 57.5625 43.546875 
Q 53.515625 38.921875 53.515625 30.90625 
L 53.515625 0 
L 44.484375 0 
L 44.484375 32.71875 
Q 44.484375 40.625 41.703125 44.40625 
Q 38.921875 48.1875 33.109375 48.1875 
Q 26.21875 48.1875 22.15625 43.53125 
Q 18.109375 38.875 18.109375 30.90625 
L 18.109375 0 
L 9.078125 0 
L 9.078125 54.6875 
L 18.109375 54.6875 
L 18.109375 46.1875 
Q 21.1875 51.21875 25.484375 53.609375 
Q 29.78125 56 35.6875 56 
Q 41.65625 56 45.828125 52.96875 
Q 50 49.953125 52 44.1875 
z
" id="DejaVuSans-109"/>
      <path d="M 18.109375 8.203125 
L 18.109375 -20.796875 
L 9.078125 -20.796875 
L 9.078125 54.6875 
L 18.109375 54.6875 
L 18.109375 46.390625 
Q 20.953125 51.265625 25.265625 53.625 
Q 29.59375 56 35.59375 56 
Q 45.5625 56 51.78125 48.09375 
Q 58.015625 40.1875 58.015625 27.296875 
Q 58.015625 14.40625 51.78125 6.484375 
Q 45.5625 -1.421875 35.59375 -1.421875 
Q 29.59375 -1.421875 25.265625 0.953125 
Q 20.953125 3.328125 18.109375 8.203125 
z
M 48.6875 27.296875 
Q 48.6875 37.203125 44.609375 42.84375 
Q 40.53125 48.484375 33.40625 48.484375 
Q 26.265625 48.484375 22.1875 42.84375 
Q 18.109375 37.203125 18.109375 27.296875 
Q 18.109375 17.390625 22.1875 11.75 
Q 26.265625 6.109375 33.40625 6.109375 
Q 40.53125 6.109375 44.609375 11.75 
Q 48.6875 17.390625 48.6875 27.296875 
z
" id="DejaVuSans-112"/>
      <path d="M 9.421875 75.984375 
L 18.40625 75.984375 
L 18.40625 0 
L 9.421875 0 
z
" id="DejaVuSans-108"/>
     </defs>
     <use xlink:href="#DejaVuSans-82"/>
     <use x="69.482422" xlink:href="#DejaVuSans-105"/>
     <use x="97.265625" xlink:href="#DejaVuSans-98"/>
     <use x="160.742188" xlink:href="#DejaVuSans-32"/>
     <use x="192.529297" xlink:href="#DejaVuSans-103"/>
     <use x="256.005859" xlink:href="#DejaVuSans-101"/>
     <use x="317.529297" xlink:href="#DejaVuSans-110"/>
     <use x="380.908203" xlink:href="#DejaVuSans-101"/>
     <use x="442.431641" xlink:href="#DejaVuSans-114"/>
     <use x="483.544922" xlink:href="#DejaVuSans-97"/>
     <use x="544.824219" xlink:href="#DejaVuSans-116"/>
     <use x="584.033203" xlink:href="#DejaVuSans-105"/>
     <use x="611.816406" xlink:href="#DejaVuSans-111"/>
     <use x="672.998047" xlink:href="#DejaVuSans-110"/>
     <use x="736.376953" xlink:href="#DejaVuSans-32"/>
     <use x="768.164062" xlink:href="#DejaVuSans-69"/>
     <use x="831.347656" xlink:href="#DejaVuSans-120"/>
     <use x="890.527344" xlink:href="#DejaVuSans-97"/>
     <use x="951.806641" xlink:href="#DejaVuSans-109"/>
     <use x="1049.21875" xlink:href="#DejaVuSans-112"/>
     <use x="1112.695312" xlink:href="#DejaVuSans-108"/>
     <use x="1140.478516" xlink:href="#DejaVuSans-101"/>
    </g>
   </g>
  </g>
 </g>
 <defs>
  <clipPath id="p642d3b9bf0">
   <rect height="266.112" width="357.12" x="57.6" y="41.472"/>
  </clipPath>
 </defs>
</svg>
