<?xml version="1.0" encoding="utf-8" standalone="no"?>
<!DOCTYPE svg PUBLIC "-//W3C//DTD SVG 1.1//EN"
  "http://www.w3.org/Graphics/SVG/1.1/DTD/svg11.dtd">
<!-- Created with matplotlib (https://matplotlib.org/) -->
<svg height="345.6pt" version="1.1" viewBox="0 0 357.525398 345.6" width="357.525398pt" xmlns="http://www.w3.org/2000/svg" xmlns:xlink="http://www.w3.org/1999/xlink">
 <metadata>
  <rdf:RDF xmlns:cc="http://creativecommons.org/ns#" xmlns:dc="http://purl.org/dc/elements/1.1/" xmlns:rdf="http://www.w3.org/1999/02/22-rdf-syntax-ns#">
   <cc:Work>
    <dc:type rdf:resource="http://purl.org/dc/dcmitype/StillImage"/>
    <dc:date>2025-09-04T23:57:05.231352</dc:date>
    <dc:format>image/svg+xml</dc:format>
    <dc:creator>
     <cc:Agent>
      <dc:title>Matplotlib v3.3.2, https://matplotlib.org/</dc:title>
     </cc:Agent>
    </dc:creator>
   </cc:Work>
  </rdf:RDF>
 </metadata>
 <defs>
  <style type="text/css">*{stroke-linecap:butt;stroke-linejoin:round;}</style>
 </defs>
 <g id="figure_1">
  <g id="patch_1">
   <path d="M 0 345.6 
L 357.525398 345.6 
L 357.525398 0 
L 0 0 
z
" style="fill:#ffffff;"/>
  </g>
  <g id="axes_1">
   <g id="patch_2">
    <path d="M 0 345.6 
L 357.525398 345.6 
L 357.525398 0 
L 0 0 
z
" style="fill:#212830;"/>
   </g>
   <g id="line2d_1">
    <path clip-path="url(#p02e4ac78ae)" d="M 37.937251 329.890909 
L 102.938035 221.556269 
" style="fill:none;stroke:#ffffff;stroke-linecap:square;stroke-width:0.72;"/>
   </g>
   <g id="patch_3">
    <path clip-path="url(#p02e4ac78ae)" d="M 232.956937 286.28405 
C 232.812468 286.25396 232.668 286.22387 232.523521 286.193831 
C 232.379042 286.163792 232.234552 286.133803 232.090055 286.103851 
C 231.945558 286.073899 231.801053 286.043984 231.65654 286.014109 
C 231.512027 285.984235 231.367505 285.954401 231.222976 285.924606 
C 231.078446 285.894811 230.933909 285.865056 230.789363 285.83534 
C 230.644817 285.805625 230.500263 285.775949 230.355701 285.746313 
C 230.211139 285.716676 230.066569 285.687079 229.921991 285.657522 
C 229.777413 285.627965 229.632826 285.598447 229.488232 285.568969 
C 229.343638 285.539491 229.199036 285.510052 229.054425 285.480653 
C 228.909815 285.451253 228.765197 285.421893 228.620571 285.392573 
C 228.475944 285.363253 228.33131 285.333972 228.186668 285.30473 
C 228.042026 285.275488 227.897376 285.246286 227.752718 285.217123 
C 227.60806 285.18796 227.463394 285.158836 227.31872 285.129752 
C 227.174046 285.100668 227.029364 285.071623 226.884675 285.042617 
C 226.739985 285.013611 226.595288 284.984645 226.450582 284.955717 
C 226.305877 284.92679 226.161164 284.897902 226.016443 284.869053 
C 225.871722 284.840204 225.726994 284.811394 225.582257 284.782623 
C 225.437521 284.753853 225.292776 284.725121 225.148024 284.696429 
C 225.003272 284.667736 224.858513 284.639083 224.713745 284.610468 
C 224.568978 284.581854 224.424203 284.553279 224.27942 284.524743 
C 224.134637 284.496206 223.989846 284.467709 223.845048 284.439251 
C 223.70025 284.410793 223.555444 284.382373 223.410631 284.353993 
C 223.265817 284.325612 223.120996 284.297271 222.976167 284.268968 
C 222.831339 284.240666 222.686503 284.212402 222.541659 284.184177 
C 222.396815 284.155952 222.251963 284.127766 222.107104 284.099619 
C 221.962245 284.071472 221.817379 284.043364 221.672505 284.015294 
C 221.527631 283.987224 221.382749 283.959194 221.23786 283.931201 
C 221.092971 283.903209 220.948075 283.875256 220.803171 283.847341 
C 220.658267 283.819426 220.513356 283.79155 220.368437 283.763713 
C 220.223518 283.735876 220.078592 283.708077 219.933658 283.680317 
C 219.788724 283.652557 219.643783 283.624835 219.498835 283.597152 
C 219.353887 283.569469 219.208931 283.541825 219.063968 283.514219 
C 218.919005 283.486613 218.774034 283.459046 218.629056 283.431517 
C 218.484079 283.403988 218.339094 283.376497 218.194101 283.349045 
C 218.049109 283.321594 217.904109 283.29418 217.759102 283.266805 
C 217.614096 283.23943 217.469081 283.212093 217.32406 283.184795 
C 217.179039 283.157496 217.03401 283.130236 216.888974 283.103015 
C 216.743939 283.075793 216.598896 283.04861 216.453846 283.021465 
C 216.308795 282.99432 216.163738 282.967213 216.018674 282.940144 
C 215.873609 282.913076 215.728538 282.886046 215.583459 282.859054 
C 215.43838 282.832062 215.293295 282.805108 215.148202 282.778192 
C 215.003109 282.751276 214.858009 282.724399 214.712902 282.697559 
C 214.567795 282.67072 214.422681 282.643919 214.27756 282.617155 
C 214.132439 282.590392 213.987311 282.563667 213.842176 282.53698 
C 213.697041 282.510293 213.551899 282.483644 213.40675 282.457033 
C 213.261601 282.430422 213.116445 282.403848 212.971282 282.377313 
C 212.826119 282.350778 212.680949 282.324281 212.535773 282.297822 
C 212.390596 282.271363 212.245412 282.244941 212.100222 282.218558 
C 211.955031 282.192174 211.809834 282.165829 211.66463 282.139521 
C 211.519425 282.113214 211.374214 282.086944 211.228996 282.060712 
C 211.083779 282.03448 210.938554 282.008285 210.793322 281.982129 
C 210.648091 281.955972 210.502853 281.929853 210.357608 281.903772 
C 210.212363 281.877691 210.067111 281.851648 209.921852 281.825642 
C 209.776594 281.799636 209.631329 281.773667 209.486057 281.747737 
C 209.340785 281.721806 209.195506 281.695912 209.050221 281.670056 
C 208.904936 281.644201 208.759644 281.618382 208.614345 281.592601 
C 208.469047 281.56682 208.323741 281.541076 208.17843 281.51537 
C 208.033118 281.489664 207.887799 281.463994 207.742475 281.438362 
C 207.59715 281.412731 207.451818 281.387136 207.30648 281.361578 
C 207.161142 281.336021 207.015797 281.310501 206.870446 281.285017 
C 206.725095 281.259534 206.579738 281.234088 206.434374 281.208679 
C 206.28901 281.183269 206.143639 281.157897 205.998262 281.132562 
C 205.852885 281.107227 205.707502 281.081928 205.562112 281.056667 
C 205.416722 281.031405 205.271326 281.006181 205.125924 280.980993 
C 204.980521 280.955805 204.835112 280.930654 204.689697 280.90554 
C 204.544282 280.880426 204.39886 280.855348 204.253432 280.830307 
C 204.108004 280.805266 203.96257 280.780262 203.817129 280.755294 
C 203.671689 280.730326 203.526242 280.705395 203.380789 280.680501 
C 203.235336 280.655606 203.089877 280.630748 202.944411 280.605926 
C 202.798946 280.581104 202.653474 280.556319 202.507996 280.53157 
C 202.362518 280.506821 202.217034 280.482109 202.071544 280.457433 
C 201.926054 280.432756 201.780557 280.408116 201.635055 280.383513 
C 201.489552 280.358909 201.344044 280.334341 201.198529 280.30981 
C 201.053014 280.285279 200.907494 280.260783 200.761967 280.236324 
C 200.61644 280.211865 200.470907 280.187442 200.325368 280.163055 
C 200.179829 280.138668 200.034284 280.114318 199.888733 280.090003 
C 199.743182 280.065689 199.597625 280.04141 199.452061 280.017168 
C 199.306498 279.992925 199.160929 279.968719 199.015354 279.944549 
C 198.869779 279.920379 198.724198 279.896245 198.578611 279.872146 
C 198.433024 279.848048 198.287431 279.823987 198.141832 279.799961 
C 197.996233 279.775935 197.850628 279.751945 197.705017 279.727991 
C 197.559406 279.704037 197.413789 279.68012 197.268167 279.656238 
C 197.122544 279.632356 196.976915 279.608511 196.831281 279.584701 
C 196.685647 279.560891 196.540006 279.537118 196.39436 279.51338 
C 196.248714 279.489643 196.103062 279.465941 195.957404 279.442276 
C 195.811746 279.41861 195.666082 279.394981 195.520412 279.371387 
C 195.374743 279.347794 195.229067 279.324236 195.083386 279.300714 
C 194.937705 279.277193 194.792018 279.253707 194.646325 279.230258 
C 194.500632 279.206808 194.354934 279.183394 194.209229 279.160017 
C 194.063525 279.136639 193.917815 279.113297 193.772099 279.089991 
C 193.626383 279.066686 193.480661 279.043416 193.334934 279.020182 
C 193.189207 278.996948 193.043474 278.97375 192.897735 278.950588 
C 192.751996 278.927426 192.606252 278.904299 192.460502 278.881209 
C 192.314751 278.858119 192.168996 278.835064 192.023234 278.812046 
C 191.877473 278.789028 191.731706 278.766045 191.585933 278.743098 
C 191.44016 278.720152 191.294382 278.697241 191.148598 278.674366 
C 191.002813 278.65149 190.857024 278.628651 190.711229 278.605847 
C 190.565433 278.583043 190.419633 278.560275 190.273826 278.537543 
C 190.12802 278.51481 189.982208 278.492113 189.836391 278.469452 
C 189.690574 278.44679 189.544751 278.424164 189.398922 278.401574 
C 189.253094 278.378983 189.10726 278.356428 188.961421 278.333907 
C 188.815582 278.311387 188.669737 278.288903 188.523887 278.266453 
C 188.378037 278.244003 188.232181 278.221589 188.08632 278.19921 
C 187.940459 278.17683 187.794593 278.154486 187.648721 278.132177 
C 187.502849 278.109868 187.356972 278.087593 187.21109 278.065354 
C 187.065208 278.043115 186.91932 278.02091 186.773427 277.998741 
C 186.627534 277.976571 186.481636 277.954436 186.335732 277.932336 
C 186.189828 277.910236 186.04392 277.88817 185.898006 277.866139 
C 185.752092 277.844109 185.606172 277.822112 185.460248 277.800151 
C 185.314323 277.778189 185.168394 277.756262 185.022459 277.734369 
C 184.876524 277.712476 184.730584 277.690618 184.584639 277.668794 
C 184.438694 277.64697 184.292743 277.62518 184.146788 277.603425 
C 184.000833 277.58167 183.854872 277.559948 183.708907 277.538261 
C 183.562941 277.516574 183.41697 277.494921 183.270995 277.473303 
C 183.125019 277.451684 182.979038 277.430099 182.833052 277.408548 
C 182.687067 277.386997 182.541076 277.36548 182.39508 277.343998 
C 182.249084 277.322515 182.103083 277.301067 181.957078 277.279652 
C 181.811072 277.258238 181.665061 277.236859 181.519045 277.215513 
C 181.373029 277.194168 181.227008 277.172858 181.080982 277.151582 
C 180.934956 277.130306 180.788925 277.109065 180.642888 277.087859 
C 180.496852 277.066653 180.350811 277.045482 180.204765 277.024346 
C 180.058718 277.00321 179.912667 276.982109 179.76661 276.961044 
C 179.620554 276.939979 179.474492 276.918949 179.328425 276.897954 
C 179.182359 276.87696 179.036287 276.856001 178.89021 276.835078 
C 178.744133 276.814155 178.598051 276.793268 178.451964 276.772416 
C 178.305876 276.751565 178.159784 276.73075 178.013687 276.709971 
C 177.867589 276.689191 177.721487 276.668448 177.575379 276.647742 
C 177.429271 276.627035 177.283158 276.606365 177.13704 276.585731 
C 176.990922 276.565098 176.844799 276.544501 176.698671 276.52394 
C 176.552542 276.50338 176.406409 276.482857 176.26027 276.46237 
C 176.114131 276.441883 175.967987 276.421434 175.821838 276.401021 
C 175.675689 276.380609 175.529535 276.360234 175.383375 276.339896 
C 175.237216 276.319558 175.091051 276.299258 174.944881 276.278995 
C 174.798711 276.258732 174.652536 276.238506 174.506356 276.218319 
C 174.360175 276.198131 174.21399 276.177982 174.067799 276.15787 
C 173.921608 276.137758 173.775412 276.117684 173.629211 276.097647 
C 173.48301 276.077611 173.336803 276.057613 173.190592 276.037652 
C 173.04438 276.017692 172.898163 275.997769 172.751942 275.977885 
C 172.60572 275.958 172.459493 275.938153 172.31326 275.918344 
C 172.167028 275.898536 172.020791 275.878765 171.874548 275.859032 
C 171.728306 275.839299 171.582058 275.819604 171.435805 275.799947 
C 171.289553 275.78029 171.143295 275.760671 170.997032 275.74109 
C 170.850769 275.721509 170.704501 275.701966 170.558228 275.682461 
C 170.411955 275.662956 170.265677 275.643489 170.119393 275.62406 
C 169.97311 275.604631 169.826822 275.585241 169.680529 275.565888 
C 169.534235 275.546535 169.387937 275.52722 169.241634 275.507944 
C 169.09533 275.488667 168.949022 275.469429 168.802709 275.450229 
C 168.656395 275.431028 168.510077 275.411866 168.363754 275.392742 
C 168.21743 275.373618 168.071102 275.354532 167.924769 275.335484 
C 167.778435 275.316436 167.632097 275.297427 167.485754 275.278455 
C 167.339411 275.259484 167.193062 275.240551 167.046709 275.221656 
C 166.900356 275.202761 166.753998 275.183904 166.607635 275.165086 
C 166.461272 275.146267 166.314905 275.127487 166.168532 275.108745 
C 166.022159 275.090003 165.875782 275.071299 165.729399 275.052633 
C 165.583017 275.033968 165.436629 275.01534 165.290237 274.99675 
C 165.143845 274.978161 164.997448 274.959609 164.851046 274.941096 
C 164.704645 274.922582 164.558238 274.904106 164.411827 274.885668 
C 164.265416 274.86723 164.118999 274.84883 163.972579 274.830467 
C 163.826158 274.812105 163.679732 274.79378 163.533302 274.775493 
C 163.386872 274.757206 163.240437 274.738956 163.093998 274.720744 
C 162.947558 274.702532 162.801114 274.684357 162.654665 274.66622 
C 162.508216 274.648083 162.361763 274.629983 162.215304 274.61192 
C 162.068846 274.593858 161.922384 274.575833 161.775916 274.557844 
C 161.629449 274.539856 161.482977 274.521905 161.336501 274.503991 
C 161.190025 274.486078 161.043544 274.468201 160.897058 274.450361 
C 160.750573 274.432521 160.604083 274.414718 160.457589 274.396952 
C 160.311094 274.379186 160.164596 274.361457 160.018092 274.343765 
C 159.871589 274.326073 159.725081 274.308417 159.578569 274.290798 
C 159.432057 274.273179 159.28554 274.255597 159.13902 274.238051 
C 158.992499 274.220506 158.845973 274.202996 158.699444 274.185524 
C 158.552914 274.168051 158.40638 274.150615 158.259842 274.133215 
C 158.113304 274.115816 157.966761 274.098453 157.820214 274.081127 
C 157.673667 274.063801 157.527115 274.046511 157.38056 274.029259 
C 157.234004 274.012007 157.087444 273.994791 156.94088 273.977613 
C 156.794315 273.960435 156.647746 273.943294 156.501173 273.92619 
C 156.3546 273.909086 156.208023 273.89202 156.061441 273.874991 
C 155.914859 273.857962 155.768273 273.840971 155.621682 273.824017 
C 155.475092 273.807063 155.328497 273.790147 155.181898 273.773269 
C 155.035299 273.756391 154.888695 273.739551 154.742087 273.722749 
C 154.595479 273.705946 154.448867 273.689182 154.30225 273.672456 
C 154.155633 273.65573 154.009012 273.639042 153.862387 273.622392 
C 153.715762 273.605743 153.569132 273.589132 153.422498 273.572559 
C 153.275864 273.555987 153.129225 273.539453 152.982582 273.522957 
C 152.835939 273.506462 152.689292 273.490005 152.542641 273.473587 
C 152.395989 273.45717 152.249333 273.440791 152.102673 273.424451 
C 151.956013 273.408111 151.809348 273.391811 151.662679 273.375549 
C 151.51601 273.359288 151.369336 273.343065 151.222659 273.326883 
C 151.075981 273.3107 150.929299 273.294557 150.782612 273.278453 
C 150.635926 273.26235 150.489235 273.246286 150.342539 273.230263 
C 150.195844 273.21424 150.049144 273.198257 149.90244 273.182315 
C 149.755736 273.166373 149.609027 273.150472 149.462314 273.134611 
C 149.315601 273.118751 149.168884 273.102932 149.022162 273.087154 
C 148.87544 273.071376 148.728714 273.05564 148.581983 273.039945 
C 148.435252 273.024251 148.288517 273.008598 148.141777 272.992988 
C 147.995037 272.977377 147.848293 272.961809 147.701544 272.946284 
C 147.554795 272.930758 147.408042 272.915275 147.261284 272.899835 
C 147.114527 272.884396 146.967764 272.868999 146.820997 272.853645 
C 146.674231 272.838292 146.527459 272.822982 146.380683 272.807716 
C 146.233908 272.79245 146.087127 272.777227 145.940342 272.762049 
C 145.793557 272.746871 145.646768 272.731737 145.499974 272.716647 
C 145.35318 272.701558 145.206381 272.686513 145.059578 272.671513 
C 144.912774 272.656514 144.765967 272.641559 144.619154 272.626649 
C 144.472342 272.61174 144.325525 272.596876 144.178703 272.582057 
C 144.031882 272.567237 143.885055 272.552464 143.738225 272.537734 
C 143.591394 272.523005 143.444559 272.50832 143.29772 272.49368 
C 143.15088 272.479039 143.004036 272.464443 142.857188 272.449891 
C 142.71034 272.435338 142.563487 272.42083 142.41663 272.406365 
C 142.269773 272.3919 142.122912 272.377478 141.976047 272.363099 
C 141.829181 272.348721 141.682312 272.334385 141.535438 272.320092 
C 141.388564 272.305799 141.241686 272.291548 141.094804 272.27734 
C 140.947922 272.263132 140.801036 272.248966 140.654145 272.234841 
C 140.507255 272.220717 140.360361 272.206634 140.213463 272.192593 
C 140.066564 272.178552 139.919662 272.164552 139.772756 272.150594 
C 139.62585 272.136635 139.47894 272.122717 139.332026 272.10884 
C 139.185112 272.094963 139.038195 272.081126 138.891273 272.067329 
C 138.744352 272.053533 138.597426 272.039776 138.450497 272.02606 
C 138.303568 272.012343 138.156636 271.998666 138.009699 271.985029 
C 137.862763 271.971391 137.715823 271.957793 137.568879 271.944234 
C 137.421936 271.930676 137.274989 271.917158 137.128037 271.90368 
C 136.981086 271.890202 136.834132 271.876764 136.687173 271.863368 
C 136.540215 271.849971 136.393253 271.836616 136.246287 271.823302 
C 136.099321 271.809988 135.952351 271.796716 135.805377 271.783486 
C 135.658404 271.770256 135.511427 271.757069 135.364446 271.743924 
C 135.217465 271.730779 135.07048 271.717677 134.923491 271.704618 
C 134.776502 271.691559 134.62951 271.678544 134.482513 271.665573 
C 134.335517 271.652602 134.188517 271.639674 134.041512 271.626791 
C 133.894508 271.613909 133.7475 271.60107 133.600488 271.588277 
C 133.453476 271.575484 133.30646 271.562736 133.159441 271.550034 
C 133.012421 271.537332 132.865397 271.524676 132.718369 271.512065 
C 132.571342 271.499455 132.42431 271.486891 132.277274 271.474374 
C 132.130239 271.461857 131.983199 271.449387 131.836155 271.436965 
C 131.689111 271.424542 131.542064 271.412167 131.395012 271.39984 
C 131.24796 271.387512 131.100905 271.375232 130.953845 271.363 
C 130.806785 271.350767 130.659721 271.338582 130.512654 271.326445 
C 130.365586 271.314307 130.218515 271.302217 130.071439 271.290175 
C 129.924364 271.278132 129.777285 271.266137 129.630202 271.254189 
C 129.483118 271.242241 129.336031 271.23034 129.188941 271.218486 
C 129.04185 271.206633 128.894755 271.194827 128.747657 271.183068 
C 128.600558 271.171309 128.453456 271.159597 128.30635 271.147932 
C 128.159244 271.136267 128.012134 271.12465 127.865021 271.113079 
C 127.717908 271.101509 127.57079 271.089985 127.42367 271.078509 
C 127.276549 271.067033 127.129424 271.055603 126.982296 271.044221 
C 126.835168 271.032838 126.688036 271.021503 126.540901 271.010214 
C 126.393765 270.998925 126.246626 270.987684 126.099484 270.976489 
C 125.952341 270.965294 125.805195 270.954146 125.658045 270.943044 
C 125.510896 270.931943 125.363742 270.920889 125.216586 270.909882 
C 125.069429 270.898875 124.922268 270.887916 124.775105 270.877005 
C 124.627941 270.866094 124.480773 270.855231 124.333602 270.844416 
C 124.186431 270.833602 124.039256 270.822836 123.892078 270.81212 
C 123.7449 270.801404 123.597718 270.790737 123.450533 270.780119 
C 123.303348 270.769502 123.156159 270.758935 123.008966 270.748418 
C 122.861774 270.737901 122.714578 270.727434 122.567378 270.717019 
C 122.420179 270.706603 122.272975 270.696239 122.125768 270.685926 
C 121.978562 270.675613 121.831351 270.665351 121.684137 270.655142 
C 121.536923 270.644933 121.389706 270.634776 121.242484 270.624671 
C 121.095263 270.614567 120.948038 270.604516 120.80081 270.594517 
C 120.653581 270.584519 120.506349 270.574574 120.359114 270.564683 
C 120.211878 270.554792 120.064639 270.544955 119.917396 270.535172 
C 119.770153 270.52539 119.622906 270.515661 119.475656 270.505986 
C 119.328406 270.496311 119.181153 270.48669 119.033896 270.477123 
C 118.886639 270.467556 118.739378 270.458042 118.592114 270.448581 
C 118.44485 270.439121 118.297583 270.429714 118.150312 270.420359 
C 118.003041 270.411005 117.855767 270.401704 117.708489 270.392455 
C 117.561212 270.383207 117.413931 270.374011 117.266647 270.364868 
C 117.119363 270.355724 116.972075 270.346633 116.824785 270.337595 
C 116.677494 270.328556 116.5302 270.319569 116.382903 270.310635 
C 116.235606 270.3017 116.088306 270.292817 115.941002 270.283986 
C 115.793699 270.275155 115.646393 270.266375 115.499083 270.257647 
C 115.351773 270.248919 115.204461 270.240242 115.057145 270.231616 
C 114.90983 270.22299 114.762511 270.214416 114.615189 270.205892 
C 114.467868 270.197368 114.320543 270.188895 114.173215 270.180474 
C 114.025888 270.172053 113.878557 270.163684 113.731224 270.155369 
C 113.58389 270.147053 113.436554 270.138791 113.289214 270.130584 
C 113.141874 270.122376 112.994532 270.114223 112.847186 270.106125 
C 112.699841 270.098028 112.552492 270.089986 112.40514 270.082001 
C 112.257789 270.074016 112.110434 270.066088 111.963076 270.058218 
C 111.815718 270.050348 111.668358 270.042536 111.520994 270.034783 
C 111.37363 270.02703 111.226263 270.019336 111.078893 270.011703 
C 110.931523 270.00407 110.78415 269.996497 110.636774 269.988985 
C 110.489397 269.981474 110.342018 269.974024 110.194636 269.966637 
C 110.047254 269.959249 109.899868 269.951925 109.75248 269.944664 
C 109.605091 269.937404 109.457699 269.930207 109.310305 269.923075 
C 109.16291 269.915943 109.015512 269.908875 108.868111 269.90187 
C 108.72071 269.894865 108.573307 269.887922 108.4259 269.881041 
C 108.278493 269.87416 108.131084 269.867341 107.983671 269.860581 
C 107.836259 269.853822 107.688844 269.847123 107.541426 269.840483 
C 107.394008 269.833842 107.246587 269.827261 107.099164 269.820737 
C 106.951741 269.814214 106.804315 269.807747 106.656886 269.801338 
C 106.509458 269.794928 106.362027 269.788575 106.214593 269.782276 
C 106.06716 269.775978 105.919724 269.769735 105.772286 269.763545 
C 105.624848 269.757356 105.477407 269.75122 105.329964 269.745137 
C 105.182521 269.739054 105.035076 269.733023 104.887629 269.727044 
C 104.740181 269.721064 104.592732 269.715136 104.445281 269.709258 
C 104.297829 269.70338 104.150375 269.697553 104.002919 269.691783 
C 103.855463 269.686012 103.708005 269.680298 103.560545 269.674645 
C 103.413084 269.668992 103.265622 269.6634 103.118156 269.657874 
C 102.970691 269.652348 102.823224 269.646888 102.675754 269.6415 
C 102.528284 269.636111 102.380812 269.630793 102.233336 269.625551 
C 102.085862 269.620309 101.938384 269.615142 101.790904 269.610057 
C 101.643424 269.604972 101.495941 269.599967 101.348455 269.595048 
C 101.20097 269.590129 101.053482 269.585296 100.90599 269.580553 
C 100.758499 269.575811 100.611006 269.571159 100.463509 269.566602 
C 100.316012 269.562045 100.168512 269.557584 100.02101 269.553224 
C 99.873507 269.548864 99.726001 269.544604 99.578493 269.540448 
C 99.430984 269.536291 99.283473 269.532236 99.135959 269.52828 
C 98.988444 269.524325 98.840927 269.520467 98.693408 269.516706 
C 98.545888 269.512945 98.398366 269.509281 98.250841 269.505709 
C 98.103317 269.502137 97.95579 269.498659 97.808261 269.495271 
C 97.660731 269.491883 97.5132 269.488585 97.365667 269.485375 
C 97.218133 269.482165 97.070598 269.479043 96.923061 269.476005 
C 96.775523 269.472967 96.627984 269.470014 96.480443 269.467143 
C 96.332902 269.464272 96.18536 269.461483 96.037816 269.458773 
C 95.890272 269.456063 95.742726 269.453432 95.595179 269.450877 
C 95.447633 269.448323 95.300084 269.445844 95.152535 269.443439 
C 95.004986 269.441035 94.857435 269.438704 94.709884 269.436451 
C 94.562332 269.434197 94.41478 269.43202 94.267226 269.429923 
C 94.119672 269.427827 93.972118 269.425809 93.824562 269.423875 
C 93.677006 269.42194 93.52945 269.420088 93.381892 269.418321 
C 93.234335 269.416553 93.086776 269.414871 92.939217 269.413277 
C 92.791658 269.411683 92.644097 269.410177 92.496536 269.408761 
C 92.348976 269.407346 92.201414 269.406021 92.053851 269.404789 
C 91.906289 269.403557 91.758726 269.402419 91.611162 269.401377 
C 91.463598 269.400334 91.316033 269.399388 91.168468 269.398541 
C 91.020903 269.397693 90.873337 269.396945 90.725771 269.396297 
C 90.578205 269.39565 90.430638 269.395103 90.283071 269.394656 
C 90.135503 269.394209 89.987936 269.393862 89.840368 269.393614 
C 89.6928 269.393365 89.545232 269.393216 89.397664 269.393166 
C 89.250096 269.393115 89.102528 269.393162 88.95496 269.393307 
C 88.807391 269.393453 88.659823 269.393695 88.512255 269.394035 
C 88.364687 269.394374 88.21712 269.394811 88.069552 269.395343 
C 87.921985 269.395876 87.774418 269.396504 87.626851 269.397228 
C 87.479285 269.397952 87.331718 269.398771 87.184153 269.399685 
C 87.036587 269.400598 86.889022 269.401607 86.741458 269.402709 
C 86.593894 269.403811 86.446331 269.405007 86.298768 269.406296 
C 86.151206 269.407586 86.003644 269.40897 85.856084 269.410447 
C 85.708523 269.411924 85.560963 269.413496 85.413405 269.415161 
C 85.265846 269.416826 85.118289 269.418585 84.970732 269.420439 
C 84.823176 269.422292 84.675621 269.42424 84.528067 269.426282 
C 84.380513 269.428324 84.232961 269.43046 84.08541 269.43269 
C 83.937858 269.434921 83.790309 269.437246 83.642761 269.439665 
C 83.495212 269.442084 83.347666 269.444598 83.200121 269.447207 
C 83.052575 269.449815 82.905032 269.452518 82.75749 269.455316 
C 82.609948 269.458114 82.462408 269.461006 82.31487 269.463995 
C 82.167332 269.466983 82.019796 269.470069 81.872262 269.473253 
C 81.724728 269.476438 81.577196 269.479722 81.429666 269.483107 
C 81.282137 269.486493 81.134609 269.48998 80.987085 269.493571 
C 80.83956 269.497163 80.692038 269.500859 80.544519 269.504662 
C 80.397 269.508464 80.249483 269.512374 80.10197 269.516393 
C 79.954457 269.520412 79.806947 269.52454 79.659439 269.52878 
C 79.511933 269.533021 79.364429 269.537373 79.216929 269.54184 
C 79.069428 269.546307 78.921932 269.550888 78.774439 269.555586 
C 78.626946 269.560285 78.479457 269.5651 78.331971 269.57003 
C 78.184486 269.57496 78.037004 269.580006 77.889526 269.585164 
C 77.742049 269.590322 77.594575 269.595594 77.447105 269.600976 
C 77.299635 269.606359 77.152169 269.611853 77.004708 269.617456 
C 76.857246 269.623059 76.709788 269.628772 76.562335 269.634592 
C 76.414881 269.640411 76.267432 269.646339 76.119987 269.652372 
C 75.972542 269.658405 75.825101 269.664543 75.677665 269.670785 
C 75.530228 269.677028 75.382796 269.683374 75.235369 269.689821 
C 75.087941 269.696268 74.940518 269.702817 74.793099 269.709469 
C 74.645681 269.716121 74.498267 269.722876 74.350858 269.729737 
C 74.203449 269.736598 74.056045 269.743566 73.908647 269.750643 
C 73.761248 269.75772 73.613855 269.764906 73.466467 269.772205 
C 73.31908 269.779504 73.171698 269.786915 73.024322 269.794442 
C 72.876946 269.801969 72.729576 269.809611 72.582212 269.817372 
C 72.434849 269.825133 72.287491 269.833012 72.14014 269.841013 
C 71.99279 269.849014 71.845445 269.857136 71.698108 269.865383 
C 71.550771 269.87363 71.403441 269.882003 71.256118 269.8905 
C 71.108794 269.898997 70.961479 269.90762 70.81417 269.916367 
C 70.666861 269.925114 70.51956 269.933985 70.372266 269.94298 
C 70.224972 269.951975 70.077686 269.961093 69.930407 269.970334 
C 69.783129 269.979574 69.635858 269.988938 69.488594 269.998423 
C 69.341331 270.007909 69.194076 270.017516 69.046829 270.027245 
C 68.899581 270.036973 68.752342 270.046822 68.605111 270.056792 
C 68.457879 270.066762 68.310656 270.076852 68.163442 270.087062 
C 68.016227 270.097271 67.869021 270.1076 67.721823 270.11805 
C 67.574625 270.128499 67.427436 270.139068 67.280255 270.149759 
C 67.133075 270.160449 66.985903 270.171261 66.838741 270.182194 
C 66.691578 270.193128 66.544425 270.204183 66.397281 270.215361 
C 66.250137 270.226539 66.103002 270.23784 65.955877 270.249264 
C 65.808752 270.260688 65.661636 270.272235 65.51453 270.283907 
C 65.367424 270.295579 65.220328 270.307375 65.073242 270.319296 
C 64.926156 270.331217 64.77908 270.343262 64.632015 270.355435 
C 64.484949 270.367608 64.337894 270.379907 64.19085 270.392337 
C 64.043806 270.404767 63.896773 270.417327 63.749751 270.430021 
C 63.60273 270.442714 63.45572 270.455541 63.308722 270.468504 
C 63.161724 270.481467 63.014738 270.494567 62.867765 270.507806 
C 62.720792 270.521045 62.573831 270.534423 62.426884 270.547944 
C 62.279937 270.561465 62.133002 270.575129 61.986082 270.588938 
C 61.839162 270.602748 61.692255 270.616703 61.545362 270.630805 
C 61.398469 270.644908 61.251591 270.659157 61.104727 270.673551 
C 60.957862 270.687945 60.811012 270.702483 60.664176 270.717164 
C 60.51734 270.731845 60.370518 270.746669 60.22371 270.761634 
C 60.076902 270.776598 59.930109 270.791704 59.78333 270.806948 
C 59.636551 270.822192 59.489787 270.837575 59.343037 270.853096 
C 59.196287 270.868616 59.049551 270.884273 58.90283 270.900065 
C 58.756109 270.915857 58.609402 270.931783 58.462711 270.947846 
C 58.316019 270.963908 58.169342 270.980106 58.022681 270.996443 
C 57.87602 271.01278 57.729374 271.029256 57.582745 271.045874 
C 57.436115 271.062492 57.289502 271.079252 57.142905 271.096157 
C 56.996308 271.113062 56.849728 271.130112 56.703166 271.14731 
C 56.556603 271.164508 56.410058 271.181855 56.263531 271.199352 
C 56.117004 271.216849 55.970494 271.234497 55.824004 271.252299 
C 55.677513 271.270101 55.531041 271.288058 55.384588 271.306171 
C 55.238136 271.324284 55.091702 271.342555 54.945289 271.360986 
C 54.798876 271.379417 54.652483 271.398008 54.506111 271.416763 
C 54.359739 271.435518 54.213388 271.454436 54.067059 271.473521 
C 53.92073 271.492606 53.774423 271.511858 53.628138 271.531279 
C 53.481853 271.5507 53.335591 271.570292 53.189352 271.590056 
C 53.043114 271.609821 52.896899 271.629759 52.750707 271.64987 
C 52.604516 271.669982 52.458349 271.690267 52.312205 271.710724 
C 52.166062 271.731181 52.019942 271.75181 51.873847 271.77261 
C 51.727752 271.793409 51.581681 271.814379 51.435635 271.835518 
C 51.289588 271.856658 51.143566 271.877966 50.997568 271.899442 
C 50.85157 271.920917 50.705597 271.942561 50.559649 271.964371 
C 50.413701 271.98618 50.267777 272.008155 50.121879 272.030298 
C 49.97598 272.05244 49.830107 272.07475 49.684261 272.097235 
C 49.538416 272.119719 49.392596 272.142378 49.246806 272.165217 
C 49.101015 272.188055 48.955253 272.211074 48.80952 272.234278 
C 48.663787 272.257482 48.518084 272.280872 48.372412 272.304454 
C 48.226741 272.328036 48.0811 272.351808 47.935492 272.37578 
C 47.789884 272.399751 47.644308 272.42392 47.498766 272.448288 
C 47.353224 272.472657 47.207715 272.497225 47.062239 272.521987 
C 46.916764 272.54675 46.771321 272.571709 46.625912 272.59686 
C 46.480502 272.622011 46.335126 272.647354 46.189783 272.672887 
C 46.04444 272.69842 45.89913 272.724143 45.753853 272.750052 
C 45.608576 272.775961 45.463333 272.802058 45.318122 272.828337 
C 45.172912 272.854616 45.027734 272.881078 44.882591 272.907731 
C 44.737449 272.934384 44.592341 272.961227 44.447272 272.988273 
C 44.302202 273.015318 44.15717 273.042565 44.012178 273.070023 
C 43.867187 273.097481 43.722235 273.125151 43.577326 273.153041 
C 43.432418 273.180931 43.287551 273.209043 43.142731 273.237386 
C 42.99791 273.26573 42.853135 273.294305 42.708407 273.323118 
C 42.563679 273.351932 42.418998 273.380983 42.274365 273.410267 
C 42.129731 273.439551 41.985144 273.469067 41.840604 273.498813 
C 41.696064 273.528558 41.551571 273.558533 41.407125 273.588732 
C 41.262679 273.618931 41.11828 273.649355 40.973927 273.68 
C 40.829575 273.710645 40.685269 273.741511 40.54101 273.772594 
C 40.396752 273.803676 40.252539 273.834975 40.108376 273.8665 
C 39.964214 273.898024 39.8201 273.929773 39.676038 273.961755 
C 39.531977 273.993738 39.387967 274.025954 39.244012 274.058412 
C 39.100058 274.090871 38.956157 274.123571 38.812315 274.156522 
C 38.668472 274.189473 38.524686 274.222675 38.380961 274.256136 
C 38.237235 274.289597 38.093569 274.323317 37.949967 274.357305 
C 37.806365 274.391292 37.662825 274.425548 37.519353 274.460079 
C 37.37588 274.494611 37.232474 274.529419 37.089137 274.564511 
C 36.945801 274.599603 36.802534 274.63498 36.65934 274.670649 
C 36.516147 274.706319 36.373026 274.742281 36.229982 274.778545 
C 36.086938 274.814809 35.94397 274.851375 35.801081 274.888245 
C 35.658192 274.925114 35.51538 274.962287 35.372649 274.999763 
C 35.229917 275.03724 35.087265 275.075019 34.944694 275.113101 
C 34.802122 275.151184 34.659632 275.18957 34.517224 275.22826 
C 34.374816 275.26695 34.23249 275.305943 34.090248 275.34524 
C 33.948005 275.384537 33.805846 275.424137 33.663777 275.464055 
C 33.521707 275.503973 33.379727 275.544208 33.237842 275.584777 
C 33.095958 275.625346 32.954169 275.666248 32.812481 275.707498 
C 32.670794 275.748747 32.529207 275.790345 32.387729 275.832306 
C 32.246251 275.874267 32.10488 275.916591 31.963623 275.959291 
C 31.822366 276.001992 31.681222 276.045068 31.540194 276.088521 
C 31.399166 276.131974 31.258254 276.175804 31.117461 276.220013 
C 30.976668 276.264223 30.835994 276.308812 30.695442 276.353784 
C 30.55489 276.398756 30.41446 276.44411 30.274155 276.489847 
C 30.133849 276.535584 29.993669 276.581704 29.85362 276.628223 
C 29.713572 276.674742 29.573656 276.72166 29.433883 276.768999 
C 29.29411 276.816338 29.15448 276.864098 29.015003 276.9123 
C 28.875526 276.960502 28.736202 277.009147 28.597041 277.058255 
C 28.457879 277.107363 28.31888 277.156934 28.180057 277.20699 
C 28.041231 277.257046 27.90258 277.307587 27.764116 277.358633 
C 27.625651 277.40968 27.487373 277.461233 27.349294 277.513312 
C 27.211215 277.565392 27.073335 277.617999 26.935667 277.671154 
C 26.797999 277.724309 26.660543 277.778013 26.523312 277.832286 
C 26.38608 277.886559 26.249073 277.941402 26.112304 277.996832 
C 25.975534 278.052261 25.839002 278.108278 25.702721 278.164897 
C 25.566439 278.221516 25.430407 278.278738 25.294639 278.336579 
C 25.15887 278.394422 25.023364 278.452884 24.888135 278.511979 
C 24.752903 278.571076 24.617947 278.630805 24.483292 278.691204 
C 24.348636 278.751603 24.21428 278.812673 24.080255 278.87446 
C 23.946232 278.936246 23.812539 278.998749 23.679207 279.062015 
C 23.545877 279.125279 23.412908 279.189305 23.280333 279.254136 
C 23.147756 279.318968 23.015572 279.384604 22.883818 279.451094 
C 22.752063 279.517586 22.620737 279.584931 22.489886 279.653185 
C 22.359032 279.72144 22.228652 279.790603 22.098792 279.860729 
C 21.968925 279.930857 21.839577 280.001948 21.710793 280.074046 
C 21.581994 280.146153 21.453759 280.219269 21.326151 280.293463 
C 21.198533 280.367663 21.071541 280.442942 20.945264 280.519404 
C 20.818995 280.595861 20.693441 280.6735 20.568693 280.752417 
C 20.44396 280.831324 20.320033 280.911508 20.197008 280.993054 
C 20.073991 281.074596 19.951876 281.157499 19.830783 281.241873 
C 19.709688 281.326248 19.589616 281.412093 19.470735 281.499561 
C 19.351841 281.587039 19.234139 281.676142 19.117807 281.767003 
C 19.001423 281.857905 18.88641 281.950567 18.772956 282.045102 
C 18.659383 282.139736 18.547372 282.236247 18.437143 282.334759 
C 18.326785 282.433386 18.218214 282.534019 18.111852 282.636945 
C 18.005502 282.739859 17.901361 282.845066 17.79989 282.952799 
C 17.698506 283.06044 17.599787 283.170603 17.504271 283.283487 
C 17.40881 283.396304 17.316548 283.511839 17.228007 283.630173 
C 17.139405 283.748589 17.054528 283.869807 16.974223 283.99401 
C 16.893892 284.118253 16.818136 284.245482 16.748167 284.375859 
C 16.678195 284.506242 16.614011 284.639772 16.556985 284.776328 
C 16.499772 284.913332 16.449763 285.053381 16.407832 285.195824 
C 16.365759 285.338748 16.331816 285.484082 16.306609 285.630932 
C 16.281422 285.777664 16.264955 285.925911 16.258046 286.07465 
C 16.251154 286.223024 16.253775 286.371888 16.266828 286.519837 
C 16.279877 286.667733 16.303352 286.814714 16.336259 286.959503 
C 16.369243 287.104632 16.411704 287.247558 16.462532 287.387418 
C 16.513428 287.527464 16.572713 287.664437 16.639557 287.797598 
C 16.706224 287.930406 16.78041 288.059424 16.86124 288.184099 
C 16.941755 288.308291 17.028862 288.428173 17.12118 288.543848 
C 17.213467 288.659483 17.310961 288.770913 17.412479 288.878511 
C 17.513992 288.986102 17.619528 289.089862 17.728208 289.190197 
C 17.8368 289.29045 17.94853 289.387285 18.062915 289.480862 
C 18.177345 289.574476 18.294433 289.664828 18.413693 289.752202 
C 18.533049 289.839647 18.654582 289.924108 18.777884 290.005887 
C 18.901217 290.087685 19.026321 290.1668 19.152834 290.243585 
C 19.27922 290.320293 19.407012 290.394677 19.53599 290.466937 
C 19.664829 290.53912 19.794852 290.609185 19.925892 290.677287 
C 20.056872 290.745358 20.188868 290.811469 20.321722 290.875802 
C 20.454561 290.940127 20.588259 291.002675 20.722669 291.063647 
C 20.857078 291.124618 20.9922 291.184013 21.127934 291.241973 
C 21.263672 291.299933 21.400022 291.356458 21.536916 291.411633 
C 21.673822 291.466812 21.81127 291.52064 21.949195 291.573219 
C 22.087127 291.625799 22.225534 291.67713 22.364356 291.727312 
C 22.503168 291.777492 22.642395 291.826524 22.781987 291.874492 
C 22.921565 291.922456 23.061508 291.969356 23.201778 292.015255 
C 23.342043 292.061153 23.482635 292.106051 23.623518 292.150016 
C 23.7644 292.193981 23.905573 292.237014 24.047002 292.279185 
C 24.188429 292.321355 24.330113 292.362664 24.472025 292.40317 
C 24.613935 292.443675 24.756074 292.483378 24.89842 292.522321 
C 25.040767 292.561264 25.183322 292.599448 25.326063 292.636918 
C 25.468806 292.674389 25.611736 292.711147 25.754833 292.747239 
C 25.897929 292.783331 26.041192 292.818758 26.184607 292.85356 
C 26.32802 292.888361 26.471583 292.922538 26.615286 292.956117 
C 26.758989 292.989696 26.902831 293.022679 27.0468 293.055093 
C 27.19077 293.087508 27.334868 293.119355 27.479082 293.150664 
C 27.623296 293.181973 27.767627 293.212745 27.912065 293.243006 
C 28.056501 293.273267 28.201045 293.303018 28.345689 293.332272 
C 28.490332 293.361525 28.635076 293.390282 28.779915 293.418556 
C 28.924753 293.44683 29.069685 293.474622 29.214706 293.501946 
C 29.359726 293.52927 29.504834 293.556126 29.650024 293.582529 
C 29.795214 293.608932 29.940486 293.634882 30.085834 293.660399 
C 30.231182 293.685915 30.376606 293.710999 30.522099 293.735672 
C 30.667593 293.760344 30.813157 293.784606 30.958784 293.808476 
C 31.104412 293.832347 31.250104 293.855826 31.395854 293.878937 
C 31.541603 293.902049 31.687411 293.924791 31.833273 293.947181 
C 31.979134 293.969572 32.12505 293.991611 32.271015 294.013311 
C 32.41698 294.035011 32.562996 294.056373 32.709058 294.077411 
C 32.855121 294.098448 33.00123 294.119161 33.147382 294.139564 
C 33.293535 294.159967 33.439731 294.180059 33.585966 294.199855 
C 33.732202 294.219651 33.878478 294.23915 34.024792 294.258357 
C 34.171106 294.277564 34.317458 294.296479 34.463846 294.315107 
C 34.610235 294.333736 34.75666 294.352078 34.90312 294.370139 
C 35.04958 294.3882 35.196074 294.40598 35.342601 294.423484 
C 35.489129 294.440989 35.635689 294.458217 35.78228 294.475175 
C 35.928872 294.492134 36.075494 294.508822 36.222146 294.525248 
C 36.368798 294.541675 36.515479 294.557838 36.662189 294.573746 
C 36.808898 294.589655 36.955634 294.605307 37.102397 294.620712 
C 37.24916 294.636116 37.395948 294.651272 37.542761 294.666186 
C 37.689574 294.6811 37.836411 294.695772 37.983271 294.710215 
C 38.13013 294.724658 38.277012 294.738872 38.423915 294.752872 
C 38.570817 294.766871 38.71774 294.780657 38.864682 294.794242 
C 39.011624 294.807828 39.158584 294.821214 39.305561 294.834414 
C 39.452538 294.847614 39.599532 294.860628 39.746541 294.873472 
C 39.89355 294.886317 40.040573 294.898992 40.187612 294.911493 
C 40.33465 294.923995 40.481703 294.936322 40.62877 294.948469 
C 40.775838 294.960616 40.92292 294.972583 41.070018 294.984362 
C 41.217115 294.996141 41.364227 295.007734 41.511354 295.019133 
C 41.65848 295.030533 41.805622 295.041739 41.952779 295.052745 
C 42.099936 295.06375 42.247107 295.074555 42.394293 295.085166 
C 42.541479 295.095778 42.688678 295.106196 42.835891 295.116432 
C 42.983103 295.126667 43.130329 295.13672 43.277566 295.146601 
C 43.424803 295.156482 43.572052 295.16619 43.719311 295.175736 
C 43.866571 295.185281 44.013841 295.194665 44.16112 295.203896 
C 44.3084 295.213128 44.455689 295.222209 44.602986 295.231142 
C 44.750284 295.240075 44.89759 295.248862 45.044906 295.257499 
C 45.19222 295.266137 45.339544 295.274627 45.486876 295.282969 
C 45.634208 295.291311 45.781548 295.299506 45.928896 295.307552 
C 46.076245 295.315599 46.223601 295.323497 46.370965 295.331248 
C 46.518329 295.338999 46.665701 295.346602 46.81308 295.354058 
C 46.960459 295.361514 47.107846 295.368823 47.25524 295.37599 
C 47.402633 295.383157 47.550034 295.390182 47.697441 295.39707 
C 47.844848 295.403957 47.992261 295.410708 48.139681 295.417326 
C 48.2871 295.423944 48.434526 295.430429 48.581957 295.436787 
C 48.729388 295.443145 48.876824 295.449375 49.024266 295.455481 
C 49.171707 295.461588 49.319153 295.467572 49.466604 295.473438 
C 49.614055 295.479304 49.761511 295.485052 49.90897 295.490689 
C 50.05643 295.496325 50.203894 295.50185 50.351362 295.50727 
C 50.49883 295.512689 50.646302 295.518003 50.793778 295.523217 
C 50.941253 295.528431 51.088732 295.533545 51.236215 295.538565 
C 51.383697 295.543586 51.531183 295.548512 51.678671 295.553351 
C 51.82616 295.55819 51.973651 295.562942 52.121145 295.567602 
C 52.26864 295.572263 52.416137 295.576832 52.563637 295.581304 
C 52.711137 295.585776 52.85864 295.590151 53.006146 295.594424 
C 53.153651 295.598697 53.30116 295.602867 53.448672 295.60693 
C 53.596183 295.610993 53.743698 295.614949 53.891215 295.618791 
C 54.038732 295.622634 54.186253 295.626364 54.333776 295.629975 
C 54.481299 295.633586 54.628825 295.637079 54.776354 295.640457 
C 54.923883 295.643835 55.071414 295.647099 55.218948 295.650254 
C 55.366482 295.653409 55.514018 295.656455 55.661557 295.659397 
C 55.809095 295.662339 55.956636 295.665177 56.104178 295.667916 
C 56.25172 295.670656 56.399265 295.673296 56.546811 295.675843 
C 56.694356 295.67839 56.841904 295.680843 56.989453 295.683208 
C 57.137001 295.685573 57.284552 295.68785 57.432103 295.690042 
C 57.579654 295.692234 57.727207 295.694342 57.87476 295.696368 
C 58.022314 295.698395 58.169868 295.70034 58.317424 295.702207 
C 58.46498 295.704074 58.612536 295.705863 58.760094 295.707578 
C 58.907651 295.709292 59.05521 295.710932 59.202769 295.712501 
C 59.350328 295.71407 59.497888 295.715567 59.645448 295.716997 
C 59.793009 295.718427 59.94057 295.719789 60.088132 295.721085 
C 60.235694 295.722381 60.383257 295.723612 60.53082 295.724774 
C 60.678383 295.725937 60.825946 295.727031 60.97351 295.728056 
C 61.121074 295.72908 61.268639 295.730035 61.416204 295.730917 
C 61.563768 295.7318 61.711334 295.73261 61.858899 295.733347 
C 62.006465 295.734084 62.154031 295.734746 62.301597 295.735333 
C 62.449163 295.73592 62.59673 295.736431 62.744296 295.736864 
C 62.891863 295.737297 63.03943 295.737652 63.186997 295.73793 
C 63.334564 295.738208 63.482131 295.73841 63.629698 295.73854 
C 63.777266 295.73867 63.924833 295.738728 64.0724 295.738719 
C 64.219968 295.738709 64.367535 295.738632 64.515102 295.738492 
C 64.66267 295.738352 64.810237 295.738148 64.957805 295.737885 
C 65.105372 295.737622 65.252939 295.737299 65.400506 295.736922 
C 65.548073 295.736544 65.69564 295.736112 65.843207 295.735629 
C 65.990774 295.735146 66.138341 295.734612 66.285907 295.734029 
C 66.433474 295.733445 66.58104 295.73281 66.728606 295.732123 
C 66.876172 295.731435 67.023737 295.730695 67.171303 295.7299 
C 67.318868 295.729105 67.466433 295.728255 67.613998 295.727349 
C 67.761562 295.726443 67.909127 295.725479 68.05669 295.724458 
C 68.204254 295.723436 68.351817 295.722356 68.49938 295.721215 
C 68.646943 295.720074 68.794506 295.718873 68.942067 295.717608 
C 69.089629 295.716344 69.23719 295.715017 69.384751 295.713628 
C 69.532312 295.712239 69.679872 295.710787 69.827431 295.709277 
C 69.974991 295.707768 70.12255 295.7062 70.270108 295.704577 
C 70.417667 295.702954 70.565224 295.701276 70.712782 295.699546 
C 70.860339 295.697817 71.007896 295.696036 71.155452 295.694206 
C 71.303008 295.692377 71.450563 295.6905 71.598118 295.688577 
C 71.745673 295.686655 71.893228 295.684688 72.040782 295.68268 
C 72.188336 295.680672 72.335889 295.678622 72.483442 295.676534 
C 72.630994 295.674446 72.778547 295.672321 72.926098 295.670155 
C 73.07365 295.66799 73.221201 295.665785 73.368751 295.663539 
C 73.516302 295.661293 73.663851 295.659006 73.8114 295.656676 
C 73.958949 295.654346 74.106498 295.651974 74.254045 295.649557 
C 74.401593 295.647141 74.549139 295.64468 74.696686 295.642174 
C 74.844231 295.639668 74.991777 295.637116 75.139321 295.634517 
C 75.286865 295.631918 75.434409 295.629272 75.581952 295.626577 
C 75.729494 295.623882 75.877036 295.621139 76.024577 295.618346 
C 76.172117 295.615553 76.319657 295.61271 76.467196 295.609821 
C 76.614735 295.606931 76.762273 295.603995 76.90981 295.601015 
C 77.057348 295.598035 77.204884 295.59501 77.352419 295.591943 
C 77.499955 295.588877 77.647489 295.585768 77.795023 295.58262 
C 77.942557 295.579472 78.09009 295.576284 78.237622 295.573059 
C 78.385154 295.569835 78.532686 295.566573 78.680216 295.563276 
C 78.827747 295.55998 78.975277 295.556648 79.122806 295.553285 
C 79.270335 295.549921 79.417863 295.546526 79.565391 295.5431 
C 79.712919 295.539674 79.860445 295.536218 80.007972 295.532732 
C 80.155498 295.529246 80.303023 295.525729 80.450548 295.522181 
C 80.598073 295.518633 80.745597 295.515055 80.89312 295.511445 
C 81.040643 295.507835 81.188166 295.504194 81.335687 295.500522 
C 81.483209 295.496849 81.63073 295.493146 81.77825 295.48941 
C 81.925769 295.485675 82.073289 295.481907 82.220807 295.478108 
C 82.368325 295.474309 82.515843 295.470477 82.663359 295.466613 
C 82.810876 295.462749 82.958392 295.458853 83.105907 295.454924 
C 83.253422 295.450995 83.400936 295.447033 83.548449 295.44304 
C 83.695962 295.439047 83.843474 295.435022 83.990986 295.430968 
C 84.138497 295.426913 84.286008 295.42283 84.433518 295.41872 
C 84.581028 295.414609 84.728537 295.410471 84.876045 295.406308 
C 85.023554 295.402145 85.171062 295.397957 85.318569 295.393746 
C 85.466076 295.389535 85.613583 295.385301 85.761089 295.381046 
C 85.908595 295.37679 86.0561 295.372514 86.203605 295.368219 
C 86.35111 295.363924 86.498614 295.35961 86.646118 295.355279 
C 86.793622 295.350948 86.941125 295.3466 87.088628 295.342237 
C 87.236131 295.337875 87.383633 295.333498 87.531135 295.329104 
C 87.678637 295.324711 87.826138 295.320301 87.973639 295.315872 
C 88.12114 295.311443 88.268641 295.306996 88.41614 295.302528 
C 88.56364 295.29806 88.711139 295.293571 88.858637 295.289059 
C 89.006136 295.284547 89.153633 295.280013 89.30113 295.275453 
C 89.448627 295.270893 89.596123 295.266308 89.743618 295.261696 
C 89.891113 295.257084 90.038608 295.252444 90.186101 295.247775 
C 90.333594 295.243107 90.481087 295.238408 90.628578 295.233679 
C 90.776069 295.228949 90.92356 295.224188 91.071049 295.219393 
C 91.218538 295.214598 91.366026 295.209768 91.513513 295.204907 
C 91.661 295.200045 91.808486 295.195151 91.955971 295.190228 
C 92.103456 295.185306 92.25094 295.180354 92.398424 295.175377 
C 92.545907 295.170399 92.693389 295.165396 92.840871 295.16037 
C 92.988352 295.155345 93.135833 295.150297 93.283314 295.145229 
C 93.430794 295.140162 93.578273 295.135075 93.725752 295.129972 
C 93.873231 295.124868 94.02071 295.119749 94.168188 295.114617 
C 94.315666 295.109485 94.463144 295.104339 94.610621 295.099184 
C 94.758098 295.094029 94.905575 295.088864 95.053052 295.083692 
C 95.200529 295.078521 95.348005 295.073343 95.495481 295.068161 
C 95.642958 295.062979 95.790434 295.057793 95.93791 295.052602 
C 96.085386 295.047411 96.232862 295.042215 96.380337 295.037012 
C 96.527813 295.031809 96.675288 295.026599 96.822763 295.021382 
C 96.970238 295.016165 97.117713 295.01094 97.265187 295.005706 
C 97.412662 295.000472 97.560136 294.995229 97.707609 294.989975 
C 97.855083 294.984722 98.002556 294.979458 98.150029 294.974183 
C 98.297502 294.968908 98.444975 294.963621 98.592447 294.958321 
C 98.739919 294.953021 98.88739 294.947709 99.034861 294.942382 
C 99.182332 294.937056 99.329803 294.931715 99.477273 294.926359 
C 99.624743 294.921003 99.772212 294.915631 99.919681 294.910243 
C 100.06715 294.904855 100.214618 294.89945 100.362085 294.894029 
C 100.509553 294.888608 100.65702 294.883169 100.804486 294.877714 
C 100.951953 294.872259 101.099418 294.866786 101.246883 294.861296 
C 101.394349 294.855807 101.541813 294.8503 101.689277 294.844775 
C 101.836741 294.83925 101.984204 294.833708 102.131666 294.828147 
C 102.279129 294.822587 102.42659 294.817009 102.574052 294.811412 
C 102.721513 294.805816 102.868973 294.800201 103.016433 294.794568 
C 103.163893 294.788934 103.311352 294.783283 103.45881 294.777612 
C 103.606268 294.771942 103.753726 294.766253 103.901183 294.760545 
C 104.04864 294.754836 104.196096 294.749109 104.343551 294.743362 
C 104.491006 294.737616 104.638461 294.73185 104.785915 294.726064 
C 104.933369 294.720279 105.080822 294.714473 105.228274 294.708646 
C 105.375726 294.70282 105.523178 294.696973 105.670628 294.691104 
C 105.818079 294.685235 105.965529 294.679344 106.112978 294.673431 
C 106.260426 294.667517 106.407874 294.661581 106.555321 294.655622 
C 106.702768 294.649663 106.850214 294.64368 106.997659 294.637673 
C 107.145104 294.631666 107.292548 294.625634 107.439991 294.619577 
C 107.587434 294.613521 107.734876 294.607439 107.882317 294.601331 
C 108.029758 294.595223 108.177197 294.589089 108.324636 294.582928 
C 108.472075 294.576767 108.619512 294.570579 108.766948 294.564363 
C 108.914385 294.558147 109.06182 294.551904 109.209254 294.545631 
C 109.356688 294.539359 109.50412 294.533057 109.651552 294.526727 
C 109.798983 294.520397 109.946413 294.514038 110.093842 294.507651 
C 110.241271 294.501263 110.388699 294.494847 110.536126 294.488404 
C 110.683552 294.48196 110.830978 294.475489 110.978402 294.46899 
C 111.125826 294.462492 111.273249 294.455966 111.420671 294.449413 
C 111.568092 294.44286 111.715513 294.436281 111.862932 294.429675 
C 112.010352 294.423069 112.15777 294.416437 112.305187 294.40978 
C 112.452604 294.403122 112.60002 294.396438 112.747435 294.38973 
C 112.89485 294.383021 113.042263 294.376287 113.189676 294.369528 
C 113.337088 294.362769 113.4845 294.355986 113.63191 294.349178 
C 113.77932 294.342371 113.926729 294.335539 114.074137 294.328683 
C 114.221545 294.321828 114.368952 294.314948 114.516358 294.308046 
C 114.663764 294.301144 114.811168 294.294218 114.958572 294.28727 
C 115.105976 294.280322 115.253378 294.273352 115.40078 294.26636 
C 115.548181 294.259367 115.695582 294.252354 115.842981 294.245319 
C 115.990381 294.238285 116.137779 294.23123 116.285177 294.224154 
C 116.432574 294.217079 116.579971 294.209984 116.727367 294.202869 
C 116.874762 294.195754 117.022157 294.18862 117.169551 294.181468 
C 117.316945 294.174316 117.464338 294.167145 117.61173 294.159956 
C 117.759122 294.152768 117.906513 294.145562 118.053903 294.138338 
C 118.201294 294.131115 118.348683 294.123875 118.496072 294.116619 
C 118.643461 294.109363 118.790849 294.102091 118.938236 294.094803 
C 119.085623 294.087516 119.23301 294.080213 119.380396 294.072896 
C 119.527781 294.065578 119.675167 294.058246 119.822551 294.050901 
C 119.969935 294.043555 120.117319 294.036196 120.264702 294.028822 
C 120.412085 294.021449 120.559467 294.014062 120.706849 294.00666 
C 120.85423 293.999258 121.001611 293.991842 121.148991 293.98441 
C 121.296371 293.976979 121.443751 293.969532 121.591129 293.96207 
C 121.738508 293.954608 121.885886 293.947131 122.033262 293.939637 
C 122.180639 293.932144 122.328015 293.924634 122.475391 293.917108 
C 122.622766 293.909582 122.77014 293.902039 122.917514 293.894479 
C 123.064887 293.88692 123.21226 293.879343 123.359632 293.871749 
C 123.507003 293.864154 123.654374 293.856542 123.801744 293.848913 
C 123.949114 293.841283 124.096483 293.833635 124.243851 293.825968 
C 124.391219 293.818302 124.538586 293.810617 124.685952 293.802913 
C 124.833318 293.795209 124.980683 293.787486 125.128047 293.779743 
C 125.275411 293.772001 125.422774 293.764238 125.570136 293.756456 
C 125.717497 293.748674 125.864858 293.740872 126.012218 293.733051 
C 126.159578 293.72523 126.306937 293.717389 126.454294 293.70953 
C 126.601652 293.701671 126.749009 293.693793 126.896365 293.685897 
C 127.043721 293.678002 127.191076 293.670088 127.33843 293.662157 
C 127.485784 293.654226 127.633137 293.646278 127.780489 293.638313 
C 127.927841 293.630348 128.075192 293.622366 128.222543 293.614368 
C 128.369893 293.606371 128.517243 293.598357 128.664591 293.590328 
C 128.81194 293.582299 128.959288 293.574255 129.106635 293.566195 
C 129.253982 293.558136 129.401328 293.550062 129.548674 293.541974 
C 129.696019 293.533887 129.843364 293.525785 129.990708 293.517669 
C 130.138052 293.509554 130.285395 293.501425 130.432738 293.493283 
C 130.58008 293.485142 130.727422 293.476987 130.874763 293.468821 
C 131.022104 293.460654 131.169445 293.452475 131.316785 293.444285 
C 131.464125 293.436095 131.611464 293.427894 131.758802 293.419681 
C 131.906141 293.411468 132.053479 293.403244 132.200816 293.395009 
C 132.348153 293.386774 132.49549 293.378528 132.642826 293.370272 
C 132.790162 293.362015 132.937498 293.353747 133.084833 293.345469 
C 133.232167 293.337191 133.379502 293.328902 133.526835 293.320602 
C 133.674169 293.312303 133.821502 293.303993 133.968835 293.295673 
C 134.116167 293.287353 134.263499 293.279023 134.41083 293.270683 
C 134.558162 293.262342 134.705493 293.253992 134.852823 293.245631 
C 135.000153 293.237271 135.147483 293.2289 135.294812 293.22052 
C 135.442141 293.21214 135.589469 293.203751 135.736797 293.195351 
C 135.884125 293.186952 136.031453 293.178543 136.17878 293.170125 
C 136.326107 293.161707 136.473433 293.153279 136.620759 293.144843 
C 136.768085 293.136406 136.91541 293.12796 137.062735 293.119505 
C 137.21006 293.11105 137.357384 293.102586 137.504708 293.094114 
C 137.652032 293.085641 137.799355 293.07716 137.946678 293.068669 
C 138.094001 293.060179 138.241323 293.05168 138.388645 293.043172 
C 138.535967 293.034663 138.683288 293.026146 138.830609 293.017619 
C 138.977929 293.009092 139.12525 293.000556 139.272569 292.99201 
C 139.419889 292.983464 139.567208 292.974909 139.714526 292.966344 
C 139.861845 292.957778 140.009163 292.949203 140.15648 292.940618 
C 140.303797 292.932033 140.451114 292.923438 140.59843 292.914833 
C 140.745746 292.906228 140.893062 292.897612 141.040377 292.888986 
C 141.187692 292.88036 141.335006 292.871724 141.48232 292.863076 
C 141.629633 292.854429 141.776946 292.845771 141.924259 292.837103 
C 142.071571 292.828434 142.218883 292.819754 142.366194 292.811063 
C 142.513505 292.802372 142.660816 292.793671 142.808125 292.784957 
C 142.955435 292.776244 143.102744 292.767519 143.250053 292.758783 
C 143.397361 292.750047 143.544669 292.741299 143.691976 292.732539 
C 143.839283 292.72378 143.986589 292.715008 144.133895 292.706225 
C 144.2812 292.697441 144.428505 292.688646 144.575809 292.679839 
C 144.723114 292.671032 144.870417 292.662213 145.01772 292.653383 
C 145.165023 292.644553 145.312325 292.635712 145.459626 292.626861 
C 145.606928 292.618009 145.754229 292.609147 145.901529 292.600274 
C 146.048829 292.591401 146.196129 292.582518 146.343428 292.573625 
C 146.490727 292.564732 146.638025 292.555829 146.785323 292.546917 
C 146.932621 292.538005 147.079918 292.529083 147.227215 292.520153 
C 147.374512 292.511222 147.521808 292.502282 147.669104 292.493334 
C 147.816399 292.484386 147.963695 292.475429 148.110989 292.466464 
C 148.258284 292.457499 148.405578 292.448526 148.552872 292.439545 
C 148.700166 292.430564 148.847459 292.421576 148.994752 292.41258 
C 149.142044 292.403584 149.289337 292.394581 149.436629 292.385571 
C 149.583921 292.376561 149.731212 292.367544 149.878503 292.358521 
C 150.025795 292.349498 150.173085 292.340468 150.320376 292.331432 
C 150.467666 292.322397 150.614956 292.313355 150.762246 292.304308 
C 150.909535 292.29526 151.056825 292.286208 151.204114 292.27715 
C 151.351403 292.268092 151.498691 292.259028 151.64598 292.249959 
C 151.793268 292.24089 151.940556 292.231816 152.087844 292.222736 
C 152.235131 292.213656 152.382419 292.20457 152.529706 292.195479 
C 152.676992 292.186387 152.824279 292.17729 152.971565 292.168187 
C 153.118851 292.159084 153.266137 292.149976 153.413423 292.140861 
C 153.560708 292.131746 153.707993 292.122626 153.855278 292.113499 
C 154.002563 292.104372 154.149847 292.095239 154.297131 292.086101 
C 154.444415 292.076962 154.591699 292.067817 154.738982 292.058665 
C 154.886265 292.049514 155.033548 292.040356 155.18083 292.031192 
C 155.328113 292.022028 155.475395 292.012858 155.622676 292.003681 
C 155.769958 291.994504 155.917239 291.985321 156.06452 291.976131 
C 156.211801 291.966941 156.359081 291.957744 156.506361 291.948541 
C 156.653641 291.939338 156.800921 291.930128 156.9482 291.920911 
C 157.095479 291.911694 157.242758 291.90247 157.390036 291.89324 
C 157.537314 291.884009 157.684592 291.874771 157.831869 291.865527 
C 157.979147 291.856282 158.126423 291.847031 158.2737 291.837772 
C 158.420976 291.828513 158.568252 291.819247 158.715528 291.809975 
C 158.862804 291.800702 159.010079 291.791422 159.157354 291.782137 
C 159.304628 291.772851 159.451903 291.763558 159.599177 291.75426 
C 159.746451 291.744961 159.893724 291.735657 160.040997 291.726346 
C 160.188271 291.717036 160.335543 291.707719 160.482816 291.698397 
C 160.630088 291.689076 160.777361 291.679748 160.924632 291.670416 
C 161.071904 291.661083 161.219176 291.651745 161.366447 291.642403 
C 161.513718 291.63306 161.660989 291.623713 161.80826 291.61436 
C 161.95553 291.605008 162.1028 291.595652 162.25007 291.586291 
C 162.39734 291.57693 162.54461 291.567565 162.69188 291.558196 
C 162.839149 291.548827 162.986419 291.539454 163.133688 291.530077 
C 163.280957 291.5207 163.428225 291.51132 163.575494 291.501936 
C 163.722763 291.492553 163.870031 291.483166 164.017299 291.473776 
C 164.164567 291.464386 164.311835 291.454994 164.459103 291.445598 
C 164.606371 291.436203 164.753639 291.426804 164.900906 291.417404 
C 165.048174 291.408003 165.195441 291.398601 165.342708 291.389196 
C 165.489976 291.379791 165.637243 291.370384 165.78451 291.360975 
C 165.931777 291.351567 166.079044 291.342156 166.22631 291.332744 
C 166.373577 291.323332 166.520844 291.313918 166.66811 291.304502 
C 166.815377 291.295087 166.962643 291.285669 167.10991 291.276249 
C 167.257176 291.266829 167.404442 291.257408 167.551708 291.247984 
C 167.698974 291.23856 167.84624 291.229134 167.993506 291.219706 
C 168.140771 291.210277 168.288037 291.200847 168.435302 291.191414 
C 168.582568 291.181981 168.729833 291.172546 168.877098 291.163108 
C 169.024363 291.15367 169.171628 291.14423 169.318893 291.134787 
C 169.466158 291.125344 169.613423 291.115899 169.760687 291.106451 
C 169.907951 291.097003 170.055216 291.087552 170.20248 291.078098 
C 170.349744 291.068645 170.497008 291.059188 170.644272 291.049729 
C 170.791535 291.04027 170.938799 291.030807 171.086062 291.021342 
C 171.233325 291.011877 171.380589 291.002408 171.527852 290.992937 
C 171.675115 290.983465 171.822377 290.97399 171.96964 290.964512 
C 172.116902 290.955034 172.264165 290.945553 172.411427 290.936068 
C 172.558689 290.926584 172.705951 290.917096 172.853212 290.907604 
C 173.000474 290.898112 173.147735 290.888617 173.294997 290.879119 
C 173.442258 290.86962 173.589519 290.860118 173.73678 290.850612 
C 173.88404 290.841106 174.031301 290.831596 174.178561 290.822082 
C 174.325821 290.812569 174.473081 290.803051 174.620341 290.79353 
C 174.767601 290.784009 174.91486 290.774484 175.06212 290.764954 
C 175.209379 290.755425 175.356638 290.745892 175.503897 290.736355 
C 175.651155 290.726818 175.798414 290.717277 175.945672 290.707732 
C 176.09293 290.698187 176.240188 290.688637 176.387446 290.679084 
C 176.534703 290.66953 176.681961 290.659973 176.829218 290.650411 
C 176.976475 290.640849 177.123732 290.631283 177.270988 290.621713 
C 177.418245 290.612142 177.565501 290.602567 177.712757 290.592988 
C 177.860013 290.583409 178.007269 290.573826 178.154525 290.564238 
C 178.30178 290.55465 178.449035 290.545058 178.59629 290.535461 
C 178.743545 290.525864 178.890799 290.516263 179.038054 290.506657 
C 179.185308 290.497051 179.332562 290.487441 179.479815 290.477826 
C 179.627069 290.468211 179.774322 290.458591 179.921576 290.448967 
C 180.068829 290.439342 180.216081 290.429713 180.363334 290.420079 
C 180.510586 290.410445 180.657838 290.400806 180.80509 290.391163 
C 180.952342 290.381519 181.099593 290.371871 181.246844 290.362217 
C 181.394096 290.352564 181.541346 290.342906 181.688597 290.333242 
C 181.835847 290.323579 181.983097 290.313911 182.130347 290.304238 
C 182.277597 290.294564 182.424847 290.284886 182.572096 290.275202 
C 182.719345 290.265519 182.866594 290.255831 183.013842 290.246138 
C 183.161091 290.236445 183.308339 290.226747 183.455587 290.217045 
C 183.602835 290.207343 183.750083 290.197636 183.89733 290.187926 
C 184.044577 290.178215 184.191824 290.1685 184.339071 290.158782 
C 184.486318 290.149063 184.633565 290.139341 184.780811 290.129615 
C 184.928057 290.119889 185.075304 290.11016 185.222549 290.100427 
C 185.369795 290.090695 185.517041 290.080959 185.664287 290.07122 
C 185.811532 290.061481 185.958777 290.051739 186.106023 290.041995 
C 186.253268 290.03225 186.400513 290.022503 186.547757 290.012753 
C 186.695002 290.003004 186.842247 289.993252 186.989491 289.983498 
C 187.136736 289.973744 187.28398 289.963987 187.431224 289.954229 
C 187.578469 289.944471 187.725713 289.934711 187.872957 289.92495 
C 188.020201 289.915188 188.167445 289.905425 188.314689 289.895661 
C 188.461932 289.885896 188.609176 289.876131 188.75642 289.866364 
C 188.903664 289.856597 189.050907 289.84683 189.198151 289.837061 
C 189.345394 289.827293 189.492638 289.817524 189.639881 289.807755 
C 189.787125 289.797985 189.934368 289.788215 190.081612 289.778445 
C 190.228855 289.768675 190.376099 289.758905 190.523342 289.749135 
C 190.670586 289.739365 190.817829 289.729595 190.965073 289.719825 
C 191.112316 289.710056 191.25956 289.700287 191.406803 289.690518 
C 191.554047 289.68075 191.70129 289.670982 191.848534 289.661214 
C 191.995778 289.651446 192.143021 289.641679 192.290265 289.631912 
C 192.437509 289.622144 192.584752 289.612376 192.731996 289.602608 
C 192.879239 289.59284 193.026483 289.583072 193.173726 289.573302 
C 193.32097 289.563533 193.468213 289.553763 193.615457 289.543992 
C 193.7627 289.534221 193.909944 289.524448 194.057187 289.514674 
C 194.20443 289.504901 194.351673 289.495125 194.498916 289.485348 
C 194.646159 289.475571 194.793402 289.465792 194.940645 289.456011 
C 195.087887 289.44623 195.23513 289.436447 195.382373 289.426662 
C 195.529615 289.416876 195.676857 289.407088 195.824099 289.397297 
C 195.971341 289.387506 196.118583 289.377712 196.265825 289.367916 
C 196.413067 289.358119 196.560308 289.348319 196.707549 289.338515 
C 196.85479 289.328712 197.002031 289.318905 197.149272 289.309094 
C 197.296513 289.299283 197.443753 289.289468 197.590994 289.27965 
C 197.738234 289.269831 197.885474 289.260008 198.032713 289.25018 
C 198.179953 289.240353 198.327192 289.230521 198.474431 289.220684 
C 198.62167 289.210847 198.768909 289.201005 198.916147 289.191158 
C 199.063385 289.181311 199.210623 289.171459 199.357861 289.161602 
C 199.505099 289.151744 199.652336 289.141881 199.799573 289.132012 
C 199.946809 289.122143 200.094046 289.112268 200.241282 289.102387 
C 200.388518 289.092506 200.535754 289.082619 200.682989 289.072725 
C 200.830224 289.062831 200.977459 289.052931 201.124693 289.043024 
C 201.271927 289.033117 201.419161 289.023204 201.566394 289.013284 
C 201.713628 289.003364 201.860861 288.993438 202.008093 288.983506 
C 202.155326 288.973574 202.302558 288.963636 202.44979 288.953692 
C 202.597022 288.943748 202.744253 288.933798 202.891484 288.923842 
C 203.038715 288.913887 203.185946 288.903925 203.333176 288.893959 
C 203.480406 288.883992 203.627636 288.87402 203.774865 288.864042 
C 203.922095 288.854064 204.069324 288.844082 204.216553 288.834094 
C 204.363782 288.824106 204.51101 288.814113 204.658238 288.804115 
C 204.805467 288.794117 204.952694 288.784115 205.099922 288.774107 
C 205.247149 288.7641 205.394377 288.754088 205.541604 288.744072 
C 205.68883 288.734055 205.836057 288.724034 205.983283 288.714009 
C 206.13051 288.703984 206.277736 288.693954 206.424961 288.683921 
C 206.572187 288.673887 206.719413 288.66385 206.866638 288.653809 
C 207.013863 288.643767 207.161088 288.633722 207.308313 288.623673 
C 207.455537 288.613624 207.602762 288.603572 207.749986 288.593516 
C 207.89721 288.58346 208.044434 288.5734 208.191658 288.563338 
C 208.338882 288.553275 208.486105 288.543209 208.633329 288.53314 
C 208.780552 288.523071 208.927775 288.512999 209.074998 288.502925 
C 209.222221 288.49285 209.369444 288.482772 209.516667 288.472692 
C 209.663889 288.462612 209.811111 288.452529 209.958334 288.442444 
C 210.105556 288.432358 210.252778 288.422271 210.4 288.412181 
C 210.547222 288.402091 210.694444 288.391999 210.841665 288.381905 
C 210.988887 288.37181 211.136108 288.361714 211.28333 288.351616 
C 211.430551 288.341518 211.577772 288.331417 211.724993 288.321314 
C 211.872214 288.311212 212.019435 288.301106 212.166656 288.290999 
C 212.313877 288.280891 212.461097 288.270781 212.608318 288.260668 
C 212.755538 288.250555 212.902758 288.240439 213.049978 288.230321 
C 213.197198 288.220202 213.344418 288.210081 213.491637 288.199956 
C 213.638857 288.189832 213.786076 288.179704 213.933295 288.169573 
C 214.080514 288.159442 214.227733 288.149308 214.374952 288.139171 
C 214.522171 288.129033 214.669389 288.118892 214.816607 288.108747 
C 214.963825 288.098603 215.111043 288.088454 215.258261 288.078302 
C 215.405478 288.06815 215.552696 288.057994 215.699913 288.047834 
C 215.84713 288.037675 215.994347 288.027511 216.141563 288.017343 
C 216.28878 288.007175 216.435996 287.997002 216.583212 287.986826 
C 216.730428 287.976649 216.877643 287.966468 217.024859 287.956283 
C 217.172074 287.946097 217.319289 287.935907 217.466504 287.925712 
C 217.613718 287.915518 217.760933 287.905318 217.908147 287.895114 
C 218.055361 287.884909 218.202574 287.8747 218.349787 287.864486 
C 218.497001 287.854271 218.644214 287.844052 218.791426 287.833827 
C 218.938639 287.823602 219.085851 287.813372 219.233063 287.803137 
C 219.380275 287.792901 219.527486 287.78266 219.674697 287.772414 
C 219.821908 287.762167 219.969119 287.751915 220.116329 287.741657 
C 220.263539 287.731399 220.410749 287.721135 220.557958 287.710865 
C 220.705168 287.700595 220.852377 287.690319 220.999585 287.680037 
C 221.146794 287.669755 221.294002 287.659467 221.441209 287.649172 
C 221.588417 287.638877 221.735624 287.628576 221.882831 287.618269 
C 222.030038 287.607961 222.177244 287.597647 222.32445 287.587326 
C 222.471656 287.577006 222.618861 287.566678 222.766066 287.556343 
C 222.913271 287.546009 223.060475 287.535668 223.207679 287.525319 
C 223.354883 287.51497 223.502086 287.504615 223.649289 287.494252 
C 223.796492 287.483889 223.943694 287.473519 224.090896 287.463141 
C 224.238098 287.452763 224.385299 287.442378 224.5325 287.431986 
C 224.679701 287.421593 224.826901 287.411192 224.9741 287.400784 
C 225.1213 287.390376 225.268499 287.37996 225.415698 287.369536 
C 225.562896 287.359111 225.710094 287.348679 225.857292 287.338239 
C 226.004489 287.327799 226.151686 287.31735 226.298882 287.306893 
C 226.446078 287.296436 226.593274 287.285971 226.740469 287.275497 
C 226.887664 287.265023 227.034858 287.254541 227.182052 287.24405 
C 227.329246 287.233558 227.476439 287.223058 227.623632 287.21255 
C 227.770824 287.202041 227.918016 287.191523 228.065208 287.180996 
C 228.212399 287.170469 228.35959 287.159933 228.50678 287.149388 
C 228.65397 287.138842 228.801159 287.128288 228.948348 287.117724 
C 229.095536 287.10716 229.242724 287.096586 229.389912 287.086003 
C 229.537099 287.07542 229.684286 287.064827 229.831472 287.054224 
C 229.978658 287.043621 230.125843 287.033009 230.273027 287.022386 
C 230.420212 287.011763 230.567396 287.001131 230.714579 286.990488 
C 230.861762 286.979845 231.008944 286.969192 231.156126 286.958528 
C 231.303308 286.947865 231.450489 286.937191 231.597669 286.926507 
C 231.744849 286.915822 231.892028 286.905127 232.039207 286.894421 
C 232.186386 286.883716 232.333564 286.873001 232.480741 286.862272 
C 232.627918 286.851542 232.775094 286.840799 232.92227 286.830056 
" style="fill:none;stroke:#ffffff;stroke-linejoin:miter;stroke-width:0.72;"/>
   </g>
   <g id="patch_4">
    <path clip-path="url(#p02e4ac78ae)" d="M 341.274244 69.887772 
C 341.231857 71.036 341.18947 72.184227 341.056131 73.323276 
C 340.921201 74.47592 340.693135 75.619164 340.402671 76.744946 
C 340.105528 77.896619 339.743086 79.030016 339.316496 80.139005 
C 338.876097 81.283893 338.367331 82.402767 337.801978 83.491785 
C 337.214242 84.623921 336.565349 85.72379 335.865216 86.789788 
C 335.133883 87.903292 334.346641 88.979839 333.51401 90.019731 
C 332.641853 91.108987 331.719896 92.158025 330.757825 93.168611 
C 329.748966 94.228345 328.695996 95.245795 327.607762 96.223746 
C 326.46683 97.249055 325.287135 98.230945 324.076502 99.172836 
C 322.808741 100.159174 321.507052 101.101648 320.178267 102.004006 
C 318.789398 102.947165 317.370927 103.846498 315.928753 104.705854 
C 314.424943 105.601938 312.895361 106.454556 311.34507 107.267503 
C 309.732889 108.112905 308.098312 108.915405 306.445677 109.678636 
C 304.732065 110.470028 302.999036 111.219198 301.2503 111.929546 
C 299.442547 112.663867 297.618008 113.3567 295.77986 114.011168 
C 293.885579 114.685623 291.976844 115.319333 290.056385 115.915122 
C 288.083484 116.527179 286.09821 117.099215 284.102921 117.633739 
C 282.059581 118.181135 280.005738 118.68919 277.94344 119.1601 
C 275.838087 119.64084 273.723923 120.082866 271.602744 120.488058 
C 269.444018 120.900422 267.278027 121.274636 265.106366 121.612268 
C 262.90309 121.954814 260.693977 122.259704 258.480463 122.5282 
C 256.241613 122.79977 253.998259 123.034106 251.751716 123.232169 
C 249.486384 123.431888 247.217809 123.594724 244.94722 123.721338 
C 242.664582 123.848624 240.379908 123.939302 238.094373 123.993739 
C 235.803653 124.048299 233.512068 124.066453 231.22077 124.048274 
C 228.931202 124.030109 226.641922 123.975665 224.354088 123.884724 
C 222.074882 123.794126 219.797113 123.667304 217.521977 123.503747 
C 215.26228 123.3413 213.005181 123.142613 210.751947 122.906878 
C 208.520804 122.673453 206.293452 122.403704 204.071259 122.096519 
C 201.877579 121.793276 199.688927 121.453552 197.506813 121.075934 
C 195.359328 120.704309 193.218174 120.295982 191.085043 119.849232 
C 188.992271 119.410935 186.90722 118.935654 184.831807 118.421354 
C 182.802015 117.918359 180.781442 117.37804 178.772283 116.798047 
C 176.813452 116.232583 174.86547 115.629406 172.930873 114.98585 
C 171.050657 114.360385 169.183084 113.696779 167.331096 112.992058 
C 165.536791 112.309288 163.757115 111.587923 161.995501 110.824701 
C 160.294006 110.087526 158.609361 109.311301 156.945574 108.492505 
C 155.343359 107.704011 153.760488 106.876038 152.201647 106.004862 
C 150.704724 105.168289 149.22996 104.291878 147.782824 103.371788 
C 146.396717 102.4905 145.035957 101.56914 143.706897 100.603885 
C 142.436625 99.681326 141.195311 98.718669 139.990279 97.7123 
C 138.840346 96.751946 137.723453 95.751786 136.647935 94.708675 
C 135.62234 93.713983 134.634368 92.680236 133.693323 91.605105 
C 132.795591 90.579458 131.940566 89.516149 131.138341 88.414087 
C 130.371586 87.36075 129.653065 86.272011 128.993277 85.14847 
C 128.360298 84.070581 127.781376 82.96066 127.266768 81.821403 
C 126.770169 80.722015 126.333463 79.595307 125.965767 78.446284 
C 125.608062 77.328485 125.315668 76.189568 125.095511 75.036703 
C 124.879168 73.903817 124.732579 72.757463 124.659505 71.606389 
C 124.586867 70.462199 124.586867 69.313345 124.659505 68.169155 
C 124.732579 67.018081 124.879168 65.871728 125.095511 64.738841 
C 125.315668 63.585977 125.608062 62.447059 125.965767 61.32926 
C 126.333463 60.180237 126.770169 59.053529 127.266768 57.954141 
C 127.781376 56.814884 128.360298 55.704963 128.993277 54.627074 
C 129.653065 53.503533 130.371586 52.414794 131.138341 51.361457 
C 131.940566 50.259395 132.795591 49.196086 133.693323 48.170439 
C 134.634368 47.095308 135.62234 46.061561 136.647935 45.066869 
C 137.723453 44.023758 138.840346 43.023598 139.990279 42.063244 
C 141.195311 41.056875 142.436625 40.094218 143.706897 39.171659 
C 145.035957 38.206404 146.396717 37.285044 147.782824 36.403756 
C 149.22996 35.483666 150.704724 34.607255 152.201647 33.770682 
C 153.760488 32.899506 155.343359 32.071533 156.945574 31.283039 
C 158.609361 30.464243 160.294006 29.688018 161.995501 28.950843 
C 163.757115 28.187621 165.536791 27.466257 167.331096 26.783486 
C 169.183084 26.078765 171.050657 25.415159 172.930873 24.789694 
C 174.86547 24.146138 176.813452 23.542961 178.772283 22.977497 
C 180.781442 22.397504 182.802015 21.857186 184.831807 21.35419 
C 186.90722 20.83989 188.992271 20.364609 191.085043 19.926312 
C 193.218174 19.479562 195.359328 19.071235 197.506813 18.69961 
C 199.688927 18.321992 201.877579 17.982268 204.071259 17.679025 
C 206.293452 17.37184 208.520804 17.102091 210.751947 16.868667 
C 213.005181 16.632931 215.26228 16.434244 217.521977 16.271797 
C 219.797113 16.10824 222.074882 15.981418 224.354088 15.89082 
C 226.641922 15.799879 228.931202 15.745435 231.22077 15.72727 
C 233.512068 15.709091 235.803653 15.727245 238.094373 15.781805 
C 240.379908 15.836242 242.664582 15.92692 244.94722 16.054206 
C 247.217809 16.18082 249.486384 16.343656 251.751716 16.543375 
C 253.998259 16.741438 256.241613 16.975774 258.480463 17.247344 
C 260.693977 17.51584 262.90309 17.82073 265.106366 18.163277 
C 267.278027 18.500908 269.444018 18.875122 271.602744 19.287486 
C 273.723923 19.692678 275.838087 20.134704 277.94344 20.615444 
C 280.005738 21.086354 282.059581 21.594409 284.102921 22.141805 
C 286.09821 22.676329 288.083484 23.248365 290.056385 23.860423 
C 291.976844 24.456211 293.885579 25.089921 295.77986 25.764376 
C 297.618008 26.418844 299.442547 27.111677 301.2503 27.845998 
C 302.999036 28.556346 304.732065 29.305516 306.445677 30.096908 
C 308.098312 30.860139 309.732889 31.662639 311.34507 32.508041 
C 312.895361 33.320988 314.424943 34.173606 315.928753 35.06969 
C 317.370927 35.929046 318.789398 36.828379 320.178267 37.771538 
C 321.507052 38.673896 322.808741 39.61637 324.076502 40.602708 
C 325.287135 41.544599 326.46683 42.526489 327.607762 43.551798 
C 328.695996 44.529749 329.748966 45.547199 330.757825 46.606933 
C 331.719896 47.617519 332.641853 48.666557 333.51401 49.755813 
C 334.346641 50.795705 335.133883 51.872252 335.865216 52.985756 
C 336.565349 54.051754 337.214242 55.151624 337.801978 56.283759 
C 338.367331 57.372777 338.876097 58.491651 339.316496 59.636539 
C 339.743086 60.745528 340.105528 61.878926 340.402671 63.030598 
C 340.693135 64.15638 340.921201 65.299624 341.056131 66.452268 
C 341.18947 67.591317 341.231857 68.739544 341.274244 69.887772 
" style="fill:none;stroke:#ffffff;stroke-linejoin:miter;stroke-width:0.72;"/>
   </g>
   <g id="text_1">
    <!-- Example of 4.12.2 -->
    <g transform="translate(124.050199 -6)scale(0.12 -0.12)">
     <defs>
      <path d="M 9.8125 72.90625 
L 55.90625 72.90625 
L 55.90625 64.59375 
L 19.671875 64.59375 
L 19.671875 43.015625 
L 54.390625 43.015625 
L 54.390625 34.71875 
L 19.671875 34.71875 
L 19.671875 8.296875 
L 56.78125 8.296875 
L 56.78125 0 
L 9.8125 0 
z
" id="DejaVuSans-69"/>
      <path d="M 54.890625 54.6875 
L 35.109375 28.078125 
L 55.90625 0 
L 45.3125 0 
L 29.390625 21.484375 
L 13.484375 0 
L 2.875 0 
L 24.125 28.609375 
L 4.6875 54.6875 
L 15.28125 54.6875 
L 29.78125 35.203125 
L 44.28125 54.6875 
z
" id="DejaVuSans-120"/>
      <path d="M 34.28125 27.484375 
Q 23.390625 27.484375 19.1875 25 
Q 14.984375 22.515625 14.984375 16.5 
Q 14.984375 11.71875 18.140625 8.90625 
Q 21.296875 6.109375 26.703125 6.109375 
Q 34.1875 6.109375 38.703125 11.40625 
Q 43.21875 16.703125 43.21875 25.484375 
L 43.21875 27.484375 
z
M 52.203125 31.203125 
L 52.203125 0 
L 43.21875 0 
L 43.21875 8.296875 
Q 40.140625 3.328125 35.546875 0.953125 
Q 30.953125 -1.421875 24.3125 -1.421875 
Q 15.921875 -1.421875 10.953125 3.296875 
Q 6 8.015625 6 15.921875 
Q 6 25.140625 12.171875 29.828125 
Q 18.359375 34.515625 30.609375 34.515625 
L 43.21875 34.515625 
L 43.21875 35.40625 
Q 43.21875 41.609375 39.140625 45 
Q 35.0625 48.390625 27.6875 48.390625 
Q 23 48.390625 18.546875 47.265625 
Q 14.109375 46.140625 10.015625 43.890625 
L 10.015625 52.203125 
Q 14.9375 54.109375 19.578125 55.046875 
Q 24.21875 56 28.609375 56 
Q 40.484375 56 46.34375 49.84375 
Q 52.203125 43.703125 52.203125 31.203125 
z
" id="DejaVuSans-97"/>
      <path d="M 52 44.1875 
Q 55.375 50.25 60.0625 53.125 
Q 64.75 56 71.09375 56 
Q 79.640625 56 84.28125 50.015625 
Q 88.921875 44.046875 88.921875 33.015625 
L 88.921875 0 
L 79.890625 0 
L 79.890625 32.71875 
Q 79.890625 40.578125 77.09375 44.375 
Q 74.3125 48.1875 68.609375 48.1875 
Q 61.625 48.1875 57.5625 43.546875 
Q 53.515625 38.921875 53.515625 30.90625 
L 53.515625 0 
L 44.484375 0 
L 44.484375 32.71875 
Q 44.484375 40.625 41.703125 44.40625 
Q 38.921875 48.1875 33.109375 48.1875 
Q 26.21875 48.1875 22.15625 43.53125 
Q 18.109375 38.875 18.109375 30.90625 
L 18.109375 0 
L 9.078125 0 
L 9.078125 54.6875 
L 18.109375 54.6875 
L 18.109375 46.1875 
Q 21.1875 51.21875 25.484375 53.609375 
Q 29.78125 56 35.6875 56 
Q 41.65625 56 45.828125 52.96875 
Q 50 49.953125 52 44.1875 
z
" id="DejaVuSans-109"/>
      <path d="M 18.109375 8.203125 
L 18.109375 -20.796875 
L 9.078125 -20.796875 
L 9.078125 54.6875 
L 18.109375 54.6875 
L 18.109375 46.390625 
Q 20.953125 51.265625 25.265625 53.625 
Q 29.59375 56 35.59375 56 
Q 45.5625 56 51.78125 48.09375 
Q 58.015625 40.1875 58.015625 27.296875 
Q 58.015625 14.40625 51.78125 6.484375 
Q 45.5625 -1.421875 35.59375 -1.421875 
Q 29.59375 -1.421875 25.265625 0.953125 
Q 20.953125 3.328125 18.109375 8.203125 
z
M 48.6875 27.296875 
Q 48.6875 37.203125 44.609375 42.84375 
Q 40.53125 48.484375 33.40625 48.484375 
Q 26.265625 48.484375 22.1875 42.84375 
Q 18.109375 37.203125 18.109375 27.296875 
Q 18.109375 17.390625 22.1875 11.75 
Q 26.265625 6.109375 33.40625 6.109375 
Q 40.53125 6.109375 44.609375 11.75 
Q 48.6875 17.390625 48.6875 27.296875 
z
" id="DejaVuSans-112"/>
      <path d="M 9.421875 75.984375 
L 18.40625 75.984375 
L 18.40625 0 
L 9.421875 0 
z
" id="DejaVuSans-108"/>
      <path d="M 56.203125 29.59375 
L 56.203125 25.203125 
L 14.890625 25.203125 
Q 15.484375 15.921875 20.484375 11.0625 
Q 25.484375 6.203125 34.421875 6.203125 
Q 39.59375 6.203125 44.453125 7.46875 
Q 49.3125 8.734375 54.109375 11.28125 
L 54.109375 2.78125 
Q 49.265625 0.734375 44.1875 -0.34375 
Q 39.109375 -1.421875 33.890625 -1.421875 
Q 20.796875 -1.421875 13.15625 6.1875 
Q 5.515625 13.8125 5.515625 26.8125 
Q 5.515625 40.234375 12.765625 48.109375 
Q 20.015625 56 32.328125 56 
Q 43.359375 56 49.78125 48.890625 
Q 56.203125 41.796875 56.203125 29.59375 
z
M 47.21875 32.234375 
Q 47.125 39.59375 43.09375 43.984375 
Q 39.0625 48.390625 32.421875 48.390625 
Q 24.90625 48.390625 20.390625 44.140625 
Q 15.875 39.890625 15.1875 32.171875 
z
" id="DejaVuSans-101"/>
      <path id="DejaVuSans-32"/>
      <path d="M 30.609375 48.390625 
Q 23.390625 48.390625 19.1875 42.75 
Q 14.984375 37.109375 14.984375 27.296875 
Q 14.984375 17.484375 19.15625 11.84375 
Q 23.34375 6.203125 30.609375 6.203125 
Q 37.796875 6.203125 41.984375 11.859375 
Q 46.1875 17.53125 46.1875 27.296875 
Q 46.1875 37.015625 41.984375 42.703125 
Q 37.796875 48.390625 30.609375 48.390625 
z
M 30.609375 56 
Q 42.328125 56 49.015625 48.375 
Q 55.71875 40.765625 55.71875 27.296875 
Q 55.71875 13.875 49.015625 6.21875 
Q 42.328125 -1.421875 30.609375 -1.421875 
Q 18.84375 -1.421875 12.171875 6.21875 
Q 5.515625 13.875 5.515625 27.296875 
Q 5.515625 40.765625 12.171875 48.375 
Q 18.84375 56 30.609375 56 
z
" id="DejaVuSans-111"/>
      <path d="M 37.109375 75.984375 
L 37.109375 68.5 
L 28.515625 68.5 
Q 23.6875 68.5 21.796875 66.546875 
Q 19.921875 64.59375 19.921875 59.515625 
L 19.921875 54.6875 
L 34.71875 54.6875 
L 34.71875 47.703125 
L 19.921875 47.703125 
L 19.921875 0 
L 10.890625 0 
L 10.890625 47.703125 
L 2.296875 47.703125 
L 2.296875 54.6875 
L 10.890625 54.6875 
L 10.890625 58.5 
Q 10.890625 67.625 15.140625 71.796875 
Q 19.390625 75.984375 28.609375 75.984375 
z
" id="DejaVuSans-102"/>
      <path d="M 37.796875 64.3125 
L 12.890625 25.390625 
L 37.796875 25.390625 
z
M 35.203125 72.90625 
L 47.609375 72.90625 
L 47.609375 25.390625 
L 58.015625 25.390625 
L 58.015625 17.1875 
L 47.609375 17.1875 
L 47.609375 0 
L 37.796875 0 
L 37.796875 17.1875 
L 4.890625 17.1875 
L 4.890625 26.703125 
z
" id="DejaVuSans-52"/>
      <path d="M 10.6875 12.40625 
L 21 12.40625 
L 21 0 
L 10.6875 0 
z
" id="DejaVuSans-46"/>
      <path d="M 12.40625 8.296875 
L 28.515625 8.296875 
L 28.515625 63.921875 
L 10.984375 60.40625 
L 10.984375 69.390625 
L 28.421875 72.90625 
L 38.28125 72.90625 
L 38.28125 8.296875 
L 54.390625 8.296875 
L 54.390625 0 
L 12.40625 0 
z
" id="DejaVuSans-49"/>
      <path d="M 19.1875 8.296875 
L 53.609375 8.296875 
L 53.609375 0 
L 7.328125 0 
L 7.328125 8.296875 
Q 12.9375 14.109375 22.625 23.890625 
Q 32.328125 33.6875 34.8125 36.53125 
Q 39.546875 41.84375 41.421875 45.53125 
Q 43.3125 49.21875 43.3125 52.78125 
Q 43.3125 58.59375 39.234375 62.25 
Q 35.15625 65.921875 28.609375 65.921875 
Q 23.96875 65.921875 18.8125 64.3125 
Q 13.671875 62.703125 7.8125 59.421875 
L 7.8125 69.390625 
Q 13.765625 71.78125 18.9375 73 
Q 24.125 74.21875 28.421875 74.21875 
Q 39.75 74.21875 46.484375 68.546875 
Q 53.21875 62.890625 53.21875 53.421875 
Q 53.21875 48.921875 51.53125 44.890625 
Q 49.859375 40.875 45.40625 35.40625 
Q 44.1875 33.984375 37.640625 27.21875 
Q 31.109375 20.453125 19.1875 8.296875 
z
" id="DejaVuSans-50"/>
     </defs>
     <use xlink:href="#DejaVuSans-69"/>
     <use x="63.183594" xlink:href="#DejaVuSans-120"/>
     <use x="122.363281" xlink:href="#DejaVuSans-97"/>
     <use x="183.642578" xlink:href="#DejaVuSans-109"/>
     <use x="281.054688" xlink:href="#DejaVuSans-112"/>
     <use x="344.53125" xlink:href="#DejaVuSans-108"/>
     <use x="372.314453" xlink:href="#DejaVuSans-101"/>
     <use x="433.837891" xlink:href="#DejaVuSans-32"/>
     <use x="465.625" xlink:href="#DejaVuSans-111"/>
     <use x="526.806641" xlink:href="#DejaVuSans-102"/>
     <use x="562.011719" xlink:href="#DejaVuSans-32"/>
     <use x="593.798828" xlink:href="#DejaVuSans-52"/>
     <use x="657.421875" xlink:href="#DejaVuSans-46"/>
     <use x="689.208984" xlink:href="#DejaVuSans-49"/>
     <use x="752.832031" xlink:href="#DejaVuSans-50"/>
     <use x="816.455078" xlink:href="#DejaVuSans-46"/>
     <use x="848.242188" xlink:href="#DejaVuSans-50"/>
    </g>
   </g>
  </g>
 </g>
 <defs>
  <clipPath id="p02e4ac78ae">
   <rect height="345.6" width="357.525398" x="0" y="0"/>
  </clipPath>
 </defs>
</svg>
