<?xml version="1.0" encoding="utf-8" standalone="no"?>
<!DOCTYPE svg PUBLIC "-//W3C//DTD SVG 1.1//EN"
  "http://www.w3.org/Graphics/SVG/1.1/DTD/svg11.dtd">
<!-- Created with matplotlib (https://matplotlib.org/) -->
<svg height="576pt" version="1.1" viewBox="0 0 720 576" width="720pt" xmlns="http://www.w3.org/2000/svg" xmlns:xlink="http://www.w3.org/1999/xlink">
 <metadata>
  <rdf:RDF xmlns:cc="http://creativecommons.org/ns#" xmlns:dc="http://purl.org/dc/elements/1.1/" xmlns:rdf="http://www.w3.org/1999/02/22-rdf-syntax-ns#">
   <cc:Work>
    <dc:type rdf:resource="http://purl.org/dc/dcmitype/StillImage"/>
    <dc:date>2025-09-11T01:20:38.639035</dc:date>
    <dc:format>image/svg+xml</dc:format>
    <dc:creator>
     <cc:Agent>
      <dc:title>Matplotlib v3.3.2, https://matplotlib.org/</dc:title>
     </cc:Agent>
    </dc:creator>
   </cc:Work>
  </rdf:RDF>
 </metadata>
 <defs>
  <style type="text/css">*{stroke-linecap:butt;stroke-linejoin:round;}</style>
 </defs>
 <g id="figure_1">
  <g id="patch_1">
   <path d="M 0 576 
L 720 576 
L 720 0 
L 0 0 
z
" style="fill:#ffffff;"/>
  </g>
  <g id="axes_1">
   <g id="patch_2">
    <path d="M 90 512.64 
L 648 512.64 
L 648 69.12 
L 90 69.12 
z
" style="fill:#ffffff;"/>
   </g>
   <g id="matplotlib.axis_1">
    <g id="xtick_1">
     <g id="line2d_1">
      <defs>
       <path d="M 0 0 
L 0 3.5 
" id="mb050036b47" style="stroke:#000000;stroke-width:0.8;"/>
      </defs>
      <g>
       <use style="stroke:#000000;stroke-width:0.8;" x="149.890583" xlink:href="#mb050036b47" y="512.64"/>
      </g>
     </g>
     <g id="text_1">
      <!-- −200 -->
      <g transform="translate(136.156989 527.238438)scale(0.1 -0.1)">
       <defs>
        <path d="M 10.59375 35.5 
L 73.1875 35.5 
L 73.1875 27.203125 
L 10.59375 27.203125 
z
" id="DejaVuSans-8722"/>
        <path d="M 19.1875 8.296875 
L 53.609375 8.296875 
L 53.609375 0 
L 7.328125 0 
L 7.328125 8.296875 
Q 12.9375 14.109375 22.625 23.890625 
Q 32.328125 33.6875 34.8125 36.53125 
Q 39.546875 41.84375 41.421875 45.53125 
Q 43.3125 49.21875 43.3125 52.78125 
Q 43.3125 58.59375 39.234375 62.25 
Q 35.15625 65.921875 28.609375 65.921875 
Q 23.96875 65.921875 18.8125 64.3125 
Q 13.671875 62.703125 7.8125 59.421875 
L 7.8125 69.390625 
Q 13.765625 71.78125 18.9375 73 
Q 24.125 74.21875 28.421875 74.21875 
Q 39.75 74.21875 46.484375 68.546875 
Q 53.21875 62.890625 53.21875 53.421875 
Q 53.21875 48.921875 51.53125 44.890625 
Q 49.859375 40.875 45.40625 35.40625 
Q 44.1875 33.984375 37.640625 27.21875 
Q 31.109375 20.453125 19.1875 8.296875 
z
" id="DejaVuSans-50"/>
        <path d="M 31.78125 66.40625 
Q 24.171875 66.40625 20.328125 58.90625 
Q 16.5 51.421875 16.5 36.375 
Q 16.5 21.390625 20.328125 13.890625 
Q 24.171875 6.390625 31.78125 6.390625 
Q 39.453125 6.390625 43.28125 13.890625 
Q 47.125 21.390625 47.125 36.375 
Q 47.125 51.421875 43.28125 58.90625 
Q 39.453125 66.40625 31.78125 66.40625 
z
M 31.78125 74.21875 
Q 44.046875 74.21875 50.515625 64.515625 
Q 56.984375 54.828125 56.984375 36.375 
Q 56.984375 17.96875 50.515625 8.265625 
Q 44.046875 -1.421875 31.78125 -1.421875 
Q 19.53125 -1.421875 13.0625 8.265625 
Q 6.59375 17.96875 6.59375 36.375 
Q 6.59375 54.828125 13.0625 64.515625 
Q 19.53125 74.21875 31.78125 74.21875 
z
" id="DejaVuSans-48"/>
       </defs>
       <use xlink:href="#DejaVuSans-8722"/>
       <use x="83.789062" xlink:href="#DejaVuSans-50"/>
       <use x="147.412109" xlink:href="#DejaVuSans-48"/>
       <use x="211.035156" xlink:href="#DejaVuSans-48"/>
      </g>
     </g>
    </g>
    <g id="xtick_2">
     <g id="line2d_2">
      <g>
       <use style="stroke:#000000;stroke-width:0.8;" x="212.556565" xlink:href="#mb050036b47" y="512.64"/>
      </g>
     </g>
     <g id="text_2">
      <!-- −180 -->
      <g transform="translate(198.822971 527.238438)scale(0.1 -0.1)">
       <defs>
        <path d="M 12.40625 8.296875 
L 28.515625 8.296875 
L 28.515625 63.921875 
L 10.984375 60.40625 
L 10.984375 69.390625 
L 28.421875 72.90625 
L 38.28125 72.90625 
L 38.28125 8.296875 
L 54.390625 8.296875 
L 54.390625 0 
L 12.40625 0 
z
" id="DejaVuSans-49"/>
        <path d="M 31.78125 34.625 
Q 24.75 34.625 20.71875 30.859375 
Q 16.703125 27.09375 16.703125 20.515625 
Q 16.703125 13.921875 20.71875 10.15625 
Q 24.75 6.390625 31.78125 6.390625 
Q 38.8125 6.390625 42.859375 10.171875 
Q 46.921875 13.96875 46.921875 20.515625 
Q 46.921875 27.09375 42.890625 30.859375 
Q 38.875 34.625 31.78125 34.625 
z
M 21.921875 38.8125 
Q 15.578125 40.375 12.03125 44.71875 
Q 8.5 49.078125 8.5 55.328125 
Q 8.5 64.0625 14.71875 69.140625 
Q 20.953125 74.21875 31.78125 74.21875 
Q 42.671875 74.21875 48.875 69.140625 
Q 55.078125 64.0625 55.078125 55.328125 
Q 55.078125 49.078125 51.53125 44.71875 
Q 48 40.375 41.703125 38.8125 
Q 48.828125 37.15625 52.796875 32.3125 
Q 56.78125 27.484375 56.78125 20.515625 
Q 56.78125 9.90625 50.3125 4.234375 
Q 43.84375 -1.421875 31.78125 -1.421875 
Q 19.734375 -1.421875 13.25 4.234375 
Q 6.78125 9.90625 6.78125 20.515625 
Q 6.78125 27.484375 10.78125 32.3125 
Q 14.796875 37.15625 21.921875 38.8125 
z
M 18.3125 54.390625 
Q 18.3125 48.734375 21.84375 45.5625 
Q 25.390625 42.390625 31.78125 42.390625 
Q 38.140625 42.390625 41.71875 45.5625 
Q 45.3125 48.734375 45.3125 54.390625 
Q 45.3125 60.0625 41.71875 63.234375 
Q 38.140625 66.40625 31.78125 66.40625 
Q 25.390625 66.40625 21.84375 63.234375 
Q 18.3125 60.0625 18.3125 54.390625 
z
" id="DejaVuSans-56"/>
       </defs>
       <use xlink:href="#DejaVuSans-8722"/>
       <use x="83.789062" xlink:href="#DejaVuSans-49"/>
       <use x="147.412109" xlink:href="#DejaVuSans-56"/>
       <use x="211.035156" xlink:href="#DejaVuSans-48"/>
      </g>
     </g>
    </g>
    <g id="xtick_3">
     <g id="line2d_3">
      <g>
       <use style="stroke:#000000;stroke-width:0.8;" x="275.222546" xlink:href="#mb050036b47" y="512.64"/>
      </g>
     </g>
     <g id="text_3">
      <!-- −160 -->
      <g transform="translate(261.488952 527.238438)scale(0.1 -0.1)">
       <defs>
        <path d="M 33.015625 40.375 
Q 26.375 40.375 22.484375 35.828125 
Q 18.609375 31.296875 18.609375 23.390625 
Q 18.609375 15.53125 22.484375 10.953125 
Q 26.375 6.390625 33.015625 6.390625 
Q 39.65625 6.390625 43.53125 10.953125 
Q 47.40625 15.53125 47.40625 23.390625 
Q 47.40625 31.296875 43.53125 35.828125 
Q 39.65625 40.375 33.015625 40.375 
z
M 52.59375 71.296875 
L 52.59375 62.3125 
Q 48.875 64.0625 45.09375 64.984375 
Q 41.3125 65.921875 37.59375 65.921875 
Q 27.828125 65.921875 22.671875 59.328125 
Q 17.53125 52.734375 16.796875 39.40625 
Q 19.671875 43.65625 24.015625 45.921875 
Q 28.375 48.1875 33.59375 48.1875 
Q 44.578125 48.1875 50.953125 41.515625 
Q 57.328125 34.859375 57.328125 23.390625 
Q 57.328125 12.15625 50.6875 5.359375 
Q 44.046875 -1.421875 33.015625 -1.421875 
Q 20.359375 -1.421875 13.671875 8.265625 
Q 6.984375 17.96875 6.984375 36.375 
Q 6.984375 53.65625 15.1875 63.9375 
Q 23.390625 74.21875 37.203125 74.21875 
Q 40.921875 74.21875 44.703125 73.484375 
Q 48.484375 72.75 52.59375 71.296875 
z
" id="DejaVuSans-54"/>
       </defs>
       <use xlink:href="#DejaVuSans-8722"/>
       <use x="83.789062" xlink:href="#DejaVuSans-49"/>
       <use x="147.412109" xlink:href="#DejaVuSans-54"/>
       <use x="211.035156" xlink:href="#DejaVuSans-48"/>
      </g>
     </g>
    </g>
    <g id="xtick_4">
     <g id="line2d_4">
      <g>
       <use style="stroke:#000000;stroke-width:0.8;" x="337.888528" xlink:href="#mb050036b47" y="512.64"/>
      </g>
     </g>
     <g id="text_4">
      <!-- −140 -->
      <g transform="translate(324.154934 527.238438)scale(0.1 -0.1)">
       <defs>
        <path d="M 37.796875 64.3125 
L 12.890625 25.390625 
L 37.796875 25.390625 
z
M 35.203125 72.90625 
L 47.609375 72.90625 
L 47.609375 25.390625 
L 58.015625 25.390625 
L 58.015625 17.1875 
L 47.609375 17.1875 
L 47.609375 0 
L 37.796875 0 
L 37.796875 17.1875 
L 4.890625 17.1875 
L 4.890625 26.703125 
z
" id="DejaVuSans-52"/>
       </defs>
       <use xlink:href="#DejaVuSans-8722"/>
       <use x="83.789062" xlink:href="#DejaVuSans-49"/>
       <use x="147.412109" xlink:href="#DejaVuSans-52"/>
       <use x="211.035156" xlink:href="#DejaVuSans-48"/>
      </g>
     </g>
    </g>
    <g id="xtick_5">
     <g id="line2d_5">
      <g>
       <use style="stroke:#000000;stroke-width:0.8;" x="400.55451" xlink:href="#mb050036b47" y="512.64"/>
      </g>
     </g>
     <g id="text_5">
      <!-- −120 -->
      <g transform="translate(386.820916 527.238438)scale(0.1 -0.1)">
       <use xlink:href="#DejaVuSans-8722"/>
       <use x="83.789062" xlink:href="#DejaVuSans-49"/>
       <use x="147.412109" xlink:href="#DejaVuSans-50"/>
       <use x="211.035156" xlink:href="#DejaVuSans-48"/>
      </g>
     </g>
    </g>
    <g id="xtick_6">
     <g id="line2d_6">
      <g>
       <use style="stroke:#000000;stroke-width:0.8;" x="463.220491" xlink:href="#mb050036b47" y="512.64"/>
      </g>
     </g>
     <g id="text_6">
      <!-- −100 -->
      <g transform="translate(449.486897 527.238438)scale(0.1 -0.1)">
       <use xlink:href="#DejaVuSans-8722"/>
       <use x="83.789062" xlink:href="#DejaVuSans-49"/>
       <use x="147.412109" xlink:href="#DejaVuSans-48"/>
       <use x="211.035156" xlink:href="#DejaVuSans-48"/>
      </g>
     </g>
    </g>
    <g id="xtick_7">
     <g id="line2d_7">
      <g>
       <use style="stroke:#000000;stroke-width:0.8;" x="525.886473" xlink:href="#mb050036b47" y="512.64"/>
      </g>
     </g>
     <g id="text_7">
      <!-- −80 -->
      <g transform="translate(515.334129 527.238438)scale(0.1 -0.1)">
       <use xlink:href="#DejaVuSans-8722"/>
       <use x="83.789062" xlink:href="#DejaVuSans-56"/>
       <use x="147.412109" xlink:href="#DejaVuSans-48"/>
      </g>
     </g>
    </g>
    <g id="xtick_8">
     <g id="line2d_8">
      <g>
       <use style="stroke:#000000;stroke-width:0.8;" x="588.552454" xlink:href="#mb050036b47" y="512.64"/>
      </g>
     </g>
     <g id="text_8">
      <!-- −60 -->
      <g transform="translate(578.000111 527.238438)scale(0.1 -0.1)">
       <use xlink:href="#DejaVuSans-8722"/>
       <use x="83.789062" xlink:href="#DejaVuSans-54"/>
       <use x="147.412109" xlink:href="#DejaVuSans-48"/>
      </g>
     </g>
    </g>
   </g>
   <g id="matplotlib.axis_2">
    <g id="ytick_1">
     <g id="line2d_9">
      <defs>
       <path d="M 0 0 
L -3.5 0 
" id="m7ad668e1af" style="stroke:#000000;stroke-width:0.8;"/>
      </defs>
      <g>
       <use style="stroke:#000000;stroke-width:0.8;" x="90" xlink:href="#m7ad668e1af" y="482.855452"/>
      </g>
     </g>
     <g id="text_9">
      <!-- −60 -->
      <g transform="translate(61.895313 486.654671)scale(0.1 -0.1)">
       <use xlink:href="#DejaVuSans-8722"/>
       <use x="83.789062" xlink:href="#DejaVuSans-54"/>
       <use x="147.412109" xlink:href="#DejaVuSans-48"/>
      </g>
     </g>
    </g>
    <g id="ytick_2">
     <g id="line2d_10">
      <g>
       <use style="stroke:#000000;stroke-width:0.8;" x="90" xlink:href="#m7ad668e1af" y="420.189471"/>
      </g>
     </g>
     <g id="text_10">
      <!-- −40 -->
      <g transform="translate(61.895313 423.988689)scale(0.1 -0.1)">
       <use xlink:href="#DejaVuSans-8722"/>
       <use x="83.789062" xlink:href="#DejaVuSans-52"/>
       <use x="147.412109" xlink:href="#DejaVuSans-48"/>
      </g>
     </g>
    </g>
    <g id="ytick_3">
     <g id="line2d_11">
      <g>
       <use style="stroke:#000000;stroke-width:0.8;" x="90" xlink:href="#m7ad668e1af" y="357.523489"/>
      </g>
     </g>
     <g id="text_11">
      <!-- −20 -->
      <g transform="translate(61.895313 361.322708)scale(0.1 -0.1)">
       <use xlink:href="#DejaVuSans-8722"/>
       <use x="83.789062" xlink:href="#DejaVuSans-50"/>
       <use x="147.412109" xlink:href="#DejaVuSans-48"/>
      </g>
     </g>
    </g>
    <g id="ytick_4">
     <g id="line2d_12">
      <g>
       <use style="stroke:#000000;stroke-width:0.8;" x="90" xlink:href="#m7ad668e1af" y="294.857507"/>
      </g>
     </g>
     <g id="text_12">
      <!-- 0 -->
      <g transform="translate(76.6375 298.656726)scale(0.1 -0.1)">
       <use xlink:href="#DejaVuSans-48"/>
      </g>
     </g>
    </g>
    <g id="ytick_5">
     <g id="line2d_13">
      <g>
       <use style="stroke:#000000;stroke-width:0.8;" x="90" xlink:href="#m7ad668e1af" y="232.191526"/>
      </g>
     </g>
     <g id="text_13">
      <!-- 20 -->
      <g transform="translate(70.275 235.990744)scale(0.1 -0.1)">
       <use xlink:href="#DejaVuSans-50"/>
       <use x="63.623047" xlink:href="#DejaVuSans-48"/>
      </g>
     </g>
    </g>
    <g id="ytick_6">
     <g id="line2d_14">
      <g>
       <use style="stroke:#000000;stroke-width:0.8;" x="90" xlink:href="#m7ad668e1af" y="169.525544"/>
      </g>
     </g>
     <g id="text_14">
      <!-- 40 -->
      <g transform="translate(70.275 173.324763)scale(0.1 -0.1)">
       <use xlink:href="#DejaVuSans-52"/>
       <use x="63.623047" xlink:href="#DejaVuSans-48"/>
      </g>
     </g>
    </g>
    <g id="ytick_7">
     <g id="line2d_15">
      <g>
       <use style="stroke:#000000;stroke-width:0.8;" x="90" xlink:href="#m7ad668e1af" y="106.859562"/>
      </g>
     </g>
     <g id="text_15">
      <!-- 60 -->
      <g transform="translate(70.275 110.658781)scale(0.1 -0.1)">
       <use xlink:href="#DejaVuSans-54"/>
       <use x="63.623047" xlink:href="#DejaVuSans-48"/>
      </g>
     </g>
    </g>
   </g>
   <g id="line2d_16">
    <defs>
     <path d="M 0 3 
C 0.795609 3 1.55874 2.683901 2.12132 2.12132 
C 2.683901 1.55874 3 0.795609 3 0 
C 3 -0.795609 2.683901 -1.55874 2.12132 -2.12132 
C 1.55874 -2.683901 0.795609 -3 0 -3 
C -0.795609 -3 -1.55874 -2.683901 -2.12132 -2.12132 
C -2.683901 -1.55874 -3 -0.795609 -3 0 
C -3 0.795609 -2.683901 1.55874 -2.12132 2.12132 
C -1.55874 2.683901 -0.795609 3 0 3 
z
" id="mc98712354b" style="stroke:#0000ff;"/>
    </defs>
    <g clip-path="url(#p89dcc9b2ed)">
     <use style="fill:#0000ff;stroke:#0000ff;" x="593.959845" xlink:href="#mc98712354b" y="186.755457"/>
    </g>
   </g>
   <g id="line2d_17">
    <defs>
     <path d="M 0 3 
C 0.795609 3 1.55874 2.683901 2.12132 2.12132 
C 2.683901 1.55874 3 0.795609 3 0 
C 3 -0.795609 2.683901 -1.55874 2.12132 -2.12132 
C 1.55874 -2.683901 0.795609 -3 0 -3 
C -0.795609 -3 -1.55874 -2.683901 -2.12132 -2.12132 
C -2.683901 -1.55874 -3 -0.795609 -3 0 
C -3 0.795609 -2.683901 1.55874 -2.12132 2.12132 
C -1.55874 2.683901 -0.795609 3 0 3 
z
" id="m50ef6262f9" style="stroke:#ff0000;"/>
    </defs>
    <g clip-path="url(#p89dcc9b2ed)">
     <use style="fill:#ff0000;stroke:#ff0000;" x="621.383045" xlink:href="#m50ef6262f9" y="207.692911"/>
    </g>
   </g>
   <g id="line2d_18">
    <path clip-path="url(#p89dcc9b2ed)" d="M 593.959845 186.755457 
L 569.841654 187.288953 
L 545.973275 188.070818 
L 522.638544 189.09083 
L 499.848259 190.342509 
L 477.613333 191.820331 
L 455.944246 193.517948 
L 434.851416 195.428994 
L 414.34519 197.547116 
L 394.435319 199.864648 
L 375.132066 202.375517 
L 356.445027 205.072263 
L 341.349932 207.455726 
L 326.695147 209.959273 
L 312.485919 212.578066 
L 298.727049 215.306279 
L 285.424523 218.140307 
L 272.583976 221.075822 
L 260.2099 224.106281 
L 248.307293 227.226152 
L 236.882886 230.433335 
L 225.941894 233.722925 
L 215.48788 237.086906 
L 205.527178 240.519892 
L 196.068587 244.018886 
L 187.11758 247.576126 
L 178.676785 251.179938 
L 170.755268 254.828477 
L 163.365306 258.525029 
L 157.83974 261.512607 
L 152.657482 264.519047 
L 147.823982 267.536056 
L 143.352611 270.55585 
L 139.250069 273.566805 
L 135.516068 276.553712 
L 132.147769 279.502734 
L 129.153456 282.41814 
L 126.535037 285.299401 
L 124.28255 288.13361 
L 122.382778 290.891323 
L 120.832437 293.516777 
L 119.614198 295.960288 
L 118.507882 298.702206 
L 117.785393 301.048493 
L 117.242208 303.604381 
L 116.96999 306.070654 
L 116.941265 308.143351 
L 117.093624 310.16498 
L 117.458866 312.340801 
L 117.992227 314.37519 
L 118.81215 316.63303 
L 119.98663 319.06399 
L 121.138311 320.961767 
L 122.537828 322.898779 
L 124.186021 324.856697 
L 126.075463 326.818332 
L 128.205317 328.771612 
L 131.413686 331.350045 
L 135.018852 333.892432 
L 139.002219 336.390604 
L 143.36252 338.831818 
L 148.091448 341.211058 
L 153.171523 343.532776 
L 158.589586 345.798946 
L 164.344412 348.002484 
L 172.006793 350.664077 
L 180.178238 353.227648 
L 188.840062 355.709413 
L 197.983479 358.111015 
L 207.605326 360.426758 
L 217.700328 362.656441 
L 230.427968 365.227345 
L 243.813592 367.691817 
L 257.850494 370.045408 
L 272.530663 372.288153 
L 287.844226 374.426087 
L 306.499686 376.790032 
L 325.994488 379.013455 
L 346.315348 381.102743 
L 367.449747 383.060777 
L 389.38553 384.88879 
L 415.419635 386.824489 
L 442.46474 388.599617 
L 470.501353 390.22052 
L 499.509907 391.692859 
L 533.281294 393.181038 
L 568.228362 394.502499 
L 583.045972 395.004543 
L 583.045972 395.004543 
L 583.369537 388.830557 
L 545.041922 387.429967 
L 510.91647 385.968911 
L 477.991943 384.332405 
L 449.758446 382.706517 
L 425.869806 381.122948 
L 402.759049 379.366899 
L 380.440898 377.424756 
L 358.931081 375.301132 
L 338.242476 373.008572 
L 318.388318 370.561191 
L 299.38553 367.965881 
L 281.244677 365.234548 
L 263.977737 362.393 
L 247.602351 359.454019 
L 234.283048 356.854086 
L 223.700274 354.598306 
L 213.612899 352.232006 
L 204.037259 349.729811 
L 194.980956 347.090404 
L 186.446868 344.327896 
L 178.456864 341.463831 
L 172.489848 339.107038 
L 166.906328 336.694169 
L 161.706235 334.233134 
L 156.885276 331.735727 
L 152.464145 329.227101 
L 148.496111 326.736386 
L 144.978454 324.273008 
L 141.894111 321.850918 
L 139.258311 319.514943 
L 137.150946 317.3547 
L 135.530411 315.38877 
L 134.356331 313.660687 
L 133.4869 311.96843 
L 132.972681 310.442205 
L 132.675623 308.882585 
L 132.607347 307.280529 
L 132.761879 305.702637 
L 133.176946 303.872644 
L 133.81926 301.99464 
L 134.71506 299.979564 
L 136.028614 297.581351 
L 137.805704 294.88449 
L 139.609887 292.535796 
L 141.817408 290.002449 
L 144.476348 287.271634 
L 147.547088 284.39564 
L 151.003627 281.426407 
L 154.860549 278.380255 
L 159.124082 275.273245 
L 163.783597 272.124891 
L 168.816629 268.964 
L 174.228867 265.804313 
L 180.024295 262.65625 
L 186.202933 259.526981 
L 192.751261 256.424975 
L 199.653148 253.367086 
L 206.908696 250.365258 
L 214.516489 247.429617 
L 222.473156 244.567817 
L 232.89328 241.095283 
L 243.823104 237.730146 
L 255.250147 234.450802 
L 269.601298 230.593553 
L 284.634351 226.826808 
L 297.679165 223.773822 
L 311.191663 220.813381 
L 325.166441 217.958737 
L 339.597699 215.221341 
L 354.481052 212.610979 
L 369.810884 210.136515 
L 385.580378 207.808224 
L 401.784212 205.637477 
L 418.416386 203.634265 
L 435.469003 201.801898 
L 452.934845 200.140112 
L 470.806769 198.646591 
L 489.077109 197.317603 
L 511.517744 195.933961 
L 534.510812 194.778955 
L 558.044887 193.858511 
L 582.109082 193.178894 
L 593.635538 192.943597 
L 593.959845 186.755457 
L 593.959845 186.755457 
" style="fill:none;stroke:#0000ff;stroke-linecap:square;stroke-width:1.5;"/>
   </g>
   <g id="line2d_19">
    <path clip-path="url(#p89dcc9b2ed)" d="M 621.383045 207.692911 
L 600.947729 208.801447 
L 581.085933 210.092206 
L 561.67503 211.566723 
L 542.723839 213.219366 
L 524.241299 215.045264 
L 506.235961 217.038846 
L 488.716333 219.194549 
L 471.690852 221.506796 
L 455.167435 223.968964 
L 439.154474 226.575784 
L 423.659755 229.320823 
L 408.690894 232.197312 
L 394.256069 235.199747 
L 380.362291 238.320317 
L 367.017139 241.552177 
L 354.228958 244.889885 
L 342.004204 248.324542 
L 330.350578 251.849403 
L 319.277306 255.460472 
L 308.790467 259.148336 
L 300.504568 262.273354 
L 292.638708 265.443409 
L 285.197988 268.653057 
L 278.184626 271.893005 
L 271.605122 275.159553 
L 265.471423 278.456186 
L 259.789334 281.778536 
L 254.559286 285.114655 
L 249.793834 288.451726 
L 245.510529 291.774711 
L 241.711824 295.060748 
L 239.019116 297.647574 
L 236.643311 300.198248 
L 234.586523 302.709744 
L 232.839764 305.169779 
L 231.390464 307.551127 
L 229.982358 310.345115 
L 228.981515 312.866503 
L 228.225174 315.460743 
L 227.787738 317.825351 
L 227.606666 320.111126 
L 227.658193 322.157603 
L 227.911624 324.169006 
L 228.446918 326.455806 
L 229.240011 328.706669 
L 230.173637 330.687061 
L 231.4265 332.777973 
L 233.02811 334.937468 
L 234.984494 337.127132 
L 237.295623 339.315537 
L 239.959004 341.48318 
L 242.955454 343.619061 
L 246.272259 345.712381 
L 249.908475 347.751366 
L 253.856549 349.73096 
L 259.206524 352.126326 
L 265.001438 354.431381 
L 271.238196 356.635534 
L 277.908342 358.737904 
L 284.996566 360.749432 
L 292.489966 362.678522 
L 302.012461 364.877032 
L 312.106606 366.946144 
L 322.76093 368.894137 
L 333.964556 370.728548 
L 345.711541 372.44543 
L 360.093598 374.300429 
L 375.192109 376.00397 
L 390.996382 377.556863 
L 407.496052 378.960543 
L 427.189639 380.38971 
L 447.761046 381.633868 
L 469.194192 382.697966 
L 491.473004 383.586701 
L 517.527414 384.383211 
L 544.608287 384.972769 
L 572.691927 385.364641 
L 605.042733 385.581685 
L 618.277526 385.607959 
L 618.277526 385.607959 
L 618.385419 379.426763 
L 618.318269 379.426649 
L 585.535119 379.263291 
L 553.954094 378.875249 
L 526.586949 378.320009 
L 503.121279 377.634712 
L 483.268786 376.85834 
L 464.064796 375.895419 
L 445.522017 374.734808 
L 427.654608 373.384297 
L 410.473673 371.856804 
L 393.992099 370.165831 
L 378.22482 368.31809 
L 363.18012 366.329483 
L 348.871145 364.225511 
L 335.31267 362.017729 
L 324.295312 360.029064 
L 313.855414 357.900965 
L 305.625964 355.987717 
L 297.836401 353.930995 
L 290.491395 351.739743 
L 283.59408 349.430557 
L 277.188469 347.026182 
L 271.30214 344.534352 
L 265.93655 341.968712 
L 261.083349 339.35162 
L 257.605102 337.256687 
L 254.527666 335.188789 
L 251.841096 333.159782 
L 249.523522 331.183842 
L 247.604856 329.317806 
L 245.820898 327.241232 
L 244.621853 325.476996 
L 243.933591 324.11296 
L 243.515924 322.799371 
L 243.297924 321.370398 
L 243.312607 319.879355 
L 243.548362 318.358344 
L 244.033598 316.638781 
L 244.83898 314.62164 
L 245.868742 312.598682 
L 247.291158 310.306056 
L 249.215042 307.71364 
L 251.733905 304.798986 
L 254.786804 301.667147 
L 258.359737 298.387945 
L 262.475671 294.987997 
L 267.124989 291.50235 
L 272.275435 287.981394 
L 277.937686 284.448027 
L 284.116466 280.918695 
L 290.792798 277.411407 
L 297.941467 273.956267 
L 305.562693 270.573556 
L 313.652984 267.279242 
L 322.196094 264.078007 
L 331.172498 260.960527 
L 342.498139 257.297941 
L 354.407887 253.681743 
L 366.888407 250.119448 
L 379.937513 246.632463 
L 393.551987 243.242562 
L 407.723315 239.970362 
L 422.445418 236.832179 
L 437.71092 233.842753 
L 450.84061 231.477371 
L 464.337194 229.237686 
L 478.195636 227.132497 
L 495.293662 224.786115 
L 512.892016 222.63355 
L 530.979433 220.668734 
L 549.5449 218.883733 
L 568.57868 217.273825 
L 588.071229 215.843467 
L 608.013674 214.598284 
L 621.274919 213.887432 
L 621.274919 213.887432 
L 621.383045 207.692911 
L 621.383045 207.692911 
" style="fill:none;stroke:#ff0000;stroke-linecap:square;stroke-width:1.5;"/>
   </g>
   <g id="line2d_20">
    <path clip-path="url(#p89dcc9b2ed)" d="M 593.933333 185.189032 
L 569.798767 185.72289 
L 545.913452 186.505311 
L 522.561413 187.52608 
L 499.753404 188.778734 
L 477.500242 190.257768 
L 455.81245 191.956852 
L 434.700303 193.86965 
L 414.174199 195.989826 
L 394.243797 198.30975 
L 374.919202 200.823396 
L 356.210133 203.523323 
L 341.095931 205.909805 
L 326.421317 208.41674 
L 312.191654 211.0393 
L 298.411597 213.771717 
L 285.08682 216.610487 
L 272.223128 219.551296 
L 259.825154 222.58761 
L 247.897153 225.714141 
L 236.445754 228.928906 
L 225.476488 232.227001 
L 214.99303 235.600462 
L 205.000431 239.044451 
L 195.507679 242.55609 
L 186.520822 246.127585 
L 178.042311 249.747516 
L 170.077723 253.415918 
L 162.640115 257.136329 
L 157.074173 260.14575 
L 151.850156 263.176433 
L 146.971213 266.221835 
L 142.450907 269.27471 
L 138.297238 272.32322 
L 134.511226 275.351761 
L 131.08647 278.350329 
L 128.02758 281.32874 
L 125.341607 284.284455 
L 123.023307 287.201571 
L 121.062148 290.048514 
L 119.455619 292.769271 
L 118.187705 295.312595 
L 117.030329 298.181409 
L 116.270226 300.650171 
L 115.695569 303.354782 
L 115.410855 305.898597 
L 115.375365 308.191809 
L 115.538113 310.351469 
L 115.927562 312.671707 
L 116.495403 314.837693 
L 117.367095 317.238181 
L 118.263336 319.160859 
L 119.398904 321.154546 
L 120.785337 323.183368 
L 122.422656 325.225601 
L 124.302111 327.263508 
L 126.421134 329.286933 
L 128.776546 331.286411 
L 132.266033 333.906217 
L 136.130727 336.475131 
L 140.37022 338.985838 
L 144.977794 341.4287 
L 149.937887 343.803474 
L 155.233786 346.118579 
L 160.864787 348.371926 
L 166.828409 350.557717 
L 174.742287 353.194079 
L 183.150029 355.734486 
L 192.038476 358.194484 
L 201.405436 360.570185 
L 211.246351 362.857948 
L 223.671264 365.490864 
L 236.755252 368.013941 
L 250.492025 370.427707 
L 264.874192 372.729057 
L 279.892257 374.921438 
L 298.205509 377.348663 
L 317.361424 379.634197 
L 337.347049 381.781883 
L 358.14984 383.797791 
L 379.758075 385.682312 
L 405.422968 387.680069 
L 432.104579 389.515833 
L 459.783699 391.19448 
L 488.440961 392.722446 
L 521.824864 394.26931 
L 556.392867 395.645265 
L 583.432174 396.522845 
L 583.962852 396.274867 
L 584.365355 395.849304 
L 584.583414 395.305647 
L 584.610475 395.086535 
L 584.610475 395.086535 
L 584.858186 388.342381 
L 584.565577 387.818686 
L 584.097597 387.443358 
L 583.522866 387.271428 
L 583.422154 387.264791 
L 545.104022 385.864549 
L 510.988667 384.403926 
L 478.075738 382.767998 
L 449.85535 381.142867 
L 425.980628 379.560223 
L 402.88607 377.805407 
L 380.585728 375.864815 
L 359.094298 373.743008 
L 338.424539 371.452538 
L 318.589968 369.007573 
L 299.60823 366.415141 
L 281.488543 363.686995 
L 264.243125 360.848992 
L 247.890905 357.914173 
L 234.596511 355.319116 
L 224.041295 353.069223 
L 213.988939 350.711156 
L 204.454254 348.219676 
L 195.441298 345.592914 
L 186.952013 342.84492 
L 179.010772 339.998369 
L 173.08797 337.65906 
L 167.551974 335.266748 
L 162.401638 332.82928 
L 157.631637 330.358289 
L 153.266258 327.881365 
L 149.361514 325.43045 
L 145.911697 323.014656 
L 142.896842 320.647206 
L 140.337847 318.379605 
L 138.31685 316.308249 
L 136.783418 314.448362 
L 135.498178 312.509351 
L 134.838805 311.130276 
L 134.394982 309.661233 
L 134.186534 308.20425 
L 134.21066 306.71945 
L 134.462129 305.162799 
L 134.932294 303.508677 
L 135.737983 301.480293 
L 136.81786 299.344525 
L 138.338674 296.865184 
L 139.903855 294.686074 
L 141.84134 292.32183 
L 144.210882 289.755214 
L 147.035962 286.989429 
L 150.247125 284.109852 
L 153.852618 281.141229 
L 157.864235 278.099454 
L 162.284264 274.999912 
L 167.086454 271.871665 
L 172.264974 268.736195 
L 177.826438 265.604917 
L 183.773725 262.486614 
L 190.103699 259.387074 
L 196.792675 256.322051 
L 203.83576 253.306103 
L 211.232764 250.350198 
L 218.981727 247.463428 
L 227.078268 244.65012 
L 237.668768 241.233607 
L 248.769596 237.914924 
L 260.368157 234.668032 
L 274.922115 230.845336 
L 287.569333 227.73333 
L 300.686218 224.702797 
L 314.27002 221.767175 
L 328.314757 218.939508 
L 342.815398 216.230771 
L 357.767462 213.650538 
L 373.164899 211.207699 
L 389.000871 208.91304 
L 405.270115 206.777845 
L 421.966785 204.811146 
L 439.083307 203.015002 
L 456.612688 201.38882 
L 474.547771 199.929906 
L 492.880885 198.634481 
L 515.396358 197.289833 
L 538.462873 196.174289 
L 562.068938 195.294224 
L 586.203629 194.655723 
L 594.241848 194.388165 
L 594.733001 194.061615 
L 595.068608 193.576606 
L 595.200041 193.025588 
L 595.20004 193.025589 
L 595.450722 186.274132 
L 595.164618 185.754003 
L 594.705537 185.377658 
L 594.139393 185.199131 
L 593.932056 185.189055 
L 593.932056 185.189055 
" style="fill:none;stroke:#0000ff;stroke-dasharray:5.55,2.4;stroke-dashoffset:0;stroke-width:1.5;"/>
   </g>
   <g id="line2d_21">
    <path clip-path="url(#p89dcc9b2ed)" d="M 621.321756 206.441091 
L 600.873153 207.550348 
L 580.997852 208.841985 
L 561.57315 210.317551 
L 542.607829 211.971427 
L 524.110757 213.798761 
L 506.090519 215.793994 
L 488.555509 217.951591 
L 471.514208 220.265987 
L 454.974452 222.730591 
L 438.944513 225.340177 
L 423.432272 228.088321 
L 408.445104 230.968329 
L 393.991183 233.974738 
L 380.077613 237.099756 
L 366.711502 240.336696 
L 353.901275 243.68016 
L 341.653522 247.121282 
L 329.97506 250.653662 
L 318.875239 254.273395 
L 308.360527 257.971067 
L 300.049424 261.105598 
L 292.156405 264.286606 
L 284.68705 267.508612 
L 277.643777 270.762389 
L 271.030299 274.045826 
L 264.858728 277.362835 
L 259.136143 280.708886 
L 253.863511 284.072203 
L 249.050618 287.442548 
L 244.71641 290.80508 
L 240.865522 294.136311 
L 238.127224 296.767042 
L 235.700048 299.372981 
L 233.590267 301.949294 
L 231.79261 304.4811 
L 230.29699 306.938653 
L 229.095152 309.273383 
L 227.974758 311.956828 
L 227.22099 314.323836 
L 226.694208 316.688006 
L 226.410162 318.959097 
L 226.355087 321.214674 
L 226.523331 323.376837 
L 226.910643 325.532955 
L 227.532655 327.723462 
L 228.299404 329.694657 
L 229.363715 331.817186 
L 230.768942 334.034608 
L 232.531185 336.297607 
L 234.648724 338.567537 
L 237.120602 340.817812 
L 239.935448 343.03011 
L 243.071068 345.197467 
L 246.52487 347.312955 
L 250.292793 349.366043 
L 254.363094 351.353652 
L 259.85226 353.753716 
L 265.782722 356.05739 
L 272.149592 358.255612 
L 278.941497 360.349897 
L 286.141753 362.353475 
L 293.744197 364.272568 
L 303.394047 366.456563 
L 313.61021 368.51019 
L 324.380247 370.443472 
L 335.696664 372.262041 
L 347.553672 373.962072 
L 362.059677 375.79753 
L 377.278075 377.48176 
L 393.199328 379.014723 
L 409.812515 380.398881 
L 429.632245 381.806003 
L 450.3264 383.028092 
L 471.878727 384.070735 
L 494.273618 384.938239 
L 520.454726 385.711741 
L 547.658492 386.278998 
L 575.861131 386.649711 
L 608.339687 386.844724 
L 618.773874 386.758806 
L 619.203325 386.45277 
L 619.468879 385.997174 
L 619.530655 385.629833 
L 619.530655 385.629833 
L 619.540185 378.939602 
L 619.244222 378.513929 
L 618.801304 378.244456 
L 618.320406 378.173331 
L 585.545736 378.010017 
L 553.974558 377.622096 
L 526.617811 377.067069 
L 503.164101 376.382124 
L 483.324349 375.606253 
L 464.135167 374.644076 
L 445.608377 373.484468 
L 427.757335 372.135194 
L 410.593073 370.609185 
L 394.128866 368.919996 
L 378.380023 367.074417 
L 363.353406 365.088201 
L 349.062893 362.986947 
L 335.524311 360.782408 
L 324.530521 358.798013 
L 314.122774 356.676494 
L 305.927453 354.7712 
L 298.175416 352.724397 
L 290.869486 350.544813 
L 284.012462 348.249132 
L 277.652399 345.861889 
L 271.816536 343.391457 
L 266.504392 340.851409 
L 261.706045 338.263935 
L 258.277404 336.198944 
L 255.254758 334.167933 
L 252.625672 332.182413 
L 249.858836 329.787974 
L 247.756675 327.625968 
L 246.306812 325.781217 
L 245.404145 324.303522 
L 244.903607 323.115804 
L 244.600971 321.794433 
L 244.535152 320.451328 
L 244.675496 319.11616 
L 245.052457 317.563427 
L 245.679257 315.829736 
L 246.737494 313.61941 
L 248.018788 311.473923 
L 249.774088 309.027261 
L 252.11465 306.243278 
L 255.018527 303.195717 
L 258.434938 299.990962 
L 262.392613 296.65419 
L 266.893916 293.215771 
L 271.898919 289.730702 
L 277.414703 286.225936 
L 283.449139 282.718747 
L 289.991521 279.22473 
L 297.008227 275.775803 
L 304.498378 272.393755 
L 312.460024 269.095512 
L 320.883082 265.888064 
L 329.74652 262.764844 
L 340.947321 259.099587 
L 352.740644 255.482524 
L 365.106098 251.915594 
L 378.040011 248.420113 
L 391.539957 245.017741 
L 405.598122 241.729589 
L 420.208247 238.572481 
L 435.363512 235.56124 
L 451.054348 232.712331 
L 464.533867 230.475479 
L 478.375628 228.372824 
L 495.454758 226.029038 
L 513.035569 223.878621 
L 531.106876 221.915557 
L 549.65762 220.131974 
L 568.677336 218.523255 
L 588.156115 217.093909 
L 608.085098 215.849566 
L 621.915585 214.96463 
L 622.30269 214.604715 
L 622.506993 214.117223 
L 622.528048 213.909305 
L 622.528048 213.909305 
L 622.53938 207.209488 
L 622.232614 206.771477 
L 621.771187 206.501209 
L 621.321714 206.441093 
L 621.321714 206.441093 
" style="fill:none;stroke:#ff0000;stroke-dasharray:5.55,2.4;stroke-dashoffset:0;stroke-width:1.5;"/>
   </g>
   <g id="patch_3">
    <path d="M 90 512.64 
L 90 69.12 
" style="fill:none;stroke:#000000;stroke-linecap:square;stroke-linejoin:miter;stroke-width:0.8;"/>
   </g>
   <g id="patch_4">
    <path d="M 648 512.64 
L 648 69.12 
" style="fill:none;stroke:#000000;stroke-linecap:square;stroke-linejoin:miter;stroke-width:0.8;"/>
   </g>
   <g id="patch_5">
    <path d="M 90 512.64 
L 648 512.64 
" style="fill:none;stroke:#000000;stroke-linecap:square;stroke-linejoin:miter;stroke-width:0.8;"/>
   </g>
   <g id="patch_6">
    <path d="M 90 69.12 
L 648 69.12 
" style="fill:none;stroke:#000000;stroke-linecap:square;stroke-linejoin:miter;stroke-width:0.8;"/>
   </g>
   <g id="text_16">
    <!-- Plank Gcode generation Example -->
    <g transform="translate(269.2575 63.12)scale(0.12 -0.12)">
     <defs>
      <path d="M 19.671875 64.796875 
L 19.671875 37.40625 
L 32.078125 37.40625 
Q 38.96875 37.40625 42.71875 40.96875 
Q 46.484375 44.53125 46.484375 51.125 
Q 46.484375 57.671875 42.71875 61.234375 
Q 38.96875 64.796875 32.078125 64.796875 
z
M 9.8125 72.90625 
L 32.078125 72.90625 
Q 44.34375 72.90625 50.609375 67.359375 
Q 56.890625 61.8125 56.890625 51.125 
Q 56.890625 40.328125 50.609375 34.8125 
Q 44.34375 29.296875 32.078125 29.296875 
L 19.671875 29.296875 
L 19.671875 0 
L 9.8125 0 
z
" id="DejaVuSans-80"/>
      <path d="M 9.421875 75.984375 
L 18.40625 75.984375 
L 18.40625 0 
L 9.421875 0 
z
" id="DejaVuSans-108"/>
      <path d="M 34.28125 27.484375 
Q 23.390625 27.484375 19.1875 25 
Q 14.984375 22.515625 14.984375 16.5 
Q 14.984375 11.71875 18.140625 8.90625 
Q 21.296875 6.109375 26.703125 6.109375 
Q 34.1875 6.109375 38.703125 11.40625 
Q 43.21875 16.703125 43.21875 25.484375 
L 43.21875 27.484375 
z
M 52.203125 31.203125 
L 52.203125 0 
L 43.21875 0 
L 43.21875 8.296875 
Q 40.140625 3.328125 35.546875 0.953125 
Q 30.953125 -1.421875 24.3125 -1.421875 
Q 15.921875 -1.421875 10.953125 3.296875 
Q 6 8.015625 6 15.921875 
Q 6 25.140625 12.171875 29.828125 
Q 18.359375 34.515625 30.609375 34.515625 
L 43.21875 34.515625 
L 43.21875 35.40625 
Q 43.21875 41.609375 39.140625 45 
Q 35.0625 48.390625 27.6875 48.390625 
Q 23 48.390625 18.546875 47.265625 
Q 14.109375 46.140625 10.015625 43.890625 
L 10.015625 52.203125 
Q 14.9375 54.109375 19.578125 55.046875 
Q 24.21875 56 28.609375 56 
Q 40.484375 56 46.34375 49.84375 
Q 52.203125 43.703125 52.203125 31.203125 
z
" id="DejaVuSans-97"/>
      <path d="M 54.890625 33.015625 
L 54.890625 0 
L 45.90625 0 
L 45.90625 32.71875 
Q 45.90625 40.484375 42.875 44.328125 
Q 39.84375 48.1875 33.796875 48.1875 
Q 26.515625 48.1875 22.3125 43.546875 
Q 18.109375 38.921875 18.109375 30.90625 
L 18.109375 0 
L 9.078125 0 
L 9.078125 54.6875 
L 18.109375 54.6875 
L 18.109375 46.1875 
Q 21.34375 51.125 25.703125 53.5625 
Q 30.078125 56 35.796875 56 
Q 45.21875 56 50.046875 50.171875 
Q 54.890625 44.34375 54.890625 33.015625 
z
" id="DejaVuSans-110"/>
      <path d="M 9.078125 75.984375 
L 18.109375 75.984375 
L 18.109375 31.109375 
L 44.921875 54.6875 
L 56.390625 54.6875 
L 27.390625 29.109375 
L 57.625 0 
L 45.90625 0 
L 18.109375 26.703125 
L 18.109375 0 
L 9.078125 0 
z
" id="DejaVuSans-107"/>
      <path id="DejaVuSans-32"/>
      <path d="M 59.515625 10.40625 
L 59.515625 29.984375 
L 43.40625 29.984375 
L 43.40625 38.09375 
L 69.28125 38.09375 
L 69.28125 6.78125 
Q 63.578125 2.734375 56.6875 0.65625 
Q 49.8125 -1.421875 42 -1.421875 
Q 24.90625 -1.421875 15.25 8.5625 
Q 5.609375 18.5625 5.609375 36.375 
Q 5.609375 54.25 15.25 64.234375 
Q 24.90625 74.21875 42 74.21875 
Q 49.125 74.21875 55.546875 72.453125 
Q 61.96875 70.703125 67.390625 67.28125 
L 67.390625 56.78125 
Q 61.921875 61.421875 55.765625 63.765625 
Q 49.609375 66.109375 42.828125 66.109375 
Q 29.4375 66.109375 22.71875 58.640625 
Q 16.015625 51.171875 16.015625 36.375 
Q 16.015625 21.625 22.71875 14.15625 
Q 29.4375 6.6875 42.828125 6.6875 
Q 48.046875 6.6875 52.140625 7.59375 
Q 56.25 8.5 59.515625 10.40625 
z
" id="DejaVuSans-71"/>
      <path d="M 48.78125 52.59375 
L 48.78125 44.1875 
Q 44.96875 46.296875 41.140625 47.34375 
Q 37.3125 48.390625 33.40625 48.390625 
Q 24.65625 48.390625 19.8125 42.84375 
Q 14.984375 37.3125 14.984375 27.296875 
Q 14.984375 17.28125 19.8125 11.734375 
Q 24.65625 6.203125 33.40625 6.203125 
Q 37.3125 6.203125 41.140625 7.25 
Q 44.96875 8.296875 48.78125 10.40625 
L 48.78125 2.09375 
Q 45.015625 0.34375 40.984375 -0.53125 
Q 36.96875 -1.421875 32.421875 -1.421875 
Q 20.0625 -1.421875 12.78125 6.34375 
Q 5.515625 14.109375 5.515625 27.296875 
Q 5.515625 40.671875 12.859375 48.328125 
Q 20.21875 56 33.015625 56 
Q 37.15625 56 41.109375 55.140625 
Q 45.0625 54.296875 48.78125 52.59375 
z
" id="DejaVuSans-99"/>
      <path d="M 30.609375 48.390625 
Q 23.390625 48.390625 19.1875 42.75 
Q 14.984375 37.109375 14.984375 27.296875 
Q 14.984375 17.484375 19.15625 11.84375 
Q 23.34375 6.203125 30.609375 6.203125 
Q 37.796875 6.203125 41.984375 11.859375 
Q 46.1875 17.53125 46.1875 27.296875 
Q 46.1875 37.015625 41.984375 42.703125 
Q 37.796875 48.390625 30.609375 48.390625 
z
M 30.609375 56 
Q 42.328125 56 49.015625 48.375 
Q 55.71875 40.765625 55.71875 27.296875 
Q 55.71875 13.875 49.015625 6.21875 
Q 42.328125 -1.421875 30.609375 -1.421875 
Q 18.84375 -1.421875 12.171875 6.21875 
Q 5.515625 13.875 5.515625 27.296875 
Q 5.515625 40.765625 12.171875 48.375 
Q 18.84375 56 30.609375 56 
z
" id="DejaVuSans-111"/>
      <path d="M 45.40625 46.390625 
L 45.40625 75.984375 
L 54.390625 75.984375 
L 54.390625 0 
L 45.40625 0 
L 45.40625 8.203125 
Q 42.578125 3.328125 38.25 0.953125 
Q 33.9375 -1.421875 27.875 -1.421875 
Q 17.96875 -1.421875 11.734375 6.484375 
Q 5.515625 14.40625 5.515625 27.296875 
Q 5.515625 40.1875 11.734375 48.09375 
Q 17.96875 56 27.875 56 
Q 33.9375 56 38.25 53.625 
Q 42.578125 51.265625 45.40625 46.390625 
z
M 14.796875 27.296875 
Q 14.796875 17.390625 18.875 11.75 
Q 22.953125 6.109375 30.078125 6.109375 
Q 37.203125 6.109375 41.296875 11.75 
Q 45.40625 17.390625 45.40625 27.296875 
Q 45.40625 37.203125 41.296875 42.84375 
Q 37.203125 48.484375 30.078125 48.484375 
Q 22.953125 48.484375 18.875 42.84375 
Q 14.796875 37.203125 14.796875 27.296875 
z
" id="DejaVuSans-100"/>
      <path d="M 56.203125 29.59375 
L 56.203125 25.203125 
L 14.890625 25.203125 
Q 15.484375 15.921875 20.484375 11.0625 
Q 25.484375 6.203125 34.421875 6.203125 
Q 39.59375 6.203125 44.453125 7.46875 
Q 49.3125 8.734375 54.109375 11.28125 
L 54.109375 2.78125 
Q 49.265625 0.734375 44.1875 -0.34375 
Q 39.109375 -1.421875 33.890625 -1.421875 
Q 20.796875 -1.421875 13.15625 6.1875 
Q 5.515625 13.8125 5.515625 26.8125 
Q 5.515625 40.234375 12.765625 48.109375 
Q 20.015625 56 32.328125 56 
Q 43.359375 56 49.78125 48.890625 
Q 56.203125 41.796875 56.203125 29.59375 
z
M 47.21875 32.234375 
Q 47.125 39.59375 43.09375 43.984375 
Q 39.0625 48.390625 32.421875 48.390625 
Q 24.90625 48.390625 20.390625 44.140625 
Q 15.875 39.890625 15.1875 32.171875 
z
" id="DejaVuSans-101"/>
      <path d="M 45.40625 27.984375 
Q 45.40625 37.75 41.375 43.109375 
Q 37.359375 48.484375 30.078125 48.484375 
Q 22.859375 48.484375 18.828125 43.109375 
Q 14.796875 37.75 14.796875 27.984375 
Q 14.796875 18.265625 18.828125 12.890625 
Q 22.859375 7.515625 30.078125 7.515625 
Q 37.359375 7.515625 41.375 12.890625 
Q 45.40625 18.265625 45.40625 27.984375 
z
M 54.390625 6.78125 
Q 54.390625 -7.171875 48.1875 -13.984375 
Q 42 -20.796875 29.203125 -20.796875 
Q 24.46875 -20.796875 20.265625 -20.09375 
Q 16.0625 -19.390625 12.109375 -17.921875 
L 12.109375 -9.1875 
Q 16.0625 -11.328125 19.921875 -12.34375 
Q 23.78125 -13.375 27.78125 -13.375 
Q 36.625 -13.375 41.015625 -8.765625 
Q 45.40625 -4.15625 45.40625 5.171875 
L 45.40625 9.625 
Q 42.625 4.78125 38.28125 2.390625 
Q 33.9375 0 27.875 0 
Q 17.828125 0 11.671875 7.65625 
Q 5.515625 15.328125 5.515625 27.984375 
Q 5.515625 40.671875 11.671875 48.328125 
Q 17.828125 56 27.875 56 
Q 33.9375 56 38.28125 53.609375 
Q 42.625 51.21875 45.40625 46.390625 
L 45.40625 54.6875 
L 54.390625 54.6875 
z
" id="DejaVuSans-103"/>
      <path d="M 41.109375 46.296875 
Q 39.59375 47.171875 37.8125 47.578125 
Q 36.03125 48 33.890625 48 
Q 26.265625 48 22.1875 43.046875 
Q 18.109375 38.09375 18.109375 28.8125 
L 18.109375 0 
L 9.078125 0 
L 9.078125 54.6875 
L 18.109375 54.6875 
L 18.109375 46.1875 
Q 20.953125 51.171875 25.484375 53.578125 
Q 30.03125 56 36.53125 56 
Q 37.453125 56 38.578125 55.875 
Q 39.703125 55.765625 41.0625 55.515625 
z
" id="DejaVuSans-114"/>
      <path d="M 18.3125 70.21875 
L 18.3125 54.6875 
L 36.8125 54.6875 
L 36.8125 47.703125 
L 18.3125 47.703125 
L 18.3125 18.015625 
Q 18.3125 11.328125 20.140625 9.421875 
Q 21.96875 7.515625 27.59375 7.515625 
L 36.8125 7.515625 
L 36.8125 0 
L 27.59375 0 
Q 17.1875 0 13.234375 3.875 
Q 9.28125 7.765625 9.28125 18.015625 
L 9.28125 47.703125 
L 2.6875 47.703125 
L 2.6875 54.6875 
L 9.28125 54.6875 
L 9.28125 70.21875 
z
" id="DejaVuSans-116"/>
      <path d="M 9.421875 54.6875 
L 18.40625 54.6875 
L 18.40625 0 
L 9.421875 0 
z
M 9.421875 75.984375 
L 18.40625 75.984375 
L 18.40625 64.59375 
L 9.421875 64.59375 
z
" id="DejaVuSans-105"/>
      <path d="M 9.8125 72.90625 
L 55.90625 72.90625 
L 55.90625 64.59375 
L 19.671875 64.59375 
L 19.671875 43.015625 
L 54.390625 43.015625 
L 54.390625 34.71875 
L 19.671875 34.71875 
L 19.671875 8.296875 
L 56.78125 8.296875 
L 56.78125 0 
L 9.8125 0 
z
" id="DejaVuSans-69"/>
      <path d="M 54.890625 54.6875 
L 35.109375 28.078125 
L 55.90625 0 
L 45.3125 0 
L 29.390625 21.484375 
L 13.484375 0 
L 2.875 0 
L 24.125 28.609375 
L 4.6875 54.6875 
L 15.28125 54.6875 
L 29.78125 35.203125 
L 44.28125 54.6875 
z
" id="DejaVuSans-120"/>
      <path d="M 52 44.1875 
Q 55.375 50.25 60.0625 53.125 
Q 64.75 56 71.09375 56 
Q 79.640625 56 84.28125 50.015625 
Q 88.921875 44.046875 88.921875 33.015625 
L 88.921875 0 
L 79.890625 0 
L 79.890625 32.71875 
Q 79.890625 40.578125 77.09375 44.375 
Q 74.3125 48.1875 68.609375 48.1875 
Q 61.625 48.1875 57.5625 43.546875 
Q 53.515625 38.921875 53.515625 30.90625 
L 53.515625 0 
L 44.484375 0 
L 44.484375 32.71875 
Q 44.484375 40.625 41.703125 44.40625 
Q 38.921875 48.1875 33.109375 48.1875 
Q 26.21875 48.1875 22.15625 43.53125 
Q 18.109375 38.875 18.109375 30.90625 
L 18.109375 0 
L 9.078125 0 
L 9.078125 54.6875 
L 18.109375 54.6875 
L 18.109375 46.1875 
Q 21.1875 51.21875 25.484375 53.609375 
Q 29.78125 56 35.6875 56 
Q 41.65625 56 45.828125 52.96875 
Q 50 49.953125 52 44.1875 
z
" id="DejaVuSans-109"/>
      <path d="M 18.109375 8.203125 
L 18.109375 -20.796875 
L 9.078125 -20.796875 
L 9.078125 54.6875 
L 18.109375 54.6875 
L 18.109375 46.390625 
Q 20.953125 51.265625 25.265625 53.625 
Q 29.59375 56 35.59375 56 
Q 45.5625 56 51.78125 48.09375 
Q 58.015625 40.1875 58.015625 27.296875 
Q 58.015625 14.40625 51.78125 6.484375 
Q 45.5625 -1.421875 35.59375 -1.421875 
Q 29.59375 -1.421875 25.265625 0.953125 
Q 20.953125 3.328125 18.109375 8.203125 
z
M 48.6875 27.296875 
Q 48.6875 37.203125 44.609375 42.84375 
Q 40.53125 48.484375 33.40625 48.484375 
Q 26.265625 48.484375 22.1875 42.84375 
Q 18.109375 37.203125 18.109375 27.296875 
Q 18.109375 17.390625 22.1875 11.75 
Q 26.265625 6.109375 33.40625 6.109375 
Q 40.53125 6.109375 44.609375 11.75 
Q 48.6875 17.390625 48.6875 27.296875 
z
" id="DejaVuSans-112"/>
     </defs>
     <use xlink:href="#DejaVuSans-80"/>
     <use x="60.302734" xlink:href="#DejaVuSans-108"/>
     <use x="88.085938" xlink:href="#DejaVuSans-97"/>
     <use x="149.365234" xlink:href="#DejaVuSans-110"/>
     <use x="212.744141" xlink:href="#DejaVuSans-107"/>
     <use x="270.654297" xlink:href="#DejaVuSans-32"/>
     <use x="302.441406" xlink:href="#DejaVuSans-71"/>
     <use x="379.931641" xlink:href="#DejaVuSans-99"/>
     <use x="434.912109" xlink:href="#DejaVuSans-111"/>
     <use x="496.09375" xlink:href="#DejaVuSans-100"/>
     <use x="559.570312" xlink:href="#DejaVuSans-101"/>
     <use x="621.09375" xlink:href="#DejaVuSans-32"/>
     <use x="652.880859" xlink:href="#DejaVuSans-103"/>
     <use x="716.357422" xlink:href="#DejaVuSans-101"/>
     <use x="777.880859" xlink:href="#DejaVuSans-110"/>
     <use x="841.259766" xlink:href="#DejaVuSans-101"/>
     <use x="902.783203" xlink:href="#DejaVuSans-114"/>
     <use x="943.896484" xlink:href="#DejaVuSans-97"/>
     <use x="1005.175781" xlink:href="#DejaVuSans-116"/>
     <use x="1044.384766" xlink:href="#DejaVuSans-105"/>
     <use x="1072.167969" xlink:href="#DejaVuSans-111"/>
     <use x="1133.349609" xlink:href="#DejaVuSans-110"/>
     <use x="1196.728516" xlink:href="#DejaVuSans-32"/>
     <use x="1228.515625" xlink:href="#DejaVuSans-69"/>
     <use x="1291.699219" xlink:href="#DejaVuSans-120"/>
     <use x="1350.878906" xlink:href="#DejaVuSans-97"/>
     <use x="1412.158203" xlink:href="#DejaVuSans-109"/>
     <use x="1509.570312" xlink:href="#DejaVuSans-112"/>
     <use x="1573.046875" xlink:href="#DejaVuSans-108"/>
     <use x="1600.830078" xlink:href="#DejaVuSans-101"/>
    </g>
   </g>
  </g>
 </g>
 <defs>
  <clipPath id="p89dcc9b2ed">
   <rect height="443.52" width="558" x="90" y="69.12"/>
  </clipPath>
 </defs>
</svg>
