<?xml version="1.0" encoding="utf-8" standalone="no"?>
<!DOCTYPE svg PUBLIC "-//W3C//DTD SVG 1.1//EN"
  "http://www.w3.org/Graphics/SVG/1.1/DTD/svg11.dtd">
<!-- Created with matplotlib (https://matplotlib.org/) -->
<svg height="576pt" version="1.1" viewBox="0 0 720 576" width="720pt" xmlns="http://www.w3.org/2000/svg" xmlns:xlink="http://www.w3.org/1999/xlink">
 <metadata>
  <rdf:RDF xmlns:cc="http://creativecommons.org/ns#" xmlns:dc="http://purl.org/dc/elements/1.1/" xmlns:rdf="http://www.w3.org/1999/02/22-rdf-syntax-ns#">
   <cc:Work>
    <dc:type rdf:resource="http://purl.org/dc/dcmitype/StillImage"/>
    <dc:date>2025-09-03T01:04:49.218555</dc:date>
    <dc:format>image/svg+xml</dc:format>
    <dc:creator>
     <cc:Agent>
      <dc:title>Matplotlib v3.3.2, https://matplotlib.org/</dc:title>
     </cc:Agent>
    </dc:creator>
   </cc:Work>
  </rdf:RDF>
 </metadata>
 <defs>
  <style type="text/css">*{stroke-linecap:butt;stroke-linejoin:round;}</style>
 </defs>
 <g id="figure_1">
  <g id="patch_1">
   <path d="M 0 576 
L 720 576 
L 720 0 
L 0 0 
z
" style="fill:#ffffff;"/>
  </g>
  <g id="axes_1">
   <g id="patch_2">
    <path d="M 90 512.64 
L 648 512.64 
L 648 69.12 
L 90 69.12 
z
" style="fill:#ffffff;"/>
   </g>
   <g id="matplotlib.axis_1">
    <g id="xtick_1">
     <g id="line2d_1">
      <defs>
       <path d="M 0 0 
L 0 3.5 
" id="md5059348dd" style="stroke:#000000;stroke-width:0.8;"/>
      </defs>
      <g>
       <use style="stroke:#000000;stroke-width:0.8;" x="111.293437" xlink:href="#md5059348dd" y="512.64"/>
      </g>
     </g>
     <g id="text_1">
      <!-- 0.006 -->
      <g transform="translate(96.979374 527.238438)scale(0.1 -0.1)">
       <defs>
        <path d="M 31.78125 66.40625 
Q 24.171875 66.40625 20.328125 58.90625 
Q 16.5 51.421875 16.5 36.375 
Q 16.5 21.390625 20.328125 13.890625 
Q 24.171875 6.390625 31.78125 6.390625 
Q 39.453125 6.390625 43.28125 13.890625 
Q 47.125 21.390625 47.125 36.375 
Q 47.125 51.421875 43.28125 58.90625 
Q 39.453125 66.40625 31.78125 66.40625 
z
M 31.78125 74.21875 
Q 44.046875 74.21875 50.515625 64.515625 
Q 56.984375 54.828125 56.984375 36.375 
Q 56.984375 17.96875 50.515625 8.265625 
Q 44.046875 -1.421875 31.78125 -1.421875 
Q 19.53125 -1.421875 13.0625 8.265625 
Q 6.59375 17.96875 6.59375 36.375 
Q 6.59375 54.828125 13.0625 64.515625 
Q 19.53125 74.21875 31.78125 74.21875 
z
" id="DejaVuSans-48"/>
        <path d="M 10.6875 12.40625 
L 21 12.40625 
L 21 0 
L 10.6875 0 
z
" id="DejaVuSans-46"/>
        <path d="M 33.015625 40.375 
Q 26.375 40.375 22.484375 35.828125 
Q 18.609375 31.296875 18.609375 23.390625 
Q 18.609375 15.53125 22.484375 10.953125 
Q 26.375 6.390625 33.015625 6.390625 
Q 39.65625 6.390625 43.53125 10.953125 
Q 47.40625 15.53125 47.40625 23.390625 
Q 47.40625 31.296875 43.53125 35.828125 
Q 39.65625 40.375 33.015625 40.375 
z
M 52.59375 71.296875 
L 52.59375 62.3125 
Q 48.875 64.0625 45.09375 64.984375 
Q 41.3125 65.921875 37.59375 65.921875 
Q 27.828125 65.921875 22.671875 59.328125 
Q 17.53125 52.734375 16.796875 39.40625 
Q 19.671875 43.65625 24.015625 45.921875 
Q 28.375 48.1875 33.59375 48.1875 
Q 44.578125 48.1875 50.953125 41.515625 
Q 57.328125 34.859375 57.328125 23.390625 
Q 57.328125 12.15625 50.6875 5.359375 
Q 44.046875 -1.421875 33.015625 -1.421875 
Q 20.359375 -1.421875 13.671875 8.265625 
Q 6.984375 17.96875 6.984375 36.375 
Q 6.984375 53.65625 15.1875 63.9375 
Q 23.390625 74.21875 37.203125 74.21875 
Q 40.921875 74.21875 44.703125 73.484375 
Q 48.484375 72.75 52.59375 71.296875 
z
" id="DejaVuSans-54"/>
       </defs>
       <use xlink:href="#DejaVuSans-48"/>
       <use x="63.623047" xlink:href="#DejaVuSans-46"/>
       <use x="95.410156" xlink:href="#DejaVuSans-48"/>
       <use x="159.033203" xlink:href="#DejaVuSans-48"/>
       <use x="222.65625" xlink:href="#DejaVuSans-54"/>
      </g>
     </g>
    </g>
    <g id="xtick_2">
     <g id="line2d_2">
      <g>
       <use style="stroke:#000000;stroke-width:0.8;" x="176.274293" xlink:href="#md5059348dd" y="512.64"/>
      </g>
     </g>
     <g id="text_2">
      <!-- 0.008 -->
      <g transform="translate(161.96023 527.238438)scale(0.1 -0.1)">
       <defs>
        <path d="M 31.78125 34.625 
Q 24.75 34.625 20.71875 30.859375 
Q 16.703125 27.09375 16.703125 20.515625 
Q 16.703125 13.921875 20.71875 10.15625 
Q 24.75 6.390625 31.78125 6.390625 
Q 38.8125 6.390625 42.859375 10.171875 
Q 46.921875 13.96875 46.921875 20.515625 
Q 46.921875 27.09375 42.890625 30.859375 
Q 38.875 34.625 31.78125 34.625 
z
M 21.921875 38.8125 
Q 15.578125 40.375 12.03125 44.71875 
Q 8.5 49.078125 8.5 55.328125 
Q 8.5 64.0625 14.71875 69.140625 
Q 20.953125 74.21875 31.78125 74.21875 
Q 42.671875 74.21875 48.875 69.140625 
Q 55.078125 64.0625 55.078125 55.328125 
Q 55.078125 49.078125 51.53125 44.71875 
Q 48 40.375 41.703125 38.8125 
Q 48.828125 37.15625 52.796875 32.3125 
Q 56.78125 27.484375 56.78125 20.515625 
Q 56.78125 9.90625 50.3125 4.234375 
Q 43.84375 -1.421875 31.78125 -1.421875 
Q 19.734375 -1.421875 13.25 4.234375 
Q 6.78125 9.90625 6.78125 20.515625 
Q 6.78125 27.484375 10.78125 32.3125 
Q 14.796875 37.15625 21.921875 38.8125 
z
M 18.3125 54.390625 
Q 18.3125 48.734375 21.84375 45.5625 
Q 25.390625 42.390625 31.78125 42.390625 
Q 38.140625 42.390625 41.71875 45.5625 
Q 45.3125 48.734375 45.3125 54.390625 
Q 45.3125 60.0625 41.71875 63.234375 
Q 38.140625 66.40625 31.78125 66.40625 
Q 25.390625 66.40625 21.84375 63.234375 
Q 18.3125 60.0625 18.3125 54.390625 
z
" id="DejaVuSans-56"/>
       </defs>
       <use xlink:href="#DejaVuSans-48"/>
       <use x="63.623047" xlink:href="#DejaVuSans-46"/>
       <use x="95.410156" xlink:href="#DejaVuSans-48"/>
       <use x="159.033203" xlink:href="#DejaVuSans-48"/>
       <use x="222.65625" xlink:href="#DejaVuSans-56"/>
      </g>
     </g>
    </g>
    <g id="xtick_3">
     <g id="line2d_3">
      <g>
       <use style="stroke:#000000;stroke-width:0.8;" x="241.255148" xlink:href="#md5059348dd" y="512.64"/>
      </g>
     </g>
     <g id="text_3">
      <!-- 0.010 -->
      <g transform="translate(226.941086 527.238438)scale(0.1 -0.1)">
       <defs>
        <path d="M 12.40625 8.296875 
L 28.515625 8.296875 
L 28.515625 63.921875 
L 10.984375 60.40625 
L 10.984375 69.390625 
L 28.421875 72.90625 
L 38.28125 72.90625 
L 38.28125 8.296875 
L 54.390625 8.296875 
L 54.390625 0 
L 12.40625 0 
z
" id="DejaVuSans-49"/>
       </defs>
       <use xlink:href="#DejaVuSans-48"/>
       <use x="63.623047" xlink:href="#DejaVuSans-46"/>
       <use x="95.410156" xlink:href="#DejaVuSans-48"/>
       <use x="159.033203" xlink:href="#DejaVuSans-49"/>
       <use x="222.65625" xlink:href="#DejaVuSans-48"/>
      </g>
     </g>
    </g>
    <g id="xtick_4">
     <g id="line2d_4">
      <g>
       <use style="stroke:#000000;stroke-width:0.8;" x="306.236004" xlink:href="#md5059348dd" y="512.64"/>
      </g>
     </g>
     <g id="text_4">
      <!-- 0.012 -->
      <g transform="translate(291.921941 527.238438)scale(0.1 -0.1)">
       <defs>
        <path d="M 19.1875 8.296875 
L 53.609375 8.296875 
L 53.609375 0 
L 7.328125 0 
L 7.328125 8.296875 
Q 12.9375 14.109375 22.625 23.890625 
Q 32.328125 33.6875 34.8125 36.53125 
Q 39.546875 41.84375 41.421875 45.53125 
Q 43.3125 49.21875 43.3125 52.78125 
Q 43.3125 58.59375 39.234375 62.25 
Q 35.15625 65.921875 28.609375 65.921875 
Q 23.96875 65.921875 18.8125 64.3125 
Q 13.671875 62.703125 7.8125 59.421875 
L 7.8125 69.390625 
Q 13.765625 71.78125 18.9375 73 
Q 24.125 74.21875 28.421875 74.21875 
Q 39.75 74.21875 46.484375 68.546875 
Q 53.21875 62.890625 53.21875 53.421875 
Q 53.21875 48.921875 51.53125 44.890625 
Q 49.859375 40.875 45.40625 35.40625 
Q 44.1875 33.984375 37.640625 27.21875 
Q 31.109375 20.453125 19.1875 8.296875 
z
" id="DejaVuSans-50"/>
       </defs>
       <use xlink:href="#DejaVuSans-48"/>
       <use x="63.623047" xlink:href="#DejaVuSans-46"/>
       <use x="95.410156" xlink:href="#DejaVuSans-48"/>
       <use x="159.033203" xlink:href="#DejaVuSans-49"/>
       <use x="222.65625" xlink:href="#DejaVuSans-50"/>
      </g>
     </g>
    </g>
    <g id="xtick_5">
     <g id="line2d_5">
      <g>
       <use style="stroke:#000000;stroke-width:0.8;" x="371.21686" xlink:href="#md5059348dd" y="512.64"/>
      </g>
     </g>
     <g id="text_5">
      <!-- 0.014 -->
      <g transform="translate(356.902797 527.238438)scale(0.1 -0.1)">
       <defs>
        <path d="M 37.796875 64.3125 
L 12.890625 25.390625 
L 37.796875 25.390625 
z
M 35.203125 72.90625 
L 47.609375 72.90625 
L 47.609375 25.390625 
L 58.015625 25.390625 
L 58.015625 17.1875 
L 47.609375 17.1875 
L 47.609375 0 
L 37.796875 0 
L 37.796875 17.1875 
L 4.890625 17.1875 
L 4.890625 26.703125 
z
" id="DejaVuSans-52"/>
       </defs>
       <use xlink:href="#DejaVuSans-48"/>
       <use x="63.623047" xlink:href="#DejaVuSans-46"/>
       <use x="95.410156" xlink:href="#DejaVuSans-48"/>
       <use x="159.033203" xlink:href="#DejaVuSans-49"/>
       <use x="222.65625" xlink:href="#DejaVuSans-52"/>
      </g>
     </g>
    </g>
    <g id="xtick_6">
     <g id="line2d_6">
      <g>
       <use style="stroke:#000000;stroke-width:0.8;" x="436.197715" xlink:href="#md5059348dd" y="512.64"/>
      </g>
     </g>
     <g id="text_6">
      <!-- 0.016 -->
      <g transform="translate(421.883653 527.238438)scale(0.1 -0.1)">
       <use xlink:href="#DejaVuSans-48"/>
       <use x="63.623047" xlink:href="#DejaVuSans-46"/>
       <use x="95.410156" xlink:href="#DejaVuSans-48"/>
       <use x="159.033203" xlink:href="#DejaVuSans-49"/>
       <use x="222.65625" xlink:href="#DejaVuSans-54"/>
      </g>
     </g>
    </g>
    <g id="xtick_7">
     <g id="line2d_7">
      <g>
       <use style="stroke:#000000;stroke-width:0.8;" x="501.178571" xlink:href="#md5059348dd" y="512.64"/>
      </g>
     </g>
     <g id="text_7">
      <!-- 0.018 -->
      <g transform="translate(486.864509 527.238438)scale(0.1 -0.1)">
       <use xlink:href="#DejaVuSans-48"/>
       <use x="63.623047" xlink:href="#DejaVuSans-46"/>
       <use x="95.410156" xlink:href="#DejaVuSans-48"/>
       <use x="159.033203" xlink:href="#DejaVuSans-49"/>
       <use x="222.65625" xlink:href="#DejaVuSans-56"/>
      </g>
     </g>
    </g>
    <g id="xtick_8">
     <g id="line2d_8">
      <g>
       <use style="stroke:#000000;stroke-width:0.8;" x="566.159427" xlink:href="#md5059348dd" y="512.64"/>
      </g>
     </g>
     <g id="text_8">
      <!-- 0.020 -->
      <g transform="translate(551.845364 527.238438)scale(0.1 -0.1)">
       <use xlink:href="#DejaVuSans-48"/>
       <use x="63.623047" xlink:href="#DejaVuSans-46"/>
       <use x="95.410156" xlink:href="#DejaVuSans-48"/>
       <use x="159.033203" xlink:href="#DejaVuSans-50"/>
       <use x="222.65625" xlink:href="#DejaVuSans-48"/>
      </g>
     </g>
    </g>
    <g id="xtick_9">
     <g id="line2d_9">
      <g>
       <use style="stroke:#000000;stroke-width:0.8;" x="631.140283" xlink:href="#md5059348dd" y="512.64"/>
      </g>
     </g>
     <g id="text_9">
      <!-- 0.022 -->
      <g transform="translate(616.82622 527.238438)scale(0.1 -0.1)">
       <use xlink:href="#DejaVuSans-48"/>
       <use x="63.623047" xlink:href="#DejaVuSans-46"/>
       <use x="95.410156" xlink:href="#DejaVuSans-48"/>
       <use x="159.033203" xlink:href="#DejaVuSans-50"/>
       <use x="222.65625" xlink:href="#DejaVuSans-50"/>
      </g>
     </g>
    </g>
   </g>
   <g id="matplotlib.axis_2">
    <g id="ytick_1">
     <g id="line2d_10">
      <defs>
       <path d="M 0 0 
L -3.5 0 
" id="m831f71fe64" style="stroke:#000000;stroke-width:0.8;"/>
      </defs>
      <g>
       <use style="stroke:#000000;stroke-width:0.8;" x="90" xlink:href="#m831f71fe64" y="465.136177"/>
      </g>
     </g>
     <g id="text_10">
      <!-- −0.020 -->
      <g transform="translate(45.992188 468.935396)scale(0.1 -0.1)">
       <defs>
        <path d="M 10.59375 35.5 
L 73.1875 35.5 
L 73.1875 27.203125 
L 10.59375 27.203125 
z
" id="DejaVuSans-8722"/>
       </defs>
       <use xlink:href="#DejaVuSans-8722"/>
       <use x="83.789062" xlink:href="#DejaVuSans-48"/>
       <use x="147.412109" xlink:href="#DejaVuSans-46"/>
       <use x="179.199219" xlink:href="#DejaVuSans-48"/>
       <use x="242.822266" xlink:href="#DejaVuSans-50"/>
       <use x="306.445312" xlink:href="#DejaVuSans-48"/>
      </g>
     </g>
    </g>
    <g id="ytick_2">
     <g id="line2d_11">
      <g>
       <use style="stroke:#000000;stroke-width:0.8;" x="90" xlink:href="#m831f71fe64" y="400.155321"/>
      </g>
     </g>
     <g id="text_11">
      <!-- −0.018 -->
      <g transform="translate(45.992188 403.95454)scale(0.1 -0.1)">
       <use xlink:href="#DejaVuSans-8722"/>
       <use x="83.789062" xlink:href="#DejaVuSans-48"/>
       <use x="147.412109" xlink:href="#DejaVuSans-46"/>
       <use x="179.199219" xlink:href="#DejaVuSans-48"/>
       <use x="242.822266" xlink:href="#DejaVuSans-49"/>
       <use x="306.445312" xlink:href="#DejaVuSans-56"/>
      </g>
     </g>
    </g>
    <g id="ytick_3">
     <g id="line2d_12">
      <g>
       <use style="stroke:#000000;stroke-width:0.8;" x="90" xlink:href="#m831f71fe64" y="335.174466"/>
      </g>
     </g>
     <g id="text_12">
      <!-- −0.016 -->
      <g transform="translate(45.992188 338.973684)scale(0.1 -0.1)">
       <use xlink:href="#DejaVuSans-8722"/>
       <use x="83.789062" xlink:href="#DejaVuSans-48"/>
       <use x="147.412109" xlink:href="#DejaVuSans-46"/>
       <use x="179.199219" xlink:href="#DejaVuSans-48"/>
       <use x="242.822266" xlink:href="#DejaVuSans-49"/>
       <use x="306.445312" xlink:href="#DejaVuSans-54"/>
      </g>
     </g>
    </g>
    <g id="ytick_4">
     <g id="line2d_13">
      <g>
       <use style="stroke:#000000;stroke-width:0.8;" x="90" xlink:href="#m831f71fe64" y="270.19361"/>
      </g>
     </g>
     <g id="text_13">
      <!-- −0.014 -->
      <g transform="translate(45.992188 273.992829)scale(0.1 -0.1)">
       <use xlink:href="#DejaVuSans-8722"/>
       <use x="83.789062" xlink:href="#DejaVuSans-48"/>
       <use x="147.412109" xlink:href="#DejaVuSans-46"/>
       <use x="179.199219" xlink:href="#DejaVuSans-48"/>
       <use x="242.822266" xlink:href="#DejaVuSans-49"/>
       <use x="306.445312" xlink:href="#DejaVuSans-52"/>
      </g>
     </g>
    </g>
    <g id="ytick_5">
     <g id="line2d_14">
      <g>
       <use style="stroke:#000000;stroke-width:0.8;" x="90" xlink:href="#m831f71fe64" y="205.212754"/>
      </g>
     </g>
     <g id="text_14">
      <!-- −0.012 -->
      <g transform="translate(45.992188 209.011973)scale(0.1 -0.1)">
       <use xlink:href="#DejaVuSans-8722"/>
       <use x="83.789062" xlink:href="#DejaVuSans-48"/>
       <use x="147.412109" xlink:href="#DejaVuSans-46"/>
       <use x="179.199219" xlink:href="#DejaVuSans-48"/>
       <use x="242.822266" xlink:href="#DejaVuSans-49"/>
       <use x="306.445312" xlink:href="#DejaVuSans-50"/>
      </g>
     </g>
    </g>
    <g id="ytick_6">
     <g id="line2d_15">
      <g>
       <use style="stroke:#000000;stroke-width:0.8;" x="90" xlink:href="#m831f71fe64" y="140.231898"/>
      </g>
     </g>
     <g id="text_15">
      <!-- −0.010 -->
      <g transform="translate(45.992188 144.031117)scale(0.1 -0.1)">
       <use xlink:href="#DejaVuSans-8722"/>
       <use x="83.789062" xlink:href="#DejaVuSans-48"/>
       <use x="147.412109" xlink:href="#DejaVuSans-46"/>
       <use x="179.199219" xlink:href="#DejaVuSans-48"/>
       <use x="242.822266" xlink:href="#DejaVuSans-49"/>
       <use x="306.445312" xlink:href="#DejaVuSans-48"/>
      </g>
     </g>
    </g>
    <g id="ytick_7">
     <g id="line2d_16">
      <g>
       <use style="stroke:#000000;stroke-width:0.8;" x="90" xlink:href="#m831f71fe64" y="75.251043"/>
      </g>
     </g>
     <g id="text_16">
      <!-- −0.008 -->
      <g transform="translate(45.992188 79.050261)scale(0.1 -0.1)">
       <use xlink:href="#DejaVuSans-8722"/>
       <use x="83.789062" xlink:href="#DejaVuSans-48"/>
       <use x="147.412109" xlink:href="#DejaVuSans-46"/>
       <use x="179.199219" xlink:href="#DejaVuSans-48"/>
       <use x="242.822266" xlink:href="#DejaVuSans-48"/>
       <use x="306.445312" xlink:href="#DejaVuSans-56"/>
      </g>
     </g>
    </g>
   </g>
   <g id="line2d_17">
    <path clip-path="url(#pe20eee027b)" d="M -1 15.485777 
L 5.316106 21.735289 
L 14.495393 30.080314 
L 24.253599 38.237058 
L 34.586355 46.19687 
L 45.485322 53.953786 
L 56.93792 61.504677 
L 68.92704 68.849457 
L 81.430746 75.991305 
L 94.421973 82.93689 
L 107.868218 89.696595 
L 121.733602 96.283561 
L 136.003182 102.701568 
L 150.676179 108.948509 
L 165.75125 115.023855 
L 181.226226 120.928869 
L 197.09806 126.666715 
L 213.362782 132.242561 
L 230.015448 137.663693 
L 247.050091 142.939623 
L 264.459675 148.082201 
L 282.236037 153.105734 
L 300.369841 158.027097 
L 318.851299 162.864202 
L 337.676785 167.621957 
L 356.846225 172.297803 
L 376.359446 176.889497 
L 396.216128 181.395212 
L 416.415796 185.813561 
L 436.957821 190.143611 
L 457.841403 194.384913 
L 479.065571 198.537517 
L 500.629175 202.601999 
L 522.530875 206.579482 
L 544.769141 210.471655 
L 567.342237 214.280803 
L 590.248221 218.009825 
L 613.484934 221.662258 
L 637.049993 225.242302 
L 685.155428 232.202908 
L 721 237.093952 
L 721 237.093952 
" style="fill:none;stroke:#008000;stroke-dasharray:5.55,2.4;stroke-dashoffset:0;stroke-width:1.5;"/>
   </g>
   <g id="line2d_18">
    <path clip-path="url(#pe20eee027b)" d="M -1 49.982996 
L -0.390761 50.981045 
L 7.259684 62.905759 
L 15.350502 74.91971 
L 23.889331 87.012923 
L 32.882821 99.175491 
L 42.336562 111.397597 
L 52.255002 123.669529 
L 62.641371 135.981704 
L 73.497602 148.324689 
L 84.824245 160.689216 
L 96.62039 173.06621 
L 108.883576 185.446805 
L 121.609713 197.822368 
L 134.792984 210.184521 
L 148.425766 222.525165 
L 162.498563 234.8365 
L 177.004442 247.111247 
L 191.944677 259.342913 
L 207.321119 271.525494 
L 223.13502 283.653456 
L 239.387 295.721755 
L 256.077019 307.725872 
L 273.204343 319.661836 
L 290.767511 331.526257 
L 308.76431 343.316351 
L 327.191735 355.029972 
L 346.045957 366.665638 
L 365.322296 378.222567 
L 385.015178 389.700701 
L 405.118109 401.100741 
L 425.623637 412.424174 
L 446.524577 423.672439 
L 467.819284 434.843299 
L 489.507742 445.933543 
L 511.589643 456.94032 
L 534.064375 467.861151 
L 556.931012 478.693949 
L 580.188303 489.437033 
L 603.834659 500.08914 
L 627.868145 510.649446 
L 652.286461 521.117579 
L 677.086941 531.493635 
L 702.266532 541.778196 
L 721 549.251092 
L 721 549.251092 
" style="fill:none;stroke:#0000ff;stroke-dasharray:5.55,2.4;stroke-dashoffset:0;stroke-width:1.5;"/>
   </g>
   <g id="line2d_19">
    <path clip-path="url(#pe20eee027b)" d="M -1 43.120873 
L 1.33133 46.629339 
L 9.255508 57.925091 
L 17.649093 69.273621 
L 26.519798 80.664268 
L 35.874144 92.086602 
L 45.717366 103.53046 
L 56.053321 114.985977 
L 66.884388 126.443619 
L 78.211378 137.89422 
L 90.033429 149.329012 
L 102.347906 160.739663 
L 115.150301 172.118313 
L 128.434126 183.457608 
L 142.190807 194.750741 
L 156.409578 205.991487 
L 171.077368 217.174242 
L 186.178692 228.294063 
L 201.695951 239.346654 
L 217.620023 250.327156 
L 233.952333 261.22992 
L 250.694462 272.049764 
L 267.847576 282.782065 
L 285.412397 293.422791 
L 303.389193 303.968532 
L 321.777748 314.41653 
L 340.577342 324.764713 
L 359.786731 335.011725 
L 379.404124 345.15696 
L 399.427157 355.200596 
L 419.852876 365.143625 
L 440.677708 374.98789 
L 461.89744 384.736117 
L 483.507198 394.391952 
L 505.501417 403.959994 
L 527.873822 413.445828 
L 550.617517 422.855913 
L 573.728486 432.192823 
L 597.206562 441.453949 
L 621.051645 450.636621 
L 645.263466 459.738438 
L 669.841575 468.757281 
L 694.785339 477.691318 
L 721 486.848198 
L 721 486.848198 
" style="fill:none;stroke:#00bfbf;stroke-dasharray:5.55,2.4;stroke-dashoffset:0;stroke-width:1.5;"/>
   </g>
   <g id="line2d_20">
    <defs>
     <path d="M 0 3 
C 0.795609 3 1.55874 2.683901 2.12132 2.12132 
C 2.683901 1.55874 3 0.795609 3 0 
C 3 -0.795609 2.683901 -1.55874 2.12132 -2.12132 
C 1.55874 -2.683901 0.795609 -3 0 -3 
C -0.795609 -3 -1.55874 -2.683901 -2.12132 -2.12132 
C -2.683901 -1.55874 -3 -0.795609 -3 0 
C -3 0.795609 -2.683901 1.55874 -2.12132 2.12132 
C -1.55874 2.683901 -0.795609 3 0 3 
z
" id="m3e48209329" style="stroke:#ff0000;"/>
    </defs>
    <g clip-path="url(#pe20eee027b)">
     <use style="fill:#ff0000;stroke:#ff0000;" x="-1" xlink:href="#m3e48209329" y="30.977978"/>
     <use style="fill:#ff0000;stroke:#ff0000;" x="50.442114" xlink:href="#m3e48209329" y="99.930772"/>
     <use style="fill:#ff0000;stroke:#ff0000;" x="205.015325" xlink:href="#m3e48209329" y="231.510506"/>
     <use style="fill:#ff0000;stroke:#ff0000;" x="516.653762" xlink:href="#m3e48209329" y="399.362555"/>
     <use style="fill:#ff0000;stroke:#ff0000;" x="1063.422176" xlink:href="#m3e48209329" y="581.409671"/>
     <use style="fill:#ff0000;stroke:#ff0000;" x="1827.665269" xlink:href="#m3e48209329" y="738.647097"/>
     <use style="fill:#ff0000;stroke:#ff0000;" x="2723.37763" xlink:href="#m3e48209329" y="853.809418"/>
     <use style="fill:#ff0000;stroke:#ff0000;" x="3681.971965" xlink:href="#m3e48209329" y="929.979977"/>
     <use style="fill:#ff0000;stroke:#ff0000;" x="4670.226811" xlink:href="#m3e48209329" y="975.810975"/>
     <use style="fill:#ff0000;stroke:#ff0000;" x="5673.290794" xlink:href="#m3e48209329" y="998.622504"/>
     <use style="fill:#ff0000;stroke:#ff0000;" x="6684.993982" xlink:href="#m3e48209329" y="1003.879456"/>
     <use style="fill:#ff0000;stroke:#ff0000;" x="7702.581186" xlink:href="#m3e48209329" y="995.64963"/>
     <use style="fill:#ff0000;stroke:#ff0000;" x="8724.564346" xlink:href="#m3e48209329" y="977.087849"/>
     <use style="fill:#ff0000;stroke:#ff0000;" x="9750.092211" xlink:href="#m3e48209329" y="950.627644"/>
     <use style="fill:#ff0000;stroke:#ff0000;" x="10778.735908" xlink:href="#m3e48209329" y="918.322412"/>
     <use style="fill:#ff0000;stroke:#ff0000;" x="11809.312785" xlink:href="#m3e48209329" y="881.887646"/>
     <use style="fill:#ff0000;stroke:#ff0000;" x="12838.603042" xlink:href="#m3e48209329" y="842.895884"/>
     <use style="fill:#ff0000;stroke:#ff0000;" x="13866.236286" xlink:href="#m3e48209329" y="801.200918"/>
     <use style="fill:#ff0000;stroke:#ff0000;" x="14892.527676" xlink:href="#m3e48209329" y="755.53887"/>
     <use style="fill:#ff0000;stroke:#ff0000;" x="15917.613672" xlink:href="#m3e48209329" y="706.718753"/>
     <use style="fill:#ff0000;stroke:#ff0000;" x="16941.50077" xlink:href="#m3e48209329" y="655.390375"/>
     <use style="fill:#ff0000;stroke:#ff0000;" x="17964.107746" xlink:href="#m3e48209329" y="602.206794"/>
     <use style="fill:#ff0000;stroke:#ff0000;" x="18985.418353" xlink:href="#m3e48209329" y="547.730094"/>
     <use style="fill:#ff0000;stroke:#ff0000;" x="20005.120684" xlink:href="#m3e48209329" y="492.421638"/>
     <use style="fill:#ff0000;stroke:#ff0000;" x="21023.003552" xlink:href="#m3e48209329" y="436.762286"/>
     <use style="fill:#ff0000;stroke:#ff0000;" x="22038.920748" xlink:href="#m3e48209329" y="381.089938"/>
     <use style="fill:#ff0000;stroke:#ff0000;" x="23052.91776" xlink:href="#m3e48209329" y="325.75874"/>
     <use style="fill:#ff0000;stroke:#ff0000;" x="24065.189531" xlink:href="#m3e48209329" y="271.044859"/>
     <use style="fill:#ff0000;stroke:#ff0000;" x="25076.018726" xlink:href="#m3e48209329" y="217.101002"/>
     <use style="fill:#ff0000;stroke:#ff0000;" x="26085.119431" xlink:href="#m3e48209329" y="164.040884"/>
     <use style="fill:#ff0000;stroke:#ff0000;" x="27091.773606" xlink:href="#m3e48209329" y="112.004215"/>
     <use style="fill:#ff0000;stroke:#ff0000;" x="28096.325651" xlink:href="#m3e48209329" y="61.153446"/>
     <use style="fill:#ff0000;stroke:#ff0000;" x="29103.944792" xlink:href="#m3e48209329" y="11.404103"/>
     <use style="fill:#ff0000;stroke:#ff0000;" x="29361.248927" xlink:href="#m3e48209329" y="-1"/>
    </g>
   </g>
   <g id="line2d_21">
    <defs>
     <path d="M 0 3 
C 0.795609 3 1.55874 2.683901 2.12132 2.12132 
C 2.683901 1.55874 3 0.795609 3 0 
C 3 -0.795609 2.683901 -1.55874 2.12132 -2.12132 
C 1.55874 -2.683901 0.795609 -3 0 -3 
C -0.795609 -3 -1.55874 -2.683901 -2.12132 -2.12132 
C -2.683901 -1.55874 -3 -0.795609 -3 0 
C -3 0.795609 -2.683901 1.55874 -2.12132 2.12132 
C -1.55874 2.683901 -0.795609 3 0 3 
z
" id="m840b92c366" style="stroke:#008000;"/>
    </defs>
    <g clip-path="url(#pe20eee027b)">
     <use style="fill:#008000;stroke:#008000;" x="12868.420688" xlink:href="#m840b92c366" y="-1"/>
     <use style="fill:#008000;stroke:#008000;" x="12626.791773" xlink:href="#m840b92c366" y="9.402862"/>
     <use style="fill:#008000;stroke:#008000;" x="10983.421489" xlink:href="#m840b92c366" y="82.462218"/>
     <use style="fill:#008000;stroke:#008000;" x="9431.777622" xlink:href="#m840b92c366" y="151.465643"/>
     <use style="fill:#008000;stroke:#008000;" x="7978.504551" xlink:href="#m840b92c366" y="212.687337"/>
     <use style="fill:#008000;stroke:#008000;" x="6629.825414" xlink:href="#m840b92c366" y="263.596426"/>
     <use style="fill:#008000;stroke:#008000;" x="5391.515461" xlink:href="#m840b92c366" y="302.164344"/>
     <use style="fill:#008000;stroke:#008000;" x="4268.877326" xlink:href="#m840b92c366" y="327.052571"/>
     <use style="fill:#008000;stroke:#008000;" x="3266.718318" xlink:href="#m840b92c366" y="337.531319"/>
     <use style="fill:#008000;stroke:#008000;" x="2389.329835" xlink:href="#m840b92c366" y="332.288314"/>
     <use style="fill:#008000;stroke:#008000;" x="1640.46899" xlink:href="#m840b92c366" y="310.203087"/>
     <use style="fill:#008000;stroke:#008000;" x="1023.34252" xlink:href="#m840b92c366" y="270.350153"/>
     <use style="fill:#008000;stroke:#008000;" x="540.593055" xlink:href="#m840b92c366" y="209.751587"/>
     <use style="fill:#008000;stroke:#008000;" x="194.287802" xlink:href="#m840b92c366" y="125.672968"/>
     <use style="fill:#008000;stroke:#008000;" x="-1" xlink:href="#m840b92c366" y="9.248964"/>
     <use style="fill:#008000;stroke:#008000;" x="-1" xlink:href="#m840b92c366" y="9.248964"/>
     <use style="fill:#008000;stroke:#008000;" x="194.287802" xlink:href="#m840b92c366" y="125.672968"/>
     <use style="fill:#008000;stroke:#008000;" x="540.593055" xlink:href="#m840b92c366" y="209.751587"/>
     <use style="fill:#008000;stroke:#008000;" x="1023.34252" xlink:href="#m840b92c366" y="270.350153"/>
     <use style="fill:#008000;stroke:#008000;" x="1640.46899" xlink:href="#m840b92c366" y="310.203087"/>
     <use style="fill:#008000;stroke:#008000;" x="2389.329835" xlink:href="#m840b92c366" y="332.288314"/>
     <use style="fill:#008000;stroke:#008000;" x="3266.718318" xlink:href="#m840b92c366" y="337.531319"/>
     <use style="fill:#008000;stroke:#008000;" x="4268.877326" xlink:href="#m840b92c366" y="327.052571"/>
     <use style="fill:#008000;stroke:#008000;" x="5391.515461" xlink:href="#m840b92c366" y="302.164344"/>
     <use style="fill:#008000;stroke:#008000;" x="6629.825414" xlink:href="#m840b92c366" y="263.596426"/>
     <use style="fill:#008000;stroke:#008000;" x="7978.504551" xlink:href="#m840b92c366" y="212.687337"/>
     <use style="fill:#008000;stroke:#008000;" x="9431.777622" xlink:href="#m840b92c366" y="151.465643"/>
     <use style="fill:#008000;stroke:#008000;" x="10983.421489" xlink:href="#m840b92c366" y="82.462218"/>
     <use style="fill:#008000;stroke:#008000;" x="12626.791773" xlink:href="#m840b92c366" y="9.402862"/>
     <use style="fill:#008000;stroke:#008000;" x="12868.420688" xlink:href="#m840b92c366" y="-1"/>
    </g>
   </g>
   <g id="line2d_22">
    <defs>
     <path d="M 0 3 
C 0.795609 3 1.55874 2.683901 2.12132 2.12132 
C 2.683901 1.55874 3 0.795609 3 0 
C 3 -0.795609 2.683901 -1.55874 2.12132 -2.12132 
C 1.55874 -2.683901 0.795609 -3 0 -3 
C -0.795609 -3 -1.55874 -2.683901 -2.12132 -2.12132 
C -2.683901 -1.55874 -3 -0.795609 -3 0 
C -3 0.795609 -2.683901 1.55874 -2.12132 2.12132 
C -1.55874 2.683901 -0.795609 3 0 3 
z
" id="m24faf318c0" style="stroke:#0000ff;"/>
    </defs>
    <g clip-path="url(#pe20eee027b)">
     <use style="fill:#0000ff;stroke:#0000ff;" x="30394.382429" xlink:href="#m24faf318c0" y="-1"/>
     <use style="fill:#0000ff;stroke:#0000ff;" x="30279.252392" xlink:href="#m24faf318c0" y="7.182571"/>
     <use style="fill:#0000ff;stroke:#0000ff;" x="28163.553956" xlink:href="#m24faf318c0" y="152.328785"/>
     <use style="fill:#0000ff;stroke:#0000ff;" x="26066.013973" xlink:href="#m24faf318c0" y="292.822254"/>
     <use style="fill:#0000ff;stroke:#0000ff;" x="23995.614432" xlink:href="#m24faf318c0" y="428.851853"/>
     <use style="fill:#0000ff;stroke:#0000ff;" x="21961.221101" xlink:href="#m24faf318c0" y="559.767351"/>
     <use style="fill:#0000ff;stroke:#0000ff;" x="19971.545564" xlink:href="#m24faf318c0" y="683.953327"/>
     <use style="fill:#0000ff;stroke:#0000ff;" x="18035.107918" xlink:href="#m24faf318c0" y="799.164763"/>
     <use style="fill:#0000ff;stroke:#0000ff;" x="16160.200286" xlink:href="#m24faf318c0" y="902.600817"/>
     <use style="fill:#0000ff;stroke:#0000ff;" x="14354.851311" xlink:href="#m24faf318c0" y="991.067649"/>
     <use style="fill:#0000ff;stroke:#0000ff;" x="12626.791773" xlink:href="#m24faf318c0" y="1061.698449"/>
     <use style="fill:#0000ff;stroke:#0000ff;" x="10983.421489" xlink:href="#m24faf318c0" y="1118.994767"/>
     <use style="fill:#0000ff;stroke:#0000ff;" x="9431.777622" xlink:href="#m24faf318c0" y="1162.276591"/>
     <use style="fill:#0000ff;stroke:#0000ff;" x="7978.504551" xlink:href="#m24faf318c0" y="1187.362905"/>
     <use style="fill:#0000ff;stroke:#0000ff;" x="6629.825414" xlink:href="#m24faf318c0" y="1190.723486"/>
     <use style="fill:#0000ff;stroke:#0000ff;" x="5391.515461" xlink:href="#m24faf318c0" y="1169.59007"/>
     <use style="fill:#0000ff;stroke:#0000ff;" x="4268.877326" xlink:href="#m24faf318c0" y="1122.076577"/>
     <use style="fill:#0000ff;stroke:#0000ff;" x="3266.718318" xlink:href="#m24faf318c0" y="1047.059901"/>
     <use style="fill:#0000ff;stroke:#0000ff;" x="2389.329835" xlink:href="#m24faf318c0" y="944.095927"/>
     <use style="fill:#0000ff;stroke:#0000ff;" x="1640.46899" xlink:href="#m24faf318c0" y="813.347167"/>
     <use style="fill:#0000ff;stroke:#0000ff;" x="1023.34252" xlink:href="#m24faf318c0" y="655.400901"/>
     <use style="fill:#0000ff;stroke:#0000ff;" x="540.593055" xlink:href="#m24faf318c0" y="470.982114"/>
     <use style="fill:#0000ff;stroke:#0000ff;" x="194.287802" xlink:href="#m24faf318c0" y="261.225261"/>
     <use style="fill:#0000ff;stroke:#0000ff;" x="-1" xlink:href="#m24faf318c0" y="42.648133"/>
     <use style="fill:#0000ff;stroke:#0000ff;" x="-1" xlink:href="#m24faf318c0" y="42.648133"/>
     <use style="fill:#0000ff;stroke:#0000ff;" x="194.287802" xlink:href="#m24faf318c0" y="261.225261"/>
     <use style="fill:#0000ff;stroke:#0000ff;" x="540.593055" xlink:href="#m24faf318c0" y="470.982114"/>
     <use style="fill:#0000ff;stroke:#0000ff;" x="1023.34252" xlink:href="#m24faf318c0" y="655.400901"/>
     <use style="fill:#0000ff;stroke:#0000ff;" x="1640.46899" xlink:href="#m24faf318c0" y="813.347167"/>
     <use style="fill:#0000ff;stroke:#0000ff;" x="2389.329835" xlink:href="#m24faf318c0" y="944.095927"/>
     <use style="fill:#0000ff;stroke:#0000ff;" x="3266.718318" xlink:href="#m24faf318c0" y="1047.059901"/>
     <use style="fill:#0000ff;stroke:#0000ff;" x="4268.877326" xlink:href="#m24faf318c0" y="1122.076577"/>
     <use style="fill:#0000ff;stroke:#0000ff;" x="5391.515461" xlink:href="#m24faf318c0" y="1169.59007"/>
     <use style="fill:#0000ff;stroke:#0000ff;" x="6629.825414" xlink:href="#m24faf318c0" y="1190.723486"/>
     <use style="fill:#0000ff;stroke:#0000ff;" x="7978.504551" xlink:href="#m24faf318c0" y="1187.362905"/>
     <use style="fill:#0000ff;stroke:#0000ff;" x="9431.777622" xlink:href="#m24faf318c0" y="1162.276591"/>
     <use style="fill:#0000ff;stroke:#0000ff;" x="10983.421489" xlink:href="#m24faf318c0" y="1118.994767"/>
     <use style="fill:#0000ff;stroke:#0000ff;" x="12626.791773" xlink:href="#m24faf318c0" y="1061.698449"/>
     <use style="fill:#0000ff;stroke:#0000ff;" x="14354.851311" xlink:href="#m24faf318c0" y="991.067649"/>
     <use style="fill:#0000ff;stroke:#0000ff;" x="16160.200286" xlink:href="#m24faf318c0" y="902.600817"/>
     <use style="fill:#0000ff;stroke:#0000ff;" x="18035.107918" xlink:href="#m24faf318c0" y="799.164763"/>
     <use style="fill:#0000ff;stroke:#0000ff;" x="19971.545564" xlink:href="#m24faf318c0" y="683.953327"/>
     <use style="fill:#0000ff;stroke:#0000ff;" x="21961.221101" xlink:href="#m24faf318c0" y="559.767351"/>
     <use style="fill:#0000ff;stroke:#0000ff;" x="23995.614432" xlink:href="#m24faf318c0" y="428.851853"/>
     <use style="fill:#0000ff;stroke:#0000ff;" x="26066.013973" xlink:href="#m24faf318c0" y="292.822254"/>
     <use style="fill:#0000ff;stroke:#0000ff;" x="28163.553956" xlink:href="#m24faf318c0" y="152.328785"/>
     <use style="fill:#0000ff;stroke:#0000ff;" x="30279.252392" xlink:href="#m24faf318c0" y="7.182571"/>
     <use style="fill:#0000ff;stroke:#0000ff;" x="30394.382429" xlink:href="#m24faf318c0" y="-1"/>
    </g>
   </g>
   <g id="line2d_23">
    <defs>
     <path d="M 0 3 
C 0.795609 3 1.55874 2.683901 2.12132 2.12132 
C 2.683901 1.55874 3 0.795609 3 0 
C 3 -0.795609 2.683901 -1.55874 2.12132 -2.12132 
C 1.55874 -2.683901 0.795609 -3 0 -3 
C -0.795609 -3 -1.55874 -2.683901 -2.12132 -2.12132 
C -2.683901 -1.55874 -3 -0.795609 -3 0 
C -3 0.795609 -2.683901 1.55874 -2.12132 2.12132 
C -1.55874 2.683901 -0.795609 3 0 3 
z
" id="m72ac283e6a" style="stroke:#00bfbf;"/>
    </defs>
    <g clip-path="url(#pe20eee027b)">
     <use style="fill:#00bfbf;stroke:#00bfbf;" x="-1" xlink:href="#m72ac283e6a" y="35.968299"/>
     <use style="fill:#00bfbf;stroke:#00bfbf;" x="194.287802" xlink:href="#m72ac283e6a" y="234.114803"/>
     <use style="fill:#00bfbf;stroke:#00bfbf;" x="540.593055" xlink:href="#m72ac283e6a" y="418.736008"/>
     <use style="fill:#00bfbf;stroke:#00bfbf;" x="1023.34252" xlink:href="#m72ac283e6a" y="578.390752"/>
     <use style="fill:#00bfbf;stroke:#00bfbf;" x="1640.46899" xlink:href="#m72ac283e6a" y="712.718351"/>
     <use style="fill:#00bfbf;stroke:#00bfbf;" x="2389.329835" xlink:href="#m72ac283e6a" y="821.734405"/>
     <use style="fill:#00bfbf;stroke:#00bfbf;" x="3266.718318" xlink:href="#m72ac283e6a" y="905.154185"/>
     <use style="fill:#00bfbf;stroke:#00bfbf;" x="4268.877326" xlink:href="#m72ac283e6a" y="963.071776"/>
     <use style="fill:#00bfbf;stroke:#00bfbf;" x="5391.515461" xlink:href="#m72ac283e6a" y="996.104925"/>
     <use style="fill:#00bfbf;stroke:#00bfbf;" x="6629.825414" xlink:href="#m72ac283e6a" y="1005.298074"/>
     <use style="fill:#00bfbf;stroke:#00bfbf;" x="7978.504551" xlink:href="#m72ac283e6a" y="992.427791"/>
     <use style="fill:#00bfbf;stroke:#00bfbf;" x="9431.777622" xlink:href="#m72ac283e6a" y="960.114402"/>
     <use style="fill:#00bfbf;stroke:#00bfbf;" x="10983.421489" xlink:href="#m72ac283e6a" y="911.688257"/>
     <use style="fill:#00bfbf;stroke:#00bfbf;" x="12626.791773" xlink:href="#m72ac283e6a" y="851.239331"/>
     <use style="fill:#00bfbf;stroke:#00bfbf;" x="14354.851311" xlink:href="#m72ac283e6a" y="779.855044"/>
     <use style="fill:#00bfbf;stroke:#00bfbf;" x="16160.200286" xlink:href="#m72ac283e6a" y="694.518186"/>
     <use style="fill:#00bfbf;stroke:#00bfbf;" x="18035.107918" xlink:href="#m72ac283e6a" y="598.087904"/>
     <use style="fill:#00bfbf;stroke:#00bfbf;" x="19971.545564" xlink:href="#m72ac283e6a" y="493.800536"/>
     <use style="fill:#00bfbf;stroke:#00bfbf;" x="21961.221101" xlink:href="#m72ac283e6a" y="384.843468"/>
     <use style="fill:#00bfbf;stroke:#00bfbf;" x="23995.614432" xlink:href="#m72ac283e6a" y="274.257804"/>
     <use style="fill:#00bfbf;stroke:#00bfbf;" x="26066.013973" xlink:href="#m72ac283e6a" y="164.526331"/>
     <use style="fill:#00bfbf;stroke:#00bfbf;" x="28163.553956" xlink:href="#m72ac283e6a" y="57.340442"/>
     <use style="fill:#00bfbf;stroke:#00bfbf;" x="29363.959662" xlink:href="#m72ac283e6a" y="-1"/>
    </g>
   </g>
   <g id="patch_3">
    <path d="M 90 512.64 
L 90 69.12 
" style="fill:none;stroke:#000000;stroke-linecap:square;stroke-linejoin:miter;stroke-width:0.8;"/>
   </g>
   <g id="patch_4">
    <path d="M 648 512.64 
L 648 69.12 
" style="fill:none;stroke:#000000;stroke-linecap:square;stroke-linejoin:miter;stroke-width:0.8;"/>
   </g>
   <g id="patch_5">
    <path d="M 90 512.64 
L 648 512.64 
" style="fill:none;stroke:#000000;stroke-linecap:square;stroke-linejoin:miter;stroke-width:0.8;"/>
   </g>
   <g id="patch_6">
    <path d="M 90 69.12 
L 648 69.12 
" style="fill:none;stroke:#000000;stroke-linecap:square;stroke-linejoin:miter;stroke-width:0.8;"/>
   </g>
   <g id="text_17">
    <!-- Example of 3.9.3 (X Method) -->
    <g transform="translate(282.995625 63.12)scale(0.12 -0.12)">
     <defs>
      <path d="M 9.8125 72.90625 
L 55.90625 72.90625 
L 55.90625 64.59375 
L 19.671875 64.59375 
L 19.671875 43.015625 
L 54.390625 43.015625 
L 54.390625 34.71875 
L 19.671875 34.71875 
L 19.671875 8.296875 
L 56.78125 8.296875 
L 56.78125 0 
L 9.8125 0 
z
" id="DejaVuSans-69"/>
      <path d="M 54.890625 54.6875 
L 35.109375 28.078125 
L 55.90625 0 
L 45.3125 0 
L 29.390625 21.484375 
L 13.484375 0 
L 2.875 0 
L 24.125 28.609375 
L 4.6875 54.6875 
L 15.28125 54.6875 
L 29.78125 35.203125 
L 44.28125 54.6875 
z
" id="DejaVuSans-120"/>
      <path d="M 34.28125 27.484375 
Q 23.390625 27.484375 19.1875 25 
Q 14.984375 22.515625 14.984375 16.5 
Q 14.984375 11.71875 18.140625 8.90625 
Q 21.296875 6.109375 26.703125 6.109375 
Q 34.1875 6.109375 38.703125 11.40625 
Q 43.21875 16.703125 43.21875 25.484375 
L 43.21875 27.484375 
z
M 52.203125 31.203125 
L 52.203125 0 
L 43.21875 0 
L 43.21875 8.296875 
Q 40.140625 3.328125 35.546875 0.953125 
Q 30.953125 -1.421875 24.3125 -1.421875 
Q 15.921875 -1.421875 10.953125 3.296875 
Q 6 8.015625 6 15.921875 
Q 6 25.140625 12.171875 29.828125 
Q 18.359375 34.515625 30.609375 34.515625 
L 43.21875 34.515625 
L 43.21875 35.40625 
Q 43.21875 41.609375 39.140625 45 
Q 35.0625 48.390625 27.6875 48.390625 
Q 23 48.390625 18.546875 47.265625 
Q 14.109375 46.140625 10.015625 43.890625 
L 10.015625 52.203125 
Q 14.9375 54.109375 19.578125 55.046875 
Q 24.21875 56 28.609375 56 
Q 40.484375 56 46.34375 49.84375 
Q 52.203125 43.703125 52.203125 31.203125 
z
" id="DejaVuSans-97"/>
      <path d="M 52 44.1875 
Q 55.375 50.25 60.0625 53.125 
Q 64.75 56 71.09375 56 
Q 79.640625 56 84.28125 50.015625 
Q 88.921875 44.046875 88.921875 33.015625 
L 88.921875 0 
L 79.890625 0 
L 79.890625 32.71875 
Q 79.890625 40.578125 77.09375 44.375 
Q 74.3125 48.1875 68.609375 48.1875 
Q 61.625 48.1875 57.5625 43.546875 
Q 53.515625 38.921875 53.515625 30.90625 
L 53.515625 0 
L 44.484375 0 
L 44.484375 32.71875 
Q 44.484375 40.625 41.703125 44.40625 
Q 38.921875 48.1875 33.109375 48.1875 
Q 26.21875 48.1875 22.15625 43.53125 
Q 18.109375 38.875 18.109375 30.90625 
L 18.109375 0 
L 9.078125 0 
L 9.078125 54.6875 
L 18.109375 54.6875 
L 18.109375 46.1875 
Q 21.1875 51.21875 25.484375 53.609375 
Q 29.78125 56 35.6875 56 
Q 41.65625 56 45.828125 52.96875 
Q 50 49.953125 52 44.1875 
z
" id="DejaVuSans-109"/>
      <path d="M 18.109375 8.203125 
L 18.109375 -20.796875 
L 9.078125 -20.796875 
L 9.078125 54.6875 
L 18.109375 54.6875 
L 18.109375 46.390625 
Q 20.953125 51.265625 25.265625 53.625 
Q 29.59375 56 35.59375 56 
Q 45.5625 56 51.78125 48.09375 
Q 58.015625 40.1875 58.015625 27.296875 
Q 58.015625 14.40625 51.78125 6.484375 
Q 45.5625 -1.421875 35.59375 -1.421875 
Q 29.59375 -1.421875 25.265625 0.953125 
Q 20.953125 3.328125 18.109375 8.203125 
z
M 48.6875 27.296875 
Q 48.6875 37.203125 44.609375 42.84375 
Q 40.53125 48.484375 33.40625 48.484375 
Q 26.265625 48.484375 22.1875 42.84375 
Q 18.109375 37.203125 18.109375 27.296875 
Q 18.109375 17.390625 22.1875 11.75 
Q 26.265625 6.109375 33.40625 6.109375 
Q 40.53125 6.109375 44.609375 11.75 
Q 48.6875 17.390625 48.6875 27.296875 
z
" id="DejaVuSans-112"/>
      <path d="M 9.421875 75.984375 
L 18.40625 75.984375 
L 18.40625 0 
L 9.421875 0 
z
" id="DejaVuSans-108"/>
      <path d="M 56.203125 29.59375 
L 56.203125 25.203125 
L 14.890625 25.203125 
Q 15.484375 15.921875 20.484375 11.0625 
Q 25.484375 6.203125 34.421875 6.203125 
Q 39.59375 6.203125 44.453125 7.46875 
Q 49.3125 8.734375 54.109375 11.28125 
L 54.109375 2.78125 
Q 49.265625 0.734375 44.1875 -0.34375 
Q 39.109375 -1.421875 33.890625 -1.421875 
Q 20.796875 -1.421875 13.15625 6.1875 
Q 5.515625 13.8125 5.515625 26.8125 
Q 5.515625 40.234375 12.765625 48.109375 
Q 20.015625 56 32.328125 56 
Q 43.359375 56 49.78125 48.890625 
Q 56.203125 41.796875 56.203125 29.59375 
z
M 47.21875 32.234375 
Q 47.125 39.59375 43.09375 43.984375 
Q 39.0625 48.390625 32.421875 48.390625 
Q 24.90625 48.390625 20.390625 44.140625 
Q 15.875 39.890625 15.1875 32.171875 
z
" id="DejaVuSans-101"/>
      <path id="DejaVuSans-32"/>
      <path d="M 30.609375 48.390625 
Q 23.390625 48.390625 19.1875 42.75 
Q 14.984375 37.109375 14.984375 27.296875 
Q 14.984375 17.484375 19.15625 11.84375 
Q 23.34375 6.203125 30.609375 6.203125 
Q 37.796875 6.203125 41.984375 11.859375 
Q 46.1875 17.53125 46.1875 27.296875 
Q 46.1875 37.015625 41.984375 42.703125 
Q 37.796875 48.390625 30.609375 48.390625 
z
M 30.609375 56 
Q 42.328125 56 49.015625 48.375 
Q 55.71875 40.765625 55.71875 27.296875 
Q 55.71875 13.875 49.015625 6.21875 
Q 42.328125 -1.421875 30.609375 -1.421875 
Q 18.84375 -1.421875 12.171875 6.21875 
Q 5.515625 13.875 5.515625 27.296875 
Q 5.515625 40.765625 12.171875 48.375 
Q 18.84375 56 30.609375 56 
z
" id="DejaVuSans-111"/>
      <path d="M 37.109375 75.984375 
L 37.109375 68.5 
L 28.515625 68.5 
Q 23.6875 68.5 21.796875 66.546875 
Q 19.921875 64.59375 19.921875 59.515625 
L 19.921875 54.6875 
L 34.71875 54.6875 
L 34.71875 47.703125 
L 19.921875 47.703125 
L 19.921875 0 
L 10.890625 0 
L 10.890625 47.703125 
L 2.296875 47.703125 
L 2.296875 54.6875 
L 10.890625 54.6875 
L 10.890625 58.5 
Q 10.890625 67.625 15.140625 71.796875 
Q 19.390625 75.984375 28.609375 75.984375 
z
" id="DejaVuSans-102"/>
      <path d="M 40.578125 39.3125 
Q 47.65625 37.796875 51.625 33 
Q 55.609375 28.21875 55.609375 21.1875 
Q 55.609375 10.40625 48.1875 4.484375 
Q 40.765625 -1.421875 27.09375 -1.421875 
Q 22.515625 -1.421875 17.65625 -0.515625 
Q 12.796875 0.390625 7.625 2.203125 
L 7.625 11.71875 
Q 11.71875 9.328125 16.59375 8.109375 
Q 21.484375 6.890625 26.8125 6.890625 
Q 36.078125 6.890625 40.9375 10.546875 
Q 45.796875 14.203125 45.796875 21.1875 
Q 45.796875 27.640625 41.28125 31.265625 
Q 36.765625 34.90625 28.71875 34.90625 
L 20.21875 34.90625 
L 20.21875 43.015625 
L 29.109375 43.015625 
Q 36.375 43.015625 40.234375 45.921875 
Q 44.09375 48.828125 44.09375 54.296875 
Q 44.09375 59.90625 40.109375 62.90625 
Q 36.140625 65.921875 28.71875 65.921875 
Q 24.65625 65.921875 20.015625 65.03125 
Q 15.375 64.15625 9.8125 62.3125 
L 9.8125 71.09375 
Q 15.4375 72.65625 20.34375 73.4375 
Q 25.25 74.21875 29.59375 74.21875 
Q 40.828125 74.21875 47.359375 69.109375 
Q 53.90625 64.015625 53.90625 55.328125 
Q 53.90625 49.265625 50.4375 45.09375 
Q 46.96875 40.921875 40.578125 39.3125 
z
" id="DejaVuSans-51"/>
      <path d="M 10.984375 1.515625 
L 10.984375 10.5 
Q 14.703125 8.734375 18.5 7.8125 
Q 22.3125 6.890625 25.984375 6.890625 
Q 35.75 6.890625 40.890625 13.453125 
Q 46.046875 20.015625 46.78125 33.40625 
Q 43.953125 29.203125 39.59375 26.953125 
Q 35.25 24.703125 29.984375 24.703125 
Q 19.046875 24.703125 12.671875 31.3125 
Q 6.296875 37.9375 6.296875 49.421875 
Q 6.296875 60.640625 12.9375 67.421875 
Q 19.578125 74.21875 30.609375 74.21875 
Q 43.265625 74.21875 49.921875 64.515625 
Q 56.59375 54.828125 56.59375 36.375 
Q 56.59375 19.140625 48.40625 8.859375 
Q 40.234375 -1.421875 26.421875 -1.421875 
Q 22.703125 -1.421875 18.890625 -0.6875 
Q 15.09375 0.046875 10.984375 1.515625 
z
M 30.609375 32.421875 
Q 37.25 32.421875 41.125 36.953125 
Q 45.015625 41.5 45.015625 49.421875 
Q 45.015625 57.28125 41.125 61.84375 
Q 37.25 66.40625 30.609375 66.40625 
Q 23.96875 66.40625 20.09375 61.84375 
Q 16.21875 57.28125 16.21875 49.421875 
Q 16.21875 41.5 20.09375 36.953125 
Q 23.96875 32.421875 30.609375 32.421875 
z
" id="DejaVuSans-57"/>
      <path d="M 31 75.875 
Q 24.46875 64.65625 21.28125 53.65625 
Q 18.109375 42.671875 18.109375 31.390625 
Q 18.109375 20.125 21.3125 9.0625 
Q 24.515625 -2 31 -13.1875 
L 23.1875 -13.1875 
Q 15.875 -1.703125 12.234375 9.375 
Q 8.59375 20.453125 8.59375 31.390625 
Q 8.59375 42.28125 12.203125 53.3125 
Q 15.828125 64.359375 23.1875 75.875 
z
" id="DejaVuSans-40"/>
      <path d="M 6.296875 72.90625 
L 16.890625 72.90625 
L 35.015625 45.796875 
L 53.21875 72.90625 
L 63.8125 72.90625 
L 40.375 37.890625 
L 65.375 0 
L 54.78125 0 
L 34.28125 31 
L 13.625 0 
L 2.984375 0 
L 29 38.921875 
z
" id="DejaVuSans-88"/>
      <path d="M 9.8125 72.90625 
L 24.515625 72.90625 
L 43.109375 23.296875 
L 61.8125 72.90625 
L 76.515625 72.90625 
L 76.515625 0 
L 66.890625 0 
L 66.890625 64.015625 
L 48.09375 14.015625 
L 38.1875 14.015625 
L 19.390625 64.015625 
L 19.390625 0 
L 9.8125 0 
z
" id="DejaVuSans-77"/>
      <path d="M 18.3125 70.21875 
L 18.3125 54.6875 
L 36.8125 54.6875 
L 36.8125 47.703125 
L 18.3125 47.703125 
L 18.3125 18.015625 
Q 18.3125 11.328125 20.140625 9.421875 
Q 21.96875 7.515625 27.59375 7.515625 
L 36.8125 7.515625 
L 36.8125 0 
L 27.59375 0 
Q 17.1875 0 13.234375 3.875 
Q 9.28125 7.765625 9.28125 18.015625 
L 9.28125 47.703125 
L 2.6875 47.703125 
L 2.6875 54.6875 
L 9.28125 54.6875 
L 9.28125 70.21875 
z
" id="DejaVuSans-116"/>
      <path d="M 54.890625 33.015625 
L 54.890625 0 
L 45.90625 0 
L 45.90625 32.71875 
Q 45.90625 40.484375 42.875 44.328125 
Q 39.84375 48.1875 33.796875 48.1875 
Q 26.515625 48.1875 22.3125 43.546875 
Q 18.109375 38.921875 18.109375 30.90625 
L 18.109375 0 
L 9.078125 0 
L 9.078125 75.984375 
L 18.109375 75.984375 
L 18.109375 46.1875 
Q 21.34375 51.125 25.703125 53.5625 
Q 30.078125 56 35.796875 56 
Q 45.21875 56 50.046875 50.171875 
Q 54.890625 44.34375 54.890625 33.015625 
z
" id="DejaVuSans-104"/>
      <path d="M 45.40625 46.390625 
L 45.40625 75.984375 
L 54.390625 75.984375 
L 54.390625 0 
L 45.40625 0 
L 45.40625 8.203125 
Q 42.578125 3.328125 38.25 0.953125 
Q 33.9375 -1.421875 27.875 -1.421875 
Q 17.96875 -1.421875 11.734375 6.484375 
Q 5.515625 14.40625 5.515625 27.296875 
Q 5.515625 40.1875 11.734375 48.09375 
Q 17.96875 56 27.875 56 
Q 33.9375 56 38.25 53.625 
Q 42.578125 51.265625 45.40625 46.390625 
z
M 14.796875 27.296875 
Q 14.796875 17.390625 18.875 11.75 
Q 22.953125 6.109375 30.078125 6.109375 
Q 37.203125 6.109375 41.296875 11.75 
Q 45.40625 17.390625 45.40625 27.296875 
Q 45.40625 37.203125 41.296875 42.84375 
Q 37.203125 48.484375 30.078125 48.484375 
Q 22.953125 48.484375 18.875 42.84375 
Q 14.796875 37.203125 14.796875 27.296875 
z
" id="DejaVuSans-100"/>
      <path d="M 8.015625 75.875 
L 15.828125 75.875 
Q 23.140625 64.359375 26.78125 53.3125 
Q 30.421875 42.28125 30.421875 31.390625 
Q 30.421875 20.453125 26.78125 9.375 
Q 23.140625 -1.703125 15.828125 -13.1875 
L 8.015625 -13.1875 
Q 14.5 -2 17.703125 9.0625 
Q 20.90625 20.125 20.90625 31.390625 
Q 20.90625 42.671875 17.703125 53.65625 
Q 14.5 64.65625 8.015625 75.875 
z
" id="DejaVuSans-41"/>
     </defs>
     <use xlink:href="#DejaVuSans-69"/>
     <use x="63.183594" xlink:href="#DejaVuSans-120"/>
     <use x="122.363281" xlink:href="#DejaVuSans-97"/>
     <use x="183.642578" xlink:href="#DejaVuSans-109"/>
     <use x="281.054688" xlink:href="#DejaVuSans-112"/>
     <use x="344.53125" xlink:href="#DejaVuSans-108"/>
     <use x="372.314453" xlink:href="#DejaVuSans-101"/>
     <use x="433.837891" xlink:href="#DejaVuSans-32"/>
     <use x="465.625" xlink:href="#DejaVuSans-111"/>
     <use x="526.806641" xlink:href="#DejaVuSans-102"/>
     <use x="562.011719" xlink:href="#DejaVuSans-32"/>
     <use x="593.798828" xlink:href="#DejaVuSans-51"/>
     <use x="657.421875" xlink:href="#DejaVuSans-46"/>
     <use x="689.208984" xlink:href="#DejaVuSans-57"/>
     <use x="752.832031" xlink:href="#DejaVuSans-46"/>
     <use x="784.619141" xlink:href="#DejaVuSans-51"/>
     <use x="848.242188" xlink:href="#DejaVuSans-32"/>
     <use x="880.029297" xlink:href="#DejaVuSans-40"/>
     <use x="919.042969" xlink:href="#DejaVuSans-88"/>
     <use x="987.548828" xlink:href="#DejaVuSans-32"/>
     <use x="1019.335938" xlink:href="#DejaVuSans-77"/>
     <use x="1105.615234" xlink:href="#DejaVuSans-101"/>
     <use x="1167.138672" xlink:href="#DejaVuSans-116"/>
     <use x="1206.347656" xlink:href="#DejaVuSans-104"/>
     <use x="1269.726562" xlink:href="#DejaVuSans-111"/>
     <use x="1330.908203" xlink:href="#DejaVuSans-100"/>
     <use x="1394.384766" xlink:href="#DejaVuSans-41"/>
    </g>
   </g>
   <g id="legend_1">
    <g id="patch_7">
     <path d="M 520.892187 135.8325 
L 641 135.8325 
Q 643 135.8325 643 133.8325 
L 643 76.12 
Q 643 74.12 641 74.12 
L 520.892187 74.12 
Q 518.892187 74.12 518.892187 76.12 
L 518.892187 133.8325 
Q 518.892187 135.8325 520.892187 135.8325 
z
" style="fill:#ffffff;opacity:0.8;stroke:#cccccc;stroke-linejoin:miter;"/>
    </g>
    <g id="line2d_24">
     <path d="M 522.892187 82.218437 
L 542.892187 82.218437 
" style="fill:none;stroke:#008000;stroke-dasharray:5.55,2.4;stroke-dashoffset:0;stroke-width:1.5;"/>
    </g>
    <g id="line2d_25"/>
    <g id="text_18">
     <!-- DAE51 -->
     <g transform="translate(550.892187 85.718437)scale(0.1 -0.1)">
      <defs>
       <path d="M 19.671875 64.796875 
L 19.671875 8.109375 
L 31.59375 8.109375 
Q 46.6875 8.109375 53.6875 14.9375 
Q 60.6875 21.78125 60.6875 36.53125 
Q 60.6875 51.171875 53.6875 57.984375 
Q 46.6875 64.796875 31.59375 64.796875 
z
M 9.8125 72.90625 
L 30.078125 72.90625 
Q 51.265625 72.90625 61.171875 64.09375 
Q 71.09375 55.28125 71.09375 36.53125 
Q 71.09375 17.671875 61.125 8.828125 
Q 51.171875 0 30.078125 0 
L 9.8125 0 
z
" id="DejaVuSans-68"/>
       <path d="M 34.1875 63.1875 
L 20.796875 26.90625 
L 47.609375 26.90625 
z
M 28.609375 72.90625 
L 39.796875 72.90625 
L 67.578125 0 
L 57.328125 0 
L 50.6875 18.703125 
L 17.828125 18.703125 
L 11.1875 0 
L 0.78125 0 
z
" id="DejaVuSans-65"/>
       <path d="M 10.796875 72.90625 
L 49.515625 72.90625 
L 49.515625 64.59375 
L 19.828125 64.59375 
L 19.828125 46.734375 
Q 21.96875 47.46875 24.109375 47.828125 
Q 26.265625 48.1875 28.421875 48.1875 
Q 40.625 48.1875 47.75 41.5 
Q 54.890625 34.8125 54.890625 23.390625 
Q 54.890625 11.625 47.5625 5.09375 
Q 40.234375 -1.421875 26.90625 -1.421875 
Q 22.3125 -1.421875 17.546875 -0.640625 
Q 12.796875 0.140625 7.71875 1.703125 
L 7.71875 11.625 
Q 12.109375 9.234375 16.796875 8.0625 
Q 21.484375 6.890625 26.703125 6.890625 
Q 35.15625 6.890625 40.078125 11.328125 
Q 45.015625 15.765625 45.015625 23.390625 
Q 45.015625 31 40.078125 35.4375 
Q 35.15625 39.890625 26.703125 39.890625 
Q 22.75 39.890625 18.8125 39.015625 
Q 14.890625 38.140625 10.796875 36.28125 
z
" id="DejaVuSans-53"/>
      </defs>
      <use xlink:href="#DejaVuSans-68"/>
      <use x="75.251953" xlink:href="#DejaVuSans-65"/>
      <use x="143.660156" xlink:href="#DejaVuSans-69"/>
      <use x="206.84375" xlink:href="#DejaVuSans-53"/>
      <use x="270.466797" xlink:href="#DejaVuSans-49"/>
     </g>
    </g>
    <g id="line2d_26">
     <path d="M 522.892187 96.896563 
L 542.892187 96.896563 
" style="fill:none;stroke:#0000ff;stroke-dasharray:5.55,2.4;stroke-dashoffset:0;stroke-width:1.5;"/>
    </g>
    <g id="line2d_27"/>
    <g id="text_19">
     <!-- NACA2412 -->
     <g transform="translate(550.892187 100.396563)scale(0.1 -0.1)">
      <defs>
       <path d="M 9.8125 72.90625 
L 23.09375 72.90625 
L 55.421875 11.921875 
L 55.421875 72.90625 
L 64.984375 72.90625 
L 64.984375 0 
L 51.703125 0 
L 19.390625 60.984375 
L 19.390625 0 
L 9.8125 0 
z
" id="DejaVuSans-78"/>
       <path d="M 64.40625 67.28125 
L 64.40625 56.890625 
Q 59.421875 61.53125 53.78125 63.8125 
Q 48.140625 66.109375 41.796875 66.109375 
Q 29.296875 66.109375 22.65625 58.46875 
Q 16.015625 50.828125 16.015625 36.375 
Q 16.015625 21.96875 22.65625 14.328125 
Q 29.296875 6.6875 41.796875 6.6875 
Q 48.140625 6.6875 53.78125 8.984375 
Q 59.421875 11.28125 64.40625 15.921875 
L 64.40625 5.609375 
Q 59.234375 2.09375 53.4375 0.328125 
Q 47.65625 -1.421875 41.21875 -1.421875 
Q 24.65625 -1.421875 15.125 8.703125 
Q 5.609375 18.84375 5.609375 36.375 
Q 5.609375 53.953125 15.125 64.078125 
Q 24.65625 74.21875 41.21875 74.21875 
Q 47.75 74.21875 53.53125 72.484375 
Q 59.328125 70.75 64.40625 67.28125 
z
" id="DejaVuSans-67"/>
      </defs>
      <use xlink:href="#DejaVuSans-78"/>
      <use x="74.804688" xlink:href="#DejaVuSans-65"/>
      <use x="141.462891" xlink:href="#DejaVuSans-67"/>
      <use x="211.287109" xlink:href="#DejaVuSans-65"/>
      <use x="279.695312" xlink:href="#DejaVuSans-50"/>
      <use x="343.318359" xlink:href="#DejaVuSans-52"/>
      <use x="406.941406" xlink:href="#DejaVuSans-49"/>
      <use x="470.564453" xlink:href="#DejaVuSans-50"/>
     </g>
    </g>
    <g id="line2d_28">
     <path d="M 522.892187 111.574687 
L 542.892187 111.574687 
" style="fill:none;stroke:#00bfbf;stroke-dasharray:5.55,2.4;stroke-dashoffset:0;stroke-width:1.5;"/>
    </g>
    <g id="line2d_29"/>
    <g id="text_20">
     <!-- Mix(by X Method) -->
     <g transform="translate(550.892187 115.074687)scale(0.1 -0.1)">
      <defs>
       <path d="M 9.421875 54.6875 
L 18.40625 54.6875 
L 18.40625 0 
L 9.421875 0 
z
M 9.421875 75.984375 
L 18.40625 75.984375 
L 18.40625 64.59375 
L 9.421875 64.59375 
z
" id="DejaVuSans-105"/>
       <path d="M 48.6875 27.296875 
Q 48.6875 37.203125 44.609375 42.84375 
Q 40.53125 48.484375 33.40625 48.484375 
Q 26.265625 48.484375 22.1875 42.84375 
Q 18.109375 37.203125 18.109375 27.296875 
Q 18.109375 17.390625 22.1875 11.75 
Q 26.265625 6.109375 33.40625 6.109375 
Q 40.53125 6.109375 44.609375 11.75 
Q 48.6875 17.390625 48.6875 27.296875 
z
M 18.109375 46.390625 
Q 20.953125 51.265625 25.265625 53.625 
Q 29.59375 56 35.59375 56 
Q 45.5625 56 51.78125 48.09375 
Q 58.015625 40.1875 58.015625 27.296875 
Q 58.015625 14.40625 51.78125 6.484375 
Q 45.5625 -1.421875 35.59375 -1.421875 
Q 29.59375 -1.421875 25.265625 0.953125 
Q 20.953125 3.328125 18.109375 8.203125 
L 18.109375 0 
L 9.078125 0 
L 9.078125 75.984375 
L 18.109375 75.984375 
z
" id="DejaVuSans-98"/>
       <path d="M 32.171875 -5.078125 
Q 28.375 -14.84375 24.75 -17.8125 
Q 21.140625 -20.796875 15.09375 -20.796875 
L 7.90625 -20.796875 
L 7.90625 -13.28125 
L 13.1875 -13.28125 
Q 16.890625 -13.28125 18.9375 -11.515625 
Q 21 -9.765625 23.484375 -3.21875 
L 25.09375 0.875 
L 2.984375 54.6875 
L 12.5 54.6875 
L 29.59375 11.921875 
L 46.6875 54.6875 
L 56.203125 54.6875 
z
" id="DejaVuSans-121"/>
      </defs>
      <use xlink:href="#DejaVuSans-77"/>
      <use x="86.279297" xlink:href="#DejaVuSans-105"/>
      <use x="114.0625" xlink:href="#DejaVuSans-120"/>
      <use x="173.242188" xlink:href="#DejaVuSans-40"/>
      <use x="212.255859" xlink:href="#DejaVuSans-98"/>
      <use x="275.732422" xlink:href="#DejaVuSans-121"/>
      <use x="334.912109" xlink:href="#DejaVuSans-32"/>
      <use x="366.699219" xlink:href="#DejaVuSans-88"/>
      <use x="435.205078" xlink:href="#DejaVuSans-32"/>
      <use x="466.992188" xlink:href="#DejaVuSans-77"/>
      <use x="553.271484" xlink:href="#DejaVuSans-101"/>
      <use x="614.794922" xlink:href="#DejaVuSans-116"/>
      <use x="654.003906" xlink:href="#DejaVuSans-104"/>
      <use x="717.382812" xlink:href="#DejaVuSans-111"/>
      <use x="778.564453" xlink:href="#DejaVuSans-100"/>
      <use x="842.041016" xlink:href="#DejaVuSans-41"/>
     </g>
    </g>
    <g id="line2d_30"/>
    <g id="line2d_31">
     <g>
      <use style="fill:#ff0000;stroke:#ff0000;" x="532.892187" xlink:href="#m3e48209329" y="126.252813"/>
     </g>
    </g>
    <g id="text_21">
     <!-- XFLR Mix -->
     <g transform="translate(550.892187 129.752813)scale(0.1 -0.1)">
      <defs>
       <path d="M 9.8125 72.90625 
L 51.703125 72.90625 
L 51.703125 64.59375 
L 19.671875 64.59375 
L 19.671875 43.109375 
L 48.578125 43.109375 
L 48.578125 34.8125 
L 19.671875 34.8125 
L 19.671875 0 
L 9.8125 0 
z
" id="DejaVuSans-70"/>
       <path d="M 9.8125 72.90625 
L 19.671875 72.90625 
L 19.671875 8.296875 
L 55.171875 8.296875 
L 55.171875 0 
L 9.8125 0 
z
" id="DejaVuSans-76"/>
       <path d="M 44.390625 34.1875 
Q 47.5625 33.109375 50.5625 29.59375 
Q 53.5625 26.078125 56.59375 19.921875 
L 66.609375 0 
L 56 0 
L 46.6875 18.703125 
Q 43.0625 26.03125 39.671875 28.421875 
Q 36.28125 30.8125 30.421875 30.8125 
L 19.671875 30.8125 
L 19.671875 0 
L 9.8125 0 
L 9.8125 72.90625 
L 32.078125 72.90625 
Q 44.578125 72.90625 50.734375 67.671875 
Q 56.890625 62.453125 56.890625 51.90625 
Q 56.890625 45.015625 53.6875 40.46875 
Q 50.484375 35.9375 44.390625 34.1875 
z
M 19.671875 64.796875 
L 19.671875 38.921875 
L 32.078125 38.921875 
Q 39.203125 38.921875 42.84375 42.21875 
Q 46.484375 45.515625 46.484375 51.90625 
Q 46.484375 58.296875 42.84375 61.546875 
Q 39.203125 64.796875 32.078125 64.796875 
z
" id="DejaVuSans-82"/>
      </defs>
      <use xlink:href="#DejaVuSans-88"/>
      <use x="68.505859" xlink:href="#DejaVuSans-70"/>
      <use x="126.025391" xlink:href="#DejaVuSans-76"/>
      <use x="181.738281" xlink:href="#DejaVuSans-82"/>
      <use x="251.220703" xlink:href="#DejaVuSans-32"/>
      <use x="283.007812" xlink:href="#DejaVuSans-77"/>
      <use x="369.287109" xlink:href="#DejaVuSans-105"/>
      <use x="397.070312" xlink:href="#DejaVuSans-120"/>
     </g>
    </g>
   </g>
  </g>
 </g>
 <defs>
  <clipPath id="pe20eee027b">
   <rect height="443.52" width="558" x="90" y="69.12"/>
  </clipPath>
 </defs>
</svg>
