<?xml version="1.0" encoding="utf-8" standalone="no"?>
<!DOCTYPE svg PUBLIC "-//W3C//DTD SVG 1.1//EN"
  "http://www.w3.org/Graphics/SVG/1.1/DTD/svg11.dtd">
<!-- Created with matplotlib (https://matplotlib.org/) -->
<svg height="576pt" version="1.1" viewBox="0 0 720 576" width="720pt" xmlns="http://www.w3.org/2000/svg" xmlns:xlink="http://www.w3.org/1999/xlink">
 <metadata>
  <rdf:RDF xmlns:cc="http://creativecommons.org/ns#" xmlns:dc="http://purl.org/dc/elements/1.1/" xmlns:rdf="http://www.w3.org/1999/02/22-rdf-syntax-ns#">
   <cc:Work>
    <dc:type rdf:resource="http://purl.org/dc/dcmitype/StillImage"/>
    <dc:date>2025-09-05T18:28:08.596368</dc:date>
    <dc:format>image/svg+xml</dc:format>
    <dc:creator>
     <cc:Agent>
      <dc:title>Matplotlib v3.3.2, https://matplotlib.org/</dc:title>
     </cc:Agent>
    </dc:creator>
   </cc:Work>
  </rdf:RDF>
 </metadata>
 <defs>
  <style type="text/css">*{stroke-linecap:butt;stroke-linejoin:round;}</style>
 </defs>
 <g id="figure_1">
  <g id="patch_1">
   <path d="M 0 576 
L 720 576 
L 720 0 
L 0 0 
z
" style="fill:#ffffff;"/>
  </g>
  <g id="axes_1">
   <g id="patch_2">
    <path d="M 90 512.64 
L 648 512.64 
L 648 69.12 
L 90 69.12 
z
" style="fill:#ffffff;"/>
   </g>
   <g id="Quiver_1">
    <path clip-path="url(#p6674cdcca9)" d="M 519.452851 364.972732 
L 520.806766 330.049817 
L 519.101598 330.821338 
L 521.934963 322.554896 
L 524.119828 331.015888 
L 522.47951 330.114667 
L 521.125594 365.037582 
L 519.452851 364.972732 
"/>
   </g>
   <g id="Quiver_2">
    <path clip-path="url(#p6674cdcca9)" d="M 520.57434 357.351022 
L 491.687046 355.829403 
L 492.434832 357.545113 
L 484.208502 354.597315 
L 492.698996 352.530065 
L 491.7751 354.15772 
L 520.662395 355.67934 
L 520.57434 357.351022 
"/>
   </g>
   <g id="Quiver_3">
    <path clip-path="url(#p6674cdcca9)" d="M 244.185605 295.295103 
L 237.411401 261.291174 
L 235.933195 262.439108 
L 236.760481 253.739819 
L 240.85841 261.457915 
L 239.053139 260.96411 
L 245.827344 294.968039 
L 244.185605 295.295103 
"/>
   </g>
   <g id="Quiver_4">
    <path clip-path="url(#p6674cdcca9)" d="M 523.575788 193.012474 
L 521.347444 158.154059 
L 519.73025 159.096148 
L 521.702168 150.583007 
L 524.742021 158.775767 
L 523.018034 158.047266 
L 525.246379 192.90568 
L 523.575788 193.012474 
"/>
   </g>
   <g id="Quiver_5">
    <path clip-path="url(#p6674cdcca9)" d="M 523.941952 185.318554 
L 495.100754 187.829568 
L 496.079795 189.424662 
L 487.523546 187.6491 
L 495.64421 184.421588 
L 494.955559 186.161877 
L 523.796757 183.650862 
L 523.941952 185.318554 
"/>
   </g>
   <g id="Quiver_6">
    <path clip-path="url(#p6674cdcca9)" d="M 472.314045 485.152283 
L 444.59541 475.091337 
L 444.811038 476.950463 
L 437.799998 471.734398 
L 446.52448 472.229806 
L 445.166557 473.517784 
L 472.885192 483.57873 
L 472.314045 485.152283 
"/>
   </g>
   <g id="Quiver_7">
    <path clip-path="url(#p6674cdcca9)" d="M 621.552256 99.006942 
L 622.570192 64.067637 
L 620.872527 64.855532 
L 623.626214 56.562208 
L 625.892397 65.001783 
L 624.243482 64.116388 
L 623.225546 99.055693 
L 621.552256 99.006942 
"/>
   </g>
   <g id="Quiver_8">
    <path clip-path="url(#p6674cdcca9)" d="M 622.603241 91.37383 
L 593.704344 90.229324 
L 594.474443 91.935135 
L 586.210367 89.094878 
L 594.673178 86.917069 
L 593.770588 88.556635 
L 622.669486 89.701141 
L 622.603241 91.37383 
"/>
   </g>
   <g id="Quiver_9">
    <path clip-path="url(#p6674cdcca9)" d="M 469.624119 492.26406 
L 478.514907 458.969301 
L 476.681637 459.346086 
L 481.267032 451.907257 
L 481.533627 460.641726 
L 480.132237 459.401181 
L 471.241448 492.69594 
L 469.624119 492.26406 
"/>
   </g>
   <g id="matplotlib.axis_1">
    <g id="xtick_1">
     <g id="line2d_1">
      <defs>
       <path d="M 0 0 
L 0 3.5 
" id="mf719b380cc" style="stroke:#000000;stroke-width:0.8;"/>
      </defs>
      <g>
       <use style="stroke:#000000;stroke-width:0.8;" x="160.633218" xlink:href="#mf719b380cc" y="512.64"/>
      </g>
     </g>
     <g id="text_1">
      <!-- 20 -->
      <g transform="translate(154.270718 527.238438)scale(0.1 -0.1)">
       <defs>
        <path d="M 19.1875 8.296875 
L 53.609375 8.296875 
L 53.609375 0 
L 7.328125 0 
L 7.328125 8.296875 
Q 12.9375 14.109375 22.625 23.890625 
Q 32.328125 33.6875 34.8125 36.53125 
Q 39.546875 41.84375 41.421875 45.53125 
Q 43.3125 49.21875 43.3125 52.78125 
Q 43.3125 58.59375 39.234375 62.25 
Q 35.15625 65.921875 28.609375 65.921875 
Q 23.96875 65.921875 18.8125 64.3125 
Q 13.671875 62.703125 7.8125 59.421875 
L 7.8125 69.390625 
Q 13.765625 71.78125 18.9375 73 
Q 24.125 74.21875 28.421875 74.21875 
Q 39.75 74.21875 46.484375 68.546875 
Q 53.21875 62.890625 53.21875 53.421875 
Q 53.21875 48.921875 51.53125 44.890625 
Q 49.859375 40.875 45.40625 35.40625 
Q 44.1875 33.984375 37.640625 27.21875 
Q 31.109375 20.453125 19.1875 8.296875 
z
" id="DejaVuSans-50"/>
        <path d="M 31.78125 66.40625 
Q 24.171875 66.40625 20.328125 58.90625 
Q 16.5 51.421875 16.5 36.375 
Q 16.5 21.390625 20.328125 13.890625 
Q 24.171875 6.390625 31.78125 6.390625 
Q 39.453125 6.390625 43.28125 13.890625 
Q 47.125 21.390625 47.125 36.375 
Q 47.125 51.421875 43.28125 58.90625 
Q 39.453125 66.40625 31.78125 66.40625 
z
M 31.78125 74.21875 
Q 44.046875 74.21875 50.515625 64.515625 
Q 56.984375 54.828125 56.984375 36.375 
Q 56.984375 17.96875 50.515625 8.265625 
Q 44.046875 -1.421875 31.78125 -1.421875 
Q 19.53125 -1.421875 13.0625 8.265625 
Q 6.59375 17.96875 6.59375 36.375 
Q 6.59375 54.828125 13.0625 64.515625 
Q 19.53125 74.21875 31.78125 74.21875 
z
" id="DejaVuSans-48"/>
       </defs>
       <use xlink:href="#DejaVuSans-50"/>
       <use x="63.623047" xlink:href="#DejaVuSans-48"/>
      </g>
     </g>
    </g>
    <g id="xtick_2">
     <g id="line2d_2">
      <g>
       <use style="stroke:#000000;stroke-width:0.8;" x="233.52723" xlink:href="#mf719b380cc" y="512.64"/>
      </g>
     </g>
     <g id="text_2">
      <!-- 40 -->
      <g transform="translate(227.16473 527.238438)scale(0.1 -0.1)">
       <defs>
        <path d="M 37.796875 64.3125 
L 12.890625 25.390625 
L 37.796875 25.390625 
z
M 35.203125 72.90625 
L 47.609375 72.90625 
L 47.609375 25.390625 
L 58.015625 25.390625 
L 58.015625 17.1875 
L 47.609375 17.1875 
L 47.609375 0 
L 37.796875 0 
L 37.796875 17.1875 
L 4.890625 17.1875 
L 4.890625 26.703125 
z
" id="DejaVuSans-52"/>
       </defs>
       <use xlink:href="#DejaVuSans-52"/>
       <use x="63.623047" xlink:href="#DejaVuSans-48"/>
      </g>
     </g>
    </g>
    <g id="xtick_3">
     <g id="line2d_3">
      <g>
       <use style="stroke:#000000;stroke-width:0.8;" x="306.421242" xlink:href="#mf719b380cc" y="512.64"/>
      </g>
     </g>
     <g id="text_3">
      <!-- 60 -->
      <g transform="translate(300.058742 527.238438)scale(0.1 -0.1)">
       <defs>
        <path d="M 33.015625 40.375 
Q 26.375 40.375 22.484375 35.828125 
Q 18.609375 31.296875 18.609375 23.390625 
Q 18.609375 15.53125 22.484375 10.953125 
Q 26.375 6.390625 33.015625 6.390625 
Q 39.65625 6.390625 43.53125 10.953125 
Q 47.40625 15.53125 47.40625 23.390625 
Q 47.40625 31.296875 43.53125 35.828125 
Q 39.65625 40.375 33.015625 40.375 
z
M 52.59375 71.296875 
L 52.59375 62.3125 
Q 48.875 64.0625 45.09375 64.984375 
Q 41.3125 65.921875 37.59375 65.921875 
Q 27.828125 65.921875 22.671875 59.328125 
Q 17.53125 52.734375 16.796875 39.40625 
Q 19.671875 43.65625 24.015625 45.921875 
Q 28.375 48.1875 33.59375 48.1875 
Q 44.578125 48.1875 50.953125 41.515625 
Q 57.328125 34.859375 57.328125 23.390625 
Q 57.328125 12.15625 50.6875 5.359375 
Q 44.046875 -1.421875 33.015625 -1.421875 
Q 20.359375 -1.421875 13.671875 8.265625 
Q 6.984375 17.96875 6.984375 36.375 
Q 6.984375 53.65625 15.1875 63.9375 
Q 23.390625 74.21875 37.203125 74.21875 
Q 40.921875 74.21875 44.703125 73.484375 
Q 48.484375 72.75 52.59375 71.296875 
z
" id="DejaVuSans-54"/>
       </defs>
       <use xlink:href="#DejaVuSans-54"/>
       <use x="63.623047" xlink:href="#DejaVuSans-48"/>
      </g>
     </g>
    </g>
    <g id="xtick_4">
     <g id="line2d_4">
      <g>
       <use style="stroke:#000000;stroke-width:0.8;" x="379.315254" xlink:href="#mf719b380cc" y="512.64"/>
      </g>
     </g>
     <g id="text_4">
      <!-- 80 -->
      <g transform="translate(372.952754 527.238438)scale(0.1 -0.1)">
       <defs>
        <path d="M 31.78125 34.625 
Q 24.75 34.625 20.71875 30.859375 
Q 16.703125 27.09375 16.703125 20.515625 
Q 16.703125 13.921875 20.71875 10.15625 
Q 24.75 6.390625 31.78125 6.390625 
Q 38.8125 6.390625 42.859375 10.171875 
Q 46.921875 13.96875 46.921875 20.515625 
Q 46.921875 27.09375 42.890625 30.859375 
Q 38.875 34.625 31.78125 34.625 
z
M 21.921875 38.8125 
Q 15.578125 40.375 12.03125 44.71875 
Q 8.5 49.078125 8.5 55.328125 
Q 8.5 64.0625 14.71875 69.140625 
Q 20.953125 74.21875 31.78125 74.21875 
Q 42.671875 74.21875 48.875 69.140625 
Q 55.078125 64.0625 55.078125 55.328125 
Q 55.078125 49.078125 51.53125 44.71875 
Q 48 40.375 41.703125 38.8125 
Q 48.828125 37.15625 52.796875 32.3125 
Q 56.78125 27.484375 56.78125 20.515625 
Q 56.78125 9.90625 50.3125 4.234375 
Q 43.84375 -1.421875 31.78125 -1.421875 
Q 19.734375 -1.421875 13.25 4.234375 
Q 6.78125 9.90625 6.78125 20.515625 
Q 6.78125 27.484375 10.78125 32.3125 
Q 14.796875 37.15625 21.921875 38.8125 
z
M 18.3125 54.390625 
Q 18.3125 48.734375 21.84375 45.5625 
Q 25.390625 42.390625 31.78125 42.390625 
Q 38.140625 42.390625 41.71875 45.5625 
Q 45.3125 48.734375 45.3125 54.390625 
Q 45.3125 60.0625 41.71875 63.234375 
Q 38.140625 66.40625 31.78125 66.40625 
Q 25.390625 66.40625 21.84375 63.234375 
Q 18.3125 60.0625 18.3125 54.390625 
z
" id="DejaVuSans-56"/>
       </defs>
       <use xlink:href="#DejaVuSans-56"/>
       <use x="63.623047" xlink:href="#DejaVuSans-48"/>
      </g>
     </g>
    </g>
    <g id="xtick_5">
     <g id="line2d_5">
      <g>
       <use style="stroke:#000000;stroke-width:0.8;" x="452.209266" xlink:href="#mf719b380cc" y="512.64"/>
      </g>
     </g>
     <g id="text_5">
      <!-- 100 -->
      <g transform="translate(442.665516 527.238438)scale(0.1 -0.1)">
       <defs>
        <path d="M 12.40625 8.296875 
L 28.515625 8.296875 
L 28.515625 63.921875 
L 10.984375 60.40625 
L 10.984375 69.390625 
L 28.421875 72.90625 
L 38.28125 72.90625 
L 38.28125 8.296875 
L 54.390625 8.296875 
L 54.390625 0 
L 12.40625 0 
z
" id="DejaVuSans-49"/>
       </defs>
       <use xlink:href="#DejaVuSans-49"/>
       <use x="63.623047" xlink:href="#DejaVuSans-48"/>
       <use x="127.246094" xlink:href="#DejaVuSans-48"/>
      </g>
     </g>
    </g>
    <g id="xtick_6">
     <g id="line2d_6">
      <g>
       <use style="stroke:#000000;stroke-width:0.8;" x="525.103278" xlink:href="#mf719b380cc" y="512.64"/>
      </g>
     </g>
     <g id="text_6">
      <!-- 120 -->
      <g transform="translate(515.559528 527.238438)scale(0.1 -0.1)">
       <use xlink:href="#DejaVuSans-49"/>
       <use x="63.623047" xlink:href="#DejaVuSans-50"/>
       <use x="127.246094" xlink:href="#DejaVuSans-48"/>
      </g>
     </g>
    </g>
    <g id="xtick_7">
     <g id="line2d_7">
      <g>
       <use style="stroke:#000000;stroke-width:0.8;" x="597.99729" xlink:href="#mf719b380cc" y="512.64"/>
      </g>
     </g>
     <g id="text_7">
      <!-- 140 -->
      <g transform="translate(588.45354 527.238438)scale(0.1 -0.1)">
       <use xlink:href="#DejaVuSans-49"/>
       <use x="63.623047" xlink:href="#DejaVuSans-52"/>
       <use x="127.246094" xlink:href="#DejaVuSans-48"/>
      </g>
     </g>
    </g>
   </g>
   <g id="matplotlib.axis_2">
    <g id="ytick_1">
     <g id="line2d_8">
      <defs>
       <path d="M 0 0 
L -3.5 0 
" id="me2f1a3323f" style="stroke:#000000;stroke-width:0.8;"/>
      </defs>
      <g>
       <use style="stroke:#000000;stroke-width:0.8;" x="90" xlink:href="#me2f1a3323f" y="505.228085"/>
      </g>
     </g>
     <g id="text_8">
      <!-- 0 -->
      <g transform="translate(76.6375 509.027304)scale(0.1 -0.1)">
       <use xlink:href="#DejaVuSans-48"/>
      </g>
     </g>
    </g>
    <g id="ytick_2">
     <g id="line2d_9">
      <g>
       <use style="stroke:#000000;stroke-width:0.8;" x="90" xlink:href="#me2f1a3323f" y="420.240879"/>
      </g>
     </g>
     <g id="text_9">
      <!-- 20 -->
      <g transform="translate(70.275 424.040097)scale(0.1 -0.1)">
       <use xlink:href="#DejaVuSans-50"/>
       <use x="63.623047" xlink:href="#DejaVuSans-48"/>
      </g>
     </g>
    </g>
    <g id="ytick_3">
     <g id="line2d_10">
      <g>
       <use style="stroke:#000000;stroke-width:0.8;" x="90" xlink:href="#me2f1a3323f" y="335.253672"/>
      </g>
     </g>
     <g id="text_10">
      <!-- 40 -->
      <g transform="translate(70.275 339.05289)scale(0.1 -0.1)">
       <use xlink:href="#DejaVuSans-52"/>
       <use x="63.623047" xlink:href="#DejaVuSans-48"/>
      </g>
     </g>
    </g>
    <g id="ytick_4">
     <g id="line2d_11">
      <g>
       <use style="stroke:#000000;stroke-width:0.8;" x="90" xlink:href="#me2f1a3323f" y="250.266465"/>
      </g>
     </g>
     <g id="text_11">
      <!-- 60 -->
      <g transform="translate(70.275 254.065684)scale(0.1 -0.1)">
       <use xlink:href="#DejaVuSans-54"/>
       <use x="63.623047" xlink:href="#DejaVuSans-48"/>
      </g>
     </g>
    </g>
    <g id="ytick_5">
     <g id="line2d_12">
      <g>
       <use style="stroke:#000000;stroke-width:0.8;" x="90" xlink:href="#me2f1a3323f" y="165.279258"/>
      </g>
     </g>
     <g id="text_12">
      <!-- 80 -->
      <g transform="translate(70.275 169.078477)scale(0.1 -0.1)">
       <use xlink:href="#DejaVuSans-56"/>
       <use x="63.623047" xlink:href="#DejaVuSans-48"/>
      </g>
     </g>
    </g>
    <g id="ytick_6">
     <g id="line2d_13">
      <g>
       <use style="stroke:#000000;stroke-width:0.8;" x="90" xlink:href="#me2f1a3323f" y="80.292051"/>
      </g>
     </g>
     <g id="text_13">
      <!-- 100 -->
      <g transform="translate(63.9125 84.09127)scale(0.1 -0.1)">
       <use xlink:href="#DejaVuSans-49"/>
       <use x="63.623047" xlink:href="#DejaVuSans-48"/>
       <use x="127.246094" xlink:href="#DejaVuSans-48"/>
      </g>
     </g>
    </g>
   </g>
   <g id="line2d_14">
    <defs>
     <path d="M 0 3 
C 0.795609 3 1.55874 2.683901 2.12132 2.12132 
C 2.683901 1.55874 3 0.795609 3 0 
C 3 -0.795609 2.683901 -1.55874 2.12132 -2.12132 
C 1.55874 -2.683901 0.795609 -3 0 -3 
C -0.795609 -3 -1.55874 -2.683901 -2.12132 -2.12132 
C -2.683901 -1.55874 -3 -0.795609 -3 0 
C -3 0.795609 -2.683901 1.55874 -2.12132 2.12132 
C -1.55874 2.683901 -0.795609 3 0 3 
z
" id="m541ab2bbef" style="stroke:#0000ff;"/>
    </defs>
    <g clip-path="url(#p6674cdcca9)">
     <use style="fill:#0000ff;stroke:#0000ff;" x="520.289223" xlink:href="#m541ab2bbef" y="365.005157"/>
    </g>
   </g>
   <g id="line2d_15">
    <path clip-path="url(#p6674cdcca9)" d="M 520.289223 365.005157 
L 520.618368 356.515181 
" style="fill:none;stroke:#0000ff;stroke-linecap:square;stroke-width:1.5;"/>
   </g>
   <g id="line2d_16">
    <path clip-path="url(#p6674cdcca9)" d="M 520.618368 356.515181 
L 509.780955 355.944327 
L 498.948767 355.323347 
L 475.465368 353.818323 
L 462.822497 352.895956 
L 437.546167 350.768599 
L 424.914814 349.587223 
L 404.174309 347.33934 
L 396.045673 346.377169 
L 379.822471 344.231833 
L 371.716695 343.052104 
L 355.570247 340.4486 
L 347.54142 339.005221 
L 334.655485 336.376565 
L 329.786459 335.315867 
L 320.084183 333.048311 
L 315.265348 331.847055 
L 308.09356 329.873237 
L 305.708277 329.186797 
L 300.948992 327.758061 
L 298.580688 327.019218 
L 293.895665 325.472498 
L 291.578715 324.661229 
L 286.945109 322.943376 
L 284.624985 322.041608 
L 280.074757 320.169336 
L 277.850695 319.19179 
L 273.397868 317.093157 
L 271.172193 315.982372 
L 266.778913 313.673857 
L 264.607173 312.476308 
L 261.404227 310.572885 
L 260.314221 309.898662 
L 258.151527 308.506617 
L 257.069244 307.785833 
L 255.337009 306.565899 
L 254.648031 306.058427 
L 253.337262 305.030525 
L 252.699116 304.497022 
L 251.445577 303.381653 
L 250.824752 302.794606 
L 249.473492 301.434422 
L 248.774252 300.663151 
L 247.835269 299.494647 
L 247.514468 299.068445 
L 246.979378 298.318044 
L 246.7687 298.012828 
L 246.341688 297.377112 
L 246.120027 297.038408 
L 245.734921 296.437981 
L 245.585989 296.200235 
L 245.177751 295.5188 
L 245.035278 295.206714 
L 245.006474 295.131571 
" style="fill:none;stroke:#0000ff;stroke-linecap:square;stroke-width:1.5;"/>
   </g>
   <g id="line2d_17">
    <path clip-path="url(#p6674cdcca9)" d="M 245.006474 295.131571 
L 245.001402 295.106109 
L 244.992279 295.054964 
L 244.96189 294.826076 
L 244.938548 294.573644 
L 244.913524 294.060119 
L 244.906571 293.866593 
L 244.894905 293.437537 
L 244.889877 293.191459 
L 244.872945 292.239701 
L 244.87259 291.646041 
L 244.900683 290.943631 
L 244.91439 290.740816 
L 244.947549 290.395435 
L 244.964624 290.266505 
L 245.01734 289.955683 
L 245.056785 289.767933 
L 245.267615 288.939408 
L 245.544608 288.172753 
L 246.128201 286.915792 
L 246.351898 286.473448 
L 246.855403 285.538375 
L 247.142673 285.031661 
L 247.845768 283.833387 
L 248.264001 283.15946 
L 249.111312 281.885548 
L 249.534012 281.296143 
L 250.65763 279.833629 
L 251.390282 278.956357 
L 253.368993 276.684034 
L 254.613592 275.345315 
L 258.230036 271.684321 
L 260.698214 269.443603 
L 265.834008 265.147024 
L 268.475344 263.115306 
L 273.912318 259.24073 
L 276.706301 257.396315 
L 282.405823 253.842397 
L 285.285672 252.150948 
L 291.141326 248.911145 
L 294.126764 247.349265 
L 300.996418 243.900964 
L 304.894127 242.06386 
L 313.729188 238.143451 
L 318.682252 236.10431 
L 328.677704 232.208586 
L 333.696997 230.358643 
L 343.789091 226.884697 
L 348.883328 225.248814 
L 360.690845 221.618371 
L 367.396509 219.6828 
L 386.089155 214.668617 
L 398.147471 211.840326 
L 430.489169 205.04264 
L 450.854769 201.605776 
L 488.955709 196.428702 
L 506.669206 194.500769 
L 524.411083 192.959077 
" style="fill:none;stroke:#0000ff;stroke-linecap:square;stroke-width:1.5;"/>
   </g>
   <g id="line2d_18">
    <path clip-path="url(#p6674cdcca9)" d="M 524.411083 192.959077 
L 523.869354 184.484708 
" style="fill:none;stroke:#0000ff;stroke-linecap:square;stroke-width:1.5;"/>
   </g>
   <g id="line2d_19">
    <path clip-path="url(#p6674cdcca9)" d="M 523.869354 184.484708 
L 521.262926 184.711633 
L 509.149375 185.805476 
L 487.91821 188.044608 
L 460.684515 191.634558 
L 434.923281 195.786548 
L 410.928511 200.402315 
L 388.944161 205.30896 
L 369.132377 210.391073 
L 351.547199 215.557807 
L 336.064754 220.573931 
L 322.545966 225.565339 
L 310.711343 230.351733 
L 300.34681 234.988766 
L 291.244144 239.505774 
L 283.192163 243.841241 
L 276.068888 248.094944 
L 269.722989 252.231231 
L 264.063538 256.302385 
L 259.009506 260.332404 
L 254.48335 264.3041 
L 250.442091 268.245912 
L 246.84878 272.169759 
L 243.652026 276.078643 
L 241.080006 280.203981 
L 238.91063 284.321032 
L 237.56258 288.776598 
L 237.576691 293.324286 
L 237.743696 298.018588 
L 240.142608 301.997208 
L 242.777436 305.816569 
L 246.072943 309.340761 
L 249.84618 312.653413 
L 254.171044 315.68653 
L 258.932822 318.700178 
L 264.199507 321.670286 
L 270.005871 324.673672 
L 276.437255 327.709081 
L 283.634343 330.651608 
L 291.680277 333.627803 
L 300.757814 336.528212 
L 311.017568 339.46964 
L 322.698212 342.382878 
L 336.082527 345.355917 
L 351.522404 348.364728 
L 369.384043 351.29797 
L 389.929899 354.206554 
L 413.290254 356.943697 
L 439.366565 359.481433 
L 467.84858 361.830756 
L 495.09881 363.620231 
L 512.798759 364.610415 
L 520.289223 365.005157 
" style="fill:none;stroke:#0000ff;stroke-linecap:square;stroke-width:1.5;"/>
   </g>
   <g id="line2d_20">
    <defs>
     <path d="M 0 3 
C 0.795609 3 1.55874 2.683901 2.12132 2.12132 
C 2.683901 1.55874 3 0.795609 3 0 
C 3 -0.795609 2.683901 -1.55874 2.12132 -2.12132 
C 1.55874 -2.683901 0.795609 -3 0 -3 
C -0.795609 -3 -1.55874 -2.683901 -2.12132 -2.12132 
C -2.683901 -1.55874 -3 -0.795609 -3 0 
C -3 0.795609 -2.683901 1.55874 -2.12132 2.12132 
C -1.55874 2.683901 -0.795609 3 0 3 
z
" id="m4a6fbb5288" style="stroke:#008000;"/>
    </defs>
    <g clip-path="url(#p6674cdcca9)">
     <use style="fill:#008000;stroke:#008000;" x="472.599619" xlink:href="#m4a6fbb5288" y="484.365506"/>
    </g>
   </g>
   <g id="line2d_21">
    <path clip-path="url(#p6674cdcca9)" d="M 472.599619 484.365506 
L 452.512028 477.074377 
L 432.47147 469.621099 
L 390.433741 453.512423 
L 368.44732 444.833712 
L 335.696833 431.191475 
L 324.80879 426.535545 
L 303.078352 417.051486 
L 292.231812 412.241361 
L 270.681311 402.367434 
L 259.977792 397.281615 
L 238.706329 386.717049 
L 228.137707 381.261486 
L 211.492981 372.185383 
L 205.339888 368.721161 
L 193.167841 361.554156 
L 187.150744 357.855527 
L 175.333299 350.120636 
L 169.51947 346.074634 
L 161.00679 339.708132 
L 158.207939 337.53686 
L 152.704088 333.072912 
L 150.007748 330.793476 
L 145.182992 326.402377 
L 143.022701 324.303692 
L 138.902822 319.935469 
L 136.937545 317.660542 
L 133.97725 313.835005 
L 132.90212 312.339452 
L 130.909628 309.292591 
L 129.997807 307.749903 
L 127.729696 303.408969 
L 126.513197 300.494988 
L 124.574759 294.473526 
L 123.860408 291.389768 
L 123.116803 285.986847 
L 122.94902 283.649741 
L 122.83643 274.331536 
L 123.984591 267.179041 
L 126.871806 256.960189 
L 127.955894 253.783601 
L 130.432077 247.581271 
L 131.822505 244.561422 
L 134.892613 238.691053 
L 136.569354 235.842237 
L 140.179833 230.287059 
L 142.122311 227.561711 
L 146.043802 222.382762 
L 147.994663 219.952748 
L 152.014436 215.269476 
L 154.096721 213.008955 
L 158.415575 208.558461 
L 160.6494 206.364222 
L 165.841478 201.455306 
L 168.822479 198.791005 
L 175.09042 193.553857 
L 178.39464 190.974336 
L 186.562611 184.898115 
L 191.456335 181.497704 
L 201.292974 175.131569 
L 206.254659 172.142356 
L 216.320254 166.381733 
L 221.403765 163.616272 
L 233.29751 157.514067 
L 240.153622 154.284288 
L 255.497268 147.597202 
L 264.011963 144.236001 
L 281.204325 137.950333 
L 289.873792 135.013889 
L 311.245192 128.325374 
L 324.012593 124.825879 
L 349.346572 118.739967 
L 361.902738 116.129667 
L 387.130251 111.502459 
L 399.795493 109.472639 
L 429.428001 105.36078 
L 446.423302 103.509389 
L 486.210282 100.177275 
L 509.022258 99.006098 
L 552.395476 97.863273 
L 572.944842 97.778671 
L 603.116705 98.358384 
L 612.7523 98.649678 
L 622.388901 99.031317 
" style="fill:none;stroke:#008000;stroke-linecap:square;stroke-width:1.5;"/>
   </g>
   <g id="line2d_22">
    <path clip-path="url(#p6674cdcca9)" d="M 622.388901 99.031317 
L 622.636364 90.537486 
" style="fill:none;stroke:#008000;stroke-linecap:square;stroke-width:1.5;"/>
   </g>
   <g id="line2d_23">
    <path clip-path="url(#p6674cdcca9)" d="M 622.636364 90.537486 
L 613.266765 90.166414 
L 584.233398 89.28 
L 536.655306 89.392656 
L 481.449985 91.797556 
L 430.594921 96.404078 
L 384.746744 103.052494 
L 344.115362 110.989666 
L 308.684968 120.113357 
L 278.123161 129.970079 
L 251.809301 139.922392 
L 229.251858 150.081598 
L 209.934367 160.378257 
L 193.210312 170.399394 
L 178.795374 180.397682 
L 166.25796 190.219829 
L 155.514523 200.137887 
L 146.134074 209.829772 
L 138.240934 219.620678 
L 131.479057 229.281682 
L 125.993782 239.026101 
L 121.731743 248.824971 
L 118.539331 258.694029 
L 116.3383 268.835303 
L 115.363636 279.445492 
L 116.019133 290.491494 
L 118.743444 301.619647 
L 123.54579 312.522164 
L 130.666589 322.674995 
L 139.591597 332.336002 
L 150.331718 341.691334 
L 162.79576 351.28942 
L 177.303696 361.342668 
L 194.359456 371.939826 
L 214.599844 383.416337 
L 238.870018 396.153755 
L 268.292851 410.558757 
L 304.154276 426.710814 
L 347.246996 445.272643 
L 398.165702 465.594261 
L 440.14363 481.426079 
L 465.099915 490.544252 
L 470.432784 492.48 
" style="fill:none;stroke:#008000;stroke-linecap:square;stroke-width:1.5;"/>
   </g>
   <g id="line2d_24">
    <path clip-path="url(#p6674cdcca9)" d="M 470.432784 492.48 
L 472.599619 484.365506 
" style="fill:none;stroke:#008000;stroke-linecap:square;stroke-width:1.5;"/>
   </g>
   <g id="patch_3">
    <path d="M 90 512.64 
L 90 69.12 
" style="fill:none;stroke:#000000;stroke-linecap:square;stroke-linejoin:miter;stroke-width:0.8;"/>
   </g>
   <g id="patch_4">
    <path d="M 648 512.64 
L 648 69.12 
" style="fill:none;stroke:#000000;stroke-linecap:square;stroke-linejoin:miter;stroke-width:0.8;"/>
   </g>
   <g id="patch_5">
    <path d="M 90 512.64 
L 648 512.64 
" style="fill:none;stroke:#000000;stroke-linecap:square;stroke-linejoin:miter;stroke-width:0.8;"/>
   </g>
   <g id="patch_6">
    <path d="M 90 69.12 
L 648 69.12 
" style="fill:none;stroke:#000000;stroke-linecap:square;stroke-linejoin:miter;stroke-width:0.8;"/>
   </g>
   <g id="text_14">
    <!-- Example of 5.2.2 -->
    <g transform="translate(318.105 63.12)scale(0.12 -0.12)">
     <defs>
      <path d="M 9.8125 72.90625 
L 55.90625 72.90625 
L 55.90625 64.59375 
L 19.671875 64.59375 
L 19.671875 43.015625 
L 54.390625 43.015625 
L 54.390625 34.71875 
L 19.671875 34.71875 
L 19.671875 8.296875 
L 56.78125 8.296875 
L 56.78125 0 
L 9.8125 0 
z
" id="DejaVuSans-69"/>
      <path d="M 54.890625 54.6875 
L 35.109375 28.078125 
L 55.90625 0 
L 45.3125 0 
L 29.390625 21.484375 
L 13.484375 0 
L 2.875 0 
L 24.125 28.609375 
L 4.6875 54.6875 
L 15.28125 54.6875 
L 29.78125 35.203125 
L 44.28125 54.6875 
z
" id="DejaVuSans-120"/>
      <path d="M 34.28125 27.484375 
Q 23.390625 27.484375 19.1875 25 
Q 14.984375 22.515625 14.984375 16.5 
Q 14.984375 11.71875 18.140625 8.90625 
Q 21.296875 6.109375 26.703125 6.109375 
Q 34.1875 6.109375 38.703125 11.40625 
Q 43.21875 16.703125 43.21875 25.484375 
L 43.21875 27.484375 
z
M 52.203125 31.203125 
L 52.203125 0 
L 43.21875 0 
L 43.21875 8.296875 
Q 40.140625 3.328125 35.546875 0.953125 
Q 30.953125 -1.421875 24.3125 -1.421875 
Q 15.921875 -1.421875 10.953125 3.296875 
Q 6 8.015625 6 15.921875 
Q 6 25.140625 12.171875 29.828125 
Q 18.359375 34.515625 30.609375 34.515625 
L 43.21875 34.515625 
L 43.21875 35.40625 
Q 43.21875 41.609375 39.140625 45 
Q 35.0625 48.390625 27.6875 48.390625 
Q 23 48.390625 18.546875 47.265625 
Q 14.109375 46.140625 10.015625 43.890625 
L 10.015625 52.203125 
Q 14.9375 54.109375 19.578125 55.046875 
Q 24.21875 56 28.609375 56 
Q 40.484375 56 46.34375 49.84375 
Q 52.203125 43.703125 52.203125 31.203125 
z
" id="DejaVuSans-97"/>
      <path d="M 52 44.1875 
Q 55.375 50.25 60.0625 53.125 
Q 64.75 56 71.09375 56 
Q 79.640625 56 84.28125 50.015625 
Q 88.921875 44.046875 88.921875 33.015625 
L 88.921875 0 
L 79.890625 0 
L 79.890625 32.71875 
Q 79.890625 40.578125 77.09375 44.375 
Q 74.3125 48.1875 68.609375 48.1875 
Q 61.625 48.1875 57.5625 43.546875 
Q 53.515625 38.921875 53.515625 30.90625 
L 53.515625 0 
L 44.484375 0 
L 44.484375 32.71875 
Q 44.484375 40.625 41.703125 44.40625 
Q 38.921875 48.1875 33.109375 48.1875 
Q 26.21875 48.1875 22.15625 43.53125 
Q 18.109375 38.875 18.109375 30.90625 
L 18.109375 0 
L 9.078125 0 
L 9.078125 54.6875 
L 18.109375 54.6875 
L 18.109375 46.1875 
Q 21.1875 51.21875 25.484375 53.609375 
Q 29.78125 56 35.6875 56 
Q 41.65625 56 45.828125 52.96875 
Q 50 49.953125 52 44.1875 
z
" id="DejaVuSans-109"/>
      <path d="M 18.109375 8.203125 
L 18.109375 -20.796875 
L 9.078125 -20.796875 
L 9.078125 54.6875 
L 18.109375 54.6875 
L 18.109375 46.390625 
Q 20.953125 51.265625 25.265625 53.625 
Q 29.59375 56 35.59375 56 
Q 45.5625 56 51.78125 48.09375 
Q 58.015625 40.1875 58.015625 27.296875 
Q 58.015625 14.40625 51.78125 6.484375 
Q 45.5625 -1.421875 35.59375 -1.421875 
Q 29.59375 -1.421875 25.265625 0.953125 
Q 20.953125 3.328125 18.109375 8.203125 
z
M 48.6875 27.296875 
Q 48.6875 37.203125 44.609375 42.84375 
Q 40.53125 48.484375 33.40625 48.484375 
Q 26.265625 48.484375 22.1875 42.84375 
Q 18.109375 37.203125 18.109375 27.296875 
Q 18.109375 17.390625 22.1875 11.75 
Q 26.265625 6.109375 33.40625 6.109375 
Q 40.53125 6.109375 44.609375 11.75 
Q 48.6875 17.390625 48.6875 27.296875 
z
" id="DejaVuSans-112"/>
      <path d="M 9.421875 75.984375 
L 18.40625 75.984375 
L 18.40625 0 
L 9.421875 0 
z
" id="DejaVuSans-108"/>
      <path d="M 56.203125 29.59375 
L 56.203125 25.203125 
L 14.890625 25.203125 
Q 15.484375 15.921875 20.484375 11.0625 
Q 25.484375 6.203125 34.421875 6.203125 
Q 39.59375 6.203125 44.453125 7.46875 
Q 49.3125 8.734375 54.109375 11.28125 
L 54.109375 2.78125 
Q 49.265625 0.734375 44.1875 -0.34375 
Q 39.109375 -1.421875 33.890625 -1.421875 
Q 20.796875 -1.421875 13.15625 6.1875 
Q 5.515625 13.8125 5.515625 26.8125 
Q 5.515625 40.234375 12.765625 48.109375 
Q 20.015625 56 32.328125 56 
Q 43.359375 56 49.78125 48.890625 
Q 56.203125 41.796875 56.203125 29.59375 
z
M 47.21875 32.234375 
Q 47.125 39.59375 43.09375 43.984375 
Q 39.0625 48.390625 32.421875 48.390625 
Q 24.90625 48.390625 20.390625 44.140625 
Q 15.875 39.890625 15.1875 32.171875 
z
" id="DejaVuSans-101"/>
      <path id="DejaVuSans-32"/>
      <path d="M 30.609375 48.390625 
Q 23.390625 48.390625 19.1875 42.75 
Q 14.984375 37.109375 14.984375 27.296875 
Q 14.984375 17.484375 19.15625 11.84375 
Q 23.34375 6.203125 30.609375 6.203125 
Q 37.796875 6.203125 41.984375 11.859375 
Q 46.1875 17.53125 46.1875 27.296875 
Q 46.1875 37.015625 41.984375 42.703125 
Q 37.796875 48.390625 30.609375 48.390625 
z
M 30.609375 56 
Q 42.328125 56 49.015625 48.375 
Q 55.71875 40.765625 55.71875 27.296875 
Q 55.71875 13.875 49.015625 6.21875 
Q 42.328125 -1.421875 30.609375 -1.421875 
Q 18.84375 -1.421875 12.171875 6.21875 
Q 5.515625 13.875 5.515625 27.296875 
Q 5.515625 40.765625 12.171875 48.375 
Q 18.84375 56 30.609375 56 
z
" id="DejaVuSans-111"/>
      <path d="M 37.109375 75.984375 
L 37.109375 68.5 
L 28.515625 68.5 
Q 23.6875 68.5 21.796875 66.546875 
Q 19.921875 64.59375 19.921875 59.515625 
L 19.921875 54.6875 
L 34.71875 54.6875 
L 34.71875 47.703125 
L 19.921875 47.703125 
L 19.921875 0 
L 10.890625 0 
L 10.890625 47.703125 
L 2.296875 47.703125 
L 2.296875 54.6875 
L 10.890625 54.6875 
L 10.890625 58.5 
Q 10.890625 67.625 15.140625 71.796875 
Q 19.390625 75.984375 28.609375 75.984375 
z
" id="DejaVuSans-102"/>
      <path d="M 10.796875 72.90625 
L 49.515625 72.90625 
L 49.515625 64.59375 
L 19.828125 64.59375 
L 19.828125 46.734375 
Q 21.96875 47.46875 24.109375 47.828125 
Q 26.265625 48.1875 28.421875 48.1875 
Q 40.625 48.1875 47.75 41.5 
Q 54.890625 34.8125 54.890625 23.390625 
Q 54.890625 11.625 47.5625 5.09375 
Q 40.234375 -1.421875 26.90625 -1.421875 
Q 22.3125 -1.421875 17.546875 -0.640625 
Q 12.796875 0.140625 7.71875 1.703125 
L 7.71875 11.625 
Q 12.109375 9.234375 16.796875 8.0625 
Q 21.484375 6.890625 26.703125 6.890625 
Q 35.15625 6.890625 40.078125 11.328125 
Q 45.015625 15.765625 45.015625 23.390625 
Q 45.015625 31 40.078125 35.4375 
Q 35.15625 39.890625 26.703125 39.890625 
Q 22.75 39.890625 18.8125 39.015625 
Q 14.890625 38.140625 10.796875 36.28125 
z
" id="DejaVuSans-53"/>
      <path d="M 10.6875 12.40625 
L 21 12.40625 
L 21 0 
L 10.6875 0 
z
" id="DejaVuSans-46"/>
     </defs>
     <use xlink:href="#DejaVuSans-69"/>
     <use x="63.183594" xlink:href="#DejaVuSans-120"/>
     <use x="122.363281" xlink:href="#DejaVuSans-97"/>
     <use x="183.642578" xlink:href="#DejaVuSans-109"/>
     <use x="281.054688" xlink:href="#DejaVuSans-112"/>
     <use x="344.53125" xlink:href="#DejaVuSans-108"/>
     <use x="372.314453" xlink:href="#DejaVuSans-101"/>
     <use x="433.837891" xlink:href="#DejaVuSans-32"/>
     <use x="465.625" xlink:href="#DejaVuSans-111"/>
     <use x="526.806641" xlink:href="#DejaVuSans-102"/>
     <use x="562.011719" xlink:href="#DejaVuSans-32"/>
     <use x="593.798828" xlink:href="#DejaVuSans-53"/>
     <use x="657.421875" xlink:href="#DejaVuSans-46"/>
     <use x="689.208984" xlink:href="#DejaVuSans-50"/>
     <use x="752.832031" xlink:href="#DejaVuSans-46"/>
     <use x="784.619141" xlink:href="#DejaVuSans-50"/>
    </g>
   </g>
  </g>
 </g>
 <defs>
  <clipPath id="p6674cdcca9">
   <rect height="443.52" width="558" x="90" y="69.12"/>
  </clipPath>
 </defs>
</svg>
