<?xml version="1.0" encoding="utf-8" standalone="no"?>
<!DOCTYPE svg PUBLIC "-//W3C//DTD SVG 1.1//EN"
  "http://www.w3.org/Graphics/SVG/1.1/DTD/svg11.dtd">
<!-- Created with matplotlib (https://matplotlib.org/) -->
<svg height="576pt" version="1.1" viewBox="0 0 720 576" width="720pt" xmlns="http://www.w3.org/2000/svg" xmlns:xlink="http://www.w3.org/1999/xlink">
 <metadata>
  <rdf:RDF xmlns:cc="http://creativecommons.org/ns#" xmlns:dc="http://purl.org/dc/elements/1.1/" xmlns:rdf="http://www.w3.org/1999/02/22-rdf-syntax-ns#">
   <cc:Work>
    <dc:type rdf:resource="http://purl.org/dc/dcmitype/StillImage"/>
    <dc:date>2025-09-06T02:05:05.840559</dc:date>
    <dc:format>image/svg+xml</dc:format>
    <dc:creator>
     <cc:Agent>
      <dc:title>Matplotlib v3.3.2, https://matplotlib.org/</dc:title>
     </cc:Agent>
    </dc:creator>
   </cc:Work>
  </rdf:RDF>
 </metadata>
 <defs>
  <style type="text/css">*{stroke-linecap:butt;stroke-linejoin:round;}</style>
 </defs>
 <g id="figure_1">
  <g id="patch_1">
   <path d="M 0 576 
L 720 576 
L 720 0 
L 0 0 
z
" style="fill:#ffffff;"/>
  </g>
  <g id="axes_1">
   <g id="patch_2">
    <path d="M 90 512.64 
L 648 512.64 
L 648 69.12 
L 90 69.12 
z
" style="fill:#ffffff;"/>
   </g>
   <g id="Quiver_1">
    <path clip-path="url(#pd9f80863a6)" d="M 622.569687 299.913084 
L 622.238171 299.846407 
L 622.436335 300.576116 
L 619.321202 298.914806 
L 622.836392 298.587019 
L 622.371524 299.183375 
L 622.70304 299.250051 
L 622.569687 299.913084 
" style="fill:#0000ff;"/>
    <path clip-path="url(#pd9f80863a6)" d="M 596.421243 294.653949 
L 596.088863 294.591718 
L 596.296779 295.318708 
L 593.159683 293.699255 
L 596.670169 293.324433 
L 596.213326 293.926959 
L 596.545706 293.989191 
L 596.421243 294.653949 
" style="fill:#0000ff;"/>
    <path clip-path="url(#pd9f80863a6)" d="M 571.718036 290.028729 
L 571.384921 289.970569 
L 571.601717 290.69496 
L 568.445039 289.114017 
L 571.950675 288.696266 
L 571.50124 289.304338 
L 571.834356 289.362497 
L 571.718036 290.028729 
" style="fill:#0000ff;"/>
    <path clip-path="url(#pd9f80863a6)" d="M 548.363706 285.951209 
L 548.029964 285.896759 
L 548.254807 286.618693 
L 545.080733 285.072972 
L 548.581504 284.61624 
L 548.138863 285.229275 
L 548.472605 285.283724 
L 548.363706 285.951209 
" style="fill:#0000ff;"/>
    <path clip-path="url(#pd9f80863a6)" d="M 526.261961 282.34533 
L 525.927677 282.294313 
L 526.159927 283.013898 
L 522.970137 281.500874 
L 526.46603 281.008193 
L 526.029712 281.625745 
L 526.363996 281.676762 
L 526.261961 282.34533 
" style="fill:#0000ff;"/>
    <path clip-path="url(#pd9f80863a6)" d="M 505.326601 279.150238 
L 504.991847 279.102403 
L 505.230933 279.819747 
L 502.026891 278.33714 
L 505.517938 277.81122 
L 505.087515 278.432895 
L 505.42227 278.480729 
L 505.326601 279.150238 
" style="fill:#0000ff;"/>
    <path clip-path="url(#pd9f80863a6)" d="M 485.486893 276.315254 
L 485.151695 276.270633 
L 485.397651 276.985649 
L 482.179535 275.533848 
L 485.665376 274.974462 
L 485.240937 275.600237 
L 485.576135 275.644858 
L 485.486893 276.315254 
" style="fill:#0000ff;"/>
    <path clip-path="url(#pd9f80863a6)" d="M 466.666608 273.809925 
L 466.331012 273.768404 
L 466.583566 274.481117 
L 463.352169 273.059119 
L 466.832692 272.467541 
L 466.414054 273.097212 
L 466.74965 273.138733 
L 466.666608 273.809925 
" style="fill:#0000ff;"/>
    <path clip-path="url(#pd9f80863a6)" d="M 448.794637 271.598738 
L 448.458696 271.560106 
L 448.717374 272.270619 
L 445.473859 270.876485 
L 448.949161 270.254974 
L 448.535958 270.888225 
L 448.871899 270.926856 
L 448.794637 271.598738 
" style="fill:#0000ff;"/>
    <path clip-path="url(#pd9f80863a6)" d="M 431.815439 269.646218 
L 431.479174 269.610522 
L 431.744046 270.318749 
L 428.488482 268.952988 
L 431.958225 268.301157 
L 431.550567 268.937991 
L 431.886832 268.973687 
L 431.815439 269.646218 
" style="fill:#0000ff;"/>
    <path clip-path="url(#pd9f80863a6)" d="M 415.668206 267.932082 
L 415.331632 267.899425 
L 415.602891 268.60523 
L 412.335123 267.268931 
L 415.798837 266.585786 
L 415.396948 267.226276 
L 415.733522 267.258934 
L 415.668206 267.932082 
" style="fill:#0000ff;"/>
    <path clip-path="url(#pd9f80863a6)" d="M 400.301851 266.441078 
L 399.965019 266.411199 
L 400.242095 267.114742 
L 396.963408 265.805462 
L 400.421365 265.093749 
L 400.024776 265.737535 
L 400.361608 265.767414 
L 400.301851 266.441078 
" style="fill:#0000ff;"/>
    <path clip-path="url(#pd9f80863a6)" d="M 385.666054 265.14281 
L 385.328975 265.115854 
L 385.612141 265.816967 
L 382.322224 264.536167 
L 385.773879 263.794496 
L 385.382888 264.441696 
L 385.719967 264.468653 
L 385.666054 265.14281 
" style="fill:#0000ff;"/>
    <path clip-path="url(#pd9f80863a6)" d="M 371.715007 264.027119 
L 371.377708 264.003073 
L 371.666913 264.701717 
L 368.366067 263.449352 
L 371.811194 262.677925 
L 371.425802 263.328475 
L 371.7631 263.352522 
L 371.715007 264.027119 
" style="fill:#0000ff;"/>
    <path clip-path="url(#pd9f80863a6)" d="M 358.413328 263.078797 
L 358.075828 263.057771 
L 358.371275 263.753798 
L 355.05935 262.531033 
L 358.497433 261.728795 
L 358.11788 262.38277 
L 358.455381 262.403796 
L 358.413328 263.078797 
" style="fill:#0000ff;"/>
    <path clip-path="url(#pd9f80863a6)" d="M 345.715184 262.287686 
L 345.377513 262.269609 
L 345.679031 262.963028 
L 342.356549 261.769245 
L 345.787492 260.937001 
L 345.413667 261.594266 
L 345.751338 261.612343 
L 345.715184 262.287686 
" style="fill:#0000ff;"/>
    <path clip-path="url(#pd9f80863a6)" d="M 333.590408 261.638582 
L 333.252583 261.62365 
L 333.560544 262.314232 
L 330.227092 261.151434 
L 333.650138 260.287283 
L 333.282448 260.948 
L 333.620273 260.962932 
L 333.590408 261.638582 
" style="fill:#0000ff;"/>
    <path clip-path="url(#pd9f80863a6)" d="M 322.003236 261.1264 
L 321.665289 261.11455 
L 321.979537 261.802294 
L 318.635615 260.669956 
L 322.050635 259.774612 
L 321.688989 260.438656 
L 322.026936 260.450506 
L 322.003236 261.1264 
" style="fill:#0000ff;"/>
    <path clip-path="url(#pd9f80863a6)" d="M 310.86873 260.735955 
L 310.53066 260.728417 
L 310.853655 261.412096 
L 307.495561 260.322508 
L 310.898881 259.383672 
L 310.545735 260.052276 
L 310.883806 260.059813 
L 310.86873 260.735955 
" style="fill:#0000ff;"/>
    <path clip-path="url(#pd9f80863a6)" d="M 300.180128 260.49762 
L 299.841993 260.493933 
L 300.172755 261.173889 
L 296.802468 260.122622 
L 300.194873 259.145081 
L 299.849366 259.817664 
L 300.187501 259.82135 
L 300.180128 260.49762 
" style="fill:#0000ff;"/>
    <path clip-path="url(#pd9f80863a6)" d="M 289.948394 260.386048 
L 289.61024 260.386573 
L 289.949444 261.062357 
L 286.566326 260.053142 
L 289.946295 259.033431 
L 289.60919 259.710264 
L 289.947345 259.709739 
L 289.948394 260.386048 
" style="fill:#0000ff;"/>
    <path clip-path="url(#pd9f80863a6)" d="M 280.147634 260.401235 
L 279.80951 260.405797 
L 280.156758 261.077483 
L 276.761832 260.108729 
L 280.129387 259.048739 
L 279.800386 259.729549 
L 280.13851 259.724987 
L 280.147634 260.401235 
" style="fill:#0000ff;"/>
    <path clip-path="url(#pd9f80863a6)" d="M 270.752621 260.527965 
L 270.414575 260.536526 
L 270.769742 261.204058 
L 267.363597 260.275524 
L 270.718379 259.17578 
L 270.397454 259.860433 
L 270.7355 259.851872 
L 270.752621 260.527965 
" style="fill:#0000ff;"/>
    <path clip-path="url(#pd9f80863a6)" d="M 261.743427 260.756083 
L 261.405518 260.768965 
L 261.769192 261.431901 
L 258.351452 260.546995 
L 261.691899 259.404445 
L 261.379754 260.093146 
L 261.717663 260.080264 
L 261.743427 260.756083 
" style="fill:#0000ff;"/>
    <path clip-path="url(#pd9f80863a6)" d="M 253.099165 261.085605 
L 252.761434 261.102533 
L 253.133021 261.761067 
L 249.704929 260.917152 
L 253.031454 259.734682 
L 252.727578 260.427071 
L 253.065309 260.410143 
L 253.099165 261.085605 
" style="fill:#0000ff;"/>
    <path clip-path="url(#pd9f80863a6)" d="M 244.805186 261.50129 
L 244.467701 261.522557 
L 244.847721 262.176261 
L 241.409066 261.376478 
L 244.720117 260.151349 
L 244.425166 260.847587 
L 244.762652 260.826319 
L 244.805186 261.50129 
" style="fill:#0000ff;"/>
    <path clip-path="url(#pd9f80863a6)" d="M 236.840776 262.003158 
L 236.503582 262.028632 
L 236.891724 262.677546 
L 233.443363 261.920703 
L 236.73888 260.654383 
L 236.452634 261.354244 
L 236.789828 261.32877 
L 236.840776 262.003158 
" style="fill:#0000ff;"/>
    <path clip-path="url(#pd9f80863a6)" d="M 229.190904 262.581054 
L 228.854059 262.610789 
L 229.250375 263.254744 
L 225.79272 262.541562 
L 229.071963 261.233674 
L 228.794589 261.937099 
L 229.131434 261.907364 
L 229.190904 262.581054 
" style="fill:#0000ff;"/>
    <path clip-path="url(#pd9f80863a6)" d="M 221.840572 263.22988 
L 221.504158 263.264149 
L 221.909109 263.902708 
L 218.442164 263.236155 
L 221.703496 261.884225 
L 221.43562 262.591321 
L 221.772034 262.557052 
L 221.840572 263.22988 
" style="fill:#0000ff;"/>
    <path clip-path="url(#pd9f80863a6)" d="M 214.774067 263.949683 
L 214.43812 263.988263 
L 214.851227 264.621576 
L 211.376019 263.999536 
L 214.619747 262.605896 
L 214.36096 263.316369 
L 214.696907 263.277789 
L 214.774067 263.949683 
" style="fill:#0000ff;"/>
    <path clip-path="url(#pd9f80863a6)" d="M 207.976662 264.730263 
L 207.641273 264.773421 
L 208.062979 265.401041 
L 204.579611 264.82646 
L 207.804028 263.388705 
L 207.554956 264.102643 
L 207.890345 264.059484 
L 207.976662 264.730263 
" style="fill:#0000ff;"/>
    <path clip-path="url(#pd9f80863a6)" d="M 201.43822 265.571608 
L 201.103491 265.619619 
L 201.534242 266.241066 
L 198.042918 265.71699 
L 201.246175 264.232691 
L 201.007469 264.950161 
L 201.342198 264.90215 
L 201.43822 265.571608 
" style="fill:#0000ff;"/>
    <path clip-path="url(#pd9f80863a6)" d="M 195.14824 266.473762 
L 194.81423 266.526544 
L 195.253805 267.141782 
L 191.755358 266.667577 
L 194.93711 265.137722 
L 194.708665 265.858524 
L 195.042675 265.805742 
L 195.14824 266.473762 
" style="fill:#0000ff;"/>
    <path clip-path="url(#pd9f80863a6)" d="M 189.086852 267.431583 
L 188.75369 267.489474 
L 189.202634 268.097908 
L 185.697336 267.67733 
L 188.855288 266.098933 
L 188.637908 266.823149 
L 188.97107 266.765258 
L 189.086852 267.431583 
" style="fill:#0000ff;"/>
    <path clip-path="url(#pd9f80863a6)" d="M 183.253634 268.445135 
L 182.921384 268.50805 
L 183.379464 269.109636 
L 179.868215 268.742034 
L 183.001975 267.116134 
L 182.795554 267.843549 
L 183.127804 267.780635 
L 183.253634 268.445135 
" style="fill:#0000ff;"/>
    <path clip-path="url(#pd9f80863a6)" d="M 177.634037 269.509212 
L 177.302898 269.577734 
L 177.771082 270.171491 
L 174.25412 269.863296 
L 177.359948 268.184654 
L 177.165853 268.915455 
L 177.496992 268.846933 
L 177.634037 269.509212 
" style="fill:#0000ff;"/>
    <path clip-path="url(#pd9f80863a6)" d="M 172.222276 270.629014 
L 171.892317 270.703014 
L 172.370277 271.288931 
L 168.848691 271.039059 
L 171.926274 269.30918 
L 171.744317 270.043097 
L 172.074275 269.969097 
L 172.222276 270.629014 
" style="fill:#0000ff;"/>
    <path clip-path="url(#pd9f80863a6)" d="M 167.003851 271.799301 
L 166.675312 271.879368 
L 167.163985 272.456379 
L 163.638393 272.271431 
L 166.683583 270.485145 
L 166.515178 271.22229 
L 166.843717 271.142223 
L 167.003851 271.799301 
" style="fill:#0000ff;"/>
    <path clip-path="url(#pd9f80863a6)" d="M 161.973716 273.025102 
L 161.646877 273.11185 
L 162.147211 273.67878 
L 158.618581 273.565735 
L 161.626728 271.717747 
L 161.473383 272.458172 
L 161.800222 272.371425 
L 161.973716 273.025102 
" style="fill:#0000ff;"/>
    <path clip-path="url(#pd9f80863a6)" d="M 157.126399 274.311564 
L 156.801469 274.405206 
L 157.313683 274.961425 
L 153.783452 274.923053 
L 156.751832 273.011842 
L 156.614185 273.755345 
L 156.939115 273.661703 
L 157.126399 274.311564 
" style="fill:#0000ff;"/>
    <path clip-path="url(#pd9f80863a6)" d="M 152.452383 275.658471 
L 152.129783 275.75985 
L 152.65514 276.303672 
L 149.125 276.349655 
L 152.04687 274.368069 
L 151.927026 275.114649 
L 152.249626 275.01327 
L 152.452383 275.658471 
" style="fill:#0000ff;"/>
    <path clip-path="url(#pd9f80863a6)" d="M 147.941181 277.076017 
L 147.621285 277.185631 
L 148.16041 277.715808 
L 144.632609 277.852267 
L 147.502722 275.796434 
L 147.402056 276.54584 
L 147.721952 276.436225 
L 147.941181 277.076017 
" style="fill:#0000ff;"/>
    <path clip-path="url(#pd9f80863a6)" d="M 143.598751 278.563819 
L 143.282316 278.683055 
L 143.837224 279.196689 
L 140.315161 279.439748 
L 143.121805 277.298077 
L 143.043843 278.050185 
L 143.360278 277.930948 
L 143.598751 278.563819 
" style="fill:#0000ff;"/>
    <path clip-path="url(#pd9f80863a6)" d="M 139.409997 280.141963 
L 139.097982 280.272328 
L 139.670728 280.765994 
L 136.159479 281.1336 
L 138.888536 278.893902 
L 138.837252 279.648298 
L 139.149267 279.517932 
L 139.409997 280.141963 
" style="fill:#0000ff;"/>
    <path clip-path="url(#pd9f80863a6)" d="M 135.380036 281.82544 
L 135.073627 281.968485 
L 135.666125 282.43826 
L 132.172894 282.949474 
L 134.807859 280.599801 
L 134.787538 281.355665 
L 135.093948 281.212621 
L 135.380036 281.82544 
" style="fill:#0000ff;"/>
    <path clip-path="url(#pd9f80863a6)" d="M 131.495152 283.638556 
L 131.19659 283.797331 
L 131.812702 284.235679 
L 128.350759 284.927745 
L 130.860052 282.444309 
L 130.87904 283.200207 
L 131.177602 283.041432 
L 131.495152 283.638556 
" style="fill:#0000ff;"/>
    <path clip-path="url(#pd9f80863a6)" d="M 127.766825 285.620376 
L 127.479866 285.79927 
L 128.124614 286.194294 
L 124.71834 287.122358 
L 127.051249 284.472539 
L 127.122078 285.225351 
L 127.409037 285.046457 
L 127.766825 285.620376 
" style="fill:#0000ff;"/>
    <path clip-path="url(#pd9f80863a6)" d="M 124.198385 287.842985 
L 123.930782 288.049716 
L 124.611846 288.378191 
L 121.315626 289.642684 
L 123.371465 286.772574 
L 123.517322 287.51451 
L 123.784925 287.30778 
L 124.198385 287.842985 
" style="fill:#0000ff;"/>
    <path clip-path="url(#pd9f80863a6)" d="M 120.806981 290.45669 
L 120.578497 290.705977 
L 121.305555 290.913656 
L 118.272861 292.721077 
L 119.809832 289.542757 
L 120.079923 290.249011 
L 120.308406 289.999723 
L 120.806981 290.45669 
" style="fill:#0000ff;"/>
    <path clip-path="url(#pd9f80863a6)" d="M 117.625027 293.912545 
L 117.465952 294.210947 
L 118.221831 294.230694 
L 115.735878 296.737492 
L 116.431418 293.276246 
L 116.869148 293.892798 
L 117.028223 293.594395 
L 117.625027 293.912545 
" style="fill:#0000ff;"/>
    <path clip-path="url(#pd9f80863a6)" d="M 116.190868 296.557295 
L 116.146386 296.892511 
L 116.861301 296.646258 
L 115.410836 299.864977 
L 114.850002 296.379368 
L 115.475954 296.803548 
L 115.520435 296.468331 
L 116.190868 296.557295 
" style="fill:#0000ff;"/>
    <path clip-path="url(#pd9f80863a6)" d="M 115.683508 300.110996 
L 115.793192 300.430869 
L 116.323253 299.891629 
L 116.460472 303.419401 
L 114.40402 300.549731 
L 115.153448 300.650236 
L 115.043764 300.330364 
L 115.683508 300.110996 
" style="fill:#0000ff;"/>
    <path clip-path="url(#pd9f80863a6)" d="M 116.837712 303.542045 
L 117.051755 303.803836 
L 117.361293 303.11396 
L 118.716348 306.373995 
L 115.790549 304.398216 
L 116.528173 304.231921 
L 116.314131 303.970131 
L 116.837712 303.542045 
" style="fill:#0000ff;"/>
    <path clip-path="url(#pd9f80863a6)" d="M 118.755518 305.903942 
L 119.027161 306.105333 
L 119.1583 305.360654 
L 121.270564 308.189496 
L 117.949954 306.990517 
L 118.624379 306.64862 
L 118.352736 306.447229 
L 118.755518 305.903942 
" style="fill:#0000ff;"/>
    <path clip-path="url(#pd9f80863a6)" d="M 122.531951 308.709601 
L 122.833364 308.862895 
L 122.83854 308.106776 
L 125.392782 310.543956 
L 121.918774 309.915251 
L 122.526775 309.46572 
L 122.225363 309.312426 
L 122.531951 308.709601 
" style="fill:#0000ff;"/>
    <path clip-path="url(#pd9f80863a6)" d="M 126.342228 310.649188 
L 126.656897 310.773013 
L 126.589877 310.019852 
L 129.365089 312.202098 
L 125.846932 311.907862 
L 126.409249 311.402349 
L 126.09458 311.278525 
L 126.342228 310.649188 
" style="fill:#0000ff;"/>
    <path clip-path="url(#pd9f80863a6)" d="M 130.227094 312.178685 
L 130.54918 312.281687 
L 130.433098 311.534513 
L 133.344949 313.530791 
L 129.815086 313.467028 
L 130.343176 312.925858 
L 130.02109 312.822856 
L 130.227094 312.178685 
" style="fill:#0000ff;"/>
    <path clip-path="url(#pd9f80863a6)" d="M 134.208412 313.452312 
L 134.535096 313.539643 
L 134.383075 312.798946 
L 137.387913 314.652307 
L 133.859088 314.759045 
L 134.360433 314.19301 
L 134.03375 314.105679 
L 134.208412 313.452312 
" style="fill:#0000ff;"/>
    <path clip-path="url(#pd9f80863a6)" d="M 138.294597 314.544902 
L 138.624311 314.619982 
L 138.444756 313.885473 
L 141.516663 315.625413 
L 137.994278 315.863761 
L 138.474152 315.279411 
L 138.144437 315.204331 
L 138.294597 314.544902 
" style="fill:#0000ff;"/>
    <path clip-path="url(#pd9f80863a6)" d="M 142.494514 315.501431 
L 142.826369 315.566401 
L 142.624455 314.837722 
L 145.74809 316.482989 
L 142.234633 316.828849 
L 142.696428 316.230111 
L 142.364573 316.16514 
L 142.494514 315.501431 
" style="fill:#0000ff;"/>
    <path clip-path="url(#pd9f80863a6)" d="M 146.81238 316.346902 
L 147.145841 316.403048 
L 146.924672 315.67998 
L 150.090845 317.241822 
L 146.587796 317.680746 
L 147.033549 317.06997 
L 146.700088 317.013824 
L 146.81238 316.346902 
" style="fill:#0000ff;"/>
    <path clip-path="url(#pd9f80863a6)" d="M 151.263557 317.096445 
L 151.598179 317.145198 
L 151.361063 316.427201 
L 154.561023 317.918595 
L 151.068546 318.434932 
L 151.500674 317.814442 
L 151.166052 317.765689 
L 151.263557 317.096445 
" style="fill:#0000ff;"/>
    <path clip-path="url(#pd9f80863a6)" d="M 155.852758 317.765131 
L 156.18824 317.807561 
L 155.937617 317.094166 
L 159.165151 318.52491 
L 155.683039 319.10706 
L 156.10338 318.478525 
L 155.767898 318.436096 
L 155.852758 317.765131 
" style="fill:#0000ff;"/>
    <path clip-path="url(#pd9f80863a6)" d="M 160.579419 318.362981 
L 160.915586 318.399596 
L 160.652651 317.690648 
L 163.904469 319.065304 
L 160.432957 319.707647 
L 160.842355 319.071929 
L 160.506188 319.035314 
L 160.579419 318.362981 
" style="fill:#0000ff;"/>
    <path clip-path="url(#pd9f80863a6)" d="M 165.463991 318.895054 
L 165.800678 318.926523 
L 165.52693 318.221679 
L 168.799395 319.546434 
L 165.338114 320.241803 
L 165.73774 319.599898 
L 165.401052 319.568428 
L 165.463991 318.895054 
" style="fill:#0000ff;"/>
    <path clip-path="url(#pd9f80863a6)" d="M 170.506722 319.366411 
L 170.843778 319.393651 
L 170.561202 318.692299 
L 173.85004 319.975868 
L 170.397761 320.714634 
L 170.789297 320.067763 
L 170.452241 320.040523 
L 170.506722 319.366411 
" style="fill:#0000ff;"/>
    <path clip-path="url(#pd9f80863a6)" d="M 175.711608 319.787088 
L 176.048989 319.80994 
L 175.757311 319.112324 
L 179.062573 320.352988 
L 175.6202 321.136615 
L 176.003286 320.484703 
L 175.665904 320.461851 
L 175.711608 319.787088 
" style="fill:#0000ff;"/>
    <path clip-path="url(#pd9f80863a6)" d="M 181.09968 320.152059 
L 181.437298 320.171105 
L 181.137774 319.476823 
L 184.456813 320.680144 
L 181.023493 321.50253 
L 181.399205 320.846341 
L 181.061587 320.827295 
L 181.09968 320.152059 
" style="fill:#0000ff;"/>
    <path clip-path="url(#pd9f80863a6)" d="M 186.670564 320.466359 
L 187.008366 320.481808 
L 186.701462 319.790756 
L 190.033132 320.958652 
L 186.608767 321.817566 
L 186.977467 321.157411 
L 186.639666 321.141962 
L 186.670564 320.466359 
" style="fill:#0000ff;"/>
    <path clip-path="url(#pd9f80863a6)" d="M 192.43468 320.729992 
L 192.772609 320.742327 
L 192.45935 320.054132 
L 195.801641 321.191274 
L 192.385339 322.08171 
L 192.747939 321.418186 
L 192.410009 321.405851 
L 192.43468 320.729992 
" style="fill:#0000ff;"/>
    <path clip-path="url(#pd9f80863a6)" d="M 198.407236 320.948015 
L 198.745252 320.957713 
L 198.426631 320.271984 
L 201.777696 321.383003 
L 198.368448 322.300078 
L 198.725858 321.633744 
L 198.387842 321.624047 
L 198.407236 320.948015 
" style="fill:#0000ff;"/>
    <path clip-path="url(#pd9f80863a6)" d="M 204.592453 321.125474 
L 204.930542 321.132155 
L 204.605816 320.449296 
L 207.966659 321.530378 
L 204.565727 322.477829 
L 204.917178 321.808333 
L 204.57909 321.801651 
L 204.592453 321.125474 
" style="fill:#0000ff;"/>
    <path clip-path="url(#pd9f80863a6)" d="M 211.006382 321.252241 
L 211.344511 321.256364 
L 211.014629 320.575982 
L 214.383554 321.631606 
L 210.989887 322.604759 
L 211.336264 321.932624 
L 210.998134 321.9285 
L 211.006382 321.252241 
" style="fill:#0000ff;"/>
    <path clip-path="url(#pd9f80863a6)" d="M 217.659131 321.333379 
L 217.99728 321.335366 
L 217.663107 320.657081 
L 221.038633 321.691404 
L 217.651181 322.685974 
L 217.993305 322.011664 
L 217.655156 322.009677 
L 217.659131 321.333379 
" style="fill:#0000ff;"/>
    <path clip-path="url(#pd9f80863a6)" d="M 224.560334 321.373951 
L 224.898489 321.373712 
L 224.559856 320.697642 
L 227.94212 321.709716 
L 224.56129 322.72657 
L 224.898967 322.050022 
L 224.560812 322.050261 
L 224.560334 321.373951 
" style="fill:#0000ff;"/>
    <path clip-path="url(#pd9f80863a6)" d="M 231.735837 321.368885 
L 232.073985 321.366814 
L 231.731693 320.692589 
L 235.119392 321.686317 
L 231.744123 322.721479 
L 232.078128 322.043111 
L 231.73998 322.045182 
L 231.735837 321.368885 
" style="fill:#0000ff;"/>
    <path clip-path="url(#pd9f80863a6)" d="M 239.185165 321.323252 
L 239.523297 321.319268 
L 239.177199 320.646989 
L 242.570462 321.621551 
L 239.201098 322.675777 
L 239.531263 321.995531 
L 239.193132 321.999514 
L 239.185165 321.323252 
" style="fill:#0000ff;"/>
    <path clip-path="url(#pd9f80863a6)" d="M 246.934127 321.231972 
L 247.272236 321.226443 
L 246.923069 320.555752 
L 250.320751 321.514793 
L 246.956242 322.58441 
L 247.283294 321.902662 
L 246.945185 321.908191 
L 246.934127 321.231972 
" style="fill:#0000ff;"/>
    <path clip-path="url(#pd9f80863a6)" d="M 254.997497 321.100122 
L 255.335576 321.092972 
L 254.983198 320.423963 
L 258.385439 321.366704 
L 255.026096 322.452438 
L 255.349876 321.76913 
L 255.011797 321.77628 
L 254.997497 321.100122 
" style="fill:#0000ff;"/>
    <path clip-path="url(#pd9f80863a6)" d="M 263.390907 320.92262 
L 263.728957 320.914188 
L 263.374044 320.246521 
L 266.779835 321.176353 
L 263.424634 322.274818 
L 263.74582 321.590288 
L 263.407771 321.598719 
L 263.390907 320.92262 
" style="fill:#0000ff;"/>
    <path clip-path="url(#pd9f80863a6)" d="M 272.134433 320.704541 
L 272.472452 320.694953 
L 272.115258 320.028503 
L 275.524209 320.946681 
L 272.172785 322.056616 
L 272.491628 321.370991 
L 272.153609 321.380579 
L 272.134433 320.704541 
" style="fill:#0000ff;"/>
    <path clip-path="url(#pd9f80863a6)" d="M 281.253606 320.445878 
L 281.591599 320.435428 
L 281.232706 319.769892 
L 284.643988 320.679374 
L 281.295404 321.797851 
L 281.612498 321.111415 
L 281.274505 321.121865 
L 281.253606 320.445878 
" style="fill:#0000ff;"/>
    <path clip-path="url(#pd9f80863a6)" d="M 290.768166 320.15172 
L 291.106123 320.140155 
L 290.745037 319.475806 
L 294.1593 320.374033 
L 290.814424 321.503548 
L 291.129252 320.816069 
L 290.791295 320.827634 
L 290.768166 320.15172 
" style="fill:#0000ff;"/>
    <path clip-path="url(#pd9f80863a6)" d="M 300.699278 319.811891 
L 301.037218 319.799834 
L 300.675163 319.136012 
L 304.090733 320.029256 
L 300.747508 321.16365 
L 301.061333 320.475713 
L 300.723393 320.487771 
L 300.699278 319.811891 
" style="fill:#0000ff;"/>
    <path clip-path="url(#pd9f80863a6)" d="M 311.076545 319.441638 
L 311.414459 319.428877 
L 311.051024 318.76581 
L 314.468445 319.651948 
L 311.127587 320.793293 
L 311.43998 320.104705 
L 311.102066 320.117466 
L 311.076545 319.441638 
" style="fill:#0000ff;"/>
    <path clip-path="url(#pd9f80863a6)" d="M 321.955657 319.03082 
L 322.293531 319.017041 
L 321.9281 318.355072 
L 325.348175 319.230908 
L 322.010771 320.382315 
L 322.321088 319.692789 
L 321.983214 319.706568 
L 321.955657 319.03082 
" style="fill:#0000ff;"/>
    <path clip-path="url(#pd9f80863a6)" d="M 333.397439 318.564225 
L 333.735254 318.549071 
L 333.367131 317.888595 
L 336.790743 318.750502 
L 333.458054 319.915485 
L 333.765561 319.224701 
L 333.427746 319.239855 
L 333.397439 318.564225 
" style="fill:#0000ff;"/>
    <path clip-path="url(#pd9f80863a6)" d="M 345.382112 318.026616 
L 345.71987 318.01024 
L 345.34936 317.3511 
L 348.776068 318.200613 
L 345.447617 319.377648 
L 345.752622 318.685756 
L 345.414864 318.702132 
L 345.382112 318.026616 
" style="fill:#0000ff;"/>
    <path clip-path="url(#pd9f80863a6)" d="M 357.935182 317.417984 
L 358.272894 317.400682 
L 357.900578 316.74256 
L 361.329602 317.582677 
L 358.004389 318.768831 
L 358.307498 318.076105 
L 357.969786 318.093407 
L 357.935182 317.417984 
" style="fill:#0000ff;"/>
    <path clip-path="url(#pd9f80863a6)" d="M 371.101885 316.74342 
L 371.439542 316.725074 
L 371.065194 316.068106 
L 374.496798 316.897621 
L 371.175267 318.094047 
L 371.476233 317.400388 
L 371.138576 317.418733 
L 371.101885 316.74342 
" style="fill:#0000ff;"/>
    <path clip-path="url(#pd9f80863a6)" d="M 384.918117 315.992759 
L 385.255731 315.973642 
L 384.879883 315.317531 
L 388.313374 316.139204 
L 384.994585 317.343215 
L 385.293965 316.64887 
L 384.956351 316.667987 
L 384.918117 315.992759 
" style="fill:#0000ff;"/>
    <path clip-path="url(#pd9f80863a6)" d="M 399.429387 315.17108 
L 399.766964 315.151322 
L 399.389871 314.495926 
L 402.824916 315.311073 
L 399.508421 316.521388 
L 399.806481 315.826476 
L 399.468904 315.846234 
L 399.429387 315.17108 
" style="fill:#0000ff;"/>
    <path clip-path="url(#pd9f80863a6)" d="M 414.681141 314.278394 
L 415.018675 314.257918 
L 414.640189 313.603326 
L 418.076959 314.411168 
L 414.763045 315.628531 
L 415.059627 314.932987 
L 414.722093 314.953463 
L 414.681141 314.278394 
" style="fill:#0000ff;"/>
    <path clip-path="url(#pd9f80863a6)" d="M 430.734547 313.304539 
L 431.072051 313.283571 
L 430.692612 312.62953 
L 434.130555 313.432369 
L 430.818416 314.654555 
L 431.113986 313.958579 
L 430.776481 313.979547 
L 430.734547 313.304539 
" style="fill:#0000ff;"/>
    <path clip-path="url(#pd9f80863a6)" d="M 447.635067 312.254597 
L 447.972542 312.233174 
L 447.592222 311.579646 
L 451.031244 312.377848 
L 447.720757 313.604499 
L 448.015387 312.908125 
L 447.677912 312.929548 
L 447.635067 312.254597 
" style="fill:#0000ff;"/>
    <path clip-path="url(#pd9f80863a6)" d="M 465.453895 311.123484 
L 465.791355 311.101824 
L 465.410574 310.448563 
L 468.850158 311.244344 
L 465.540535 312.473325 
L 465.834675 311.776745 
L 465.497215 311.798405 
L 465.453895 311.123484 
" style="fill:#0000ff;"/>
    <path clip-path="url(#pd9f80863a6)" d="M 484.26175 309.916292 
L 484.59919 309.894319 
L 484.217803 309.241412 
L 487.658124 310.033999 
L 484.349642 311.266052 
L 484.643136 310.569199 
L 484.305696 310.591172 
L 484.26175 309.916292 
" style="fill:#0000ff;"/>
    <path clip-path="url(#pd9f80863a6)" d="M 504.124608 308.622873 
L 504.462025 308.600547 
L 504.079955 307.948039 
L 507.521103 308.737029 
L 504.213912 309.972541 
L 504.506677 309.275381 
L 504.16926 309.297707 
L 504.124608 308.622873 
" style="fill:#0000ff;"/>
    <path clip-path="url(#pd9f80863a6)" d="M 525.128944 307.233067 
L 525.466351 307.210593 
L 525.083997 306.558252 
L 528.525489 307.345741 
L 525.218837 308.582695 
L 525.511297 307.885408 
L 525.17389 307.907881 
L 525.128944 307.233067 
" style="fill:#0000ff;"/>
    <path clip-path="url(#pd9f80863a6)" d="M 547.365528 305.751981 
L 547.702903 305.729034 
L 547.319634 305.07723 
L 550.762227 305.859888 
L 547.457315 307.101482 
L 547.748796 306.403785 
L 547.411421 306.426731 
L 547.365528 305.751981 
" style="fill:#0000ff;"/>
    <path clip-path="url(#pd9f80863a6)" d="M 570.931156 304.149153 
L 571.268505 304.125829 
L 570.884507 303.474454 
L 574.327974 304.253258 
L 571.024453 305.498551 
L 571.315154 304.800527 
L 570.977804 304.823852 
L 570.931156 304.149153 
" style="fill:#0000ff;"/>
    <path clip-path="url(#pd9f80863a6)" d="M 595.9471 302.419544 
L 596.284397 302.395474 
L 595.898961 301.74495 
L 599.34414 302.516144 
L 596.043379 303.768732 
L 596.332536 303.070068 
L 595.995239 303.094138 
L 595.9471 302.419544 
" style="fill:#0000ff;"/>
    <path clip-path="url(#pd9f80863a6)" d="M 622.531137 300.522495 
L 622.868434 300.498426 
L 622.482998 299.847901 
L 625.928177 300.619096 
L 622.627415 301.871684 
L 622.916573 301.17302 
L 622.579276 301.19709 
L 622.531137 300.522495 
" style="fill:#0000ff;"/>
   </g>
   <g id="matplotlib.axis_1">
    <g id="xtick_1">
     <g id="line2d_1">
      <defs>
       <path d="M 0 0 
L 0 3.5 
" id="m2b086d7848" style="stroke:#000000;stroke-width:0.8;"/>
      </defs>
      <g>
       <use style="stroke:#000000;stroke-width:0.8;" x="115.363636" xlink:href="#m2b086d7848" y="512.64"/>
      </g>
     </g>
     <g id="text_1">
      <!-- 0.0 -->
      <g transform="translate(107.412074 527.238438)scale(0.1 -0.1)">
       <defs>
        <path d="M 31.78125 66.40625 
Q 24.171875 66.40625 20.328125 58.90625 
Q 16.5 51.421875 16.5 36.375 
Q 16.5 21.390625 20.328125 13.890625 
Q 24.171875 6.390625 31.78125 6.390625 
Q 39.453125 6.390625 43.28125 13.890625 
Q 47.125 21.390625 47.125 36.375 
Q 47.125 51.421875 43.28125 58.90625 
Q 39.453125 66.40625 31.78125 66.40625 
z
M 31.78125 74.21875 
Q 44.046875 74.21875 50.515625 64.515625 
Q 56.984375 54.828125 56.984375 36.375 
Q 56.984375 17.96875 50.515625 8.265625 
Q 44.046875 -1.421875 31.78125 -1.421875 
Q 19.53125 -1.421875 13.0625 8.265625 
Q 6.59375 17.96875 6.59375 36.375 
Q 6.59375 54.828125 13.0625 64.515625 
Q 19.53125 74.21875 31.78125 74.21875 
z
" id="DejaVuSans-48"/>
        <path d="M 10.6875 12.40625 
L 21 12.40625 
L 21 0 
L 10.6875 0 
z
" id="DejaVuSans-46"/>
       </defs>
       <use xlink:href="#DejaVuSans-48"/>
       <use x="63.623047" xlink:href="#DejaVuSans-46"/>
       <use x="95.410156" xlink:href="#DejaVuSans-48"/>
      </g>
     </g>
    </g>
    <g id="xtick_2">
     <g id="line2d_2">
      <g>
       <use style="stroke:#000000;stroke-width:0.8;" x="216.810066" xlink:href="#m2b086d7848" y="512.64"/>
      </g>
     </g>
     <g id="text_2">
      <!-- 0.2 -->
      <g transform="translate(208.858504 527.238438)scale(0.1 -0.1)">
       <defs>
        <path d="M 19.1875 8.296875 
L 53.609375 8.296875 
L 53.609375 0 
L 7.328125 0 
L 7.328125 8.296875 
Q 12.9375 14.109375 22.625 23.890625 
Q 32.328125 33.6875 34.8125 36.53125 
Q 39.546875 41.84375 41.421875 45.53125 
Q 43.3125 49.21875 43.3125 52.78125 
Q 43.3125 58.59375 39.234375 62.25 
Q 35.15625 65.921875 28.609375 65.921875 
Q 23.96875 65.921875 18.8125 64.3125 
Q 13.671875 62.703125 7.8125 59.421875 
L 7.8125 69.390625 
Q 13.765625 71.78125 18.9375 73 
Q 24.125 74.21875 28.421875 74.21875 
Q 39.75 74.21875 46.484375 68.546875 
Q 53.21875 62.890625 53.21875 53.421875 
Q 53.21875 48.921875 51.53125 44.890625 
Q 49.859375 40.875 45.40625 35.40625 
Q 44.1875 33.984375 37.640625 27.21875 
Q 31.109375 20.453125 19.1875 8.296875 
z
" id="DejaVuSans-50"/>
       </defs>
       <use xlink:href="#DejaVuSans-48"/>
       <use x="63.623047" xlink:href="#DejaVuSans-46"/>
       <use x="95.410156" xlink:href="#DejaVuSans-50"/>
      </g>
     </g>
    </g>
    <g id="xtick_3">
     <g id="line2d_3">
      <g>
       <use style="stroke:#000000;stroke-width:0.8;" x="318.256496" xlink:href="#m2b086d7848" y="512.64"/>
      </g>
     </g>
     <g id="text_3">
      <!-- 0.4 -->
      <g transform="translate(310.304933 527.238438)scale(0.1 -0.1)">
       <defs>
        <path d="M 37.796875 64.3125 
L 12.890625 25.390625 
L 37.796875 25.390625 
z
M 35.203125 72.90625 
L 47.609375 72.90625 
L 47.609375 25.390625 
L 58.015625 25.390625 
L 58.015625 17.1875 
L 47.609375 17.1875 
L 47.609375 0 
L 37.796875 0 
L 37.796875 17.1875 
L 4.890625 17.1875 
L 4.890625 26.703125 
z
" id="DejaVuSans-52"/>
       </defs>
       <use xlink:href="#DejaVuSans-48"/>
       <use x="63.623047" xlink:href="#DejaVuSans-46"/>
       <use x="95.410156" xlink:href="#DejaVuSans-52"/>
      </g>
     </g>
    </g>
    <g id="xtick_4">
     <g id="line2d_4">
      <g>
       <use style="stroke:#000000;stroke-width:0.8;" x="419.702926" xlink:href="#m2b086d7848" y="512.64"/>
      </g>
     </g>
     <g id="text_4">
      <!-- 0.6 -->
      <g transform="translate(411.751363 527.238438)scale(0.1 -0.1)">
       <defs>
        <path d="M 33.015625 40.375 
Q 26.375 40.375 22.484375 35.828125 
Q 18.609375 31.296875 18.609375 23.390625 
Q 18.609375 15.53125 22.484375 10.953125 
Q 26.375 6.390625 33.015625 6.390625 
Q 39.65625 6.390625 43.53125 10.953125 
Q 47.40625 15.53125 47.40625 23.390625 
Q 47.40625 31.296875 43.53125 35.828125 
Q 39.65625 40.375 33.015625 40.375 
z
M 52.59375 71.296875 
L 52.59375 62.3125 
Q 48.875 64.0625 45.09375 64.984375 
Q 41.3125 65.921875 37.59375 65.921875 
Q 27.828125 65.921875 22.671875 59.328125 
Q 17.53125 52.734375 16.796875 39.40625 
Q 19.671875 43.65625 24.015625 45.921875 
Q 28.375 48.1875 33.59375 48.1875 
Q 44.578125 48.1875 50.953125 41.515625 
Q 57.328125 34.859375 57.328125 23.390625 
Q 57.328125 12.15625 50.6875 5.359375 
Q 44.046875 -1.421875 33.015625 -1.421875 
Q 20.359375 -1.421875 13.671875 8.265625 
Q 6.984375 17.96875 6.984375 36.375 
Q 6.984375 53.65625 15.1875 63.9375 
Q 23.390625 74.21875 37.203125 74.21875 
Q 40.921875 74.21875 44.703125 73.484375 
Q 48.484375 72.75 52.59375 71.296875 
z
" id="DejaVuSans-54"/>
       </defs>
       <use xlink:href="#DejaVuSans-48"/>
       <use x="63.623047" xlink:href="#DejaVuSans-46"/>
       <use x="95.410156" xlink:href="#DejaVuSans-54"/>
      </g>
     </g>
    </g>
    <g id="xtick_5">
     <g id="line2d_5">
      <g>
       <use style="stroke:#000000;stroke-width:0.8;" x="521.149355" xlink:href="#m2b086d7848" y="512.64"/>
      </g>
     </g>
     <g id="text_5">
      <!-- 0.8 -->
      <g transform="translate(513.197793 527.238438)scale(0.1 -0.1)">
       <defs>
        <path d="M 31.78125 34.625 
Q 24.75 34.625 20.71875 30.859375 
Q 16.703125 27.09375 16.703125 20.515625 
Q 16.703125 13.921875 20.71875 10.15625 
Q 24.75 6.390625 31.78125 6.390625 
Q 38.8125 6.390625 42.859375 10.171875 
Q 46.921875 13.96875 46.921875 20.515625 
Q 46.921875 27.09375 42.890625 30.859375 
Q 38.875 34.625 31.78125 34.625 
z
M 21.921875 38.8125 
Q 15.578125 40.375 12.03125 44.71875 
Q 8.5 49.078125 8.5 55.328125 
Q 8.5 64.0625 14.71875 69.140625 
Q 20.953125 74.21875 31.78125 74.21875 
Q 42.671875 74.21875 48.875 69.140625 
Q 55.078125 64.0625 55.078125 55.328125 
Q 55.078125 49.078125 51.53125 44.71875 
Q 48 40.375 41.703125 38.8125 
Q 48.828125 37.15625 52.796875 32.3125 
Q 56.78125 27.484375 56.78125 20.515625 
Q 56.78125 9.90625 50.3125 4.234375 
Q 43.84375 -1.421875 31.78125 -1.421875 
Q 19.734375 -1.421875 13.25 4.234375 
Q 6.78125 9.90625 6.78125 20.515625 
Q 6.78125 27.484375 10.78125 32.3125 
Q 14.796875 37.15625 21.921875 38.8125 
z
M 18.3125 54.390625 
Q 18.3125 48.734375 21.84375 45.5625 
Q 25.390625 42.390625 31.78125 42.390625 
Q 38.140625 42.390625 41.71875 45.5625 
Q 45.3125 48.734375 45.3125 54.390625 
Q 45.3125 60.0625 41.71875 63.234375 
Q 38.140625 66.40625 31.78125 66.40625 
Q 25.390625 66.40625 21.84375 63.234375 
Q 18.3125 60.0625 18.3125 54.390625 
z
" id="DejaVuSans-56"/>
       </defs>
       <use xlink:href="#DejaVuSans-48"/>
       <use x="63.623047" xlink:href="#DejaVuSans-46"/>
       <use x="95.410156" xlink:href="#DejaVuSans-56"/>
      </g>
     </g>
    </g>
    <g id="xtick_6">
     <g id="line2d_6">
      <g>
       <use style="stroke:#000000;stroke-width:0.8;" x="622.595785" xlink:href="#m2b086d7848" y="512.64"/>
      </g>
     </g>
     <g id="text_6">
      <!-- 1.0 -->
      <g transform="translate(614.644223 527.238438)scale(0.1 -0.1)">
       <defs>
        <path d="M 12.40625 8.296875 
L 28.515625 8.296875 
L 28.515625 63.921875 
L 10.984375 60.40625 
L 10.984375 69.390625 
L 28.421875 72.90625 
L 38.28125 72.90625 
L 38.28125 8.296875 
L 54.390625 8.296875 
L 54.390625 0 
L 12.40625 0 
z
" id="DejaVuSans-49"/>
       </defs>
       <use xlink:href="#DejaVuSans-49"/>
       <use x="63.623047" xlink:href="#DejaVuSans-46"/>
       <use x="95.410156" xlink:href="#DejaVuSans-48"/>
      </g>
     </g>
    </g>
   </g>
   <g id="matplotlib.axis_2">
    <g id="ytick_1">
     <g id="line2d_7">
      <defs>
       <path d="M 0 0 
L -3.5 0 
" id="m4d0285ab06" style="stroke:#000000;stroke-width:0.8;"/>
      </defs>
      <g>
       <use style="stroke:#000000;stroke-width:0.8;" x="90" xlink:href="#m4d0285ab06" y="503.113539"/>
      </g>
     </g>
     <g id="text_7">
      <!-- −0.4 -->
      <g transform="translate(58.717187 506.912758)scale(0.1 -0.1)">
       <defs>
        <path d="M 10.59375 35.5 
L 73.1875 35.5 
L 73.1875 27.203125 
L 10.59375 27.203125 
z
" id="DejaVuSans-8722"/>
       </defs>
       <use xlink:href="#DejaVuSans-8722"/>
       <use x="83.789062" xlink:href="#DejaVuSans-48"/>
       <use x="147.412109" xlink:href="#DejaVuSans-46"/>
       <use x="179.199219" xlink:href="#DejaVuSans-52"/>
      </g>
     </g>
    </g>
    <g id="ytick_2">
     <g id="line2d_8">
      <g>
       <use style="stroke:#000000;stroke-width:0.8;" x="90" xlink:href="#m4d0285ab06" y="452.390325"/>
      </g>
     </g>
     <g id="text_8">
      <!-- −0.3 -->
      <g transform="translate(58.717187 456.189543)scale(0.1 -0.1)">
       <defs>
        <path d="M 40.578125 39.3125 
Q 47.65625 37.796875 51.625 33 
Q 55.609375 28.21875 55.609375 21.1875 
Q 55.609375 10.40625 48.1875 4.484375 
Q 40.765625 -1.421875 27.09375 -1.421875 
Q 22.515625 -1.421875 17.65625 -0.515625 
Q 12.796875 0.390625 7.625 2.203125 
L 7.625 11.71875 
Q 11.71875 9.328125 16.59375 8.109375 
Q 21.484375 6.890625 26.8125 6.890625 
Q 36.078125 6.890625 40.9375 10.546875 
Q 45.796875 14.203125 45.796875 21.1875 
Q 45.796875 27.640625 41.28125 31.265625 
Q 36.765625 34.90625 28.71875 34.90625 
L 20.21875 34.90625 
L 20.21875 43.015625 
L 29.109375 43.015625 
Q 36.375 43.015625 40.234375 45.921875 
Q 44.09375 48.828125 44.09375 54.296875 
Q 44.09375 59.90625 40.109375 62.90625 
Q 36.140625 65.921875 28.71875 65.921875 
Q 24.65625 65.921875 20.015625 65.03125 
Q 15.375 64.15625 9.8125 62.3125 
L 9.8125 71.09375 
Q 15.4375 72.65625 20.34375 73.4375 
Q 25.25 74.21875 29.59375 74.21875 
Q 40.828125 74.21875 47.359375 69.109375 
Q 53.90625 64.015625 53.90625 55.328125 
Q 53.90625 49.265625 50.4375 45.09375 
Q 46.96875 40.921875 40.578125 39.3125 
z
" id="DejaVuSans-51"/>
       </defs>
       <use xlink:href="#DejaVuSans-8722"/>
       <use x="83.789062" xlink:href="#DejaVuSans-48"/>
       <use x="147.412109" xlink:href="#DejaVuSans-46"/>
       <use x="179.199219" xlink:href="#DejaVuSans-51"/>
      </g>
     </g>
    </g>
    <g id="ytick_3">
     <g id="line2d_9">
      <g>
       <use style="stroke:#000000;stroke-width:0.8;" x="90" xlink:href="#m4d0285ab06" y="401.66711"/>
      </g>
     </g>
     <g id="text_9">
      <!-- −0.2 -->
      <g transform="translate(58.717187 405.466329)scale(0.1 -0.1)">
       <use xlink:href="#DejaVuSans-8722"/>
       <use x="83.789062" xlink:href="#DejaVuSans-48"/>
       <use x="147.412109" xlink:href="#DejaVuSans-46"/>
       <use x="179.199219" xlink:href="#DejaVuSans-50"/>
      </g>
     </g>
    </g>
    <g id="ytick_4">
     <g id="line2d_10">
      <g>
       <use style="stroke:#000000;stroke-width:0.8;" x="90" xlink:href="#m4d0285ab06" y="350.943895"/>
      </g>
     </g>
     <g id="text_10">
      <!-- −0.1 -->
      <g transform="translate(58.717187 354.743114)scale(0.1 -0.1)">
       <use xlink:href="#DejaVuSans-8722"/>
       <use x="83.789062" xlink:href="#DejaVuSans-48"/>
       <use x="147.412109" xlink:href="#DejaVuSans-46"/>
       <use x="179.199219" xlink:href="#DejaVuSans-49"/>
      </g>
     </g>
    </g>
    <g id="ytick_5">
     <g id="line2d_11">
      <g>
       <use style="stroke:#000000;stroke-width:0.8;" x="90" xlink:href="#m4d0285ab06" y="300.22068"/>
      </g>
     </g>
     <g id="text_11">
      <!-- 0.0 -->
      <g transform="translate(67.096875 304.019899)scale(0.1 -0.1)">
       <use xlink:href="#DejaVuSans-48"/>
       <use x="63.623047" xlink:href="#DejaVuSans-46"/>
       <use x="95.410156" xlink:href="#DejaVuSans-48"/>
      </g>
     </g>
    </g>
    <g id="ytick_6">
     <g id="line2d_12">
      <g>
       <use style="stroke:#000000;stroke-width:0.8;" x="90" xlink:href="#m4d0285ab06" y="249.497465"/>
      </g>
     </g>
     <g id="text_12">
      <!-- 0.1 -->
      <g transform="translate(67.096875 253.296684)scale(0.1 -0.1)">
       <use xlink:href="#DejaVuSans-48"/>
       <use x="63.623047" xlink:href="#DejaVuSans-46"/>
       <use x="95.410156" xlink:href="#DejaVuSans-49"/>
      </g>
     </g>
    </g>
    <g id="ytick_7">
     <g id="line2d_13">
      <g>
       <use style="stroke:#000000;stroke-width:0.8;" x="90" xlink:href="#m4d0285ab06" y="198.77425"/>
      </g>
     </g>
     <g id="text_13">
      <!-- 0.2 -->
      <g transform="translate(67.096875 202.573469)scale(0.1 -0.1)">
       <use xlink:href="#DejaVuSans-48"/>
       <use x="63.623047" xlink:href="#DejaVuSans-46"/>
       <use x="95.410156" xlink:href="#DejaVuSans-50"/>
      </g>
     </g>
    </g>
    <g id="ytick_8">
     <g id="line2d_14">
      <g>
       <use style="stroke:#000000;stroke-width:0.8;" x="90" xlink:href="#m4d0285ab06" y="148.051035"/>
      </g>
     </g>
     <g id="text_14">
      <!-- 0.3 -->
      <g transform="translate(67.096875 151.850254)scale(0.1 -0.1)">
       <use xlink:href="#DejaVuSans-48"/>
       <use x="63.623047" xlink:href="#DejaVuSans-46"/>
       <use x="95.410156" xlink:href="#DejaVuSans-51"/>
      </g>
     </g>
    </g>
    <g id="ytick_9">
     <g id="line2d_15">
      <g>
       <use style="stroke:#000000;stroke-width:0.8;" x="90" xlink:href="#m4d0285ab06" y="97.327821"/>
      </g>
     </g>
     <g id="text_15">
      <!-- 0.4 -->
      <g transform="translate(67.096875 101.127039)scale(0.1 -0.1)">
       <use xlink:href="#DejaVuSans-48"/>
       <use x="63.623047" xlink:href="#DejaVuSans-46"/>
       <use x="95.410156" xlink:href="#DejaVuSans-52"/>
      </g>
     </g>
    </g>
   </g>
   <g id="line2d_16">
    <path clip-path="url(#pd9f80863a6)" d="M 622.636364 299.581568 
L 596.483474 294.32157 
L 571.776196 289.695613 
L 548.418156 285.617466 
L 526.312979 282.011046 
L 505.374435 278.815483 
L 485.531514 275.980056 
L 466.708129 273.474329 
L 448.833268 271.262797 
L 431.851136 269.309953 
L 415.700864 267.595508 
L 400.33173 266.104246 
L 385.69301 264.805731 
L 371.739054 263.689821 
L 358.434354 262.741297 
L 345.733261 261.950014 
L 333.605341 261.300757 
L 322.015086 260.788453 
L 310.876268 260.397884 
L 300.183814 260.159485 
L 289.94787 260.047894 
L 280.143072 260.063111 
L 270.74406 260.189919 
L 261.730545 260.418173 
L 253.082237 260.747874 
L 244.783919 261.163805 
L 236.815302 261.665964 
L 229.161169 262.244209 
L 221.806303 262.893466 
L 214.735487 263.613736 
L 207.933504 264.394873 
L 201.390209 265.236879 
L 195.095458 266.139752 
L 189.028961 267.098421 
L 183.190719 268.112885 
L 177.565515 269.178073 
L 172.148275 270.299056 
L 166.923784 271.470762 
L 161.886969 272.698264 
L 157.032757 273.986633 
L 152.351005 275.335871 
L 147.831566 276.756121 
L 143.479514 278.247383 
L 139.279632 279.829948 
L 135.236992 281.519031 
L 131.336377 283.339994 
L 127.587931 285.333416 
L 123.991655 287.575383 
L 120.557694 290.228207 
L 117.326625 293.75347 
L 115.855652 296.512813 
L 115.363636 300.22068 
L 116.575921 303.756088 
L 118.554127 306.175585 
L 122.378657 309.011013 
L 126.218404 310.963857 
L 130.124092 312.50077 
L 134.121081 313.778995 
L 138.219517 314.874617 
L 142.429544 315.833286 
L 146.756234 316.680363 
L 151.214805 317.431067 
L 155.810328 318.100613 
L 160.542804 318.699147 
L 165.432522 319.231741 
L 170.479482 319.703467 
L 175.688756 320.12447 
L 181.080634 320.489677 
L 186.655115 320.804161 
L 192.422344 321.067921 
L 198.397539 321.286031 
L 204.585771 321.463562 
L 211.002258 321.59037 
L 217.657144 321.671528 
L 224.560573 321.712106 
L 231.737908 321.707034 
L 239.189149 321.661383 
L 246.939656 321.570081 
L 255.004647 321.438201 
L 263.399339 321.26067 
L 272.144021 321.04256 
L 281.264055 320.783871 
L 290.77973 320.489677 
L 300.711336 320.149831 
L 311.089306 319.779552 
L 321.969435 319.368694 
L 333.412592 318.90204 
L 345.398488 318.364374 
L 357.952484 317.755695 
L 371.12023 317.081077 
L 384.937234 316.330373 
L 399.449146 315.508657 
L 414.701617 314.615928 
L 430.755514 313.642043 
L 447.656489 312.592072 
L 465.475555 311.460944 
L 484.283723 310.253732 
L 504.146934 308.96029 
L 525.151417 307.570474 
L 547.388474 306.089356 
L 570.95448 304.486502 
L 595.97117 302.756841 
L 622.555206 300.859793 
" style="fill:none;stroke:#0000ff;stroke-dasharray:5.55,2.4;stroke-dashoffset:0;stroke-width:1.5;"/>
    <defs>
     <path d="M 0 3 
C 0.795609 3 1.55874 2.683901 2.12132 2.12132 
C 2.683901 1.55874 3 0.795609 3 0 
C 3 -0.795609 2.683901 -1.55874 2.12132 -2.12132 
C 1.55874 -2.683901 0.795609 -3 0 -3 
C -0.795609 -3 -1.55874 -2.683901 -2.12132 -2.12132 
C -2.683901 -1.55874 -3 -0.795609 -3 0 
C -3 0.795609 -2.683901 1.55874 -2.12132 2.12132 
C -1.55874 2.683901 -0.795609 3 0 3 
z
" id="m01acd3feb7" style="stroke:#0000ff;"/>
    </defs>
    <g clip-path="url(#pd9f80863a6)">
     <use style="fill:#0000ff;stroke:#0000ff;" x="622.636364" xlink:href="#m01acd3feb7" y="299.581568"/>
     <use style="fill:#0000ff;stroke:#0000ff;" x="596.483474" xlink:href="#m01acd3feb7" y="294.32157"/>
     <use style="fill:#0000ff;stroke:#0000ff;" x="571.776196" xlink:href="#m01acd3feb7" y="289.695613"/>
     <use style="fill:#0000ff;stroke:#0000ff;" x="548.418156" xlink:href="#m01acd3feb7" y="285.617466"/>
     <use style="fill:#0000ff;stroke:#0000ff;" x="526.312979" xlink:href="#m01acd3feb7" y="282.011046"/>
     <use style="fill:#0000ff;stroke:#0000ff;" x="505.374435" xlink:href="#m01acd3feb7" y="278.815483"/>
     <use style="fill:#0000ff;stroke:#0000ff;" x="485.531514" xlink:href="#m01acd3feb7" y="275.980056"/>
     <use style="fill:#0000ff;stroke:#0000ff;" x="466.708129" xlink:href="#m01acd3feb7" y="273.474329"/>
     <use style="fill:#0000ff;stroke:#0000ff;" x="448.833268" xlink:href="#m01acd3feb7" y="271.262797"/>
     <use style="fill:#0000ff;stroke:#0000ff;" x="431.851136" xlink:href="#m01acd3feb7" y="269.309953"/>
     <use style="fill:#0000ff;stroke:#0000ff;" x="415.700864" xlink:href="#m01acd3feb7" y="267.595508"/>
     <use style="fill:#0000ff;stroke:#0000ff;" x="400.33173" xlink:href="#m01acd3feb7" y="266.104246"/>
     <use style="fill:#0000ff;stroke:#0000ff;" x="385.69301" xlink:href="#m01acd3feb7" y="264.805731"/>
     <use style="fill:#0000ff;stroke:#0000ff;" x="371.739054" xlink:href="#m01acd3feb7" y="263.689821"/>
     <use style="fill:#0000ff;stroke:#0000ff;" x="358.434354" xlink:href="#m01acd3feb7" y="262.741297"/>
     <use style="fill:#0000ff;stroke:#0000ff;" x="345.733261" xlink:href="#m01acd3feb7" y="261.950014"/>
     <use style="fill:#0000ff;stroke:#0000ff;" x="333.605341" xlink:href="#m01acd3feb7" y="261.300757"/>
     <use style="fill:#0000ff;stroke:#0000ff;" x="322.015086" xlink:href="#m01acd3feb7" y="260.788453"/>
     <use style="fill:#0000ff;stroke:#0000ff;" x="310.876268" xlink:href="#m01acd3feb7" y="260.397884"/>
     <use style="fill:#0000ff;stroke:#0000ff;" x="300.183814" xlink:href="#m01acd3feb7" y="260.159485"/>
     <use style="fill:#0000ff;stroke:#0000ff;" x="289.94787" xlink:href="#m01acd3feb7" y="260.047894"/>
     <use style="fill:#0000ff;stroke:#0000ff;" x="280.143072" xlink:href="#m01acd3feb7" y="260.063111"/>
     <use style="fill:#0000ff;stroke:#0000ff;" x="270.74406" xlink:href="#m01acd3feb7" y="260.189919"/>
     <use style="fill:#0000ff;stroke:#0000ff;" x="261.730545" xlink:href="#m01acd3feb7" y="260.418173"/>
     <use style="fill:#0000ff;stroke:#0000ff;" x="253.082237" xlink:href="#m01acd3feb7" y="260.747874"/>
     <use style="fill:#0000ff;stroke:#0000ff;" x="244.783919" xlink:href="#m01acd3feb7" y="261.163805"/>
     <use style="fill:#0000ff;stroke:#0000ff;" x="236.815302" xlink:href="#m01acd3feb7" y="261.665964"/>
     <use style="fill:#0000ff;stroke:#0000ff;" x="229.161169" xlink:href="#m01acd3feb7" y="262.244209"/>
     <use style="fill:#0000ff;stroke:#0000ff;" x="221.806303" xlink:href="#m01acd3feb7" y="262.893466"/>
     <use style="fill:#0000ff;stroke:#0000ff;" x="214.735487" xlink:href="#m01acd3feb7" y="263.613736"/>
     <use style="fill:#0000ff;stroke:#0000ff;" x="207.933504" xlink:href="#m01acd3feb7" y="264.394873"/>
     <use style="fill:#0000ff;stroke:#0000ff;" x="201.390209" xlink:href="#m01acd3feb7" y="265.236879"/>
     <use style="fill:#0000ff;stroke:#0000ff;" x="195.095458" xlink:href="#m01acd3feb7" y="266.139752"/>
     <use style="fill:#0000ff;stroke:#0000ff;" x="189.028961" xlink:href="#m01acd3feb7" y="267.098421"/>
     <use style="fill:#0000ff;stroke:#0000ff;" x="183.190719" xlink:href="#m01acd3feb7" y="268.112885"/>
     <use style="fill:#0000ff;stroke:#0000ff;" x="177.565515" xlink:href="#m01acd3feb7" y="269.178073"/>
     <use style="fill:#0000ff;stroke:#0000ff;" x="172.148275" xlink:href="#m01acd3feb7" y="270.299056"/>
     <use style="fill:#0000ff;stroke:#0000ff;" x="166.923784" xlink:href="#m01acd3feb7" y="271.470762"/>
     <use style="fill:#0000ff;stroke:#0000ff;" x="161.886969" xlink:href="#m01acd3feb7" y="272.698264"/>
     <use style="fill:#0000ff;stroke:#0000ff;" x="157.032757" xlink:href="#m01acd3feb7" y="273.986633"/>
     <use style="fill:#0000ff;stroke:#0000ff;" x="152.351005" xlink:href="#m01acd3feb7" y="275.335871"/>
     <use style="fill:#0000ff;stroke:#0000ff;" x="147.831566" xlink:href="#m01acd3feb7" y="276.756121"/>
     <use style="fill:#0000ff;stroke:#0000ff;" x="143.479514" xlink:href="#m01acd3feb7" y="278.247383"/>
     <use style="fill:#0000ff;stroke:#0000ff;" x="139.279632" xlink:href="#m01acd3feb7" y="279.829948"/>
     <use style="fill:#0000ff;stroke:#0000ff;" x="135.236992" xlink:href="#m01acd3feb7" y="281.519031"/>
     <use style="fill:#0000ff;stroke:#0000ff;" x="131.336377" xlink:href="#m01acd3feb7" y="283.339994"/>
     <use style="fill:#0000ff;stroke:#0000ff;" x="127.587931" xlink:href="#m01acd3feb7" y="285.333416"/>
     <use style="fill:#0000ff;stroke:#0000ff;" x="123.991655" xlink:href="#m01acd3feb7" y="287.575383"/>
     <use style="fill:#0000ff;stroke:#0000ff;" x="120.557694" xlink:href="#m01acd3feb7" y="290.228207"/>
     <use style="fill:#0000ff;stroke:#0000ff;" x="117.326625" xlink:href="#m01acd3feb7" y="293.75347"/>
     <use style="fill:#0000ff;stroke:#0000ff;" x="115.855652" xlink:href="#m01acd3feb7" y="296.512813"/>
     <use style="fill:#0000ff;stroke:#0000ff;" x="115.363636" xlink:href="#m01acd3feb7" y="300.22068"/>
     <use style="fill:#0000ff;stroke:#0000ff;" x="116.575921" xlink:href="#m01acd3feb7" y="303.756088"/>
     <use style="fill:#0000ff;stroke:#0000ff;" x="118.554127" xlink:href="#m01acd3feb7" y="306.175585"/>
     <use style="fill:#0000ff;stroke:#0000ff;" x="122.378657" xlink:href="#m01acd3feb7" y="309.011013"/>
     <use style="fill:#0000ff;stroke:#0000ff;" x="126.218404" xlink:href="#m01acd3feb7" y="310.963857"/>
     <use style="fill:#0000ff;stroke:#0000ff;" x="130.124092" xlink:href="#m01acd3feb7" y="312.50077"/>
     <use style="fill:#0000ff;stroke:#0000ff;" x="134.121081" xlink:href="#m01acd3feb7" y="313.778995"/>
     <use style="fill:#0000ff;stroke:#0000ff;" x="138.219517" xlink:href="#m01acd3feb7" y="314.874617"/>
     <use style="fill:#0000ff;stroke:#0000ff;" x="142.429544" xlink:href="#m01acd3feb7" y="315.833286"/>
     <use style="fill:#0000ff;stroke:#0000ff;" x="146.756234" xlink:href="#m01acd3feb7" y="316.680363"/>
     <use style="fill:#0000ff;stroke:#0000ff;" x="151.214805" xlink:href="#m01acd3feb7" y="317.431067"/>
     <use style="fill:#0000ff;stroke:#0000ff;" x="155.810328" xlink:href="#m01acd3feb7" y="318.100613"/>
     <use style="fill:#0000ff;stroke:#0000ff;" x="160.542804" xlink:href="#m01acd3feb7" y="318.699147"/>
     <use style="fill:#0000ff;stroke:#0000ff;" x="165.432522" xlink:href="#m01acd3feb7" y="319.231741"/>
     <use style="fill:#0000ff;stroke:#0000ff;" x="170.479482" xlink:href="#m01acd3feb7" y="319.703467"/>
     <use style="fill:#0000ff;stroke:#0000ff;" x="175.688756" xlink:href="#m01acd3feb7" y="320.12447"/>
     <use style="fill:#0000ff;stroke:#0000ff;" x="181.080634" xlink:href="#m01acd3feb7" y="320.489677"/>
     <use style="fill:#0000ff;stroke:#0000ff;" x="186.655115" xlink:href="#m01acd3feb7" y="320.804161"/>
     <use style="fill:#0000ff;stroke:#0000ff;" x="192.422344" xlink:href="#m01acd3feb7" y="321.067921"/>
     <use style="fill:#0000ff;stroke:#0000ff;" x="198.397539" xlink:href="#m01acd3feb7" y="321.286031"/>
     <use style="fill:#0000ff;stroke:#0000ff;" x="204.585771" xlink:href="#m01acd3feb7" y="321.463562"/>
     <use style="fill:#0000ff;stroke:#0000ff;" x="211.002258" xlink:href="#m01acd3feb7" y="321.59037"/>
     <use style="fill:#0000ff;stroke:#0000ff;" x="217.657144" xlink:href="#m01acd3feb7" y="321.671528"/>
     <use style="fill:#0000ff;stroke:#0000ff;" x="224.560573" xlink:href="#m01acd3feb7" y="321.712106"/>
     <use style="fill:#0000ff;stroke:#0000ff;" x="231.737908" xlink:href="#m01acd3feb7" y="321.707034"/>
     <use style="fill:#0000ff;stroke:#0000ff;" x="239.189149" xlink:href="#m01acd3feb7" y="321.661383"/>
     <use style="fill:#0000ff;stroke:#0000ff;" x="246.939656" xlink:href="#m01acd3feb7" y="321.570081"/>
     <use style="fill:#0000ff;stroke:#0000ff;" x="255.004647" xlink:href="#m01acd3feb7" y="321.438201"/>
     <use style="fill:#0000ff;stroke:#0000ff;" x="263.399339" xlink:href="#m01acd3feb7" y="321.26067"/>
     <use style="fill:#0000ff;stroke:#0000ff;" x="272.144021" xlink:href="#m01acd3feb7" y="321.04256"/>
     <use style="fill:#0000ff;stroke:#0000ff;" x="281.264055" xlink:href="#m01acd3feb7" y="320.783871"/>
     <use style="fill:#0000ff;stroke:#0000ff;" x="290.77973" xlink:href="#m01acd3feb7" y="320.489677"/>
     <use style="fill:#0000ff;stroke:#0000ff;" x="300.711336" xlink:href="#m01acd3feb7" y="320.149831"/>
     <use style="fill:#0000ff;stroke:#0000ff;" x="311.089306" xlink:href="#m01acd3feb7" y="319.779552"/>
     <use style="fill:#0000ff;stroke:#0000ff;" x="321.969435" xlink:href="#m01acd3feb7" y="319.368694"/>
     <use style="fill:#0000ff;stroke:#0000ff;" x="333.412592" xlink:href="#m01acd3feb7" y="318.90204"/>
     <use style="fill:#0000ff;stroke:#0000ff;" x="345.398488" xlink:href="#m01acd3feb7" y="318.364374"/>
     <use style="fill:#0000ff;stroke:#0000ff;" x="357.952484" xlink:href="#m01acd3feb7" y="317.755695"/>
     <use style="fill:#0000ff;stroke:#0000ff;" x="371.12023" xlink:href="#m01acd3feb7" y="317.081077"/>
     <use style="fill:#0000ff;stroke:#0000ff;" x="384.937234" xlink:href="#m01acd3feb7" y="316.330373"/>
     <use style="fill:#0000ff;stroke:#0000ff;" x="399.449146" xlink:href="#m01acd3feb7" y="315.508657"/>
     <use style="fill:#0000ff;stroke:#0000ff;" x="414.701617" xlink:href="#m01acd3feb7" y="314.615928"/>
     <use style="fill:#0000ff;stroke:#0000ff;" x="430.755514" xlink:href="#m01acd3feb7" y="313.642043"/>
     <use style="fill:#0000ff;stroke:#0000ff;" x="447.656489" xlink:href="#m01acd3feb7" y="312.592072"/>
     <use style="fill:#0000ff;stroke:#0000ff;" x="465.475555" xlink:href="#m01acd3feb7" y="311.460944"/>
     <use style="fill:#0000ff;stroke:#0000ff;" x="484.283723" xlink:href="#m01acd3feb7" y="310.253732"/>
     <use style="fill:#0000ff;stroke:#0000ff;" x="504.146934" xlink:href="#m01acd3feb7" y="308.96029"/>
     <use style="fill:#0000ff;stroke:#0000ff;" x="525.151417" xlink:href="#m01acd3feb7" y="307.570474"/>
     <use style="fill:#0000ff;stroke:#0000ff;" x="547.388474" xlink:href="#m01acd3feb7" y="306.089356"/>
     <use style="fill:#0000ff;stroke:#0000ff;" x="570.95448" xlink:href="#m01acd3feb7" y="304.486502"/>
     <use style="fill:#0000ff;stroke:#0000ff;" x="595.97117" xlink:href="#m01acd3feb7" y="302.756841"/>
     <use style="fill:#0000ff;stroke:#0000ff;" x="622.555206" xlink:href="#m01acd3feb7" y="300.859793"/>
    </g>
   </g>
   <g id="patch_3">
    <path d="M 90 512.64 
L 90 69.12 
" style="fill:none;stroke:#000000;stroke-linecap:square;stroke-linejoin:miter;stroke-width:0.8;"/>
   </g>
   <g id="patch_4">
    <path d="M 648 512.64 
L 648 69.12 
" style="fill:none;stroke:#000000;stroke-linecap:square;stroke-linejoin:miter;stroke-width:0.8;"/>
   </g>
   <g id="patch_5">
    <path d="M 90 512.64 
L 648 512.64 
" style="fill:none;stroke:#000000;stroke-linecap:square;stroke-linejoin:miter;stroke-width:0.8;"/>
   </g>
   <g id="patch_6">
    <path d="M 90 69.12 
L 648 69.12 
" style="fill:none;stroke:#000000;stroke-linecap:square;stroke-linejoin:miter;stroke-width:0.8;"/>
   </g>
   <g id="legend_1">
    <g id="patch_7">
     <path d="M 564.09375 507.64 
L 641 507.64 
Q 643 507.64 643 505.64 
L 643 491.961875 
Q 643 489.961875 641 489.961875 
L 564.09375 489.961875 
Q 562.09375 489.961875 562.09375 491.961875 
L 562.09375 505.64 
Q 562.09375 507.64 564.09375 507.64 
z
" style="fill:#ffffff;opacity:0.8;stroke:#cccccc;stroke-linejoin:miter;"/>
    </g>
    <g id="line2d_17">
     <path d="M 566.09375 498.060313 
L 586.09375 498.060313 
" style="fill:none;stroke:#0000ff;stroke-dasharray:5.55,2.4;stroke-dashoffset:0;stroke-width:1.5;"/>
    </g>
    <g id="line2d_18">
     <g>
      <use style="fill:#0000ff;stroke:#0000ff;" x="576.09375" xlink:href="#m01acd3feb7" y="498.060313"/>
     </g>
    </g>
    <g id="text_16">
     <!-- RawData -->
     <g transform="translate(594.09375 501.560313)scale(0.1 -0.1)">
      <defs>
       <path d="M 44.390625 34.1875 
Q 47.5625 33.109375 50.5625 29.59375 
Q 53.5625 26.078125 56.59375 19.921875 
L 66.609375 0 
L 56 0 
L 46.6875 18.703125 
Q 43.0625 26.03125 39.671875 28.421875 
Q 36.28125 30.8125 30.421875 30.8125 
L 19.671875 30.8125 
L 19.671875 0 
L 9.8125 0 
L 9.8125 72.90625 
L 32.078125 72.90625 
Q 44.578125 72.90625 50.734375 67.671875 
Q 56.890625 62.453125 56.890625 51.90625 
Q 56.890625 45.015625 53.6875 40.46875 
Q 50.484375 35.9375 44.390625 34.1875 
z
M 19.671875 64.796875 
L 19.671875 38.921875 
L 32.078125 38.921875 
Q 39.203125 38.921875 42.84375 42.21875 
Q 46.484375 45.515625 46.484375 51.90625 
Q 46.484375 58.296875 42.84375 61.546875 
Q 39.203125 64.796875 32.078125 64.796875 
z
" id="DejaVuSans-82"/>
       <path d="M 34.28125 27.484375 
Q 23.390625 27.484375 19.1875 25 
Q 14.984375 22.515625 14.984375 16.5 
Q 14.984375 11.71875 18.140625 8.90625 
Q 21.296875 6.109375 26.703125 6.109375 
Q 34.1875 6.109375 38.703125 11.40625 
Q 43.21875 16.703125 43.21875 25.484375 
L 43.21875 27.484375 
z
M 52.203125 31.203125 
L 52.203125 0 
L 43.21875 0 
L 43.21875 8.296875 
Q 40.140625 3.328125 35.546875 0.953125 
Q 30.953125 -1.421875 24.3125 -1.421875 
Q 15.921875 -1.421875 10.953125 3.296875 
Q 6 8.015625 6 15.921875 
Q 6 25.140625 12.171875 29.828125 
Q 18.359375 34.515625 30.609375 34.515625 
L 43.21875 34.515625 
L 43.21875 35.40625 
Q 43.21875 41.609375 39.140625 45 
Q 35.0625 48.390625 27.6875 48.390625 
Q 23 48.390625 18.546875 47.265625 
Q 14.109375 46.140625 10.015625 43.890625 
L 10.015625 52.203125 
Q 14.9375 54.109375 19.578125 55.046875 
Q 24.21875 56 28.609375 56 
Q 40.484375 56 46.34375 49.84375 
Q 52.203125 43.703125 52.203125 31.203125 
z
" id="DejaVuSans-97"/>
       <path d="M 4.203125 54.6875 
L 13.1875 54.6875 
L 24.421875 12.015625 
L 35.59375 54.6875 
L 46.1875 54.6875 
L 57.421875 12.015625 
L 68.609375 54.6875 
L 77.59375 54.6875 
L 63.28125 0 
L 52.6875 0 
L 40.921875 44.828125 
L 29.109375 0 
L 18.5 0 
z
" id="DejaVuSans-119"/>
       <path d="M 19.671875 64.796875 
L 19.671875 8.109375 
L 31.59375 8.109375 
Q 46.6875 8.109375 53.6875 14.9375 
Q 60.6875 21.78125 60.6875 36.53125 
Q 60.6875 51.171875 53.6875 57.984375 
Q 46.6875 64.796875 31.59375 64.796875 
z
M 9.8125 72.90625 
L 30.078125 72.90625 
Q 51.265625 72.90625 61.171875 64.09375 
Q 71.09375 55.28125 71.09375 36.53125 
Q 71.09375 17.671875 61.125 8.828125 
Q 51.171875 0 30.078125 0 
L 9.8125 0 
z
" id="DejaVuSans-68"/>
       <path d="M 18.3125 70.21875 
L 18.3125 54.6875 
L 36.8125 54.6875 
L 36.8125 47.703125 
L 18.3125 47.703125 
L 18.3125 18.015625 
Q 18.3125 11.328125 20.140625 9.421875 
Q 21.96875 7.515625 27.59375 7.515625 
L 36.8125 7.515625 
L 36.8125 0 
L 27.59375 0 
Q 17.1875 0 13.234375 3.875 
Q 9.28125 7.765625 9.28125 18.015625 
L 9.28125 47.703125 
L 2.6875 47.703125 
L 2.6875 54.6875 
L 9.28125 54.6875 
L 9.28125 70.21875 
z
" id="DejaVuSans-116"/>
      </defs>
      <use xlink:href="#DejaVuSans-82"/>
      <use x="67.232422" xlink:href="#DejaVuSans-97"/>
      <use x="128.511719" xlink:href="#DejaVuSans-119"/>
      <use x="210.298828" xlink:href="#DejaVuSans-68"/>
      <use x="287.300781" xlink:href="#DejaVuSans-97"/>
      <use x="348.580078" xlink:href="#DejaVuSans-116"/>
      <use x="387.789062" xlink:href="#DejaVuSans-97"/>
     </g>
    </g>
   </g>
  </g>
  <g id="axes_2">
   <g id="matplotlib.axis_3">
    <g id="ytick_10">
     <g id="line2d_19">
      <path clip-path="url(#pd9f80863a6)" d="M 90 512.64 
L 648 512.64 
" style="fill:none;stroke:#b0b0b0;stroke-linecap:square;stroke-width:0.8;"/>
     </g>
     <g id="line2d_20">
      <defs>
       <path d="M 0 0 
L 3.5 0 
" id="m17dcf52a60" style="stroke:#000000;stroke-width:0.8;"/>
      </defs>
      <g>
       <use style="stroke:#000000;stroke-width:0.8;" x="648" xlink:href="#m17dcf52a60" y="512.64"/>
      </g>
     </g>
     <g id="text_17">
      <!-- −1.00 -->
      <g transform="translate(655 516.439219)scale(0.1 -0.1)">
       <use xlink:href="#DejaVuSans-8722"/>
       <use x="83.789062" xlink:href="#DejaVuSans-49"/>
       <use x="147.412109" xlink:href="#DejaVuSans-46"/>
       <use x="179.199219" xlink:href="#DejaVuSans-48"/>
       <use x="242.822266" xlink:href="#DejaVuSans-48"/>
      </g>
     </g>
    </g>
    <g id="ytick_11">
     <g id="line2d_21">
      <path clip-path="url(#pd9f80863a6)" d="M 90 457.2 
L 648 457.2 
" style="fill:none;stroke:#b0b0b0;stroke-linecap:square;stroke-width:0.8;"/>
     </g>
     <g id="line2d_22">
      <g>
       <use style="stroke:#000000;stroke-width:0.8;" x="648" xlink:href="#m17dcf52a60" y="457.2"/>
      </g>
     </g>
     <g id="text_18">
      <!-- −0.75 -->
      <g transform="translate(655 460.999219)scale(0.1 -0.1)">
       <defs>
        <path d="M 8.203125 72.90625 
L 55.078125 72.90625 
L 55.078125 68.703125 
L 28.609375 0 
L 18.3125 0 
L 43.21875 64.59375 
L 8.203125 64.59375 
z
" id="DejaVuSans-55"/>
        <path d="M 10.796875 72.90625 
L 49.515625 72.90625 
L 49.515625 64.59375 
L 19.828125 64.59375 
L 19.828125 46.734375 
Q 21.96875 47.46875 24.109375 47.828125 
Q 26.265625 48.1875 28.421875 48.1875 
Q 40.625 48.1875 47.75 41.5 
Q 54.890625 34.8125 54.890625 23.390625 
Q 54.890625 11.625 47.5625 5.09375 
Q 40.234375 -1.421875 26.90625 -1.421875 
Q 22.3125 -1.421875 17.546875 -0.640625 
Q 12.796875 0.140625 7.71875 1.703125 
L 7.71875 11.625 
Q 12.109375 9.234375 16.796875 8.0625 
Q 21.484375 6.890625 26.703125 6.890625 
Q 35.15625 6.890625 40.078125 11.328125 
Q 45.015625 15.765625 45.015625 23.390625 
Q 45.015625 31 40.078125 35.4375 
Q 35.15625 39.890625 26.703125 39.890625 
Q 22.75 39.890625 18.8125 39.015625 
Q 14.890625 38.140625 10.796875 36.28125 
z
" id="DejaVuSans-53"/>
       </defs>
       <use xlink:href="#DejaVuSans-8722"/>
       <use x="83.789062" xlink:href="#DejaVuSans-48"/>
       <use x="147.412109" xlink:href="#DejaVuSans-46"/>
       <use x="179.199219" xlink:href="#DejaVuSans-55"/>
       <use x="242.822266" xlink:href="#DejaVuSans-53"/>
      </g>
     </g>
    </g>
    <g id="ytick_12">
     <g id="line2d_23">
      <path clip-path="url(#pd9f80863a6)" d="M 90 401.76 
L 648 401.76 
" style="fill:none;stroke:#b0b0b0;stroke-linecap:square;stroke-width:0.8;"/>
     </g>
     <g id="line2d_24">
      <g>
       <use style="stroke:#000000;stroke-width:0.8;" x="648" xlink:href="#m17dcf52a60" y="401.76"/>
      </g>
     </g>
     <g id="text_19">
      <!-- −0.50 -->
      <g transform="translate(655 405.559219)scale(0.1 -0.1)">
       <use xlink:href="#DejaVuSans-8722"/>
       <use x="83.789062" xlink:href="#DejaVuSans-48"/>
       <use x="147.412109" xlink:href="#DejaVuSans-46"/>
       <use x="179.199219" xlink:href="#DejaVuSans-53"/>
       <use x="242.822266" xlink:href="#DejaVuSans-48"/>
      </g>
     </g>
    </g>
    <g id="ytick_13">
     <g id="line2d_25">
      <path clip-path="url(#pd9f80863a6)" d="M 90 346.32 
L 648 346.32 
" style="fill:none;stroke:#b0b0b0;stroke-linecap:square;stroke-width:0.8;"/>
     </g>
     <g id="line2d_26">
      <g>
       <use style="stroke:#000000;stroke-width:0.8;" x="648" xlink:href="#m17dcf52a60" y="346.32"/>
      </g>
     </g>
     <g id="text_20">
      <!-- −0.25 -->
      <g transform="translate(655 350.119219)scale(0.1 -0.1)">
       <use xlink:href="#DejaVuSans-8722"/>
       <use x="83.789062" xlink:href="#DejaVuSans-48"/>
       <use x="147.412109" xlink:href="#DejaVuSans-46"/>
       <use x="179.199219" xlink:href="#DejaVuSans-50"/>
       <use x="242.822266" xlink:href="#DejaVuSans-53"/>
      </g>
     </g>
    </g>
    <g id="ytick_14">
     <g id="line2d_27">
      <path clip-path="url(#pd9f80863a6)" d="M 90 290.88 
L 648 290.88 
" style="fill:none;stroke:#b0b0b0;stroke-linecap:square;stroke-width:0.8;"/>
     </g>
     <g id="line2d_28">
      <g>
       <use style="stroke:#000000;stroke-width:0.8;" x="648" xlink:href="#m17dcf52a60" y="290.88"/>
      </g>
     </g>
     <g id="text_21">
      <!-- 0.00 -->
      <g transform="translate(655 294.679219)scale(0.1 -0.1)">
       <use xlink:href="#DejaVuSans-48"/>
       <use x="63.623047" xlink:href="#DejaVuSans-46"/>
       <use x="95.410156" xlink:href="#DejaVuSans-48"/>
       <use x="159.033203" xlink:href="#DejaVuSans-48"/>
      </g>
     </g>
    </g>
    <g id="ytick_15">
     <g id="line2d_29">
      <path clip-path="url(#pd9f80863a6)" d="M 90 235.44 
L 648 235.44 
" style="fill:none;stroke:#b0b0b0;stroke-linecap:square;stroke-width:0.8;"/>
     </g>
     <g id="line2d_30">
      <g>
       <use style="stroke:#000000;stroke-width:0.8;" x="648" xlink:href="#m17dcf52a60" y="235.44"/>
      </g>
     </g>
     <g id="text_22">
      <!-- 0.25 -->
      <g transform="translate(655 239.239219)scale(0.1 -0.1)">
       <use xlink:href="#DejaVuSans-48"/>
       <use x="63.623047" xlink:href="#DejaVuSans-46"/>
       <use x="95.410156" xlink:href="#DejaVuSans-50"/>
       <use x="159.033203" xlink:href="#DejaVuSans-53"/>
      </g>
     </g>
    </g>
    <g id="ytick_16">
     <g id="line2d_31">
      <path clip-path="url(#pd9f80863a6)" d="M 90 180 
L 648 180 
" style="fill:none;stroke:#b0b0b0;stroke-linecap:square;stroke-width:0.8;"/>
     </g>
     <g id="line2d_32">
      <g>
       <use style="stroke:#000000;stroke-width:0.8;" x="648" xlink:href="#m17dcf52a60" y="180"/>
      </g>
     </g>
     <g id="text_23">
      <!-- 0.50 -->
      <g transform="translate(655 183.799219)scale(0.1 -0.1)">
       <use xlink:href="#DejaVuSans-48"/>
       <use x="63.623047" xlink:href="#DejaVuSans-46"/>
       <use x="95.410156" xlink:href="#DejaVuSans-53"/>
       <use x="159.033203" xlink:href="#DejaVuSans-48"/>
      </g>
     </g>
    </g>
    <g id="ytick_17">
     <g id="line2d_33">
      <path clip-path="url(#pd9f80863a6)" d="M 90 124.56 
L 648 124.56 
" style="fill:none;stroke:#b0b0b0;stroke-linecap:square;stroke-width:0.8;"/>
     </g>
     <g id="line2d_34">
      <g>
       <use style="stroke:#000000;stroke-width:0.8;" x="648" xlink:href="#m17dcf52a60" y="124.56"/>
      </g>
     </g>
     <g id="text_24">
      <!-- 0.75 -->
      <g transform="translate(655 128.359219)scale(0.1 -0.1)">
       <use xlink:href="#DejaVuSans-48"/>
       <use x="63.623047" xlink:href="#DejaVuSans-46"/>
       <use x="95.410156" xlink:href="#DejaVuSans-55"/>
       <use x="159.033203" xlink:href="#DejaVuSans-53"/>
      </g>
     </g>
    </g>
    <g id="ytick_18">
     <g id="line2d_35">
      <path clip-path="url(#pd9f80863a6)" d="M 90 69.12 
L 648 69.12 
" style="fill:none;stroke:#b0b0b0;stroke-linecap:square;stroke-width:0.8;"/>
     </g>
     <g id="line2d_36">
      <g>
       <use style="stroke:#000000;stroke-width:0.8;" x="648" xlink:href="#m17dcf52a60" y="69.12"/>
      </g>
     </g>
     <g id="text_25">
      <!-- 1.00 -->
      <g transform="translate(655 72.919219)scale(0.1 -0.1)">
       <use xlink:href="#DejaVuSans-49"/>
       <use x="63.623047" xlink:href="#DejaVuSans-46"/>
       <use x="95.410156" xlink:href="#DejaVuSans-48"/>
       <use x="159.033203" xlink:href="#DejaVuSans-48"/>
      </g>
     </g>
    </g>
   </g>
   <g id="line2d_37">
    <path clip-path="url(#pd9f80863a6)" d="M 622.636364 335.481458 
L 622.636364 332.400246 
L 596.483474 332.400246 
L 596.483474 329.597707 
L 571.776196 329.597707 
L 571.776196 327.059752 
L 548.418156 327.059752 
L 548.418156 324.724186 
L 526.312979 324.724186 
L 526.312979 322.568098 
L 505.374435 322.568098 
L 505.374435 320.400194 
L 485.531514 320.400194 
L 485.531514 318.316822 
L 466.708129 318.316822 
L 466.708129 316.381075 
L 448.833268 316.381075 
L 448.833268 314.421106 
L 431.851136 314.421106 
L 431.851136 312.397307 
L 415.700864 312.397307 
L 415.700864 310.551019 
L 400.33173 310.551019 
L 400.33173 308.614351 
L 385.69301 308.614351 
L 385.69301 306.689806 
L 371.739054 306.689806 
L 371.739054 304.695719 
L 358.434354 304.695719 
L 358.434354 302.751719 
L 345.733261 302.751719 
L 345.733261 300.682083 
L 333.605341 300.682083 
L 333.605341 298.655738 
L 322.015086 298.655738 
L 322.015086 295.824364 
L 310.876268 295.824364 
L 310.876268 293.297602 
L 300.183814 293.297602 
L 300.183814 290.53583 
L 289.94787 290.53583 
L 289.94787 287.888095 
L 280.143072 287.888095 
L 280.143072 285.264243 
L 270.74406 285.264243 
L 270.74406 282.425806 
L 261.730545 282.425806 
L 261.730545 279.76489 
L 253.082237 279.76489 
L 253.082237 276.905309 
L 244.783919 276.905309 
L 244.783919 274.126759 
L 236.815302 274.126759 
L 236.815302 271.303945 
L 229.161169 271.303945 
L 229.161169 268.290387 
L 221.806303 268.290387 
L 221.806303 265.413154 
L 214.735487 265.413154 
L 214.735487 262.343442 
L 207.933504 262.343442 
L 207.933504 259.072361 
L 201.390209 259.072361 
L 201.390209 255.835987 
L 195.095458 255.835987 
L 195.095458 252.346551 
L 189.028961 252.346551 
L 189.028961 248.887574 
L 183.190719 248.887574 
L 183.190719 244.991461 
L 177.565515 244.991461 
L 177.565515 241.145476 
L 172.148275 241.145476 
L 172.148275 236.83577 
L 166.923784 236.83577 
L 166.923784 232.022069 
L 161.886969 232.022069 
L 161.886969 226.970834 
L 157.032757 226.970834 
L 157.032757 221.191111 
L 152.351005 221.191111 
L 152.351005 214.892308 
L 147.831566 214.892308 
L 147.831566 207.318261 
L 143.479514 207.318261 
L 143.479514 198.224944 
L 139.279632 198.224944 
L 139.279632 187.35355 
L 135.236992 187.35355 
L 135.236992 172.948092 
L 131.336377 172.948092 
L 131.336377 152.631876 
L 127.587931 152.631876 
L 127.587931 119.564668 
L 123.991655 119.564668 
L 123.991655 48.928352 
L 120.557694 48.928352 
L 120.557694 -1 
M 115.855652 -1 
L 115.855652 577 
M 115.363636 577 
L 115.363636 562.109538 
L 116.575921 562.109538 
L 116.575921 455.288276 
L 118.554127 455.288276 
L 118.554127 403.664148 
L 122.378657 403.664148 
L 122.378657 378.144 
L 126.218404 378.144 
L 126.218404 361.798173 
L 130.124092 361.798173 
L 130.124092 350.162376 
L 134.121081 350.162376 
L 134.121081 341.377157 
L 138.219517 341.377157 
L 138.219517 334.296084 
L 142.429544 334.296084 
L 142.429544 328.21843 
L 146.756234 328.21843 
L 146.756234 323.189404 
L 151.214805 323.189404 
L 151.214805 318.926817 
L 155.810328 318.926817 
L 155.810328 315.034357 
L 160.542804 315.034357 
L 160.542804 311.607317 
L 165.432522 311.607317 
L 165.432522 308.802181 
L 170.479482 308.802181 
L 170.479482 305.900433 
L 175.688756 305.900433 
L 175.688756 303.390573 
L 181.080634 303.390573 
L 181.080634 301.022058 
L 186.655115 301.022058 
L 186.655115 298.974805 
L 192.422344 298.974805 
L 192.422344 297.241967 
L 198.397539 297.241967 
L 198.397539 295.262609 
L 204.585771 295.262609 
L 204.585771 293.58439 
L 211.002258 293.58439 
L 211.002258 292.183512 
L 217.657144 292.183512 
L 217.657144 290.723279 
L 224.560573 290.723279 
L 224.560573 289.521361 
L 231.737908 289.521361 
L 231.737908 288.267644 
L 239.189149 288.267644 
L 239.189149 287.253736 
L 246.939656 287.253736 
L 246.939656 286.190211 
L 255.004647 286.190211 
L 255.004647 285.348863 
L 263.399339 285.348863 
L 263.399339 284.589811 
L 272.144021 284.589811 
L 272.144021 284.023881 
L 281.264055 284.023881 
L 281.264055 283.291685 
L 290.77973 283.291685 
L 290.77973 282.967742 
L 300.711336 282.967742 
L 300.711336 282.505846 
L 311.089306 282.505846 
L 311.089306 281.836596 
L 321.969435 281.836596 
L 321.969435 280.932239 
L 333.412592 280.932239 
L 333.412592 280.128 
L 345.398488 280.128 
L 345.398488 279.518644 
L 357.952484 279.518644 
L 357.952484 278.831366 
L 371.12023 278.831366 
L 371.12023 278.32316 
L 384.937234 278.32316 
L 384.937234 277.900366 
L 399.449146 277.900366 
L 399.449146 277.427261 
L 414.701617 277.427261 
L 414.701617 277.103193 
L 430.755514 277.103193 
L 430.755514 276.803006 
L 447.656489 276.803006 
L 447.656489 276.646214 
L 465.475555 276.646214 
L 465.475555 276.439551 
L 484.283723 276.439551 
L 484.283723 276.206675 
L 525.151417 276.109489 
L 525.151417 275.796883 
L 547.388474 275.796883 
L 547.388474 275.547445 
L 570.95448 275.547445 
L 570.95448 275.055112 
L 622.555206 275.055112 
L 622.555206 275.055112 
" style="fill:none;stroke:#ff0000;stroke-linecap:square;stroke-width:1.5;"/>
   </g>
   <g id="line2d_38">
    <path clip-path="url(#pd9f80863a6)" d="M 622.636364 335.481458 
L 622.636364 332.400246 
L 596.483474 332.400246 
L 596.483474 329.597707 
L 571.776196 329.597707 
L 571.776196 327.059752 
L 548.418156 327.059752 
L 548.418156 324.724186 
L 526.312979 324.724186 
L 526.312979 322.568098 
L 505.374435 322.568098 
L 505.374435 320.400194 
L 485.531514 320.400194 
L 485.531514 318.316822 
L 466.708129 318.316822 
L 466.708129 316.381075 
L 448.833268 316.381075 
L 448.833268 314.421106 
L 431.851136 314.421106 
L 431.851136 312.397307 
L 415.700864 312.397307 
L 415.700864 310.551019 
L 400.33173 310.551019 
L 400.33173 308.614351 
L 385.69301 308.614351 
L 385.69301 306.689806 
L 371.739054 306.689806 
L 371.739054 304.695719 
L 358.434354 304.695719 
L 358.434354 302.751719 
L 345.733261 302.751719 
L 345.733261 300.682083 
L 333.605341 300.682083 
L 333.605341 298.655738 
L 322.015086 298.655738 
L 322.015086 295.824364 
L 310.876268 295.824364 
L 310.876268 293.297602 
L 300.183814 293.297602 
L 300.183814 290.53583 
L 289.94787 290.53583 
L 289.94787 287.888095 
L 280.143072 287.888095 
L 280.143072 285.264243 
L 270.74406 285.264243 
L 270.74406 282.425806 
L 261.730545 282.425806 
L 261.730545 279.76489 
L 253.082237 279.76489 
L 253.082237 276.905309 
L 244.783919 276.905309 
L 244.783919 274.126759 
L 236.815302 274.126759 
L 236.815302 271.303945 
L 229.161169 271.303945 
L 229.161169 268.290387 
L 221.806303 268.290387 
L 221.806303 265.413154 
L 214.735487 265.413154 
L 214.735487 262.343442 
L 207.933504 262.343442 
L 207.933504 259.072361 
L 201.390209 259.072361 
L 201.390209 255.835987 
L 195.095458 255.835987 
L 195.095458 252.346551 
L 189.028961 252.346551 
L 189.028961 248.887574 
L 183.190719 248.887574 
L 183.190719 244.991461 
L 177.565515 244.991461 
L 177.565515 241.145476 
L 172.148275 241.145476 
L 172.148275 236.83577 
L 166.923784 236.83577 
L 166.923784 232.022069 
L 161.886969 232.022069 
L 161.886969 226.970834 
L 157.032757 226.970834 
L 157.032757 221.191111 
L 152.351005 221.191111 
L 152.351005 214.892308 
L 147.831566 214.892308 
L 147.831566 207.318261 
L 143.479514 207.318261 
L 143.479514 198.224944 
L 139.279632 198.224944 
L 139.279632 187.35355 
L 135.236992 187.35355 
L 135.236992 172.948092 
L 131.336377 172.948092 
L 131.336377 152.631876 
L 127.587931 152.631876 
L 127.587931 119.564668 
L 123.991655 119.564668 
L 123.991655 48.928352 
L 120.557694 48.928352 
L 120.557694 -1 
M 115.855652 -1 
L 115.855652 577 
M 115.363636 577 
L 115.363636 562.109538 
L 116.575921 562.109538 
L 116.575921 455.288276 
L 118.554127 455.288276 
L 118.554127 403.664148 
L 122.378657 403.664148 
L 122.378657 378.144 
L 126.218404 378.144 
L 126.218404 361.798173 
L 130.124092 361.798173 
L 130.124092 350.162376 
L 134.121081 350.162376 
L 134.121081 341.377157 
L 138.219517 341.377157 
L 138.219517 334.296084 
L 142.429544 334.296084 
L 142.429544 328.21843 
L 146.756234 328.21843 
L 146.756234 323.189404 
L 151.214805 323.189404 
L 151.214805 318.926817 
L 155.810328 318.926817 
L 155.810328 315.034357 
L 160.542804 315.034357 
L 160.542804 311.607317 
L 165.432522 311.607317 
L 165.432522 308.802181 
L 170.479482 308.802181 
L 170.479482 305.900433 
L 175.688756 305.900433 
L 175.688756 303.390573 
L 181.080634 303.390573 
L 181.080634 301.022058 
L 186.655115 301.022058 
L 186.655115 298.974805 
L 192.422344 298.974805 
L 192.422344 297.241967 
L 198.397539 297.241967 
L 198.397539 295.262609 
L 204.585771 295.262609 
L 204.585771 293.58439 
L 211.002258 293.58439 
L 211.002258 292.183512 
L 217.657144 292.183512 
L 217.657144 290.723279 
L 224.560573 290.723279 
L 224.560573 289.521361 
L 231.737908 289.521361 
L 231.737908 288.267644 
L 239.189149 288.267644 
L 239.189149 287.253736 
L 246.939656 287.253736 
L 246.939656 286.190211 
L 255.004647 286.190211 
L 255.004647 285.348863 
L 263.399339 285.348863 
L 263.399339 284.589811 
L 272.144021 284.589811 
L 272.144021 284.023881 
L 281.264055 284.023881 
L 281.264055 283.291685 
L 290.77973 283.291685 
L 290.77973 282.967742 
L 300.711336 282.967742 
L 300.711336 282.505846 
L 311.089306 282.505846 
L 311.089306 281.836596 
L 321.969435 281.836596 
L 321.969435 280.932239 
L 333.412592 280.932239 
L 333.412592 280.128 
L 345.398488 280.128 
L 345.398488 279.518644 
L 357.952484 279.518644 
L 357.952484 278.831366 
L 371.12023 278.831366 
L 371.12023 278.32316 
L 384.937234 278.32316 
L 384.937234 277.900366 
L 399.449146 277.900366 
L 399.449146 277.427261 
L 414.701617 277.427261 
L 414.701617 277.103193 
L 430.755514 277.103193 
L 430.755514 276.803006 
L 447.656489 276.803006 
L 447.656489 276.646214 
L 465.475555 276.646214 
L 465.475555 276.439551 
L 484.283723 276.439551 
L 484.283723 276.206675 
L 525.151417 276.109489 
L 525.151417 275.796883 
L 547.388474 275.796883 
L 547.388474 275.547445 
L 570.95448 275.547445 
L 570.95448 275.055112 
L 622.555206 275.055112 
L 622.555206 275.055112 
" style="fill:none;stroke:#000000;stroke-dasharray:5.55,2.4;stroke-dashoffset:0;stroke-width:1.5;"/>
   </g>
   <g id="patch_8">
    <path d="M 90 512.64 
L 90 69.12 
" style="fill:none;stroke:#000000;stroke-linecap:square;stroke-linejoin:miter;stroke-width:0.8;"/>
   </g>
   <g id="patch_9">
    <path d="M 648 512.64 
L 648 69.12 
" style="fill:none;stroke:#000000;stroke-linecap:square;stroke-linejoin:miter;stroke-width:0.8;"/>
   </g>
   <g id="patch_10">
    <path d="M 90 512.64 
L 648 512.64 
" style="fill:none;stroke:#000000;stroke-linecap:square;stroke-linejoin:miter;stroke-width:0.8;"/>
   </g>
   <g id="patch_11">
    <path d="M 90 69.12 
L 648 69.12 
" style="fill:none;stroke:#000000;stroke-linecap:square;stroke-linejoin:miter;stroke-width:0.8;"/>
   </g>
   <g id="text_26">
    <!-- Example of 3.2.1.1 -->
    <g transform="translate(312.380625 63.12)scale(0.12 -0.12)">
     <defs>
      <path d="M 9.8125 72.90625 
L 55.90625 72.90625 
L 55.90625 64.59375 
L 19.671875 64.59375 
L 19.671875 43.015625 
L 54.390625 43.015625 
L 54.390625 34.71875 
L 19.671875 34.71875 
L 19.671875 8.296875 
L 56.78125 8.296875 
L 56.78125 0 
L 9.8125 0 
z
" id="DejaVuSans-69"/>
      <path d="M 54.890625 54.6875 
L 35.109375 28.078125 
L 55.90625 0 
L 45.3125 0 
L 29.390625 21.484375 
L 13.484375 0 
L 2.875 0 
L 24.125 28.609375 
L 4.6875 54.6875 
L 15.28125 54.6875 
L 29.78125 35.203125 
L 44.28125 54.6875 
z
" id="DejaVuSans-120"/>
      <path d="M 52 44.1875 
Q 55.375 50.25 60.0625 53.125 
Q 64.75 56 71.09375 56 
Q 79.640625 56 84.28125 50.015625 
Q 88.921875 44.046875 88.921875 33.015625 
L 88.921875 0 
L 79.890625 0 
L 79.890625 32.71875 
Q 79.890625 40.578125 77.09375 44.375 
Q 74.3125 48.1875 68.609375 48.1875 
Q 61.625 48.1875 57.5625 43.546875 
Q 53.515625 38.921875 53.515625 30.90625 
L 53.515625 0 
L 44.484375 0 
L 44.484375 32.71875 
Q 44.484375 40.625 41.703125 44.40625 
Q 38.921875 48.1875 33.109375 48.1875 
Q 26.21875 48.1875 22.15625 43.53125 
Q 18.109375 38.875 18.109375 30.90625 
L 18.109375 0 
L 9.078125 0 
L 9.078125 54.6875 
L 18.109375 54.6875 
L 18.109375 46.1875 
Q 21.1875 51.21875 25.484375 53.609375 
Q 29.78125 56 35.6875 56 
Q 41.65625 56 45.828125 52.96875 
Q 50 49.953125 52 44.1875 
z
" id="DejaVuSans-109"/>
      <path d="M 18.109375 8.203125 
L 18.109375 -20.796875 
L 9.078125 -20.796875 
L 9.078125 54.6875 
L 18.109375 54.6875 
L 18.109375 46.390625 
Q 20.953125 51.265625 25.265625 53.625 
Q 29.59375 56 35.59375 56 
Q 45.5625 56 51.78125 48.09375 
Q 58.015625 40.1875 58.015625 27.296875 
Q 58.015625 14.40625 51.78125 6.484375 
Q 45.5625 -1.421875 35.59375 -1.421875 
Q 29.59375 -1.421875 25.265625 0.953125 
Q 20.953125 3.328125 18.109375 8.203125 
z
M 48.6875 27.296875 
Q 48.6875 37.203125 44.609375 42.84375 
Q 40.53125 48.484375 33.40625 48.484375 
Q 26.265625 48.484375 22.1875 42.84375 
Q 18.109375 37.203125 18.109375 27.296875 
Q 18.109375 17.390625 22.1875 11.75 
Q 26.265625 6.109375 33.40625 6.109375 
Q 40.53125 6.109375 44.609375 11.75 
Q 48.6875 17.390625 48.6875 27.296875 
z
" id="DejaVuSans-112"/>
      <path d="M 9.421875 75.984375 
L 18.40625 75.984375 
L 18.40625 0 
L 9.421875 0 
z
" id="DejaVuSans-108"/>
      <path d="M 56.203125 29.59375 
L 56.203125 25.203125 
L 14.890625 25.203125 
Q 15.484375 15.921875 20.484375 11.0625 
Q 25.484375 6.203125 34.421875 6.203125 
Q 39.59375 6.203125 44.453125 7.46875 
Q 49.3125 8.734375 54.109375 11.28125 
L 54.109375 2.78125 
Q 49.265625 0.734375 44.1875 -0.34375 
Q 39.109375 -1.421875 33.890625 -1.421875 
Q 20.796875 -1.421875 13.15625 6.1875 
Q 5.515625 13.8125 5.515625 26.8125 
Q 5.515625 40.234375 12.765625 48.109375 
Q 20.015625 56 32.328125 56 
Q 43.359375 56 49.78125 48.890625 
Q 56.203125 41.796875 56.203125 29.59375 
z
M 47.21875 32.234375 
Q 47.125 39.59375 43.09375 43.984375 
Q 39.0625 48.390625 32.421875 48.390625 
Q 24.90625 48.390625 20.390625 44.140625 
Q 15.875 39.890625 15.1875 32.171875 
z
" id="DejaVuSans-101"/>
      <path id="DejaVuSans-32"/>
      <path d="M 30.609375 48.390625 
Q 23.390625 48.390625 19.1875 42.75 
Q 14.984375 37.109375 14.984375 27.296875 
Q 14.984375 17.484375 19.15625 11.84375 
Q 23.34375 6.203125 30.609375 6.203125 
Q 37.796875 6.203125 41.984375 11.859375 
Q 46.1875 17.53125 46.1875 27.296875 
Q 46.1875 37.015625 41.984375 42.703125 
Q 37.796875 48.390625 30.609375 48.390625 
z
M 30.609375 56 
Q 42.328125 56 49.015625 48.375 
Q 55.71875 40.765625 55.71875 27.296875 
Q 55.71875 13.875 49.015625 6.21875 
Q 42.328125 -1.421875 30.609375 -1.421875 
Q 18.84375 -1.421875 12.171875 6.21875 
Q 5.515625 13.875 5.515625 27.296875 
Q 5.515625 40.765625 12.171875 48.375 
Q 18.84375 56 30.609375 56 
z
" id="DejaVuSans-111"/>
      <path d="M 37.109375 75.984375 
L 37.109375 68.5 
L 28.515625 68.5 
Q 23.6875 68.5 21.796875 66.546875 
Q 19.921875 64.59375 19.921875 59.515625 
L 19.921875 54.6875 
L 34.71875 54.6875 
L 34.71875 47.703125 
L 19.921875 47.703125 
L 19.921875 0 
L 10.890625 0 
L 10.890625 47.703125 
L 2.296875 47.703125 
L 2.296875 54.6875 
L 10.890625 54.6875 
L 10.890625 58.5 
Q 10.890625 67.625 15.140625 71.796875 
Q 19.390625 75.984375 28.609375 75.984375 
z
" id="DejaVuSans-102"/>
     </defs>
     <use xlink:href="#DejaVuSans-69"/>
     <use x="63.183594" xlink:href="#DejaVuSans-120"/>
     <use x="122.363281" xlink:href="#DejaVuSans-97"/>
     <use x="183.642578" xlink:href="#DejaVuSans-109"/>
     <use x="281.054688" xlink:href="#DejaVuSans-112"/>
     <use x="344.53125" xlink:href="#DejaVuSans-108"/>
     <use x="372.314453" xlink:href="#DejaVuSans-101"/>
     <use x="433.837891" xlink:href="#DejaVuSans-32"/>
     <use x="465.625" xlink:href="#DejaVuSans-111"/>
     <use x="526.806641" xlink:href="#DejaVuSans-102"/>
     <use x="562.011719" xlink:href="#DejaVuSans-32"/>
     <use x="593.798828" xlink:href="#DejaVuSans-51"/>
     <use x="657.421875" xlink:href="#DejaVuSans-46"/>
     <use x="689.208984" xlink:href="#DejaVuSans-50"/>
     <use x="752.832031" xlink:href="#DejaVuSans-46"/>
     <use x="784.619141" xlink:href="#DejaVuSans-49"/>
     <use x="848.242188" xlink:href="#DejaVuSans-46"/>
     <use x="880.029297" xlink:href="#DejaVuSans-49"/>
    </g>
   </g>
   <g id="legend_2">
    <g id="patch_12">
     <path d="M 482.785937 106.47625 
L 641 106.47625 
Q 643 106.47625 643 104.47625 
L 643 76.12 
Q 643 74.12 641 74.12 
L 482.785937 74.12 
Q 480.785937 74.12 480.785937 76.12 
L 480.785937 104.47625 
Q 480.785937 106.47625 482.785937 106.47625 
z
" style="fill:#ffffff;opacity:0.8;stroke:#cccccc;stroke-linejoin:miter;"/>
    </g>
    <g id="line2d_39">
     <path d="M 484.785937 82.218438 
L 504.785937 82.218438 
" style="fill:none;stroke:#ff0000;stroke-linecap:square;stroke-width:1.5;"/>
    </g>
    <g id="line2d_40"/>
    <g id="text_27">
     <!-- Numerical Differentiation -->
     <g transform="translate(512.785938 85.718438)scale(0.1 -0.1)">
      <defs>
       <path d="M 9.8125 72.90625 
L 23.09375 72.90625 
L 55.421875 11.921875 
L 55.421875 72.90625 
L 64.984375 72.90625 
L 64.984375 0 
L 51.703125 0 
L 19.390625 60.984375 
L 19.390625 0 
L 9.8125 0 
z
" id="DejaVuSans-78"/>
       <path d="M 8.5 21.578125 
L 8.5 54.6875 
L 17.484375 54.6875 
L 17.484375 21.921875 
Q 17.484375 14.15625 20.5 10.265625 
Q 23.53125 6.390625 29.59375 6.390625 
Q 36.859375 6.390625 41.078125 11.03125 
Q 45.3125 15.671875 45.3125 23.6875 
L 45.3125 54.6875 
L 54.296875 54.6875 
L 54.296875 0 
L 45.3125 0 
L 45.3125 8.40625 
Q 42.046875 3.421875 37.71875 1 
Q 33.40625 -1.421875 27.6875 -1.421875 
Q 18.265625 -1.421875 13.375 4.4375 
Q 8.5 10.296875 8.5 21.578125 
z
M 31.109375 56 
z
" id="DejaVuSans-117"/>
       <path d="M 41.109375 46.296875 
Q 39.59375 47.171875 37.8125 47.578125 
Q 36.03125 48 33.890625 48 
Q 26.265625 48 22.1875 43.046875 
Q 18.109375 38.09375 18.109375 28.8125 
L 18.109375 0 
L 9.078125 0 
L 9.078125 54.6875 
L 18.109375 54.6875 
L 18.109375 46.1875 
Q 20.953125 51.171875 25.484375 53.578125 
Q 30.03125 56 36.53125 56 
Q 37.453125 56 38.578125 55.875 
Q 39.703125 55.765625 41.0625 55.515625 
z
" id="DejaVuSans-114"/>
       <path d="M 9.421875 54.6875 
L 18.40625 54.6875 
L 18.40625 0 
L 9.421875 0 
z
M 9.421875 75.984375 
L 18.40625 75.984375 
L 18.40625 64.59375 
L 9.421875 64.59375 
z
" id="DejaVuSans-105"/>
       <path d="M 48.78125 52.59375 
L 48.78125 44.1875 
Q 44.96875 46.296875 41.140625 47.34375 
Q 37.3125 48.390625 33.40625 48.390625 
Q 24.65625 48.390625 19.8125 42.84375 
Q 14.984375 37.3125 14.984375 27.296875 
Q 14.984375 17.28125 19.8125 11.734375 
Q 24.65625 6.203125 33.40625 6.203125 
Q 37.3125 6.203125 41.140625 7.25 
Q 44.96875 8.296875 48.78125 10.40625 
L 48.78125 2.09375 
Q 45.015625 0.34375 40.984375 -0.53125 
Q 36.96875 -1.421875 32.421875 -1.421875 
Q 20.0625 -1.421875 12.78125 6.34375 
Q 5.515625 14.109375 5.515625 27.296875 
Q 5.515625 40.671875 12.859375 48.328125 
Q 20.21875 56 33.015625 56 
Q 37.15625 56 41.109375 55.140625 
Q 45.0625 54.296875 48.78125 52.59375 
z
" id="DejaVuSans-99"/>
       <path d="M 54.890625 33.015625 
L 54.890625 0 
L 45.90625 0 
L 45.90625 32.71875 
Q 45.90625 40.484375 42.875 44.328125 
Q 39.84375 48.1875 33.796875 48.1875 
Q 26.515625 48.1875 22.3125 43.546875 
Q 18.109375 38.921875 18.109375 30.90625 
L 18.109375 0 
L 9.078125 0 
L 9.078125 54.6875 
L 18.109375 54.6875 
L 18.109375 46.1875 
Q 21.34375 51.125 25.703125 53.5625 
Q 30.078125 56 35.796875 56 
Q 45.21875 56 50.046875 50.171875 
Q 54.890625 44.34375 54.890625 33.015625 
z
" id="DejaVuSans-110"/>
      </defs>
      <use xlink:href="#DejaVuSans-78"/>
      <use x="74.804688" xlink:href="#DejaVuSans-117"/>
      <use x="138.183594" xlink:href="#DejaVuSans-109"/>
      <use x="235.595703" xlink:href="#DejaVuSans-101"/>
      <use x="297.119141" xlink:href="#DejaVuSans-114"/>
      <use x="338.232422" xlink:href="#DejaVuSans-105"/>
      <use x="366.015625" xlink:href="#DejaVuSans-99"/>
      <use x="420.996094" xlink:href="#DejaVuSans-97"/>
      <use x="482.275391" xlink:href="#DejaVuSans-108"/>
      <use x="510.058594" xlink:href="#DejaVuSans-32"/>
      <use x="541.845703" xlink:href="#DejaVuSans-68"/>
      <use x="618.847656" xlink:href="#DejaVuSans-105"/>
      <use x="646.630859" xlink:href="#DejaVuSans-102"/>
      <use x="681.835938" xlink:href="#DejaVuSans-102"/>
      <use x="717.041016" xlink:href="#DejaVuSans-101"/>
      <use x="778.564453" xlink:href="#DejaVuSans-114"/>
      <use x="817.427734" xlink:href="#DejaVuSans-101"/>
      <use x="878.951172" xlink:href="#DejaVuSans-110"/>
      <use x="942.330078" xlink:href="#DejaVuSans-116"/>
      <use x="981.539062" xlink:href="#DejaVuSans-105"/>
      <use x="1009.322266" xlink:href="#DejaVuSans-97"/>
      <use x="1070.601562" xlink:href="#DejaVuSans-116"/>
      <use x="1109.810547" xlink:href="#DejaVuSans-105"/>
      <use x="1137.59375" xlink:href="#DejaVuSans-111"/>
      <use x="1198.775391" xlink:href="#DejaVuSans-110"/>
     </g>
    </g>
    <g id="line2d_41">
     <path d="M 484.785937 96.896563 
L 504.785937 96.896563 
" style="fill:none;stroke:#000000;stroke-dasharray:5.55,2.4;stroke-dashoffset:0;stroke-width:1.5;"/>
    </g>
    <g id="line2d_42"/>
    <g id="text_28">
     <!-- Arctan2 -->
     <g transform="translate(512.785938 100.396563)scale(0.1 -0.1)">
      <defs>
       <path d="M 34.1875 63.1875 
L 20.796875 26.90625 
L 47.609375 26.90625 
z
M 28.609375 72.90625 
L 39.796875 72.90625 
L 67.578125 0 
L 57.328125 0 
L 50.6875 18.703125 
L 17.828125 18.703125 
L 11.1875 0 
L 0.78125 0 
z
" id="DejaVuSans-65"/>
      </defs>
      <use xlink:href="#DejaVuSans-65"/>
      <use x="68.408203" xlink:href="#DejaVuSans-114"/>
      <use x="107.271484" xlink:href="#DejaVuSans-99"/>
      <use x="162.251953" xlink:href="#DejaVuSans-116"/>
      <use x="201.460938" xlink:href="#DejaVuSans-97"/>
      <use x="262.740234" xlink:href="#DejaVuSans-110"/>
      <use x="326.119141" xlink:href="#DejaVuSans-50"/>
     </g>
    </g>
   </g>
  </g>
 </g>
 <defs>
  <clipPath id="pd9f80863a6">
   <rect height="443.52" width="558" x="90" y="69.12"/>
  </clipPath>
 </defs>
</svg>
