<?xml version="1.0" encoding="utf-8" standalone="no"?>
<!DOCTYPE svg PUBLIC "-//W3C//DTD SVG 1.1//EN"
  "http://www.w3.org/Graphics/SVG/1.1/DTD/svg11.dtd">
<!-- Created with matplotlib (https://matplotlib.org/) -->
<svg height="576pt" version="1.1" viewBox="0 0 720 576" width="720pt" xmlns="http://www.w3.org/2000/svg" xmlns:xlink="http://www.w3.org/1999/xlink">
 <metadata>
  <rdf:RDF xmlns:cc="http://creativecommons.org/ns#" xmlns:dc="http://purl.org/dc/elements/1.1/" xmlns:rdf="http://www.w3.org/1999/02/22-rdf-syntax-ns#">
   <cc:Work>
    <dc:type rdf:resource="http://purl.org/dc/dcmitype/StillImage"/>
    <dc:date>2025-09-10T09:57:21.542097</dc:date>
    <dc:format>image/svg+xml</dc:format>
    <dc:creator>
     <cc:Agent>
      <dc:title>Matplotlib v3.3.2, https://matplotlib.org/</dc:title>
     </cc:Agent>
    </dc:creator>
   </cc:Work>
  </rdf:RDF>
 </metadata>
 <defs>
  <style type="text/css">*{stroke-linecap:butt;stroke-linejoin:round;}</style>
 </defs>
 <g id="figure_1">
  <g id="patch_1">
   <path d="M 0 576 
L 720 576 
L 720 0 
L 0 0 
z
" style="fill:#ffffff;"/>
  </g>
  <g id="axes_1">
   <g id="patch_2">
    <path d="M 90 512.64 
L 648 512.64 
L 648 69.12 
L 90 69.12 
z
" style="fill:#ffffff;"/>
   </g>
   <g id="matplotlib.axis_1">
    <g id="xtick_1">
     <g id="line2d_1">
      <defs>
       <path d="M 0 0 
L 0 3.5 
" id="m1eb32f27ef" style="stroke:#000000;stroke-width:0.8;"/>
      </defs>
      <g>
       <use style="stroke:#000000;stroke-width:0.8;" x="114.967847" xlink:href="#m1eb32f27ef" y="512.64"/>
      </g>
     </g>
     <g id="text_1">
      <!-- 0 -->
      <g transform="translate(111.786597 527.238438)scale(0.1 -0.1)">
       <defs>
        <path d="M 31.78125 66.40625 
Q 24.171875 66.40625 20.328125 58.90625 
Q 16.5 51.421875 16.5 36.375 
Q 16.5 21.390625 20.328125 13.890625 
Q 24.171875 6.390625 31.78125 6.390625 
Q 39.453125 6.390625 43.28125 13.890625 
Q 47.125 21.390625 47.125 36.375 
Q 47.125 51.421875 43.28125 58.90625 
Q 39.453125 66.40625 31.78125 66.40625 
z
M 31.78125 74.21875 
Q 44.046875 74.21875 50.515625 64.515625 
Q 56.984375 54.828125 56.984375 36.375 
Q 56.984375 17.96875 50.515625 8.265625 
Q 44.046875 -1.421875 31.78125 -1.421875 
Q 19.53125 -1.421875 13.0625 8.265625 
Q 6.59375 17.96875 6.59375 36.375 
Q 6.59375 54.828125 13.0625 64.515625 
Q 19.53125 74.21875 31.78125 74.21875 
z
" id="DejaVuSans-48"/>
       </defs>
       <use xlink:href="#DejaVuSans-48"/>
      </g>
     </g>
    </g>
    <g id="xtick_2">
     <g id="line2d_2">
      <g>
       <use style="stroke:#000000;stroke-width:0.8;" x="199.363373" xlink:href="#m1eb32f27ef" y="512.64"/>
      </g>
     </g>
     <g id="text_2">
      <!-- 100 -->
      <g transform="translate(189.819623 527.238438)scale(0.1 -0.1)">
       <defs>
        <path d="M 12.40625 8.296875 
L 28.515625 8.296875 
L 28.515625 63.921875 
L 10.984375 60.40625 
L 10.984375 69.390625 
L 28.421875 72.90625 
L 38.28125 72.90625 
L 38.28125 8.296875 
L 54.390625 8.296875 
L 54.390625 0 
L 12.40625 0 
z
" id="DejaVuSans-49"/>
       </defs>
       <use xlink:href="#DejaVuSans-49"/>
       <use x="63.623047" xlink:href="#DejaVuSans-48"/>
       <use x="127.246094" xlink:href="#DejaVuSans-48"/>
      </g>
     </g>
    </g>
    <g id="xtick_3">
     <g id="line2d_3">
      <g>
       <use style="stroke:#000000;stroke-width:0.8;" x="283.758899" xlink:href="#m1eb32f27ef" y="512.64"/>
      </g>
     </g>
     <g id="text_3">
      <!-- 200 -->
      <g transform="translate(274.215149 527.238438)scale(0.1 -0.1)">
       <defs>
        <path d="M 19.1875 8.296875 
L 53.609375 8.296875 
L 53.609375 0 
L 7.328125 0 
L 7.328125 8.296875 
Q 12.9375 14.109375 22.625 23.890625 
Q 32.328125 33.6875 34.8125 36.53125 
Q 39.546875 41.84375 41.421875 45.53125 
Q 43.3125 49.21875 43.3125 52.78125 
Q 43.3125 58.59375 39.234375 62.25 
Q 35.15625 65.921875 28.609375 65.921875 
Q 23.96875 65.921875 18.8125 64.3125 
Q 13.671875 62.703125 7.8125 59.421875 
L 7.8125 69.390625 
Q 13.765625 71.78125 18.9375 73 
Q 24.125 74.21875 28.421875 74.21875 
Q 39.75 74.21875 46.484375 68.546875 
Q 53.21875 62.890625 53.21875 53.421875 
Q 53.21875 48.921875 51.53125 44.890625 
Q 49.859375 40.875 45.40625 35.40625 
Q 44.1875 33.984375 37.640625 27.21875 
Q 31.109375 20.453125 19.1875 8.296875 
z
" id="DejaVuSans-50"/>
       </defs>
       <use xlink:href="#DejaVuSans-50"/>
       <use x="63.623047" xlink:href="#DejaVuSans-48"/>
       <use x="127.246094" xlink:href="#DejaVuSans-48"/>
      </g>
     </g>
    </g>
    <g id="xtick_4">
     <g id="line2d_4">
      <g>
       <use style="stroke:#000000;stroke-width:0.8;" x="368.154424" xlink:href="#m1eb32f27ef" y="512.64"/>
      </g>
     </g>
     <g id="text_4">
      <!-- 300 -->
      <g transform="translate(358.610674 527.238438)scale(0.1 -0.1)">
       <defs>
        <path d="M 40.578125 39.3125 
Q 47.65625 37.796875 51.625 33 
Q 55.609375 28.21875 55.609375 21.1875 
Q 55.609375 10.40625 48.1875 4.484375 
Q 40.765625 -1.421875 27.09375 -1.421875 
Q 22.515625 -1.421875 17.65625 -0.515625 
Q 12.796875 0.390625 7.625 2.203125 
L 7.625 11.71875 
Q 11.71875 9.328125 16.59375 8.109375 
Q 21.484375 6.890625 26.8125 6.890625 
Q 36.078125 6.890625 40.9375 10.546875 
Q 45.796875 14.203125 45.796875 21.1875 
Q 45.796875 27.640625 41.28125 31.265625 
Q 36.765625 34.90625 28.71875 34.90625 
L 20.21875 34.90625 
L 20.21875 43.015625 
L 29.109375 43.015625 
Q 36.375 43.015625 40.234375 45.921875 
Q 44.09375 48.828125 44.09375 54.296875 
Q 44.09375 59.90625 40.109375 62.90625 
Q 36.140625 65.921875 28.71875 65.921875 
Q 24.65625 65.921875 20.015625 65.03125 
Q 15.375 64.15625 9.8125 62.3125 
L 9.8125 71.09375 
Q 15.4375 72.65625 20.34375 73.4375 
Q 25.25 74.21875 29.59375 74.21875 
Q 40.828125 74.21875 47.359375 69.109375 
Q 53.90625 64.015625 53.90625 55.328125 
Q 53.90625 49.265625 50.4375 45.09375 
Q 46.96875 40.921875 40.578125 39.3125 
z
" id="DejaVuSans-51"/>
       </defs>
       <use xlink:href="#DejaVuSans-51"/>
       <use x="63.623047" xlink:href="#DejaVuSans-48"/>
       <use x="127.246094" xlink:href="#DejaVuSans-48"/>
      </g>
     </g>
    </g>
    <g id="xtick_5">
     <g id="line2d_5">
      <g>
       <use style="stroke:#000000;stroke-width:0.8;" x="452.54995" xlink:href="#m1eb32f27ef" y="512.64"/>
      </g>
     </g>
     <g id="text_5">
      <!-- 400 -->
      <g transform="translate(443.0062 527.238438)scale(0.1 -0.1)">
       <defs>
        <path d="M 37.796875 64.3125 
L 12.890625 25.390625 
L 37.796875 25.390625 
z
M 35.203125 72.90625 
L 47.609375 72.90625 
L 47.609375 25.390625 
L 58.015625 25.390625 
L 58.015625 17.1875 
L 47.609375 17.1875 
L 47.609375 0 
L 37.796875 0 
L 37.796875 17.1875 
L 4.890625 17.1875 
L 4.890625 26.703125 
z
" id="DejaVuSans-52"/>
       </defs>
       <use xlink:href="#DejaVuSans-52"/>
       <use x="63.623047" xlink:href="#DejaVuSans-48"/>
       <use x="127.246094" xlink:href="#DejaVuSans-48"/>
      </g>
     </g>
    </g>
    <g id="xtick_6">
     <g id="line2d_6">
      <g>
       <use style="stroke:#000000;stroke-width:0.8;" x="536.945476" xlink:href="#m1eb32f27ef" y="512.64"/>
      </g>
     </g>
     <g id="text_6">
      <!-- 500 -->
      <g transform="translate(527.401726 527.238438)scale(0.1 -0.1)">
       <defs>
        <path d="M 10.796875 72.90625 
L 49.515625 72.90625 
L 49.515625 64.59375 
L 19.828125 64.59375 
L 19.828125 46.734375 
Q 21.96875 47.46875 24.109375 47.828125 
Q 26.265625 48.1875 28.421875 48.1875 
Q 40.625 48.1875 47.75 41.5 
Q 54.890625 34.8125 54.890625 23.390625 
Q 54.890625 11.625 47.5625 5.09375 
Q 40.234375 -1.421875 26.90625 -1.421875 
Q 22.3125 -1.421875 17.546875 -0.640625 
Q 12.796875 0.140625 7.71875 1.703125 
L 7.71875 11.625 
Q 12.109375 9.234375 16.796875 8.0625 
Q 21.484375 6.890625 26.703125 6.890625 
Q 35.15625 6.890625 40.078125 11.328125 
Q 45.015625 15.765625 45.015625 23.390625 
Q 45.015625 31 40.078125 35.4375 
Q 35.15625 39.890625 26.703125 39.890625 
Q 22.75 39.890625 18.8125 39.015625 
Q 14.890625 38.140625 10.796875 36.28125 
z
" id="DejaVuSans-53"/>
       </defs>
       <use xlink:href="#DejaVuSans-53"/>
       <use x="63.623047" xlink:href="#DejaVuSans-48"/>
       <use x="127.246094" xlink:href="#DejaVuSans-48"/>
      </g>
     </g>
    </g>
    <g id="xtick_7">
     <g id="line2d_7">
      <g>
       <use style="stroke:#000000;stroke-width:0.8;" x="621.341002" xlink:href="#m1eb32f27ef" y="512.64"/>
      </g>
     </g>
     <g id="text_7">
      <!-- 600 -->
      <g transform="translate(611.797252 527.238438)scale(0.1 -0.1)">
       <defs>
        <path d="M 33.015625 40.375 
Q 26.375 40.375 22.484375 35.828125 
Q 18.609375 31.296875 18.609375 23.390625 
Q 18.609375 15.53125 22.484375 10.953125 
Q 26.375 6.390625 33.015625 6.390625 
Q 39.65625 6.390625 43.53125 10.953125 
Q 47.40625 15.53125 47.40625 23.390625 
Q 47.40625 31.296875 43.53125 35.828125 
Q 39.65625 40.375 33.015625 40.375 
z
M 52.59375 71.296875 
L 52.59375 62.3125 
Q 48.875 64.0625 45.09375 64.984375 
Q 41.3125 65.921875 37.59375 65.921875 
Q 27.828125 65.921875 22.671875 59.328125 
Q 17.53125 52.734375 16.796875 39.40625 
Q 19.671875 43.65625 24.015625 45.921875 
Q 28.375 48.1875 33.59375 48.1875 
Q 44.578125 48.1875 50.953125 41.515625 
Q 57.328125 34.859375 57.328125 23.390625 
Q 57.328125 12.15625 50.6875 5.359375 
Q 44.046875 -1.421875 33.015625 -1.421875 
Q 20.359375 -1.421875 13.671875 8.265625 
Q 6.984375 17.96875 6.984375 36.375 
Q 6.984375 53.65625 15.1875 63.9375 
Q 23.390625 74.21875 37.203125 74.21875 
Q 40.921875 74.21875 44.703125 73.484375 
Q 48.484375 72.75 52.59375 71.296875 
z
" id="DejaVuSans-54"/>
       </defs>
       <use xlink:href="#DejaVuSans-54"/>
       <use x="63.623047" xlink:href="#DejaVuSans-48"/>
       <use x="127.246094" xlink:href="#DejaVuSans-48"/>
      </g>
     </g>
    </g>
   </g>
   <g id="matplotlib.axis_2">
    <g id="ytick_1">
     <g id="line2d_8">
      <defs>
       <path d="M 0 0 
L -3.5 0 
" id="mdf6edcb985" style="stroke:#000000;stroke-width:0.8;"/>
      </defs>
      <g>
       <use style="stroke:#000000;stroke-width:0.8;" x="90" xlink:href="#mdf6edcb985" y="492.692174"/>
      </g>
     </g>
     <g id="text_8">
      <!-- −200 -->
      <g transform="translate(55.532812 496.491393)scale(0.1 -0.1)">
       <defs>
        <path d="M 10.59375 35.5 
L 73.1875 35.5 
L 73.1875 27.203125 
L 10.59375 27.203125 
z
" id="DejaVuSans-8722"/>
       </defs>
       <use xlink:href="#DejaVuSans-8722"/>
       <use x="83.789062" xlink:href="#DejaVuSans-50"/>
       <use x="147.412109" xlink:href="#DejaVuSans-48"/>
       <use x="211.035156" xlink:href="#DejaVuSans-48"/>
      </g>
     </g>
    </g>
    <g id="ytick_2">
     <g id="line2d_9">
      <g>
       <use style="stroke:#000000;stroke-width:0.8;" x="90" xlink:href="#mdf6edcb985" y="408.296649"/>
      </g>
     </g>
     <g id="text_9">
      <!-- −100 -->
      <g transform="translate(55.532812 412.095867)scale(0.1 -0.1)">
       <use xlink:href="#DejaVuSans-8722"/>
       <use x="83.789062" xlink:href="#DejaVuSans-49"/>
       <use x="147.412109" xlink:href="#DejaVuSans-48"/>
       <use x="211.035156" xlink:href="#DejaVuSans-48"/>
      </g>
     </g>
    </g>
    <g id="ytick_3">
     <g id="line2d_10">
      <g>
       <use style="stroke:#000000;stroke-width:0.8;" x="90" xlink:href="#mdf6edcb985" y="323.901123"/>
      </g>
     </g>
     <g id="text_10">
      <!-- 0 -->
      <g transform="translate(76.6375 327.700342)scale(0.1 -0.1)">
       <use xlink:href="#DejaVuSans-48"/>
      </g>
     </g>
    </g>
    <g id="ytick_4">
     <g id="line2d_11">
      <g>
       <use style="stroke:#000000;stroke-width:0.8;" x="90" xlink:href="#mdf6edcb985" y="239.505597"/>
      </g>
     </g>
     <g id="text_11">
      <!-- 100 -->
      <g transform="translate(63.9125 243.304816)scale(0.1 -0.1)">
       <use xlink:href="#DejaVuSans-49"/>
       <use x="63.623047" xlink:href="#DejaVuSans-48"/>
       <use x="127.246094" xlink:href="#DejaVuSans-48"/>
      </g>
     </g>
    </g>
    <g id="ytick_5">
     <g id="line2d_12">
      <g>
       <use style="stroke:#000000;stroke-width:0.8;" x="90" xlink:href="#mdf6edcb985" y="155.110071"/>
      </g>
     </g>
     <g id="text_12">
      <!-- 200 -->
      <g transform="translate(63.9125 158.90929)scale(0.1 -0.1)">
       <use xlink:href="#DejaVuSans-50"/>
       <use x="63.623047" xlink:href="#DejaVuSans-48"/>
       <use x="127.246094" xlink:href="#DejaVuSans-48"/>
      </g>
     </g>
    </g>
    <g id="ytick_6">
     <g id="line2d_13">
      <g>
       <use style="stroke:#000000;stroke-width:0.8;" x="90" xlink:href="#mdf6edcb985" y="70.714546"/>
      </g>
     </g>
     <g id="text_13">
      <!-- 300 -->
      <g transform="translate(63.9125 74.513764)scale(0.1 -0.1)">
       <use xlink:href="#DejaVuSans-51"/>
       <use x="63.623047" xlink:href="#DejaVuSans-48"/>
       <use x="127.246094" xlink:href="#DejaVuSans-48"/>
      </g>
     </g>
    </g>
   </g>
   <g id="line2d_14">
    <path clip-path="url(#p0116b57028)" d="M 123.4074 315.46157 
L 312.0314 311.025637 
" style="fill:none;stroke:#008000;stroke-dasharray:5.55,2.4;stroke-dashoffset:0;stroke-width:1.5;"/>
   </g>
   <g id="line2d_15">
    <path clip-path="url(#p0116b57028)" d="M 621.621598 322.062882 
L 199.363373 239.505597 
" style="fill:none;stroke:#008000;stroke-dasharray:5.55,2.4;stroke-dashoffset:0;stroke-width:1.5;"/>
   </g>
   <g id="line2d_16">
    <path clip-path="url(#p0116b57028)" d="M 312.0314 311.025637 
L 311.99147 309.767754 
L 311.87184 308.514936 
L 311.672993 307.272227 
L 311.395728 306.044632 
L 311.041163 304.837094 
L 310.610725 303.654475 
L 310.106147 302.501537 
L 309.529461 301.382923 
L 308.882989 300.303136 
L 308.169335 299.266525 
L 307.391371 298.277264 
L 306.552231 297.339336 
L 305.655294 296.456518 
L 304.70417 295.632365 
L 303.70269 294.870195 
L 302.654887 294.173077 
L 301.564979 293.543818 
L 300.437356 292.984953 
L 299.276557 292.498731 
L 298.087258 292.08711 
L 296.874246 291.751749 
L 295.642407 291.493996 
L 294.3967 291.31489 
L 293.142141 291.215153 
L 291.883782 291.195185 
L 290.626691 291.255068 
L 289.375928 291.39456 
L 288.136531 291.613099 
L 286.91349 291.909806 
L 285.711729 292.283485 
L 284.536088 292.732632 
L 283.391301 293.255439 
L 282.281977 293.8498 
L 281.212583 294.513322 
L 280.187426 295.243334 
L 279.210632 296.036895 
L 278.286136 296.890811 
L 277.41766 297.801642 
L 276.608701 298.765722 
L 275.862516 299.779168 
L 275.18211 300.8379 
L 274.570224 301.937654 
L 274.029319 303.074003 
L 273.561576 304.24237 
L 273.168877 305.43805 
L 272.852803 306.65623 
L 272.614627 307.892004 
L 272.455308 309.140396 
L 272.375488 310.396379 
L 272.375488 311.654896 
L 272.455308 312.910879 
L 272.614627 314.159271 
L 272.852803 315.395045 
L 273.168877 316.613225 
L 273.561576 317.808905 
L 274.029319 318.977272 
L 274.570224 320.11362 
L 275.18211 321.213375 
L 275.862516 322.272107 
L 276.608701 323.285553 
L 277.41766 324.249633 
L 278.286136 325.160464 
L 279.210632 326.01438 
L 280.187426 326.807941 
L 281.212583 327.537953 
L 282.281977 328.201475 
L 283.391301 328.795836 
L 284.536088 329.318643 
L 285.711729 329.76779 
L 286.91349 330.141469 
L 288.136531 330.438176 
L 289.375928 330.656715 
L 290.626691 330.796207 
L 291.883782 330.85609 
L 293.142141 330.836122 
L 294.3967 330.736385 
L 295.642407 330.557279 
L 296.874246 330.299526 
L 298.087258 329.964164 
L 299.276557 329.552544 
L 300.437356 329.066322 
L 301.564979 328.507457 
L 302.654887 327.878198 
L 303.70269 327.18108 
L 304.70417 326.41891 
L 305.655294 325.594757 
L 306.552231 324.711939 
L 307.391371 323.774011 
L 308.169335 322.78475 
L 308.882989 321.748139 
L 309.529461 320.668352 
L 310.106147 319.549738 
L 310.610725 318.3968 
L 311.041163 317.214181 
L 311.395728 316.006643 
L 311.672993 314.779048 
L 311.87184 313.536339 
L 311.99147 312.283521 
L 312.0314 311.025637 
" style="fill:none;stroke:#ff0000;stroke-linecap:square;stroke-width:1.5;"/>
   </g>
   <g id="line2d_17">
    <path clip-path="url(#p0116b57028)" d="M 312.0314 311.025637 
L 265.050818 296.437984 
" style="fill:none;stroke:#008000;stroke-dasharray:5.55,2.4;stroke-dashoffset:0;stroke-width:1.5;"/>
   </g>
   <g id="line2d_18">
    <path clip-path="url(#p0116b57028)" d="M 265.050818 296.437984 
L 247.295299 326.980756 
L 246.73441 327.341218 
L 246.089049 327.508666 
L 245.423661 327.466379 
L 244.804689 327.21858 
L 244.293944 326.790014 
L 244.061274 326.463275 
L 244.061274 326.463275 
L 227.709755 297.943299 
L 227.674156 297.254617 
L 227.862523 296.591241 
L 228.254734 296.024037 
L 228.808889 295.613596 
L 229.465792 295.403765 
L 229.637985 295.385795 
L 229.637985 295.385795 
L 263.729499 293.334701 
L 264.360393 293.60559 
L 264.870906 294.064703 
L 265.206977 294.663423 
L 265.333016 295.338348 
L 265.235676 296.018005 
L 265.050818 296.437984 
L 265.050818 296.437984 
" style="fill:none;stroke:#ff0000;stroke-linecap:square;stroke-width:1.5;"/>
   </g>
   <g id="line2d_19">
    <path clip-path="url(#p0116b57028)" d="M 265.050818 296.437984 
L 232.232343 327.917801 
" style="fill:none;stroke:#008000;stroke-dasharray:5.55,2.4;stroke-dashoffset:0;stroke-width:1.5;"/>
   </g>
   <g id="line2d_20">
    <path clip-path="url(#p0116b57028)" d="M 232.232343 327.917801 
L 232.470268 328.540522 
L 232.502038 329.206389 
L 232.324481 329.848933 
L 231.955322 330.404011 
L 231.431414 330.81621 
L 230.805055 331.044384 
L 230.405831 331.082634 
L 230.405831 331.082634 
L 198.845545 330.987804 
L 198.252758 330.682395 
L 197.784891 330.207242 
L 197.488678 329.609808 
L 197.393707 328.949769 
L 197.509465 328.293057 
L 197.676115 327.92813 
L 213.550403 300.643746 
L 214.111292 300.283285 
L 214.756653 300.115837 
L 215.422041 300.158123 
L 216.041012 300.405922 
L 216.551758 300.834488 
L 216.784427 301.161227 
L 216.784427 301.161227 
L 232.232343 327.917801 
L 232.232343 327.917801 
" style="fill:none;stroke:#ff0000;stroke-linecap:square;stroke-width:1.5;"/>
   </g>
   <g id="line2d_21">
    <path clip-path="url(#p0116b57028)" d="M 232.232343 327.917801 
L 199.653924 302.559628 
" style="fill:none;stroke:#008000;stroke-dasharray:5.55,2.4;stroke-dashoffset:0;stroke-width:1.5;"/>
   </g>
   <g id="line2d_22">
    <path clip-path="url(#p0116b57028)" d="M 199.653924 302.559628 
L 185.469636 326.916847 
L 184.908746 327.277309 
L 184.263385 327.444757 
L 183.597997 327.40247 
L 182.979026 327.154672 
L 182.46828 326.726106 
L 182.235611 326.399367 
L 170.945501 306.645357 
L 170.910078 305.95821 
L 171.097625 305.296204 
L 171.488199 304.729744 
L 172.040261 304.31907 
L 172.614933 304.121412 
L 172.614933 304.121412 
L 198.112416 299.41423 
L 198.760397 299.612634 
L 199.312055 300.006228 
L 199.710481 300.554408 
L 199.914571 301.20062 
L 199.90327 301.878201 
L 199.677745 302.517249 
L 199.653924 302.559628 
L 199.653924 302.559628 
" style="fill:none;stroke:#ff0000;stroke-linecap:square;stroke-width:1.5;"/>
   </g>
   <g id="line2d_23">
    <path clip-path="url(#p0116b57028)" d="M 199.653924 302.559628 
L 169.711151 326.649202 
" style="fill:none;stroke:#008000;stroke-dasharray:5.55,2.4;stroke-dashoffset:0;stroke-width:1.5;"/>
   </g>
   <g id="line2d_24">
    <path clip-path="url(#p0116b57028)" d="M 169.711151 326.649202 
L 169.954902 327.300759 
L 169.973516 327.996168 
L 169.76497 328.659831 
L 169.351934 329.219601 
L 168.779312 329.614625 
L 168.109351 329.801958 
L 167.690744 329.805171 
L 167.690744 329.805171 
L 150.64988 328.128242 
L 150.080102 327.757221 
L 149.657913 327.224249 
L 149.427156 326.584676 
L 149.411796 325.904921 
L 149.613427 325.255577 
L 149.674046 325.142813 
L 149.674046 325.142813 
L 157.850933 311.190718 
L 158.411823 310.830256 
L 159.057184 310.662808 
L 159.722572 310.705095 
L 160.341543 310.952893 
L 160.852288 311.38146 
L 161.084958 311.708198 
L 161.084958 311.708198 
L 169.711151 326.649202 
L 169.711151 326.649202 
" style="fill:none;stroke:#ff0000;stroke-linecap:square;stroke-width:1.5;"/>
   </g>
   <g id="line2d_25">
    <path clip-path="url(#p0116b57028)" d="M 169.711151 326.649202 
L 319.601721 325.170515 
" style="fill:none;stroke:#008000;stroke-dasharray:5.55,2.4;stroke-dashoffset:0;stroke-width:1.5;"/>
   </g>
   <g id="line2d_26">
    <path clip-path="url(#p0116b57028)" d="M 319.601721 325.170515 
L 335.61833 297.639625 
L 336.179219 297.279163 
L 336.82458 297.111715 
L 337.489968 297.154001 
L 338.10894 297.4018 
L 338.619685 297.830366 
L 338.852354 298.157105 
L 338.852354 298.157105 
L 353.92315 324.462634 
L 353.95591 325.158087 
L 353.760546 325.826339 
L 353.358328 326.394625 
L 352.793056 326.801067 
L 352.126278 327.001407 
L 351.9521 327.016194 
L 320.84458 328.252811 
L 320.229752 327.961426 
L 319.739625 327.489521 
L 319.425168 326.886167 
L 319.31908 326.214107 
L 319.432394 325.543228 
L 319.601721 325.170515 
L 319.601721 325.170515 
" style="fill:none;stroke:#ff0000;stroke-linecap:square;stroke-width:1.5;"/>
   </g>
   <g id="line2d_27">
    <path clip-path="url(#p0116b57028)" d="M 319.601721 325.170515 
L 351.347516 297.856522 
" style="fill:none;stroke:#008000;stroke-dasharray:5.55,2.4;stroke-dashoffset:0;stroke-width:1.5;"/>
   </g>
   <g id="line2d_28">
    <path clip-path="url(#p0116b57028)" d="M 351.347516 297.856522 
L 351.105041 297.211464 
L 351.083359 296.52268 
L 351.284781 295.863648 
L 351.687821 295.304674 
L 352.249483 294.905387 
L 352.909849 294.708383 
L 353.324358 294.697002 
L 353.324358 294.697002 
L 380.613293 296.735752 
L 381.202077 297.089538 
L 381.646015 297.613704 
L 381.898053 298.252693 
L 381.931479 298.938779 
L 381.74275 299.599242 
L 381.662702 299.751982 
L 381.662702 299.751982 
L 368.459089 322.410622 
L 367.8982 322.771084 
L 367.252839 322.938532 
L 366.587451 322.896246 
L 365.968479 322.648447 
L 365.457734 322.219881 
L 365.225064 321.893142 
L 365.225064 321.893142 
L 351.347516 297.856522 
L 351.347516 297.856522 
" style="fill:none;stroke:#ff0000;stroke-linecap:square;stroke-width:1.5;"/>
   </g>
   <g id="line2d_29">
    <path clip-path="url(#p0116b57028)" d="M 351.347516 297.856522 
L 381.276007 322.364595 
" style="fill:none;stroke:#008000;stroke-dasharray:5.55,2.4;stroke-dashoffset:0;stroke-width:1.5;"/>
   </g>
   <g id="line2d_30">
    <path clip-path="url(#p0116b57028)" d="M 381.276007 322.364595 
L 393.320866 301.712976 
L 393.881756 301.352514 
L 394.527117 301.185066 
L 395.192505 301.227352 
L 395.811476 301.475151 
L 396.322221 301.903717 
L 396.554891 302.230456 
L 396.554891 302.230456 
L 407.758419 321.836323 
L 407.792189 322.529385 
L 407.599306 323.195923 
L 407.200632 323.763844 
L 406.639286 324.171725 
L 405.975982 324.37545 
L 405.802498 324.39137 
L 405.802498 324.39137 
L 382.53084 325.450304 
L 381.912467 325.161299 
L 381.418719 324.69 
L 381.101272 324.085735 
L 380.99335 323.411745 
L 381.106248 322.738571 
L 381.276007 322.364595 
L 381.276007 322.364595 
" style="fill:none;stroke:#ff0000;stroke-linecap:square;stroke-width:1.5;"/>
   </g>
   <g id="line2d_31">
    <path clip-path="url(#p0116b57028)" d="M 381.276007 322.364595 
L 409.464973 302.648538 
" style="fill:none;stroke:#008000;stroke-dasharray:5.55,2.4;stroke-dashoffset:0;stroke-width:1.5;"/>
   </g>
   <g id="line2d_32">
    <path clip-path="url(#p0116b57028)" d="M 409.464973 302.648538 
L 409.220203 301.991715 
L 409.20412 301.290951 
L 409.418498 300.62359 
L 409.839676 300.063289 
L 410.421169 299.671888 
L 411.098797 299.492587 
L 411.520604 299.496106 
L 411.520604 299.496106 
L 430.149755 301.63318 
L 430.710078 302.008272 
L 431.123454 302.540978 
L 431.347666 303.17689 
L 431.359814 303.851062 
L 431.158657 304.494638 
L 431.098517 304.606443 
L 431.098517 304.606443 
L 422.253751 319.715337 
L 421.692862 320.075799 
L 421.047501 320.243247 
L 420.382113 320.20096 
L 419.763142 319.953161 
L 419.252396 319.524595 
L 419.019727 319.197856 
L 409.464973 302.648538 
L 409.464973 302.648538 
" style="fill:none;stroke:#ff0000;stroke-linecap:square;stroke-width:1.5;"/>
   </g>
   <g id="line2d_33">
    <path clip-path="url(#p0116b57028)" d="M 409.464973 302.648538 
L 435.088413 319.638576 
" style="fill:none;stroke:#008000;stroke-dasharray:5.55,2.4;stroke-dashoffset:0;stroke-width:1.5;"/>
   </g>
   <g id="line2d_34">
    <path clip-path="url(#p0116b57028)" d="M 435.088413 319.638576 
L 442.480803 307.045271 
L 443.041692 306.684809 
L 443.687053 306.517361 
L 444.352441 306.559647 
L 444.971413 306.807446 
L 445.482158 307.236012 
L 445.714828 307.562751 
L 452.523326 319.55608 
L 452.557189 320.248922 
L 452.364534 320.915302 
L 451.966186 321.483189 
L 451.405201 321.891201 
L 450.742218 322.095235 
L 450.568798 322.111259 
L 436.344349 322.724595 
L 435.72565 322.435811 
L 435.231569 321.964569 
L 434.913846 321.360221 
L 434.805755 320.686053 
L 434.918615 320.012668 
L 435.088413 319.638576 
L 435.088413 319.638576 
" style="fill:none;stroke:#ff0000;stroke-linecap:square;stroke-width:1.5;"/>
   </g>
   <g id="line2d_35">
    <path clip-path="url(#p0116b57028)" d="M 435.088413 319.638576 
L 621.622214 322.063006 
" style="fill:none;stroke:#008000;stroke-dasharray:5.55,2.4;stroke-dashoffset:0;stroke-width:1.5;"/>
   </g>
   <g id="line2d_36">
    <path clip-path="url(#p0116b57028)" d="M 621.622214 322.063006 
L 599.151059 317.615762 
L 570.292539 312.121764 
L 544.734011 307.476459 
L 520.906987 303.378781 
L 498.831888 299.812527 
L 478.5114 296.750273 
L 469.148443 295.501345 
L 468.67501 295.718927 
L 468.329313 296.108766 
L 468.169915 296.604823 
L 468.071509 296.972493 
L 468.067162 296.972003 
L 454.041787 295.13239 
L 453.539608 295.327097 
L 453.163825 295.712947 
L 452.982459 296.220097 
L 452.982459 296.220096 
L 452.627183 298.301569 
L 452.627183 298.301569 
L 451.856722 298.116461 
L 451.856722 298.116461 
L 452.077345 295.59044 
L 451.820017 295.117303 
L 451.389291 294.793959 
L 451.023499 294.689274 
L 451.023697 294.6893 
L 432.27022 292.386925 
L 414.278184 290.397122 
L 396.561483 288.651273 
L 379.148909 287.144909 
L 362.067899 285.879973 
L 345.345688 284.858058 
L 329.009051 284.080057 
L 313.084794 283.551003 
L 298.872066 283.309544 
L 285.04773 283.306003 
L 271.632302 283.533087 
L 258.645854 283.982522 
L 246.107899 284.64568 
L 234.037413 285.513334 
L 222.45277 286.575509 
L 211.37174 287.82131 
L 200.811594 289.239796 
L 190.78903 290.81937 
L 181.320203 292.547646 
L 172.4207 294.411806 
L 164.105871 296.39869 
L 157.066762 298.299085 
L 150.534025 300.277529 
L 144.51936 302.322927 
L 139.033107 304.423361 
L 134.089166 306.565868 
L 130.112378 308.515913 
L 126.598498 310.478761 
L 123.556367 312.445993 
L 121.261786 314.176627 
L 119.363816 315.863578 
L 117.867915 317.480767 
L 116.767783 319.020958 
L 116.033868 320.421051 
L 115.554938 321.833698 
L 115.370479 323.092585 
L 115.419318 324.180826 
L 115.683232 325.281903 
L 116.203206 326.417274 
L 116.85979 327.35124 
L 117.782591 328.314296 
L 119.188928 329.428623 
L 120.934692 330.51038 
L 122.993675 331.540555 
L 125.71669 332.645048 
L 128.80586 333.671003 
L 132.708017 334.722954 
L 137.547809 335.781468 
L 142.899738 336.723397 
L 149.363297 337.631464 
L 157.082849 338.474549 
L 165.482297 339.167766 
L 175.327974 339.755057 
L 186.77453 340.205699 
L 197.93484 340.426635 
L 198.42674 340.206464 
L 198.782484 339.801634 
L 198.9376 339.285514 
L 198.941273 339.205155 
L 198.941273 339.205155 
L 199.054988 337.096644 
L 199.054988 337.096644 
L 199.813628 337.191594 
L 199.813628 337.191594 
L 199.884911 339.726586 
L 200.195334 340.167191 
L 200.660912 340.438728 
L 201.036649 340.500336 
L 201.036109 340.50033 
L 214.976545 340.653681 
L 214.976545 340.653681 
L 215.083142 341.496929 
L 215.399894 341.933269 
L 215.869498 342.198215 
L 216.246236 342.254402 
L 216.245803 342.254403 
L 233.362911 342.09901 
L 253.974799 341.676377 
L 279.461078 340.910646 
L 315.516208 339.573741 
L 350.002289 338.1066 
L 393.450337 336.005573 
L 522.336148 329.629644 
L 565.20836 327.806048 
L 606.887697 326.268772 
L 621.851568 325.643414 
L 622.27151 325.323482 
L 622.524448 324.860091 
L 622.575607 324.561265 
L 622.575607 324.561265 
L 622.552265 322.849873 
L 622.267973 322.410875 
L 621.830485 322.124263 
L 621.621598 322.062882 
L 621.621598 322.062882 
" style="fill:none;stroke:#ff0000;stroke-linecap:square;stroke-width:1.5;"/>
   </g>
   <g id="patch_3">
    <path d="M 90 512.64 
L 90 69.12 
" style="fill:none;stroke:#000000;stroke-linecap:square;stroke-linejoin:miter;stroke-width:0.8;"/>
   </g>
   <g id="patch_4">
    <path d="M 648 512.64 
L 648 69.12 
" style="fill:none;stroke:#000000;stroke-linecap:square;stroke-linejoin:miter;stroke-width:0.8;"/>
   </g>
   <g id="patch_5">
    <path d="M 90 512.64 
L 648 512.64 
" style="fill:none;stroke:#000000;stroke-linecap:square;stroke-linejoin:miter;stroke-width:0.8;"/>
   </g>
   <g id="patch_6">
    <path d="M 90 69.12 
L 648 69.12 
" style="fill:none;stroke:#000000;stroke-linecap:square;stroke-linejoin:miter;stroke-width:0.8;"/>
   </g>
   <g id="text_14">
    <!-- Rib Gcode generation Example -->
    <g transform="translate(275.850937 63.12)scale(0.12 -0.12)">
     <defs>
      <path d="M 44.390625 34.1875 
Q 47.5625 33.109375 50.5625 29.59375 
Q 53.5625 26.078125 56.59375 19.921875 
L 66.609375 0 
L 56 0 
L 46.6875 18.703125 
Q 43.0625 26.03125 39.671875 28.421875 
Q 36.28125 30.8125 30.421875 30.8125 
L 19.671875 30.8125 
L 19.671875 0 
L 9.8125 0 
L 9.8125 72.90625 
L 32.078125 72.90625 
Q 44.578125 72.90625 50.734375 67.671875 
Q 56.890625 62.453125 56.890625 51.90625 
Q 56.890625 45.015625 53.6875 40.46875 
Q 50.484375 35.9375 44.390625 34.1875 
z
M 19.671875 64.796875 
L 19.671875 38.921875 
L 32.078125 38.921875 
Q 39.203125 38.921875 42.84375 42.21875 
Q 46.484375 45.515625 46.484375 51.90625 
Q 46.484375 58.296875 42.84375 61.546875 
Q 39.203125 64.796875 32.078125 64.796875 
z
" id="DejaVuSans-82"/>
      <path d="M 9.421875 54.6875 
L 18.40625 54.6875 
L 18.40625 0 
L 9.421875 0 
z
M 9.421875 75.984375 
L 18.40625 75.984375 
L 18.40625 64.59375 
L 9.421875 64.59375 
z
" id="DejaVuSans-105"/>
      <path d="M 48.6875 27.296875 
Q 48.6875 37.203125 44.609375 42.84375 
Q 40.53125 48.484375 33.40625 48.484375 
Q 26.265625 48.484375 22.1875 42.84375 
Q 18.109375 37.203125 18.109375 27.296875 
Q 18.109375 17.390625 22.1875 11.75 
Q 26.265625 6.109375 33.40625 6.109375 
Q 40.53125 6.109375 44.609375 11.75 
Q 48.6875 17.390625 48.6875 27.296875 
z
M 18.109375 46.390625 
Q 20.953125 51.265625 25.265625 53.625 
Q 29.59375 56 35.59375 56 
Q 45.5625 56 51.78125 48.09375 
Q 58.015625 40.1875 58.015625 27.296875 
Q 58.015625 14.40625 51.78125 6.484375 
Q 45.5625 -1.421875 35.59375 -1.421875 
Q 29.59375 -1.421875 25.265625 0.953125 
Q 20.953125 3.328125 18.109375 8.203125 
L 18.109375 0 
L 9.078125 0 
L 9.078125 75.984375 
L 18.109375 75.984375 
z
" id="DejaVuSans-98"/>
      <path id="DejaVuSans-32"/>
      <path d="M 59.515625 10.40625 
L 59.515625 29.984375 
L 43.40625 29.984375 
L 43.40625 38.09375 
L 69.28125 38.09375 
L 69.28125 6.78125 
Q 63.578125 2.734375 56.6875 0.65625 
Q 49.8125 -1.421875 42 -1.421875 
Q 24.90625 -1.421875 15.25 8.5625 
Q 5.609375 18.5625 5.609375 36.375 
Q 5.609375 54.25 15.25 64.234375 
Q 24.90625 74.21875 42 74.21875 
Q 49.125 74.21875 55.546875 72.453125 
Q 61.96875 70.703125 67.390625 67.28125 
L 67.390625 56.78125 
Q 61.921875 61.421875 55.765625 63.765625 
Q 49.609375 66.109375 42.828125 66.109375 
Q 29.4375 66.109375 22.71875 58.640625 
Q 16.015625 51.171875 16.015625 36.375 
Q 16.015625 21.625 22.71875 14.15625 
Q 29.4375 6.6875 42.828125 6.6875 
Q 48.046875 6.6875 52.140625 7.59375 
Q 56.25 8.5 59.515625 10.40625 
z
" id="DejaVuSans-71"/>
      <path d="M 48.78125 52.59375 
L 48.78125 44.1875 
Q 44.96875 46.296875 41.140625 47.34375 
Q 37.3125 48.390625 33.40625 48.390625 
Q 24.65625 48.390625 19.8125 42.84375 
Q 14.984375 37.3125 14.984375 27.296875 
Q 14.984375 17.28125 19.8125 11.734375 
Q 24.65625 6.203125 33.40625 6.203125 
Q 37.3125 6.203125 41.140625 7.25 
Q 44.96875 8.296875 48.78125 10.40625 
L 48.78125 2.09375 
Q 45.015625 0.34375 40.984375 -0.53125 
Q 36.96875 -1.421875 32.421875 -1.421875 
Q 20.0625 -1.421875 12.78125 6.34375 
Q 5.515625 14.109375 5.515625 27.296875 
Q 5.515625 40.671875 12.859375 48.328125 
Q 20.21875 56 33.015625 56 
Q 37.15625 56 41.109375 55.140625 
Q 45.0625 54.296875 48.78125 52.59375 
z
" id="DejaVuSans-99"/>
      <path d="M 30.609375 48.390625 
Q 23.390625 48.390625 19.1875 42.75 
Q 14.984375 37.109375 14.984375 27.296875 
Q 14.984375 17.484375 19.15625 11.84375 
Q 23.34375 6.203125 30.609375 6.203125 
Q 37.796875 6.203125 41.984375 11.859375 
Q 46.1875 17.53125 46.1875 27.296875 
Q 46.1875 37.015625 41.984375 42.703125 
Q 37.796875 48.390625 30.609375 48.390625 
z
M 30.609375 56 
Q 42.328125 56 49.015625 48.375 
Q 55.71875 40.765625 55.71875 27.296875 
Q 55.71875 13.875 49.015625 6.21875 
Q 42.328125 -1.421875 30.609375 -1.421875 
Q 18.84375 -1.421875 12.171875 6.21875 
Q 5.515625 13.875 5.515625 27.296875 
Q 5.515625 40.765625 12.171875 48.375 
Q 18.84375 56 30.609375 56 
z
" id="DejaVuSans-111"/>
      <path d="M 45.40625 46.390625 
L 45.40625 75.984375 
L 54.390625 75.984375 
L 54.390625 0 
L 45.40625 0 
L 45.40625 8.203125 
Q 42.578125 3.328125 38.25 0.953125 
Q 33.9375 -1.421875 27.875 -1.421875 
Q 17.96875 -1.421875 11.734375 6.484375 
Q 5.515625 14.40625 5.515625 27.296875 
Q 5.515625 40.1875 11.734375 48.09375 
Q 17.96875 56 27.875 56 
Q 33.9375 56 38.25 53.625 
Q 42.578125 51.265625 45.40625 46.390625 
z
M 14.796875 27.296875 
Q 14.796875 17.390625 18.875 11.75 
Q 22.953125 6.109375 30.078125 6.109375 
Q 37.203125 6.109375 41.296875 11.75 
Q 45.40625 17.390625 45.40625 27.296875 
Q 45.40625 37.203125 41.296875 42.84375 
Q 37.203125 48.484375 30.078125 48.484375 
Q 22.953125 48.484375 18.875 42.84375 
Q 14.796875 37.203125 14.796875 27.296875 
z
" id="DejaVuSans-100"/>
      <path d="M 56.203125 29.59375 
L 56.203125 25.203125 
L 14.890625 25.203125 
Q 15.484375 15.921875 20.484375 11.0625 
Q 25.484375 6.203125 34.421875 6.203125 
Q 39.59375 6.203125 44.453125 7.46875 
Q 49.3125 8.734375 54.109375 11.28125 
L 54.109375 2.78125 
Q 49.265625 0.734375 44.1875 -0.34375 
Q 39.109375 -1.421875 33.890625 -1.421875 
Q 20.796875 -1.421875 13.15625 6.1875 
Q 5.515625 13.8125 5.515625 26.8125 
Q 5.515625 40.234375 12.765625 48.109375 
Q 20.015625 56 32.328125 56 
Q 43.359375 56 49.78125 48.890625 
Q 56.203125 41.796875 56.203125 29.59375 
z
M 47.21875 32.234375 
Q 47.125 39.59375 43.09375 43.984375 
Q 39.0625 48.390625 32.421875 48.390625 
Q 24.90625 48.390625 20.390625 44.140625 
Q 15.875 39.890625 15.1875 32.171875 
z
" id="DejaVuSans-101"/>
      <path d="M 45.40625 27.984375 
Q 45.40625 37.75 41.375 43.109375 
Q 37.359375 48.484375 30.078125 48.484375 
Q 22.859375 48.484375 18.828125 43.109375 
Q 14.796875 37.75 14.796875 27.984375 
Q 14.796875 18.265625 18.828125 12.890625 
Q 22.859375 7.515625 30.078125 7.515625 
Q 37.359375 7.515625 41.375 12.890625 
Q 45.40625 18.265625 45.40625 27.984375 
z
M 54.390625 6.78125 
Q 54.390625 -7.171875 48.1875 -13.984375 
Q 42 -20.796875 29.203125 -20.796875 
Q 24.46875 -20.796875 20.265625 -20.09375 
Q 16.0625 -19.390625 12.109375 -17.921875 
L 12.109375 -9.1875 
Q 16.0625 -11.328125 19.921875 -12.34375 
Q 23.78125 -13.375 27.78125 -13.375 
Q 36.625 -13.375 41.015625 -8.765625 
Q 45.40625 -4.15625 45.40625 5.171875 
L 45.40625 9.625 
Q 42.625 4.78125 38.28125 2.390625 
Q 33.9375 0 27.875 0 
Q 17.828125 0 11.671875 7.65625 
Q 5.515625 15.328125 5.515625 27.984375 
Q 5.515625 40.671875 11.671875 48.328125 
Q 17.828125 56 27.875 56 
Q 33.9375 56 38.28125 53.609375 
Q 42.625 51.21875 45.40625 46.390625 
L 45.40625 54.6875 
L 54.390625 54.6875 
z
" id="DejaVuSans-103"/>
      <path d="M 54.890625 33.015625 
L 54.890625 0 
L 45.90625 0 
L 45.90625 32.71875 
Q 45.90625 40.484375 42.875 44.328125 
Q 39.84375 48.1875 33.796875 48.1875 
Q 26.515625 48.1875 22.3125 43.546875 
Q 18.109375 38.921875 18.109375 30.90625 
L 18.109375 0 
L 9.078125 0 
L 9.078125 54.6875 
L 18.109375 54.6875 
L 18.109375 46.1875 
Q 21.34375 51.125 25.703125 53.5625 
Q 30.078125 56 35.796875 56 
Q 45.21875 56 50.046875 50.171875 
Q 54.890625 44.34375 54.890625 33.015625 
z
" id="DejaVuSans-110"/>
      <path d="M 41.109375 46.296875 
Q 39.59375 47.171875 37.8125 47.578125 
Q 36.03125 48 33.890625 48 
Q 26.265625 48 22.1875 43.046875 
Q 18.109375 38.09375 18.109375 28.8125 
L 18.109375 0 
L 9.078125 0 
L 9.078125 54.6875 
L 18.109375 54.6875 
L 18.109375 46.1875 
Q 20.953125 51.171875 25.484375 53.578125 
Q 30.03125 56 36.53125 56 
Q 37.453125 56 38.578125 55.875 
Q 39.703125 55.765625 41.0625 55.515625 
z
" id="DejaVuSans-114"/>
      <path d="M 34.28125 27.484375 
Q 23.390625 27.484375 19.1875 25 
Q 14.984375 22.515625 14.984375 16.5 
Q 14.984375 11.71875 18.140625 8.90625 
Q 21.296875 6.109375 26.703125 6.109375 
Q 34.1875 6.109375 38.703125 11.40625 
Q 43.21875 16.703125 43.21875 25.484375 
L 43.21875 27.484375 
z
M 52.203125 31.203125 
L 52.203125 0 
L 43.21875 0 
L 43.21875 8.296875 
Q 40.140625 3.328125 35.546875 0.953125 
Q 30.953125 -1.421875 24.3125 -1.421875 
Q 15.921875 -1.421875 10.953125 3.296875 
Q 6 8.015625 6 15.921875 
Q 6 25.140625 12.171875 29.828125 
Q 18.359375 34.515625 30.609375 34.515625 
L 43.21875 34.515625 
L 43.21875 35.40625 
Q 43.21875 41.609375 39.140625 45 
Q 35.0625 48.390625 27.6875 48.390625 
Q 23 48.390625 18.546875 47.265625 
Q 14.109375 46.140625 10.015625 43.890625 
L 10.015625 52.203125 
Q 14.9375 54.109375 19.578125 55.046875 
Q 24.21875 56 28.609375 56 
Q 40.484375 56 46.34375 49.84375 
Q 52.203125 43.703125 52.203125 31.203125 
z
" id="DejaVuSans-97"/>
      <path d="M 18.3125 70.21875 
L 18.3125 54.6875 
L 36.8125 54.6875 
L 36.8125 47.703125 
L 18.3125 47.703125 
L 18.3125 18.015625 
Q 18.3125 11.328125 20.140625 9.421875 
Q 21.96875 7.515625 27.59375 7.515625 
L 36.8125 7.515625 
L 36.8125 0 
L 27.59375 0 
Q 17.1875 0 13.234375 3.875 
Q 9.28125 7.765625 9.28125 18.015625 
L 9.28125 47.703125 
L 2.6875 47.703125 
L 2.6875 54.6875 
L 9.28125 54.6875 
L 9.28125 70.21875 
z
" id="DejaVuSans-116"/>
      <path d="M 9.8125 72.90625 
L 55.90625 72.90625 
L 55.90625 64.59375 
L 19.671875 64.59375 
L 19.671875 43.015625 
L 54.390625 43.015625 
L 54.390625 34.71875 
L 19.671875 34.71875 
L 19.671875 8.296875 
L 56.78125 8.296875 
L 56.78125 0 
L 9.8125 0 
z
" id="DejaVuSans-69"/>
      <path d="M 54.890625 54.6875 
L 35.109375 28.078125 
L 55.90625 0 
L 45.3125 0 
L 29.390625 21.484375 
L 13.484375 0 
L 2.875 0 
L 24.125 28.609375 
L 4.6875 54.6875 
L 15.28125 54.6875 
L 29.78125 35.203125 
L 44.28125 54.6875 
z
" id="DejaVuSans-120"/>
      <path d="M 52 44.1875 
Q 55.375 50.25 60.0625 53.125 
Q 64.75 56 71.09375 56 
Q 79.640625 56 84.28125 50.015625 
Q 88.921875 44.046875 88.921875 33.015625 
L 88.921875 0 
L 79.890625 0 
L 79.890625 32.71875 
Q 79.890625 40.578125 77.09375 44.375 
Q 74.3125 48.1875 68.609375 48.1875 
Q 61.625 48.1875 57.5625 43.546875 
Q 53.515625 38.921875 53.515625 30.90625 
L 53.515625 0 
L 44.484375 0 
L 44.484375 32.71875 
Q 44.484375 40.625 41.703125 44.40625 
Q 38.921875 48.1875 33.109375 48.1875 
Q 26.21875 48.1875 22.15625 43.53125 
Q 18.109375 38.875 18.109375 30.90625 
L 18.109375 0 
L 9.078125 0 
L 9.078125 54.6875 
L 18.109375 54.6875 
L 18.109375 46.1875 
Q 21.1875 51.21875 25.484375 53.609375 
Q 29.78125 56 35.6875 56 
Q 41.65625 56 45.828125 52.96875 
Q 50 49.953125 52 44.1875 
z
" id="DejaVuSans-109"/>
      <path d="M 18.109375 8.203125 
L 18.109375 -20.796875 
L 9.078125 -20.796875 
L 9.078125 54.6875 
L 18.109375 54.6875 
L 18.109375 46.390625 
Q 20.953125 51.265625 25.265625 53.625 
Q 29.59375 56 35.59375 56 
Q 45.5625 56 51.78125 48.09375 
Q 58.015625 40.1875 58.015625 27.296875 
Q 58.015625 14.40625 51.78125 6.484375 
Q 45.5625 -1.421875 35.59375 -1.421875 
Q 29.59375 -1.421875 25.265625 0.953125 
Q 20.953125 3.328125 18.109375 8.203125 
z
M 48.6875 27.296875 
Q 48.6875 37.203125 44.609375 42.84375 
Q 40.53125 48.484375 33.40625 48.484375 
Q 26.265625 48.484375 22.1875 42.84375 
Q 18.109375 37.203125 18.109375 27.296875 
Q 18.109375 17.390625 22.1875 11.75 
Q 26.265625 6.109375 33.40625 6.109375 
Q 40.53125 6.109375 44.609375 11.75 
Q 48.6875 17.390625 48.6875 27.296875 
z
" id="DejaVuSans-112"/>
      <path d="M 9.421875 75.984375 
L 18.40625 75.984375 
L 18.40625 0 
L 9.421875 0 
z
" id="DejaVuSans-108"/>
     </defs>
     <use xlink:href="#DejaVuSans-82"/>
     <use x="69.482422" xlink:href="#DejaVuSans-105"/>
     <use x="97.265625" xlink:href="#DejaVuSans-98"/>
     <use x="160.742188" xlink:href="#DejaVuSans-32"/>
     <use x="192.529297" xlink:href="#DejaVuSans-71"/>
     <use x="270.019531" xlink:href="#DejaVuSans-99"/>
     <use x="325" xlink:href="#DejaVuSans-111"/>
     <use x="386.181641" xlink:href="#DejaVuSans-100"/>
     <use x="449.658203" xlink:href="#DejaVuSans-101"/>
     <use x="511.181641" xlink:href="#DejaVuSans-32"/>
     <use x="542.96875" xlink:href="#DejaVuSans-103"/>
     <use x="606.445312" xlink:href="#DejaVuSans-101"/>
     <use x="667.96875" xlink:href="#DejaVuSans-110"/>
     <use x="731.347656" xlink:href="#DejaVuSans-101"/>
     <use x="792.871094" xlink:href="#DejaVuSans-114"/>
     <use x="833.984375" xlink:href="#DejaVuSans-97"/>
     <use x="895.263672" xlink:href="#DejaVuSans-116"/>
     <use x="934.472656" xlink:href="#DejaVuSans-105"/>
     <use x="962.255859" xlink:href="#DejaVuSans-111"/>
     <use x="1023.4375" xlink:href="#DejaVuSans-110"/>
     <use x="1086.816406" xlink:href="#DejaVuSans-32"/>
     <use x="1118.603516" xlink:href="#DejaVuSans-69"/>
     <use x="1181.787109" xlink:href="#DejaVuSans-120"/>
     <use x="1240.966797" xlink:href="#DejaVuSans-97"/>
     <use x="1302.246094" xlink:href="#DejaVuSans-109"/>
     <use x="1399.658203" xlink:href="#DejaVuSans-112"/>
     <use x="1463.134766" xlink:href="#DejaVuSans-108"/>
     <use x="1490.917969" xlink:href="#DejaVuSans-101"/>
    </g>
   </g>
  </g>
 </g>
 <defs>
  <clipPath id="p0116b57028">
   <rect height="443.52" width="558" x="90" y="69.12"/>
  </clipPath>
 </defs>
</svg>
