<?xml version="1.0" encoding="utf-8" standalone="no"?>
<!DOCTYPE svg PUBLIC "-//W3C//DTD SVG 1.1//EN"
  "http://www.w3.org/Graphics/SVG/1.1/DTD/svg11.dtd">
<!-- Created with matplotlib (https://matplotlib.org/) -->
<svg height="576pt" version="1.1" viewBox="0 0 720 576" width="720pt" xmlns="http://www.w3.org/2000/svg" xmlns:xlink="http://www.w3.org/1999/xlink">
 <metadata>
  <rdf:RDF xmlns:cc="http://creativecommons.org/ns#" xmlns:dc="http://purl.org/dc/elements/1.1/" xmlns:rdf="http://www.w3.org/1999/02/22-rdf-syntax-ns#">
   <cc:Work>
    <dc:type rdf:resource="http://purl.org/dc/dcmitype/StillImage"/>
    <dc:date>2025-09-09T11:38:34.203938</dc:date>
    <dc:format>image/svg+xml</dc:format>
    <dc:creator>
     <cc:Agent>
      <dc:title>Matplotlib v3.3.2, https://matplotlib.org/</dc:title>
     </cc:Agent>
    </dc:creator>
   </cc:Work>
  </rdf:RDF>
 </metadata>
 <defs>
  <style type="text/css">*{stroke-linecap:butt;stroke-linejoin:round;}</style>
 </defs>
 <g id="figure_1">
  <g id="patch_1">
   <path d="M 0 576 
L 720 576 
L 720 0 
L 0 0 
z
" style="fill:#ffffff;"/>
  </g>
  <g id="axes_1">
   <g id="patch_2">
    <path d="M 90 512.64 
L 648 512.64 
L 648 69.12 
L 90 69.12 
z
" style="fill:#ffffff;"/>
   </g>
   <g id="matplotlib.axis_1">
    <g id="xtick_1">
     <g id="line2d_1">
      <defs>
       <path d="M 0 0 
L 0 3.5 
" id="m6544c9679e" style="stroke:#000000;stroke-width:0.8;"/>
      </defs>
      <g>
       <use style="stroke:#000000;stroke-width:0.8;" x="131.215909" xlink:href="#m6544c9679e" y="512.64"/>
      </g>
     </g>
     <g id="text_1">
      <!-- 0 -->
      <g transform="translate(128.034659 527.238438)scale(0.1 -0.1)">
       <defs>
        <path d="M 31.78125 66.40625 
Q 24.171875 66.40625 20.328125 58.90625 
Q 16.5 51.421875 16.5 36.375 
Q 16.5 21.390625 20.328125 13.890625 
Q 24.171875 6.390625 31.78125 6.390625 
Q 39.453125 6.390625 43.28125 13.890625 
Q 47.125 21.390625 47.125 36.375 
Q 47.125 51.421875 43.28125 58.90625 
Q 39.453125 66.40625 31.78125 66.40625 
z
M 31.78125 74.21875 
Q 44.046875 74.21875 50.515625 64.515625 
Q 56.984375 54.828125 56.984375 36.375 
Q 56.984375 17.96875 50.515625 8.265625 
Q 44.046875 -1.421875 31.78125 -1.421875 
Q 19.53125 -1.421875 13.0625 8.265625 
Q 6.59375 17.96875 6.59375 36.375 
Q 6.59375 54.828125 13.0625 64.515625 
Q 19.53125 74.21875 31.78125 74.21875 
z
" id="DejaVuSans-48"/>
       </defs>
       <use xlink:href="#DejaVuSans-48"/>
      </g>
     </g>
    </g>
    <g id="xtick_2">
     <g id="line2d_2">
      <g>
       <use style="stroke:#000000;stroke-width:0.8;" x="210.477273" xlink:href="#m6544c9679e" y="512.64"/>
      </g>
     </g>
     <g id="text_2">
      <!-- 100 -->
      <g transform="translate(200.933523 527.238438)scale(0.1 -0.1)">
       <defs>
        <path d="M 12.40625 8.296875 
L 28.515625 8.296875 
L 28.515625 63.921875 
L 10.984375 60.40625 
L 10.984375 69.390625 
L 28.421875 72.90625 
L 38.28125 72.90625 
L 38.28125 8.296875 
L 54.390625 8.296875 
L 54.390625 0 
L 12.40625 0 
z
" id="DejaVuSans-49"/>
       </defs>
       <use xlink:href="#DejaVuSans-49"/>
       <use x="63.623047" xlink:href="#DejaVuSans-48"/>
       <use x="127.246094" xlink:href="#DejaVuSans-48"/>
      </g>
     </g>
    </g>
    <g id="xtick_3">
     <g id="line2d_3">
      <g>
       <use style="stroke:#000000;stroke-width:0.8;" x="289.738636" xlink:href="#m6544c9679e" y="512.64"/>
      </g>
     </g>
     <g id="text_3">
      <!-- 200 -->
      <g transform="translate(280.194886 527.238438)scale(0.1 -0.1)">
       <defs>
        <path d="M 19.1875 8.296875 
L 53.609375 8.296875 
L 53.609375 0 
L 7.328125 0 
L 7.328125 8.296875 
Q 12.9375 14.109375 22.625 23.890625 
Q 32.328125 33.6875 34.8125 36.53125 
Q 39.546875 41.84375 41.421875 45.53125 
Q 43.3125 49.21875 43.3125 52.78125 
Q 43.3125 58.59375 39.234375 62.25 
Q 35.15625 65.921875 28.609375 65.921875 
Q 23.96875 65.921875 18.8125 64.3125 
Q 13.671875 62.703125 7.8125 59.421875 
L 7.8125 69.390625 
Q 13.765625 71.78125 18.9375 73 
Q 24.125 74.21875 28.421875 74.21875 
Q 39.75 74.21875 46.484375 68.546875 
Q 53.21875 62.890625 53.21875 53.421875 
Q 53.21875 48.921875 51.53125 44.890625 
Q 49.859375 40.875 45.40625 35.40625 
Q 44.1875 33.984375 37.640625 27.21875 
Q 31.109375 20.453125 19.1875 8.296875 
z
" id="DejaVuSans-50"/>
       </defs>
       <use xlink:href="#DejaVuSans-50"/>
       <use x="63.623047" xlink:href="#DejaVuSans-48"/>
       <use x="127.246094" xlink:href="#DejaVuSans-48"/>
      </g>
     </g>
    </g>
    <g id="xtick_4">
     <g id="line2d_4">
      <g>
       <use style="stroke:#000000;stroke-width:0.8;" x="369" xlink:href="#m6544c9679e" y="512.64"/>
      </g>
     </g>
     <g id="text_4">
      <!-- 300 -->
      <g transform="translate(359.45625 527.238438)scale(0.1 -0.1)">
       <defs>
        <path d="M 40.578125 39.3125 
Q 47.65625 37.796875 51.625 33 
Q 55.609375 28.21875 55.609375 21.1875 
Q 55.609375 10.40625 48.1875 4.484375 
Q 40.765625 -1.421875 27.09375 -1.421875 
Q 22.515625 -1.421875 17.65625 -0.515625 
Q 12.796875 0.390625 7.625 2.203125 
L 7.625 11.71875 
Q 11.71875 9.328125 16.59375 8.109375 
Q 21.484375 6.890625 26.8125 6.890625 
Q 36.078125 6.890625 40.9375 10.546875 
Q 45.796875 14.203125 45.796875 21.1875 
Q 45.796875 27.640625 41.28125 31.265625 
Q 36.765625 34.90625 28.71875 34.90625 
L 20.21875 34.90625 
L 20.21875 43.015625 
L 29.109375 43.015625 
Q 36.375 43.015625 40.234375 45.921875 
Q 44.09375 48.828125 44.09375 54.296875 
Q 44.09375 59.90625 40.109375 62.90625 
Q 36.140625 65.921875 28.71875 65.921875 
Q 24.65625 65.921875 20.015625 65.03125 
Q 15.375 64.15625 9.8125 62.3125 
L 9.8125 71.09375 
Q 15.4375 72.65625 20.34375 73.4375 
Q 25.25 74.21875 29.59375 74.21875 
Q 40.828125 74.21875 47.359375 69.109375 
Q 53.90625 64.015625 53.90625 55.328125 
Q 53.90625 49.265625 50.4375 45.09375 
Q 46.96875 40.921875 40.578125 39.3125 
z
" id="DejaVuSans-51"/>
       </defs>
       <use xlink:href="#DejaVuSans-51"/>
       <use x="63.623047" xlink:href="#DejaVuSans-48"/>
       <use x="127.246094" xlink:href="#DejaVuSans-48"/>
      </g>
     </g>
    </g>
    <g id="xtick_5">
     <g id="line2d_5">
      <g>
       <use style="stroke:#000000;stroke-width:0.8;" x="448.261364" xlink:href="#m6544c9679e" y="512.64"/>
      </g>
     </g>
     <g id="text_5">
      <!-- 400 -->
      <g transform="translate(438.717614 527.238438)scale(0.1 -0.1)">
       <defs>
        <path d="M 37.796875 64.3125 
L 12.890625 25.390625 
L 37.796875 25.390625 
z
M 35.203125 72.90625 
L 47.609375 72.90625 
L 47.609375 25.390625 
L 58.015625 25.390625 
L 58.015625 17.1875 
L 47.609375 17.1875 
L 47.609375 0 
L 37.796875 0 
L 37.796875 17.1875 
L 4.890625 17.1875 
L 4.890625 26.703125 
z
" id="DejaVuSans-52"/>
       </defs>
       <use xlink:href="#DejaVuSans-52"/>
       <use x="63.623047" xlink:href="#DejaVuSans-48"/>
       <use x="127.246094" xlink:href="#DejaVuSans-48"/>
      </g>
     </g>
    </g>
    <g id="xtick_6">
     <g id="line2d_6">
      <g>
       <use style="stroke:#000000;stroke-width:0.8;" x="527.522727" xlink:href="#m6544c9679e" y="512.64"/>
      </g>
     </g>
     <g id="text_6">
      <!-- 500 -->
      <g transform="translate(517.978977 527.238438)scale(0.1 -0.1)">
       <defs>
        <path d="M 10.796875 72.90625 
L 49.515625 72.90625 
L 49.515625 64.59375 
L 19.828125 64.59375 
L 19.828125 46.734375 
Q 21.96875 47.46875 24.109375 47.828125 
Q 26.265625 48.1875 28.421875 48.1875 
Q 40.625 48.1875 47.75 41.5 
Q 54.890625 34.8125 54.890625 23.390625 
Q 54.890625 11.625 47.5625 5.09375 
Q 40.234375 -1.421875 26.90625 -1.421875 
Q 22.3125 -1.421875 17.546875 -0.640625 
Q 12.796875 0.140625 7.71875 1.703125 
L 7.71875 11.625 
Q 12.109375 9.234375 16.796875 8.0625 
Q 21.484375 6.890625 26.703125 6.890625 
Q 35.15625 6.890625 40.078125 11.328125 
Q 45.015625 15.765625 45.015625 23.390625 
Q 45.015625 31 40.078125 35.4375 
Q 35.15625 39.890625 26.703125 39.890625 
Q 22.75 39.890625 18.8125 39.015625 
Q 14.890625 38.140625 10.796875 36.28125 
z
" id="DejaVuSans-53"/>
       </defs>
       <use xlink:href="#DejaVuSans-53"/>
       <use x="63.623047" xlink:href="#DejaVuSans-48"/>
       <use x="127.246094" xlink:href="#DejaVuSans-48"/>
      </g>
     </g>
    </g>
    <g id="xtick_7">
     <g id="line2d_7">
      <g>
       <use style="stroke:#000000;stroke-width:0.8;" x="606.784091" xlink:href="#m6544c9679e" y="512.64"/>
      </g>
     </g>
     <g id="text_7">
      <!-- 600 -->
      <g transform="translate(597.240341 527.238438)scale(0.1 -0.1)">
       <defs>
        <path d="M 33.015625 40.375 
Q 26.375 40.375 22.484375 35.828125 
Q 18.609375 31.296875 18.609375 23.390625 
Q 18.609375 15.53125 22.484375 10.953125 
Q 26.375 6.390625 33.015625 6.390625 
Q 39.65625 6.390625 43.53125 10.953125 
Q 47.40625 15.53125 47.40625 23.390625 
Q 47.40625 31.296875 43.53125 35.828125 
Q 39.65625 40.375 33.015625 40.375 
z
M 52.59375 71.296875 
L 52.59375 62.3125 
Q 48.875 64.0625 45.09375 64.984375 
Q 41.3125 65.921875 37.59375 65.921875 
Q 27.828125 65.921875 22.671875 59.328125 
Q 17.53125 52.734375 16.796875 39.40625 
Q 19.671875 43.65625 24.015625 45.921875 
Q 28.375 48.1875 33.59375 48.1875 
Q 44.578125 48.1875 50.953125 41.515625 
Q 57.328125 34.859375 57.328125 23.390625 
Q 57.328125 12.15625 50.6875 5.359375 
Q 44.046875 -1.421875 33.015625 -1.421875 
Q 20.359375 -1.421875 13.671875 8.265625 
Q 6.984375 17.96875 6.984375 36.375 
Q 6.984375 53.65625 15.1875 63.9375 
Q 23.390625 74.21875 37.203125 74.21875 
Q 40.921875 74.21875 44.703125 73.484375 
Q 48.484375 72.75 52.59375 71.296875 
z
" id="DejaVuSans-54"/>
       </defs>
       <use xlink:href="#DejaVuSans-54"/>
       <use x="63.623047" xlink:href="#DejaVuSans-48"/>
       <use x="127.246094" xlink:href="#DejaVuSans-48"/>
      </g>
     </g>
    </g>
   </g>
   <g id="matplotlib.axis_2">
    <g id="ytick_1">
     <g id="line2d_8">
      <defs>
       <path d="M 0 0 
L -3.5 0 
" id="me542a2077f" style="stroke:#000000;stroke-width:0.8;"/>
      </defs>
      <g>
       <use style="stroke:#000000;stroke-width:0.8;" x="90" xlink:href="#me542a2077f" y="460.650733"/>
      </g>
     </g>
     <g id="text_8">
      <!-- −200 -->
      <g transform="translate(55.532812 464.449951)scale(0.1 -0.1)">
       <defs>
        <path d="M 10.59375 35.5 
L 73.1875 35.5 
L 73.1875 27.203125 
L 10.59375 27.203125 
z
" id="DejaVuSans-8722"/>
       </defs>
       <use xlink:href="#DejaVuSans-8722"/>
       <use x="83.789062" xlink:href="#DejaVuSans-50"/>
       <use x="147.412109" xlink:href="#DejaVuSans-48"/>
       <use x="211.035156" xlink:href="#DejaVuSans-48"/>
      </g>
     </g>
    </g>
    <g id="ytick_2">
     <g id="line2d_9">
      <g>
       <use style="stroke:#000000;stroke-width:0.8;" x="90" xlink:href="#me542a2077f" y="381.389369"/>
      </g>
     </g>
     <g id="text_9">
      <!-- −100 -->
      <g transform="translate(55.532812 385.188588)scale(0.1 -0.1)">
       <use xlink:href="#DejaVuSans-8722"/>
       <use x="83.789062" xlink:href="#DejaVuSans-49"/>
       <use x="147.412109" xlink:href="#DejaVuSans-48"/>
       <use x="211.035156" xlink:href="#DejaVuSans-48"/>
      </g>
     </g>
    </g>
    <g id="ytick_3">
     <g id="line2d_10">
      <g>
       <use style="stroke:#000000;stroke-width:0.8;" x="90" xlink:href="#me542a2077f" y="302.128005"/>
      </g>
     </g>
     <g id="text_10">
      <!-- 0 -->
      <g transform="translate(76.6375 305.927224)scale(0.1 -0.1)">
       <use xlink:href="#DejaVuSans-48"/>
      </g>
     </g>
    </g>
    <g id="ytick_4">
     <g id="line2d_11">
      <g>
       <use style="stroke:#000000;stroke-width:0.8;" x="90" xlink:href="#me542a2077f" y="222.866642"/>
      </g>
     </g>
     <g id="text_11">
      <!-- 100 -->
      <g transform="translate(63.9125 226.665861)scale(0.1 -0.1)">
       <use xlink:href="#DejaVuSans-49"/>
       <use x="63.623047" xlink:href="#DejaVuSans-48"/>
       <use x="127.246094" xlink:href="#DejaVuSans-48"/>
      </g>
     </g>
    </g>
    <g id="ytick_5">
     <g id="line2d_12">
      <g>
       <use style="stroke:#000000;stroke-width:0.8;" x="90" xlink:href="#me542a2077f" y="143.605278"/>
      </g>
     </g>
     <g id="text_12">
      <!-- 200 -->
      <g transform="translate(63.9125 147.404497)scale(0.1 -0.1)">
       <use xlink:href="#DejaVuSans-50"/>
       <use x="63.623047" xlink:href="#DejaVuSans-48"/>
       <use x="127.246094" xlink:href="#DejaVuSans-48"/>
      </g>
     </g>
    </g>
   </g>
   <g id="line2d_13">
    <path clip-path="url(#p29044ff322)" d="M 606.811755 301.566883 
L 584.210504 297.09963 
L 557.120822 291.954675 
L 533.134789 287.609033 
L 510.778963 283.779777 
L 490.071072 280.449997 
L 471.013484 277.594556 
L 452.153292 274.988487 
L 433.524038 272.640991 
L 415.158848 270.563443 
L 397.091884 268.756077 
L 379.357367 267.212804 
L 361.988115 265.935686 
L 346.307171 264.994732 
L 330.990213 264.282885 
L 316.061855 263.806413 
L 302.739564 263.600043 
L 289.783603 263.616742 
L 277.213235 263.849444 
L 265.047223 264.290388 
L 253.30382 264.931427 
L 242.000761 265.763869 
L 231.155224 266.778284 
L 220.783799 267.964431 
L 210.902589 269.312026 
L 201.527161 270.810148 
L 192.672553 272.447248 
L 184.353253 274.211229 
L 176.583497 276.08975 
L 169.377035 278.069304 
L 162.747221 280.13545 
L 157.232639 282.078418 
L 152.215822 284.070071 
L 147.710246 286.099382 
L 143.725699 288.149898 
L 140.600469 290.010569 
L 137.919156 291.86941 
L 135.926057 293.498319 
L 134.303084 295.077918 
L 133.055773 296.602173 
L 132.168777 298.041972 
L 131.567322 299.448067 
L 131.259704 300.722186 
L 131.198763 301.932806 
L 131.367342 303.060942 
L 131.729389 304.100424 
L 132.329262 305.151598 
L 133.108708 306.093333 
L 134.330203 307.186637 
L 135.874206 308.242778 
L 137.713745 309.250423 
L 140.164857 310.327645 
L 143.335583 311.4481 
L 146.928989 312.464362 
L 151.394784 313.48355 
L 156.340871 314.393163 
L 162.322662 315.269866 
L 169.47642 316.087337 
L 177.947216 316.812153 
L 187.147192 317.376331 
L 197.847221 317.812355 
L 210.195664 318.089497 
L 224.340895 318.179294 
L 240.428552 318.058026 
L 259.640863 317.685741 
L 283.422044 316.989692 
L 317.102628 315.754153 
L 351.897797 314.281622 
L 394.049243 312.240649 
L 512.268283 306.387246 
L 554.019245 304.607386 
L 594.678306 303.111253 
L 606.756127 302.689128 
L 606.756127 302.689128 
" style="fill:none;stroke:#0000ff;stroke-linecap:square;stroke-width:1.5;"/>
   </g>
   <g id="line2d_14">
    <path clip-path="url(#p29044ff322)" d="M 131.191314 301.629176 
L 131.276136 301.622803 
L 139.369814 300.415171 
L 150.149491 299.094415 
L 164.719535 297.530925 
L 181.205088 295.989414 
L 199.211787 294.534946 
L 218.008914 293.242801 
L 237.896212 292.106093 
L 257.512777 291.206591 
L 277.431551 290.513597 
L 297.389542 290.04076 
L 317.15165 289.79257 
L 340.217219 289.745321 
L 365.524908 289.91035 
L 391.788445 290.312151 
L 417.529414 290.932265 
L 442.541332 291.758174 
L 468.080334 292.829788 
L 494.064446 294.151876 
L 521.882836 295.804774 
L 550.004746 297.704995 
L 579.824095 299.943052 
L 606.756127 302.122362 
L 606.756127 302.122362 
" style="fill:none;stroke:#008000;stroke-dasharray:5.55,2.4;stroke-dashoffset:0;stroke-width:1.5;"/>
   </g>
   <g id="line2d_15">
    <path clip-path="url(#p29044ff322)" d="M 464.113636 278.215912 
L 446.193154 275.810349 
L 427.661423 273.547392 
L 409.404781 271.556005 
L 391.456747 269.831816 
L 373.852189 268.372172 
L 356.623816 267.178706 
L 341.082629 266.315352 
L 325.914872 265.680947 
L 311.148144 265.290227 
L 297.983303 265.165847 
L 285.19256 265.2618 
L 272.795053 265.570436 
L 260.809499 266.083885 
L 249.254076 266.793709 
L 238.146457 267.690942 
L 227.50372 268.765717 
L 217.342603 270.007686 
L 207.679236 271.406164 
L 198.529171 272.949717 
L 189.907805 274.626594 
L 181.830124 276.424127 
L 174.310245 278.328922 
L 167.363187 280.327162 
L 161.003565 282.402865 
L 155.744261 284.345697 
L 150.995872 286.326541 
L 146.769925 288.331216 
L 143.431613 290.139415 
L 140.54349 291.945484 
L 138.119358 293.721356 
L 136.173196 295.431896 
L 134.860195 296.850524 
L 133.919647 298.16662 
L 133.252387 299.463631 
L 132.88304 300.643487 
L 132.777241 301.714417 
L 132.905181 302.676239 
L 133.224756 303.556558 
L 133.808506 304.485772 
L 134.662222 305.395756 
L 135.85887 306.343055 
L 137.642844 307.43056 
L 139.826107 308.475229 
L 142.742406 309.585232 
L 146.101887 310.607722 
L 150.343164 311.640279 
L 155.081822 312.570854 
L 160.854436 313.472545 
L 167.795508 314.320464 
L 175.389575 315.026184 
L 184.330349 315.636848 
L 194.765624 316.121489 
L 206.844331 316.449339 
L 220.71663 316.590805 
L 226.329545 316.590623 
L 226.329545 316.590623 
" style="fill:none;stroke:#0000ff;stroke-linecap:square;stroke-width:1.5;"/>
   </g>
   <g id="line2d_16">
    <path clip-path="url(#p29044ff322)" d="M 464.113636 278.215912 
L 464.113636 276.615259 
" style="fill:none;stroke:#0000ff;stroke-linecap:square;stroke-width:1.5;"/>
   </g>
   <g id="line2d_17">
    <path clip-path="url(#p29044ff322)" d="M 226.329545 316.590623 
L 226.329545 318.175856 
" style="fill:none;stroke:#0000ff;stroke-linecap:square;stroke-width:1.5;"/>
   </g>
   <g id="line2d_18">
    <path clip-path="url(#p29044ff322)" d="M 448.261364 276.07739 
L 448.261364 279.247844 
L 450.639205 279.558344 
L 450.639205 276.387889 
" style="fill:none;stroke:#0000ff;stroke-linecap:square;stroke-width:1.5;"/>
   </g>
   <g id="line2d_19">
    <path clip-path="url(#p29044ff322)" d="M 210.477273 316.508069 
L 210.477273 313.337615 
L 212.855114 313.367251 
L 212.855114 316.537705 
" style="fill:none;stroke:#0000ff;stroke-linecap:square;stroke-width:1.5;"/>
   </g>
   <g id="line2d_20">
    <path clip-path="url(#p29044ff322)" d="M 317.480114 290.035794 
L 317.440219 288.779028 
L 317.320696 287.527322 
L 317.122025 286.285716 
L 316.845006 285.059211 
L 316.490756 283.852745 
L 316.0607 282.671176 
L 315.55657 281.519261 
L 314.980396 280.40164 
L 314.334498 279.322812 
L 313.621477 278.287121 
L 312.844205 277.298739 
L 312.005809 276.361643 
L 311.109668 275.479609 
L 310.159389 274.656187 
L 309.158798 273.894694 
L 308.111925 273.198195 
L 307.022985 272.569495 
L 305.896363 272.011126 
L 304.736595 271.525336 
L 303.548351 271.114081 
L 302.336416 270.779017 
L 301.105671 270.521493 
L 299.861069 270.342546 
L 298.607625 270.242897 
L 297.350383 270.222947 
L 296.094408 270.282777 
L 294.844756 270.422145 
L 293.606459 270.64049 
L 292.384503 270.936933 
L 291.18381 271.310281 
L 290.009212 271.759029 
L 288.865441 272.281372 
L 287.757102 272.875206 
L 286.688658 273.538139 
L 285.66441 274.267502 
L 284.688484 275.060359 
L 283.764809 275.913516 
L 282.897104 276.823539 
L 282.088863 277.786763 
L 281.34334 278.79931 
L 280.663539 279.857102 
L 280.052195 280.955879 
L 279.511771 282.091219 
L 279.044443 283.258548 
L 278.652092 284.453168 
L 278.336299 285.670266 
L 278.098335 286.904943 
L 277.939157 288.152226 
L 277.859408 289.407094 
L 277.859408 290.664494 
L 277.939157 291.919362 
L 278.098335 293.166646 
L 278.336299 294.401323 
L 278.652092 295.618421 
L 279.044443 296.81304 
L 279.511771 297.980369 
L 280.052195 299.115709 
L 280.663539 300.214487 
L 281.34334 301.272279 
L 282.088863 302.284825 
L 282.897104 303.248049 
L 283.764809 304.158072 
L 284.688484 305.01123 
L 285.66441 305.804086 
L 286.688658 306.53345 
L 287.757102 307.196383 
L 288.865441 307.790216 
L 290.009212 308.312559 
L 291.18381 308.761308 
L 292.384503 309.134655 
L 293.606459 309.431098 
L 294.844756 309.649444 
L 296.094408 309.788811 
L 297.350383 309.848641 
L 298.607625 309.828691 
L 299.861069 309.729042 
L 301.105671 309.550096 
L 302.336416 309.292572 
L 303.548351 308.957508 
L 304.736595 308.546253 
L 305.896363 308.060462 
L 307.022985 307.502093 
L 308.111925 306.873393 
L 309.158798 306.176894 
L 310.159389 305.415401 
L 311.109668 304.591979 
L 312.005809 303.709945 
L 312.844205 302.77285 
L 313.621477 301.784467 
L 314.334498 300.748776 
L 314.980396 299.669948 
L 315.55657 298.552327 
L 316.0607 297.400412 
L 316.490756 296.218843 
L 316.845006 295.012377 
L 317.122025 293.785872 
L 317.320696 292.544267 
L 317.440219 291.292561 
L 317.480114 290.035794 
" style="fill:none;stroke:#0000ff;stroke-linecap:square;stroke-width:1.5;"/>
   </g>
   <g id="line2d_21">
    <path clip-path="url(#p29044ff322)" d="M 115.363636 290.035794 
L 622.636364 290.035794 
" style="fill:none;stroke:#0000ff;stroke-dasharray:5.55,2.4;stroke-dashoffset:0;stroke-width:1.5;"/>
   </g>
   <g id="line2d_22">
    <path clip-path="url(#p29044ff322)" d="M 115.613474 299.576698 
L 622.191001 273.028095 
" style="fill:none;stroke:#ff0000;stroke-dasharray:5.55,2.4;stroke-dashoffset:0;stroke-width:1.5;"/>
   </g>
   <g id="line2d_23">
    <path clip-path="url(#p29044ff322)" d="M 273.198288 276.930034 
L 256.431622 305.767518 
L 255.742741 306.297563 
L 254.935805 306.620612 
L 254.071465 306.712382 
L 253.214686 306.565977 
L 252.429864 306.1924 
L 251.775988 305.61973 
L 251.426363 305.128751 
L 251.426363 305.128751 
L 235.985505 278.193137 
L 235.864512 277.35863 
L 235.967777 276.521744 
L 236.287996 275.741679 
L 236.802518 275.073615 
L 237.474945 274.56481 
L 238.257712 274.251255 
L 238.835357 274.160828 
L 238.835357 274.160828 
L 271.077963 272.236641 
L 271.860244 272.503979 
L 272.546817 272.964469 
L 273.091001 273.586801 
L 273.455797 274.328661 
L 273.616401 275.139611 
L 273.561894 275.964512 
L 273.295982 276.747279 
L 273.198288 276.930034 
L 273.198288 276.930034 
" style="fill:none;stroke:#0000ff;stroke-linecap:square;stroke-width:1.5;"/>
   </g>
   <g id="line2d_24">
    <path clip-path="url(#p29044ff322)" d="M 242.37631 305.305871 
L 227.382031 279.538253 
L 226.69315 279.008208 
L 225.886214 278.685159 
L 225.021875 278.593389 
L 224.165095 278.739794 
L 223.380273 279.113371 
L 222.726397 279.686041 
L 222.376772 280.17702 
L 222.376772 280.17702 
L 207.552865 306.056079 
L 207.438309 306.917834 
L 207.562119 307.778308 
L 207.914989 308.572806 
L 208.470388 309.241595 
L 209.186557 309.73439 
L 210.009651 310.014141 
L 210.609777 310.071253 
L 210.609777 310.071253 
L 240.42777 309.959702 
L 241.231026 309.62797 
L 241.914031 309.090597 
L 242.425466 308.38796 
L 242.726903 307.572851 
L 242.795692 306.706518 
L 242.626666 305.854053 
L 242.37631 305.305871 
L 242.37631 305.305871 
" style="fill:none;stroke:#0000ff;stroke-linecap:square;stroke-width:1.5;"/>
   </g>
   <g id="line2d_25">
    <path clip-path="url(#p29044ff322)" d="M 211.779783 282.67927 
L 198.367093 305.707497 
L 197.678212 306.237543 
L 196.871277 306.560591 
L 196.006937 306.652361 
L 195.150157 306.505956 
L 194.365335 306.132379 
L 193.711459 305.559709 
L 193.361835 305.06873 
L 193.361835 305.06873 
L 182.671022 286.353793 
L 182.55354 285.509232 
L 182.665388 284.663906 
L 182.998477 283.878961 
L 183.528713 283.211176 
L 184.21774 282.708854 
L 185.01572 282.408331 
L 185.135312 282.383337 
L 185.135312 282.383337 
L 209.24542 277.93064 
L 210.10098 278.10849 
L 210.875491 278.513148 
L 211.510114 279.113871 
L 211.956639 279.865024 
L 212.181142 280.709544 
L 212.16657 281.583273 
L 211.91403 282.419836 
L 211.779783 282.67927 
L 211.779783 282.67927 
" style="fill:none;stroke:#0000ff;stroke-linecap:square;stroke-width:1.5;"/>
   </g>
   <g id="line2d_26">
    <path clip-path="url(#p29044ff322)" d="M 183.658565 304.114447 
L 175.071013 289.443605 
L 174.382132 288.913559 
L 173.575196 288.590511 
L 172.710856 288.498741 
L 171.854077 288.645146 
L 171.069255 289.018723 
L 170.415379 289.591393 
L 170.065754 290.082372 
L 170.065754 290.082372 
L 162.46344 303.46797 
L 162.356386 304.292418 
L 162.467336 305.116351 
L 162.788662 305.883113 
L 163.298268 306.539982 
L 163.961113 307.04179 
L 164.731619 307.354032 
L 165.236532 307.442061 
L 165.236532 307.442061 
L 181.459527 308.822645 
L 182.258323 308.570482 
L 182.9632 308.117924 
L 183.524955 307.49656 
L 183.904374 306.749765 
L 184.074972 305.929669 
L 184.024841 305.093518 
L 183.757479 304.29968 
L 183.658565 304.114447 
L 183.658565 304.114447 
" style="fill:none;stroke:#0000ff;stroke-linecap:square;stroke-width:1.5;"/>
   </g>
   <g id="line2d_27">
    <path clip-path="url(#p29044ff322)" d="M 322.371342 302.725715 
L 337.504884 276.716886 
L 338.193765 276.18684 
L 339.000701 275.863792 
L 339.865041 275.772022 
L 340.72182 275.918427 
L 341.506642 276.292004 
L 342.160518 276.864674 
L 342.510143 277.355653 
L 342.510143 277.355653 
L 356.748996 302.213038 
L 356.868054 303.056029 
L 356.758503 303.900307 
L 356.428241 304.684995 
L 355.901084 305.35351 
L 355.215043 305.857648 
L 354.419587 306.161057 
L 353.834748 306.241381 
L 353.834748 306.241381 
L 324.437985 307.407823 
L 323.667171 307.130459 
L 322.993155 306.664855 
L 322.460934 306.042098 
L 322.106042 305.303764 
L 321.952173 304.499147 
L 322.009599 303.681964 
L 322.274486 302.906774 
L 322.371342 302.725715 
L 322.371342 302.725715 
" style="fill:none;stroke:#0000ff;stroke-linecap:square;stroke-width:1.5;"/>
   </g>
   <g id="line2d_28">
    <path clip-path="url(#p29044ff322)" d="M 352.185896 278.262276 
L 365.705341 301.475406 
L 366.394222 302.005452 
L 367.201157 302.3285 
L 368.065497 302.42027 
L 368.922276 302.273865 
L 369.707098 301.900288 
L 370.360975 301.327618 
L 370.710599 300.836639 
L 370.710599 300.836639 
L 383.018886 279.328301 
L 383.140651 278.497255 
L 383.039922 277.663398 
L 382.723768 276.885253 
L 382.214379 276.217431 
L 381.547504 275.706803 
L 380.769947 275.389206 
L 380.195287 275.294727 
L 380.195287 275.294727 
L 354.328174 273.564547 
L 353.541251 273.827709 
L 352.84956 274.286038 
L 352.300479 274.908141 
L 351.931617 275.651406 
L 351.76824 276.464923 
L 351.821538 277.29297 
L 352.087861 278.078829 
L 352.185896 278.262276 
L 352.185896 278.262276 
" style="fill:none;stroke:#0000ff;stroke-linecap:square;stroke-width:1.5;"/>
   </g>
   <g id="line2d_29">
    <path clip-path="url(#p29044ff322)" d="M 380.293702 300.090491 
L 391.697114 280.542436 
L 392.385995 280.012391 
L 393.192931 279.689343 
L 394.057271 279.597572 
L 394.91405 279.743978 
L 395.698872 280.117554 
L 396.352748 280.690224 
L 396.702373 281.181203 
L 396.702373 281.181203 
L 407.308936 299.745966 
L 407.428685 300.58596 
L 407.321365 301.427632 
L 406.994664 302.2107 
L 406.471979 302.879079 
L 405.790748 303.384898 
L 404.999761 303.69193 
L 404.417443 303.77585 
L 404.417443 303.77585 
L 382.379287 304.776692 
L 381.604408 304.502836 
L 380.925954 304.03901 
L 380.389513 303.416381 
L 380.031133 302.676787 
L 379.874895 301.869927 
L 379.931297 301.050016 
L 380.19655 300.27215 
L 380.293702 300.090491 
L 380.293702 300.090491 
" style="fill:none;stroke:#0000ff;stroke-linecap:square;stroke-width:1.5;"/>
   </g>
   <g id="line2d_30">
    <path clip-path="url(#p29044ff322)" d="M 406.767806 282.762772 
L 416.22743 298.944087 
L 416.916311 299.474133 
L 417.723247 299.797181 
L 418.587586 299.888951 
L 419.444366 299.742546 
L 420.229188 299.368969 
L 420.883064 298.796299 
L 421.232689 298.30532 
L 421.232689 298.30532 
L 429.460443 283.840043 
L 429.569307 283.022818 
L 429.463784 282.205156 
L 429.151008 281.442346 
L 428.652131 280.785971 
L 428.000886 280.280415 
L 427.241311 279.959863 
L 426.742089 279.86452 
L 426.742089 279.86452 
L 409.08273 278.03649 
L 408.26922 278.261459 
L 407.543897 278.693103 
L 406.958168 279.300829 
L 406.553545 280.041565 
L 406.358706 280.862812 
L 406.387459 281.706366 
L 406.637767 282.51244 
L 406.767806 282.762772 
L 406.767806 282.762772 
" style="fill:none;stroke:#0000ff;stroke-linecap:square;stroke-width:1.5;"/>
   </g>
   <g id="line2d_31">
    <path clip-path="url(#p29044ff322)" d="M 430.832456 297.530309 
L 437.866429 285.550344 
L 438.55531 285.020298 
L 439.362246 284.69725 
L 440.226586 284.60548 
L 441.083365 284.751885 
L 441.868187 285.125462 
L 442.522063 285.698132 
L 442.871688 286.189111 
L 442.871688 286.189111 
L 449.350566 297.604392 
L 449.470378 298.44411 
L 449.363263 299.285542 
L 449.036888 300.06846 
L 448.514615 300.736826 
L 447.833826 301.242798 
L 447.04325 301.550161 
L 446.461166 301.63441 
L 446.461166 301.63441 
L 432.919785 302.21688 
L 432.144533 301.943348 
L 431.46567 301.479687 
L 430.928841 300.857072 
L 430.57014 300.117363 
L 430.413683 299.310296 
L 430.46999 298.490134 
L 430.735276 297.712022 
L 430.832456 297.530309 
L 430.832456 297.530309 
" style="fill:none;stroke:#0000ff;stroke-linecap:square;stroke-width:1.5;"/>
   </g>
   <g id="patch_3">
    <path d="M 90 512.64 
L 90 69.12 
" style="fill:none;stroke:#000000;stroke-linecap:square;stroke-linejoin:miter;stroke-width:0.8;"/>
   </g>
   <g id="patch_4">
    <path d="M 648 512.64 
L 648 69.12 
" style="fill:none;stroke:#000000;stroke-linecap:square;stroke-linejoin:miter;stroke-width:0.8;"/>
   </g>
   <g id="patch_5">
    <path d="M 90 512.64 
L 648 512.64 
" style="fill:none;stroke:#000000;stroke-linecap:square;stroke-linejoin:miter;stroke-width:0.8;"/>
   </g>
   <g id="patch_6">
    <path d="M 90 69.12 
L 648 69.12 
" style="fill:none;stroke:#000000;stroke-linecap:square;stroke-linejoin:miter;stroke-width:0.8;"/>
   </g>
   <g id="text_13">
    <!-- Rib generation Example -->
    <g transform="translate(296.878125 63.12)scale(0.12 -0.12)">
     <defs>
      <path d="M 44.390625 34.1875 
Q 47.5625 33.109375 50.5625 29.59375 
Q 53.5625 26.078125 56.59375 19.921875 
L 66.609375 0 
L 56 0 
L 46.6875 18.703125 
Q 43.0625 26.03125 39.671875 28.421875 
Q 36.28125 30.8125 30.421875 30.8125 
L 19.671875 30.8125 
L 19.671875 0 
L 9.8125 0 
L 9.8125 72.90625 
L 32.078125 72.90625 
Q 44.578125 72.90625 50.734375 67.671875 
Q 56.890625 62.453125 56.890625 51.90625 
Q 56.890625 45.015625 53.6875 40.46875 
Q 50.484375 35.9375 44.390625 34.1875 
z
M 19.671875 64.796875 
L 19.671875 38.921875 
L 32.078125 38.921875 
Q 39.203125 38.921875 42.84375 42.21875 
Q 46.484375 45.515625 46.484375 51.90625 
Q 46.484375 58.296875 42.84375 61.546875 
Q 39.203125 64.796875 32.078125 64.796875 
z
" id="DejaVuSans-82"/>
      <path d="M 9.421875 54.6875 
L 18.40625 54.6875 
L 18.40625 0 
L 9.421875 0 
z
M 9.421875 75.984375 
L 18.40625 75.984375 
L 18.40625 64.59375 
L 9.421875 64.59375 
z
" id="DejaVuSans-105"/>
      <path d="M 48.6875 27.296875 
Q 48.6875 37.203125 44.609375 42.84375 
Q 40.53125 48.484375 33.40625 48.484375 
Q 26.265625 48.484375 22.1875 42.84375 
Q 18.109375 37.203125 18.109375 27.296875 
Q 18.109375 17.390625 22.1875 11.75 
Q 26.265625 6.109375 33.40625 6.109375 
Q 40.53125 6.109375 44.609375 11.75 
Q 48.6875 17.390625 48.6875 27.296875 
z
M 18.109375 46.390625 
Q 20.953125 51.265625 25.265625 53.625 
Q 29.59375 56 35.59375 56 
Q 45.5625 56 51.78125 48.09375 
Q 58.015625 40.1875 58.015625 27.296875 
Q 58.015625 14.40625 51.78125 6.484375 
Q 45.5625 -1.421875 35.59375 -1.421875 
Q 29.59375 -1.421875 25.265625 0.953125 
Q 20.953125 3.328125 18.109375 8.203125 
L 18.109375 0 
L 9.078125 0 
L 9.078125 75.984375 
L 18.109375 75.984375 
z
" id="DejaVuSans-98"/>
      <path id="DejaVuSans-32"/>
      <path d="M 45.40625 27.984375 
Q 45.40625 37.75 41.375 43.109375 
Q 37.359375 48.484375 30.078125 48.484375 
Q 22.859375 48.484375 18.828125 43.109375 
Q 14.796875 37.75 14.796875 27.984375 
Q 14.796875 18.265625 18.828125 12.890625 
Q 22.859375 7.515625 30.078125 7.515625 
Q 37.359375 7.515625 41.375 12.890625 
Q 45.40625 18.265625 45.40625 27.984375 
z
M 54.390625 6.78125 
Q 54.390625 -7.171875 48.1875 -13.984375 
Q 42 -20.796875 29.203125 -20.796875 
Q 24.46875 -20.796875 20.265625 -20.09375 
Q 16.0625 -19.390625 12.109375 -17.921875 
L 12.109375 -9.1875 
Q 16.0625 -11.328125 19.921875 -12.34375 
Q 23.78125 -13.375 27.78125 -13.375 
Q 36.625 -13.375 41.015625 -8.765625 
Q 45.40625 -4.15625 45.40625 5.171875 
L 45.40625 9.625 
Q 42.625 4.78125 38.28125 2.390625 
Q 33.9375 0 27.875 0 
Q 17.828125 0 11.671875 7.65625 
Q 5.515625 15.328125 5.515625 27.984375 
Q 5.515625 40.671875 11.671875 48.328125 
Q 17.828125 56 27.875 56 
Q 33.9375 56 38.28125 53.609375 
Q 42.625 51.21875 45.40625 46.390625 
L 45.40625 54.6875 
L 54.390625 54.6875 
z
" id="DejaVuSans-103"/>
      <path d="M 56.203125 29.59375 
L 56.203125 25.203125 
L 14.890625 25.203125 
Q 15.484375 15.921875 20.484375 11.0625 
Q 25.484375 6.203125 34.421875 6.203125 
Q 39.59375 6.203125 44.453125 7.46875 
Q 49.3125 8.734375 54.109375 11.28125 
L 54.109375 2.78125 
Q 49.265625 0.734375 44.1875 -0.34375 
Q 39.109375 -1.421875 33.890625 -1.421875 
Q 20.796875 -1.421875 13.15625 6.1875 
Q 5.515625 13.8125 5.515625 26.8125 
Q 5.515625 40.234375 12.765625 48.109375 
Q 20.015625 56 32.328125 56 
Q 43.359375 56 49.78125 48.890625 
Q 56.203125 41.796875 56.203125 29.59375 
z
M 47.21875 32.234375 
Q 47.125 39.59375 43.09375 43.984375 
Q 39.0625 48.390625 32.421875 48.390625 
Q 24.90625 48.390625 20.390625 44.140625 
Q 15.875 39.890625 15.1875 32.171875 
z
" id="DejaVuSans-101"/>
      <path d="M 54.890625 33.015625 
L 54.890625 0 
L 45.90625 0 
L 45.90625 32.71875 
Q 45.90625 40.484375 42.875 44.328125 
Q 39.84375 48.1875 33.796875 48.1875 
Q 26.515625 48.1875 22.3125 43.546875 
Q 18.109375 38.921875 18.109375 30.90625 
L 18.109375 0 
L 9.078125 0 
L 9.078125 54.6875 
L 18.109375 54.6875 
L 18.109375 46.1875 
Q 21.34375 51.125 25.703125 53.5625 
Q 30.078125 56 35.796875 56 
Q 45.21875 56 50.046875 50.171875 
Q 54.890625 44.34375 54.890625 33.015625 
z
" id="DejaVuSans-110"/>
      <path d="M 41.109375 46.296875 
Q 39.59375 47.171875 37.8125 47.578125 
Q 36.03125 48 33.890625 48 
Q 26.265625 48 22.1875 43.046875 
Q 18.109375 38.09375 18.109375 28.8125 
L 18.109375 0 
L 9.078125 0 
L 9.078125 54.6875 
L 18.109375 54.6875 
L 18.109375 46.1875 
Q 20.953125 51.171875 25.484375 53.578125 
Q 30.03125 56 36.53125 56 
Q 37.453125 56 38.578125 55.875 
Q 39.703125 55.765625 41.0625 55.515625 
z
" id="DejaVuSans-114"/>
      <path d="M 34.28125 27.484375 
Q 23.390625 27.484375 19.1875 25 
Q 14.984375 22.515625 14.984375 16.5 
Q 14.984375 11.71875 18.140625 8.90625 
Q 21.296875 6.109375 26.703125 6.109375 
Q 34.1875 6.109375 38.703125 11.40625 
Q 43.21875 16.703125 43.21875 25.484375 
L 43.21875 27.484375 
z
M 52.203125 31.203125 
L 52.203125 0 
L 43.21875 0 
L 43.21875 8.296875 
Q 40.140625 3.328125 35.546875 0.953125 
Q 30.953125 -1.421875 24.3125 -1.421875 
Q 15.921875 -1.421875 10.953125 3.296875 
Q 6 8.015625 6 15.921875 
Q 6 25.140625 12.171875 29.828125 
Q 18.359375 34.515625 30.609375 34.515625 
L 43.21875 34.515625 
L 43.21875 35.40625 
Q 43.21875 41.609375 39.140625 45 
Q 35.0625 48.390625 27.6875 48.390625 
Q 23 48.390625 18.546875 47.265625 
Q 14.109375 46.140625 10.015625 43.890625 
L 10.015625 52.203125 
Q 14.9375 54.109375 19.578125 55.046875 
Q 24.21875 56 28.609375 56 
Q 40.484375 56 46.34375 49.84375 
Q 52.203125 43.703125 52.203125 31.203125 
z
" id="DejaVuSans-97"/>
      <path d="M 18.3125 70.21875 
L 18.3125 54.6875 
L 36.8125 54.6875 
L 36.8125 47.703125 
L 18.3125 47.703125 
L 18.3125 18.015625 
Q 18.3125 11.328125 20.140625 9.421875 
Q 21.96875 7.515625 27.59375 7.515625 
L 36.8125 7.515625 
L 36.8125 0 
L 27.59375 0 
Q 17.1875 0 13.234375 3.875 
Q 9.28125 7.765625 9.28125 18.015625 
L 9.28125 47.703125 
L 2.6875 47.703125 
L 2.6875 54.6875 
L 9.28125 54.6875 
L 9.28125 70.21875 
z
" id="DejaVuSans-116"/>
      <path d="M 30.609375 48.390625 
Q 23.390625 48.390625 19.1875 42.75 
Q 14.984375 37.109375 14.984375 27.296875 
Q 14.984375 17.484375 19.15625 11.84375 
Q 23.34375 6.203125 30.609375 6.203125 
Q 37.796875 6.203125 41.984375 11.859375 
Q 46.1875 17.53125 46.1875 27.296875 
Q 46.1875 37.015625 41.984375 42.703125 
Q 37.796875 48.390625 30.609375 48.390625 
z
M 30.609375 56 
Q 42.328125 56 49.015625 48.375 
Q 55.71875 40.765625 55.71875 27.296875 
Q 55.71875 13.875 49.015625 6.21875 
Q 42.328125 -1.421875 30.609375 -1.421875 
Q 18.84375 -1.421875 12.171875 6.21875 
Q 5.515625 13.875 5.515625 27.296875 
Q 5.515625 40.765625 12.171875 48.375 
Q 18.84375 56 30.609375 56 
z
" id="DejaVuSans-111"/>
      <path d="M 9.8125 72.90625 
L 55.90625 72.90625 
L 55.90625 64.59375 
L 19.671875 64.59375 
L 19.671875 43.015625 
L 54.390625 43.015625 
L 54.390625 34.71875 
L 19.671875 34.71875 
L 19.671875 8.296875 
L 56.78125 8.296875 
L 56.78125 0 
L 9.8125 0 
z
" id="DejaVuSans-69"/>
      <path d="M 54.890625 54.6875 
L 35.109375 28.078125 
L 55.90625 0 
L 45.3125 0 
L 29.390625 21.484375 
L 13.484375 0 
L 2.875 0 
L 24.125 28.609375 
L 4.6875 54.6875 
L 15.28125 54.6875 
L 29.78125 35.203125 
L 44.28125 54.6875 
z
" id="DejaVuSans-120"/>
      <path d="M 52 44.1875 
Q 55.375 50.25 60.0625 53.125 
Q 64.75 56 71.09375 56 
Q 79.640625 56 84.28125 50.015625 
Q 88.921875 44.046875 88.921875 33.015625 
L 88.921875 0 
L 79.890625 0 
L 79.890625 32.71875 
Q 79.890625 40.578125 77.09375 44.375 
Q 74.3125 48.1875 68.609375 48.1875 
Q 61.625 48.1875 57.5625 43.546875 
Q 53.515625 38.921875 53.515625 30.90625 
L 53.515625 0 
L 44.484375 0 
L 44.484375 32.71875 
Q 44.484375 40.625 41.703125 44.40625 
Q 38.921875 48.1875 33.109375 48.1875 
Q 26.21875 48.1875 22.15625 43.53125 
Q 18.109375 38.875 18.109375 30.90625 
L 18.109375 0 
L 9.078125 0 
L 9.078125 54.6875 
L 18.109375 54.6875 
L 18.109375 46.1875 
Q 21.1875 51.21875 25.484375 53.609375 
Q 29.78125 56 35.6875 56 
Q 41.65625 56 45.828125 52.96875 
Q 50 49.953125 52 44.1875 
z
" id="DejaVuSans-109"/>
      <path d="M 18.109375 8.203125 
L 18.109375 -20.796875 
L 9.078125 -20.796875 
L 9.078125 54.6875 
L 18.109375 54.6875 
L 18.109375 46.390625 
Q 20.953125 51.265625 25.265625 53.625 
Q 29.59375 56 35.59375 56 
Q 45.5625 56 51.78125 48.09375 
Q 58.015625 40.1875 58.015625 27.296875 
Q 58.015625 14.40625 51.78125 6.484375 
Q 45.5625 -1.421875 35.59375 -1.421875 
Q 29.59375 -1.421875 25.265625 0.953125 
Q 20.953125 3.328125 18.109375 8.203125 
z
M 48.6875 27.296875 
Q 48.6875 37.203125 44.609375 42.84375 
Q 40.53125 48.484375 33.40625 48.484375 
Q 26.265625 48.484375 22.1875 42.84375 
Q 18.109375 37.203125 18.109375 27.296875 
Q 18.109375 17.390625 22.1875 11.75 
Q 26.265625 6.109375 33.40625 6.109375 
Q 40.53125 6.109375 44.609375 11.75 
Q 48.6875 17.390625 48.6875 27.296875 
z
" id="DejaVuSans-112"/>
      <path d="M 9.421875 75.984375 
L 18.40625 75.984375 
L 18.40625 0 
L 9.421875 0 
z
" id="DejaVuSans-108"/>
     </defs>
     <use xlink:href="#DejaVuSans-82"/>
     <use x="69.482422" xlink:href="#DejaVuSans-105"/>
     <use x="97.265625" xlink:href="#DejaVuSans-98"/>
     <use x="160.742188" xlink:href="#DejaVuSans-32"/>
     <use x="192.529297" xlink:href="#DejaVuSans-103"/>
     <use x="256.005859" xlink:href="#DejaVuSans-101"/>
     <use x="317.529297" xlink:href="#DejaVuSans-110"/>
     <use x="380.908203" xlink:href="#DejaVuSans-101"/>
     <use x="442.431641" xlink:href="#DejaVuSans-114"/>
     <use x="483.544922" xlink:href="#DejaVuSans-97"/>
     <use x="544.824219" xlink:href="#DejaVuSans-116"/>
     <use x="584.033203" xlink:href="#DejaVuSans-105"/>
     <use x="611.816406" xlink:href="#DejaVuSans-111"/>
     <use x="672.998047" xlink:href="#DejaVuSans-110"/>
     <use x="736.376953" xlink:href="#DejaVuSans-32"/>
     <use x="768.164062" xlink:href="#DejaVuSans-69"/>
     <use x="831.347656" xlink:href="#DejaVuSans-120"/>
     <use x="890.527344" xlink:href="#DejaVuSans-97"/>
     <use x="951.806641" xlink:href="#DejaVuSans-109"/>
     <use x="1049.21875" xlink:href="#DejaVuSans-112"/>
     <use x="1112.695312" xlink:href="#DejaVuSans-108"/>
     <use x="1140.478516" xlink:href="#DejaVuSans-101"/>
    </g>
   </g>
  </g>
 </g>
 <defs>
  <clipPath id="p29044ff322">
   <rect height="443.52" width="558" x="90" y="69.12"/>
  </clipPath>
 </defs>
</svg>
