<?xml version="1.0" encoding="utf-8" standalone="no"?>
<!DOCTYPE svg PUBLIC "-//W3C//DTD SVG 1.1//EN"
  "http://www.w3.org/Graphics/SVG/1.1/DTD/svg11.dtd">
<!-- Created with matplotlib (https://matplotlib.org/) -->
<svg height="576pt" version="1.1" viewBox="0 0 720 576" width="720pt" xmlns="http://www.w3.org/2000/svg" xmlns:xlink="http://www.w3.org/1999/xlink">
 <metadata>
  <rdf:RDF xmlns:cc="http://creativecommons.org/ns#" xmlns:dc="http://purl.org/dc/elements/1.1/" xmlns:rdf="http://www.w3.org/1999/02/22-rdf-syntax-ns#">
   <cc:Work>
    <dc:type rdf:resource="http://purl.org/dc/dcmitype/StillImage"/>
    <dc:date>2025-09-02T01:18:06.149282</dc:date>
    <dc:format>image/svg+xml</dc:format>
    <dc:creator>
     <cc:Agent>
      <dc:title>Matplotlib v3.3.2, https://matplotlib.org/</dc:title>
     </cc:Agent>
    </dc:creator>
   </cc:Work>
  </rdf:RDF>
 </metadata>
 <defs>
  <style type="text/css">*{stroke-linecap:butt;stroke-linejoin:round;}</style>
 </defs>
 <g id="figure_1">
  <g id="patch_1">
   <path d="M 0 576 
L 720 576 
L 720 0 
L 0 0 
z
" style="fill:#ffffff;"/>
  </g>
  <g id="axes_1">
   <g id="patch_2">
    <path d="M 90 512.64 
L 648 512.64 
L 648 69.12 
L 90 69.12 
z
" style="fill:#ffffff;"/>
   </g>
   <g id="Quiver_1">
    <path clip-path="url(#p74276d1e10)" d="M 5621.084347 288.605182 
L 5597.466758 283.855096 
L 5598.284249 286.865384 
L 5585.433299 280.011933 
L 5599.934616 278.659704 
L 5598.01688 281.11987 
L 5621.634469 285.869955 
L 5621.084347 288.605182 
" style="fill:#0000ff;"/>
    <path clip-path="url(#p74276d1e10)" d="M 5337.686124 231.606614 
L 5314.007054 227.173169 
L 5314.864776 230.172242 
L 5301.923217 223.491465 
L 5316.40513 221.9452 
L 5314.520505 224.430822 
L 5338.199576 228.864267 
L 5337.686124 231.606614 
" style="fill:#0000ff;"/>
    <path clip-path="url(#p74276d1e10)" d="M 5069.95233 181.478563 
L 5046.220782 177.335205 
L 5047.115139 180.323557 
L 5034.092798 173.801643 
L 5048.554705 172.078283 
L 5046.700637 174.58678 
L 5070.432185 178.730138 
L 5069.95233 181.478563 
" style="fill:#0000ff;"/>
    <path clip-path="url(#p74276d1e10)" d="M 4816.838611 137.286634 
L 4793.062429 133.407592 
L 4793.989982 136.385808 
L 4780.895878 130.009197 
L 4795.337714 128.125026 
L 4793.511673 130.653998 
L 4817.287855 134.53304 
L 4816.838611 137.286634 
" style="fill:#0000ff;"/>
    <path clip-path="url(#p74276d1e10)" d="M 4577.300917 98.206407 
L 4553.48613 94.571883 
L 4554.444237 97.540411 
L 4541.285301 91.298686 
L 4555.707014 89.266216 
L 4553.907056 91.813818 
L 4577.721842 95.448343 
L 4577.300917 98.206407 
" style="fill:#0000ff;"/>
    <path clip-path="url(#p74276d1e10)" d="M 4350.404902 63.578318 
L 4326.556612 60.170549 
L 4327.542921 63.129826 
L 4314.325192 57.013586 
L 4328.726914 54.843991 
L 4326.951277 57.408604 
L 4350.799567 60.816373 
L 4350.404902 63.578318 
" style="fill:#0000ff;"/>
    <path clip-path="url(#p74276d1e10)" d="M 4135.382167 32.852868 
L 4111.502284 29.674031 
L 4112.516935 32.62371 
L 4099.241142 26.63455 
L 4113.621388 24.326899 
L 4111.870435 26.908427 
L 4135.750318 30.087264 
L 4135.382167 32.852868 
" style="fill:#0000ff;"/>
    <path clip-path="url(#p74276d1e10)" d="M 3931.407591 5.700169 
L 3907.499349 2.742169 
L 3908.541218 5.682345 
L 3895.210639 -0.183864 
L 3909.568944 -2.62432 
L 3907.841924 -0.02672 
L 3931.750167 2.931281 
L 3931.407591 5.700169 
" style="fill:#0000ff;"/>
    <path clip-path="url(#p74276d1e10)" d="M 3737.711221 -18.264587 
L 3713.778407 -21.016718 
L 3714.845541 -18.085617 
L 3701.46497 -23.836882 
L 3715.80174 -26.400819 
L 3714.09714 -23.788452 
L 3738.029954 -21.036321 
L 3737.711221 -18.264587 
" style="fill:#0000ff;"/>
    <path clip-path="url(#p74276d1e10)" d="M 3553.689457 -39.426044 
L 3529.733526 -41.969105 
L 3530.826211 -39.047433 
L 3517.395935 -44.681649 
L 3531.709771 -47.370667 
L 3530.028045 -44.743516 
L 3553.983977 -42.200455 
L 3553.689457 -39.426044 
" style="fill:#0000ff;"/>
    <path clip-path="url(#p74276d1e10)" d="M 3378.682924 -58.004056 
L 3354.704999 -60.330627 
L 3355.824031 -57.418945 
L 3342.34341 -62.93162 
L 3356.632373 -65.74982 
L 3354.974447 -63.107585 
L 3378.952372 -60.781015 
L 3378.682924 -58.004056 
" style="fill:#0000ff;"/>
    <path clip-path="url(#p74276d1e10)" d="M 3212.140439 -74.163672 
L 3188.144127 -76.292243 
L 3189.287154 -73.389897 
L 3175.761489 -78.791111 
L 3190.026703 -81.72716 
L 3188.390643 -79.071331 
L 3212.386955 -76.94276 
L 3212.140439 -74.163672 
" style="fill:#0000ff;"/>
    <path clip-path="url(#p74276d1e10)" d="M 3053.513977 -88.23454 
L 3029.500109 -90.154951 
L 3030.668261 -87.262626 
L 3017.096269 -92.546351 
L 3031.335488 -95.605989 
L 3029.722518 -92.936072 
L 3053.736386 -91.015661 
L 3053.513977 -88.23454 
" style="fill:#0000ff;"/>
    <path clip-path="url(#p74276d1e10)" d="M 2902.308185 -100.326658 
L 2878.278641 -102.039783 
L 2879.471707 -99.157645 
L 2865.854627 -104.324061 
L 2880.066914 -107.506455 
L 2878.477043 -104.822719 
L 2902.506588 -103.109595 
L 2902.308185 -100.326658 
" style="fill:#0000ff;"/>
    <path clip-path="url(#p74276d1e10)" d="M 2758.138793 -110.604898 
L 2734.094875 -112.102842 
L 2735.313695 -109.2315 
L 2721.650911 -114.27581 
L 2735.834139 -117.585304 
L 2734.268357 -114.887443 
L 2758.312275 -113.3895 
L 2758.138793 -110.604898 
" style="fill:#0000ff;"/>
    <path clip-path="url(#p74276d1e10)" d="M 2620.510336 -119.179249 
L 2596.454249 -120.467069 
L 2597.698108 -117.606485 
L 2583.991774 -122.531234 
L 2598.145547 -125.964517 
L 2596.603395 -123.25308 
L 2620.659483 -121.965259 
L 2620.510336 -119.179249 
" style="fill:#0000ff;"/>
    <path clip-path="url(#p74276d1e10)" d="M 2489.094102 -126.214557 
L 2465.027067 -127.278352 
L 2466.297505 -124.429473 
L 2452.545915 -129.226397 
L 2466.667109 -132.791308 
L 2465.150269 -130.06563 
L 2489.217303 -129.001836 
L 2489.094102 -126.214557 
" style="fill:#0000ff;"/>
    <path clip-path="url(#p74276d1e10)" d="M 2363.504252 -131.765852 
L 2339.428514 -132.610037 
L 2340.724889 -129.772867 
L 2326.930108 -134.444136 
L 2341.018192 -138.137726 
L 2339.526281 -135.398324 
L 2363.60202 -134.554138 
L 2363.504252 -131.765852 
" style="fill:#0000ff;"/>
    <path clip-path="url(#p74276d1e10)" d="M 2242.811652 -135.997901 
L 2218.727104 -136.53489 
L 2220.059567 -133.714488 
L 2206.206319 -138.2094 
L 2220.246138 -142.082408 
L 2218.789295 -139.324197 
L 2242.873843 -138.787207 
L 2242.811652 -135.997901 
" style="fill:#0000ff;"/>
    <path clip-path="url(#p74276d1e10)" d="M 2126.954363 -138.581147 
L 2102.86526 -138.843764 
L 2104.229763 -136.038722 
L 2090.326214 -140.375546 
L 2104.321006 -144.408225 
L 2102.895675 -141.633598 
L 2126.984777 -141.370981 
L 2126.954363 -138.581147 
" style="fill:#0000ff;"/>
    <path clip-path="url(#p74276d1e10)" d="M 2016.045704 -139.790368 
L 1991.955199 -139.75298 
L 1993.354528 -136.965148 
L 1979.39805 -141.128493 
L 1993.341538 -145.335138 
L 1991.950869 -142.542977 
L 2016.041374 -142.580365 
L 2016.045704 -139.790368 
" style="fill:#0000ff;"/>
    <path clip-path="url(#p74276d1e10)" d="M 1909.808633 -139.625589 
L 1885.720292 -139.300598 
L 1887.152803 -136.529671 
L 1873.147615 -140.526099 
L 1887.039888 -144.898909 
L 1885.682653 -142.090344 
L 1909.770995 -142.415335 
L 1909.808633 -139.625589 
" style="fill:#0000ff;"/>
    <path clip-path="url(#p74276d1e10)" d="M 1807.968868 -138.251701 
L 1783.886055 -137.641838 
L 1785.351238 -134.888048 
L 1771.299764 -138.718556 
L 1785.139348 -143.255365 
L 1783.815425 -140.430944 
L 1807.898238 -141.040807 
L 1807.968868 -138.251701 
" style="fill:#0000ff;"/>
    <path clip-path="url(#p74276d1e10)" d="M 1710.308026 -135.778693 
L 1686.23498 -134.860953 
L 1687.735253 -132.126121 
L 1673.63595 -135.776651 
L 1687.416394 -140.490045 
L 1686.128693 -137.648927 
L 1710.20174 -138.566668 
L 1710.308026 -135.778693 
" style="fill:#0000ff;"/>
    <path clip-path="url(#p74276d1e10)" d="M 1616.603763 -132.20649 
L 1592.543433 -131.000532 
L 1594.07635 -128.283863 
L 1579.934341 -131.765287 
L 1593.657353 -136.643369 
L 1592.403767 -133.787034 
L 1616.464097 -134.992992 
L 1616.603763 -132.20649 
" style="fill:#0000ff;"/>
    <path clip-path="url(#p74276d1e10)" d="M 1526.693525 -127.700102 
L 1502.650683 -126.18499 
L 1504.218392 -123.488248 
L 1490.032803 -126.787614 
L 1503.691982 -131.841678 
L 1502.475214 -128.969467 
L 1526.518056 -130.484579 
L 1526.693525 -127.700102 
" style="fill:#0000ff;"/>
    <path clip-path="url(#p74276d1e10)" d="M 1440.355678 -122.259443 
L 1416.333598 -120.444653 
L 1417.93481 -117.767669 
L 1403.709185 -120.889895 
L 1417.304281 -126.113886 
L 1416.123421 -123.226725 
L 1440.145502 -125.041515 
L 1440.355678 -122.259443 
" style="fill:#0000ff;"/>
    <path clip-path="url(#p74276d1e10)" d="M 1357.426092 -115.994496 
L 1333.428878 -113.876121 
L 1335.06381 -111.219597 
L 1320.799844 -114.161707 
L 1334.327803 -119.557174 
L 1333.183542 -116.655314 
L 1357.180757 -118.773689 
L 1357.426092 -115.994496 
" style="fill:#0000ff;"/>
    <path clip-path="url(#p74276d1e10)" d="M 1277.740759 -108.960332 
L 1253.774249 -106.51898 
L 1255.444808 -103.884714 
L 1241.142514 -106.634466 
L 1254.596586 -112.211623 
L 1253.491508 -109.294616 
L 1277.458018 -111.735968 
L 1277.740759 -108.960332 
" style="fill:#0000ff;"/>
    <path clip-path="url(#p74276d1e10)" d="M 1201.132733 -101.15676 
L 1177.1995 -98.408275 
L 1178.903702 -95.795648 
L 1164.567323 -98.361769 
L 1177.94877 -104.110996 
L 1176.881189 -101.180058 
L 1200.814422 -103.928543 
L 1201.132733 -101.15676 
" style="fill:#0000ff;"/>
    <path clip-path="url(#p74276d1e10)" d="M 1127.43913 -92.693942 
L 1103.545612 -89.619272 
L 1105.28529 -87.030132 
L 1090.915244 -89.400471 
L 1104.217029 -95.331681 
L 1103.189525 -92.386455 
L 1127.083043 -95.461125 
L 1127.43913 -92.693942 
" style="fill:#0000ff;"/>
    <path clip-path="url(#p74276d1e10)" d="M 1056.55004 -83.571927 
L 1032.703554 -80.151561 
L 1034.480545 -77.587886 
L 1020.07768 -79.749874 
L 1033.292176 -85.873095 
L 1032.307431 -82.913297 
L 1056.153917 -86.333663 
L 1056.55004 -83.571927 
" style="fill:#0000ff;"/>
    <path clip-path="url(#p74276d1e10)" d="M 988.354063 -73.790536 
L 964.55881 -70.03025 
L 966.372202 -67.492192 
L 951.939953 -69.448444 
L 965.06573 -75.7596 
L 964.12332 -72.786052 
L 987.918572 -76.546339 
L 988.354063 -73.790536 
" style="fill:#0000ff;"/>
    <path clip-path="url(#p74276d1e10)" d="M 922.63305 -63.405023 
L 898.898167 -59.280804 
L 900.750212 -56.770813 
L 886.289699 -58.505835 
L 899.317295 -65.017245 
L 898.420529 -62.029615 
L 922.155411 -66.153834 
L 922.63305 -63.405023 
" style="fill:#0000ff;"/>
    <path clip-path="url(#p74276d1e10)" d="M 859.385261 -52.415126 
L 835.715357 -47.932998 
L 837.605089 -45.451257 
L 823.120027 -46.967739 
L 836.047821 -53.675114 
L 835.196268 -50.674284 
L 858.866172 -55.156411 
L 859.385261 -52.415126 
" style="fill:#0000ff;"/>
    <path clip-path="url(#p74276d1e10)" d="M 798.448548 -40.876366 
L 774.857793 -35.994758 
L 776.789207 -33.545317 
L 762.28058 -34.816724 
L 775.093144 -41.741674 
L 774.292439 -38.726878 
L 797.883194 -43.608485 
L 798.448548 -40.876366 
" style="fill:#0000ff;"/>
    <path clip-path="url(#p74276d1e10)" d="M 739.765002 -28.733244 
L 716.258382 -23.461371 
L 718.230122 -21.044272 
L 703.702418 -22.075074 
L 716.398465 -29.211397 
L 715.64783 -26.183746 
L 739.15445 -31.455619 
L 739.765002 -28.733244 
" style="fill:#0000ff;"/>
    <path clip-path="url(#p74276d1e10)" d="M 683.172679 -16.041422 
L 659.767177 -10.337362 
L 661.783114 -7.957 
L 647.238885 -8.719971 
L 659.801299 -16.088993 
L 659.106572 -13.048026 
L 682.512074 -18.752086 
L 683.172679 -16.041422 
" style="fill:#0000ff;"/>
    <path clip-path="url(#p74276d1e10)" d="M 628.616714 -2.746107 
L 605.332346 3.433861 
L 607.396385 5.772636 
L 592.839626 5.30629 
L 605.249221 -2.317271 
L 604.616625 0.737226 
L 627.900993 -5.442743 
L 628.616714 -2.746107 
" style="fill:#0000ff;"/>
    <path clip-path="url(#p74276d1e10)" d="M 576.040494 11.207969 
L 552.892072 17.879129 
L 555.005125 20.173716 
L 540.441758 20.015418 
L 552.687302 12.131042 
L 552.119464 15.198237 
L 575.267886 8.527078 
L 576.040494 11.207969 
" style="fill:#0000ff;"/>
    <path clip-path="url(#p74276d1e10)" d="M 525.336668 25.819925 
L 502.354239 33.042237 
L 504.521511 35.285684 
L 489.958519 35.475377 
L 502.012195 27.300684 
L 501.517801 30.38057 
L 524.500229 23.158258 
L 525.336668 25.819925 
" style="fill:#0000ff;"/>
    <path clip-path="url(#p74276d1e10)" d="M 476.393889 41.199891 
L 453.60415 49.008963 
L 455.828218 51.196117 
L 441.274874 51.759055 
L 453.115039 43.278064 
L 452.699757 46.369612 
L 475.489496 38.56054 
L 476.393889 41.199891 
" style="fill:#0000ff;"/>
    <path clip-path="url(#p74276d1e10)" d="M 429.270781 57.346296 
L 406.727566 65.840841 
L 409.016746 67.959751 
L 394.487075 68.96245 
L 406.065406 60.12735 
L 405.743786 63.230041 
L 428.287001 54.735496 
L 429.270781 57.346296 
" style="fill:#0000ff;"/>
    <path clip-path="url(#p74276d1e10)" d="M 383.802937 74.478172 
L 361.574609 83.765541 
L 363.937374 85.802074 
L 349.452314 87.318572 
L 360.710576 78.079077 
L 360.49901 81.191209 
L 382.727338 71.90384 
L 383.802937 74.478172 
" style="fill:#0000ff;"/>
    <path clip-path="url(#p74276d1e10)" d="M 340.045507 92.759491 
L 318.216522 102.950136 
L 320.660774 104.888114 
L 306.250044 106.997041 
L 317.120143 97.303865 
L 317.036312 100.422053 
L 338.865297 90.231408 
L 340.045507 92.759491 
" style="fill:#0000ff;"/>
    <path clip-path="url(#p74276d1e10)" d="M 297.839779 112.460736 
L 276.569896 123.772053 
L 279.111561 125.580385 
L 264.829904 128.435383 
L 275.181564 118.190391 
L 275.259897 121.308722 
L 296.529779 109.997404 
L 297.839779 112.460736 
" style="fill:#0000ff;"/>
    <path clip-path="url(#p74276d1e10)" d="M 257.301202 134.015413 
L 236.857905 146.760036 
L 239.5177 148.389641 
L 225.465698 152.21821 
L 235.089717 141.286834 
L 235.38191 144.392433 
L 255.825208 131.647811 
L 257.301202 134.015413 
" style="fill:#0000ff;"/>
    <path clip-path="url(#p74276d1e10)" d="M 218.44351 158.231551 
L 199.379174 172.959243 
L 202.188784 174.314313 
L 188.590793 179.530763 
L 197.071804 167.690612 
L 197.673514 170.751343 
L 216.73785 156.023651 
L 218.44351 158.231551 
" style="fill:#0000ff;"/>
    <path clip-path="url(#p74276d1e10)" d="M 181.405532 186.818591 
L 165.128122 204.578088 
L 168.127474 205.434834 
L 155.616611 212.891042 
L 161.957125 199.779421 
L 163.071339 202.69295 
L 179.348749 184.933453 
L 181.405532 186.818591 
" style="fill:#0000ff;"/>
    <path clip-path="url(#p74276d1e10)" d="M 146.59334 224.735227 
L 135.260675 245.993743 
L 138.378926 246.075207 
L 128.123547 256.416576 
L 130.992881 242.137793 
L 132.79866 244.681272 
L 144.131325 223.422755 
L 146.59334 224.735227 
" style="fill:#0000ff;"/>
    <path clip-path="url(#p74276d1e10)" d="M 130.804404 254.165247 
L 127.635489 278.046449 
L 130.584747 277.030573 
L 124.601102 290.308853 
L 122.287477 275.929567 
L 124.869733 277.679447 
L 128.038647 253.798245 
L 130.804404 254.165247 
" style="fill:#0000ff;"/>
    <path clip-path="url(#p74276d1e10)" d="M 125.409178 293.711093 
L 133.22316 316.499149 
L 135.409835 314.27461 
L 135.97591 328.827832 
L 127.492367 316.989495 
L 130.584004 317.404111 
L 122.770022 294.616055 
L 125.409178 293.711093 
" style="fill:#0000ff;"/>
    <path clip-path="url(#p74276d1e10)" d="M 138.306997 331.593483 
L 153.555645 350.243752 
L 154.832594 347.397786 
L 160.422643 360.846506 
L 148.352756 352.695767 
L 151.395699 352.009746 
L 136.147051 333.359477 
L 138.306997 331.593483 
" style="fill:#0000ff;"/>
    <path clip-path="url(#p74276d1e10)" d="M 159.495466 357.575739 
L 178.847675 371.923067 
L 179.388664 368.851023 
L 188.10245 380.520927 
L 174.403838 375.574742 
L 177.186066 374.164307 
L 157.833857 359.816979 
L 159.495466 357.575739 
" style="fill:#0000ff;"/>
    <path clip-path="url(#p74276d1e10)" d="M 200.74315 388.180213 
L 222.216122 399.101077 
L 222.237476 395.981836 
L 232.774566 406.036011 
L 218.443137 403.442392 
L 220.951343 401.58793 
L 199.47837 390.667065 
L 200.74315 388.180213 
" style="fill:#0000ff;"/>
    <path clip-path="url(#p74276d1e10)" d="M 242.232579 409.288324 
L 264.649921 418.109694 
L 264.373441 415.002656 
L 275.822108 424.005142 
L 261.308549 422.791323 
L 263.628291 420.705916 
L 241.210948 411.884546 
L 242.232579 409.288324 
" style="fill:#0000ff;"/>
    <path clip-path="url(#p74276d1e10)" d="M 284.472273 425.91312 
L 307.418031 433.251104 
L 306.939155 430.168766 
L 318.951503 438.40407 
L 304.389651 438.141026 
L 306.568196 435.908523 
L 283.622438 428.57054 
L 284.472273 425.91312 
" style="fill:#0000ff;"/>
    <path clip-path="url(#p74276d1e10)" d="M 327.722646 439.746166 
L 350.995932 445.967737 
L 350.368796 442.912115 
L 362.764747 450.557842 
L 348.207177 450.998172 
L 350.275393 448.663089 
L 327.002106 442.441518 
L 327.722646 439.746166 
" style="fill:#0000ff;"/>
    <path clip-path="url(#p74276d1e10)" d="M 372.086491 451.606813 
L 395.575736 456.955569 
L 394.835011 453.925478 
L 407.507641 461.103303 
L 392.976642 462.086567 
L 394.95628 459.675932 
L 371.467035 454.327176 
L 372.086491 451.606813 
" style="fill:#0000ff;"/>
    <path clip-path="url(#p74276d1e10)" d="M 417.668477 461.986994 
L 441.310182 466.615557 
L 440.47722 463.609513 
L 453.363246 470.396785 
L 438.869075 471.823572 
L 440.774133 469.353577 
L 417.132428 464.725013 
L 417.668477 461.986994 
" style="fill:#0000ff;"/>
    <path clip-path="url(#p74276d1e10)" d="M 464.520033 471.160073 
L 488.276183 475.15997 
L 487.363786 472.177076 
L 500.425295 478.62019 
L 485.974064 480.430898 
L 487.812942 477.911244 
L 464.056793 473.911347 
L 464.520033 471.160073 
" style="fill:#0000ff;"/>
    <path clip-path="url(#p74276d1e10)" d="M 512.806671 479.290592 
L 536.645518 482.763802 
L 535.667335 479.801829 
L 548.868227 485.954322 
L 534.460606 488.084383 
L 536.243275 485.524653 
L 512.404427 482.051444 
L 512.806671 479.290592 
" style="fill:#0000ff;"/>
    <path clip-path="url(#p74276d1e10)" d="M 562.581866 486.542859 
L 586.482009 489.565599 
L 585.448107 486.622612 
L 598.762749 492.524903 
L 584.397888 494.926463 
L 586.131936 492.33355 
L 562.231793 489.310809 
L 562.581866 486.542859 
" style="fill:#0000ff;"/>
    <path clip-path="url(#p74276d1e10)" d="M 613.843306 493.026295 
L 637.792196 495.634836 
L 636.707501 492.710189 
L 650.122325 498.381099 
L 635.801191 501.030976 
L 637.490092 498.408432 
L 613.541202 495.799891 
L 613.843306 493.026295 
" style="fill:#0000ff;"/>
    <path clip-path="url(#p74276d1e10)" d="M 666.811517 498.795819 
L 690.797506 501.037725 
L 689.668202 498.130012 
L 703.1682 503.595061 
L 688.889275 506.463689 
L 690.537864 503.815618 
L 666.551875 501.573711 
L 666.811517 498.795819 
" style="fill:#0000ff;"/>
    <path clip-path="url(#p74276d1e10)" d="M 721.487529 503.90635 
L 745.499772 505.84697 
L 744.334055 502.953662 
L 757.901596 508.248808 
L 743.659808 511.296461 
L 745.275023 508.627903 
L 721.26278 506.687283 
L 721.487529 503.90635 
" style="fill:#0000ff;"/>
    <path clip-path="url(#p74276d1e10)" d="M 777.921871 508.467375 
L 801.957334 510.095365 
L 800.754065 507.217471 
L 814.389361 512.335617 
L 800.188437 515.568338 
L 801.768791 512.878987 
L 777.733328 511.250997 
L 777.921871 508.467375 
" style="fill:#0000ff;"/>
    <path clip-path="url(#p74276d1e10)" d="M 836.337477 512.424118 
L 860.389766 513.781026 
L 859.154129 510.916881 
L 872.846261 515.880976 
L 858.682685 519.273594 
L 860.232618 516.566597 
L 836.180329 515.209689 
L 836.337477 512.424118 
" style="fill:#0000ff;"/>
    <path clip-path="url(#p74276d1e10)" d="M 896.732798 515.831395 
L 920.798177 516.93201 
L 919.5321 514.081191 
L 933.276335 518.899149 
L 919.149702 522.442451 
L 920.670712 519.719097 
L 896.605333 518.618481 
L 896.732798 515.831395 
" style="fill:#0000ff;"/>
    <path clip-path="url(#p74276d1e10)" d="M 959.21891 518.689218 
L 983.293411 519.567999 
L 982.001113 516.728968 
L 995.789167 521.420055 
L 981.69579 525.093398 
L 983.191636 522.356142 
L 959.117136 521.477361 
L 959.21891 518.689218 
" style="fill:#0000ff;"/>
    <path clip-path="url(#p74276d1e10)" d="M 1023.960685 521.0525 
L 1048.041312 521.743338 
L 1046.726893 518.914481 
L 1060.551144 523.497801 
L 1046.486869 527.281039 
L 1047.961304 524.532191 
L 1023.880677 523.841353 
L 1023.960685 521.0525 
" style="fill:#0000ff;"/>
    <path clip-path="url(#p74276d1e10)" d="M 1091.009572 522.976089 
L 1115.095403 523.452094 
L 1113.755802 520.635075 
L 1127.620388 525.094896 
L 1113.59042 529.003441 
L 1115.040275 526.241549 
L 1090.954444 525.765545 
L 1091.009572 522.976089 
" style="fill:#0000ff;"/>
    <path clip-path="url(#p74276d1e10)" d="M 1160.533919 524.350128 
L 1184.622662 524.643894 
L 1183.261787 521.83709 
L 1197.159717 526.191888 
L 1183.159722 530.206468 
L 1184.58864 527.433686 
L 1160.499897 527.139921 
L 1160.533919 524.350128 
" style="fill:#0000ff;"/>
    <path clip-path="url(#p74276d1e10)" d="M 1232.643519 525.229542 
L 1256.733636 525.371144 
L 1255.35506 522.572993 
L 1269.28022 526.839917 
L 1255.305861 530.942848 
L 1256.717237 528.161096 
L 1232.627119 528.019493 
L 1232.643519 525.229542 
" style="fill:#0000ff;"/>
    <path clip-path="url(#p74276d1e10)" d="M 1307.44619 525.669264 
L 1331.536718 525.652239 
L 1330.139746 522.863226 
L 1344.092701 527.038366 
L 1330.145662 531.233224 
L 1331.53869 528.442238 
L 1307.448162 528.459264 
L 1307.44619 525.669264 
" style="fill:#0000ff;"/>
    <path clip-path="url(#p74276d1e10)" d="M 1385.218775 525.614322 
L 1409.308856 525.466731 
L 1407.89679 522.68533 
L 1421.872167 526.784787 
L 1407.948069 531.055173 
L 1409.325949 528.256679 
L 1385.235868 528.404269 
L 1385.218775 525.614322 
" style="fill:#0000ff;"/>
    <path clip-path="url(#p74276d1e10)" d="M 1465.959323 525.119678 
L 1490.048185 524.835908 
L 1488.620418 522.062534 
L 1502.618746 526.082923 
L 1488.71901 530.431953 
L 1490.081049 527.625715 
L 1465.992187 527.909484 
L 1465.959323 525.119678 
" style="fill:#0000ff;"/>
    <path clip-path="url(#p74276d1e10)" d="M 1549.94451 524.130338 
L 1574.031824 523.736457 
L 1572.591393 520.969639 
L 1586.607954 524.925996 
L 1572.728243 529.33852 
L 1574.07744 526.526084 
L 1549.990127 526.919965 
L 1549.94451 524.130338 
" style="fill:#0000ff;"/>
    <path clip-path="url(#p74276d1e10)" d="M 1637.337421 522.701287 
L 1661.42257 522.191934 
L 1659.968892 519.432053 
L 1674.004258 523.321168 
L 1660.145861 527.800181 
L 1661.48156 524.98131 
L 1637.396411 525.490664 
L 1637.337421 522.701287 
" style="fill:#0000ff;"/>
    <path clip-path="url(#p74276d1e10)" d="M 1728.30467 520.777519 
L 1752.387714 520.17684 
L 1750.923581 517.42249 
L 1764.973594 521.258357 
L 1751.132281 525.789888 
L 1752.457281 522.965972 
L 1728.374237 523.566651 
L 1728.30467 520.777519 
" style="fill:#0000ff;"/>
    <path clip-path="url(#p74276d1e10)" d="M 1823.065251 518.414009 
L 1847.146099 517.730959 
L 1845.672554 514.981634 
L 1859.735605 518.769421 
L 1845.909872 523.348269 
L 1847.225205 520.519838 
L 1823.144357 521.202887 
L 1823.065251 518.414009 
" style="fill:#0000ff;"/>
    <path clip-path="url(#p74276d1e10)" d="M 1921.8947 515.610731 
L 1945.973729 514.866284 
L 1944.493178 512.120724 
L 1958.565841 515.872642 
L 1944.751828 520.486727 
L 1946.059945 517.654951 
L 1921.980917 518.399399 
L 1921.8947 515.610731 
" style="fill:#0000ff;"/>
    <path clip-path="url(#p74276d1e10)" d="M 2025.010633 512.422719 
L 2049.087076 511.598858 
L 2047.597478 508.858197 
L 2061.682439 512.563678 
L 2047.88372 517.223301 
L 2049.18249 514.387226 
L 2025.106047 515.211087 
L 2025.010633 512.422719 
" style="fill:#0000ff;"/>
    <path clip-path="url(#p74276d1e10)" d="M 2132.636532 508.739914 
L 2156.711746 507.880926 
L 2155.218151 505.142441 
L 2169.308504 508.827369 
L 2155.516598 513.507119 
L 2156.811229 510.669152 
L 2132.736014 511.52814 
L 2132.636532 508.739914 
" style="fill:#0000ff;"/>
    <path clip-path="url(#p74276d1e10)" d="M 2245.098775 504.727335 
L 2269.172151 503.81827 
L 2267.672863 501.082898 
L 2281.77085 504.73851 
L 2267.988708 509.446937 
L 2269.277433 506.606283 
L 2245.204057 507.515348 
L 2245.098775 504.727335 
" style="fill:#0000ff;"/>
    <path clip-path="url(#p74276d1e10)" d="M 2363.00158 500.275068 
L 2387.072107 499.293468 
L 2385.564583 496.562626 
L 2399.673521 500.17574 
L 2385.90563 504.925675 
L 2387.185789 502.081151 
L 2363.115262 503.06275 
L 2363.00158 500.275068 
" style="fill:#0000ff;"/>
    <path clip-path="url(#p74276d1e10)" d="M 2487.004393 495.218227 
L 2511.070725 494.138654 
L 2509.552097 491.413971 
L 2523.675626 494.969623 
L 2509.927184 499.775562 
L 2511.195753 496.925851 
L 2487.129421 498.005424 
L 2487.004393 495.218227 
" style="fill:#0000ff;"/>
    <path clip-path="url(#p74276d1e10)" d="M 2616.889444 489.391822 
L 2640.951712 488.225167 
L 2639.423235 485.505997 
L 2653.559538 489.010517 
L 2639.828577 493.866177 
L 2641.086826 491.011893 
L 2617.024558 492.178549 
L 2616.889444 489.391822 
" style="fill:#0000ff;"/>
    <path clip-path="url(#p74276d1e10)" d="M 2752.932169 482.795817 
L 2776.991149 481.563211 
L 2775.455224 478.848241 
L 2789.60108 482.314 
L 2775.88348 487.207278 
L 2777.133901 484.349557 
L 2753.074921 485.582162 
L 2752.932169 482.795817 
" style="fill:#0000ff;"/>
    <path clip-path="url(#p74276d1e10)" d="M 2895.625573 475.48526 
L 2919.680628 474.178304 
L 2918.13632 471.468094 
L 2932.292819 474.890117 
L 2918.590407 479.825767 
L 2919.83199 476.964195 
L 2895.776935 478.271151 
L 2895.625573 475.48526 
" style="fill:#0000ff;"/>
    <path clip-path="url(#p74276d1e10)" d="M 3045.356041 467.350128 
L 3069.408048 465.988218 
L 3067.857552 463.281543 
L 3082.021832 466.671215 
L 3068.330733 471.638157 
L 3069.565775 468.773756 
L 3045.513768 470.135666 
L 3045.356041 467.350128 
" style="fill:#0000ff;"/>
    <path clip-path="url(#p74276d1e10)" d="M 3202.617703 458.445416 
L 3226.667078 457.037803 
L 3225.111441 454.33408 
L 3239.282138 457.69683 
L 3225.600501 462.68978 
L 3226.830098 459.823037 
L 3202.780723 461.230649 
L 3202.617703 458.445416 
" style="fill:#0000ff;"/>
    <path clip-path="url(#p74276d1e10)" d="M 3367.904422 448.771171 
L 3391.950751 447.312436 
L 3390.38937 444.612026 
L 3404.567183 447.944644 
L 3390.896192 452.966668 
L 3392.119691 450.097317 
L 3368.073363 451.556052 
L 3367.904422 448.771171 
" style="fill:#0000ff;"/>
    <path clip-path="url(#p74276d1e10)" d="M 3541.877067 438.217382 
L 3565.921246 436.723641 
L 3564.355935 434.025507 
L 3578.538585 437.33748 
L 3564.87492 442.379401 
L 3566.094241 439.508272 
L 3542.050062 441.002013 
L 3541.877067 438.217382 
" style="fill:#0000ff;"/>
    <path clip-path="url(#p74276d1e10)" d="M 3725.029567 426.839062 
L 3749.07171 425.312902 
L 3747.502763 422.616881 
L 3761.689866 425.909728 
L 3748.033011 430.970068 
L 3749.24846 428.097298 
L 3725.206316 429.623457 
L 3725.029567 426.839062 
" style="fill:#0000ff;"/>
    <path clip-path="url(#p74276d1e10)" d="M 3918.132227 414.581193 
L 3942.17329 413.038104 
L 3940.602444 410.343189 
L 3954.791862 413.626045 
L 3941.138574 418.696001 
L 3942.351999 415.822375 
L 3918.310937 417.365464 
L 3918.132227 414.581193 
" style="fill:#0000ff;"/>
    <path clip-path="url(#p74276d1e10)" d="M 4121.953394 401.498821 
L 4145.993014 399.933422 
L 4144.419668 397.239965 
L 4158.612127 400.509652 
L 4144.96355 405.592276 
L 4146.174308 402.717525 
L 4122.134687 404.282925 
L 4121.953394 401.498821 
" style="fill:#0000ff;"/>
    <path clip-path="url(#p74276d1e10)" d="M 4337.207803 387.482 
L 4361.245774 385.891465 
L 4359.669613 383.199655 
L 4373.865482 386.4545 
L 4360.222227 391.551393 
L 4361.429978 388.675378 
L 4337.392008 390.265912 
L 4337.207803 387.482 
" style="fill:#0000ff;"/>
    <path clip-path="url(#p74276d1e10)" d="M 4564.830929 372.420726 
L 4588.868203 370.819703 
L 4587.290867 368.128581 
L 4601.488156 371.377231 
L 4587.847126 376.480076 
L 4589.053622 373.603535 
L 4565.016348 375.204558 
L 4564.830929 372.420726 
" style="fill:#0000ff;"/>
    <path clip-path="url(#p74276d1e10)" d="M 4805.810006 356.370114 
L 4829.845009 354.735361 
L 4828.263899 352.046455 
L 4842.465732 355.275179 
L 4828.831876 360.397162 
L 4830.034335 357.51893 
L 4805.999331 359.153682 
L 4805.810006 356.370114 
" style="fill:#0000ff;"/>
    <path clip-path="url(#p74276d1e10)" d="M 5061.191172 339.000237 
L 5085.22433 337.338577 
L 5083.640211 334.651443 
L 5097.84565 337.864266 
L 5084.217537 343.001509 
L 5085.416772 340.121933 
L 5061.383614 341.783593 
L 5061.191172 339.000237 
" style="fill:#0000ff;"/>
    <path clip-path="url(#p74276d1e10)" d="M 5332.291756 320.256263 
L 5356.321185 318.541513 
L 5354.731133 315.857885 
L 5368.943635 319.039317 
L 5355.326905 324.206654 
L 5356.519776 321.324436 
L 5332.490347 323.039186 
L 5332.291756 320.256263 
" style="fill:#0000ff;"/>
    <path clip-path="url(#p74276d1e10)" d="M 5620.38062 299.698118 
L 5644.410049 297.983368 
L 5642.819996 295.29974 
L 5657.032499 298.481172 
L 5643.415768 303.64851 
L 5644.608639 300.766291 
L 5620.57921 302.481042 
L 5620.38062 299.698118 
" style="fill:#0000ff;"/>
   </g>
   <g id="matplotlib.axis_1">
    <g id="xtick_1">
     <g id="line2d_1">
      <defs>
       <path d="M 0 0 
L 0 3.5 
" id="m9bf7ad62c6" style="stroke:#000000;stroke-width:0.8;"/>
      </defs>
      <g>
       <use style="stroke:#000000;stroke-width:0.8;" x="124.0896" xlink:href="#m9bf7ad62c6" y="512.64"/>
      </g>
     </g>
     <g id="text_1">
      <!-- 0.00 -->
      <g transform="translate(112.956788 527.238438)scale(0.1 -0.1)">
       <defs>
        <path d="M 31.78125 66.40625 
Q 24.171875 66.40625 20.328125 58.90625 
Q 16.5 51.421875 16.5 36.375 
Q 16.5 21.390625 20.328125 13.890625 
Q 24.171875 6.390625 31.78125 6.390625 
Q 39.453125 6.390625 43.28125 13.890625 
Q 47.125 21.390625 47.125 36.375 
Q 47.125 51.421875 43.28125 58.90625 
Q 39.453125 66.40625 31.78125 66.40625 
z
M 31.78125 74.21875 
Q 44.046875 74.21875 50.515625 64.515625 
Q 56.984375 54.828125 56.984375 36.375 
Q 56.984375 17.96875 50.515625 8.265625 
Q 44.046875 -1.421875 31.78125 -1.421875 
Q 19.53125 -1.421875 13.0625 8.265625 
Q 6.59375 17.96875 6.59375 36.375 
Q 6.59375 54.828125 13.0625 64.515625 
Q 19.53125 74.21875 31.78125 74.21875 
z
" id="DejaVuSans-48"/>
        <path d="M 10.6875 12.40625 
L 21 12.40625 
L 21 0 
L 10.6875 0 
z
" id="DejaVuSans-46"/>
       </defs>
       <use xlink:href="#DejaVuSans-48"/>
       <use x="63.623047" xlink:href="#DejaVuSans-46"/>
       <use x="95.410156" xlink:href="#DejaVuSans-48"/>
       <use x="159.033203" xlink:href="#DejaVuSans-48"/>
      </g>
     </g>
    </g>
    <g id="xtick_2">
     <g id="line2d_2">
      <g>
       <use style="stroke:#000000;stroke-width:0.8;" x="234.026202" xlink:href="#m9bf7ad62c6" y="512.64"/>
      </g>
     </g>
     <g id="text_2">
      <!-- 0.02 -->
      <g transform="translate(222.893389 527.238438)scale(0.1 -0.1)">
       <defs>
        <path d="M 19.1875 8.296875 
L 53.609375 8.296875 
L 53.609375 0 
L 7.328125 0 
L 7.328125 8.296875 
Q 12.9375 14.109375 22.625 23.890625 
Q 32.328125 33.6875 34.8125 36.53125 
Q 39.546875 41.84375 41.421875 45.53125 
Q 43.3125 49.21875 43.3125 52.78125 
Q 43.3125 58.59375 39.234375 62.25 
Q 35.15625 65.921875 28.609375 65.921875 
Q 23.96875 65.921875 18.8125 64.3125 
Q 13.671875 62.703125 7.8125 59.421875 
L 7.8125 69.390625 
Q 13.765625 71.78125 18.9375 73 
Q 24.125 74.21875 28.421875 74.21875 
Q 39.75 74.21875 46.484375 68.546875 
Q 53.21875 62.890625 53.21875 53.421875 
Q 53.21875 48.921875 51.53125 44.890625 
Q 49.859375 40.875 45.40625 35.40625 
Q 44.1875 33.984375 37.640625 27.21875 
Q 31.109375 20.453125 19.1875 8.296875 
z
" id="DejaVuSans-50"/>
       </defs>
       <use xlink:href="#DejaVuSans-48"/>
       <use x="63.623047" xlink:href="#DejaVuSans-46"/>
       <use x="95.410156" xlink:href="#DejaVuSans-48"/>
       <use x="159.033203" xlink:href="#DejaVuSans-50"/>
      </g>
     </g>
    </g>
    <g id="xtick_3">
     <g id="line2d_3">
      <g>
       <use style="stroke:#000000;stroke-width:0.8;" x="343.962803" xlink:href="#m9bf7ad62c6" y="512.64"/>
      </g>
     </g>
     <g id="text_3">
      <!-- 0.04 -->
      <g transform="translate(332.82999 527.238438)scale(0.1 -0.1)">
       <defs>
        <path d="M 37.796875 64.3125 
L 12.890625 25.390625 
L 37.796875 25.390625 
z
M 35.203125 72.90625 
L 47.609375 72.90625 
L 47.609375 25.390625 
L 58.015625 25.390625 
L 58.015625 17.1875 
L 47.609375 17.1875 
L 47.609375 0 
L 37.796875 0 
L 37.796875 17.1875 
L 4.890625 17.1875 
L 4.890625 26.703125 
z
" id="DejaVuSans-52"/>
       </defs>
       <use xlink:href="#DejaVuSans-48"/>
       <use x="63.623047" xlink:href="#DejaVuSans-46"/>
       <use x="95.410156" xlink:href="#DejaVuSans-48"/>
       <use x="159.033203" xlink:href="#DejaVuSans-52"/>
      </g>
     </g>
    </g>
    <g id="xtick_4">
     <g id="line2d_4">
      <g>
       <use style="stroke:#000000;stroke-width:0.8;" x="453.899404" xlink:href="#m9bf7ad62c6" y="512.64"/>
      </g>
     </g>
     <g id="text_4">
      <!-- 0.06 -->
      <g transform="translate(442.766592 527.238438)scale(0.1 -0.1)">
       <defs>
        <path d="M 33.015625 40.375 
Q 26.375 40.375 22.484375 35.828125 
Q 18.609375 31.296875 18.609375 23.390625 
Q 18.609375 15.53125 22.484375 10.953125 
Q 26.375 6.390625 33.015625 6.390625 
Q 39.65625 6.390625 43.53125 10.953125 
Q 47.40625 15.53125 47.40625 23.390625 
Q 47.40625 31.296875 43.53125 35.828125 
Q 39.65625 40.375 33.015625 40.375 
z
M 52.59375 71.296875 
L 52.59375 62.3125 
Q 48.875 64.0625 45.09375 64.984375 
Q 41.3125 65.921875 37.59375 65.921875 
Q 27.828125 65.921875 22.671875 59.328125 
Q 17.53125 52.734375 16.796875 39.40625 
Q 19.671875 43.65625 24.015625 45.921875 
Q 28.375 48.1875 33.59375 48.1875 
Q 44.578125 48.1875 50.953125 41.515625 
Q 57.328125 34.859375 57.328125 23.390625 
Q 57.328125 12.15625 50.6875 5.359375 
Q 44.046875 -1.421875 33.015625 -1.421875 
Q 20.359375 -1.421875 13.671875 8.265625 
Q 6.984375 17.96875 6.984375 36.375 
Q 6.984375 53.65625 15.1875 63.9375 
Q 23.390625 74.21875 37.203125 74.21875 
Q 40.921875 74.21875 44.703125 73.484375 
Q 48.484375 72.75 52.59375 71.296875 
z
" id="DejaVuSans-54"/>
       </defs>
       <use xlink:href="#DejaVuSans-48"/>
       <use x="63.623047" xlink:href="#DejaVuSans-46"/>
       <use x="95.410156" xlink:href="#DejaVuSans-48"/>
       <use x="159.033203" xlink:href="#DejaVuSans-54"/>
      </g>
     </g>
    </g>
    <g id="xtick_5">
     <g id="line2d_5">
      <g>
       <use style="stroke:#000000;stroke-width:0.8;" x="563.836005" xlink:href="#m9bf7ad62c6" y="512.64"/>
      </g>
     </g>
     <g id="text_5">
      <!-- 0.08 -->
      <g transform="translate(552.703193 527.238438)scale(0.1 -0.1)">
       <defs>
        <path d="M 31.78125 34.625 
Q 24.75 34.625 20.71875 30.859375 
Q 16.703125 27.09375 16.703125 20.515625 
Q 16.703125 13.921875 20.71875 10.15625 
Q 24.75 6.390625 31.78125 6.390625 
Q 38.8125 6.390625 42.859375 10.171875 
Q 46.921875 13.96875 46.921875 20.515625 
Q 46.921875 27.09375 42.890625 30.859375 
Q 38.875 34.625 31.78125 34.625 
z
M 21.921875 38.8125 
Q 15.578125 40.375 12.03125 44.71875 
Q 8.5 49.078125 8.5 55.328125 
Q 8.5 64.0625 14.71875 69.140625 
Q 20.953125 74.21875 31.78125 74.21875 
Q 42.671875 74.21875 48.875 69.140625 
Q 55.078125 64.0625 55.078125 55.328125 
Q 55.078125 49.078125 51.53125 44.71875 
Q 48 40.375 41.703125 38.8125 
Q 48.828125 37.15625 52.796875 32.3125 
Q 56.78125 27.484375 56.78125 20.515625 
Q 56.78125 9.90625 50.3125 4.234375 
Q 43.84375 -1.421875 31.78125 -1.421875 
Q 19.734375 -1.421875 13.25 4.234375 
Q 6.78125 9.90625 6.78125 20.515625 
Q 6.78125 27.484375 10.78125 32.3125 
Q 14.796875 37.15625 21.921875 38.8125 
z
M 18.3125 54.390625 
Q 18.3125 48.734375 21.84375 45.5625 
Q 25.390625 42.390625 31.78125 42.390625 
Q 38.140625 42.390625 41.71875 45.5625 
Q 45.3125 48.734375 45.3125 54.390625 
Q 45.3125 60.0625 41.71875 63.234375 
Q 38.140625 66.40625 31.78125 66.40625 
Q 25.390625 66.40625 21.84375 63.234375 
Q 18.3125 60.0625 18.3125 54.390625 
z
" id="DejaVuSans-56"/>
       </defs>
       <use xlink:href="#DejaVuSans-48"/>
       <use x="63.623047" xlink:href="#DejaVuSans-46"/>
       <use x="95.410156" xlink:href="#DejaVuSans-48"/>
       <use x="159.033203" xlink:href="#DejaVuSans-56"/>
      </g>
     </g>
    </g>
   </g>
   <g id="matplotlib.axis_2">
    <g id="ytick_1">
     <g id="line2d_6">
      <defs>
       <path d="M 0 0 
L -3.5 0 
" id="m0a97b1f386" style="stroke:#000000;stroke-width:0.8;"/>
      </defs>
      <g>
       <use style="stroke:#000000;stroke-width:0.8;" x="90" xlink:href="#m0a97b1f386" y="459.068476"/>
      </g>
     </g>
     <g id="text_6">
      <!-- −0.03 -->
      <g transform="translate(52.354687 462.867695)scale(0.1 -0.1)">
       <defs>
        <path d="M 10.59375 35.5 
L 73.1875 35.5 
L 73.1875 27.203125 
L 10.59375 27.203125 
z
" id="DejaVuSans-8722"/>
        <path d="M 40.578125 39.3125 
Q 47.65625 37.796875 51.625 33 
Q 55.609375 28.21875 55.609375 21.1875 
Q 55.609375 10.40625 48.1875 4.484375 
Q 40.765625 -1.421875 27.09375 -1.421875 
Q 22.515625 -1.421875 17.65625 -0.515625 
Q 12.796875 0.390625 7.625 2.203125 
L 7.625 11.71875 
Q 11.71875 9.328125 16.59375 8.109375 
Q 21.484375 6.890625 26.8125 6.890625 
Q 36.078125 6.890625 40.9375 10.546875 
Q 45.796875 14.203125 45.796875 21.1875 
Q 45.796875 27.640625 41.28125 31.265625 
Q 36.765625 34.90625 28.71875 34.90625 
L 20.21875 34.90625 
L 20.21875 43.015625 
L 29.109375 43.015625 
Q 36.375 43.015625 40.234375 45.921875 
Q 44.09375 48.828125 44.09375 54.296875 
Q 44.09375 59.90625 40.109375 62.90625 
Q 36.140625 65.921875 28.71875 65.921875 
Q 24.65625 65.921875 20.015625 65.03125 
Q 15.375 64.15625 9.8125 62.3125 
L 9.8125 71.09375 
Q 15.4375 72.65625 20.34375 73.4375 
Q 25.25 74.21875 29.59375 74.21875 
Q 40.828125 74.21875 47.359375 69.109375 
Q 53.90625 64.015625 53.90625 55.328125 
Q 53.90625 49.265625 50.4375 45.09375 
Q 46.96875 40.921875 40.578125 39.3125 
z
" id="DejaVuSans-51"/>
       </defs>
       <use xlink:href="#DejaVuSans-8722"/>
       <use x="83.789062" xlink:href="#DejaVuSans-48"/>
       <use x="147.412109" xlink:href="#DejaVuSans-46"/>
       <use x="179.199219" xlink:href="#DejaVuSans-48"/>
       <use x="242.822266" xlink:href="#DejaVuSans-51"/>
      </g>
     </g>
    </g>
    <g id="ytick_2">
     <g id="line2d_7">
      <g>
       <use style="stroke:#000000;stroke-width:0.8;" x="90" xlink:href="#m0a97b1f386" y="404.100175"/>
      </g>
     </g>
     <g id="text_7">
      <!-- −0.02 -->
      <g transform="translate(52.354687 407.899394)scale(0.1 -0.1)">
       <use xlink:href="#DejaVuSans-8722"/>
       <use x="83.789062" xlink:href="#DejaVuSans-48"/>
       <use x="147.412109" xlink:href="#DejaVuSans-46"/>
       <use x="179.199219" xlink:href="#DejaVuSans-48"/>
       <use x="242.822266" xlink:href="#DejaVuSans-50"/>
      </g>
     </g>
    </g>
    <g id="ytick_3">
     <g id="line2d_8">
      <g>
       <use style="stroke:#000000;stroke-width:0.8;" x="90" xlink:href="#m0a97b1f386" y="349.131875"/>
      </g>
     </g>
     <g id="text_8">
      <!-- −0.01 -->
      <g transform="translate(52.354687 352.931094)scale(0.1 -0.1)">
       <defs>
        <path d="M 12.40625 8.296875 
L 28.515625 8.296875 
L 28.515625 63.921875 
L 10.984375 60.40625 
L 10.984375 69.390625 
L 28.421875 72.90625 
L 38.28125 72.90625 
L 38.28125 8.296875 
L 54.390625 8.296875 
L 54.390625 0 
L 12.40625 0 
z
" id="DejaVuSans-49"/>
       </defs>
       <use xlink:href="#DejaVuSans-8722"/>
       <use x="83.789062" xlink:href="#DejaVuSans-48"/>
       <use x="147.412109" xlink:href="#DejaVuSans-46"/>
       <use x="179.199219" xlink:href="#DejaVuSans-48"/>
       <use x="242.822266" xlink:href="#DejaVuSans-49"/>
      </g>
     </g>
    </g>
    <g id="ytick_4">
     <g id="line2d_9">
      <g>
       <use style="stroke:#000000;stroke-width:0.8;" x="90" xlink:href="#m0a97b1f386" y="294.163574"/>
      </g>
     </g>
     <g id="text_9">
      <!-- 0.00 -->
      <g transform="translate(60.734375 297.962793)scale(0.1 -0.1)">
       <use xlink:href="#DejaVuSans-48"/>
       <use x="63.623047" xlink:href="#DejaVuSans-46"/>
       <use x="95.410156" xlink:href="#DejaVuSans-48"/>
       <use x="159.033203" xlink:href="#DejaVuSans-48"/>
      </g>
     </g>
    </g>
    <g id="ytick_5">
     <g id="line2d_10">
      <g>
       <use style="stroke:#000000;stroke-width:0.8;" x="90" xlink:href="#m0a97b1f386" y="239.195274"/>
      </g>
     </g>
     <g id="text_10">
      <!-- 0.01 -->
      <g transform="translate(60.734375 242.994492)scale(0.1 -0.1)">
       <use xlink:href="#DejaVuSans-48"/>
       <use x="63.623047" xlink:href="#DejaVuSans-46"/>
       <use x="95.410156" xlink:href="#DejaVuSans-48"/>
       <use x="159.033203" xlink:href="#DejaVuSans-49"/>
      </g>
     </g>
    </g>
    <g id="ytick_6">
     <g id="line2d_11">
      <g>
       <use style="stroke:#000000;stroke-width:0.8;" x="90" xlink:href="#m0a97b1f386" y="184.226973"/>
      </g>
     </g>
     <g id="text_11">
      <!-- 0.02 -->
      <g transform="translate(60.734375 188.026192)scale(0.1 -0.1)">
       <use xlink:href="#DejaVuSans-48"/>
       <use x="63.623047" xlink:href="#DejaVuSans-46"/>
       <use x="95.410156" xlink:href="#DejaVuSans-48"/>
       <use x="159.033203" xlink:href="#DejaVuSans-50"/>
      </g>
     </g>
    </g>
    <g id="ytick_7">
     <g id="line2d_12">
      <g>
       <use style="stroke:#000000;stroke-width:0.8;" x="90" xlink:href="#m0a97b1f386" y="129.258672"/>
      </g>
     </g>
     <g id="text_12">
      <!-- 0.03 -->
      <g transform="translate(60.734375 133.057891)scale(0.1 -0.1)">
       <use xlink:href="#DejaVuSans-48"/>
       <use x="63.623047" xlink:href="#DejaVuSans-46"/>
       <use x="95.410156" xlink:href="#DejaVuSans-48"/>
       <use x="159.033203" xlink:href="#DejaVuSans-51"/>
      </g>
     </g>
    </g>
    <g id="ytick_8">
     <g id="line2d_13">
      <g>
       <use style="stroke:#000000;stroke-width:0.8;" x="90" xlink:href="#m0a97b1f386" y="74.290372"/>
      </g>
     </g>
     <g id="text_13">
      <!-- 0.04 -->
      <g transform="translate(60.734375 78.08959)scale(0.1 -0.1)">
       <use xlink:href="#DejaVuSans-48"/>
       <use x="63.623047" xlink:href="#DejaVuSans-46"/>
       <use x="95.410156" xlink:href="#DejaVuSans-48"/>
       <use x="159.033203" xlink:href="#DejaVuSans-52"/>
      </g>
     </g>
    </g>
   </g>
   <g id="line2d_14">
    <path clip-path="url(#p74276d1e10)" d="M 616.599938 -1 
L 575.65419 9.867523 
L 524.918448 24.489091 
L 475.941693 39.880216 
L 428.778891 56.040896 
L 383.265138 73.191006 
L 339.455402 91.49545 
L 297.184779 111.22907 
L 256.563205 132.831612 
L 217.59068 157.127601 
L 180.37714 185.876022 
L 145.362333 224.078991 
L 129.421526 253.981746 
L 124.0896 294.163574 
L 137.227024 332.47648 
L 158.664661 358.696359 
L 200.11076 389.423639 
L 241.721764 410.586435 
L 284.047355 427.24183 
L 327.362376 441.093842 
L 371.776763 452.966995 
L 417.400452 463.356003 
L 464.288413 472.53571 
L 512.605549 480.671018 
L 562.406829 487.926834 
L 613.692254 494.413093 
L 666.681696 500.184765 
L 721 505.261752 
" style="fill:none;stroke:#0000ff;stroke-dasharray:5.55,2.4;stroke-dashoffset:0;stroke-width:1.5;"/>
    <defs>
     <path d="M 0 3 
C 0.795609 3 1.55874 2.683901 2.12132 2.12132 
C 2.683901 1.55874 3 0.795609 3 0 
C 3 -0.795609 2.683901 -1.55874 2.12132 -2.12132 
C 1.55874 -2.683901 0.795609 -3 0 -3 
C -0.795609 -3 -1.55874 -2.683901 -2.12132 -2.12132 
C -2.683901 -1.55874 -3 -0.795609 -3 0 
C -3 0.795609 -2.683901 1.55874 -2.12132 2.12132 
C -1.55874 2.683901 -0.795609 3 0 3 
z
" id="m5e66a16a58" style="stroke:#0000ff;"/>
    </defs>
    <g clip-path="url(#p74276d1e10)">
     <use style="fill:#0000ff;stroke:#0000ff;" x="5621.359408" xlink:href="#m5e66a16a58" y="287.237568"/>
     <use style="fill:#0000ff;stroke:#0000ff;" x="5337.94285" xlink:href="#m5e66a16a58" y="230.235441"/>
     <use style="fill:#0000ff;stroke:#0000ff;" x="5070.192258" xlink:href="#m5e66a16a58" y="180.10435"/>
     <use style="fill:#0000ff;stroke:#0000ff;" x="4817.063233" xlink:href="#m5e66a16a58" y="135.909837"/>
     <use style="fill:#0000ff;stroke:#0000ff;" x="4577.511379" xlink:href="#m5e66a16a58" y="96.827375"/>
     <use style="fill:#0000ff;stroke:#0000ff;" x="4350.602234" xlink:href="#m5e66a16a58" y="62.197346"/>
     <use style="fill:#0000ff;stroke:#0000ff;" x="4135.566242" xlink:href="#m5e66a16a58" y="31.470066"/>
     <use style="fill:#0000ff;stroke:#0000ff;" x="3931.578879" xlink:href="#m5e66a16a58" y="4.315725"/>
     <use style="fill:#0000ff;stroke:#0000ff;" x="3888.614165" xlink:href="#m5e66a16a58" y="-1"/>
     <use style="fill:#0000ff;stroke:#0000ff;" x="616.599938" xlink:href="#m5e66a16a58" y="-1"/>
     <use style="fill:#0000ff;stroke:#0000ff;" x="575.65419" xlink:href="#m5e66a16a58" y="9.867523"/>
     <use style="fill:#0000ff;stroke:#0000ff;" x="524.918448" xlink:href="#m5e66a16a58" y="24.489091"/>
     <use style="fill:#0000ff;stroke:#0000ff;" x="475.941693" xlink:href="#m5e66a16a58" y="39.880216"/>
     <use style="fill:#0000ff;stroke:#0000ff;" x="428.778891" xlink:href="#m5e66a16a58" y="56.040896"/>
     <use style="fill:#0000ff;stroke:#0000ff;" x="383.265138" xlink:href="#m5e66a16a58" y="73.191006"/>
     <use style="fill:#0000ff;stroke:#0000ff;" x="339.455402" xlink:href="#m5e66a16a58" y="91.49545"/>
     <use style="fill:#0000ff;stroke:#0000ff;" x="297.184779" xlink:href="#m5e66a16a58" y="111.22907"/>
     <use style="fill:#0000ff;stroke:#0000ff;" x="256.563205" xlink:href="#m5e66a16a58" y="132.831612"/>
     <use style="fill:#0000ff;stroke:#0000ff;" x="217.59068" xlink:href="#m5e66a16a58" y="157.127601"/>
     <use style="fill:#0000ff;stroke:#0000ff;" x="180.37714" xlink:href="#m5e66a16a58" y="185.876022"/>
     <use style="fill:#0000ff;stroke:#0000ff;" x="145.362333" xlink:href="#m5e66a16a58" y="224.078991"/>
     <use style="fill:#0000ff;stroke:#0000ff;" x="129.421526" xlink:href="#m5e66a16a58" y="253.981746"/>
     <use style="fill:#0000ff;stroke:#0000ff;" x="124.0896" xlink:href="#m5e66a16a58" y="294.163574"/>
     <use style="fill:#0000ff;stroke:#0000ff;" x="137.227024" xlink:href="#m5e66a16a58" y="332.47648"/>
     <use style="fill:#0000ff;stroke:#0000ff;" x="158.664661" xlink:href="#m5e66a16a58" y="358.696359"/>
     <use style="fill:#0000ff;stroke:#0000ff;" x="200.11076" xlink:href="#m5e66a16a58" y="389.423639"/>
     <use style="fill:#0000ff;stroke:#0000ff;" x="241.721764" xlink:href="#m5e66a16a58" y="410.586435"/>
     <use style="fill:#0000ff;stroke:#0000ff;" x="284.047355" xlink:href="#m5e66a16a58" y="427.24183"/>
     <use style="fill:#0000ff;stroke:#0000ff;" x="327.362376" xlink:href="#m5e66a16a58" y="441.093842"/>
     <use style="fill:#0000ff;stroke:#0000ff;" x="371.776763" xlink:href="#m5e66a16a58" y="452.966995"/>
     <use style="fill:#0000ff;stroke:#0000ff;" x="417.400452" xlink:href="#m5e66a16a58" y="463.356003"/>
     <use style="fill:#0000ff;stroke:#0000ff;" x="464.288413" xlink:href="#m5e66a16a58" y="472.53571"/>
     <use style="fill:#0000ff;stroke:#0000ff;" x="512.605549" xlink:href="#m5e66a16a58" y="480.671018"/>
     <use style="fill:#0000ff;stroke:#0000ff;" x="562.406829" xlink:href="#m5e66a16a58" y="487.926834"/>
     <use style="fill:#0000ff;stroke:#0000ff;" x="613.692254" xlink:href="#m5e66a16a58" y="494.413093"/>
     <use style="fill:#0000ff;stroke:#0000ff;" x="666.681696" xlink:href="#m5e66a16a58" y="500.184765"/>
     <use style="fill:#0000ff;stroke:#0000ff;" x="721.375155" xlink:href="#m5e66a16a58" y="505.296817"/>
     <use style="fill:#0000ff;stroke:#0000ff;" x="777.8276" xlink:href="#m5e66a16a58" y="509.859186"/>
     <use style="fill:#0000ff;stroke:#0000ff;" x="836.258903" xlink:href="#m5e66a16a58" y="513.816903"/>
     <use style="fill:#0000ff;stroke:#0000ff;" x="896.669065" xlink:href="#m5e66a16a58" y="517.224938"/>
     <use style="fill:#0000ff;stroke:#0000ff;" x="959.168023" xlink:href="#m5e66a16a58" y="520.08329"/>
     <use style="fill:#0000ff;stroke:#0000ff;" x="1023.920681" xlink:href="#m5e66a16a58" y="522.446927"/>
     <use style="fill:#0000ff;stroke:#0000ff;" x="1090.982008" xlink:href="#m5e66a16a58" y="524.370817"/>
     <use style="fill:#0000ff;stroke:#0000ff;" x="1160.516908" xlink:href="#m5e66a16a58" y="525.745025"/>
     <use style="fill:#0000ff;stroke:#0000ff;" x="1232.635319" xlink:href="#m5e66a16a58" y="526.624517"/>
     <use style="fill:#0000ff;stroke:#0000ff;" x="1307.447176" xlink:href="#m5e66a16a58" y="527.064264"/>
     <use style="fill:#0000ff;stroke:#0000ff;" x="1385.227321" xlink:href="#m5e66a16a58" y="527.009296"/>
     <use style="fill:#0000ff;stroke:#0000ff;" x="1465.975755" xlink:href="#m5e66a16a58" y="526.514581"/>
     <use style="fill:#0000ff;stroke:#0000ff;" x="1549.967318" xlink:href="#m5e66a16a58" y="525.525151"/>
     <use style="fill:#0000ff;stroke:#0000ff;" x="1637.366916" xlink:href="#m5e66a16a58" y="524.095976"/>
     <use style="fill:#0000ff;stroke:#0000ff;" x="1728.339454" xlink:href="#m5e66a16a58" y="522.172085"/>
     <use style="fill:#0000ff;stroke:#0000ff;" x="1823.104804" xlink:href="#m5e66a16a58" y="519.808448"/>
     <use style="fill:#0000ff;stroke:#0000ff;" x="1921.937808" xlink:href="#m5e66a16a58" y="517.005065"/>
     <use style="fill:#0000ff;stroke:#0000ff;" x="2025.05834" xlink:href="#m5e66a16a58" y="513.816903"/>
     <use style="fill:#0000ff;stroke:#0000ff;" x="2132.686273" xlink:href="#m5e66a16a58" y="510.134027"/>
     <use style="fill:#0000ff;stroke:#0000ff;" x="2245.151416" xlink:href="#m5e66a16a58" y="506.121341"/>
     <use style="fill:#0000ff;stroke:#0000ff;" x="2363.058421" xlink:href="#m5e66a16a58" y="501.668909"/>
     <use style="fill:#0000ff;stroke:#0000ff;" x="2487.066907" xlink:href="#m5e66a16a58" y="496.611825"/>
     <use style="fill:#0000ff;stroke:#0000ff;" x="2616.957001" xlink:href="#m5e66a16a58" y="490.785185"/>
     <use style="fill:#0000ff;stroke:#0000ff;" x="2753.003545" xlink:href="#m5e66a16a58" y="484.188989"/>
     <use style="fill:#0000ff;stroke:#0000ff;" x="2895.701254" xlink:href="#m5e66a16a58" y="476.878205"/>
     <use style="fill:#0000ff;stroke:#0000ff;" x="3045.434905" xlink:href="#m5e66a16a58" y="468.742897"/>
     <use style="fill:#0000ff;stroke:#0000ff;" x="3202.699213" xlink:href="#m5e66a16a58" y="459.838032"/>
     <use style="fill:#0000ff;stroke:#0000ff;" x="3367.988893" xlink:href="#m5e66a16a58" y="450.163611"/>
     <use style="fill:#0000ff;stroke:#0000ff;" x="3541.963564" xlink:href="#m5e66a16a58" y="439.609698"/>
     <use style="fill:#0000ff;stroke:#0000ff;" x="3725.117942" xlink:href="#m5e66a16a58" y="428.231259"/>
     <use style="fill:#0000ff;stroke:#0000ff;" x="3918.221582" xlink:href="#m5e66a16a58" y="415.973328"/>
     <use style="fill:#0000ff;stroke:#0000ff;" x="4122.044041" xlink:href="#m5e66a16a58" y="402.890873"/>
     <use style="fill:#0000ff;stroke:#0000ff;" x="4337.299906" xlink:href="#m5e66a16a58" y="388.873956"/>
     <use style="fill:#0000ff;stroke:#0000ff;" x="4564.923639" xlink:href="#m5e66a16a58" y="373.812642"/>
     <use style="fill:#0000ff;stroke:#0000ff;" x="4805.904668" xlink:href="#m5e66a16a58" y="357.761898"/>
     <use style="fill:#0000ff;stroke:#0000ff;" x="5061.287393" xlink:href="#m5e66a16a58" y="340.391915"/>
     <use style="fill:#0000ff;stroke:#0000ff;" x="5332.391052" xlink:href="#m5e66a16a58" y="321.647724"/>
     <use style="fill:#0000ff;stroke:#0000ff;" x="5620.479915" xlink:href="#m5e66a16a58" y="301.08958"/>
    </g>
   </g>
   <g id="patch_3">
    <path d="M 90 512.64 
L 90 69.12 
" style="fill:none;stroke:#000000;stroke-linecap:square;stroke-linejoin:miter;stroke-width:0.8;"/>
   </g>
   <g id="patch_4">
    <path d="M 648 512.64 
L 648 69.12 
" style="fill:none;stroke:#000000;stroke-linecap:square;stroke-linejoin:miter;stroke-width:0.8;"/>
   </g>
   <g id="patch_5">
    <path d="M 90 512.64 
L 648 512.64 
" style="fill:none;stroke:#000000;stroke-linecap:square;stroke-linejoin:miter;stroke-width:0.8;"/>
   </g>
   <g id="patch_6">
    <path d="M 90 69.12 
L 648 69.12 
" style="fill:none;stroke:#000000;stroke-linecap:square;stroke-linejoin:miter;stroke-width:0.8;"/>
   </g>
   <g id="legend_1">
    <g id="patch_7">
     <path d="M 564.09375 507.64 
L 641 507.64 
Q 643 507.64 643 505.64 
L 643 491.961875 
Q 643 489.961875 641 489.961875 
L 564.09375 489.961875 
Q 562.09375 489.961875 562.09375 491.961875 
L 562.09375 505.64 
Q 562.09375 507.64 564.09375 507.64 
z
" style="fill:#ffffff;opacity:0.8;stroke:#cccccc;stroke-linejoin:miter;"/>
    </g>
    <g id="line2d_15">
     <path d="M 566.09375 498.060313 
L 586.09375 498.060313 
" style="fill:none;stroke:#0000ff;stroke-dasharray:5.55,2.4;stroke-dashoffset:0;stroke-width:1.5;"/>
    </g>
    <g id="line2d_16">
     <g>
      <use style="fill:#0000ff;stroke:#0000ff;" x="576.09375" xlink:href="#m5e66a16a58" y="498.060313"/>
     </g>
    </g>
    <g id="text_14">
     <!-- RawData -->
     <g transform="translate(594.09375 501.560313)scale(0.1 -0.1)">
      <defs>
       <path d="M 44.390625 34.1875 
Q 47.5625 33.109375 50.5625 29.59375 
Q 53.5625 26.078125 56.59375 19.921875 
L 66.609375 0 
L 56 0 
L 46.6875 18.703125 
Q 43.0625 26.03125 39.671875 28.421875 
Q 36.28125 30.8125 30.421875 30.8125 
L 19.671875 30.8125 
L 19.671875 0 
L 9.8125 0 
L 9.8125 72.90625 
L 32.078125 72.90625 
Q 44.578125 72.90625 50.734375 67.671875 
Q 56.890625 62.453125 56.890625 51.90625 
Q 56.890625 45.015625 53.6875 40.46875 
Q 50.484375 35.9375 44.390625 34.1875 
z
M 19.671875 64.796875 
L 19.671875 38.921875 
L 32.078125 38.921875 
Q 39.203125 38.921875 42.84375 42.21875 
Q 46.484375 45.515625 46.484375 51.90625 
Q 46.484375 58.296875 42.84375 61.546875 
Q 39.203125 64.796875 32.078125 64.796875 
z
" id="DejaVuSans-82"/>
       <path d="M 34.28125 27.484375 
Q 23.390625 27.484375 19.1875 25 
Q 14.984375 22.515625 14.984375 16.5 
Q 14.984375 11.71875 18.140625 8.90625 
Q 21.296875 6.109375 26.703125 6.109375 
Q 34.1875 6.109375 38.703125 11.40625 
Q 43.21875 16.703125 43.21875 25.484375 
L 43.21875 27.484375 
z
M 52.203125 31.203125 
L 52.203125 0 
L 43.21875 0 
L 43.21875 8.296875 
Q 40.140625 3.328125 35.546875 0.953125 
Q 30.953125 -1.421875 24.3125 -1.421875 
Q 15.921875 -1.421875 10.953125 3.296875 
Q 6 8.015625 6 15.921875 
Q 6 25.140625 12.171875 29.828125 
Q 18.359375 34.515625 30.609375 34.515625 
L 43.21875 34.515625 
L 43.21875 35.40625 
Q 43.21875 41.609375 39.140625 45 
Q 35.0625 48.390625 27.6875 48.390625 
Q 23 48.390625 18.546875 47.265625 
Q 14.109375 46.140625 10.015625 43.890625 
L 10.015625 52.203125 
Q 14.9375 54.109375 19.578125 55.046875 
Q 24.21875 56 28.609375 56 
Q 40.484375 56 46.34375 49.84375 
Q 52.203125 43.703125 52.203125 31.203125 
z
" id="DejaVuSans-97"/>
       <path d="M 4.203125 54.6875 
L 13.1875 54.6875 
L 24.421875 12.015625 
L 35.59375 54.6875 
L 46.1875 54.6875 
L 57.421875 12.015625 
L 68.609375 54.6875 
L 77.59375 54.6875 
L 63.28125 0 
L 52.6875 0 
L 40.921875 44.828125 
L 29.109375 0 
L 18.5 0 
z
" id="DejaVuSans-119"/>
       <path d="M 19.671875 64.796875 
L 19.671875 8.109375 
L 31.59375 8.109375 
Q 46.6875 8.109375 53.6875 14.9375 
Q 60.6875 21.78125 60.6875 36.53125 
Q 60.6875 51.171875 53.6875 57.984375 
Q 46.6875 64.796875 31.59375 64.796875 
z
M 9.8125 72.90625 
L 30.078125 72.90625 
Q 51.265625 72.90625 61.171875 64.09375 
Q 71.09375 55.28125 71.09375 36.53125 
Q 71.09375 17.671875 61.125 8.828125 
Q 51.171875 0 30.078125 0 
L 9.8125 0 
z
" id="DejaVuSans-68"/>
       <path d="M 18.3125 70.21875 
L 18.3125 54.6875 
L 36.8125 54.6875 
L 36.8125 47.703125 
L 18.3125 47.703125 
L 18.3125 18.015625 
Q 18.3125 11.328125 20.140625 9.421875 
Q 21.96875 7.515625 27.59375 7.515625 
L 36.8125 7.515625 
L 36.8125 0 
L 27.59375 0 
Q 17.1875 0 13.234375 3.875 
Q 9.28125 7.765625 9.28125 18.015625 
L 9.28125 47.703125 
L 2.6875 47.703125 
L 2.6875 54.6875 
L 9.28125 54.6875 
L 9.28125 70.21875 
z
" id="DejaVuSans-116"/>
      </defs>
      <use xlink:href="#DejaVuSans-82"/>
      <use x="67.232422" xlink:href="#DejaVuSans-97"/>
      <use x="128.511719" xlink:href="#DejaVuSans-119"/>
      <use x="210.298828" xlink:href="#DejaVuSans-68"/>
      <use x="287.300781" xlink:href="#DejaVuSans-97"/>
      <use x="348.580078" xlink:href="#DejaVuSans-116"/>
      <use x="387.789062" xlink:href="#DejaVuSans-97"/>
     </g>
    </g>
   </g>
  </g>
  <g id="axes_2">
   <g id="matplotlib.axis_3">
    <g id="ytick_9">
     <g id="line2d_17">
      <path clip-path="url(#p74276d1e10)" d="M 90 465.743597 
L 648 465.743597 
" style="fill:none;stroke:#b0b0b0;stroke-linecap:square;stroke-width:0.8;"/>
     </g>
     <g id="line2d_18">
      <defs>
       <path d="M 0 0 
L 3.5 0 
" id="m48a600d6d5" style="stroke:#000000;stroke-width:0.8;"/>
      </defs>
      <g>
       <use style="stroke:#000000;stroke-width:0.8;" x="648" xlink:href="#m48a600d6d5" y="465.743597"/>
      </g>
     </g>
     <g id="text_15">
      <!-- −0.15 -->
      <g transform="translate(655 469.542816)scale(0.1 -0.1)">
       <defs>
        <path d="M 10.796875 72.90625 
L 49.515625 72.90625 
L 49.515625 64.59375 
L 19.828125 64.59375 
L 19.828125 46.734375 
Q 21.96875 47.46875 24.109375 47.828125 
Q 26.265625 48.1875 28.421875 48.1875 
Q 40.625 48.1875 47.75 41.5 
Q 54.890625 34.8125 54.890625 23.390625 
Q 54.890625 11.625 47.5625 5.09375 
Q 40.234375 -1.421875 26.90625 -1.421875 
Q 22.3125 -1.421875 17.546875 -0.640625 
Q 12.796875 0.140625 7.71875 1.703125 
L 7.71875 11.625 
Q 12.109375 9.234375 16.796875 8.0625 
Q 21.484375 6.890625 26.703125 6.890625 
Q 35.15625 6.890625 40.078125 11.328125 
Q 45.015625 15.765625 45.015625 23.390625 
Q 45.015625 31 40.078125 35.4375 
Q 35.15625 39.890625 26.703125 39.890625 
Q 22.75 39.890625 18.8125 39.015625 
Q 14.890625 38.140625 10.796875 36.28125 
z
" id="DejaVuSans-53"/>
       </defs>
       <use xlink:href="#DejaVuSans-8722"/>
       <use x="83.789062" xlink:href="#DejaVuSans-48"/>
       <use x="147.412109" xlink:href="#DejaVuSans-46"/>
       <use x="179.199219" xlink:href="#DejaVuSans-49"/>
       <use x="242.822266" xlink:href="#DejaVuSans-53"/>
      </g>
     </g>
    </g>
    <g id="ytick_10">
     <g id="line2d_19">
      <path clip-path="url(#p74276d1e10)" d="M 90 386.941377 
L 648 386.941377 
" style="fill:none;stroke:#b0b0b0;stroke-linecap:square;stroke-width:0.8;"/>
     </g>
     <g id="line2d_20">
      <g>
       <use style="stroke:#000000;stroke-width:0.8;" x="648" xlink:href="#m48a600d6d5" y="386.941377"/>
      </g>
     </g>
     <g id="text_16">
      <!-- −0.10 -->
      <g transform="translate(655 390.740596)scale(0.1 -0.1)">
       <use xlink:href="#DejaVuSans-8722"/>
       <use x="83.789062" xlink:href="#DejaVuSans-48"/>
       <use x="147.412109" xlink:href="#DejaVuSans-46"/>
       <use x="179.199219" xlink:href="#DejaVuSans-49"/>
       <use x="242.822266" xlink:href="#DejaVuSans-48"/>
      </g>
     </g>
    </g>
    <g id="ytick_11">
     <g id="line2d_21">
      <path clip-path="url(#p74276d1e10)" d="M 90 308.139157 
L 648 308.139157 
" style="fill:none;stroke:#b0b0b0;stroke-linecap:square;stroke-width:0.8;"/>
     </g>
     <g id="line2d_22">
      <g>
       <use style="stroke:#000000;stroke-width:0.8;" x="648" xlink:href="#m48a600d6d5" y="308.139157"/>
      </g>
     </g>
     <g id="text_17">
      <!-- −0.05 -->
      <g transform="translate(655 311.938376)scale(0.1 -0.1)">
       <use xlink:href="#DejaVuSans-8722"/>
       <use x="83.789062" xlink:href="#DejaVuSans-48"/>
       <use x="147.412109" xlink:href="#DejaVuSans-46"/>
       <use x="179.199219" xlink:href="#DejaVuSans-48"/>
       <use x="242.822266" xlink:href="#DejaVuSans-53"/>
      </g>
     </g>
    </g>
    <g id="ytick_12">
     <g id="line2d_23">
      <path clip-path="url(#p74276d1e10)" d="M 90 229.336937 
L 648 229.336937 
" style="fill:none;stroke:#b0b0b0;stroke-linecap:square;stroke-width:0.8;"/>
     </g>
     <g id="line2d_24">
      <g>
       <use style="stroke:#000000;stroke-width:0.8;" x="648" xlink:href="#m48a600d6d5" y="229.336937"/>
      </g>
     </g>
     <g id="text_18">
      <!-- 0.00 -->
      <g transform="translate(655 233.136156)scale(0.1 -0.1)">
       <use xlink:href="#DejaVuSans-48"/>
       <use x="63.623047" xlink:href="#DejaVuSans-46"/>
       <use x="95.410156" xlink:href="#DejaVuSans-48"/>
       <use x="159.033203" xlink:href="#DejaVuSans-48"/>
      </g>
     </g>
    </g>
    <g id="ytick_13">
     <g id="line2d_25">
      <path clip-path="url(#p74276d1e10)" d="M 90 150.534717 
L 648 150.534717 
" style="fill:none;stroke:#b0b0b0;stroke-linecap:square;stroke-width:0.8;"/>
     </g>
     <g id="line2d_26">
      <g>
       <use style="stroke:#000000;stroke-width:0.8;" x="648" xlink:href="#m48a600d6d5" y="150.534717"/>
      </g>
     </g>
     <g id="text_19">
      <!-- 0.05 -->
      <g transform="translate(655 154.333936)scale(0.1 -0.1)">
       <use xlink:href="#DejaVuSans-48"/>
       <use x="63.623047" xlink:href="#DejaVuSans-46"/>
       <use x="95.410156" xlink:href="#DejaVuSans-48"/>
       <use x="159.033203" xlink:href="#DejaVuSans-53"/>
      </g>
     </g>
    </g>
    <g id="ytick_14">
     <g id="line2d_27">
      <path clip-path="url(#p74276d1e10)" d="M 90 71.732497 
L 648 71.732497 
" style="fill:none;stroke:#b0b0b0;stroke-linecap:square;stroke-width:0.8;"/>
     </g>
     <g id="line2d_28">
      <g>
       <use style="stroke:#000000;stroke-width:0.8;" x="648" xlink:href="#m48a600d6d5" y="71.732497"/>
      </g>
     </g>
     <g id="text_20">
      <!-- 0.10 -->
      <g transform="translate(655 75.531716)scale(0.1 -0.1)">
       <use xlink:href="#DejaVuSans-48"/>
       <use x="63.623047" xlink:href="#DejaVuSans-46"/>
       <use x="95.410156" xlink:href="#DejaVuSans-49"/>
       <use x="159.033203" xlink:href="#DejaVuSans-48"/>
      </g>
     </g>
    </g>
   </g>
   <g id="line2d_29">
    <path clip-path="url(#p74276d1e10)" d="M 129.421526 -1 
L 129.421526 577 
M 371.776763 577 
L 371.776763 537.894282 
L 417.400452 537.894282 
L 417.400452 494.700499 
L 464.288413 494.700499 
L 464.288413 458.9593 
L 512.605549 458.9593 
L 512.605549 428.665168 
L 562.406829 428.665168 
L 562.406829 401.001524 
L 613.692254 401.001524 
L 613.692254 376.64561 
L 666.681696 376.64561 
L 666.681696 356.709562 
L 721 356.709562 
L 721 356.709562 
" style="fill:none;stroke:#ff0000;stroke-linecap:square;stroke-width:1.5;"/>
   </g>
   <g id="line2d_30">
    <path clip-path="url(#p74276d1e10)" d="M 129.421526 -1 
L 129.421526 577 
M 371.776763 577 
L 371.776763 537.894282 
L 417.400452 537.894282 
L 417.400452 494.700499 
L 464.288413 494.700499 
L 464.288413 458.9593 
L 512.605549 458.9593 
L 512.605549 428.665168 
L 562.406829 428.665168 
L 562.406829 401.001524 
L 613.692254 401.001524 
L 613.692254 376.64561 
L 666.681696 376.64561 
L 666.681696 356.709562 
L 721 356.709562 
L 721 356.709562 
" style="fill:none;stroke:#000000;stroke-dasharray:5.55,2.4;stroke-dashoffset:0;stroke-width:1.5;"/>
   </g>
   <g id="patch_8">
    <path d="M 90 512.64 
L 90 69.12 
" style="fill:none;stroke:#000000;stroke-linecap:square;stroke-linejoin:miter;stroke-width:0.8;"/>
   </g>
   <g id="patch_9">
    <path d="M 648 512.64 
L 648 69.12 
" style="fill:none;stroke:#000000;stroke-linecap:square;stroke-linejoin:miter;stroke-width:0.8;"/>
   </g>
   <g id="patch_10">
    <path d="M 90 512.64 
L 648 512.64 
" style="fill:none;stroke:#000000;stroke-linecap:square;stroke-linejoin:miter;stroke-width:0.8;"/>
   </g>
   <g id="patch_11">
    <path d="M 90 69.12 
L 648 69.12 
" style="fill:none;stroke:#000000;stroke-linecap:square;stroke-linejoin:miter;stroke-width:0.8;"/>
   </g>
   <g id="text_21">
    <!-- Example of 3.2.1.1 -->
    <g transform="translate(312.380625 63.12)scale(0.12 -0.12)">
     <defs>
      <path d="M 9.8125 72.90625 
L 55.90625 72.90625 
L 55.90625 64.59375 
L 19.671875 64.59375 
L 19.671875 43.015625 
L 54.390625 43.015625 
L 54.390625 34.71875 
L 19.671875 34.71875 
L 19.671875 8.296875 
L 56.78125 8.296875 
L 56.78125 0 
L 9.8125 0 
z
" id="DejaVuSans-69"/>
      <path d="M 54.890625 54.6875 
L 35.109375 28.078125 
L 55.90625 0 
L 45.3125 0 
L 29.390625 21.484375 
L 13.484375 0 
L 2.875 0 
L 24.125 28.609375 
L 4.6875 54.6875 
L 15.28125 54.6875 
L 29.78125 35.203125 
L 44.28125 54.6875 
z
" id="DejaVuSans-120"/>
      <path d="M 52 44.1875 
Q 55.375 50.25 60.0625 53.125 
Q 64.75 56 71.09375 56 
Q 79.640625 56 84.28125 50.015625 
Q 88.921875 44.046875 88.921875 33.015625 
L 88.921875 0 
L 79.890625 0 
L 79.890625 32.71875 
Q 79.890625 40.578125 77.09375 44.375 
Q 74.3125 48.1875 68.609375 48.1875 
Q 61.625 48.1875 57.5625 43.546875 
Q 53.515625 38.921875 53.515625 30.90625 
L 53.515625 0 
L 44.484375 0 
L 44.484375 32.71875 
Q 44.484375 40.625 41.703125 44.40625 
Q 38.921875 48.1875 33.109375 48.1875 
Q 26.21875 48.1875 22.15625 43.53125 
Q 18.109375 38.875 18.109375 30.90625 
L 18.109375 0 
L 9.078125 0 
L 9.078125 54.6875 
L 18.109375 54.6875 
L 18.109375 46.1875 
Q 21.1875 51.21875 25.484375 53.609375 
Q 29.78125 56 35.6875 56 
Q 41.65625 56 45.828125 52.96875 
Q 50 49.953125 52 44.1875 
z
" id="DejaVuSans-109"/>
      <path d="M 18.109375 8.203125 
L 18.109375 -20.796875 
L 9.078125 -20.796875 
L 9.078125 54.6875 
L 18.109375 54.6875 
L 18.109375 46.390625 
Q 20.953125 51.265625 25.265625 53.625 
Q 29.59375 56 35.59375 56 
Q 45.5625 56 51.78125 48.09375 
Q 58.015625 40.1875 58.015625 27.296875 
Q 58.015625 14.40625 51.78125 6.484375 
Q 45.5625 -1.421875 35.59375 -1.421875 
Q 29.59375 -1.421875 25.265625 0.953125 
Q 20.953125 3.328125 18.109375 8.203125 
z
M 48.6875 27.296875 
Q 48.6875 37.203125 44.609375 42.84375 
Q 40.53125 48.484375 33.40625 48.484375 
Q 26.265625 48.484375 22.1875 42.84375 
Q 18.109375 37.203125 18.109375 27.296875 
Q 18.109375 17.390625 22.1875 11.75 
Q 26.265625 6.109375 33.40625 6.109375 
Q 40.53125 6.109375 44.609375 11.75 
Q 48.6875 17.390625 48.6875 27.296875 
z
" id="DejaVuSans-112"/>
      <path d="M 9.421875 75.984375 
L 18.40625 75.984375 
L 18.40625 0 
L 9.421875 0 
z
" id="DejaVuSans-108"/>
      <path d="M 56.203125 29.59375 
L 56.203125 25.203125 
L 14.890625 25.203125 
Q 15.484375 15.921875 20.484375 11.0625 
Q 25.484375 6.203125 34.421875 6.203125 
Q 39.59375 6.203125 44.453125 7.46875 
Q 49.3125 8.734375 54.109375 11.28125 
L 54.109375 2.78125 
Q 49.265625 0.734375 44.1875 -0.34375 
Q 39.109375 -1.421875 33.890625 -1.421875 
Q 20.796875 -1.421875 13.15625 6.1875 
Q 5.515625 13.8125 5.515625 26.8125 
Q 5.515625 40.234375 12.765625 48.109375 
Q 20.015625 56 32.328125 56 
Q 43.359375 56 49.78125 48.890625 
Q 56.203125 41.796875 56.203125 29.59375 
z
M 47.21875 32.234375 
Q 47.125 39.59375 43.09375 43.984375 
Q 39.0625 48.390625 32.421875 48.390625 
Q 24.90625 48.390625 20.390625 44.140625 
Q 15.875 39.890625 15.1875 32.171875 
z
" id="DejaVuSans-101"/>
      <path id="DejaVuSans-32"/>
      <path d="M 30.609375 48.390625 
Q 23.390625 48.390625 19.1875 42.75 
Q 14.984375 37.109375 14.984375 27.296875 
Q 14.984375 17.484375 19.15625 11.84375 
Q 23.34375 6.203125 30.609375 6.203125 
Q 37.796875 6.203125 41.984375 11.859375 
Q 46.1875 17.53125 46.1875 27.296875 
Q 46.1875 37.015625 41.984375 42.703125 
Q 37.796875 48.390625 30.609375 48.390625 
z
M 30.609375 56 
Q 42.328125 56 49.015625 48.375 
Q 55.71875 40.765625 55.71875 27.296875 
Q 55.71875 13.875 49.015625 6.21875 
Q 42.328125 -1.421875 30.609375 -1.421875 
Q 18.84375 -1.421875 12.171875 6.21875 
Q 5.515625 13.875 5.515625 27.296875 
Q 5.515625 40.765625 12.171875 48.375 
Q 18.84375 56 30.609375 56 
z
" id="DejaVuSans-111"/>
      <path d="M 37.109375 75.984375 
L 37.109375 68.5 
L 28.515625 68.5 
Q 23.6875 68.5 21.796875 66.546875 
Q 19.921875 64.59375 19.921875 59.515625 
L 19.921875 54.6875 
L 34.71875 54.6875 
L 34.71875 47.703125 
L 19.921875 47.703125 
L 19.921875 0 
L 10.890625 0 
L 10.890625 47.703125 
L 2.296875 47.703125 
L 2.296875 54.6875 
L 10.890625 54.6875 
L 10.890625 58.5 
Q 10.890625 67.625 15.140625 71.796875 
Q 19.390625 75.984375 28.609375 75.984375 
z
" id="DejaVuSans-102"/>
     </defs>
     <use xlink:href="#DejaVuSans-69"/>
     <use x="63.183594" xlink:href="#DejaVuSans-120"/>
     <use x="122.363281" xlink:href="#DejaVuSans-97"/>
     <use x="183.642578" xlink:href="#DejaVuSans-109"/>
     <use x="281.054688" xlink:href="#DejaVuSans-112"/>
     <use x="344.53125" xlink:href="#DejaVuSans-108"/>
     <use x="372.314453" xlink:href="#DejaVuSans-101"/>
     <use x="433.837891" xlink:href="#DejaVuSans-32"/>
     <use x="465.625" xlink:href="#DejaVuSans-111"/>
     <use x="526.806641" xlink:href="#DejaVuSans-102"/>
     <use x="562.011719" xlink:href="#DejaVuSans-32"/>
     <use x="593.798828" xlink:href="#DejaVuSans-51"/>
     <use x="657.421875" xlink:href="#DejaVuSans-46"/>
     <use x="689.208984" xlink:href="#DejaVuSans-50"/>
     <use x="752.832031" xlink:href="#DejaVuSans-46"/>
     <use x="784.619141" xlink:href="#DejaVuSans-49"/>
     <use x="848.242188" xlink:href="#DejaVuSans-46"/>
     <use x="880.029297" xlink:href="#DejaVuSans-49"/>
    </g>
   </g>
   <g id="legend_2">
    <g id="patch_12">
     <path d="M 482.785937 106.47625 
L 641 106.47625 
Q 643 106.47625 643 104.47625 
L 643 76.12 
Q 643 74.12 641 74.12 
L 482.785937 74.12 
Q 480.785937 74.12 480.785937 76.12 
L 480.785937 104.47625 
Q 480.785937 106.47625 482.785937 106.47625 
z
" style="fill:#ffffff;opacity:0.8;stroke:#cccccc;stroke-linejoin:miter;"/>
    </g>
    <g id="line2d_31">
     <path d="M 484.785937 82.218438 
L 504.785937 82.218438 
" style="fill:none;stroke:#ff0000;stroke-linecap:square;stroke-width:1.5;"/>
    </g>
    <g id="line2d_32"/>
    <g id="text_22">
     <!-- Numerical Differentiation -->
     <g transform="translate(512.785938 85.718438)scale(0.1 -0.1)">
      <defs>
       <path d="M 9.8125 72.90625 
L 23.09375 72.90625 
L 55.421875 11.921875 
L 55.421875 72.90625 
L 64.984375 72.90625 
L 64.984375 0 
L 51.703125 0 
L 19.390625 60.984375 
L 19.390625 0 
L 9.8125 0 
z
" id="DejaVuSans-78"/>
       <path d="M 8.5 21.578125 
L 8.5 54.6875 
L 17.484375 54.6875 
L 17.484375 21.921875 
Q 17.484375 14.15625 20.5 10.265625 
Q 23.53125 6.390625 29.59375 6.390625 
Q 36.859375 6.390625 41.078125 11.03125 
Q 45.3125 15.671875 45.3125 23.6875 
L 45.3125 54.6875 
L 54.296875 54.6875 
L 54.296875 0 
L 45.3125 0 
L 45.3125 8.40625 
Q 42.046875 3.421875 37.71875 1 
Q 33.40625 -1.421875 27.6875 -1.421875 
Q 18.265625 -1.421875 13.375 4.4375 
Q 8.5 10.296875 8.5 21.578125 
z
M 31.109375 56 
z
" id="DejaVuSans-117"/>
       <path d="M 41.109375 46.296875 
Q 39.59375 47.171875 37.8125 47.578125 
Q 36.03125 48 33.890625 48 
Q 26.265625 48 22.1875 43.046875 
Q 18.109375 38.09375 18.109375 28.8125 
L 18.109375 0 
L 9.078125 0 
L 9.078125 54.6875 
L 18.109375 54.6875 
L 18.109375 46.1875 
Q 20.953125 51.171875 25.484375 53.578125 
Q 30.03125 56 36.53125 56 
Q 37.453125 56 38.578125 55.875 
Q 39.703125 55.765625 41.0625 55.515625 
z
" id="DejaVuSans-114"/>
       <path d="M 9.421875 54.6875 
L 18.40625 54.6875 
L 18.40625 0 
L 9.421875 0 
z
M 9.421875 75.984375 
L 18.40625 75.984375 
L 18.40625 64.59375 
L 9.421875 64.59375 
z
" id="DejaVuSans-105"/>
       <path d="M 48.78125 52.59375 
L 48.78125 44.1875 
Q 44.96875 46.296875 41.140625 47.34375 
Q 37.3125 48.390625 33.40625 48.390625 
Q 24.65625 48.390625 19.8125 42.84375 
Q 14.984375 37.3125 14.984375 27.296875 
Q 14.984375 17.28125 19.8125 11.734375 
Q 24.65625 6.203125 33.40625 6.203125 
Q 37.3125 6.203125 41.140625 7.25 
Q 44.96875 8.296875 48.78125 10.40625 
L 48.78125 2.09375 
Q 45.015625 0.34375 40.984375 -0.53125 
Q 36.96875 -1.421875 32.421875 -1.421875 
Q 20.0625 -1.421875 12.78125 6.34375 
Q 5.515625 14.109375 5.515625 27.296875 
Q 5.515625 40.671875 12.859375 48.328125 
Q 20.21875 56 33.015625 56 
Q 37.15625 56 41.109375 55.140625 
Q 45.0625 54.296875 48.78125 52.59375 
z
" id="DejaVuSans-99"/>
       <path d="M 54.890625 33.015625 
L 54.890625 0 
L 45.90625 0 
L 45.90625 32.71875 
Q 45.90625 40.484375 42.875 44.328125 
Q 39.84375 48.1875 33.796875 48.1875 
Q 26.515625 48.1875 22.3125 43.546875 
Q 18.109375 38.921875 18.109375 30.90625 
L 18.109375 0 
L 9.078125 0 
L 9.078125 54.6875 
L 18.109375 54.6875 
L 18.109375 46.1875 
Q 21.34375 51.125 25.703125 53.5625 
Q 30.078125 56 35.796875 56 
Q 45.21875 56 50.046875 50.171875 
Q 54.890625 44.34375 54.890625 33.015625 
z
" id="DejaVuSans-110"/>
      </defs>
      <use xlink:href="#DejaVuSans-78"/>
      <use x="74.804688" xlink:href="#DejaVuSans-117"/>
      <use x="138.183594" xlink:href="#DejaVuSans-109"/>
      <use x="235.595703" xlink:href="#DejaVuSans-101"/>
      <use x="297.119141" xlink:href="#DejaVuSans-114"/>
      <use x="338.232422" xlink:href="#DejaVuSans-105"/>
      <use x="366.015625" xlink:href="#DejaVuSans-99"/>
      <use x="420.996094" xlink:href="#DejaVuSans-97"/>
      <use x="482.275391" xlink:href="#DejaVuSans-108"/>
      <use x="510.058594" xlink:href="#DejaVuSans-32"/>
      <use x="541.845703" xlink:href="#DejaVuSans-68"/>
      <use x="618.847656" xlink:href="#DejaVuSans-105"/>
      <use x="646.630859" xlink:href="#DejaVuSans-102"/>
      <use x="681.835938" xlink:href="#DejaVuSans-102"/>
      <use x="717.041016" xlink:href="#DejaVuSans-101"/>
      <use x="778.564453" xlink:href="#DejaVuSans-114"/>
      <use x="817.427734" xlink:href="#DejaVuSans-101"/>
      <use x="878.951172" xlink:href="#DejaVuSans-110"/>
      <use x="942.330078" xlink:href="#DejaVuSans-116"/>
      <use x="981.539062" xlink:href="#DejaVuSans-105"/>
      <use x="1009.322266" xlink:href="#DejaVuSans-97"/>
      <use x="1070.601562" xlink:href="#DejaVuSans-116"/>
      <use x="1109.810547" xlink:href="#DejaVuSans-105"/>
      <use x="1137.59375" xlink:href="#DejaVuSans-111"/>
      <use x="1198.775391" xlink:href="#DejaVuSans-110"/>
     </g>
    </g>
    <g id="line2d_33">
     <path d="M 484.785937 96.896563 
L 504.785937 96.896563 
" style="fill:none;stroke:#000000;stroke-dasharray:5.55,2.4;stroke-dashoffset:0;stroke-width:1.5;"/>
    </g>
    <g id="line2d_34"/>
    <g id="text_23">
     <!-- Arctan2 -->
     <g transform="translate(512.785938 100.396563)scale(0.1 -0.1)">
      <defs>
       <path d="M 34.1875 63.1875 
L 20.796875 26.90625 
L 47.609375 26.90625 
z
M 28.609375 72.90625 
L 39.796875 72.90625 
L 67.578125 0 
L 57.328125 0 
L 50.6875 18.703125 
L 17.828125 18.703125 
L 11.1875 0 
L 0.78125 0 
z
" id="DejaVuSans-65"/>
      </defs>
      <use xlink:href="#DejaVuSans-65"/>
      <use x="68.408203" xlink:href="#DejaVuSans-114"/>
      <use x="107.271484" xlink:href="#DejaVuSans-99"/>
      <use x="162.251953" xlink:href="#DejaVuSans-116"/>
      <use x="201.460938" xlink:href="#DejaVuSans-97"/>
      <use x="262.740234" xlink:href="#DejaVuSans-110"/>
      <use x="326.119141" xlink:href="#DejaVuSans-50"/>
     </g>
    </g>
   </g>
  </g>
 </g>
 <defs>
  <clipPath id="p74276d1e10">
   <rect height="443.52" width="558" x="90" y="69.12"/>
  </clipPath>
 </defs>
</svg>
