<?xml version="1.0" encoding="utf-8" standalone="no"?>
<!DOCTYPE svg PUBLIC "-//W3C//DTD SVG 1.1//EN"
  "http://www.w3.org/Graphics/SVG/1.1/DTD/svg11.dtd">
<!-- Created with matplotlib (https://matplotlib.org/) -->
<svg height="576pt" version="1.1" viewBox="0 0 720 576" width="720pt" xmlns="http://www.w3.org/2000/svg" xmlns:xlink="http://www.w3.org/1999/xlink">
 <metadata>
  <rdf:RDF xmlns:cc="http://creativecommons.org/ns#" xmlns:dc="http://purl.org/dc/elements/1.1/" xmlns:rdf="http://www.w3.org/1999/02/22-rdf-syntax-ns#">
   <cc:Work>
    <dc:type rdf:resource="http://purl.org/dc/dcmitype/StillImage"/>
    <dc:date>2025-09-03T12:39:11.382418</dc:date>
    <dc:format>image/svg+xml</dc:format>
    <dc:creator>
     <cc:Agent>
      <dc:title>Matplotlib v3.3.2, https://matplotlib.org/</dc:title>
     </cc:Agent>
    </dc:creator>
   </cc:Work>
  </rdf:RDF>
 </metadata>
 <defs>
  <style type="text/css">*{stroke-linecap:butt;stroke-linejoin:round;}</style>
 </defs>
 <g id="figure_1">
  <g id="patch_1">
   <path d="M 0 576 
L 720 576 
L 720 0 
L 0 0 
z
" style="fill:#ffffff;"/>
  </g>
  <g id="axes_1">
   <g id="patch_2">
    <path d="M 90 512.64 
L 648 512.64 
L 648 69.12 
L 90 69.12 
z
" style="fill:#ffffff;"/>
   </g>
   <g id="matplotlib.axis_1">
    <g id="xtick_1">
     <g id="line2d_1">
      <defs>
       <path d="M 0 0 
L 0 3.5 
" id="m34b20f3db5" style="stroke:#000000;stroke-width:0.8;"/>
      </defs>
      <g>
       <use style="stroke:#000000;stroke-width:0.8;" x="95.858971" xlink:href="#m34b20f3db5" y="512.64"/>
      </g>
     </g>
     <g id="text_1">
      <!-- −0.25 -->
      <g transform="translate(80.536315 527.238438)scale(0.1 -0.1)">
       <defs>
        <path d="M 10.59375 35.5 
L 73.1875 35.5 
L 73.1875 27.203125 
L 10.59375 27.203125 
z
" id="DejaVuSans-8722"/>
        <path d="M 31.78125 66.40625 
Q 24.171875 66.40625 20.328125 58.90625 
Q 16.5 51.421875 16.5 36.375 
Q 16.5 21.390625 20.328125 13.890625 
Q 24.171875 6.390625 31.78125 6.390625 
Q 39.453125 6.390625 43.28125 13.890625 
Q 47.125 21.390625 47.125 36.375 
Q 47.125 51.421875 43.28125 58.90625 
Q 39.453125 66.40625 31.78125 66.40625 
z
M 31.78125 74.21875 
Q 44.046875 74.21875 50.515625 64.515625 
Q 56.984375 54.828125 56.984375 36.375 
Q 56.984375 17.96875 50.515625 8.265625 
Q 44.046875 -1.421875 31.78125 -1.421875 
Q 19.53125 -1.421875 13.0625 8.265625 
Q 6.59375 17.96875 6.59375 36.375 
Q 6.59375 54.828125 13.0625 64.515625 
Q 19.53125 74.21875 31.78125 74.21875 
z
" id="DejaVuSans-48"/>
        <path d="M 10.6875 12.40625 
L 21 12.40625 
L 21 0 
L 10.6875 0 
z
" id="DejaVuSans-46"/>
        <path d="M 19.1875 8.296875 
L 53.609375 8.296875 
L 53.609375 0 
L 7.328125 0 
L 7.328125 8.296875 
Q 12.9375 14.109375 22.625 23.890625 
Q 32.328125 33.6875 34.8125 36.53125 
Q 39.546875 41.84375 41.421875 45.53125 
Q 43.3125 49.21875 43.3125 52.78125 
Q 43.3125 58.59375 39.234375 62.25 
Q 35.15625 65.921875 28.609375 65.921875 
Q 23.96875 65.921875 18.8125 64.3125 
Q 13.671875 62.703125 7.8125 59.421875 
L 7.8125 69.390625 
Q 13.765625 71.78125 18.9375 73 
Q 24.125 74.21875 28.421875 74.21875 
Q 39.75 74.21875 46.484375 68.546875 
Q 53.21875 62.890625 53.21875 53.421875 
Q 53.21875 48.921875 51.53125 44.890625 
Q 49.859375 40.875 45.40625 35.40625 
Q 44.1875 33.984375 37.640625 27.21875 
Q 31.109375 20.453125 19.1875 8.296875 
z
" id="DejaVuSans-50"/>
        <path d="M 10.796875 72.90625 
L 49.515625 72.90625 
L 49.515625 64.59375 
L 19.828125 64.59375 
L 19.828125 46.734375 
Q 21.96875 47.46875 24.109375 47.828125 
Q 26.265625 48.1875 28.421875 48.1875 
Q 40.625 48.1875 47.75 41.5 
Q 54.890625 34.8125 54.890625 23.390625 
Q 54.890625 11.625 47.5625 5.09375 
Q 40.234375 -1.421875 26.90625 -1.421875 
Q 22.3125 -1.421875 17.546875 -0.640625 
Q 12.796875 0.140625 7.71875 1.703125 
L 7.71875 11.625 
Q 12.109375 9.234375 16.796875 8.0625 
Q 21.484375 6.890625 26.703125 6.890625 
Q 35.15625 6.890625 40.078125 11.328125 
Q 45.015625 15.765625 45.015625 23.390625 
Q 45.015625 31 40.078125 35.4375 
Q 35.15625 39.890625 26.703125 39.890625 
Q 22.75 39.890625 18.8125 39.015625 
Q 14.890625 38.140625 10.796875 36.28125 
z
" id="DejaVuSans-53"/>
       </defs>
       <use xlink:href="#DejaVuSans-8722"/>
       <use x="83.789062" xlink:href="#DejaVuSans-48"/>
       <use x="147.412109" xlink:href="#DejaVuSans-46"/>
       <use x="179.199219" xlink:href="#DejaVuSans-50"/>
       <use x="242.822266" xlink:href="#DejaVuSans-53"/>
      </g>
     </g>
    </g>
    <g id="xtick_2">
     <g id="line2d_2">
      <g>
       <use style="stroke:#000000;stroke-width:0.8;" x="160.892549" xlink:href="#m34b20f3db5" y="512.64"/>
      </g>
     </g>
     <g id="text_2">
      <!-- 0.00 -->
      <g transform="translate(149.759737 527.238438)scale(0.1 -0.1)">
       <use xlink:href="#DejaVuSans-48"/>
       <use x="63.623047" xlink:href="#DejaVuSans-46"/>
       <use x="95.410156" xlink:href="#DejaVuSans-48"/>
       <use x="159.033203" xlink:href="#DejaVuSans-48"/>
      </g>
     </g>
    </g>
    <g id="xtick_3">
     <g id="line2d_3">
      <g>
       <use style="stroke:#000000;stroke-width:0.8;" x="225.926128" xlink:href="#m34b20f3db5" y="512.64"/>
      </g>
     </g>
     <g id="text_3">
      <!-- 0.25 -->
      <g transform="translate(214.793315 527.238438)scale(0.1 -0.1)">
       <use xlink:href="#DejaVuSans-48"/>
       <use x="63.623047" xlink:href="#DejaVuSans-46"/>
       <use x="95.410156" xlink:href="#DejaVuSans-50"/>
       <use x="159.033203" xlink:href="#DejaVuSans-53"/>
      </g>
     </g>
    </g>
    <g id="xtick_4">
     <g id="line2d_4">
      <g>
       <use style="stroke:#000000;stroke-width:0.8;" x="290.959706" xlink:href="#m34b20f3db5" y="512.64"/>
      </g>
     </g>
     <g id="text_4">
      <!-- 0.50 -->
      <g transform="translate(279.826893 527.238438)scale(0.1 -0.1)">
       <use xlink:href="#DejaVuSans-48"/>
       <use x="63.623047" xlink:href="#DejaVuSans-46"/>
       <use x="95.410156" xlink:href="#DejaVuSans-53"/>
       <use x="159.033203" xlink:href="#DejaVuSans-48"/>
      </g>
     </g>
    </g>
    <g id="xtick_5">
     <g id="line2d_5">
      <g>
       <use style="stroke:#000000;stroke-width:0.8;" x="355.993284" xlink:href="#m34b20f3db5" y="512.64"/>
      </g>
     </g>
     <g id="text_5">
      <!-- 0.75 -->
      <g transform="translate(344.860472 527.238438)scale(0.1 -0.1)">
       <defs>
        <path d="M 8.203125 72.90625 
L 55.078125 72.90625 
L 55.078125 68.703125 
L 28.609375 0 
L 18.3125 0 
L 43.21875 64.59375 
L 8.203125 64.59375 
z
" id="DejaVuSans-55"/>
       </defs>
       <use xlink:href="#DejaVuSans-48"/>
       <use x="63.623047" xlink:href="#DejaVuSans-46"/>
       <use x="95.410156" xlink:href="#DejaVuSans-55"/>
       <use x="159.033203" xlink:href="#DejaVuSans-53"/>
      </g>
     </g>
    </g>
    <g id="xtick_6">
     <g id="line2d_6">
      <g>
       <use style="stroke:#000000;stroke-width:0.8;" x="421.026863" xlink:href="#m34b20f3db5" y="512.64"/>
      </g>
     </g>
     <g id="text_6">
      <!-- 1.00 -->
      <g transform="translate(409.89405 527.238438)scale(0.1 -0.1)">
       <defs>
        <path d="M 12.40625 8.296875 
L 28.515625 8.296875 
L 28.515625 63.921875 
L 10.984375 60.40625 
L 10.984375 69.390625 
L 28.421875 72.90625 
L 38.28125 72.90625 
L 38.28125 8.296875 
L 54.390625 8.296875 
L 54.390625 0 
L 12.40625 0 
z
" id="DejaVuSans-49"/>
       </defs>
       <use xlink:href="#DejaVuSans-49"/>
       <use x="63.623047" xlink:href="#DejaVuSans-46"/>
       <use x="95.410156" xlink:href="#DejaVuSans-48"/>
       <use x="159.033203" xlink:href="#DejaVuSans-48"/>
      </g>
     </g>
    </g>
    <g id="xtick_7">
     <g id="line2d_7">
      <g>
       <use style="stroke:#000000;stroke-width:0.8;" x="486.060441" xlink:href="#m34b20f3db5" y="512.64"/>
      </g>
     </g>
     <g id="text_7">
      <!-- 1.25 -->
      <g transform="translate(474.927629 527.238438)scale(0.1 -0.1)">
       <use xlink:href="#DejaVuSans-49"/>
       <use x="63.623047" xlink:href="#DejaVuSans-46"/>
       <use x="95.410156" xlink:href="#DejaVuSans-50"/>
       <use x="159.033203" xlink:href="#DejaVuSans-53"/>
      </g>
     </g>
    </g>
    <g id="xtick_8">
     <g id="line2d_8">
      <g>
       <use style="stroke:#000000;stroke-width:0.8;" x="551.094019" xlink:href="#m34b20f3db5" y="512.64"/>
      </g>
     </g>
     <g id="text_8">
      <!-- 1.50 -->
      <g transform="translate(539.961207 527.238438)scale(0.1 -0.1)">
       <use xlink:href="#DejaVuSans-49"/>
       <use x="63.623047" xlink:href="#DejaVuSans-46"/>
       <use x="95.410156" xlink:href="#DejaVuSans-53"/>
       <use x="159.033203" xlink:href="#DejaVuSans-48"/>
      </g>
     </g>
    </g>
    <g id="xtick_9">
     <g id="line2d_9">
      <g>
       <use style="stroke:#000000;stroke-width:0.8;" x="616.127598" xlink:href="#m34b20f3db5" y="512.64"/>
      </g>
     </g>
     <g id="text_9">
      <!-- 1.75 -->
      <g transform="translate(604.994785 527.238438)scale(0.1 -0.1)">
       <use xlink:href="#DejaVuSans-49"/>
       <use x="63.623047" xlink:href="#DejaVuSans-46"/>
       <use x="95.410156" xlink:href="#DejaVuSans-55"/>
       <use x="159.033203" xlink:href="#DejaVuSans-53"/>
      </g>
     </g>
    </g>
   </g>
   <g id="matplotlib.axis_2">
    <g id="ytick_1">
     <g id="line2d_10">
      <defs>
       <path d="M 0 0 
L -3.5 0 
" id="m65d25515f5" style="stroke:#000000;stroke-width:0.8;"/>
      </defs>
      <g>
       <use style="stroke:#000000;stroke-width:0.8;" x="90" xlink:href="#m65d25515f5" y="492.48"/>
      </g>
     </g>
     <g id="text_10">
      <!-- −0.2 -->
      <g transform="translate(58.717187 496.279219)scale(0.1 -0.1)">
       <use xlink:href="#DejaVuSans-8722"/>
       <use x="83.789062" xlink:href="#DejaVuSans-48"/>
       <use x="147.412109" xlink:href="#DejaVuSans-46"/>
       <use x="179.199219" xlink:href="#DejaVuSans-50"/>
      </g>
     </g>
    </g>
    <g id="ytick_2">
     <g id="line2d_11">
      <g>
       <use style="stroke:#000000;stroke-width:0.8;" x="90" xlink:href="#m65d25515f5" y="440.453137"/>
      </g>
     </g>
     <g id="text_11">
      <!-- 0.0 -->
      <g transform="translate(67.096875 444.252356)scale(0.1 -0.1)">
       <use xlink:href="#DejaVuSans-48"/>
       <use x="63.623047" xlink:href="#DejaVuSans-46"/>
       <use x="95.410156" xlink:href="#DejaVuSans-48"/>
      </g>
     </g>
    </g>
    <g id="ytick_3">
     <g id="line2d_12">
      <g>
       <use style="stroke:#000000;stroke-width:0.8;" x="90" xlink:href="#m65d25515f5" y="388.426275"/>
      </g>
     </g>
     <g id="text_12">
      <!-- 0.2 -->
      <g transform="translate(67.096875 392.225493)scale(0.1 -0.1)">
       <use xlink:href="#DejaVuSans-48"/>
       <use x="63.623047" xlink:href="#DejaVuSans-46"/>
       <use x="95.410156" xlink:href="#DejaVuSans-50"/>
      </g>
     </g>
    </g>
    <g id="ytick_4">
     <g id="line2d_13">
      <g>
       <use style="stroke:#000000;stroke-width:0.8;" x="90" xlink:href="#m65d25515f5" y="336.399412"/>
      </g>
     </g>
     <g id="text_13">
      <!-- 0.4 -->
      <g transform="translate(67.096875 340.198631)scale(0.1 -0.1)">
       <defs>
        <path d="M 37.796875 64.3125 
L 12.890625 25.390625 
L 37.796875 25.390625 
z
M 35.203125 72.90625 
L 47.609375 72.90625 
L 47.609375 25.390625 
L 58.015625 25.390625 
L 58.015625 17.1875 
L 47.609375 17.1875 
L 47.609375 0 
L 37.796875 0 
L 37.796875 17.1875 
L 4.890625 17.1875 
L 4.890625 26.703125 
z
" id="DejaVuSans-52"/>
       </defs>
       <use xlink:href="#DejaVuSans-48"/>
       <use x="63.623047" xlink:href="#DejaVuSans-46"/>
       <use x="95.410156" xlink:href="#DejaVuSans-52"/>
      </g>
     </g>
    </g>
    <g id="ytick_5">
     <g id="line2d_14">
      <g>
       <use style="stroke:#000000;stroke-width:0.8;" x="90" xlink:href="#m65d25515f5" y="284.372549"/>
      </g>
     </g>
     <g id="text_14">
      <!-- 0.6 -->
      <g transform="translate(67.096875 288.171768)scale(0.1 -0.1)">
       <defs>
        <path d="M 33.015625 40.375 
Q 26.375 40.375 22.484375 35.828125 
Q 18.609375 31.296875 18.609375 23.390625 
Q 18.609375 15.53125 22.484375 10.953125 
Q 26.375 6.390625 33.015625 6.390625 
Q 39.65625 6.390625 43.53125 10.953125 
Q 47.40625 15.53125 47.40625 23.390625 
Q 47.40625 31.296875 43.53125 35.828125 
Q 39.65625 40.375 33.015625 40.375 
z
M 52.59375 71.296875 
L 52.59375 62.3125 
Q 48.875 64.0625 45.09375 64.984375 
Q 41.3125 65.921875 37.59375 65.921875 
Q 27.828125 65.921875 22.671875 59.328125 
Q 17.53125 52.734375 16.796875 39.40625 
Q 19.671875 43.65625 24.015625 45.921875 
Q 28.375 48.1875 33.59375 48.1875 
Q 44.578125 48.1875 50.953125 41.515625 
Q 57.328125 34.859375 57.328125 23.390625 
Q 57.328125 12.15625 50.6875 5.359375 
Q 44.046875 -1.421875 33.015625 -1.421875 
Q 20.359375 -1.421875 13.671875 8.265625 
Q 6.984375 17.96875 6.984375 36.375 
Q 6.984375 53.65625 15.1875 63.9375 
Q 23.390625 74.21875 37.203125 74.21875 
Q 40.921875 74.21875 44.703125 73.484375 
Q 48.484375 72.75 52.59375 71.296875 
z
" id="DejaVuSans-54"/>
       </defs>
       <use xlink:href="#DejaVuSans-48"/>
       <use x="63.623047" xlink:href="#DejaVuSans-46"/>
       <use x="95.410156" xlink:href="#DejaVuSans-54"/>
      </g>
     </g>
    </g>
    <g id="ytick_6">
     <g id="line2d_15">
      <g>
       <use style="stroke:#000000;stroke-width:0.8;" x="90" xlink:href="#m65d25515f5" y="232.345686"/>
      </g>
     </g>
     <g id="text_15">
      <!-- 0.8 -->
      <g transform="translate(67.096875 236.144905)scale(0.1 -0.1)">
       <defs>
        <path d="M 31.78125 34.625 
Q 24.75 34.625 20.71875 30.859375 
Q 16.703125 27.09375 16.703125 20.515625 
Q 16.703125 13.921875 20.71875 10.15625 
Q 24.75 6.390625 31.78125 6.390625 
Q 38.8125 6.390625 42.859375 10.171875 
Q 46.921875 13.96875 46.921875 20.515625 
Q 46.921875 27.09375 42.890625 30.859375 
Q 38.875 34.625 31.78125 34.625 
z
M 21.921875 38.8125 
Q 15.578125 40.375 12.03125 44.71875 
Q 8.5 49.078125 8.5 55.328125 
Q 8.5 64.0625 14.71875 69.140625 
Q 20.953125 74.21875 31.78125 74.21875 
Q 42.671875 74.21875 48.875 69.140625 
Q 55.078125 64.0625 55.078125 55.328125 
Q 55.078125 49.078125 51.53125 44.71875 
Q 48 40.375 41.703125 38.8125 
Q 48.828125 37.15625 52.796875 32.3125 
Q 56.78125 27.484375 56.78125 20.515625 
Q 56.78125 9.90625 50.3125 4.234375 
Q 43.84375 -1.421875 31.78125 -1.421875 
Q 19.734375 -1.421875 13.25 4.234375 
Q 6.78125 9.90625 6.78125 20.515625 
Q 6.78125 27.484375 10.78125 32.3125 
Q 14.796875 37.15625 21.921875 38.8125 
z
M 18.3125 54.390625 
Q 18.3125 48.734375 21.84375 45.5625 
Q 25.390625 42.390625 31.78125 42.390625 
Q 38.140625 42.390625 41.71875 45.5625 
Q 45.3125 48.734375 45.3125 54.390625 
Q 45.3125 60.0625 41.71875 63.234375 
Q 38.140625 66.40625 31.78125 66.40625 
Q 25.390625 66.40625 21.84375 63.234375 
Q 18.3125 60.0625 18.3125 54.390625 
z
" id="DejaVuSans-56"/>
       </defs>
       <use xlink:href="#DejaVuSans-48"/>
       <use x="63.623047" xlink:href="#DejaVuSans-46"/>
       <use x="95.410156" xlink:href="#DejaVuSans-56"/>
      </g>
     </g>
    </g>
    <g id="ytick_7">
     <g id="line2d_16">
      <g>
       <use style="stroke:#000000;stroke-width:0.8;" x="90" xlink:href="#m65d25515f5" y="180.318824"/>
      </g>
     </g>
     <g id="text_16">
      <!-- 1.0 -->
      <g transform="translate(67.096875 184.118043)scale(0.1 -0.1)">
       <use xlink:href="#DejaVuSans-49"/>
       <use x="63.623047" xlink:href="#DejaVuSans-46"/>
       <use x="95.410156" xlink:href="#DejaVuSans-48"/>
      </g>
     </g>
    </g>
    <g id="ytick_8">
     <g id="line2d_17">
      <g>
       <use style="stroke:#000000;stroke-width:0.8;" x="90" xlink:href="#m65d25515f5" y="128.291961"/>
      </g>
     </g>
     <g id="text_17">
      <!-- 1.2 -->
      <g transform="translate(67.096875 132.09118)scale(0.1 -0.1)">
       <use xlink:href="#DejaVuSans-49"/>
       <use x="63.623047" xlink:href="#DejaVuSans-46"/>
       <use x="95.410156" xlink:href="#DejaVuSans-50"/>
      </g>
     </g>
    </g>
    <g id="ytick_9">
     <g id="line2d_18">
      <g>
       <use style="stroke:#000000;stroke-width:0.8;" x="90" xlink:href="#m65d25515f5" y="76.265098"/>
      </g>
     </g>
     <g id="text_18">
      <!-- 1.4 -->
      <g transform="translate(67.096875 80.064317)scale(0.1 -0.1)">
       <use xlink:href="#DejaVuSans-49"/>
       <use x="63.623047" xlink:href="#DejaVuSans-46"/>
       <use x="95.410156" xlink:href="#DejaVuSans-52"/>
      </g>
     </g>
    </g>
   </g>
   <g id="line2d_19">
    <path clip-path="url(#p4307faf1c4)" d="M 186.905981 492.48 
L 264.946275 362.412843 
" style="fill:none;stroke:#0000ff;stroke-dasharray:5.55,2.4;stroke-dashoffset:0;stroke-width:1.5;"/>
   </g>
   <g id="line2d_20">
    <path clip-path="url(#p4307faf1c4)" d="M 421.047673 440.125368 
L 407.635148 437.427775 
L 394.964006 435.05535 
L 382.984821 432.96387 
L 371.648167 431.114315 
L 360.909823 429.475469 
L 350.733369 428.021318 
L 341.079784 426.736255 
L 331.912651 425.602069 
L 323.203354 424.600552 
L 314.920678 423.721298 
L 307.038608 422.956503 
L 299.531132 422.29056 
L 292.374837 421.718264 
L 285.551514 421.231813 
L 279.03775 420.826003 
L 272.817939 420.493031 
L 266.87387 420.230296 
L 261.16132 420.029992 
L 255.677689 419.907729 
L 250.428179 419.8505 
L 245.399782 419.858304 
L 240.579493 419.923337 
L 235.956907 420.040398 
L 231.521617 420.209485 
L 227.265819 420.422795 
L 223.179109 420.680328 
L 219.253682 420.976881 
L 215.481735 421.309853 
L 211.855463 421.679244 
L 208.367061 422.079851 
L 205.011329 422.511674 
L 201.783062 422.974713 
L 198.671856 423.466367 
L 195.67771 423.986635 
L 192.79282 424.532917 
L 190.014586 425.107814 
L 187.335202 425.708724 
L 184.752068 426.338249 
L 182.262583 426.998991 
L 179.861543 427.690948 
L 177.543747 428.419324 
L 175.311794 429.184119 
L 173.157882 429.995738 
L 171.084612 430.861985 
L 169.084179 431.795867 
L 167.161786 432.818195 
L 165.317434 433.967989 
L 163.556325 435.328491 
L 161.899269 437.136425 
L 161.144879 438.551555 
L 160.892549 440.453137 
L 161.51427 442.266273 
L 162.528794 443.507114 
L 164.490207 444.961265 
L 166.459424 445.962782 
L 168.462458 446.750989 
L 170.512316 447.406527 
L 172.614201 447.968418 
L 174.773316 448.460071 
L 176.992262 448.894496 
L 179.278842 449.279495 
L 181.635659 449.622872 
L 184.062713 449.92983 
L 186.570407 450.202971 
L 189.158744 450.444896 
L 191.830323 450.660808 
L 194.595551 450.848104 
L 197.454427 451.009388 
L 200.412154 451.144658 
L 203.476536 451.256515 
L 206.650175 451.347562 
L 209.940874 451.412596 
L 213.353836 451.454217 
L 216.894264 451.475028 
L 220.575165 451.472427 
L 224.396538 451.449015 
L 228.37139 451.402191 
L 232.507526 451.334556 
L 236.812749 451.243509 
L 241.297464 451.131651 
L 245.974679 450.998982 
L 250.854799 450.848104 
L 255.948229 450.673814 
L 261.270577 450.483916 
L 266.850458 450.273208 
L 272.719088 450.033884 
L 278.866062 449.758142 
L 285.304386 449.445981 
L 292.057473 449.100002 
L 299.143531 448.715003 
L 306.585974 448.293586 
L 314.408213 447.835749 
L 322.641464 447.336291 
L 331.309139 446.797813 
L 340.447658 446.217714 
L 350.093438 445.598594 
L 360.280298 444.935252 
L 371.05246 444.222484 
L 382.456748 443.462891 
L 394.542588 442.640867 
L 407.372413 441.753809 
L 421.006052 440.780907 
" style="fill:none;stroke:#0000ff;stroke-dasharray:5.55,2.4;stroke-dashoffset:0;stroke-width:1.5;"/>
   </g>
   <g id="line2d_21">
    <path clip-path="url(#p4307faf1c4)" d="M 551.094019 180.318824 
L 550.832152 176.194139 
L 550.047605 172.086064 
L 548.743536 168.011138 
L 546.925198 163.985771 
L 544.599912 160.026172 
L 541.77704 156.148284 
L 538.46795 152.367723 
L 534.685967 148.69971 
L 530.446318 145.159017 
L 525.766076 141.7599 
L 520.664085 138.516045 
L 515.160891 135.440516 
L 509.278653 132.545696 
L 503.041055 129.843242 
L 496.473216 127.344035 
L 489.60158 125.058138 
L 482.453819 122.994757 
L 475.058712 121.1622 
L 467.446039 119.567846 
L 459.646452 118.218114 
L 451.691357 117.11844 
L 443.612787 116.273252 
L 435.443272 115.685952 
L 427.215707 115.358906 
L 418.963222 115.293431 
L 410.719046 115.489791 
L 402.516376 115.947193 
L 394.388242 116.663798 
L 386.367371 117.636719 
L 378.486063 118.862039 
L 370.776051 120.334824 
L 363.268381 122.049142 
L 355.993284 123.998093 
L 348.980055 126.173827 
L 342.256933 128.567584 
L 335.850989 131.169725 
L 329.788019 133.969772 
L 324.092435 136.95645 
L 318.787172 140.117733 
L 313.893592 143.440892 
L 309.4314 146.912545 
L 305.418563 150.518713 
L 301.87124 154.244876 
L 298.803715 158.07603 
L 296.22834 161.996747 
L 294.155484 165.991241 
L 292.593494 170.043428 
L 291.54866 174.136989 
L 291.025189 178.255443 
L 291.025189 182.382205 
L 291.54866 186.500658 
L 292.593494 190.59422 
L 294.155484 194.646406 
L 296.22834 198.6409 
L 298.803715 202.561618 
L 301.87124 206.392771 
L 305.418563 210.118934 
L 309.4314 213.725103 
L 313.893592 217.196756 
L 318.787172 220.519915 
L 324.092435 223.681198 
L 329.788019 226.667876 
L 335.850989 229.467923 
L 342.256933 232.070064 
L 348.980055 234.463821 
L 355.993284 236.639555 
L 363.268381 238.588505 
L 370.776051 240.302824 
L 378.486063 241.775609 
L 386.367371 243.000928 
L 394.388242 243.973849 
L 402.516376 244.690454 
L 410.719046 245.147857 
L 418.963222 245.344216 
L 427.215707 245.278741 
L 435.443272 244.951695 
L 443.612787 244.364396 
L 451.691357 243.519208 
L 459.646452 242.419534 
L 467.446039 241.069802 
L 475.058712 239.475447 
L 482.453819 237.64289 
L 489.60158 235.579509 
L 496.473216 233.293613 
L 503.041055 230.794406 
L 509.278653 228.091951 
L 515.160891 225.197131 
L 520.664085 222.121602 
L 525.766076 218.877748 
L 530.446318 215.478631 
L 534.685967 211.937937 
L 538.46795 208.269925 
L 541.77704 204.489363 
L 544.599912 200.611475 
L 546.925198 196.651876 
L 548.743536 192.626509 
L 550.047605 188.551584 
L 550.832152 184.443508 
L 551.094019 180.318824 
" style="fill:none;stroke:#0000ff;stroke-dasharray:5.55,2.4;stroke-dashoffset:0;stroke-width:1.5;"/>
   </g>
   <g id="line2d_22">
    <path clip-path="url(#p4307faf1c4)" d="M 212.919412 466.466569 
L 290.959706 336.399412 
" style="fill:none;stroke:#ff0000;stroke-linecap:square;stroke-width:1.5;"/>
   </g>
   <g id="line2d_23">
    <path clip-path="url(#p4307faf1c4)" d="M 447.061105 414.111937 
L 433.64858 411.414344 
L 420.977437 409.041919 
L 408.998252 406.950439 
L 397.661599 405.100884 
L 386.923254 403.462038 
L 376.7468 402.007887 
L 367.093215 400.722824 
L 357.926082 399.588638 
L 349.216785 398.587121 
L 340.934109 397.707867 
L 333.052039 396.943072 
L 325.544563 396.277128 
L 318.388268 395.704833 
L 311.564945 395.218382 
L 305.051182 394.812572 
L 298.83137 394.4796 
L 292.887301 394.216864 
L 287.174752 394.016561 
L 281.69112 393.894298 
L 276.44161 393.837068 
L 271.413214 393.844872 
L 266.592925 393.909906 
L 261.970338 394.026966 
L 257.535048 394.196054 
L 253.279251 394.409364 
L 249.192541 394.666897 
L 245.267114 394.96345 
L 241.495166 395.296422 
L 237.868894 395.665813 
L 234.380493 396.066419 
L 231.02476 396.498242 
L 227.796493 396.961281 
L 224.685287 397.452935 
L 221.691141 397.973204 
L 218.806251 398.519486 
L 216.028017 399.094383 
L 213.348634 399.695293 
L 210.7655 400.324818 
L 208.276014 400.985559 
L 205.874975 401.677517 
L 203.557178 402.405893 
L 201.325226 403.170687 
L 199.171313 403.982307 
L 197.098043 404.848554 
L 195.09761 405.782436 
L 193.175218 406.804764 
L 191.330865 407.954558 
L 189.569756 409.31506 
L 187.9127 411.122993 
L 187.158311 412.538124 
L 186.905981 414.439706 
L 187.527702 416.252842 
L 188.542225 417.493683 
L 190.503638 418.947834 
L 192.472855 419.949351 
L 194.475889 420.737558 
L 196.525747 421.393096 
L 198.627633 421.954986 
L 200.786748 422.44664 
L 203.005693 422.881064 
L 205.292274 423.266063 
L 207.649091 423.609441 
L 210.076144 423.916399 
L 212.583839 424.18954 
L 215.172175 424.431465 
L 217.843754 424.647376 
L 220.608982 424.834673 
L 223.467858 424.995956 
L 226.425585 425.131226 
L 229.489968 425.243084 
L 232.663606 425.334131 
L 235.954305 425.399165 
L 239.367268 425.440786 
L 242.907696 425.461597 
L 246.588596 425.458995 
L 250.409969 425.435583 
L 254.384821 425.388759 
L 258.520957 425.321124 
L 262.82618 425.230077 
L 267.310896 425.11822 
L 271.98811 424.985551 
L 276.86823 424.834673 
L 281.96166 424.660383 
L 287.284008 424.470485 
L 292.863889 424.259776 
L 298.732519 424.020453 
L 304.879493 423.74471 
L 311.317817 423.432549 
L 318.070904 423.086571 
L 325.156963 422.701572 
L 332.599406 422.280154 
L 340.421644 421.822318 
L 348.654895 421.32286 
L 357.322571 420.784382 
L 366.461089 420.204282 
L 376.106869 419.585163 
L 386.293729 418.92182 
L 397.065891 418.209052 
L 408.470179 417.44946 
L 420.55602 416.627436 
L 433.385844 415.740378 
L 447.019483 414.767475 
" style="fill:none;stroke:#ff0000;stroke-linecap:square;stroke-width:1.5;"/>
   </g>
   <g id="line2d_24">
    <path clip-path="url(#p4307faf1c4)" d="M 577.107451 154.305392 
L 576.845584 150.180708 
L 576.061036 146.072632 
L 574.756968 141.997707 
L 572.93863 137.97234 
L 570.613343 134.012741 
L 567.790472 130.134853 
L 564.481382 126.354291 
L 560.699398 122.686279 
L 556.459749 119.145585 
L 551.779507 115.746468 
L 546.677517 112.502614 
L 541.174323 109.427085 
L 535.292084 106.532265 
L 529.054487 103.829811 
L 522.486647 101.330603 
L 515.615012 99.044707 
L 508.46725 96.981326 
L 501.072144 95.148769 
L 493.45947 93.554414 
L 485.659883 92.204683 
L 477.704788 91.105009 
L 469.626219 90.25982 
L 461.456704 89.672521 
L 453.229139 89.345475 
L 444.976653 89.28 
L 436.732477 89.476359 
L 428.529808 89.933762 
L 420.401673 90.650367 
L 412.380803 91.623288 
L 404.499494 92.848608 
L 396.789482 94.321392 
L 389.281812 96.035711 
L 382.006716 97.984661 
L 374.993486 100.160396 
L 368.270364 102.554152 
L 361.86442 105.156293 
L 355.80145 107.95634 
L 350.105866 110.943018 
L 344.800603 114.104302 
L 339.907023 117.42746 
L 335.444831 120.899114 
L 331.431994 124.505282 
L 327.884672 128.231445 
L 324.817147 132.062599 
L 322.241771 135.983316 
L 320.168915 139.97781 
L 318.606925 144.029996 
L 317.562091 148.123558 
L 317.038621 152.242011 
L 317.038621 156.368773 
L 317.562091 160.487227 
L 318.606925 164.580789 
L 320.168915 168.632975 
L 322.241771 172.627469 
L 324.817147 176.548186 
L 327.884672 180.37934 
L 331.431994 184.105503 
L 335.444831 187.711671 
L 339.907023 191.183325 
L 344.800603 194.506483 
L 350.105866 197.667767 
L 355.80145 200.654445 
L 361.86442 203.454492 
L 368.270364 206.056632 
L 374.993486 208.450389 
L 382.006716 210.626123 
L 389.281812 212.575074 
L 396.789482 214.289393 
L 404.499494 215.762177 
L 412.380803 216.987497 
L 420.401673 217.960418 
L 428.529808 218.677023 
L 436.732477 219.134426 
L 444.976653 219.330785 
L 453.229139 219.26531 
L 461.456704 218.938264 
L 469.626219 218.350965 
L 477.704788 217.505776 
L 485.659883 216.406102 
L 493.45947 215.056371 
L 501.072144 213.462016 
L 508.46725 211.629459 
L 515.615012 209.566078 
L 522.486647 207.280181 
L 529.054487 204.780974 
L 535.292084 202.07852 
L 541.174323 199.1837 
L 546.677517 196.108171 
L 551.779507 192.864317 
L 556.459749 189.465199 
L 560.699398 185.924506 
L 564.481382 182.256494 
L 567.790472 178.475932 
L 570.613343 174.598044 
L 572.93863 170.638445 
L 574.756968 166.613078 
L 576.061036 162.538153 
L 576.845584 158.430077 
L 577.107451 154.305392 
" style="fill:none;stroke:#ff0000;stroke-linecap:square;stroke-width:1.5;"/>
   </g>
   <g id="patch_3">
    <path d="M 90 512.64 
L 90 69.12 
" style="fill:none;stroke:#000000;stroke-linecap:square;stroke-linejoin:miter;stroke-width:0.8;"/>
   </g>
   <g id="patch_4">
    <path d="M 648 512.64 
L 648 69.12 
" style="fill:none;stroke:#000000;stroke-linecap:square;stroke-linejoin:miter;stroke-width:0.8;"/>
   </g>
   <g id="patch_5">
    <path d="M 90 512.64 
L 648 512.64 
" style="fill:none;stroke:#000000;stroke-linecap:square;stroke-linejoin:miter;stroke-width:0.8;"/>
   </g>
   <g id="patch_6">
    <path d="M 90 69.12 
L 648 69.12 
" style="fill:none;stroke:#000000;stroke-linecap:square;stroke-linejoin:miter;stroke-width:0.8;"/>
   </g>
   <g id="text_19">
    <!-- Example of 4.2 -->
    <g transform="translate(323.829375 63.12)scale(0.12 -0.12)">
     <defs>
      <path d="M 9.8125 72.90625 
L 55.90625 72.90625 
L 55.90625 64.59375 
L 19.671875 64.59375 
L 19.671875 43.015625 
L 54.390625 43.015625 
L 54.390625 34.71875 
L 19.671875 34.71875 
L 19.671875 8.296875 
L 56.78125 8.296875 
L 56.78125 0 
L 9.8125 0 
z
" id="DejaVuSans-69"/>
      <path d="M 54.890625 54.6875 
L 35.109375 28.078125 
L 55.90625 0 
L 45.3125 0 
L 29.390625 21.484375 
L 13.484375 0 
L 2.875 0 
L 24.125 28.609375 
L 4.6875 54.6875 
L 15.28125 54.6875 
L 29.78125 35.203125 
L 44.28125 54.6875 
z
" id="DejaVuSans-120"/>
      <path d="M 34.28125 27.484375 
Q 23.390625 27.484375 19.1875 25 
Q 14.984375 22.515625 14.984375 16.5 
Q 14.984375 11.71875 18.140625 8.90625 
Q 21.296875 6.109375 26.703125 6.109375 
Q 34.1875 6.109375 38.703125 11.40625 
Q 43.21875 16.703125 43.21875 25.484375 
L 43.21875 27.484375 
z
M 52.203125 31.203125 
L 52.203125 0 
L 43.21875 0 
L 43.21875 8.296875 
Q 40.140625 3.328125 35.546875 0.953125 
Q 30.953125 -1.421875 24.3125 -1.421875 
Q 15.921875 -1.421875 10.953125 3.296875 
Q 6 8.015625 6 15.921875 
Q 6 25.140625 12.171875 29.828125 
Q 18.359375 34.515625 30.609375 34.515625 
L 43.21875 34.515625 
L 43.21875 35.40625 
Q 43.21875 41.609375 39.140625 45 
Q 35.0625 48.390625 27.6875 48.390625 
Q 23 48.390625 18.546875 47.265625 
Q 14.109375 46.140625 10.015625 43.890625 
L 10.015625 52.203125 
Q 14.9375 54.109375 19.578125 55.046875 
Q 24.21875 56 28.609375 56 
Q 40.484375 56 46.34375 49.84375 
Q 52.203125 43.703125 52.203125 31.203125 
z
" id="DejaVuSans-97"/>
      <path d="M 52 44.1875 
Q 55.375 50.25 60.0625 53.125 
Q 64.75 56 71.09375 56 
Q 79.640625 56 84.28125 50.015625 
Q 88.921875 44.046875 88.921875 33.015625 
L 88.921875 0 
L 79.890625 0 
L 79.890625 32.71875 
Q 79.890625 40.578125 77.09375 44.375 
Q 74.3125 48.1875 68.609375 48.1875 
Q 61.625 48.1875 57.5625 43.546875 
Q 53.515625 38.921875 53.515625 30.90625 
L 53.515625 0 
L 44.484375 0 
L 44.484375 32.71875 
Q 44.484375 40.625 41.703125 44.40625 
Q 38.921875 48.1875 33.109375 48.1875 
Q 26.21875 48.1875 22.15625 43.53125 
Q 18.109375 38.875 18.109375 30.90625 
L 18.109375 0 
L 9.078125 0 
L 9.078125 54.6875 
L 18.109375 54.6875 
L 18.109375 46.1875 
Q 21.1875 51.21875 25.484375 53.609375 
Q 29.78125 56 35.6875 56 
Q 41.65625 56 45.828125 52.96875 
Q 50 49.953125 52 44.1875 
z
" id="DejaVuSans-109"/>
      <path d="M 18.109375 8.203125 
L 18.109375 -20.796875 
L 9.078125 -20.796875 
L 9.078125 54.6875 
L 18.109375 54.6875 
L 18.109375 46.390625 
Q 20.953125 51.265625 25.265625 53.625 
Q 29.59375 56 35.59375 56 
Q 45.5625 56 51.78125 48.09375 
Q 58.015625 40.1875 58.015625 27.296875 
Q 58.015625 14.40625 51.78125 6.484375 
Q 45.5625 -1.421875 35.59375 -1.421875 
Q 29.59375 -1.421875 25.265625 0.953125 
Q 20.953125 3.328125 18.109375 8.203125 
z
M 48.6875 27.296875 
Q 48.6875 37.203125 44.609375 42.84375 
Q 40.53125 48.484375 33.40625 48.484375 
Q 26.265625 48.484375 22.1875 42.84375 
Q 18.109375 37.203125 18.109375 27.296875 
Q 18.109375 17.390625 22.1875 11.75 
Q 26.265625 6.109375 33.40625 6.109375 
Q 40.53125 6.109375 44.609375 11.75 
Q 48.6875 17.390625 48.6875 27.296875 
z
" id="DejaVuSans-112"/>
      <path d="M 9.421875 75.984375 
L 18.40625 75.984375 
L 18.40625 0 
L 9.421875 0 
z
" id="DejaVuSans-108"/>
      <path d="M 56.203125 29.59375 
L 56.203125 25.203125 
L 14.890625 25.203125 
Q 15.484375 15.921875 20.484375 11.0625 
Q 25.484375 6.203125 34.421875 6.203125 
Q 39.59375 6.203125 44.453125 7.46875 
Q 49.3125 8.734375 54.109375 11.28125 
L 54.109375 2.78125 
Q 49.265625 0.734375 44.1875 -0.34375 
Q 39.109375 -1.421875 33.890625 -1.421875 
Q 20.796875 -1.421875 13.15625 6.1875 
Q 5.515625 13.8125 5.515625 26.8125 
Q 5.515625 40.234375 12.765625 48.109375 
Q 20.015625 56 32.328125 56 
Q 43.359375 56 49.78125 48.890625 
Q 56.203125 41.796875 56.203125 29.59375 
z
M 47.21875 32.234375 
Q 47.125 39.59375 43.09375 43.984375 
Q 39.0625 48.390625 32.421875 48.390625 
Q 24.90625 48.390625 20.390625 44.140625 
Q 15.875 39.890625 15.1875 32.171875 
z
" id="DejaVuSans-101"/>
      <path id="DejaVuSans-32"/>
      <path d="M 30.609375 48.390625 
Q 23.390625 48.390625 19.1875 42.75 
Q 14.984375 37.109375 14.984375 27.296875 
Q 14.984375 17.484375 19.15625 11.84375 
Q 23.34375 6.203125 30.609375 6.203125 
Q 37.796875 6.203125 41.984375 11.859375 
Q 46.1875 17.53125 46.1875 27.296875 
Q 46.1875 37.015625 41.984375 42.703125 
Q 37.796875 48.390625 30.609375 48.390625 
z
M 30.609375 56 
Q 42.328125 56 49.015625 48.375 
Q 55.71875 40.765625 55.71875 27.296875 
Q 55.71875 13.875 49.015625 6.21875 
Q 42.328125 -1.421875 30.609375 -1.421875 
Q 18.84375 -1.421875 12.171875 6.21875 
Q 5.515625 13.875 5.515625 27.296875 
Q 5.515625 40.765625 12.171875 48.375 
Q 18.84375 56 30.609375 56 
z
" id="DejaVuSans-111"/>
      <path d="M 37.109375 75.984375 
L 37.109375 68.5 
L 28.515625 68.5 
Q 23.6875 68.5 21.796875 66.546875 
Q 19.921875 64.59375 19.921875 59.515625 
L 19.921875 54.6875 
L 34.71875 54.6875 
L 34.71875 47.703125 
L 19.921875 47.703125 
L 19.921875 0 
L 10.890625 0 
L 10.890625 47.703125 
L 2.296875 47.703125 
L 2.296875 54.6875 
L 10.890625 54.6875 
L 10.890625 58.5 
Q 10.890625 67.625 15.140625 71.796875 
Q 19.390625 75.984375 28.609375 75.984375 
z
" id="DejaVuSans-102"/>
     </defs>
     <use xlink:href="#DejaVuSans-69"/>
     <use x="63.183594" xlink:href="#DejaVuSans-120"/>
     <use x="122.363281" xlink:href="#DejaVuSans-97"/>
     <use x="183.642578" xlink:href="#DejaVuSans-109"/>
     <use x="281.054688" xlink:href="#DejaVuSans-112"/>
     <use x="344.53125" xlink:href="#DejaVuSans-108"/>
     <use x="372.314453" xlink:href="#DejaVuSans-101"/>
     <use x="433.837891" xlink:href="#DejaVuSans-32"/>
     <use x="465.625" xlink:href="#DejaVuSans-111"/>
     <use x="526.806641" xlink:href="#DejaVuSans-102"/>
     <use x="562.011719" xlink:href="#DejaVuSans-32"/>
     <use x="593.798828" xlink:href="#DejaVuSans-52"/>
     <use x="657.421875" xlink:href="#DejaVuSans-46"/>
     <use x="689.208984" xlink:href="#DejaVuSans-50"/>
    </g>
   </g>
   <g id="legend_1">
    <g id="patch_7">
     <path d="M 97 165.18875 
L 197.54375 165.18875 
Q 199.54375 165.18875 199.54375 163.18875 
L 199.54375 76.12 
Q 199.54375 74.12 197.54375 74.12 
L 97 74.12 
Q 95 74.12 95 76.12 
L 95 163.18875 
Q 95 165.18875 97 165.18875 
z
" style="fill:#ffffff;opacity:0.8;stroke:#cccccc;stroke-linejoin:miter;"/>
    </g>
    <g id="line2d_25">
     <path d="M 99 82.218438 
L 119 82.218438 
" style="fill:none;stroke:#0000ff;stroke-dasharray:5.55,2.4;stroke-dashoffset:0;stroke-width:1.5;"/>
    </g>
    <g id="line2d_26"/>
    <g id="text_20">
     <!-- Line -->
     <g transform="translate(127 85.718438)scale(0.1 -0.1)">
      <defs>
       <path d="M 9.8125 72.90625 
L 19.671875 72.90625 
L 19.671875 8.296875 
L 55.171875 8.296875 
L 55.171875 0 
L 9.8125 0 
z
" id="DejaVuSans-76"/>
       <path d="M 9.421875 54.6875 
L 18.40625 54.6875 
L 18.40625 0 
L 9.421875 0 
z
M 9.421875 75.984375 
L 18.40625 75.984375 
L 18.40625 64.59375 
L 9.421875 64.59375 
z
" id="DejaVuSans-105"/>
       <path d="M 54.890625 33.015625 
L 54.890625 0 
L 45.90625 0 
L 45.90625 32.71875 
Q 45.90625 40.484375 42.875 44.328125 
Q 39.84375 48.1875 33.796875 48.1875 
Q 26.515625 48.1875 22.3125 43.546875 
Q 18.109375 38.921875 18.109375 30.90625 
L 18.109375 0 
L 9.078125 0 
L 9.078125 54.6875 
L 18.109375 54.6875 
L 18.109375 46.1875 
Q 21.34375 51.125 25.703125 53.5625 
Q 30.078125 56 35.796875 56 
Q 45.21875 56 50.046875 50.171875 
Q 54.890625 44.34375 54.890625 33.015625 
z
" id="DejaVuSans-110"/>
      </defs>
      <use xlink:href="#DejaVuSans-76"/>
      <use x="55.712891" xlink:href="#DejaVuSans-105"/>
      <use x="83.496094" xlink:href="#DejaVuSans-110"/>
      <use x="146.875" xlink:href="#DejaVuSans-101"/>
     </g>
    </g>
    <g id="line2d_27">
     <path d="M 99 96.896563 
L 119 96.896563 
" style="fill:none;stroke:#0000ff;stroke-dasharray:5.55,2.4;stroke-dashoffset:0;stroke-width:1.5;"/>
    </g>
    <g id="line2d_28"/>
    <g id="text_21">
     <!-- Spline -->
     <g transform="translate(127 100.396563)scale(0.1 -0.1)">
      <defs>
       <path d="M 53.515625 70.515625 
L 53.515625 60.890625 
Q 47.90625 63.578125 42.921875 64.890625 
Q 37.9375 66.21875 33.296875 66.21875 
Q 25.25 66.21875 20.875 63.09375 
Q 16.5 59.96875 16.5 54.203125 
Q 16.5 49.359375 19.40625 46.890625 
Q 22.3125 44.4375 30.421875 42.921875 
L 36.375 41.703125 
Q 47.40625 39.59375 52.65625 34.296875 
Q 57.90625 29 57.90625 20.125 
Q 57.90625 9.515625 50.796875 4.046875 
Q 43.703125 -1.421875 29.984375 -1.421875 
Q 24.8125 -1.421875 18.96875 -0.25 
Q 13.140625 0.921875 6.890625 3.21875 
L 6.890625 13.375 
Q 12.890625 10.015625 18.65625 8.296875 
Q 24.421875 6.59375 29.984375 6.59375 
Q 38.421875 6.59375 43.015625 9.90625 
Q 47.609375 13.234375 47.609375 19.390625 
Q 47.609375 24.75 44.3125 27.78125 
Q 41.015625 30.8125 33.5 32.328125 
L 27.484375 33.5 
Q 16.453125 35.6875 11.515625 40.375 
Q 6.59375 45.0625 6.59375 53.421875 
Q 6.59375 63.09375 13.40625 68.65625 
Q 20.21875 74.21875 32.171875 74.21875 
Q 37.3125 74.21875 42.625 73.28125 
Q 47.953125 72.359375 53.515625 70.515625 
z
" id="DejaVuSans-83"/>
      </defs>
      <use xlink:href="#DejaVuSans-83"/>
      <use x="63.476562" xlink:href="#DejaVuSans-112"/>
      <use x="126.953125" xlink:href="#DejaVuSans-108"/>
      <use x="154.736328" xlink:href="#DejaVuSans-105"/>
      <use x="182.519531" xlink:href="#DejaVuSans-110"/>
      <use x="245.898438" xlink:href="#DejaVuSans-101"/>
     </g>
    </g>
    <g id="line2d_29">
     <path d="M 99 111.574688 
L 119 111.574688 
" style="fill:none;stroke:#0000ff;stroke-dasharray:5.55,2.4;stroke-dashoffset:0;stroke-width:1.5;"/>
    </g>
    <g id="line2d_30"/>
    <g id="text_22">
     <!-- Ellipese -->
     <g transform="translate(127 115.074688)scale(0.1 -0.1)">
      <defs>
       <path d="M 44.28125 53.078125 
L 44.28125 44.578125 
Q 40.484375 46.53125 36.375 47.5 
Q 32.28125 48.484375 27.875 48.484375 
Q 21.1875 48.484375 17.84375 46.4375 
Q 14.5 44.390625 14.5 40.28125 
Q 14.5 37.15625 16.890625 35.375 
Q 19.28125 33.59375 26.515625 31.984375 
L 29.59375 31.296875 
Q 39.15625 29.25 43.1875 25.515625 
Q 47.21875 21.78125 47.21875 15.09375 
Q 47.21875 7.46875 41.1875 3.015625 
Q 35.15625 -1.421875 24.609375 -1.421875 
Q 20.21875 -1.421875 15.453125 -0.5625 
Q 10.6875 0.296875 5.421875 2 
L 5.421875 11.28125 
Q 10.40625 8.6875 15.234375 7.390625 
Q 20.0625 6.109375 24.8125 6.109375 
Q 31.15625 6.109375 34.5625 8.28125 
Q 37.984375 10.453125 37.984375 14.40625 
Q 37.984375 18.0625 35.515625 20.015625 
Q 33.0625 21.96875 24.703125 23.78125 
L 21.578125 24.515625 
Q 13.234375 26.265625 9.515625 29.90625 
Q 5.8125 33.546875 5.8125 39.890625 
Q 5.8125 47.609375 11.28125 51.796875 
Q 16.75 56 26.8125 56 
Q 31.78125 56 36.171875 55.265625 
Q 40.578125 54.546875 44.28125 53.078125 
z
" id="DejaVuSans-115"/>
      </defs>
      <use xlink:href="#DejaVuSans-69"/>
      <use x="63.183594" xlink:href="#DejaVuSans-108"/>
      <use x="90.966797" xlink:href="#DejaVuSans-108"/>
      <use x="118.75" xlink:href="#DejaVuSans-105"/>
      <use x="146.533203" xlink:href="#DejaVuSans-112"/>
      <use x="210.009766" xlink:href="#DejaVuSans-101"/>
      <use x="271.533203" xlink:href="#DejaVuSans-115"/>
      <use x="323.632812" xlink:href="#DejaVuSans-101"/>
     </g>
    </g>
    <g id="line2d_31">
     <path d="M 99 126.252813 
L 119 126.252813 
" style="fill:none;stroke:#ff0000;stroke-linecap:square;stroke-width:1.5;"/>
    </g>
    <g id="line2d_32"/>
    <g id="text_23">
     <!-- Moved line -->
     <g transform="translate(127 129.752813)scale(0.1 -0.1)">
      <defs>
       <path d="M 9.8125 72.90625 
L 24.515625 72.90625 
L 43.109375 23.296875 
L 61.8125 72.90625 
L 76.515625 72.90625 
L 76.515625 0 
L 66.890625 0 
L 66.890625 64.015625 
L 48.09375 14.015625 
L 38.1875 14.015625 
L 19.390625 64.015625 
L 19.390625 0 
L 9.8125 0 
z
" id="DejaVuSans-77"/>
       <path d="M 2.984375 54.6875 
L 12.5 54.6875 
L 29.59375 8.796875 
L 46.6875 54.6875 
L 56.203125 54.6875 
L 35.6875 0 
L 23.484375 0 
z
" id="DejaVuSans-118"/>
       <path d="M 45.40625 46.390625 
L 45.40625 75.984375 
L 54.390625 75.984375 
L 54.390625 0 
L 45.40625 0 
L 45.40625 8.203125 
Q 42.578125 3.328125 38.25 0.953125 
Q 33.9375 -1.421875 27.875 -1.421875 
Q 17.96875 -1.421875 11.734375 6.484375 
Q 5.515625 14.40625 5.515625 27.296875 
Q 5.515625 40.1875 11.734375 48.09375 
Q 17.96875 56 27.875 56 
Q 33.9375 56 38.25 53.625 
Q 42.578125 51.265625 45.40625 46.390625 
z
M 14.796875 27.296875 
Q 14.796875 17.390625 18.875 11.75 
Q 22.953125 6.109375 30.078125 6.109375 
Q 37.203125 6.109375 41.296875 11.75 
Q 45.40625 17.390625 45.40625 27.296875 
Q 45.40625 37.203125 41.296875 42.84375 
Q 37.203125 48.484375 30.078125 48.484375 
Q 22.953125 48.484375 18.875 42.84375 
Q 14.796875 37.203125 14.796875 27.296875 
z
" id="DejaVuSans-100"/>
      </defs>
      <use xlink:href="#DejaVuSans-77"/>
      <use x="86.279297" xlink:href="#DejaVuSans-111"/>
      <use x="147.460938" xlink:href="#DejaVuSans-118"/>
      <use x="206.640625" xlink:href="#DejaVuSans-101"/>
      <use x="268.164062" xlink:href="#DejaVuSans-100"/>
      <use x="331.640625" xlink:href="#DejaVuSans-32"/>
      <use x="363.427734" xlink:href="#DejaVuSans-108"/>
      <use x="391.210938" xlink:href="#DejaVuSans-105"/>
      <use x="418.994141" xlink:href="#DejaVuSans-110"/>
      <use x="482.373047" xlink:href="#DejaVuSans-101"/>
     </g>
    </g>
    <g id="line2d_33">
     <path d="M 99 140.930938 
L 119 140.930938 
" style="fill:none;stroke:#ff0000;stroke-linecap:square;stroke-width:1.5;"/>
    </g>
    <g id="line2d_34"/>
    <g id="text_24">
     <!-- Moved spline -->
     <g transform="translate(127 144.430938)scale(0.1 -0.1)">
      <use xlink:href="#DejaVuSans-77"/>
      <use x="86.279297" xlink:href="#DejaVuSans-111"/>
      <use x="147.460938" xlink:href="#DejaVuSans-118"/>
      <use x="206.640625" xlink:href="#DejaVuSans-101"/>
      <use x="268.164062" xlink:href="#DejaVuSans-100"/>
      <use x="331.640625" xlink:href="#DejaVuSans-32"/>
      <use x="363.427734" xlink:href="#DejaVuSans-115"/>
      <use x="415.527344" xlink:href="#DejaVuSans-112"/>
      <use x="479.003906" xlink:href="#DejaVuSans-108"/>
      <use x="506.787109" xlink:href="#DejaVuSans-105"/>
      <use x="534.570312" xlink:href="#DejaVuSans-110"/>
      <use x="597.949219" xlink:href="#DejaVuSans-101"/>
     </g>
    </g>
    <g id="line2d_35">
     <path d="M 99 155.609063 
L 119 155.609063 
" style="fill:none;stroke:#ff0000;stroke-linecap:square;stroke-width:1.5;"/>
    </g>
    <g id="line2d_36"/>
    <g id="text_25">
     <!-- Moved ellipse -->
     <g transform="translate(127 159.109063)scale(0.1 -0.1)">
      <use xlink:href="#DejaVuSans-77"/>
      <use x="86.279297" xlink:href="#DejaVuSans-111"/>
      <use x="147.460938" xlink:href="#DejaVuSans-118"/>
      <use x="206.640625" xlink:href="#DejaVuSans-101"/>
      <use x="268.164062" xlink:href="#DejaVuSans-100"/>
      <use x="331.640625" xlink:href="#DejaVuSans-32"/>
      <use x="363.427734" xlink:href="#DejaVuSans-101"/>
      <use x="424.951172" xlink:href="#DejaVuSans-108"/>
      <use x="452.734375" xlink:href="#DejaVuSans-108"/>
      <use x="480.517578" xlink:href="#DejaVuSans-105"/>
      <use x="508.300781" xlink:href="#DejaVuSans-112"/>
      <use x="571.777344" xlink:href="#DejaVuSans-115"/>
      <use x="623.876953" xlink:href="#DejaVuSans-101"/>
     </g>
    </g>
   </g>
  </g>
 </g>
 <defs>
  <clipPath id="p4307faf1c4">
   <rect height="443.52" width="558" x="90" y="69.12"/>
  </clipPath>
 </defs>
</svg>
