<?xml version="1.0" encoding="utf-8" standalone="no"?>
<!DOCTYPE svg PUBLIC "-//W3C//DTD SVG 1.1//EN"
  "http://www.w3.org/Graphics/SVG/1.1/DTD/svg11.dtd">
<!-- Created with matplotlib (https://matplotlib.org/) -->
<svg height="576pt" version="1.1" viewBox="0 0 720 576" width="720pt" xmlns="http://www.w3.org/2000/svg" xmlns:xlink="http://www.w3.org/1999/xlink">
 <metadata>
  <rdf:RDF xmlns:cc="http://creativecommons.org/ns#" xmlns:dc="http://purl.org/dc/elements/1.1/" xmlns:rdf="http://www.w3.org/1999/02/22-rdf-syntax-ns#">
   <cc:Work>
    <dc:type rdf:resource="http://purl.org/dc/dcmitype/StillImage"/>
    <dc:date>2025-09-02T22:04:55.781803</dc:date>
    <dc:format>image/svg+xml</dc:format>
    <dc:creator>
     <cc:Agent>
      <dc:title>Matplotlib v3.3.2, https://matplotlib.org/</dc:title>
     </cc:Agent>
    </dc:creator>
   </cc:Work>
  </rdf:RDF>
 </metadata>
 <defs>
  <style type="text/css">*{stroke-linecap:butt;stroke-linejoin:round;}</style>
 </defs>
 <g id="figure_1">
  <g id="patch_1">
   <path d="M 0 576 
L 720 576 
L 720 0 
L 0 0 
z
" style="fill:#ffffff;"/>
  </g>
  <g id="axes_1">
   <g id="patch_2">
    <path d="M 90 512.64 
L 648 512.64 
L 648 69.12 
L 90 69.12 
z
" style="fill:#ffffff;"/>
   </g>
   <g id="matplotlib.axis_1">
    <g id="xtick_1">
     <g id="line2d_1">
      <defs>
       <path d="M 0 0 
L 0 3.5 
" id="m83a8dd7e07" style="stroke:#000000;stroke-width:0.8;"/>
      </defs>
      <g>
       <use style="stroke:#000000;stroke-width:0.8;" x="115.400888" xlink:href="#m83a8dd7e07" y="512.64"/>
      </g>
     </g>
     <g id="text_1">
      <!-- 0.0 -->
      <g transform="translate(107.449325 527.238438)scale(0.1 -0.1)">
       <defs>
        <path d="M 31.78125 66.40625 
Q 24.171875 66.40625 20.328125 58.90625 
Q 16.5 51.421875 16.5 36.375 
Q 16.5 21.390625 20.328125 13.890625 
Q 24.171875 6.390625 31.78125 6.390625 
Q 39.453125 6.390625 43.28125 13.890625 
Q 47.125 21.390625 47.125 36.375 
Q 47.125 51.421875 43.28125 58.90625 
Q 39.453125 66.40625 31.78125 66.40625 
z
M 31.78125 74.21875 
Q 44.046875 74.21875 50.515625 64.515625 
Q 56.984375 54.828125 56.984375 36.375 
Q 56.984375 17.96875 50.515625 8.265625 
Q 44.046875 -1.421875 31.78125 -1.421875 
Q 19.53125 -1.421875 13.0625 8.265625 
Q 6.59375 17.96875 6.59375 36.375 
Q 6.59375 54.828125 13.0625 64.515625 
Q 19.53125 74.21875 31.78125 74.21875 
z
" id="DejaVuSans-48"/>
        <path d="M 10.6875 12.40625 
L 21 12.40625 
L 21 0 
L 10.6875 0 
z
" id="DejaVuSans-46"/>
       </defs>
       <use xlink:href="#DejaVuSans-48"/>
       <use x="63.623047" xlink:href="#DejaVuSans-46"/>
       <use x="95.410156" xlink:href="#DejaVuSans-48"/>
      </g>
     </g>
    </g>
    <g id="xtick_2">
     <g id="line2d_2">
      <g>
       <use style="stroke:#000000;stroke-width:0.8;" x="216.839868" xlink:href="#m83a8dd7e07" y="512.64"/>
      </g>
     </g>
     <g id="text_2">
      <!-- 0.2 -->
      <g transform="translate(208.888305 527.238438)scale(0.1 -0.1)">
       <defs>
        <path d="M 19.1875 8.296875 
L 53.609375 8.296875 
L 53.609375 0 
L 7.328125 0 
L 7.328125 8.296875 
Q 12.9375 14.109375 22.625 23.890625 
Q 32.328125 33.6875 34.8125 36.53125 
Q 39.546875 41.84375 41.421875 45.53125 
Q 43.3125 49.21875 43.3125 52.78125 
Q 43.3125 58.59375 39.234375 62.25 
Q 35.15625 65.921875 28.609375 65.921875 
Q 23.96875 65.921875 18.8125 64.3125 
Q 13.671875 62.703125 7.8125 59.421875 
L 7.8125 69.390625 
Q 13.765625 71.78125 18.9375 73 
Q 24.125 74.21875 28.421875 74.21875 
Q 39.75 74.21875 46.484375 68.546875 
Q 53.21875 62.890625 53.21875 53.421875 
Q 53.21875 48.921875 51.53125 44.890625 
Q 49.859375 40.875 45.40625 35.40625 
Q 44.1875 33.984375 37.640625 27.21875 
Q 31.109375 20.453125 19.1875 8.296875 
z
" id="DejaVuSans-50"/>
       </defs>
       <use xlink:href="#DejaVuSans-48"/>
       <use x="63.623047" xlink:href="#DejaVuSans-46"/>
       <use x="95.410156" xlink:href="#DejaVuSans-50"/>
      </g>
     </g>
    </g>
    <g id="xtick_3">
     <g id="line2d_3">
      <g>
       <use style="stroke:#000000;stroke-width:0.8;" x="318.278848" xlink:href="#m83a8dd7e07" y="512.64"/>
      </g>
     </g>
     <g id="text_3">
      <!-- 0.4 -->
      <g transform="translate(310.327285 527.238438)scale(0.1 -0.1)">
       <defs>
        <path d="M 37.796875 64.3125 
L 12.890625 25.390625 
L 37.796875 25.390625 
z
M 35.203125 72.90625 
L 47.609375 72.90625 
L 47.609375 25.390625 
L 58.015625 25.390625 
L 58.015625 17.1875 
L 47.609375 17.1875 
L 47.609375 0 
L 37.796875 0 
L 37.796875 17.1875 
L 4.890625 17.1875 
L 4.890625 26.703125 
z
" id="DejaVuSans-52"/>
       </defs>
       <use xlink:href="#DejaVuSans-48"/>
       <use x="63.623047" xlink:href="#DejaVuSans-46"/>
       <use x="95.410156" xlink:href="#DejaVuSans-52"/>
      </g>
     </g>
    </g>
    <g id="xtick_4">
     <g id="line2d_4">
      <g>
       <use style="stroke:#000000;stroke-width:0.8;" x="419.717828" xlink:href="#m83a8dd7e07" y="512.64"/>
      </g>
     </g>
     <g id="text_4">
      <!-- 0.6 -->
      <g transform="translate(411.766265 527.238438)scale(0.1 -0.1)">
       <defs>
        <path d="M 33.015625 40.375 
Q 26.375 40.375 22.484375 35.828125 
Q 18.609375 31.296875 18.609375 23.390625 
Q 18.609375 15.53125 22.484375 10.953125 
Q 26.375 6.390625 33.015625 6.390625 
Q 39.65625 6.390625 43.53125 10.953125 
Q 47.40625 15.53125 47.40625 23.390625 
Q 47.40625 31.296875 43.53125 35.828125 
Q 39.65625 40.375 33.015625 40.375 
z
M 52.59375 71.296875 
L 52.59375 62.3125 
Q 48.875 64.0625 45.09375 64.984375 
Q 41.3125 65.921875 37.59375 65.921875 
Q 27.828125 65.921875 22.671875 59.328125 
Q 17.53125 52.734375 16.796875 39.40625 
Q 19.671875 43.65625 24.015625 45.921875 
Q 28.375 48.1875 33.59375 48.1875 
Q 44.578125 48.1875 50.953125 41.515625 
Q 57.328125 34.859375 57.328125 23.390625 
Q 57.328125 12.15625 50.6875 5.359375 
Q 44.046875 -1.421875 33.015625 -1.421875 
Q 20.359375 -1.421875 13.671875 8.265625 
Q 6.984375 17.96875 6.984375 36.375 
Q 6.984375 53.65625 15.1875 63.9375 
Q 23.390625 74.21875 37.203125 74.21875 
Q 40.921875 74.21875 44.703125 73.484375 
Q 48.484375 72.75 52.59375 71.296875 
z
" id="DejaVuSans-54"/>
       </defs>
       <use xlink:href="#DejaVuSans-48"/>
       <use x="63.623047" xlink:href="#DejaVuSans-46"/>
       <use x="95.410156" xlink:href="#DejaVuSans-54"/>
      </g>
     </g>
    </g>
    <g id="xtick_5">
     <g id="line2d_5">
      <g>
       <use style="stroke:#000000;stroke-width:0.8;" x="521.156808" xlink:href="#m83a8dd7e07" y="512.64"/>
      </g>
     </g>
     <g id="text_5">
      <!-- 0.8 -->
      <g transform="translate(513.205245 527.238438)scale(0.1 -0.1)">
       <defs>
        <path d="M 31.78125 34.625 
Q 24.75 34.625 20.71875 30.859375 
Q 16.703125 27.09375 16.703125 20.515625 
Q 16.703125 13.921875 20.71875 10.15625 
Q 24.75 6.390625 31.78125 6.390625 
Q 38.8125 6.390625 42.859375 10.171875 
Q 46.921875 13.96875 46.921875 20.515625 
Q 46.921875 27.09375 42.890625 30.859375 
Q 38.875 34.625 31.78125 34.625 
z
M 21.921875 38.8125 
Q 15.578125 40.375 12.03125 44.71875 
Q 8.5 49.078125 8.5 55.328125 
Q 8.5 64.0625 14.71875 69.140625 
Q 20.953125 74.21875 31.78125 74.21875 
Q 42.671875 74.21875 48.875 69.140625 
Q 55.078125 64.0625 55.078125 55.328125 
Q 55.078125 49.078125 51.53125 44.71875 
Q 48 40.375 41.703125 38.8125 
Q 48.828125 37.15625 52.796875 32.3125 
Q 56.78125 27.484375 56.78125 20.515625 
Q 56.78125 9.90625 50.3125 4.234375 
Q 43.84375 -1.421875 31.78125 -1.421875 
Q 19.734375 -1.421875 13.25 4.234375 
Q 6.78125 9.90625 6.78125 20.515625 
Q 6.78125 27.484375 10.78125 32.3125 
Q 14.796875 37.15625 21.921875 38.8125 
z
M 18.3125 54.390625 
Q 18.3125 48.734375 21.84375 45.5625 
Q 25.390625 42.390625 31.78125 42.390625 
Q 38.140625 42.390625 41.71875 45.5625 
Q 45.3125 48.734375 45.3125 54.390625 
Q 45.3125 60.0625 41.71875 63.234375 
Q 38.140625 66.40625 31.78125 66.40625 
Q 25.390625 66.40625 21.84375 63.234375 
Q 18.3125 60.0625 18.3125 54.390625 
z
" id="DejaVuSans-56"/>
       </defs>
       <use xlink:href="#DejaVuSans-48"/>
       <use x="63.623047" xlink:href="#DejaVuSans-46"/>
       <use x="95.410156" xlink:href="#DejaVuSans-56"/>
      </g>
     </g>
    </g>
    <g id="xtick_6">
     <g id="line2d_6">
      <g>
       <use style="stroke:#000000;stroke-width:0.8;" x="622.595788" xlink:href="#m83a8dd7e07" y="512.64"/>
      </g>
     </g>
     <g id="text_6">
      <!-- 1.0 -->
      <g transform="translate(614.644226 527.238438)scale(0.1 -0.1)">
       <defs>
        <path d="M 12.40625 8.296875 
L 28.515625 8.296875 
L 28.515625 63.921875 
L 10.984375 60.40625 
L 10.984375 69.390625 
L 28.421875 72.90625 
L 38.28125 72.90625 
L 38.28125 8.296875 
L 54.390625 8.296875 
L 54.390625 0 
L 12.40625 0 
z
" id="DejaVuSans-49"/>
       </defs>
       <use xlink:href="#DejaVuSans-49"/>
       <use x="63.623047" xlink:href="#DejaVuSans-46"/>
       <use x="95.410156" xlink:href="#DejaVuSans-48"/>
      </g>
     </g>
    </g>
   </g>
   <g id="matplotlib.axis_2">
    <g id="ytick_1">
     <g id="line2d_7">
      <defs>
       <path d="M 0 0 
L -3.5 0 
" id="ma590ad7483" style="stroke:#000000;stroke-width:0.8;"/>
      </defs>
      <g>
       <use style="stroke:#000000;stroke-width:0.8;" x="90" xlink:href="#ma590ad7483" y="503.100657"/>
      </g>
     </g>
     <g id="text_7">
      <!-- −0.4 -->
      <g transform="translate(58.717187 506.899875)scale(0.1 -0.1)">
       <defs>
        <path d="M 10.59375 35.5 
L 73.1875 35.5 
L 73.1875 27.203125 
L 10.59375 27.203125 
z
" id="DejaVuSans-8722"/>
       </defs>
       <use xlink:href="#DejaVuSans-8722"/>
       <use x="83.789062" xlink:href="#DejaVuSans-48"/>
       <use x="147.412109" xlink:href="#DejaVuSans-46"/>
       <use x="179.199219" xlink:href="#DejaVuSans-52"/>
      </g>
     </g>
    </g>
    <g id="ytick_2">
     <g id="line2d_8">
      <g>
       <use style="stroke:#000000;stroke-width:0.8;" x="90" xlink:href="#ma590ad7483" y="452.381167"/>
      </g>
     </g>
     <g id="text_8">
      <!-- −0.3 -->
      <g transform="translate(58.717187 456.180385)scale(0.1 -0.1)">
       <defs>
        <path d="M 40.578125 39.3125 
Q 47.65625 37.796875 51.625 33 
Q 55.609375 28.21875 55.609375 21.1875 
Q 55.609375 10.40625 48.1875 4.484375 
Q 40.765625 -1.421875 27.09375 -1.421875 
Q 22.515625 -1.421875 17.65625 -0.515625 
Q 12.796875 0.390625 7.625 2.203125 
L 7.625 11.71875 
Q 11.71875 9.328125 16.59375 8.109375 
Q 21.484375 6.890625 26.8125 6.890625 
Q 36.078125 6.890625 40.9375 10.546875 
Q 45.796875 14.203125 45.796875 21.1875 
Q 45.796875 27.640625 41.28125 31.265625 
Q 36.765625 34.90625 28.71875 34.90625 
L 20.21875 34.90625 
L 20.21875 43.015625 
L 29.109375 43.015625 
Q 36.375 43.015625 40.234375 45.921875 
Q 44.09375 48.828125 44.09375 54.296875 
Q 44.09375 59.90625 40.109375 62.90625 
Q 36.140625 65.921875 28.71875 65.921875 
Q 24.65625 65.921875 20.015625 65.03125 
Q 15.375 64.15625 9.8125 62.3125 
L 9.8125 71.09375 
Q 15.4375 72.65625 20.34375 73.4375 
Q 25.25 74.21875 29.59375 74.21875 
Q 40.828125 74.21875 47.359375 69.109375 
Q 53.90625 64.015625 53.90625 55.328125 
Q 53.90625 49.265625 50.4375 45.09375 
Q 46.96875 40.921875 40.578125 39.3125 
z
" id="DejaVuSans-51"/>
       </defs>
       <use xlink:href="#DejaVuSans-8722"/>
       <use x="83.789062" xlink:href="#DejaVuSans-48"/>
       <use x="147.412109" xlink:href="#DejaVuSans-46"/>
       <use x="179.199219" xlink:href="#DejaVuSans-51"/>
      </g>
     </g>
    </g>
    <g id="ytick_3">
     <g id="line2d_9">
      <g>
       <use style="stroke:#000000;stroke-width:0.8;" x="90" xlink:href="#ma590ad7483" y="401.661677"/>
      </g>
     </g>
     <g id="text_9">
      <!-- −0.2 -->
      <g transform="translate(58.717187 405.460895)scale(0.1 -0.1)">
       <use xlink:href="#DejaVuSans-8722"/>
       <use x="83.789062" xlink:href="#DejaVuSans-48"/>
       <use x="147.412109" xlink:href="#DejaVuSans-46"/>
       <use x="179.199219" xlink:href="#DejaVuSans-50"/>
      </g>
     </g>
    </g>
    <g id="ytick_4">
     <g id="line2d_10">
      <g>
       <use style="stroke:#000000;stroke-width:0.8;" x="90" xlink:href="#ma590ad7483" y="350.942187"/>
      </g>
     </g>
     <g id="text_10">
      <!-- −0.1 -->
      <g transform="translate(58.717187 354.741405)scale(0.1 -0.1)">
       <use xlink:href="#DejaVuSans-8722"/>
       <use x="83.789062" xlink:href="#DejaVuSans-48"/>
       <use x="147.412109" xlink:href="#DejaVuSans-46"/>
       <use x="179.199219" xlink:href="#DejaVuSans-49"/>
      </g>
     </g>
    </g>
    <g id="ytick_5">
     <g id="line2d_11">
      <g>
       <use style="stroke:#000000;stroke-width:0.8;" x="90" xlink:href="#ma590ad7483" y="300.222696"/>
      </g>
     </g>
     <g id="text_11">
      <!-- 0.0 -->
      <g transform="translate(67.096875 304.021915)scale(0.1 -0.1)">
       <use xlink:href="#DejaVuSans-48"/>
       <use x="63.623047" xlink:href="#DejaVuSans-46"/>
       <use x="95.410156" xlink:href="#DejaVuSans-48"/>
      </g>
     </g>
    </g>
    <g id="ytick_6">
     <g id="line2d_12">
      <g>
       <use style="stroke:#000000;stroke-width:0.8;" x="90" xlink:href="#ma590ad7483" y="249.503206"/>
      </g>
     </g>
     <g id="text_12">
      <!-- 0.1 -->
      <g transform="translate(67.096875 253.302425)scale(0.1 -0.1)">
       <use xlink:href="#DejaVuSans-48"/>
       <use x="63.623047" xlink:href="#DejaVuSans-46"/>
       <use x="95.410156" xlink:href="#DejaVuSans-49"/>
      </g>
     </g>
    </g>
    <g id="ytick_7">
     <g id="line2d_13">
      <g>
       <use style="stroke:#000000;stroke-width:0.8;" x="90" xlink:href="#ma590ad7483" y="198.783716"/>
      </g>
     </g>
     <g id="text_13">
      <!-- 0.2 -->
      <g transform="translate(67.096875 202.582935)scale(0.1 -0.1)">
       <use xlink:href="#DejaVuSans-48"/>
       <use x="63.623047" xlink:href="#DejaVuSans-46"/>
       <use x="95.410156" xlink:href="#DejaVuSans-50"/>
      </g>
     </g>
    </g>
    <g id="ytick_8">
     <g id="line2d_14">
      <g>
       <use style="stroke:#000000;stroke-width:0.8;" x="90" xlink:href="#ma590ad7483" y="148.064226"/>
      </g>
     </g>
     <g id="text_14">
      <!-- 0.3 -->
      <g transform="translate(67.096875 151.863445)scale(0.1 -0.1)">
       <use xlink:href="#DejaVuSans-48"/>
       <use x="63.623047" xlink:href="#DejaVuSans-46"/>
       <use x="95.410156" xlink:href="#DejaVuSans-51"/>
      </g>
     </g>
    </g>
    <g id="ytick_9">
     <g id="line2d_15">
      <g>
       <use style="stroke:#000000;stroke-width:0.8;" x="90" xlink:href="#ma590ad7483" y="97.344736"/>
      </g>
     </g>
     <g id="text_15">
      <!-- 0.4 -->
      <g transform="translate(67.096875 101.143955)scale(0.1 -0.1)">
       <use xlink:href="#DejaVuSans-48"/>
       <use x="63.623047" xlink:href="#DejaVuSans-46"/>
       <use x="95.410156" xlink:href="#DejaVuSans-52"/>
      </g>
     </g>
    </g>
   </g>
   <g id="line2d_16">
    <path clip-path="url(#p0a55fcde41)" d="M 622.636364 299.583631 
L 602.542869 295.508587 
L 582.203497 291.610118 
L 561.620252 287.890132 
L 540.591123 284.314933 
L 519.321947 280.922968 
L 497.609847 277.685489 
L 476.481274 274.754978 
L 455.528247 272.074893 
L 434.342663 269.589923 
L 414.161214 267.442873 
L 394.162809 265.545092 
L 374.969916 263.940656 
L 356.378985 262.609118 
L 338.393014 261.547376 
L 321.636017 260.777366 
L 306.733077 260.294006 
L 292.445275 260.068568 
L 279.191236 260.076194 
L 265.732096 260.308513 
L 253.314078 260.743777 
L 241.112586 261.389033 
L 229.338712 262.236873 
L 218.202255 263.256615 
L 207.294835 264.481339 
L 197.237484 265.831348 
L 187.622431 267.344334 
L 178.454054 269.01408 
L 170.142491 270.749423 
L 162.283247 272.610381 
L 155.084189 274.548159 
L 148.743487 276.474609 
L 142.865259 278.485662 
L 137.84339 280.427856 
L 133.290221 282.420855 
L 129.396846 284.358528 
L 126.157049 286.203246 
L 123.388981 288.024564 
L 121.094982 289.798625 
L 119.265885 291.489345 
L 117.89349 293.044504 
L 116.827343 294.576841 
L 116.071767 296.054632 
L 115.614088 297.439428 
L 115.384636 298.882987 
L 115.392452 300.132672 
L 115.603197 301.363962 
L 116.084039 302.743794 
L 116.780751 304.026161 
L 117.652683 305.188039 
L 118.807204 306.380627 
L 120.409862 307.695988 
L 122.316002 308.953266 
L 124.685478 310.235152 
L 127.521592 311.50241 
L 130.821396 312.730875 
L 134.777296 313.958113 
L 139.389251 315.14861 
L 144.856997 316.318216 
L 150.97674 317.389 
L 157.948045 318.378014 
L 165.767655 319.262591 
L 175.051379 320.074663 
L 184.764451 320.703026 
L 195.936377 321.2014 
L 208.978447 321.556142 
L 223.681345 321.709828 
L 240.041723 321.654133 
L 259.092134 321.357404 
L 282.278964 320.754982 
L 310.427905 319.805069 
L 339.39786 318.641312 
L 367.943099 317.249207 
L 401.234568 315.407575 
L 443.198501 312.873267 
L 506.026154 308.838608 
L 583.305173 303.638875 
L 622.555212 300.861762 
L 622.555212 300.861762 
" style="fill:none;stroke:#0000ff;stroke-linecap:square;stroke-width:1.5;"/>
   </g>
   <g id="line2d_17">
    <path clip-path="url(#p0a55fcde41)" d="M 622.636364 299.583631 
L 588.506609 292.830147 
L 562.838463 288.137286 
L 538.747159 284.04186 
L 515.633388 280.383441 
L 493.916407 277.180562 
L 474.220159 274.47677 
L 454.909378 272.017115 
L 436.193284 269.811949 
L 419.310502 267.981491 
L 403.648101 266.42897 
L 386.94149 264.91955 
L 373.111137 263.802773 
L 359.065166 262.789654 
L 346.250445 261.985795 
L 333.429033 261.296901 
L 310.666533 260.397638 
L 290.581423 260.059501 
L 281.055069 260.0667 
L 270.908224 260.193009 
L 259.936377 260.492522 
L 244.420352 261.193349 
L 228.719748 262.290532 
L 214.289536 263.673093 
L 200.72388 265.341474 
L 188.439997 267.210742 
L 177.032747 269.299377 
L 166.509426 271.584027 
L 156.878842 274.044787 
L 147.95598 276.73172 
L 142.287167 278.713563 
L 136.513039 281.004221 
L 132.925328 282.618307 
L 129.594295 284.288875 
L 126.35438 286.128201 
L 123.247499 288.181495 
L 120.201014 290.660339 
L 117.195824 294.070934 
L 115.875824 296.643541 
L 115.4389 300.333554 
L 116.812348 304.001561 
L 118.829093 306.353575 
L 122.866326 309.241723 
L 127.149676 311.317201 
L 131.615567 312.967288 
L 136.180905 314.321072 
L 141.007898 315.502401 
L 145.876137 316.502024 
L 150.773015 317.351605 
L 155.894786 318.107663 
L 166.180243 319.299111 
L 177.323872 320.233552 
L 188.694492 320.896471 
L 201.525242 321.375336 
L 214.155322 321.628901 
L 229.687115 321.708942 
L 245.425816 321.588688 
L 262.818928 321.273973 
L 282.485923 320.747376 
L 315.187747 319.626229 
L 344.156001 318.421707 
L 368.149736 317.234988 
L 397.51291 315.620115 
L 433.896982 313.448786 
L 500.446469 309.203196 
L 566.776354 304.772641 
L 620.696079 300.994431 
L 622.555212 300.861762 
L 622.555212 300.861762 
" style="fill:none;stroke:#000000;stroke-dasharray:5.55,2.4;stroke-dashoffset:0;stroke-width:1.5;"/>
   </g>
   <g id="line2d_18">
    <defs>
     <path d="M 0 3 
C 0.795609 3 1.55874 2.683901 2.12132 2.12132 
C 2.683901 1.55874 3 0.795609 3 0 
C 3 -0.795609 2.683901 -1.55874 2.12132 -2.12132 
C 1.55874 -2.683901 0.795609 -3 0 -3 
C -0.795609 -3 -1.55874 -2.683901 -2.12132 -2.12132 
C -2.683901 -1.55874 -3 -0.795609 -3 0 
C -3 0.795609 -2.683901 1.55874 -2.12132 2.12132 
C -1.55874 2.683901 -0.795609 3 0 3 
z
" id="m4f58cfdbd7" style="stroke:#ff0000;"/>
    </defs>
    <g clip-path="url(#p0a55fcde41)">
     <use style="fill:#ff0000;stroke:#ff0000;" x="622.636364" xlink:href="#m4f58cfdbd7" y="299.583631"/>
     <use style="fill:#ff0000;stroke:#ff0000;" x="596.485395" xlink:href="#m4f58cfdbd7" y="294.32402"/>
     <use style="fill:#ff0000;stroke:#ff0000;" x="571.779931" xlink:href="#m4f58cfdbd7" y="289.698402"/>
     <use style="fill:#ff0000;stroke:#ff0000;" x="548.423606" xlink:href="#m4f58cfdbd7" y="285.620555"/>
     <use style="fill:#ff0000;stroke:#ff0000;" x="526.320052" xlink:href="#m4f58cfdbd7" y="282.0144"/>
     <use style="fill:#ff0000;stroke:#ff0000;" x="505.383047" xlink:href="#m4f58cfdbd7" y="278.819072"/>
     <use style="fill:#ff0000;stroke:#ff0000;" x="485.541582" xlink:href="#m4f58cfdbd7" y="275.983852"/>
     <use style="fill:#ff0000;stroke:#ff0000;" x="466.719579" xlink:href="#m4f58cfdbd7" y="273.478309"/>
     <use style="fill:#ff0000;stroke:#ff0000;" x="448.846031" xlink:href="#m4f58cfdbd7" y="271.26694"/>
     <use style="fill:#ff0000;stroke:#ff0000;" x="431.865146" xlink:href="#m4f58cfdbd7" y="269.314239"/>
     <use style="fill:#ff0000;stroke:#ff0000;" x="415.71606" xlink:href="#m4f58cfdbd7" y="267.59992"/>
     <use style="fill:#ff0000;stroke:#ff0000;" x="400.348055" xlink:href="#m4f58cfdbd7" y="266.108767"/>
     <use style="fill:#ff0000;stroke:#ff0000;" x="385.71041" xlink:href="#m4f58cfdbd7" y="264.810349"/>
     <use style="fill:#ff0000;stroke:#ff0000;" x="371.757478" xlink:href="#m4f58cfdbd7" y="263.69452"/>
     <use style="fill:#ff0000;stroke:#ff0000;" x="358.453756" xlink:href="#m4f58cfdbd7" y="262.746065"/>
     <use style="fill:#ff0000;stroke:#ff0000;" x="345.753596" xlink:href="#m4f58cfdbd7" y="261.954841"/>
     <use style="fill:#ff0000;stroke:#ff0000;" x="333.626566" xlink:href="#m4f58cfdbd7" y="261.305632"/>
     <use style="fill:#ff0000;stroke:#ff0000;" x="322.037162" xlink:href="#m4f58cfdbd7" y="260.793365"/>
     <use style="fill:#ff0000;stroke:#ff0000;" x="310.899162" xlink:href="#m4f58cfdbd7" y="260.402825"/>
     <use style="fill:#ff0000;stroke:#ff0000;" x="300.207494" xlink:href="#m4f58cfdbd7" y="260.164443"/>
     <use style="fill:#ff0000;stroke:#ff0000;" x="289.9723" xlink:href="#m4f58cfdbd7" y="260.05286"/>
     <use style="fill:#ff0000;stroke:#ff0000;" x="280.168223" xlink:href="#m4f58cfdbd7" y="260.068076"/>
     <use style="fill:#ff0000;stroke:#ff0000;" x="270.769901" xlink:href="#m4f58cfdbd7" y="260.194875"/>
     <use style="fill:#ff0000;stroke:#ff0000;" x="261.757048" xlink:href="#m4f58cfdbd7" y="260.423113"/>
     <use style="fill:#ff0000;stroke:#ff0000;" x="253.109375" xlink:href="#m4f58cfdbd7" y="260.752789"/>
     <use style="fill:#ff0000;stroke:#ff0000;" x="244.811666" xlink:href="#m4f58cfdbd7" y="261.168689"/>
     <use style="fill:#ff0000;stroke:#ff0000;" x="236.843635" xlink:href="#m4f58cfdbd7" y="261.670812"/>
     <use style="fill:#ff0000;stroke:#ff0000;" x="229.190064" xlink:href="#m4f58cfdbd7" y="262.249014"/>
     <use style="fill:#ff0000;stroke:#ff0000;" x="221.835738" xlink:href="#m4f58cfdbd7" y="262.898224"/>
     <use style="fill:#ff0000;stroke:#ff0000;" x="214.765441" xlink:href="#m4f58cfdbd7" y="263.618441"/>
     <use style="fill:#ff0000;stroke:#ff0000;" x="207.963957" xlink:href="#m4f58cfdbd7" y="264.399521"/>
     <use style="fill:#ff0000;stroke:#ff0000;" x="201.421143" xlink:href="#m4f58cfdbd7" y="265.241464"/>
     <use style="fill:#ff0000;stroke:#ff0000;" x="195.126854" xlink:href="#m4f58cfdbd7" y="266.144271"/>
     <use style="fill:#ff0000;stroke:#ff0000;" x="189.060803" xlink:href="#m4f58cfdbd7" y="267.102869"/>
     <use style="fill:#ff0000;stroke:#ff0000;" x="183.22299" xlink:href="#m4f58cfdbd7" y="268.117259"/>
     <use style="fill:#ff0000;stroke:#ff0000;" x="177.598198" xlink:href="#m4f58cfdbd7" y="269.182369"/>
     <use style="fill:#ff0000;stroke:#ff0000;" x="172.181357" xlink:href="#m4f58cfdbd7" y="270.303269"/>
     <use style="fill:#ff0000;stroke:#ff0000;" x="166.957249" xlink:href="#m4f58cfdbd7" y="271.47489"/>
     <use style="fill:#ff0000;stroke:#ff0000;" x="161.920804" xlink:href="#m4f58cfdbd7" y="272.702301"/>
     <use style="fill:#ff0000;stroke:#ff0000;" x="157.066949" xlink:href="#m4f58cfdbd7" y="273.990576"/>
     <use style="fill:#ff0000;stroke:#ff0000;" x="152.38554" xlink:href="#m4f58cfdbd7" y="275.339715"/>
     <use style="fill:#ff0000;stroke:#ff0000;" x="147.866433" xlink:href="#m4f58cfdbd7" y="276.75986"/>
     <use style="fill:#ff0000;stroke:#ff0000;" x="143.514701" xlink:href="#m4f58cfdbd7" y="278.251013"/>
     <use style="fill:#ff0000;stroke:#ff0000;" x="139.315127" xlink:href="#m4f58cfdbd7" y="279.833461"/>
     <use style="fill:#ff0000;stroke:#ff0000;" x="135.272784" xlink:href="#m4f58cfdbd7" y="281.52242"/>
     <use style="fill:#ff0000;stroke:#ff0000;" x="131.372455" xlink:href="#m4f58cfdbd7" y="283.34325"/>
     <use style="fill:#ff0000;stroke:#ff0000;" x="127.624285" xlink:href="#m4f58cfdbd7" y="285.336526"/>
     <use style="fill:#ff0000;stroke:#ff0000;" x="124.028273" xlink:href="#m4f58cfdbd7" y="287.578328"/>
     <use style="fill:#ff0000;stroke:#ff0000;" x="120.594563" xlink:href="#m4f58cfdbd7" y="290.230957"/>
     <use style="fill:#ff0000;stroke:#ff0000;" x="117.363732" xlink:href="#m4f58cfdbd7" y="293.755961"/>
     <use style="fill:#ff0000;stroke:#ff0000;" x="115.892867" xlink:href="#m4f58cfdbd7" y="296.515102"/>
     <use style="fill:#ff0000;stroke:#ff0000;" x="115.400888" xlink:href="#m4f58cfdbd7" y="300.222696"/>
     <use style="fill:#ff0000;stroke:#ff0000;" x="116.613083" xlink:href="#m4f58cfdbd7" y="303.757845"/>
     <use style="fill:#ff0000;stroke:#ff0000;" x="118.591144" xlink:href="#m4f58cfdbd7" y="306.177165"/>
     <use style="fill:#ff0000;stroke:#ff0000;" x="122.415393" xlink:href="#m4f58cfdbd7" y="309.012384"/>
     <use style="fill:#ff0000;stroke:#ff0000;" x="126.254859" xlink:href="#m4f58cfdbd7" y="310.965084"/>
     <use style="fill:#ff0000;stroke:#ff0000;" x="130.160259" xlink:href="#m4f58cfdbd7" y="312.501885"/>
     <use style="fill:#ff0000;stroke:#ff0000;" x="134.156955" xlink:href="#m4f58cfdbd7" y="313.780016"/>
     <use style="fill:#ff0000;stroke:#ff0000;" x="138.25509" xlink:href="#m4f58cfdbd7" y="314.875557"/>
     <use style="fill:#ff0000;stroke:#ff0000;" x="142.464808" xlink:href="#m4f58cfdbd7" y="315.834156"/>
     <use style="fill:#ff0000;stroke:#ff0000;" x="146.79118" xlink:href="#m4f58cfdbd7" y="316.681171"/>
     <use style="fill:#ff0000;stroke:#ff0000;" x="151.249423" xlink:href="#m4f58cfdbd7" y="317.431819"/>
     <use style="fill:#ff0000;stroke:#ff0000;" x="155.844609" xlink:href="#m4f58cfdbd7" y="318.101317"/>
     <use style="fill:#ff0000;stroke:#ff0000;" x="160.576737" xlink:href="#m4f58cfdbd7" y="318.699807"/>
     <use style="fill:#ff0000;stroke:#ff0000;" x="165.466096" xlink:href="#m4f58cfdbd7" y="319.232361"/>
     <use style="fill:#ff0000;stroke:#ff0000;" x="170.512686" xlink:href="#m4f58cfdbd7" y="319.704053"/>
     <use style="fill:#ff0000;stroke:#ff0000;" x="175.721577" xlink:href="#m4f58cfdbd7" y="320.125024"/>
     <use style="fill:#ff0000;stroke:#ff0000;" x="181.113059" xlink:href="#m4f58cfdbd7" y="320.490205"/>
     <use style="fill:#ff0000;stroke:#ff0000;" x="186.687131" xlink:href="#m4f58cfdbd7" y="320.804666"/>
     <use style="fill:#ff0000;stroke:#ff0000;" x="192.453937" xlink:href="#m4f58cfdbd7" y="321.068407"/>
     <use style="fill:#ff0000;stroke:#ff0000;" x="198.428693" xlink:href="#m4f58cfdbd7" y="321.286501"/>
     <use style="fill:#ff0000;stroke:#ff0000;" x="204.616471" xlink:href="#m4f58cfdbd7" y="321.464019"/>
     <use style="fill:#ff0000;stroke:#ff0000;" x="211.032486" xlink:href="#m4f58cfdbd7" y="321.590818"/>
     <use style="fill:#ff0000;stroke:#ff0000;" x="217.686883" xlink:href="#m4f58cfdbd7" y="321.671969"/>
     <use style="fill:#ff0000;stroke:#ff0000;" x="224.589806" xlink:href="#m4f58cfdbd7" y="321.712544"/>
     <use style="fill:#ff0000;stroke:#ff0000;" x="231.766614" xlink:href="#m4f58cfdbd7" y="321.707472"/>
     <use style="fill:#ff0000;stroke:#ff0000;" x="239.217307" xlink:href="#m4f58cfdbd7" y="321.661825"/>
     <use style="fill:#ff0000;stroke:#ff0000;" x="246.967245" xlink:href="#m4f58cfdbd7" y="321.57053"/>
     <use style="fill:#ff0000;stroke:#ff0000;" x="255.031644" xlink:href="#m4f58cfdbd7" y="321.438659"/>
     <use style="fill:#ff0000;stroke:#ff0000;" x="263.425719" xlink:href="#m4f58cfdbd7" y="321.261141"/>
     <use style="fill:#ff0000;stroke:#ff0000;" x="272.169759" xlink:href="#m4f58cfdbd7" y="321.043047"/>
     <use style="fill:#ff0000;stroke:#ff0000;" x="281.289124" xlink:href="#m4f58cfdbd7" y="320.784378"/>
     <use style="fill:#ff0000;stroke:#ff0000;" x="290.8041" xlink:href="#m4f58cfdbd7" y="320.490205"/>
     <use style="fill:#ff0000;stroke:#ff0000;" x="300.734976" xlink:href="#m4f58cfdbd7" y="320.150384"/>
     <use style="fill:#ff0000;stroke:#ff0000;" x="311.112184" xlink:href="#m4f58cfdbd7" y="319.780132"/>
     <use style="fill:#ff0000;stroke:#ff0000;" x="321.991514" xlink:href="#m4f58cfdbd7" y="319.369304"/>
     <use style="fill:#ff0000;stroke:#ff0000;" x="333.433831" xlink:href="#m4f58cfdbd7" y="318.902685"/>
     <use style="fill:#ff0000;stroke:#ff0000;" x="345.418847" xlink:href="#m4f58cfdbd7" y="318.365058"/>
     <use style="fill:#ff0000;stroke:#ff0000;" x="357.971921" xlink:href="#m4f58cfdbd7" y="317.756424"/>
     <use style="fill:#ff0000;stroke:#ff0000;" x="371.1387" xlink:href="#m4f58cfdbd7" y="317.081855"/>
     <use style="fill:#ff0000;stroke:#ff0000;" x="384.954689" xlink:href="#m4f58cfdbd7" y="316.331207"/>
     <use style="fill:#ff0000;stroke:#ff0000;" x="399.465536" xlink:href="#m4f58cfdbd7" y="315.509551"/>
     <use style="fill:#ff0000;stroke:#ff0000;" x="414.716886" xlink:href="#m4f58cfdbd7" y="314.616888"/>
     <use style="fill:#ff0000;stroke:#ff0000;" x="430.769605" xlink:href="#m4f58cfdbd7" y="313.643074"/>
     <use style="fill:#ff0000;stroke:#ff0000;" x="447.669339" xlink:href="#m4f58cfdbd7" y="312.59318"/>
     <use style="fill:#ff0000;stroke:#ff0000;" x="465.487096" xlink:href="#m4f58cfdbd7" y="311.462135"/>
     <use style="fill:#ff0000;stroke:#ff0000;" x="484.293883" xlink:href="#m4f58cfdbd7" y="310.255012"/>
     <use style="fill:#ff0000;stroke:#ff0000;" x="504.155635" xlink:href="#m4f58cfdbd7" y="308.961665"/>
     <use style="fill:#ff0000;stroke:#ff0000;" x="525.158576" xlink:href="#m4f58cfdbd7" y="307.571951"/>
     <use style="fill:#ff0000;stroke:#ff0000;" x="547.394" xlink:href="#m4f58cfdbd7" y="306.090941"/>
     <use style="fill:#ff0000;stroke:#ff0000;" x="570.958275" xlink:href="#m4f58cfdbd7" y="304.488206"/>
     <use style="fill:#ff0000;stroke:#ff0000;" x="595.973128" xlink:href="#m4f58cfdbd7" y="302.758671"/>
     <use style="fill:#ff0000;stroke:#ff0000;" x="622.555212" xlink:href="#m4f58cfdbd7" y="300.861762"/>
    </g>
   </g>
   <g id="patch_3">
    <path d="M 90 512.64 
L 90 69.12 
" style="fill:none;stroke:#000000;stroke-linecap:square;stroke-linejoin:miter;stroke-width:0.8;"/>
   </g>
   <g id="patch_4">
    <path d="M 648 512.64 
L 648 69.12 
" style="fill:none;stroke:#000000;stroke-linecap:square;stroke-linejoin:miter;stroke-width:0.8;"/>
   </g>
   <g id="patch_5">
    <path d="M 90 512.64 
L 648 512.64 
" style="fill:none;stroke:#000000;stroke-linecap:square;stroke-linejoin:miter;stroke-width:0.8;"/>
   </g>
   <g id="patch_6">
    <path d="M 90 69.12 
L 648 69.12 
" style="fill:none;stroke:#000000;stroke-linecap:square;stroke-linejoin:miter;stroke-width:0.8;"/>
   </g>
   <g id="text_16">
    <!-- Example of 3.6.1.1 -->
    <g transform="translate(312.380625 63.12)scale(0.12 -0.12)">
     <defs>
      <path d="M 9.8125 72.90625 
L 55.90625 72.90625 
L 55.90625 64.59375 
L 19.671875 64.59375 
L 19.671875 43.015625 
L 54.390625 43.015625 
L 54.390625 34.71875 
L 19.671875 34.71875 
L 19.671875 8.296875 
L 56.78125 8.296875 
L 56.78125 0 
L 9.8125 0 
z
" id="DejaVuSans-69"/>
      <path d="M 54.890625 54.6875 
L 35.109375 28.078125 
L 55.90625 0 
L 45.3125 0 
L 29.390625 21.484375 
L 13.484375 0 
L 2.875 0 
L 24.125 28.609375 
L 4.6875 54.6875 
L 15.28125 54.6875 
L 29.78125 35.203125 
L 44.28125 54.6875 
z
" id="DejaVuSans-120"/>
      <path d="M 34.28125 27.484375 
Q 23.390625 27.484375 19.1875 25 
Q 14.984375 22.515625 14.984375 16.5 
Q 14.984375 11.71875 18.140625 8.90625 
Q 21.296875 6.109375 26.703125 6.109375 
Q 34.1875 6.109375 38.703125 11.40625 
Q 43.21875 16.703125 43.21875 25.484375 
L 43.21875 27.484375 
z
M 52.203125 31.203125 
L 52.203125 0 
L 43.21875 0 
L 43.21875 8.296875 
Q 40.140625 3.328125 35.546875 0.953125 
Q 30.953125 -1.421875 24.3125 -1.421875 
Q 15.921875 -1.421875 10.953125 3.296875 
Q 6 8.015625 6 15.921875 
Q 6 25.140625 12.171875 29.828125 
Q 18.359375 34.515625 30.609375 34.515625 
L 43.21875 34.515625 
L 43.21875 35.40625 
Q 43.21875 41.609375 39.140625 45 
Q 35.0625 48.390625 27.6875 48.390625 
Q 23 48.390625 18.546875 47.265625 
Q 14.109375 46.140625 10.015625 43.890625 
L 10.015625 52.203125 
Q 14.9375 54.109375 19.578125 55.046875 
Q 24.21875 56 28.609375 56 
Q 40.484375 56 46.34375 49.84375 
Q 52.203125 43.703125 52.203125 31.203125 
z
" id="DejaVuSans-97"/>
      <path d="M 52 44.1875 
Q 55.375 50.25 60.0625 53.125 
Q 64.75 56 71.09375 56 
Q 79.640625 56 84.28125 50.015625 
Q 88.921875 44.046875 88.921875 33.015625 
L 88.921875 0 
L 79.890625 0 
L 79.890625 32.71875 
Q 79.890625 40.578125 77.09375 44.375 
Q 74.3125 48.1875 68.609375 48.1875 
Q 61.625 48.1875 57.5625 43.546875 
Q 53.515625 38.921875 53.515625 30.90625 
L 53.515625 0 
L 44.484375 0 
L 44.484375 32.71875 
Q 44.484375 40.625 41.703125 44.40625 
Q 38.921875 48.1875 33.109375 48.1875 
Q 26.21875 48.1875 22.15625 43.53125 
Q 18.109375 38.875 18.109375 30.90625 
L 18.109375 0 
L 9.078125 0 
L 9.078125 54.6875 
L 18.109375 54.6875 
L 18.109375 46.1875 
Q 21.1875 51.21875 25.484375 53.609375 
Q 29.78125 56 35.6875 56 
Q 41.65625 56 45.828125 52.96875 
Q 50 49.953125 52 44.1875 
z
" id="DejaVuSans-109"/>
      <path d="M 18.109375 8.203125 
L 18.109375 -20.796875 
L 9.078125 -20.796875 
L 9.078125 54.6875 
L 18.109375 54.6875 
L 18.109375 46.390625 
Q 20.953125 51.265625 25.265625 53.625 
Q 29.59375 56 35.59375 56 
Q 45.5625 56 51.78125 48.09375 
Q 58.015625 40.1875 58.015625 27.296875 
Q 58.015625 14.40625 51.78125 6.484375 
Q 45.5625 -1.421875 35.59375 -1.421875 
Q 29.59375 -1.421875 25.265625 0.953125 
Q 20.953125 3.328125 18.109375 8.203125 
z
M 48.6875 27.296875 
Q 48.6875 37.203125 44.609375 42.84375 
Q 40.53125 48.484375 33.40625 48.484375 
Q 26.265625 48.484375 22.1875 42.84375 
Q 18.109375 37.203125 18.109375 27.296875 
Q 18.109375 17.390625 22.1875 11.75 
Q 26.265625 6.109375 33.40625 6.109375 
Q 40.53125 6.109375 44.609375 11.75 
Q 48.6875 17.390625 48.6875 27.296875 
z
" id="DejaVuSans-112"/>
      <path d="M 9.421875 75.984375 
L 18.40625 75.984375 
L 18.40625 0 
L 9.421875 0 
z
" id="DejaVuSans-108"/>
      <path d="M 56.203125 29.59375 
L 56.203125 25.203125 
L 14.890625 25.203125 
Q 15.484375 15.921875 20.484375 11.0625 
Q 25.484375 6.203125 34.421875 6.203125 
Q 39.59375 6.203125 44.453125 7.46875 
Q 49.3125 8.734375 54.109375 11.28125 
L 54.109375 2.78125 
Q 49.265625 0.734375 44.1875 -0.34375 
Q 39.109375 -1.421875 33.890625 -1.421875 
Q 20.796875 -1.421875 13.15625 6.1875 
Q 5.515625 13.8125 5.515625 26.8125 
Q 5.515625 40.234375 12.765625 48.109375 
Q 20.015625 56 32.328125 56 
Q 43.359375 56 49.78125 48.890625 
Q 56.203125 41.796875 56.203125 29.59375 
z
M 47.21875 32.234375 
Q 47.125 39.59375 43.09375 43.984375 
Q 39.0625 48.390625 32.421875 48.390625 
Q 24.90625 48.390625 20.390625 44.140625 
Q 15.875 39.890625 15.1875 32.171875 
z
" id="DejaVuSans-101"/>
      <path id="DejaVuSans-32"/>
      <path d="M 30.609375 48.390625 
Q 23.390625 48.390625 19.1875 42.75 
Q 14.984375 37.109375 14.984375 27.296875 
Q 14.984375 17.484375 19.15625 11.84375 
Q 23.34375 6.203125 30.609375 6.203125 
Q 37.796875 6.203125 41.984375 11.859375 
Q 46.1875 17.53125 46.1875 27.296875 
Q 46.1875 37.015625 41.984375 42.703125 
Q 37.796875 48.390625 30.609375 48.390625 
z
M 30.609375 56 
Q 42.328125 56 49.015625 48.375 
Q 55.71875 40.765625 55.71875 27.296875 
Q 55.71875 13.875 49.015625 6.21875 
Q 42.328125 -1.421875 30.609375 -1.421875 
Q 18.84375 -1.421875 12.171875 6.21875 
Q 5.515625 13.875 5.515625 27.296875 
Q 5.515625 40.765625 12.171875 48.375 
Q 18.84375 56 30.609375 56 
z
" id="DejaVuSans-111"/>
      <path d="M 37.109375 75.984375 
L 37.109375 68.5 
L 28.515625 68.5 
Q 23.6875 68.5 21.796875 66.546875 
Q 19.921875 64.59375 19.921875 59.515625 
L 19.921875 54.6875 
L 34.71875 54.6875 
L 34.71875 47.703125 
L 19.921875 47.703125 
L 19.921875 0 
L 10.890625 0 
L 10.890625 47.703125 
L 2.296875 47.703125 
L 2.296875 54.6875 
L 10.890625 54.6875 
L 10.890625 58.5 
Q 10.890625 67.625 15.140625 71.796875 
Q 19.390625 75.984375 28.609375 75.984375 
z
" id="DejaVuSans-102"/>
     </defs>
     <use xlink:href="#DejaVuSans-69"/>
     <use x="63.183594" xlink:href="#DejaVuSans-120"/>
     <use x="122.363281" xlink:href="#DejaVuSans-97"/>
     <use x="183.642578" xlink:href="#DejaVuSans-109"/>
     <use x="281.054688" xlink:href="#DejaVuSans-112"/>
     <use x="344.53125" xlink:href="#DejaVuSans-108"/>
     <use x="372.314453" xlink:href="#DejaVuSans-101"/>
     <use x="433.837891" xlink:href="#DejaVuSans-32"/>
     <use x="465.625" xlink:href="#DejaVuSans-111"/>
     <use x="526.806641" xlink:href="#DejaVuSans-102"/>
     <use x="562.011719" xlink:href="#DejaVuSans-32"/>
     <use x="593.798828" xlink:href="#DejaVuSans-51"/>
     <use x="657.421875" xlink:href="#DejaVuSans-46"/>
     <use x="689.208984" xlink:href="#DejaVuSans-54"/>
     <use x="752.832031" xlink:href="#DejaVuSans-46"/>
     <use x="784.619141" xlink:href="#DejaVuSans-49"/>
     <use x="848.242188" xlink:href="#DejaVuSans-46"/>
     <use x="880.029297" xlink:href="#DejaVuSans-49"/>
    </g>
   </g>
   <g id="legend_1">
    <g id="patch_7">
     <path d="M 564.09375 121.154375 
L 641 121.154375 
Q 643 121.154375 643 119.154375 
L 643 76.12 
Q 643 74.12 641 74.12 
L 564.09375 74.12 
Q 562.09375 74.12 562.09375 76.12 
L 562.09375 119.154375 
Q 562.09375 121.154375 564.09375 121.154375 
z
" style="fill:#ffffff;opacity:0.8;stroke:#cccccc;stroke-linejoin:miter;"/>
    </g>
    <g id="line2d_19">
     <path d="M 566.09375 82.218438 
L 586.09375 82.218438 
" style="fill:none;stroke:#0000ff;stroke-linecap:square;stroke-width:1.5;"/>
    </g>
    <g id="line2d_20"/>
    <g id="text_17">
     <!-- spline -->
     <g transform="translate(594.09375 85.718438)scale(0.1 -0.1)">
      <defs>
       <path d="M 44.28125 53.078125 
L 44.28125 44.578125 
Q 40.484375 46.53125 36.375 47.5 
Q 32.28125 48.484375 27.875 48.484375 
Q 21.1875 48.484375 17.84375 46.4375 
Q 14.5 44.390625 14.5 40.28125 
Q 14.5 37.15625 16.890625 35.375 
Q 19.28125 33.59375 26.515625 31.984375 
L 29.59375 31.296875 
Q 39.15625 29.25 43.1875 25.515625 
Q 47.21875 21.78125 47.21875 15.09375 
Q 47.21875 7.46875 41.1875 3.015625 
Q 35.15625 -1.421875 24.609375 -1.421875 
Q 20.21875 -1.421875 15.453125 -0.5625 
Q 10.6875 0.296875 5.421875 2 
L 5.421875 11.28125 
Q 10.40625 8.6875 15.234375 7.390625 
Q 20.0625 6.109375 24.8125 6.109375 
Q 31.15625 6.109375 34.5625 8.28125 
Q 37.984375 10.453125 37.984375 14.40625 
Q 37.984375 18.0625 35.515625 20.015625 
Q 33.0625 21.96875 24.703125 23.78125 
L 21.578125 24.515625 
Q 13.234375 26.265625 9.515625 29.90625 
Q 5.8125 33.546875 5.8125 39.890625 
Q 5.8125 47.609375 11.28125 51.796875 
Q 16.75 56 26.8125 56 
Q 31.78125 56 36.171875 55.265625 
Q 40.578125 54.546875 44.28125 53.078125 
z
" id="DejaVuSans-115"/>
       <path d="M 9.421875 54.6875 
L 18.40625 54.6875 
L 18.40625 0 
L 9.421875 0 
z
M 9.421875 75.984375 
L 18.40625 75.984375 
L 18.40625 64.59375 
L 9.421875 64.59375 
z
" id="DejaVuSans-105"/>
       <path d="M 54.890625 33.015625 
L 54.890625 0 
L 45.90625 0 
L 45.90625 32.71875 
Q 45.90625 40.484375 42.875 44.328125 
Q 39.84375 48.1875 33.796875 48.1875 
Q 26.515625 48.1875 22.3125 43.546875 
Q 18.109375 38.921875 18.109375 30.90625 
L 18.109375 0 
L 9.078125 0 
L 9.078125 54.6875 
L 18.109375 54.6875 
L 18.109375 46.1875 
Q 21.34375 51.125 25.703125 53.5625 
Q 30.078125 56 35.796875 56 
Q 45.21875 56 50.046875 50.171875 
Q 54.890625 44.34375 54.890625 33.015625 
z
" id="DejaVuSans-110"/>
      </defs>
      <use xlink:href="#DejaVuSans-115"/>
      <use x="52.099609" xlink:href="#DejaVuSans-112"/>
      <use x="115.576172" xlink:href="#DejaVuSans-108"/>
      <use x="143.359375" xlink:href="#DejaVuSans-105"/>
      <use x="171.142578" xlink:href="#DejaVuSans-110"/>
      <use x="234.521484" xlink:href="#DejaVuSans-101"/>
     </g>
    </g>
    <g id="line2d_21">
     <path d="M 566.09375 96.896563 
L 586.09375 96.896563 
" style="fill:none;stroke:#000000;stroke-dasharray:5.55,2.4;stroke-dashoffset:0;stroke-width:1.5;"/>
    </g>
    <g id="line2d_22"/>
    <g id="text_18">
     <!-- polyline -->
     <g transform="translate(594.09375 100.396563)scale(0.1 -0.1)">
      <defs>
       <path d="M 32.171875 -5.078125 
Q 28.375 -14.84375 24.75 -17.8125 
Q 21.140625 -20.796875 15.09375 -20.796875 
L 7.90625 -20.796875 
L 7.90625 -13.28125 
L 13.1875 -13.28125 
Q 16.890625 -13.28125 18.9375 -11.515625 
Q 21 -9.765625 23.484375 -3.21875 
L 25.09375 0.875 
L 2.984375 54.6875 
L 12.5 54.6875 
L 29.59375 11.921875 
L 46.6875 54.6875 
L 56.203125 54.6875 
z
" id="DejaVuSans-121"/>
      </defs>
      <use xlink:href="#DejaVuSans-112"/>
      <use x="63.476562" xlink:href="#DejaVuSans-111"/>
      <use x="124.658203" xlink:href="#DejaVuSans-108"/>
      <use x="152.441406" xlink:href="#DejaVuSans-121"/>
      <use x="211.621094" xlink:href="#DejaVuSans-108"/>
      <use x="239.404297" xlink:href="#DejaVuSans-105"/>
      <use x="267.1875" xlink:href="#DejaVuSans-110"/>
      <use x="330.566406" xlink:href="#DejaVuSans-101"/>
     </g>
    </g>
    <g id="line2d_23"/>
    <g id="line2d_24">
     <g>
      <use style="fill:#ff0000;stroke:#ff0000;" x="576.09375" xlink:href="#m4f58cfdbd7" y="111.574688"/>
     </g>
    </g>
    <g id="text_19">
     <!-- RawData -->
     <g transform="translate(594.09375 115.074688)scale(0.1 -0.1)">
      <defs>
       <path d="M 44.390625 34.1875 
Q 47.5625 33.109375 50.5625 29.59375 
Q 53.5625 26.078125 56.59375 19.921875 
L 66.609375 0 
L 56 0 
L 46.6875 18.703125 
Q 43.0625 26.03125 39.671875 28.421875 
Q 36.28125 30.8125 30.421875 30.8125 
L 19.671875 30.8125 
L 19.671875 0 
L 9.8125 0 
L 9.8125 72.90625 
L 32.078125 72.90625 
Q 44.578125 72.90625 50.734375 67.671875 
Q 56.890625 62.453125 56.890625 51.90625 
Q 56.890625 45.015625 53.6875 40.46875 
Q 50.484375 35.9375 44.390625 34.1875 
z
M 19.671875 64.796875 
L 19.671875 38.921875 
L 32.078125 38.921875 
Q 39.203125 38.921875 42.84375 42.21875 
Q 46.484375 45.515625 46.484375 51.90625 
Q 46.484375 58.296875 42.84375 61.546875 
Q 39.203125 64.796875 32.078125 64.796875 
z
" id="DejaVuSans-82"/>
       <path d="M 4.203125 54.6875 
L 13.1875 54.6875 
L 24.421875 12.015625 
L 35.59375 54.6875 
L 46.1875 54.6875 
L 57.421875 12.015625 
L 68.609375 54.6875 
L 77.59375 54.6875 
L 63.28125 0 
L 52.6875 0 
L 40.921875 44.828125 
L 29.109375 0 
L 18.5 0 
z
" id="DejaVuSans-119"/>
       <path d="M 19.671875 64.796875 
L 19.671875 8.109375 
L 31.59375 8.109375 
Q 46.6875 8.109375 53.6875 14.9375 
Q 60.6875 21.78125 60.6875 36.53125 
Q 60.6875 51.171875 53.6875 57.984375 
Q 46.6875 64.796875 31.59375 64.796875 
z
M 9.8125 72.90625 
L 30.078125 72.90625 
Q 51.265625 72.90625 61.171875 64.09375 
Q 71.09375 55.28125 71.09375 36.53125 
Q 71.09375 17.671875 61.125 8.828125 
Q 51.171875 0 30.078125 0 
L 9.8125 0 
z
" id="DejaVuSans-68"/>
       <path d="M 18.3125 70.21875 
L 18.3125 54.6875 
L 36.8125 54.6875 
L 36.8125 47.703125 
L 18.3125 47.703125 
L 18.3125 18.015625 
Q 18.3125 11.328125 20.140625 9.421875 
Q 21.96875 7.515625 27.59375 7.515625 
L 36.8125 7.515625 
L 36.8125 0 
L 27.59375 0 
Q 17.1875 0 13.234375 3.875 
Q 9.28125 7.765625 9.28125 18.015625 
L 9.28125 47.703125 
L 2.6875 47.703125 
L 2.6875 54.6875 
L 9.28125 54.6875 
L 9.28125 70.21875 
z
" id="DejaVuSans-116"/>
      </defs>
      <use xlink:href="#DejaVuSans-82"/>
      <use x="67.232422" xlink:href="#DejaVuSans-97"/>
      <use x="128.511719" xlink:href="#DejaVuSans-119"/>
      <use x="210.298828" xlink:href="#DejaVuSans-68"/>
      <use x="287.300781" xlink:href="#DejaVuSans-97"/>
      <use x="348.580078" xlink:href="#DejaVuSans-116"/>
      <use x="387.789062" xlink:href="#DejaVuSans-97"/>
     </g>
    </g>
   </g>
  </g>
 </g>
 <defs>
  <clipPath id="p0a55fcde41">
   <rect height="443.52" width="558" x="90" y="69.12"/>
  </clipPath>
 </defs>
</svg>
