<?xml version="1.0" encoding="utf-8" standalone="no"?>
<!DOCTYPE svg PUBLIC "-//W3C//DTD SVG 1.1//EN"
  "http://www.w3.org/Graphics/SVG/1.1/DTD/svg11.dtd">
<!-- Created with matplotlib (https://matplotlib.org/) -->
<svg height="576pt" version="1.1" viewBox="0 0 720 576" width="720pt" xmlns="http://www.w3.org/2000/svg" xmlns:xlink="http://www.w3.org/1999/xlink">
 <metadata>
  <rdf:RDF xmlns:cc="http://creativecommons.org/ns#" xmlns:dc="http://purl.org/dc/elements/1.1/" xmlns:rdf="http://www.w3.org/1999/02/22-rdf-syntax-ns#">
   <cc:Work>
    <dc:type rdf:resource="http://purl.org/dc/dcmitype/StillImage"/>
    <dc:date>2025-09-05T12:38:30.567319</dc:date>
    <dc:format>image/svg+xml</dc:format>
    <dc:creator>
     <cc:Agent>
      <dc:title>Matplotlib v3.3.2, https://matplotlib.org/</dc:title>
     </cc:Agent>
    </dc:creator>
   </cc:Work>
  </rdf:RDF>
 </metadata>
 <defs>
  <style type="text/css">*{stroke-linecap:butt;stroke-linejoin:round;}</style>
 </defs>
 <g id="figure_1">
  <g id="patch_1">
   <path d="M 0 576 
L 720 576 
L 720 0 
L 0 0 
z
" style="fill:#ffffff;"/>
  </g>
  <g id="axes_1">
   <g id="patch_2">
    <path d="M 90 512.64 
L 648 512.64 
L 648 69.12 
L 90 69.12 
z
" style="fill:#ffffff;"/>
   </g>
   <g id="Quiver_1">
    <path clip-path="url(#p9b1cf90a11)" d="M 469.633619 463.544663 
L 478.228605 435.937672 
L 476.381469 436.239222 
L 481.267032 428.993997 
L 481.176457 437.732064 
L 479.826934 436.435285 
L 471.231948 464.042276 
L 469.633619 463.544663 
"/>
   </g>
   <g id="Quiver_2">
    <path clip-path="url(#p9b1cf90a11)" d="M 623.472881 119.073498 
L 622.491301 147.970838 
L 624.19275 147.191149 
L 621.399051 155.471081 
L 619.173645 147.020661 
L 620.818265 147.914008 
L 621.799846 119.016668 
L 623.472881 119.073498 
"/>
   </g>
   <g id="Quiver_3">
    <path clip-path="url(#p9b1cf90a11)" d="M 519.453076 354.419776 
L 520.758669 325.535261 
L 519.048583 326.295819 
L 521.934963 318.047739 
L 524.06546 326.522585 
L 522.430962 325.61085 
L 521.125369 354.495364 
L 519.453076 354.419776 
"/>
   </g>
   <g id="Quiver_4">
    <path clip-path="url(#p9b1cf90a11)" d="M 524.704039 199.561942 
L 526.853066 228.395974 
L 528.460226 227.436869 
L 526.57827 235.970348 
L 523.452117 227.810128 
L 525.183696 228.520394 
L 523.03467 199.686361 
L 524.704039 199.561942 
"/>
   </g>
   <g id="Quiver_5">
    <path clip-path="url(#p9b1cf90a11)" d="M 622.607948 119.881601 
L 593.710609 118.900004 
L 594.490297 120.601454 
L 586.210367 117.80775 
L 594.660788 115.582349 
L 593.76744 117.226969 
L 622.664779 118.208566 
L 622.607948 119.881601 
"/>
   </g>
   <g id="Quiver_6">
    <path clip-path="url(#p9b1cf90a11)" d="M 622.360486 127.166809 
L 593.463146 126.185228 
L 594.242835 127.886678 
L 585.962903 125.092978 
L 594.413323 122.867572 
L 593.519976 124.512193 
L 622.417315 125.493774 
L 622.360486 127.166809 
"/>
   </g>
   <g id="Quiver_7">
    <path clip-path="url(#p9b1cf90a11)" d="M 523.931684 200.458827 
L 495.097959 202.611981 
L 496.057294 204.219004 
L 487.523546 202.338269 
L 495.683318 199.210948 
L 494.973301 200.942629 
L 523.807025 198.789475 
L 523.931684 200.458827 
"/>
   </g>
   <g id="Quiver_8">
    <path clip-path="url(#p9b1cf90a11)" d="M 524.473293 207.727351 
L 495.639261 209.876378 
L 496.598366 211.483538 
L 488.064887 209.601581 
L 496.225107 206.475428 
L 495.514841 208.207008 
L 524.348874 206.057981 
L 524.473293 207.727351 
"/>
   </g>
   <g id="Quiver_9">
    <path clip-path="url(#p9b1cf90a11)" d="M 245.770633 294.185084 
L 257.568121 320.582792 
L 258.754926 319.135609 
L 259.877576 327.801731 
L 254.169975 321.184684 
L 256.039804 321.265818 
L 244.242316 294.868109 
L 245.770633 294.185084 
"/>
   </g>
   <g id="matplotlib.axis_1">
    <g id="xtick_1">
     <g id="line2d_1">
      <defs>
       <path d="M 0 0 
L 0 3.5 
" id="mf9c2ecac1b" style="stroke:#000000;stroke-width:0.8;"/>
      </defs>
      <g>
       <use style="stroke:#000000;stroke-width:0.8;" x="160.633218" xlink:href="#mf9c2ecac1b" y="512.64"/>
      </g>
     </g>
     <g id="text_1">
      <!-- 20 -->
      <g transform="translate(154.270718 527.238438)scale(0.1 -0.1)">
       <defs>
        <path d="M 19.1875 8.296875 
L 53.609375 8.296875 
L 53.609375 0 
L 7.328125 0 
L 7.328125 8.296875 
Q 12.9375 14.109375 22.625 23.890625 
Q 32.328125 33.6875 34.8125 36.53125 
Q 39.546875 41.84375 41.421875 45.53125 
Q 43.3125 49.21875 43.3125 52.78125 
Q 43.3125 58.59375 39.234375 62.25 
Q 35.15625 65.921875 28.609375 65.921875 
Q 23.96875 65.921875 18.8125 64.3125 
Q 13.671875 62.703125 7.8125 59.421875 
L 7.8125 69.390625 
Q 13.765625 71.78125 18.9375 73 
Q 24.125 74.21875 28.421875 74.21875 
Q 39.75 74.21875 46.484375 68.546875 
Q 53.21875 62.890625 53.21875 53.421875 
Q 53.21875 48.921875 51.53125 44.890625 
Q 49.859375 40.875 45.40625 35.40625 
Q 44.1875 33.984375 37.640625 27.21875 
Q 31.109375 20.453125 19.1875 8.296875 
z
" id="DejaVuSans-50"/>
        <path d="M 31.78125 66.40625 
Q 24.171875 66.40625 20.328125 58.90625 
Q 16.5 51.421875 16.5 36.375 
Q 16.5 21.390625 20.328125 13.890625 
Q 24.171875 6.390625 31.78125 6.390625 
Q 39.453125 6.390625 43.28125 13.890625 
Q 47.125 21.390625 47.125 36.375 
Q 47.125 51.421875 43.28125 58.90625 
Q 39.453125 66.40625 31.78125 66.40625 
z
M 31.78125 74.21875 
Q 44.046875 74.21875 50.515625 64.515625 
Q 56.984375 54.828125 56.984375 36.375 
Q 56.984375 17.96875 50.515625 8.265625 
Q 44.046875 -1.421875 31.78125 -1.421875 
Q 19.53125 -1.421875 13.0625 8.265625 
Q 6.59375 17.96875 6.59375 36.375 
Q 6.59375 54.828125 13.0625 64.515625 
Q 19.53125 74.21875 31.78125 74.21875 
z
" id="DejaVuSans-48"/>
       </defs>
       <use xlink:href="#DejaVuSans-50"/>
       <use x="63.623047" xlink:href="#DejaVuSans-48"/>
      </g>
     </g>
    </g>
    <g id="xtick_2">
     <g id="line2d_2">
      <g>
       <use style="stroke:#000000;stroke-width:0.8;" x="233.52723" xlink:href="#mf9c2ecac1b" y="512.64"/>
      </g>
     </g>
     <g id="text_2">
      <!-- 40 -->
      <g transform="translate(227.16473 527.238438)scale(0.1 -0.1)">
       <defs>
        <path d="M 37.796875 64.3125 
L 12.890625 25.390625 
L 37.796875 25.390625 
z
M 35.203125 72.90625 
L 47.609375 72.90625 
L 47.609375 25.390625 
L 58.015625 25.390625 
L 58.015625 17.1875 
L 47.609375 17.1875 
L 47.609375 0 
L 37.796875 0 
L 37.796875 17.1875 
L 4.890625 17.1875 
L 4.890625 26.703125 
z
" id="DejaVuSans-52"/>
       </defs>
       <use xlink:href="#DejaVuSans-52"/>
       <use x="63.623047" xlink:href="#DejaVuSans-48"/>
      </g>
     </g>
    </g>
    <g id="xtick_3">
     <g id="line2d_3">
      <g>
       <use style="stroke:#000000;stroke-width:0.8;" x="306.421242" xlink:href="#mf9c2ecac1b" y="512.64"/>
      </g>
     </g>
     <g id="text_3">
      <!-- 60 -->
      <g transform="translate(300.058742 527.238438)scale(0.1 -0.1)">
       <defs>
        <path d="M 33.015625 40.375 
Q 26.375 40.375 22.484375 35.828125 
Q 18.609375 31.296875 18.609375 23.390625 
Q 18.609375 15.53125 22.484375 10.953125 
Q 26.375 6.390625 33.015625 6.390625 
Q 39.65625 6.390625 43.53125 10.953125 
Q 47.40625 15.53125 47.40625 23.390625 
Q 47.40625 31.296875 43.53125 35.828125 
Q 39.65625 40.375 33.015625 40.375 
z
M 52.59375 71.296875 
L 52.59375 62.3125 
Q 48.875 64.0625 45.09375 64.984375 
Q 41.3125 65.921875 37.59375 65.921875 
Q 27.828125 65.921875 22.671875 59.328125 
Q 17.53125 52.734375 16.796875 39.40625 
Q 19.671875 43.65625 24.015625 45.921875 
Q 28.375 48.1875 33.59375 48.1875 
Q 44.578125 48.1875 50.953125 41.515625 
Q 57.328125 34.859375 57.328125 23.390625 
Q 57.328125 12.15625 50.6875 5.359375 
Q 44.046875 -1.421875 33.015625 -1.421875 
Q 20.359375 -1.421875 13.671875 8.265625 
Q 6.984375 17.96875 6.984375 36.375 
Q 6.984375 53.65625 15.1875 63.9375 
Q 23.390625 74.21875 37.203125 74.21875 
Q 40.921875 74.21875 44.703125 73.484375 
Q 48.484375 72.75 52.59375 71.296875 
z
" id="DejaVuSans-54"/>
       </defs>
       <use xlink:href="#DejaVuSans-54"/>
       <use x="63.623047" xlink:href="#DejaVuSans-48"/>
      </g>
     </g>
    </g>
    <g id="xtick_4">
     <g id="line2d_4">
      <g>
       <use style="stroke:#000000;stroke-width:0.8;" x="379.315254" xlink:href="#mf9c2ecac1b" y="512.64"/>
      </g>
     </g>
     <g id="text_4">
      <!-- 80 -->
      <g transform="translate(372.952754 527.238438)scale(0.1 -0.1)">
       <defs>
        <path d="M 31.78125 34.625 
Q 24.75 34.625 20.71875 30.859375 
Q 16.703125 27.09375 16.703125 20.515625 
Q 16.703125 13.921875 20.71875 10.15625 
Q 24.75 6.390625 31.78125 6.390625 
Q 38.8125 6.390625 42.859375 10.171875 
Q 46.921875 13.96875 46.921875 20.515625 
Q 46.921875 27.09375 42.890625 30.859375 
Q 38.875 34.625 31.78125 34.625 
z
M 21.921875 38.8125 
Q 15.578125 40.375 12.03125 44.71875 
Q 8.5 49.078125 8.5 55.328125 
Q 8.5 64.0625 14.71875 69.140625 
Q 20.953125 74.21875 31.78125 74.21875 
Q 42.671875 74.21875 48.875 69.140625 
Q 55.078125 64.0625 55.078125 55.328125 
Q 55.078125 49.078125 51.53125 44.71875 
Q 48 40.375 41.703125 38.8125 
Q 48.828125 37.15625 52.796875 32.3125 
Q 56.78125 27.484375 56.78125 20.515625 
Q 56.78125 9.90625 50.3125 4.234375 
Q 43.84375 -1.421875 31.78125 -1.421875 
Q 19.734375 -1.421875 13.25 4.234375 
Q 6.78125 9.90625 6.78125 20.515625 
Q 6.78125 27.484375 10.78125 32.3125 
Q 14.796875 37.15625 21.921875 38.8125 
z
M 18.3125 54.390625 
Q 18.3125 48.734375 21.84375 45.5625 
Q 25.390625 42.390625 31.78125 42.390625 
Q 38.140625 42.390625 41.71875 45.5625 
Q 45.3125 48.734375 45.3125 54.390625 
Q 45.3125 60.0625 41.71875 63.234375 
Q 38.140625 66.40625 31.78125 66.40625 
Q 25.390625 66.40625 21.84375 63.234375 
Q 18.3125 60.0625 18.3125 54.390625 
z
" id="DejaVuSans-56"/>
       </defs>
       <use xlink:href="#DejaVuSans-56"/>
       <use x="63.623047" xlink:href="#DejaVuSans-48"/>
      </g>
     </g>
    </g>
    <g id="xtick_5">
     <g id="line2d_5">
      <g>
       <use style="stroke:#000000;stroke-width:0.8;" x="452.209266" xlink:href="#mf9c2ecac1b" y="512.64"/>
      </g>
     </g>
     <g id="text_5">
      <!-- 100 -->
      <g transform="translate(442.665516 527.238438)scale(0.1 -0.1)">
       <defs>
        <path d="M 12.40625 8.296875 
L 28.515625 8.296875 
L 28.515625 63.921875 
L 10.984375 60.40625 
L 10.984375 69.390625 
L 28.421875 72.90625 
L 38.28125 72.90625 
L 38.28125 8.296875 
L 54.390625 8.296875 
L 54.390625 0 
L 12.40625 0 
z
" id="DejaVuSans-49"/>
       </defs>
       <use xlink:href="#DejaVuSans-49"/>
       <use x="63.623047" xlink:href="#DejaVuSans-48"/>
       <use x="127.246094" xlink:href="#DejaVuSans-48"/>
      </g>
     </g>
    </g>
    <g id="xtick_6">
     <g id="line2d_6">
      <g>
       <use style="stroke:#000000;stroke-width:0.8;" x="525.103278" xlink:href="#mf9c2ecac1b" y="512.64"/>
      </g>
     </g>
     <g id="text_6">
      <!-- 120 -->
      <g transform="translate(515.559528 527.238438)scale(0.1 -0.1)">
       <use xlink:href="#DejaVuSans-49"/>
       <use x="63.623047" xlink:href="#DejaVuSans-50"/>
       <use x="127.246094" xlink:href="#DejaVuSans-48"/>
      </g>
     </g>
    </g>
    <g id="xtick_7">
     <g id="line2d_7">
      <g>
       <use style="stroke:#000000;stroke-width:0.8;" x="597.99729" xlink:href="#mf9c2ecac1b" y="512.64"/>
      </g>
     </g>
     <g id="text_7">
      <!-- 140 -->
      <g transform="translate(588.45354 527.238438)scale(0.1 -0.1)">
       <use xlink:href="#DejaVuSans-49"/>
       <use x="63.623047" xlink:href="#DejaVuSans-52"/>
       <use x="127.246094" xlink:href="#DejaVuSans-48"/>
      </g>
     </g>
    </g>
   </g>
   <g id="matplotlib.axis_2">
    <g id="ytick_1">
     <g id="line2d_8">
      <defs>
       <path d="M 0 0 
L -3.5 0 
" id="m057423f84c" style="stroke:#000000;stroke-width:0.8;"/>
      </defs>
      <g>
       <use style="stroke:#000000;stroke-width:0.8;" x="90" xlink:href="#m057423f84c" y="474.727575"/>
      </g>
     </g>
     <g id="text_8">
      <!-- 0 -->
      <g transform="translate(76.6375 478.526794)scale(0.1 -0.1)">
       <use xlink:href="#DejaVuSans-48"/>
      </g>
     </g>
    </g>
    <g id="ytick_2">
     <g id="line2d_9">
      <g>
       <use style="stroke:#000000;stroke-width:0.8;" x="90" xlink:href="#m057423f84c" y="401.833563"/>
      </g>
     </g>
     <g id="text_9">
      <!-- 20 -->
      <g transform="translate(70.275 405.632782)scale(0.1 -0.1)">
       <use xlink:href="#DejaVuSans-50"/>
       <use x="63.623047" xlink:href="#DejaVuSans-48"/>
      </g>
     </g>
    </g>
    <g id="ytick_3">
     <g id="line2d_10">
      <g>
       <use style="stroke:#000000;stroke-width:0.8;" x="90" xlink:href="#m057423f84c" y="328.939551"/>
      </g>
     </g>
     <g id="text_10">
      <!-- 40 -->
      <g transform="translate(70.275 332.73877)scale(0.1 -0.1)">
       <use xlink:href="#DejaVuSans-52"/>
       <use x="63.623047" xlink:href="#DejaVuSans-48"/>
      </g>
     </g>
    </g>
    <g id="ytick_4">
     <g id="line2d_11">
      <g>
       <use style="stroke:#000000;stroke-width:0.8;" x="90" xlink:href="#m057423f84c" y="256.045539"/>
      </g>
     </g>
     <g id="text_11">
      <!-- 60 -->
      <g transform="translate(70.275 259.844758)scale(0.1 -0.1)">
       <use xlink:href="#DejaVuSans-54"/>
       <use x="63.623047" xlink:href="#DejaVuSans-48"/>
      </g>
     </g>
    </g>
    <g id="ytick_5">
     <g id="line2d_12">
      <g>
       <use style="stroke:#000000;stroke-width:0.8;" x="90" xlink:href="#m057423f84c" y="183.151527"/>
      </g>
     </g>
     <g id="text_12">
      <!-- 80 -->
      <g transform="translate(70.275 186.950746)scale(0.1 -0.1)">
       <use xlink:href="#DejaVuSans-56"/>
       <use x="63.623047" xlink:href="#DejaVuSans-48"/>
      </g>
     </g>
    </g>
    <g id="ytick_6">
     <g id="line2d_13">
      <g>
       <use style="stroke:#000000;stroke-width:0.8;" x="90" xlink:href="#m057423f84c" y="110.257515"/>
      </g>
     </g>
     <g id="text_13">
      <!-- 100 -->
      <g transform="translate(63.9125 114.056734)scale(0.1 -0.1)">
       <use xlink:href="#DejaVuSans-49"/>
       <use x="63.623047" xlink:href="#DejaVuSans-48"/>
       <use x="127.246094" xlink:href="#DejaVuSans-48"/>
      </g>
     </g>
    </g>
   </g>
   <g id="line2d_14">
    <path clip-path="url(#p9b1cf90a11)" d="M 470.432784 463.793469 
L 472.599619 456.833622 
" style="fill:none;stroke:#0000ff;stroke-linecap:square;stroke-width:1.5;"/>
   </g>
   <g id="line2d_15">
    <defs>
     <path d="M 0 3 
C 0.795609 3 1.55874 2.683901 2.12132 2.12132 
C 2.683901 1.55874 3 0.795609 3 0 
C 3 -0.795609 2.683901 -1.55874 2.12132 -2.12132 
C 1.55874 -2.683901 0.795609 -3 0 -3 
C -0.795609 -3 -1.55874 -2.683901 -2.12132 -2.12132 
C -2.683901 -1.55874 -3 -0.795609 -3 0 
C -3 0.795609 -2.683901 1.55874 -2.12132 2.12132 
C -1.55874 2.683901 -0.795609 3 0 3 
z
" id="m926c0583c6" style="stroke:#0000ff;"/>
    </defs>
    <g clip-path="url(#p9b1cf90a11)">
     <use style="fill:#0000ff;stroke:#0000ff;" x="470.432784" xlink:href="#m926c0583c6" y="463.793469"/>
    </g>
   </g>
   <g id="line2d_16">
    <path clip-path="url(#p9b1cf90a11)" d="M 622.636364 119.045083 
L 622.388901 126.330291 
" style="fill:none;stroke:#008000;stroke-linecap:square;stroke-width:1.5;"/>
   </g>
   <g id="line2d_17">
    <defs>
     <path d="M 0 3 
C 0.795609 3 1.55874 2.683901 2.12132 2.12132 
C 2.683901 1.55874 3 0.795609 3 0 
C 3 -0.795609 2.683901 -1.55874 2.12132 -2.12132 
C 1.55874 -2.683901 0.795609 -3 0 -3 
C -0.795609 -3 -1.55874 -2.683901 -2.12132 -2.12132 
C -2.683901 -1.55874 -3 -0.795609 -3 0 
C -3 0.795609 -2.683901 1.55874 -2.12132 2.12132 
C -1.55874 2.683901 -0.795609 3 0 3 
z
" id="mcfa119871d" style="stroke:#008000;"/>
    </defs>
    <g clip-path="url(#p9b1cf90a11)">
     <use style="fill:#008000;stroke:#008000;" x="622.636364" xlink:href="#mcfa119871d" y="119.045083"/>
    </g>
   </g>
   <g id="line2d_18">
    <path clip-path="url(#p9b1cf90a11)" d="M 520.289223 354.45757 
L 520.618368 347.175669 
" style="fill:none;stroke:#ff0000;stroke-linecap:square;stroke-width:1.5;"/>
   </g>
   <g id="line2d_19">
    <defs>
     <path d="M 0 3 
C 0.795609 3 1.55874 2.683901 2.12132 2.12132 
C 2.683901 1.55874 3 0.795609 3 0 
C 3 -0.795609 2.683901 -1.55874 2.12132 -2.12132 
C 1.55874 -2.683901 0.795609 -3 0 -3 
C -0.795609 -3 -1.55874 -2.683901 -2.12132 -2.12132 
C -2.683901 -1.55874 -3 -0.795609 -3 0 
C -3 0.795609 -2.683901 1.55874 -2.12132 2.12132 
C -1.55874 2.683901 -0.795609 3 0 3 
z
" id="mddb409b778" style="stroke:#ff0000;"/>
    </defs>
    <g clip-path="url(#p9b1cf90a11)">
     <use style="fill:#ff0000;stroke:#ff0000;" x="520.289223" xlink:href="#mddb409b778" y="354.45757"/>
    </g>
   </g>
   <g id="line2d_20">
    <path clip-path="url(#p9b1cf90a11)" d="M 523.869354 199.624151 
L 524.411083 206.892666 
" style="fill:none;stroke:#00bfbf;stroke-linecap:square;stroke-width:1.5;"/>
   </g>
   <g id="line2d_21">
    <defs>
     <path d="M 0 3 
C 0.795609 3 1.55874 2.683901 2.12132 2.12132 
C 2.683901 1.55874 3 0.795609 3 0 
C 3 -0.795609 2.683901 -1.55874 2.12132 -2.12132 
C 1.55874 -2.683901 0.795609 -3 0 -3 
C -0.795609 -3 -1.55874 -2.683901 -2.12132 -2.12132 
C -2.683901 -1.55874 -3 -0.795609 -3 0 
C -3 0.795609 -2.683901 1.55874 -2.12132 2.12132 
C -1.55874 2.683901 -0.795609 3 0 3 
z
" id="me5a5ab37ab" style="stroke:#00bfbf;"/>
    </defs>
    <g clip-path="url(#p9b1cf90a11)">
     <use style="fill:#00bfbf;stroke:#00bfbf;" x="523.869354" xlink:href="#me5a5ab37ab" y="199.624151"/>
    </g>
   </g>
   <g id="line2d_22">
    <path clip-path="url(#p9b1cf90a11)" d="M 622.636364 119.045083 
L 613.266765 118.726813 
L 584.233398 117.966531 
L 536.655306 118.063156 
L 481.449985 120.125853 
L 430.594921 124.076893 
L 384.746744 129.779277 
L 344.115362 136.587035 
L 308.684968 144.412477 
L 278.123161 152.866643 
L 251.809301 161.402799 
L 229.251858 170.116408 
L 209.934367 178.947911 
L 193.210312 187.543097 
L 178.795374 196.118686 
L 166.25796 204.543197 
L 155.514523 213.049972 
L 146.134074 221.362758 
L 138.240934 229.760473 
L 131.479057 238.046771 
L 125.993782 246.404615 
L 121.731743 254.809162 
L 118.539331 263.273909 
L 116.3383 271.972138 
L 115.363636 281.072557 
L 116.019133 290.546777 
L 118.743444 300.091457 
L 123.54579 309.442608 
L 130.666589 318.150748 
L 139.591597 326.437049 
L 150.331718 334.461171 
L 162.79576 342.693504 
L 177.303696 351.316232 
L 194.359456 360.405475 
L 214.599844 370.248944 
L 238.870018 381.1739 
L 268.292851 393.529152 
L 304.154276 407.382864 
L 347.246996 423.30345 
L 398.165702 440.733418 
L 440.14363 454.312459 
L 465.099915 462.133168 
L 470.432784 463.793469 
" style="fill:none;stroke:#bf00bf;stroke-linecap:square;stroke-width:1.5;"/>
   </g>
   <g id="line2d_23">
    <defs>
     <path d="M 0 3 
C 0.795609 3 1.55874 2.683901 2.12132 2.12132 
C 2.683901 1.55874 3 0.795609 3 0 
C 3 -0.795609 2.683901 -1.55874 2.12132 -2.12132 
C 1.55874 -2.683901 0.795609 -3 0 -3 
C -0.795609 -3 -1.55874 -2.683901 -2.12132 -2.12132 
C -2.683901 -1.55874 -3 -0.795609 -3 0 
C -3 0.795609 -2.683901 1.55874 -2.12132 2.12132 
C -1.55874 2.683901 -0.795609 3 0 3 
z
" id="m301268bc90" style="stroke:#bf00bf;"/>
    </defs>
    <g clip-path="url(#p9b1cf90a11)">
     <use style="fill:#bf00bf;stroke:#bf00bf;" x="622.636364" xlink:href="#m301268bc90" y="119.045083"/>
    </g>
   </g>
   <g id="line2d_24">
    <path clip-path="url(#p9b1cf90a11)" d="M 622.388901 126.330291 
L 612.7523 126.002956 
L 603.116705 125.753112 
L 572.944842 125.25589 
L 552.395476 125.328453 
L 509.022258 126.30866 
L 486.210282 127.313185 
L 446.423302 130.171158 
L 429.428001 131.759107 
L 399.795493 135.285872 
L 387.130251 137.026861 
L 361.902738 140.995643 
L 349.346572 143.234513 
L 324.012593 148.454433 
L 311.245192 151.45597 
L 289.873792 157.192748 
L 281.204325 159.711353 
L 264.011963 165.102606 
L 255.497268 167.985527 
L 240.153622 173.721079 
L 233.29751 176.491279 
L 221.403765 181.725175 
L 216.320254 184.097127 
L 206.254659 189.038046 
L 201.292974 191.601911 
L 191.456335 197.062181 
L 186.562611 199.978733 
L 178.39464 205.190342 
L 175.09042 207.402812 
L 168.822479 211.894744 
L 165.841478 214.17993 
L 160.6494 218.390335 
L 158.415575 220.272346 
L 154.096721 224.08956 
L 152.014436 226.028423 
L 147.994663 230.045291 
L 146.043802 232.129528 
L 142.122311 236.571542 
L 140.179833 238.909089 
L 136.569354 243.673797 
L 134.892613 246.117243 
L 131.822505 251.152291 
L 130.432077 253.742433 
L 127.955894 259.062207 
L 126.871806 261.786785 
L 123.984591 270.551553 
L 122.83643 276.686288 
L 122.94902 284.678566 
L 123.116803 286.683115 
L 123.860408 291.317231 
L 124.574759 293.962188 
L 126.513197 299.12683 
L 127.729696 301.626168 
L 129.997807 305.349412 
L 130.909628 306.672585 
L 132.90212 309.285894 
L 133.97725 310.568638 
L 136.937545 313.849824 
L 138.902822 315.801042 
L 143.022701 319.547691 
L 145.182992 321.347745 
L 150.007748 325.114016 
L 152.704088 327.069101 
L 158.207939 330.897855 
L 161.00679 332.760167 
L 169.51947 338.220753 
L 175.333299 341.691031 
L 187.150744 348.325291 
L 193.167841 351.497626 
L 205.339888 357.644808 
L 211.492981 360.61609 
L 228.137707 368.400716 
L 238.706329 373.079984 
L 259.977792 382.141272 
L 270.681311 386.503407 
L 292.231812 394.972332 
L 303.078352 399.098003 
L 324.80879 407.232535 
L 335.696833 411.225952 
L 368.44732 422.926977 
L 390.433741 430.370757 
L 432.47147 444.187259 
L 452.512028 450.579979 
L 472.599619 456.833622 
" style="fill:none;stroke:#bfbf00;stroke-linecap:square;stroke-width:1.5;"/>
   </g>
   <g id="line2d_25">
    <defs>
     <path d="M 0 3 
C 0.795609 3 1.55874 2.683901 2.12132 2.12132 
C 2.683901 1.55874 3 0.795609 3 0 
C 3 -0.795609 2.683901 -1.55874 2.12132 -2.12132 
C 1.55874 -2.683901 0.795609 -3 0 -3 
C -0.795609 -3 -1.55874 -2.683901 -2.12132 -2.12132 
C -2.683901 -1.55874 -3 -0.795609 -3 0 
C -3 0.795609 -2.683901 1.55874 -2.12132 2.12132 
C -1.55874 2.683901 -0.795609 3 0 3 
z
" id="m7e460da943" style="stroke:#bfbf00;"/>
    </defs>
    <g clip-path="url(#p9b1cf90a11)">
     <use style="fill:#bfbf00;stroke:#bfbf00;" x="622.388901" xlink:href="#m7e460da943" y="126.330291"/>
    </g>
   </g>
   <g id="line2d_26">
    <path clip-path="url(#p9b1cf90a11)" d="M 523.869354 199.624151 
L 521.262926 199.818786 
L 509.149375 200.756982 
L 487.91821 202.677498 
L 460.684515 205.756618 
L 434.923281 209.317804 
L 410.928511 213.276773 
L 388.944161 217.485231 
L 369.132377 221.844188 
L 351.547199 226.275726 
L 336.064754 230.578084 
L 322.545966 234.859243 
L 310.711343 238.96456 
L 300.34681 242.94177 
L 291.244144 246.816033 
L 283.192163 250.534588 
L 276.068888 254.183014 
L 269.722989 257.73073 
L 264.063538 261.222583 
L 259.009506 264.679152 
L 254.48335 268.085699 
L 250.442091 271.466613 
L 246.84878 274.83212 
L 243.652026 278.184791 
L 241.080006 281.723118 
L 238.91063 285.254335 
L 237.56258 289.0759 
L 237.576691 292.976478 
L 237.743696 297.002808 
L 240.142608 300.415293 
L 242.777436 303.69118 
L 246.072943 306.7139 
L 249.84618 309.555181 
L 254.171044 312.156702 
L 258.932822 314.741525 
L 264.199507 317.289004 
L 270.005871 319.865025 
L 276.437255 322.468513 
L 283.634343 324.992335 
L 291.680277 327.545034 
L 300.757814 330.032732 
L 311.017568 332.555611 
L 322.698212 335.054312 
L 336.082527 337.604304 
L 351.522404 340.184979 
L 369.384043 342.700838 
L 389.929899 345.195546 
L 413.290254 347.54321 
L 439.366565 349.71984 
L 467.84858 351.734868 
L 495.09881 353.269711 
L 512.798759 354.118998 
L 520.289223 354.45757 
" style="fill:none;stroke:#000000;stroke-linecap:square;stroke-width:1.5;"/>
   </g>
   <g id="line2d_27">
    <defs>
     <path d="M 0 3 
C 0.795609 3 1.55874 2.683901 2.12132 2.12132 
C 2.683901 1.55874 3 0.795609 3 0 
C 3 -0.795609 2.683901 -1.55874 2.12132 -2.12132 
C 1.55874 -2.683901 0.795609 -3 0 -3 
C -0.795609 -3 -1.55874 -2.683901 -2.12132 -2.12132 
C -2.683901 -1.55874 -3 -0.795609 -3 0 
C -3 0.795609 -2.683901 1.55874 -2.12132 2.12132 
C -1.55874 2.683901 -0.795609 3 0 3 
z
" id="mf2815f081d" style="stroke:#000000;"/>
    </defs>
    <g clip-path="url(#p9b1cf90a11)">
     <use style="stroke:#000000;" x="523.869354" xlink:href="#mf2815f081d" y="199.624151"/>
    </g>
   </g>
   <g id="line2d_28">
    <path clip-path="url(#p9b1cf90a11)" d="M 524.411083 206.892666 
L 506.669206 208.214984 
L 488.955709 209.868583 
L 450.854769 214.308989 
L 430.489169 217.256807 
L 398.147471 223.087221 
L 386.089155 225.513062 
L 367.396509 229.813755 
L 360.690845 231.473906 
L 348.883328 234.587757 
L 343.789091 235.990863 
L 333.696997 238.970487 
L 328.677704 240.557194 
L 318.682252 243.898578 
L 313.729188 245.647562 
L 304.894127 249.010119 
L 300.996418 250.585813 
L 294.126764 253.543441 
L 291.141326 254.883074 
L 285.285672 257.661871 
L 282.405823 259.112637 
L 276.706301 262.160853 
L 273.912318 263.742818 
L 268.475344 267.066064 
L 265.834008 268.808679 
L 260.698214 272.49388 
L 258.230036 274.415756 
L 254.613592 277.555812 
L 253.368993 278.704039 
L 251.390282 280.653023 
L 250.65763 281.405465 
L 249.534012 282.659871 
L 249.111312 283.165407 
L 248.264001 284.258049 
L 247.845768 284.83608 
L 247.142673 285.863846 
L 246.855403 286.298458 
L 246.351898 287.100475 
L 246.128201 287.479876 
L 245.544608 288.557979 
L 245.267615 289.215543 
L 245.056785 289.926173 
L 245.01734 290.087208 
L 244.964624 290.353801 
L 244.947549 290.464386 
L 244.91439 290.760621 
L 244.900683 290.934577 
L 244.87259 291.537038 
L 244.872945 292.046224 
L 244.889877 292.862552 
L 244.894905 293.073614 
L 244.906571 293.441618 
L 244.913524 293.607606 
L 244.938548 294.04806 
L 244.96189 294.264572 
L 244.992279 294.46089 
L 245.001402 294.504757 
L 245.006474 294.526597 
" style="fill:none;stroke:#0000ff;stroke-dasharray:5.55,2.4;stroke-dashoffset:0;stroke-width:1.5;"/>
   </g>
   <g id="line2d_29">
    <g clip-path="url(#p9b1cf90a11)">
     <use style="fill:#0000ff;stroke:#0000ff;" x="524.411083" xlink:href="#m926c0583c6" y="206.892666"/>
    </g>
   </g>
   <g id="line2d_30">
    <path clip-path="url(#p9b1cf90a11)" d="M 245.006474 294.526597 
L 245.035278 294.591047 
L 245.177751 294.858725 
L 245.585989 295.443196 
L 245.734921 295.647112 
L 246.120027 296.162101 
L 246.341688 296.45261 
L 246.7687 296.997867 
L 246.979378 297.259653 
L 247.514468 297.903276 
L 247.835269 298.268831 
L 248.774252 299.271064 
L 249.473492 299.932588 
L 250.824752 301.099226 
L 251.445577 301.602739 
L 252.699116 302.559397 
L 253.337262 303.016986 
L 254.648031 303.898623 
L 255.337009 304.333885 
L 257.069244 305.380229 
L 258.151527 305.99845 
L 260.314221 307.192415 
L 261.404227 307.770699 
L 264.607173 309.403277 
L 266.778913 310.430421 
L 271.172193 312.410448 
L 273.397868 313.363174 
L 277.850695 315.163184 
L 280.074757 316.001631 
L 284.624985 317.607488 
L 286.945109 318.38094 
L 291.578715 319.854353 
L 293.895665 320.550183 
L 298.580688 321.876813 
L 300.948992 322.510523 
L 305.708277 323.735958 
L 308.09356 324.324722 
L 315.265348 326.017677 
L 320.084183 327.048001 
L 329.786459 328.992896 
L 334.655485 329.902663 
L 347.54142 332.157276 
L 355.570247 333.395271 
L 371.716695 335.628311 
L 379.822471 336.640172 
L 396.045673 338.480238 
L 404.174309 339.305498 
L 424.914814 341.23352 
L 437.546167 342.246793 
L 462.822497 344.071439 
L 475.465368 344.862558 
L 498.948767 346.153426 
L 509.780955 346.686045 
L 520.618368 347.175669 
" style="fill:none;stroke:#008000;stroke-dasharray:5.55,2.4;stroke-dashoffset:0;stroke-width:1.5;"/>
   </g>
   <g id="line2d_31">
    <g clip-path="url(#p9b1cf90a11)">
     <use style="fill:#008000;stroke:#008000;" x="245.006474" xlink:href="#mcfa119871d" y="294.526597"/>
    </g>
   </g>
   <g id="patch_3">
    <path d="M 90 512.64 
L 90 69.12 
" style="fill:none;stroke:#000000;stroke-linecap:square;stroke-linejoin:miter;stroke-width:0.8;"/>
   </g>
   <g id="patch_4">
    <path d="M 648 512.64 
L 648 69.12 
" style="fill:none;stroke:#000000;stroke-linecap:square;stroke-linejoin:miter;stroke-width:0.8;"/>
   </g>
   <g id="patch_5">
    <path d="M 90 512.64 
L 648 512.64 
" style="fill:none;stroke:#000000;stroke-linecap:square;stroke-linejoin:miter;stroke-width:0.8;"/>
   </g>
   <g id="patch_6">
    <path d="M 90 69.12 
L 648 69.12 
" style="fill:none;stroke:#000000;stroke-linecap:square;stroke-linejoin:miter;stroke-width:0.8;"/>
   </g>
   <g id="text_14">
    <!-- Example of 5.2.1 (Before sort) -->
    <g transform="translate(278.378438 63.12)scale(0.12 -0.12)">
     <defs>
      <path d="M 9.8125 72.90625 
L 55.90625 72.90625 
L 55.90625 64.59375 
L 19.671875 64.59375 
L 19.671875 43.015625 
L 54.390625 43.015625 
L 54.390625 34.71875 
L 19.671875 34.71875 
L 19.671875 8.296875 
L 56.78125 8.296875 
L 56.78125 0 
L 9.8125 0 
z
" id="DejaVuSans-69"/>
      <path d="M 54.890625 54.6875 
L 35.109375 28.078125 
L 55.90625 0 
L 45.3125 0 
L 29.390625 21.484375 
L 13.484375 0 
L 2.875 0 
L 24.125 28.609375 
L 4.6875 54.6875 
L 15.28125 54.6875 
L 29.78125 35.203125 
L 44.28125 54.6875 
z
" id="DejaVuSans-120"/>
      <path d="M 34.28125 27.484375 
Q 23.390625 27.484375 19.1875 25 
Q 14.984375 22.515625 14.984375 16.5 
Q 14.984375 11.71875 18.140625 8.90625 
Q 21.296875 6.109375 26.703125 6.109375 
Q 34.1875 6.109375 38.703125 11.40625 
Q 43.21875 16.703125 43.21875 25.484375 
L 43.21875 27.484375 
z
M 52.203125 31.203125 
L 52.203125 0 
L 43.21875 0 
L 43.21875 8.296875 
Q 40.140625 3.328125 35.546875 0.953125 
Q 30.953125 -1.421875 24.3125 -1.421875 
Q 15.921875 -1.421875 10.953125 3.296875 
Q 6 8.015625 6 15.921875 
Q 6 25.140625 12.171875 29.828125 
Q 18.359375 34.515625 30.609375 34.515625 
L 43.21875 34.515625 
L 43.21875 35.40625 
Q 43.21875 41.609375 39.140625 45 
Q 35.0625 48.390625 27.6875 48.390625 
Q 23 48.390625 18.546875 47.265625 
Q 14.109375 46.140625 10.015625 43.890625 
L 10.015625 52.203125 
Q 14.9375 54.109375 19.578125 55.046875 
Q 24.21875 56 28.609375 56 
Q 40.484375 56 46.34375 49.84375 
Q 52.203125 43.703125 52.203125 31.203125 
z
" id="DejaVuSans-97"/>
      <path d="M 52 44.1875 
Q 55.375 50.25 60.0625 53.125 
Q 64.75 56 71.09375 56 
Q 79.640625 56 84.28125 50.015625 
Q 88.921875 44.046875 88.921875 33.015625 
L 88.921875 0 
L 79.890625 0 
L 79.890625 32.71875 
Q 79.890625 40.578125 77.09375 44.375 
Q 74.3125 48.1875 68.609375 48.1875 
Q 61.625 48.1875 57.5625 43.546875 
Q 53.515625 38.921875 53.515625 30.90625 
L 53.515625 0 
L 44.484375 0 
L 44.484375 32.71875 
Q 44.484375 40.625 41.703125 44.40625 
Q 38.921875 48.1875 33.109375 48.1875 
Q 26.21875 48.1875 22.15625 43.53125 
Q 18.109375 38.875 18.109375 30.90625 
L 18.109375 0 
L 9.078125 0 
L 9.078125 54.6875 
L 18.109375 54.6875 
L 18.109375 46.1875 
Q 21.1875 51.21875 25.484375 53.609375 
Q 29.78125 56 35.6875 56 
Q 41.65625 56 45.828125 52.96875 
Q 50 49.953125 52 44.1875 
z
" id="DejaVuSans-109"/>
      <path d="M 18.109375 8.203125 
L 18.109375 -20.796875 
L 9.078125 -20.796875 
L 9.078125 54.6875 
L 18.109375 54.6875 
L 18.109375 46.390625 
Q 20.953125 51.265625 25.265625 53.625 
Q 29.59375 56 35.59375 56 
Q 45.5625 56 51.78125 48.09375 
Q 58.015625 40.1875 58.015625 27.296875 
Q 58.015625 14.40625 51.78125 6.484375 
Q 45.5625 -1.421875 35.59375 -1.421875 
Q 29.59375 -1.421875 25.265625 0.953125 
Q 20.953125 3.328125 18.109375 8.203125 
z
M 48.6875 27.296875 
Q 48.6875 37.203125 44.609375 42.84375 
Q 40.53125 48.484375 33.40625 48.484375 
Q 26.265625 48.484375 22.1875 42.84375 
Q 18.109375 37.203125 18.109375 27.296875 
Q 18.109375 17.390625 22.1875 11.75 
Q 26.265625 6.109375 33.40625 6.109375 
Q 40.53125 6.109375 44.609375 11.75 
Q 48.6875 17.390625 48.6875 27.296875 
z
" id="DejaVuSans-112"/>
      <path d="M 9.421875 75.984375 
L 18.40625 75.984375 
L 18.40625 0 
L 9.421875 0 
z
" id="DejaVuSans-108"/>
      <path d="M 56.203125 29.59375 
L 56.203125 25.203125 
L 14.890625 25.203125 
Q 15.484375 15.921875 20.484375 11.0625 
Q 25.484375 6.203125 34.421875 6.203125 
Q 39.59375 6.203125 44.453125 7.46875 
Q 49.3125 8.734375 54.109375 11.28125 
L 54.109375 2.78125 
Q 49.265625 0.734375 44.1875 -0.34375 
Q 39.109375 -1.421875 33.890625 -1.421875 
Q 20.796875 -1.421875 13.15625 6.1875 
Q 5.515625 13.8125 5.515625 26.8125 
Q 5.515625 40.234375 12.765625 48.109375 
Q 20.015625 56 32.328125 56 
Q 43.359375 56 49.78125 48.890625 
Q 56.203125 41.796875 56.203125 29.59375 
z
M 47.21875 32.234375 
Q 47.125 39.59375 43.09375 43.984375 
Q 39.0625 48.390625 32.421875 48.390625 
Q 24.90625 48.390625 20.390625 44.140625 
Q 15.875 39.890625 15.1875 32.171875 
z
" id="DejaVuSans-101"/>
      <path id="DejaVuSans-32"/>
      <path d="M 30.609375 48.390625 
Q 23.390625 48.390625 19.1875 42.75 
Q 14.984375 37.109375 14.984375 27.296875 
Q 14.984375 17.484375 19.15625 11.84375 
Q 23.34375 6.203125 30.609375 6.203125 
Q 37.796875 6.203125 41.984375 11.859375 
Q 46.1875 17.53125 46.1875 27.296875 
Q 46.1875 37.015625 41.984375 42.703125 
Q 37.796875 48.390625 30.609375 48.390625 
z
M 30.609375 56 
Q 42.328125 56 49.015625 48.375 
Q 55.71875 40.765625 55.71875 27.296875 
Q 55.71875 13.875 49.015625 6.21875 
Q 42.328125 -1.421875 30.609375 -1.421875 
Q 18.84375 -1.421875 12.171875 6.21875 
Q 5.515625 13.875 5.515625 27.296875 
Q 5.515625 40.765625 12.171875 48.375 
Q 18.84375 56 30.609375 56 
z
" id="DejaVuSans-111"/>
      <path d="M 37.109375 75.984375 
L 37.109375 68.5 
L 28.515625 68.5 
Q 23.6875 68.5 21.796875 66.546875 
Q 19.921875 64.59375 19.921875 59.515625 
L 19.921875 54.6875 
L 34.71875 54.6875 
L 34.71875 47.703125 
L 19.921875 47.703125 
L 19.921875 0 
L 10.890625 0 
L 10.890625 47.703125 
L 2.296875 47.703125 
L 2.296875 54.6875 
L 10.890625 54.6875 
L 10.890625 58.5 
Q 10.890625 67.625 15.140625 71.796875 
Q 19.390625 75.984375 28.609375 75.984375 
z
" id="DejaVuSans-102"/>
      <path d="M 10.796875 72.90625 
L 49.515625 72.90625 
L 49.515625 64.59375 
L 19.828125 64.59375 
L 19.828125 46.734375 
Q 21.96875 47.46875 24.109375 47.828125 
Q 26.265625 48.1875 28.421875 48.1875 
Q 40.625 48.1875 47.75 41.5 
Q 54.890625 34.8125 54.890625 23.390625 
Q 54.890625 11.625 47.5625 5.09375 
Q 40.234375 -1.421875 26.90625 -1.421875 
Q 22.3125 -1.421875 17.546875 -0.640625 
Q 12.796875 0.140625 7.71875 1.703125 
L 7.71875 11.625 
Q 12.109375 9.234375 16.796875 8.0625 
Q 21.484375 6.890625 26.703125 6.890625 
Q 35.15625 6.890625 40.078125 11.328125 
Q 45.015625 15.765625 45.015625 23.390625 
Q 45.015625 31 40.078125 35.4375 
Q 35.15625 39.890625 26.703125 39.890625 
Q 22.75 39.890625 18.8125 39.015625 
Q 14.890625 38.140625 10.796875 36.28125 
z
" id="DejaVuSans-53"/>
      <path d="M 10.6875 12.40625 
L 21 12.40625 
L 21 0 
L 10.6875 0 
z
" id="DejaVuSans-46"/>
      <path d="M 31 75.875 
Q 24.46875 64.65625 21.28125 53.65625 
Q 18.109375 42.671875 18.109375 31.390625 
Q 18.109375 20.125 21.3125 9.0625 
Q 24.515625 -2 31 -13.1875 
L 23.1875 -13.1875 
Q 15.875 -1.703125 12.234375 9.375 
Q 8.59375 20.453125 8.59375 31.390625 
Q 8.59375 42.28125 12.203125 53.3125 
Q 15.828125 64.359375 23.1875 75.875 
z
" id="DejaVuSans-40"/>
      <path d="M 19.671875 34.8125 
L 19.671875 8.109375 
L 35.5 8.109375 
Q 43.453125 8.109375 47.28125 11.40625 
Q 51.125 14.703125 51.125 21.484375 
Q 51.125 28.328125 47.28125 31.5625 
Q 43.453125 34.8125 35.5 34.8125 
z
M 19.671875 64.796875 
L 19.671875 42.828125 
L 34.28125 42.828125 
Q 41.5 42.828125 45.03125 45.53125 
Q 48.578125 48.25 48.578125 53.8125 
Q 48.578125 59.328125 45.03125 62.0625 
Q 41.5 64.796875 34.28125 64.796875 
z
M 9.8125 72.90625 
L 35.015625 72.90625 
Q 46.296875 72.90625 52.390625 68.21875 
Q 58.5 63.53125 58.5 54.890625 
Q 58.5 48.1875 55.375 44.234375 
Q 52.25 40.28125 46.1875 39.3125 
Q 53.46875 37.75 57.5 32.78125 
Q 61.53125 27.828125 61.53125 20.40625 
Q 61.53125 10.640625 54.890625 5.3125 
Q 48.25 0 35.984375 0 
L 9.8125 0 
z
" id="DejaVuSans-66"/>
      <path d="M 41.109375 46.296875 
Q 39.59375 47.171875 37.8125 47.578125 
Q 36.03125 48 33.890625 48 
Q 26.265625 48 22.1875 43.046875 
Q 18.109375 38.09375 18.109375 28.8125 
L 18.109375 0 
L 9.078125 0 
L 9.078125 54.6875 
L 18.109375 54.6875 
L 18.109375 46.1875 
Q 20.953125 51.171875 25.484375 53.578125 
Q 30.03125 56 36.53125 56 
Q 37.453125 56 38.578125 55.875 
Q 39.703125 55.765625 41.0625 55.515625 
z
" id="DejaVuSans-114"/>
      <path d="M 44.28125 53.078125 
L 44.28125 44.578125 
Q 40.484375 46.53125 36.375 47.5 
Q 32.28125 48.484375 27.875 48.484375 
Q 21.1875 48.484375 17.84375 46.4375 
Q 14.5 44.390625 14.5 40.28125 
Q 14.5 37.15625 16.890625 35.375 
Q 19.28125 33.59375 26.515625 31.984375 
L 29.59375 31.296875 
Q 39.15625 29.25 43.1875 25.515625 
Q 47.21875 21.78125 47.21875 15.09375 
Q 47.21875 7.46875 41.1875 3.015625 
Q 35.15625 -1.421875 24.609375 -1.421875 
Q 20.21875 -1.421875 15.453125 -0.5625 
Q 10.6875 0.296875 5.421875 2 
L 5.421875 11.28125 
Q 10.40625 8.6875 15.234375 7.390625 
Q 20.0625 6.109375 24.8125 6.109375 
Q 31.15625 6.109375 34.5625 8.28125 
Q 37.984375 10.453125 37.984375 14.40625 
Q 37.984375 18.0625 35.515625 20.015625 
Q 33.0625 21.96875 24.703125 23.78125 
L 21.578125 24.515625 
Q 13.234375 26.265625 9.515625 29.90625 
Q 5.8125 33.546875 5.8125 39.890625 
Q 5.8125 47.609375 11.28125 51.796875 
Q 16.75 56 26.8125 56 
Q 31.78125 56 36.171875 55.265625 
Q 40.578125 54.546875 44.28125 53.078125 
z
" id="DejaVuSans-115"/>
      <path d="M 18.3125 70.21875 
L 18.3125 54.6875 
L 36.8125 54.6875 
L 36.8125 47.703125 
L 18.3125 47.703125 
L 18.3125 18.015625 
Q 18.3125 11.328125 20.140625 9.421875 
Q 21.96875 7.515625 27.59375 7.515625 
L 36.8125 7.515625 
L 36.8125 0 
L 27.59375 0 
Q 17.1875 0 13.234375 3.875 
Q 9.28125 7.765625 9.28125 18.015625 
L 9.28125 47.703125 
L 2.6875 47.703125 
L 2.6875 54.6875 
L 9.28125 54.6875 
L 9.28125 70.21875 
z
" id="DejaVuSans-116"/>
      <path d="M 8.015625 75.875 
L 15.828125 75.875 
Q 23.140625 64.359375 26.78125 53.3125 
Q 30.421875 42.28125 30.421875 31.390625 
Q 30.421875 20.453125 26.78125 9.375 
Q 23.140625 -1.703125 15.828125 -13.1875 
L 8.015625 -13.1875 
Q 14.5 -2 17.703125 9.0625 
Q 20.90625 20.125 20.90625 31.390625 
Q 20.90625 42.671875 17.703125 53.65625 
Q 14.5 64.65625 8.015625 75.875 
z
" id="DejaVuSans-41"/>
     </defs>
     <use xlink:href="#DejaVuSans-69"/>
     <use x="63.183594" xlink:href="#DejaVuSans-120"/>
     <use x="122.363281" xlink:href="#DejaVuSans-97"/>
     <use x="183.642578" xlink:href="#DejaVuSans-109"/>
     <use x="281.054688" xlink:href="#DejaVuSans-112"/>
     <use x="344.53125" xlink:href="#DejaVuSans-108"/>
     <use x="372.314453" xlink:href="#DejaVuSans-101"/>
     <use x="433.837891" xlink:href="#DejaVuSans-32"/>
     <use x="465.625" xlink:href="#DejaVuSans-111"/>
     <use x="526.806641" xlink:href="#DejaVuSans-102"/>
     <use x="562.011719" xlink:href="#DejaVuSans-32"/>
     <use x="593.798828" xlink:href="#DejaVuSans-53"/>
     <use x="657.421875" xlink:href="#DejaVuSans-46"/>
     <use x="689.208984" xlink:href="#DejaVuSans-50"/>
     <use x="752.832031" xlink:href="#DejaVuSans-46"/>
     <use x="784.619141" xlink:href="#DejaVuSans-49"/>
     <use x="848.242188" xlink:href="#DejaVuSans-32"/>
     <use x="880.029297" xlink:href="#DejaVuSans-40"/>
     <use x="919.042969" xlink:href="#DejaVuSans-66"/>
     <use x="987.646484" xlink:href="#DejaVuSans-101"/>
     <use x="1049.169922" xlink:href="#DejaVuSans-102"/>
     <use x="1084.375" xlink:href="#DejaVuSans-111"/>
     <use x="1145.556641" xlink:href="#DejaVuSans-114"/>
     <use x="1184.419922" xlink:href="#DejaVuSans-101"/>
     <use x="1245.943359" xlink:href="#DejaVuSans-32"/>
     <use x="1277.730469" xlink:href="#DejaVuSans-115"/>
     <use x="1329.830078" xlink:href="#DejaVuSans-111"/>
     <use x="1391.011719" xlink:href="#DejaVuSans-114"/>
     <use x="1432.125" xlink:href="#DejaVuSans-116"/>
     <use x="1471.333984" xlink:href="#DejaVuSans-41"/>
    </g>
   </g>
  </g>
 </g>
 <defs>
  <clipPath id="p9b1cf90a11">
   <rect height="443.52" width="558" x="90" y="69.12"/>
  </clipPath>
 </defs>
</svg>
