<?xml version="1.0" encoding="utf-8" standalone="no"?>
<!DOCTYPE svg PUBLIC "-//W3C//DTD SVG 1.1//EN"
  "http://www.w3.org/Graphics/SVG/1.1/DTD/svg11.dtd">
<!-- Created with matplotlib (https://matplotlib.org/) -->
<svg height="576pt" version="1.1" viewBox="0 0 720 576" width="720pt" xmlns="http://www.w3.org/2000/svg" xmlns:xlink="http://www.w3.org/1999/xlink">
 <metadata>
  <rdf:RDF xmlns:cc="http://creativecommons.org/ns#" xmlns:dc="http://purl.org/dc/elements/1.1/" xmlns:rdf="http://www.w3.org/1999/02/22-rdf-syntax-ns#">
   <cc:Work>
    <dc:type rdf:resource="http://purl.org/dc/dcmitype/StillImage"/>
    <dc:date>2025-09-05T22:41:06.955710</dc:date>
    <dc:format>image/svg+xml</dc:format>
    <dc:creator>
     <cc:Agent>
      <dc:title>Matplotlib v3.3.2, https://matplotlib.org/</dc:title>
     </cc:Agent>
    </dc:creator>
   </cc:Work>
  </rdf:RDF>
 </metadata>
 <defs>
  <style type="text/css">*{stroke-linecap:butt;stroke-linejoin:round;}</style>
 </defs>
 <g id="figure_1">
  <g id="patch_1">
   <path d="M 0 576 
L 720 576 
L 720 0 
L 0 0 
z
" style="fill:#ffffff;"/>
  </g>
  <g id="axes_1">
   <g id="patch_2">
    <path d="M 90 512.64 
L 648 512.64 
L 648 69.12 
L 90 69.12 
z
" style="fill:#ffffff;"/>
   </g>
   <g id="Quiver_1">
    <path clip-path="url(#p39963a48a3)" d="M 621.555523 298.832756 
L 606.267821 295.758018 
L 607.24881 299.370364 
L 591.82767 291.146222 
L 609.22925 289.523547 
L 606.927967 292.475746 
L 622.215669 295.550484 
L 621.555523 298.832756 
" style="fill:#ff0000;"/>
   </g>
   <g id="Quiver_2">
    <path clip-path="url(#p39963a48a3)" d="M 141.889505 291.576341 
L 141.394745 275.990352 
L 138.101543 277.769734 
L 142.589889 260.878825 
L 148.140486 277.451059 
L 144.741059 275.884127 
L 145.235819 291.470116 
L 141.889505 291.576341 
" style="fill:#ff0000;"/>
   </g>
   <g id="matplotlib.axis_1">
    <g id="xtick_1">
     <g id="line2d_1">
      <defs>
       <path d="M 0 0 
L 0 3.5 
" id="m34a278f8bf" style="stroke:#000000;stroke-width:0.8;"/>
      </defs>
      <g>
       <use style="stroke:#000000;stroke-width:0.8;" x="131.298726" xlink:href="#m34a278f8bf" y="512.64"/>
      </g>
     </g>
     <g id="text_1">
      <!-- −100 -->
      <g transform="translate(117.565133 527.238438)scale(0.1 -0.1)">
       <defs>
        <path d="M 10.59375 35.5 
L 73.1875 35.5 
L 73.1875 27.203125 
L 10.59375 27.203125 
z
" id="DejaVuSans-8722"/>
        <path d="M 12.40625 8.296875 
L 28.515625 8.296875 
L 28.515625 63.921875 
L 10.984375 60.40625 
L 10.984375 69.390625 
L 28.421875 72.90625 
L 38.28125 72.90625 
L 38.28125 8.296875 
L 54.390625 8.296875 
L 54.390625 0 
L 12.40625 0 
z
" id="DejaVuSans-49"/>
        <path d="M 31.78125 66.40625 
Q 24.171875 66.40625 20.328125 58.90625 
Q 16.5 51.421875 16.5 36.375 
Q 16.5 21.390625 20.328125 13.890625 
Q 24.171875 6.390625 31.78125 6.390625 
Q 39.453125 6.390625 43.28125 13.890625 
Q 47.125 21.390625 47.125 36.375 
Q 47.125 51.421875 43.28125 58.90625 
Q 39.453125 66.40625 31.78125 66.40625 
z
M 31.78125 74.21875 
Q 44.046875 74.21875 50.515625 64.515625 
Q 56.984375 54.828125 56.984375 36.375 
Q 56.984375 17.96875 50.515625 8.265625 
Q 44.046875 -1.421875 31.78125 -1.421875 
Q 19.53125 -1.421875 13.0625 8.265625 
Q 6.59375 17.96875 6.59375 36.375 
Q 6.59375 54.828125 13.0625 64.515625 
Q 19.53125 74.21875 31.78125 74.21875 
z
" id="DejaVuSans-48"/>
       </defs>
       <use xlink:href="#DejaVuSans-8722"/>
       <use x="83.789062" xlink:href="#DejaVuSans-49"/>
       <use x="147.412109" xlink:href="#DejaVuSans-48"/>
       <use x="211.035156" xlink:href="#DejaVuSans-48"/>
      </g>
     </g>
    </g>
    <g id="xtick_2">
     <g id="line2d_2">
      <g>
       <use style="stroke:#000000;stroke-width:0.8;" x="253.938085" xlink:href="#m34a278f8bf" y="512.64"/>
      </g>
     </g>
     <g id="text_2">
      <!-- 0 -->
      <g transform="translate(250.756835 527.238438)scale(0.1 -0.1)">
       <use xlink:href="#DejaVuSans-48"/>
      </g>
     </g>
    </g>
    <g id="xtick_3">
     <g id="line2d_3">
      <g>
       <use style="stroke:#000000;stroke-width:0.8;" x="376.577444" xlink:href="#m34a278f8bf" y="512.64"/>
      </g>
     </g>
     <g id="text_3">
      <!-- 100 -->
      <g transform="translate(367.033694 527.238438)scale(0.1 -0.1)">
       <use xlink:href="#DejaVuSans-49"/>
       <use x="63.623047" xlink:href="#DejaVuSans-48"/>
       <use x="127.246094" xlink:href="#DejaVuSans-48"/>
      </g>
     </g>
    </g>
    <g id="xtick_4">
     <g id="line2d_4">
      <g>
       <use style="stroke:#000000;stroke-width:0.8;" x="499.216803" xlink:href="#m34a278f8bf" y="512.64"/>
      </g>
     </g>
     <g id="text_4">
      <!-- 200 -->
      <g transform="translate(489.673053 527.238438)scale(0.1 -0.1)">
       <defs>
        <path d="M 19.1875 8.296875 
L 53.609375 8.296875 
L 53.609375 0 
L 7.328125 0 
L 7.328125 8.296875 
Q 12.9375 14.109375 22.625 23.890625 
Q 32.328125 33.6875 34.8125 36.53125 
Q 39.546875 41.84375 41.421875 45.53125 
Q 43.3125 49.21875 43.3125 52.78125 
Q 43.3125 58.59375 39.234375 62.25 
Q 35.15625 65.921875 28.609375 65.921875 
Q 23.96875 65.921875 18.8125 64.3125 
Q 13.671875 62.703125 7.8125 59.421875 
L 7.8125 69.390625 
Q 13.765625 71.78125 18.9375 73 
Q 24.125 74.21875 28.421875 74.21875 
Q 39.75 74.21875 46.484375 68.546875 
Q 53.21875 62.890625 53.21875 53.421875 
Q 53.21875 48.921875 51.53125 44.890625 
Q 49.859375 40.875 45.40625 35.40625 
Q 44.1875 33.984375 37.640625 27.21875 
Q 31.109375 20.453125 19.1875 8.296875 
z
" id="DejaVuSans-50"/>
       </defs>
       <use xlink:href="#DejaVuSans-50"/>
       <use x="63.623047" xlink:href="#DejaVuSans-48"/>
       <use x="127.246094" xlink:href="#DejaVuSans-48"/>
      </g>
     </g>
    </g>
    <g id="xtick_5">
     <g id="line2d_5">
      <g>
       <use style="stroke:#000000;stroke-width:0.8;" x="621.856163" xlink:href="#m34a278f8bf" y="512.64"/>
      </g>
     </g>
     <g id="text_5">
      <!-- 300 -->
      <g transform="translate(612.312413 527.238438)scale(0.1 -0.1)">
       <defs>
        <path d="M 40.578125 39.3125 
Q 47.65625 37.796875 51.625 33 
Q 55.609375 28.21875 55.609375 21.1875 
Q 55.609375 10.40625 48.1875 4.484375 
Q 40.765625 -1.421875 27.09375 -1.421875 
Q 22.515625 -1.421875 17.65625 -0.515625 
Q 12.796875 0.390625 7.625 2.203125 
L 7.625 11.71875 
Q 11.71875 9.328125 16.59375 8.109375 
Q 21.484375 6.890625 26.8125 6.890625 
Q 36.078125 6.890625 40.9375 10.546875 
Q 45.796875 14.203125 45.796875 21.1875 
Q 45.796875 27.640625 41.28125 31.265625 
Q 36.765625 34.90625 28.71875 34.90625 
L 20.21875 34.90625 
L 20.21875 43.015625 
L 29.109375 43.015625 
Q 36.375 43.015625 40.234375 45.921875 
Q 44.09375 48.828125 44.09375 54.296875 
Q 44.09375 59.90625 40.109375 62.90625 
Q 36.140625 65.921875 28.71875 65.921875 
Q 24.65625 65.921875 20.015625 65.03125 
Q 15.375 64.15625 9.8125 62.3125 
L 9.8125 71.09375 
Q 15.4375 72.65625 20.34375 73.4375 
Q 25.25 74.21875 29.59375 74.21875 
Q 40.828125 74.21875 47.359375 69.109375 
Q 53.90625 64.015625 53.90625 55.328125 
Q 53.90625 49.265625 50.4375 45.09375 
Q 46.96875 40.921875 40.578125 39.3125 
z
" id="DejaVuSans-51"/>
       </defs>
       <use xlink:href="#DejaVuSans-51"/>
       <use x="63.623047" xlink:href="#DejaVuSans-48"/>
       <use x="127.246094" xlink:href="#DejaVuSans-48"/>
      </g>
     </g>
    </g>
   </g>
   <g id="matplotlib.axis_2">
    <g id="ytick_1">
     <g id="line2d_6">
      <defs>
       <path d="M 0 0 
L -3.5 0 
" id="ma3594f97a4" style="stroke:#000000;stroke-width:0.8;"/>
      </defs>
      <g>
       <use style="stroke:#000000;stroke-width:0.8;" x="90" xlink:href="#ma3594f97a4" y="481.614235"/>
      </g>
     </g>
     <g id="text_6">
      <!-- −150 -->
      <g transform="translate(55.532812 485.413454)scale(0.1 -0.1)">
       <defs>
        <path d="M 10.796875 72.90625 
L 49.515625 72.90625 
L 49.515625 64.59375 
L 19.828125 64.59375 
L 19.828125 46.734375 
Q 21.96875 47.46875 24.109375 47.828125 
Q 26.265625 48.1875 28.421875 48.1875 
Q 40.625 48.1875 47.75 41.5 
Q 54.890625 34.8125 54.890625 23.390625 
Q 54.890625 11.625 47.5625 5.09375 
Q 40.234375 -1.421875 26.90625 -1.421875 
Q 22.3125 -1.421875 17.546875 -0.640625 
Q 12.796875 0.140625 7.71875 1.703125 
L 7.71875 11.625 
Q 12.109375 9.234375 16.796875 8.0625 
Q 21.484375 6.890625 26.703125 6.890625 
Q 35.15625 6.890625 40.078125 11.328125 
Q 45.015625 15.765625 45.015625 23.390625 
Q 45.015625 31 40.078125 35.4375 
Q 35.15625 39.890625 26.703125 39.890625 
Q 22.75 39.890625 18.8125 39.015625 
Q 14.890625 38.140625 10.796875 36.28125 
z
" id="DejaVuSans-53"/>
       </defs>
       <use xlink:href="#DejaVuSans-8722"/>
       <use x="83.789062" xlink:href="#DejaVuSans-49"/>
       <use x="147.412109" xlink:href="#DejaVuSans-53"/>
       <use x="211.035156" xlink:href="#DejaVuSans-48"/>
      </g>
     </g>
    </g>
    <g id="ytick_2">
     <g id="line2d_7">
      <g>
       <use style="stroke:#000000;stroke-width:0.8;" x="90" xlink:href="#ma3594f97a4" y="420.294555"/>
      </g>
     </g>
     <g id="text_7">
      <!-- −100 -->
      <g transform="translate(55.532812 424.093774)scale(0.1 -0.1)">
       <use xlink:href="#DejaVuSans-8722"/>
       <use x="83.789062" xlink:href="#DejaVuSans-49"/>
       <use x="147.412109" xlink:href="#DejaVuSans-48"/>
       <use x="211.035156" xlink:href="#DejaVuSans-48"/>
      </g>
     </g>
    </g>
    <g id="ytick_3">
     <g id="line2d_8">
      <g>
       <use style="stroke:#000000;stroke-width:0.8;" x="90" xlink:href="#ma3594f97a4" y="358.974876"/>
      </g>
     </g>
     <g id="text_8">
      <!-- −50 -->
      <g transform="translate(61.895313 362.774095)scale(0.1 -0.1)">
       <use xlink:href="#DejaVuSans-8722"/>
       <use x="83.789062" xlink:href="#DejaVuSans-53"/>
       <use x="147.412109" xlink:href="#DejaVuSans-48"/>
      </g>
     </g>
    </g>
    <g id="ytick_4">
     <g id="line2d_9">
      <g>
       <use style="stroke:#000000;stroke-width:0.8;" x="90" xlink:href="#ma3594f97a4" y="297.655196"/>
      </g>
     </g>
     <g id="text_9">
      <!-- 0 -->
      <g transform="translate(76.6375 301.454415)scale(0.1 -0.1)">
       <use xlink:href="#DejaVuSans-48"/>
      </g>
     </g>
    </g>
    <g id="ytick_5">
     <g id="line2d_10">
      <g>
       <use style="stroke:#000000;stroke-width:0.8;" x="90" xlink:href="#ma3594f97a4" y="236.335517"/>
      </g>
     </g>
     <g id="text_10">
      <!-- 50 -->
      <g transform="translate(70.275 240.134736)scale(0.1 -0.1)">
       <use xlink:href="#DejaVuSans-53"/>
       <use x="63.623047" xlink:href="#DejaVuSans-48"/>
      </g>
     </g>
    </g>
    <g id="ytick_6">
     <g id="line2d_11">
      <g>
       <use style="stroke:#000000;stroke-width:0.8;" x="90" xlink:href="#ma3594f97a4" y="175.015837"/>
      </g>
     </g>
     <g id="text_11">
      <!-- 100 -->
      <g transform="translate(63.9125 178.815056)scale(0.1 -0.1)">
       <use xlink:href="#DejaVuSans-49"/>
       <use x="63.623047" xlink:href="#DejaVuSans-48"/>
       <use x="127.246094" xlink:href="#DejaVuSans-48"/>
      </g>
     </g>
    </g>
    <g id="ytick_7">
     <g id="line2d_12">
      <g>
       <use style="stroke:#000000;stroke-width:0.8;" x="90" xlink:href="#ma3594f97a4" y="113.696158"/>
      </g>
     </g>
     <g id="text_12">
      <!-- 150 -->
      <g transform="translate(63.9125 117.495377)scale(0.1 -0.1)">
       <use xlink:href="#DejaVuSans-49"/>
       <use x="63.623047" xlink:href="#DejaVuSans-53"/>
       <use x="127.246094" xlink:href="#DejaVuSans-48"/>
      </g>
     </g>
    </g>
   </g>
   <g id="line2d_13">
    <path clip-path="url(#p39963a48a3)" d="M 621.885596 297.19162 
L 602.91574 293.376309 
L 584.99445 290.020896 
L 568.051823 287.062835 
L 552.017953 284.446937 
L 536.830295 282.129054 
L 522.43734 280.072392 
L 508.7839 278.254876 
L 495.818467 276.650753 
L 483.50057 275.234269 
L 471.786058 273.990706 
L 460.63814 272.909027 
L 450.020025 271.967156 
L 439.898598 271.157737 
L 430.248107 270.46973 
L 421.035438 269.895778 
L 412.238517 269.424842 
L 403.831589 269.053245 
L 395.752108 268.769948 
L 387.996395 268.597027 
L 380.571808 268.516085 
L 373.459952 268.527122 
L 366.64243 268.619102 
L 360.104526 268.784665 
L 353.831523 269.023812 
L 347.812383 269.325505 
L 342.03239 269.689743 
L 336.480506 270.10917 
L 331.145694 270.580105 
L 326.016916 271.102549 
L 321.083134 271.669143 
L 316.336991 272.279887 
L 311.771128 272.934781 
L 307.370828 273.630146 
L 303.136091 274.365982 
L 299.055879 275.13861 
L 295.126514 275.951709 
L 291.336958 276.8016 
L 287.683531 277.691962 
L 284.162555 278.626474 
L 280.766672 279.605136 
L 277.488522 280.635306 
L 274.331784 281.716985 
L 271.285423 282.86489 
L 268.353116 284.090057 
L 265.523826 285.410883 
L 262.804911 286.856801 
L 260.196372 288.482999 
L 257.705567 290.40721 
L 255.361928 292.964241 
L 254.294966 294.965715 
L 253.938085 297.655196 
L 254.81741 300.219585 
L 256.25229 301.974555 
L 259.026392 304.031217 
L 261.811532 305.447701 
L 264.644501 306.562493 
L 267.543696 307.489647 
L 270.516474 308.28435 
L 273.570194 308.979715 
L 276.708535 309.594138 
L 279.942535 310.138657 
L 283.275873 310.624309 
L 286.708549 311.058452 
L 290.255279 311.444766 
L 293.916064 311.78693 
L 297.694582 312.092302 
L 301.605551 312.357203 
L 305.648971 312.585312 
L 309.8322 312.776629 
L 314.166275 312.934834 
L 318.654875 313.063606 
L 323.309039 313.155585 
L 328.136124 313.214452 
L 333.143489 313.243885 
L 338.34953 313.240206 
L 343.754246 313.207094 
L 349.376035 313.140868 
L 355.225932 313.04521 
L 361.314976 312.916438 
L 367.657884 312.758234 
L 374.273051 312.570595 
L 381.175194 312.357203 
L 388.37903 312.110698 
L 395.906634 311.842118 
L 403.798477 311.544104 
L 412.098708 311.205619 
L 420.792613 310.815626 
L 429.898585 310.374124 
L 439.449738 309.884793 
L 449.471827 309.340275 
L 459.997963 308.744247 
L 471.061259 308.096711 
L 482.705867 307.390309 
L 494.964897 306.628718 
L 507.889859 305.808261 
L 521.532261 304.932616 
L 535.939933 303.994425 
L 551.175421 302.986329 
L 567.304949 301.912009 
L 584.398423 300.749387 
L 602.544143 299.494787 
L 621.826729 298.118773 
" style="fill:none;stroke:#0000ff;stroke-linecap:square;stroke-width:1.5;"/>
   </g>
   <g id="line2d_14">
    <path clip-path="url(#p39963a48a3)" d="M 622.636364 293.589854 
L 603.616076 289.764398 
L 585.648481 286.400314 
L 568.663671 283.434886 
L 552.590986 280.812656 
L 537.367736 278.489338 
L 522.940165 276.427733 
L 509.25197 274.605591 
L 496.254164 272.997462 
L 483.905106 271.577396 
L 472.157493 270.330322 
L 460.978099 269.245586 
L 450.329253 268.300994 
L 440.176041 267.489032 
L 430.493132 266.798717 
L 421.248303 266.22276 
L 412.417671 265.750026 
L 403.978701 265.377007 
L 395.858128 265.092295 
L 388.056899 264.918343 
L 380.58931 264.836946 
L 373.431586 264.848051 
L 366.571449 264.940606 
L 359.987623 265.107342 
L 353.669201 265.348213 
L 347.604725 265.652189 
L 341.777658 266.019392 
L 336.180558 266.442236 
L 330.797296 266.917457 
L 325.620365 267.444801 
L 320.639088 268.016857 
L 315.840833 268.634314 
L 311.223006 269.296659 
L 306.768688 270.000573 
L 302.479323 270.745895 
L 298.341088 271.529532 
L 294.351202 272.355146 
L 290.500121 273.218853 
L 286.776359 274.126375 
L 283.18209 275.080341 
L 279.706745 276.081937 
L 276.342055 277.13931 
L 273.089608 278.253841 
L 269.929775 279.44457 
L 266.869715 280.723175 
L 263.888395 282.115168 
L 260.978559 283.66293 
L 258.117939 285.447132 
L 255.269508 287.650039 
L 252.351295 290.849422 
L 250.832317 293.722159 
L 250.277111 298.020764 
L 251.665581 302.117571 
L 253.705293 304.629583 
L 257.151812 307.197021 
L 260.326765 308.813981 
L 263.422134 310.032679 
L 266.515774 311.022315 
L 269.63776 311.857056 
L 272.810994 312.579713 
L 276.05182 313.214234 
L 279.374192 313.773675 
L 282.781025 314.270059 
L 286.279184 314.712493 
L 289.886561 315.105424 
L 293.597127 315.452261 
L 297.42212 315.76138 
L 301.378458 316.029368 
L 305.461591 316.259718 
L 309.682182 316.45275 
L 314.04623 316.612056 
L 318.565481 316.7417 
L 323.2514 316.834314 
L 328.102892 316.893483 
L 333.134191 316.923054 
L 338.362357 316.919365 
L 343.787331 316.886126 
L 349.428047 316.819681 
L 355.294987 316.723742 
L 361.400181 316.594632 
L 367.756337 316.436097 
L 374.3819 316.248166 
L 381.295241 316.034425 
L 388.508201 315.78761 
L 396.040891 315.518848 
L 403.942146 315.220478 
L 412.255754 314.881447 
L 420.964746 314.490778 
L 430.08184 314.048738 
L 439.64365 313.55886 
L 449.67616 313.013777 
L 460.209319 312.417352 
L 471.280253 311.769369 
L 482.931576 311.06256 
L 495.19569 310.300653 
L 508.124445 309.479956 
L 521.769319 308.604152 
L 536.181233 307.665684 
L 551.418976 306.65744 
L 567.551721 305.582904 
L 584.650102 304.41995 
L 602.800902 303.164997 
L 622.094739 301.788179 
" style="fill:none;stroke:#0000ff;stroke-dasharray:5.55,2.4;stroke-dashoffset:0;stroke-width:1.5;"/>
   </g>
   <g id="line2d_15">
    <path clip-path="url(#p39963a48a3)" d="M 143.562662 291.523228 
L 143.537971 290.745402 
L 143.463997 289.970707 
L 143.341037 289.202263 
L 143.169587 288.443166 
L 142.950338 287.69647 
L 142.684171 286.965184 
L 142.37216 286.252251 
L 142.015559 285.560543 
L 141.615806 284.892844 
L 141.174509 284.251844 
L 140.693446 283.640122 
L 140.174554 283.060144 
L 139.619922 282.514243 
L 139.031784 282.004618 
L 138.412507 281.533321 
L 137.764586 281.10225 
L 137.090629 280.713141 
L 136.393349 280.36756 
L 135.675556 280.066899 
L 134.940139 279.812369 
L 134.190059 279.604994 
L 133.428336 279.445609 
L 132.658039 279.334857 
L 131.882268 279.273183 
L 131.104147 279.260836 
L 130.32681 279.297865 
L 129.553386 279.384122 
L 128.786991 279.519258 
L 128.030709 279.70273 
L 127.287586 279.933799 
L 126.560614 280.211535 
L 125.852722 280.534818 
L 125.166758 280.902348 
L 124.505486 281.312645 
L 123.871568 281.764056 
L 123.267556 282.254764 
L 122.695883 282.782793 
L 122.158851 283.346016 
L 121.658622 283.942166 
L 121.19721 284.568843 
L 120.776473 285.223522 
L 120.398105 285.903568 
L 120.063631 286.606242 
L 119.774396 287.328715 
L 119.531566 288.068078 
L 119.336118 288.821354 
L 119.188839 289.58551 
L 119.090323 290.357467 
L 119.040965 291.134119 
L 119.040965 291.912338 
L 119.090323 292.68899 
L 119.188839 293.460947 
L 119.336118 294.225103 
L 119.531566 294.978379 
L 119.774396 295.717742 
L 120.063631 296.440215 
L 120.398105 297.142889 
L 120.776473 297.822935 
L 121.19721 298.477614 
L 121.658622 299.104291 
L 122.158851 299.700441 
L 122.695883 300.263664 
L 123.267556 300.791693 
L 123.871568 301.282401 
L 124.505486 301.733812 
L 125.166758 302.144109 
L 125.852722 302.511639 
L 126.560614 302.834922 
L 127.287586 303.112658 
L 128.030709 303.343727 
L 128.786991 303.527199 
L 129.553386 303.662335 
L 130.32681 303.748592 
L 131.104147 303.785621 
L 131.882268 303.773274 
L 132.658039 303.7116 
L 133.428336 303.600848 
L 134.190059 303.441463 
L 134.940139 303.234088 
L 135.675556 302.979558 
L 136.393349 302.678897 
L 137.090629 302.333316 
L 137.764586 301.944207 
L 138.412507 301.513136 
L 139.031784 301.041839 
L 139.619922 300.532214 
L 140.174554 299.986313 
L 140.693446 299.406335 
L 141.174509 298.794613 
L 141.615806 298.153613 
L 142.015559 297.485914 
L 142.37216 296.794206 
L 142.684171 296.081273 
L 142.950338 295.349987 
L 143.169587 294.603291 
L 143.341037 293.844194 
L 143.463997 293.07575 
L 143.537971 292.301055 
L 143.562662 291.523228 
" style="fill:none;stroke:#0000ff;stroke-linecap:square;stroke-width:1.5;"/>
   </g>
   <g id="line2d_16">
    <path clip-path="url(#p39963a48a3)" d="M 147.241843 291.523228 
L 147.209744 290.512054 
L 147.113578 289.50495 
L 146.95373 288.505974 
L 146.730845 287.519147 
L 146.445821 286.548443 
L 146.099805 285.597771 
L 145.69419 284.670958 
L 145.230609 283.771737 
L 144.71093 282.903729 
L 144.137244 282.070428 
L 143.511862 281.275191 
L 142.837303 280.521218 
L 142.116281 279.811547 
L 141.351701 279.149035 
L 140.546641 278.536349 
L 139.704343 277.975957 
L 138.828199 277.470115 
L 137.921736 277.020859 
L 136.988605 276.63 
L 136.032563 276.299111 
L 135.057459 276.029523 
L 134.06722 275.822324 
L 133.065833 275.678346 
L 132.05733 275.59817 
L 131.045773 275.582119 
L 130.035235 275.630256 
L 129.029784 275.74239 
L 128.03347 275.918067 
L 127.050303 276.156581 
L 126.084244 276.45697 
L 125.139181 276.818026 
L 124.218921 277.238295 
L 123.327168 277.716084 
L 122.467514 278.24947 
L 121.64342 278.836305 
L 120.858205 279.474225 
L 120.11503 280.160662 
L 119.416888 280.892853 
L 118.76659 281.667848 
L 118.166755 282.482527 
L 117.619797 283.33361 
L 117.127919 284.21767 
L 116.693102 285.131146 
L 116.317097 286.070361 
L 116.001418 287.031533 
L 115.747335 288.010792 
L 115.555873 289.004194 
L 115.427801 290.007739 
L 115.363636 291.017386 
L 115.363636 292.029071 
L 115.427801 293.038718 
L 115.555873 294.042263 
L 115.747335 295.035665 
L 116.001418 296.014924 
L 116.317097 296.976096 
L 116.693102 297.915311 
L 117.127919 298.828787 
L 117.619797 299.712847 
L 118.166755 300.56393 
L 118.76659 301.378609 
L 119.416888 302.153604 
L 120.11503 302.885795 
L 120.858205 303.572232 
L 121.64342 304.210152 
L 122.467514 304.796987 
L 123.327168 305.330373 
L 124.218921 305.808162 
L 125.139181 306.228431 
L 126.084244 306.589487 
L 127.050303 306.889876 
L 128.03347 307.12839 
L 129.029784 307.304067 
L 130.035235 307.4162 
L 131.045773 307.464338 
L 132.05733 307.448287 
L 133.065833 307.368111 
L 134.06722 307.224133 
L 135.057459 307.016934 
L 136.032563 306.747346 
L 136.988605 306.416457 
L 137.921736 306.025598 
L 138.828199 305.576342 
L 139.704343 305.0705 
L 140.546641 304.510108 
L 141.351701 303.897422 
L 142.116281 303.23491 
L 142.837303 302.525239 
L 143.511862 301.771266 
L 144.137244 300.976029 
L 144.71093 300.142728 
L 145.230609 299.27472 
L 145.69419 298.375499 
L 146.099805 297.448686 
L 146.445821 296.498014 
L 146.730845 295.52731 
L 146.95373 294.540483 
L 147.113578 293.541507 
L 147.209744 292.534403 
L 147.241843 291.523228 
" style="fill:none;stroke:#0000ff;stroke-dasharray:5.55,2.4;stroke-dashoffset:0;stroke-width:1.5;"/>
   </g>
   <g id="patch_3">
    <path d="M 90 512.64 
L 90 69.12 
" style="fill:none;stroke:#000000;stroke-linecap:square;stroke-linejoin:miter;stroke-width:0.8;"/>
   </g>
   <g id="patch_4">
    <path d="M 648 512.64 
L 648 69.12 
" style="fill:none;stroke:#000000;stroke-linecap:square;stroke-linejoin:miter;stroke-width:0.8;"/>
   </g>
   <g id="patch_5">
    <path d="M 90 512.64 
L 648 512.64 
" style="fill:none;stroke:#000000;stroke-linecap:square;stroke-linejoin:miter;stroke-width:0.8;"/>
   </g>
   <g id="patch_6">
    <path d="M 90 69.12 
L 648 69.12 
" style="fill:none;stroke:#000000;stroke-linecap:square;stroke-linejoin:miter;stroke-width:0.8;"/>
   </g>
   <g id="text_13">
    <!-- Example of 5.3.2 -->
    <g transform="translate(318.105 63.12)scale(0.12 -0.12)">
     <defs>
      <path d="M 9.8125 72.90625 
L 55.90625 72.90625 
L 55.90625 64.59375 
L 19.671875 64.59375 
L 19.671875 43.015625 
L 54.390625 43.015625 
L 54.390625 34.71875 
L 19.671875 34.71875 
L 19.671875 8.296875 
L 56.78125 8.296875 
L 56.78125 0 
L 9.8125 0 
z
" id="DejaVuSans-69"/>
      <path d="M 54.890625 54.6875 
L 35.109375 28.078125 
L 55.90625 0 
L 45.3125 0 
L 29.390625 21.484375 
L 13.484375 0 
L 2.875 0 
L 24.125 28.609375 
L 4.6875 54.6875 
L 15.28125 54.6875 
L 29.78125 35.203125 
L 44.28125 54.6875 
z
" id="DejaVuSans-120"/>
      <path d="M 34.28125 27.484375 
Q 23.390625 27.484375 19.1875 25 
Q 14.984375 22.515625 14.984375 16.5 
Q 14.984375 11.71875 18.140625 8.90625 
Q 21.296875 6.109375 26.703125 6.109375 
Q 34.1875 6.109375 38.703125 11.40625 
Q 43.21875 16.703125 43.21875 25.484375 
L 43.21875 27.484375 
z
M 52.203125 31.203125 
L 52.203125 0 
L 43.21875 0 
L 43.21875 8.296875 
Q 40.140625 3.328125 35.546875 0.953125 
Q 30.953125 -1.421875 24.3125 -1.421875 
Q 15.921875 -1.421875 10.953125 3.296875 
Q 6 8.015625 6 15.921875 
Q 6 25.140625 12.171875 29.828125 
Q 18.359375 34.515625 30.609375 34.515625 
L 43.21875 34.515625 
L 43.21875 35.40625 
Q 43.21875 41.609375 39.140625 45 
Q 35.0625 48.390625 27.6875 48.390625 
Q 23 48.390625 18.546875 47.265625 
Q 14.109375 46.140625 10.015625 43.890625 
L 10.015625 52.203125 
Q 14.9375 54.109375 19.578125 55.046875 
Q 24.21875 56 28.609375 56 
Q 40.484375 56 46.34375 49.84375 
Q 52.203125 43.703125 52.203125 31.203125 
z
" id="DejaVuSans-97"/>
      <path d="M 52 44.1875 
Q 55.375 50.25 60.0625 53.125 
Q 64.75 56 71.09375 56 
Q 79.640625 56 84.28125 50.015625 
Q 88.921875 44.046875 88.921875 33.015625 
L 88.921875 0 
L 79.890625 0 
L 79.890625 32.71875 
Q 79.890625 40.578125 77.09375 44.375 
Q 74.3125 48.1875 68.609375 48.1875 
Q 61.625 48.1875 57.5625 43.546875 
Q 53.515625 38.921875 53.515625 30.90625 
L 53.515625 0 
L 44.484375 0 
L 44.484375 32.71875 
Q 44.484375 40.625 41.703125 44.40625 
Q 38.921875 48.1875 33.109375 48.1875 
Q 26.21875 48.1875 22.15625 43.53125 
Q 18.109375 38.875 18.109375 30.90625 
L 18.109375 0 
L 9.078125 0 
L 9.078125 54.6875 
L 18.109375 54.6875 
L 18.109375 46.1875 
Q 21.1875 51.21875 25.484375 53.609375 
Q 29.78125 56 35.6875 56 
Q 41.65625 56 45.828125 52.96875 
Q 50 49.953125 52 44.1875 
z
" id="DejaVuSans-109"/>
      <path d="M 18.109375 8.203125 
L 18.109375 -20.796875 
L 9.078125 -20.796875 
L 9.078125 54.6875 
L 18.109375 54.6875 
L 18.109375 46.390625 
Q 20.953125 51.265625 25.265625 53.625 
Q 29.59375 56 35.59375 56 
Q 45.5625 56 51.78125 48.09375 
Q 58.015625 40.1875 58.015625 27.296875 
Q 58.015625 14.40625 51.78125 6.484375 
Q 45.5625 -1.421875 35.59375 -1.421875 
Q 29.59375 -1.421875 25.265625 0.953125 
Q 20.953125 3.328125 18.109375 8.203125 
z
M 48.6875 27.296875 
Q 48.6875 37.203125 44.609375 42.84375 
Q 40.53125 48.484375 33.40625 48.484375 
Q 26.265625 48.484375 22.1875 42.84375 
Q 18.109375 37.203125 18.109375 27.296875 
Q 18.109375 17.390625 22.1875 11.75 
Q 26.265625 6.109375 33.40625 6.109375 
Q 40.53125 6.109375 44.609375 11.75 
Q 48.6875 17.390625 48.6875 27.296875 
z
" id="DejaVuSans-112"/>
      <path d="M 9.421875 75.984375 
L 18.40625 75.984375 
L 18.40625 0 
L 9.421875 0 
z
" id="DejaVuSans-108"/>
      <path d="M 56.203125 29.59375 
L 56.203125 25.203125 
L 14.890625 25.203125 
Q 15.484375 15.921875 20.484375 11.0625 
Q 25.484375 6.203125 34.421875 6.203125 
Q 39.59375 6.203125 44.453125 7.46875 
Q 49.3125 8.734375 54.109375 11.28125 
L 54.109375 2.78125 
Q 49.265625 0.734375 44.1875 -0.34375 
Q 39.109375 -1.421875 33.890625 -1.421875 
Q 20.796875 -1.421875 13.15625 6.1875 
Q 5.515625 13.8125 5.515625 26.8125 
Q 5.515625 40.234375 12.765625 48.109375 
Q 20.015625 56 32.328125 56 
Q 43.359375 56 49.78125 48.890625 
Q 56.203125 41.796875 56.203125 29.59375 
z
M 47.21875 32.234375 
Q 47.125 39.59375 43.09375 43.984375 
Q 39.0625 48.390625 32.421875 48.390625 
Q 24.90625 48.390625 20.390625 44.140625 
Q 15.875 39.890625 15.1875 32.171875 
z
" id="DejaVuSans-101"/>
      <path id="DejaVuSans-32"/>
      <path d="M 30.609375 48.390625 
Q 23.390625 48.390625 19.1875 42.75 
Q 14.984375 37.109375 14.984375 27.296875 
Q 14.984375 17.484375 19.15625 11.84375 
Q 23.34375 6.203125 30.609375 6.203125 
Q 37.796875 6.203125 41.984375 11.859375 
Q 46.1875 17.53125 46.1875 27.296875 
Q 46.1875 37.015625 41.984375 42.703125 
Q 37.796875 48.390625 30.609375 48.390625 
z
M 30.609375 56 
Q 42.328125 56 49.015625 48.375 
Q 55.71875 40.765625 55.71875 27.296875 
Q 55.71875 13.875 49.015625 6.21875 
Q 42.328125 -1.421875 30.609375 -1.421875 
Q 18.84375 -1.421875 12.171875 6.21875 
Q 5.515625 13.875 5.515625 27.296875 
Q 5.515625 40.765625 12.171875 48.375 
Q 18.84375 56 30.609375 56 
z
" id="DejaVuSans-111"/>
      <path d="M 37.109375 75.984375 
L 37.109375 68.5 
L 28.515625 68.5 
Q 23.6875 68.5 21.796875 66.546875 
Q 19.921875 64.59375 19.921875 59.515625 
L 19.921875 54.6875 
L 34.71875 54.6875 
L 34.71875 47.703125 
L 19.921875 47.703125 
L 19.921875 0 
L 10.890625 0 
L 10.890625 47.703125 
L 2.296875 47.703125 
L 2.296875 54.6875 
L 10.890625 54.6875 
L 10.890625 58.5 
Q 10.890625 67.625 15.140625 71.796875 
Q 19.390625 75.984375 28.609375 75.984375 
z
" id="DejaVuSans-102"/>
      <path d="M 10.6875 12.40625 
L 21 12.40625 
L 21 0 
L 10.6875 0 
z
" id="DejaVuSans-46"/>
     </defs>
     <use xlink:href="#DejaVuSans-69"/>
     <use x="63.183594" xlink:href="#DejaVuSans-120"/>
     <use x="122.363281" xlink:href="#DejaVuSans-97"/>
     <use x="183.642578" xlink:href="#DejaVuSans-109"/>
     <use x="281.054688" xlink:href="#DejaVuSans-112"/>
     <use x="344.53125" xlink:href="#DejaVuSans-108"/>
     <use x="372.314453" xlink:href="#DejaVuSans-101"/>
     <use x="433.837891" xlink:href="#DejaVuSans-32"/>
     <use x="465.625" xlink:href="#DejaVuSans-111"/>
     <use x="526.806641" xlink:href="#DejaVuSans-102"/>
     <use x="562.011719" xlink:href="#DejaVuSans-32"/>
     <use x="593.798828" xlink:href="#DejaVuSans-53"/>
     <use x="657.421875" xlink:href="#DejaVuSans-46"/>
     <use x="689.208984" xlink:href="#DejaVuSans-51"/>
     <use x="752.832031" xlink:href="#DejaVuSans-46"/>
     <use x="784.619141" xlink:href="#DejaVuSans-50"/>
    </g>
   </g>
   <g id="legend_1">
    <g id="patch_7">
     <path d="M 545.85 106.47625 
L 641 106.47625 
Q 643 106.47625 643 104.47625 
L 643 76.12 
Q 643 74.12 641 74.12 
L 545.85 74.12 
Q 543.85 74.12 543.85 76.12 
L 543.85 104.47625 
Q 543.85 106.47625 545.85 106.47625 
z
" style="fill:#ffffff;opacity:0.8;stroke:#cccccc;stroke-linejoin:miter;"/>
    </g>
    <g id="line2d_17">
     <path d="M 547.85 82.218438 
L 567.85 82.218438 
" style="fill:none;stroke:#0000ff;stroke-linecap:square;stroke-width:1.5;"/>
    </g>
    <g id="line2d_18"/>
    <g id="text_14">
     <!-- Original Line -->
     <g transform="translate(575.85 85.718438)scale(0.1 -0.1)">
      <defs>
       <path d="M 39.40625 66.21875 
Q 28.65625 66.21875 22.328125 58.203125 
Q 16.015625 50.203125 16.015625 36.375 
Q 16.015625 22.609375 22.328125 14.59375 
Q 28.65625 6.59375 39.40625 6.59375 
Q 50.140625 6.59375 56.421875 14.59375 
Q 62.703125 22.609375 62.703125 36.375 
Q 62.703125 50.203125 56.421875 58.203125 
Q 50.140625 66.21875 39.40625 66.21875 
z
M 39.40625 74.21875 
Q 54.734375 74.21875 63.90625 63.9375 
Q 73.09375 53.65625 73.09375 36.375 
Q 73.09375 19.140625 63.90625 8.859375 
Q 54.734375 -1.421875 39.40625 -1.421875 
Q 24.03125 -1.421875 14.8125 8.828125 
Q 5.609375 19.09375 5.609375 36.375 
Q 5.609375 53.65625 14.8125 63.9375 
Q 24.03125 74.21875 39.40625 74.21875 
z
" id="DejaVuSans-79"/>
       <path d="M 41.109375 46.296875 
Q 39.59375 47.171875 37.8125 47.578125 
Q 36.03125 48 33.890625 48 
Q 26.265625 48 22.1875 43.046875 
Q 18.109375 38.09375 18.109375 28.8125 
L 18.109375 0 
L 9.078125 0 
L 9.078125 54.6875 
L 18.109375 54.6875 
L 18.109375 46.1875 
Q 20.953125 51.171875 25.484375 53.578125 
Q 30.03125 56 36.53125 56 
Q 37.453125 56 38.578125 55.875 
Q 39.703125 55.765625 41.0625 55.515625 
z
" id="DejaVuSans-114"/>
       <path d="M 9.421875 54.6875 
L 18.40625 54.6875 
L 18.40625 0 
L 9.421875 0 
z
M 9.421875 75.984375 
L 18.40625 75.984375 
L 18.40625 64.59375 
L 9.421875 64.59375 
z
" id="DejaVuSans-105"/>
       <path d="M 45.40625 27.984375 
Q 45.40625 37.75 41.375 43.109375 
Q 37.359375 48.484375 30.078125 48.484375 
Q 22.859375 48.484375 18.828125 43.109375 
Q 14.796875 37.75 14.796875 27.984375 
Q 14.796875 18.265625 18.828125 12.890625 
Q 22.859375 7.515625 30.078125 7.515625 
Q 37.359375 7.515625 41.375 12.890625 
Q 45.40625 18.265625 45.40625 27.984375 
z
M 54.390625 6.78125 
Q 54.390625 -7.171875 48.1875 -13.984375 
Q 42 -20.796875 29.203125 -20.796875 
Q 24.46875 -20.796875 20.265625 -20.09375 
Q 16.0625 -19.390625 12.109375 -17.921875 
L 12.109375 -9.1875 
Q 16.0625 -11.328125 19.921875 -12.34375 
Q 23.78125 -13.375 27.78125 -13.375 
Q 36.625 -13.375 41.015625 -8.765625 
Q 45.40625 -4.15625 45.40625 5.171875 
L 45.40625 9.625 
Q 42.625 4.78125 38.28125 2.390625 
Q 33.9375 0 27.875 0 
Q 17.828125 0 11.671875 7.65625 
Q 5.515625 15.328125 5.515625 27.984375 
Q 5.515625 40.671875 11.671875 48.328125 
Q 17.828125 56 27.875 56 
Q 33.9375 56 38.28125 53.609375 
Q 42.625 51.21875 45.40625 46.390625 
L 45.40625 54.6875 
L 54.390625 54.6875 
z
" id="DejaVuSans-103"/>
       <path d="M 54.890625 33.015625 
L 54.890625 0 
L 45.90625 0 
L 45.90625 32.71875 
Q 45.90625 40.484375 42.875 44.328125 
Q 39.84375 48.1875 33.796875 48.1875 
Q 26.515625 48.1875 22.3125 43.546875 
Q 18.109375 38.921875 18.109375 30.90625 
L 18.109375 0 
L 9.078125 0 
L 9.078125 54.6875 
L 18.109375 54.6875 
L 18.109375 46.1875 
Q 21.34375 51.125 25.703125 53.5625 
Q 30.078125 56 35.796875 56 
Q 45.21875 56 50.046875 50.171875 
Q 54.890625 44.34375 54.890625 33.015625 
z
" id="DejaVuSans-110"/>
       <path d="M 9.8125 72.90625 
L 19.671875 72.90625 
L 19.671875 8.296875 
L 55.171875 8.296875 
L 55.171875 0 
L 9.8125 0 
z
" id="DejaVuSans-76"/>
      </defs>
      <use xlink:href="#DejaVuSans-79"/>
      <use x="78.710938" xlink:href="#DejaVuSans-114"/>
      <use x="119.824219" xlink:href="#DejaVuSans-105"/>
      <use x="147.607422" xlink:href="#DejaVuSans-103"/>
      <use x="211.083984" xlink:href="#DejaVuSans-105"/>
      <use x="238.867188" xlink:href="#DejaVuSans-110"/>
      <use x="302.246094" xlink:href="#DejaVuSans-97"/>
      <use x="363.525391" xlink:href="#DejaVuSans-108"/>
      <use x="391.308594" xlink:href="#DejaVuSans-32"/>
      <use x="423.095703" xlink:href="#DejaVuSans-76"/>
      <use x="478.808594" xlink:href="#DejaVuSans-105"/>
      <use x="506.591797" xlink:href="#DejaVuSans-110"/>
      <use x="569.970703" xlink:href="#DejaVuSans-101"/>
     </g>
    </g>
    <g id="line2d_19">
     <path d="M 547.85 96.896563 
L 567.85 96.896563 
" style="fill:none;stroke:#0000ff;stroke-dasharray:5.55,2.4;stroke-dashoffset:0;stroke-width:1.5;"/>
    </g>
    <g id="line2d_20"/>
    <g id="text_15">
     <!-- Offset Line -->
     <g transform="translate(575.85 100.396563)scale(0.1 -0.1)">
      <defs>
       <path d="M 44.28125 53.078125 
L 44.28125 44.578125 
Q 40.484375 46.53125 36.375 47.5 
Q 32.28125 48.484375 27.875 48.484375 
Q 21.1875 48.484375 17.84375 46.4375 
Q 14.5 44.390625 14.5 40.28125 
Q 14.5 37.15625 16.890625 35.375 
Q 19.28125 33.59375 26.515625 31.984375 
L 29.59375 31.296875 
Q 39.15625 29.25 43.1875 25.515625 
Q 47.21875 21.78125 47.21875 15.09375 
Q 47.21875 7.46875 41.1875 3.015625 
Q 35.15625 -1.421875 24.609375 -1.421875 
Q 20.21875 -1.421875 15.453125 -0.5625 
Q 10.6875 0.296875 5.421875 2 
L 5.421875 11.28125 
Q 10.40625 8.6875 15.234375 7.390625 
Q 20.0625 6.109375 24.8125 6.109375 
Q 31.15625 6.109375 34.5625 8.28125 
Q 37.984375 10.453125 37.984375 14.40625 
Q 37.984375 18.0625 35.515625 20.015625 
Q 33.0625 21.96875 24.703125 23.78125 
L 21.578125 24.515625 
Q 13.234375 26.265625 9.515625 29.90625 
Q 5.8125 33.546875 5.8125 39.890625 
Q 5.8125 47.609375 11.28125 51.796875 
Q 16.75 56 26.8125 56 
Q 31.78125 56 36.171875 55.265625 
Q 40.578125 54.546875 44.28125 53.078125 
z
" id="DejaVuSans-115"/>
       <path d="M 18.3125 70.21875 
L 18.3125 54.6875 
L 36.8125 54.6875 
L 36.8125 47.703125 
L 18.3125 47.703125 
L 18.3125 18.015625 
Q 18.3125 11.328125 20.140625 9.421875 
Q 21.96875 7.515625 27.59375 7.515625 
L 36.8125 7.515625 
L 36.8125 0 
L 27.59375 0 
Q 17.1875 0 13.234375 3.875 
Q 9.28125 7.765625 9.28125 18.015625 
L 9.28125 47.703125 
L 2.6875 47.703125 
L 2.6875 54.6875 
L 9.28125 54.6875 
L 9.28125 70.21875 
z
" id="DejaVuSans-116"/>
      </defs>
      <use xlink:href="#DejaVuSans-79"/>
      <use x="78.710938" xlink:href="#DejaVuSans-102"/>
      <use x="113.916016" xlink:href="#DejaVuSans-102"/>
      <use x="149.121094" xlink:href="#DejaVuSans-115"/>
      <use x="201.220703" xlink:href="#DejaVuSans-101"/>
      <use x="262.744141" xlink:href="#DejaVuSans-116"/>
      <use x="301.953125" xlink:href="#DejaVuSans-32"/>
      <use x="333.740234" xlink:href="#DejaVuSans-76"/>
      <use x="389.453125" xlink:href="#DejaVuSans-105"/>
      <use x="417.236328" xlink:href="#DejaVuSans-110"/>
      <use x="480.615234" xlink:href="#DejaVuSans-101"/>
     </g>
    </g>
   </g>
  </g>
 </g>
 <defs>
  <clipPath id="p39963a48a3">
   <rect height="443.52" width="558" x="90" y="69.12"/>
  </clipPath>
 </defs>
</svg>
