<?xml version="1.0" encoding="utf-8" standalone="no"?>
<!DOCTYPE svg PUBLIC "-//W3C//DTD SVG 1.1//EN"
  "http://www.w3.org/Graphics/SVG/1.1/DTD/svg11.dtd">
<!-- Created with matplotlib (https://matplotlib.org/) -->
<svg height="576pt" version="1.1" viewBox="0 0 720 576" width="720pt" xmlns="http://www.w3.org/2000/svg" xmlns:xlink="http://www.w3.org/1999/xlink">
 <metadata>
  <rdf:RDF xmlns:cc="http://creativecommons.org/ns#" xmlns:dc="http://purl.org/dc/elements/1.1/" xmlns:rdf="http://www.w3.org/1999/02/22-rdf-syntax-ns#">
   <cc:Work>
    <dc:type rdf:resource="http://purl.org/dc/dcmitype/StillImage"/>
    <dc:date>2025-09-02T23:42:25.628476</dc:date>
    <dc:format>image/svg+xml</dc:format>
    <dc:creator>
     <cc:Agent>
      <dc:title>Matplotlib v3.3.2, https://matplotlib.org/</dc:title>
     </cc:Agent>
    </dc:creator>
   </cc:Work>
  </rdf:RDF>
 </metadata>
 <defs>
  <style type="text/css">*{stroke-linecap:butt;stroke-linejoin:round;}</style>
 </defs>
 <g id="figure_1">
  <g id="patch_1">
   <path d="M 0 576 
L 720 576 
L 720 0 
L 0 0 
z
" style="fill:#ffffff;"/>
  </g>
  <g id="axes_1">
   <g id="patch_2">
    <path d="M 90 512.64 
L 648 512.64 
L 648 69.12 
L 90 69.12 
z
" style="fill:#ffffff;"/>
   </g>
   <g id="Quiver_1">
    <path clip-path="url(#pc6b4e8e2b7)" d="M 113.185012 473.019474 
L 131.317102 450.354362 
L 125.216954 449.047188 
L 149.181818 432.489646 
L 138.288698 459.504583 
L 135.67435 453.840161 
L 117.54226 476.505272 
L 113.185012 473.019474 
" style="fill:#0000ff;"/>
   </g>
   <g id="Quiver_2">
    <path clip-path="url(#pc6b4e8e2b7)" d="M 495.288351 426.450745 
L 432.722119 413.867118 
L 434.357101 419.887694 
L 408.6552 406.180791 
L 437.657834 403.476333 
L 433.822363 408.396664 
L 496.388595 420.980292 
L 495.288351 426.450745 
" style="fill:#0000ff;"/>
   </g>
   <g id="Quiver_3">
    <path clip-path="url(#pc6b4e8e2b7)" d="M 619.85197 170.575512 
L 618.889686 155.418528 
L 613.497672 158.556472 
L 620.083103 130.182206 
L 630.204037 157.495821 
L 624.458474 155.064978 
L 625.420758 170.221961 
L 619.85197 170.575512 
" style="fill:#0000ff;"/>
   </g>
   <g id="Quiver_4">
    <path clip-path="url(#pc6b4e8e2b7)" d="M 218.996806 349.68709 
L 200.864717 372.352202 
L 206.964864 373.659376 
L 183 390.216918 
L 193.89312 363.201981 
L 196.507469 368.866403 
L 214.639558 346.201292 
L 218.996806 349.68709 
" style="fill:#ff0000;"/>
   </g>
   <g id="Quiver_5">
    <path clip-path="url(#pc6b4e8e2b7)" d="M 495.996482 427.137605 
L 432.422245 431.67429 
L 435.60235 437.041546 
L 407.177345 430.678682 
L 434.410806 420.344006 
L 432.025064 426.108443 
L 495.5993 421.571759 
L 495.996482 427.137605 
" style="fill:#ff0000;"/>
   </g>
   <g id="Quiver_6">
    <path clip-path="url(#pc6b4e8e2b7)" d="M 625.420758 170.575512 
L 624.458474 185.732496 
L 630.204037 183.301652 
L 620.083103 210.615267 
L 613.497672 182.241001 
L 618.889686 185.378945 
L 619.85197 170.221961 
L 625.420758 170.575512 
" style="fill:#ff0000;"/>
   </g>
   <g id="matplotlib.axis_1">
    <g id="xtick_1">
     <g id="line2d_1">
      <defs>
       <path d="M 0 0 
L 0 3.5 
" id="m743f1380bf" style="stroke:#000000;stroke-width:0.8;"/>
      </defs>
      <g>
       <use style="stroke:#000000;stroke-width:0.8;" x="115.363636" xlink:href="#m743f1380bf" y="512.64"/>
      </g>
     </g>
     <g id="text_1">
      <!-- −0.50 -->
      <g transform="translate(100.04098 527.238438)scale(0.1 -0.1)">
       <defs>
        <path d="M 10.59375 35.5 
L 73.1875 35.5 
L 73.1875 27.203125 
L 10.59375 27.203125 
z
" id="DejaVuSans-8722"/>
        <path d="M 31.78125 66.40625 
Q 24.171875 66.40625 20.328125 58.90625 
Q 16.5 51.421875 16.5 36.375 
Q 16.5 21.390625 20.328125 13.890625 
Q 24.171875 6.390625 31.78125 6.390625 
Q 39.453125 6.390625 43.28125 13.890625 
Q 47.125 21.390625 47.125 36.375 
Q 47.125 51.421875 43.28125 58.90625 
Q 39.453125 66.40625 31.78125 66.40625 
z
M 31.78125 74.21875 
Q 44.046875 74.21875 50.515625 64.515625 
Q 56.984375 54.828125 56.984375 36.375 
Q 56.984375 17.96875 50.515625 8.265625 
Q 44.046875 -1.421875 31.78125 -1.421875 
Q 19.53125 -1.421875 13.0625 8.265625 
Q 6.59375 17.96875 6.59375 36.375 
Q 6.59375 54.828125 13.0625 64.515625 
Q 19.53125 74.21875 31.78125 74.21875 
z
" id="DejaVuSans-48"/>
        <path d="M 10.6875 12.40625 
L 21 12.40625 
L 21 0 
L 10.6875 0 
z
" id="DejaVuSans-46"/>
        <path d="M 10.796875 72.90625 
L 49.515625 72.90625 
L 49.515625 64.59375 
L 19.828125 64.59375 
L 19.828125 46.734375 
Q 21.96875 47.46875 24.109375 47.828125 
Q 26.265625 48.1875 28.421875 48.1875 
Q 40.625 48.1875 47.75 41.5 
Q 54.890625 34.8125 54.890625 23.390625 
Q 54.890625 11.625 47.5625 5.09375 
Q 40.234375 -1.421875 26.90625 -1.421875 
Q 22.3125 -1.421875 17.546875 -0.640625 
Q 12.796875 0.140625 7.71875 1.703125 
L 7.71875 11.625 
Q 12.109375 9.234375 16.796875 8.0625 
Q 21.484375 6.890625 26.703125 6.890625 
Q 35.15625 6.890625 40.078125 11.328125 
Q 45.015625 15.765625 45.015625 23.390625 
Q 45.015625 31 40.078125 35.4375 
Q 35.15625 39.890625 26.703125 39.890625 
Q 22.75 39.890625 18.8125 39.015625 
Q 14.890625 38.140625 10.796875 36.28125 
z
" id="DejaVuSans-53"/>
       </defs>
       <use xlink:href="#DejaVuSans-8722"/>
       <use x="83.789062" xlink:href="#DejaVuSans-48"/>
       <use x="147.412109" xlink:href="#DejaVuSans-46"/>
       <use x="179.199219" xlink:href="#DejaVuSans-53"/>
       <use x="242.822266" xlink:href="#DejaVuSans-48"/>
      </g>
     </g>
    </g>
    <g id="xtick_2">
     <g id="line2d_2">
      <g>
       <use style="stroke:#000000;stroke-width:0.8;" x="178.772727" xlink:href="#m743f1380bf" y="512.64"/>
      </g>
     </g>
     <g id="text_2">
      <!-- −0.25 -->
      <g transform="translate(163.450071 527.238438)scale(0.1 -0.1)">
       <defs>
        <path d="M 19.1875 8.296875 
L 53.609375 8.296875 
L 53.609375 0 
L 7.328125 0 
L 7.328125 8.296875 
Q 12.9375 14.109375 22.625 23.890625 
Q 32.328125 33.6875 34.8125 36.53125 
Q 39.546875 41.84375 41.421875 45.53125 
Q 43.3125 49.21875 43.3125 52.78125 
Q 43.3125 58.59375 39.234375 62.25 
Q 35.15625 65.921875 28.609375 65.921875 
Q 23.96875 65.921875 18.8125 64.3125 
Q 13.671875 62.703125 7.8125 59.421875 
L 7.8125 69.390625 
Q 13.765625 71.78125 18.9375 73 
Q 24.125 74.21875 28.421875 74.21875 
Q 39.75 74.21875 46.484375 68.546875 
Q 53.21875 62.890625 53.21875 53.421875 
Q 53.21875 48.921875 51.53125 44.890625 
Q 49.859375 40.875 45.40625 35.40625 
Q 44.1875 33.984375 37.640625 27.21875 
Q 31.109375 20.453125 19.1875 8.296875 
z
" id="DejaVuSans-50"/>
       </defs>
       <use xlink:href="#DejaVuSans-8722"/>
       <use x="83.789062" xlink:href="#DejaVuSans-48"/>
       <use x="147.412109" xlink:href="#DejaVuSans-46"/>
       <use x="179.199219" xlink:href="#DejaVuSans-50"/>
       <use x="242.822266" xlink:href="#DejaVuSans-53"/>
      </g>
     </g>
    </g>
    <g id="xtick_3">
     <g id="line2d_3">
      <g>
       <use style="stroke:#000000;stroke-width:0.8;" x="242.181818" xlink:href="#m743f1380bf" y="512.64"/>
      </g>
     </g>
     <g id="text_3">
      <!-- 0.00 -->
      <g transform="translate(231.049006 527.238438)scale(0.1 -0.1)">
       <use xlink:href="#DejaVuSans-48"/>
       <use x="63.623047" xlink:href="#DejaVuSans-46"/>
       <use x="95.410156" xlink:href="#DejaVuSans-48"/>
       <use x="159.033203" xlink:href="#DejaVuSans-48"/>
      </g>
     </g>
    </g>
    <g id="xtick_4">
     <g id="line2d_4">
      <g>
       <use style="stroke:#000000;stroke-width:0.8;" x="305.590909" xlink:href="#m743f1380bf" y="512.64"/>
      </g>
     </g>
     <g id="text_4">
      <!-- 0.25 -->
      <g transform="translate(294.458097 527.238438)scale(0.1 -0.1)">
       <use xlink:href="#DejaVuSans-48"/>
       <use x="63.623047" xlink:href="#DejaVuSans-46"/>
       <use x="95.410156" xlink:href="#DejaVuSans-50"/>
       <use x="159.033203" xlink:href="#DejaVuSans-53"/>
      </g>
     </g>
    </g>
    <g id="xtick_5">
     <g id="line2d_5">
      <g>
       <use style="stroke:#000000;stroke-width:0.8;" x="369" xlink:href="#m743f1380bf" y="512.64"/>
      </g>
     </g>
     <g id="text_5">
      <!-- 0.50 -->
      <g transform="translate(357.867188 527.238438)scale(0.1 -0.1)">
       <use xlink:href="#DejaVuSans-48"/>
       <use x="63.623047" xlink:href="#DejaVuSans-46"/>
       <use x="95.410156" xlink:href="#DejaVuSans-53"/>
       <use x="159.033203" xlink:href="#DejaVuSans-48"/>
      </g>
     </g>
    </g>
    <g id="xtick_6">
     <g id="line2d_6">
      <g>
       <use style="stroke:#000000;stroke-width:0.8;" x="432.409091" xlink:href="#m743f1380bf" y="512.64"/>
      </g>
     </g>
     <g id="text_6">
      <!-- 0.75 -->
      <g transform="translate(421.276278 527.238438)scale(0.1 -0.1)">
       <defs>
        <path d="M 8.203125 72.90625 
L 55.078125 72.90625 
L 55.078125 68.703125 
L 28.609375 0 
L 18.3125 0 
L 43.21875 64.59375 
L 8.203125 64.59375 
z
" id="DejaVuSans-55"/>
       </defs>
       <use xlink:href="#DejaVuSans-48"/>
       <use x="63.623047" xlink:href="#DejaVuSans-46"/>
       <use x="95.410156" xlink:href="#DejaVuSans-55"/>
       <use x="159.033203" xlink:href="#DejaVuSans-53"/>
      </g>
     </g>
    </g>
    <g id="xtick_7">
     <g id="line2d_7">
      <g>
       <use style="stroke:#000000;stroke-width:0.8;" x="495.818182" xlink:href="#m743f1380bf" y="512.64"/>
      </g>
     </g>
     <g id="text_7">
      <!-- 1.00 -->
      <g transform="translate(484.685369 527.238438)scale(0.1 -0.1)">
       <defs>
        <path d="M 12.40625 8.296875 
L 28.515625 8.296875 
L 28.515625 63.921875 
L 10.984375 60.40625 
L 10.984375 69.390625 
L 28.421875 72.90625 
L 38.28125 72.90625 
L 38.28125 8.296875 
L 54.390625 8.296875 
L 54.390625 0 
L 12.40625 0 
z
" id="DejaVuSans-49"/>
       </defs>
       <use xlink:href="#DejaVuSans-49"/>
       <use x="63.623047" xlink:href="#DejaVuSans-46"/>
       <use x="95.410156" xlink:href="#DejaVuSans-48"/>
       <use x="159.033203" xlink:href="#DejaVuSans-48"/>
      </g>
     </g>
    </g>
    <g id="xtick_8">
     <g id="line2d_8">
      <g>
       <use style="stroke:#000000;stroke-width:0.8;" x="559.227273" xlink:href="#m743f1380bf" y="512.64"/>
      </g>
     </g>
     <g id="text_8">
      <!-- 1.25 -->
      <g transform="translate(548.09446 527.238438)scale(0.1 -0.1)">
       <use xlink:href="#DejaVuSans-49"/>
       <use x="63.623047" xlink:href="#DejaVuSans-46"/>
       <use x="95.410156" xlink:href="#DejaVuSans-50"/>
       <use x="159.033203" xlink:href="#DejaVuSans-53"/>
      </g>
     </g>
    </g>
    <g id="xtick_9">
     <g id="line2d_9">
      <g>
       <use style="stroke:#000000;stroke-width:0.8;" x="622.636364" xlink:href="#m743f1380bf" y="512.64"/>
      </g>
     </g>
     <g id="text_9">
      <!-- 1.50 -->
      <g transform="translate(611.503551 527.238438)scale(0.1 -0.1)">
       <use xlink:href="#DejaVuSans-49"/>
       <use x="63.623047" xlink:href="#DejaVuSans-46"/>
       <use x="95.410156" xlink:href="#DejaVuSans-53"/>
       <use x="159.033203" xlink:href="#DejaVuSans-48"/>
      </g>
     </g>
    </g>
   </g>
   <g id="matplotlib.axis_2">
    <g id="ytick_1">
     <g id="line2d_10">
      <defs>
       <path d="M 0 0 
L -3.5 0 
" id="m52c00c77e7" style="stroke:#000000;stroke-width:0.8;"/>
      </defs>
      <g>
       <use style="stroke:#000000;stroke-width:0.8;" x="90" xlink:href="#m52c00c77e7" y="474.762373"/>
      </g>
     </g>
     <g id="text_10">
      <!-- −0.2 -->
      <g transform="translate(58.717187 478.561592)scale(0.1 -0.1)">
       <use xlink:href="#DejaVuSans-8722"/>
       <use x="83.789062" xlink:href="#DejaVuSans-48"/>
       <use x="147.412109" xlink:href="#DejaVuSans-46"/>
       <use x="179.199219" xlink:href="#DejaVuSans-50"/>
      </g>
     </g>
    </g>
    <g id="ytick_2">
     <g id="line2d_11">
      <g>
       <use style="stroke:#000000;stroke-width:0.8;" x="90" xlink:href="#m52c00c77e7" y="424.0351"/>
      </g>
     </g>
     <g id="text_11">
      <!-- 0.0 -->
      <g transform="translate(67.096875 427.834319)scale(0.1 -0.1)">
       <use xlink:href="#DejaVuSans-48"/>
       <use x="63.623047" xlink:href="#DejaVuSans-46"/>
       <use x="95.410156" xlink:href="#DejaVuSans-48"/>
      </g>
     </g>
    </g>
    <g id="ytick_3">
     <g id="line2d_12">
      <g>
       <use style="stroke:#000000;stroke-width:0.8;" x="90" xlink:href="#m52c00c77e7" y="373.307827"/>
      </g>
     </g>
     <g id="text_12">
      <!-- 0.2 -->
      <g transform="translate(67.096875 377.107046)scale(0.1 -0.1)">
       <use xlink:href="#DejaVuSans-48"/>
       <use x="63.623047" xlink:href="#DejaVuSans-46"/>
       <use x="95.410156" xlink:href="#DejaVuSans-50"/>
      </g>
     </g>
    </g>
    <g id="ytick_4">
     <g id="line2d_13">
      <g>
       <use style="stroke:#000000;stroke-width:0.8;" x="90" xlink:href="#m52c00c77e7" y="322.580555"/>
      </g>
     </g>
     <g id="text_13">
      <!-- 0.4 -->
      <g transform="translate(67.096875 326.379773)scale(0.1 -0.1)">
       <defs>
        <path d="M 37.796875 64.3125 
L 12.890625 25.390625 
L 37.796875 25.390625 
z
M 35.203125 72.90625 
L 47.609375 72.90625 
L 47.609375 25.390625 
L 58.015625 25.390625 
L 58.015625 17.1875 
L 47.609375 17.1875 
L 47.609375 0 
L 37.796875 0 
L 37.796875 17.1875 
L 4.890625 17.1875 
L 4.890625 26.703125 
z
" id="DejaVuSans-52"/>
       </defs>
       <use xlink:href="#DejaVuSans-48"/>
       <use x="63.623047" xlink:href="#DejaVuSans-46"/>
       <use x="95.410156" xlink:href="#DejaVuSans-52"/>
      </g>
     </g>
    </g>
    <g id="ytick_5">
     <g id="line2d_14">
      <g>
       <use style="stroke:#000000;stroke-width:0.8;" x="90" xlink:href="#m52c00c77e7" y="271.853282"/>
      </g>
     </g>
     <g id="text_14">
      <!-- 0.6 -->
      <g transform="translate(67.096875 275.652501)scale(0.1 -0.1)">
       <defs>
        <path d="M 33.015625 40.375 
Q 26.375 40.375 22.484375 35.828125 
Q 18.609375 31.296875 18.609375 23.390625 
Q 18.609375 15.53125 22.484375 10.953125 
Q 26.375 6.390625 33.015625 6.390625 
Q 39.65625 6.390625 43.53125 10.953125 
Q 47.40625 15.53125 47.40625 23.390625 
Q 47.40625 31.296875 43.53125 35.828125 
Q 39.65625 40.375 33.015625 40.375 
z
M 52.59375 71.296875 
L 52.59375 62.3125 
Q 48.875 64.0625 45.09375 64.984375 
Q 41.3125 65.921875 37.59375 65.921875 
Q 27.828125 65.921875 22.671875 59.328125 
Q 17.53125 52.734375 16.796875 39.40625 
Q 19.671875 43.65625 24.015625 45.921875 
Q 28.375 48.1875 33.59375 48.1875 
Q 44.578125 48.1875 50.953125 41.515625 
Q 57.328125 34.859375 57.328125 23.390625 
Q 57.328125 12.15625 50.6875 5.359375 
Q 44.046875 -1.421875 33.015625 -1.421875 
Q 20.359375 -1.421875 13.671875 8.265625 
Q 6.984375 17.96875 6.984375 36.375 
Q 6.984375 53.65625 15.1875 63.9375 
Q 23.390625 74.21875 37.203125 74.21875 
Q 40.921875 74.21875 44.703125 73.484375 
Q 48.484375 72.75 52.59375 71.296875 
z
" id="DejaVuSans-54"/>
       </defs>
       <use xlink:href="#DejaVuSans-48"/>
       <use x="63.623047" xlink:href="#DejaVuSans-46"/>
       <use x="95.410156" xlink:href="#DejaVuSans-54"/>
      </g>
     </g>
    </g>
    <g id="ytick_6">
     <g id="line2d_15">
      <g>
       <use style="stroke:#000000;stroke-width:0.8;" x="90" xlink:href="#m52c00c77e7" y="221.126009"/>
      </g>
     </g>
     <g id="text_15">
      <!-- 0.8 -->
      <g transform="translate(67.096875 224.925228)scale(0.1 -0.1)">
       <defs>
        <path d="M 31.78125 34.625 
Q 24.75 34.625 20.71875 30.859375 
Q 16.703125 27.09375 16.703125 20.515625 
Q 16.703125 13.921875 20.71875 10.15625 
Q 24.75 6.390625 31.78125 6.390625 
Q 38.8125 6.390625 42.859375 10.171875 
Q 46.921875 13.96875 46.921875 20.515625 
Q 46.921875 27.09375 42.890625 30.859375 
Q 38.875 34.625 31.78125 34.625 
z
M 21.921875 38.8125 
Q 15.578125 40.375 12.03125 44.71875 
Q 8.5 49.078125 8.5 55.328125 
Q 8.5 64.0625 14.71875 69.140625 
Q 20.953125 74.21875 31.78125 74.21875 
Q 42.671875 74.21875 48.875 69.140625 
Q 55.078125 64.0625 55.078125 55.328125 
Q 55.078125 49.078125 51.53125 44.71875 
Q 48 40.375 41.703125 38.8125 
Q 48.828125 37.15625 52.796875 32.3125 
Q 56.78125 27.484375 56.78125 20.515625 
Q 56.78125 9.90625 50.3125 4.234375 
Q 43.84375 -1.421875 31.78125 -1.421875 
Q 19.734375 -1.421875 13.25 4.234375 
Q 6.78125 9.90625 6.78125 20.515625 
Q 6.78125 27.484375 10.78125 32.3125 
Q 14.796875 37.15625 21.921875 38.8125 
z
M 18.3125 54.390625 
Q 18.3125 48.734375 21.84375 45.5625 
Q 25.390625 42.390625 31.78125 42.390625 
Q 38.140625 42.390625 41.71875 45.5625 
Q 45.3125 48.734375 45.3125 54.390625 
Q 45.3125 60.0625 41.71875 63.234375 
Q 38.140625 66.40625 31.78125 66.40625 
Q 25.390625 66.40625 21.84375 63.234375 
Q 18.3125 60.0625 18.3125 54.390625 
z
" id="DejaVuSans-56"/>
       </defs>
       <use xlink:href="#DejaVuSans-48"/>
       <use x="63.623047" xlink:href="#DejaVuSans-46"/>
       <use x="95.410156" xlink:href="#DejaVuSans-56"/>
      </g>
     </g>
    </g>
    <g id="ytick_7">
     <g id="line2d_16">
      <g>
       <use style="stroke:#000000;stroke-width:0.8;" x="90" xlink:href="#m52c00c77e7" y="170.398737"/>
      </g>
     </g>
     <g id="text_16">
      <!-- 1.0 -->
      <g transform="translate(67.096875 174.197955)scale(0.1 -0.1)">
       <use xlink:href="#DejaVuSans-49"/>
       <use x="63.623047" xlink:href="#DejaVuSans-46"/>
       <use x="95.410156" xlink:href="#DejaVuSans-48"/>
      </g>
     </g>
    </g>
    <g id="ytick_8">
     <g id="line2d_17">
      <g>
       <use style="stroke:#000000;stroke-width:0.8;" x="90" xlink:href="#m52c00c77e7" y="119.671464"/>
      </g>
     </g>
     <g id="text_17">
      <!-- 1.2 -->
      <g transform="translate(67.096875 123.470683)scale(0.1 -0.1)">
       <use xlink:href="#DejaVuSans-49"/>
       <use x="63.623047" xlink:href="#DejaVuSans-46"/>
       <use x="95.410156" xlink:href="#DejaVuSans-50"/>
      </g>
     </g>
    </g>
   </g>
   <g id="line2d_18">
    <path clip-path="url(#pc6b4e8e2b7)" d="M 115.363636 474.762373 
L 216.818182 347.944191 
" style="fill:none;stroke:#0000ff;stroke-linecap:square;stroke-width:1.5;"/>
   </g>
   <g id="line2d_19">
    <path clip-path="url(#pc6b4e8e2b7)" d="M 495.838473 423.715518 
L 482.760982 421.085309 
L 470.406355 418.772146 
L 458.7264 416.732909 
L 447.672927 414.929555 
L 437.202818 413.331646 
L 427.280564 411.913818 
L 417.868118 410.660855 
L 408.929973 409.555 
L 400.438227 408.5785 
L 392.362445 407.721209 
L 384.677264 406.975518 
L 377.357318 406.326209 
L 370.379782 405.768209 
L 363.7269 405.293909 
L 357.375845 404.898237 
L 351.3114 404.573582 
L 345.515809 404.317409 
L 339.945955 404.122109 
L 334.5993 404.0029 
L 329.480918 403.9471 
L 324.578127 403.954709 
L 319.878245 404.018118 
L 315.371127 404.132255 
L 311.046627 404.297118 
L 306.897136 404.5051 
L 302.912509 404.7562 
L 299.085136 405.045346 
L 295.407409 405.37 
L 291.871718 405.730164 
L 288.470455 406.120764 
L 285.198545 406.5418 
L 282.050918 406.993273 
L 279.017427 407.472646 
L 276.098073 407.979918 
L 273.285245 408.512555 
L 270.576409 409.073091 
L 267.963955 409.658991 
L 265.445345 410.272791 
L 263.018045 410.917027 
L 260.676982 411.5917 
L 258.417082 412.301882 
L 256.240882 413.047573 
L 254.140773 413.838918 
L 252.119291 414.683527 
L 250.168827 415.594082 
L 248.294455 416.590873 
L 246.496173 417.711946 
L 244.779055 419.038464 
L 243.163391 420.801237 
L 242.427845 422.181018 
L 242.181818 424.0351 
L 242.788009 425.802946 
L 243.777191 427.012791 
L 245.689609 428.430618 
L 247.609636 429.407118 
L 249.562636 430.175637 
L 251.561291 430.8148 
L 253.610673 431.362655 
L 255.715855 431.842027 
L 257.879373 432.2656 
L 260.108836 432.640982 
L 262.406782 432.975782 
L 264.773209 433.275073 
L 267.218264 433.541391 
L 269.741945 433.777273 
L 272.346791 433.987791 
L 275.042945 434.170409 
L 277.830409 434.327664 
L 280.714255 434.459555 
L 283.702091 434.568618 
L 286.796455 434.657391 
L 290.004955 434.7208 
L 293.332664 434.761382 
L 296.784655 434.781673 
L 300.373609 434.779137 
L 304.099527 434.756309 
L 307.975091 434.710655 
L 312.007909 434.644709 
L 316.205591 434.555937 
L 320.578282 434.446873 
L 325.138664 434.317518 
L 329.896882 434.170409 
L 334.863082 434.000473 
L 340.052482 433.815318 
L 345.492982 433.609873 
L 351.215018 433.376527 
L 357.208445 433.107673 
L 363.485945 432.803309 
L 370.070345 432.465973 
L 376.9794 432.090591 
L 384.235936 431.6797 
L 391.862782 431.2333 
L 399.890373 430.746318 
L 408.341536 430.221291 
L 417.251782 429.655682 
L 426.656618 429.052027 
L 436.589018 428.405255 
L 447.0921 427.710291 
L 458.211518 426.969673 
L 469.995464 426.168182 
L 482.504809 425.303282 
L 495.797891 424.354682 
" style="fill:none;stroke:#0000ff;stroke-linecap:square;stroke-width:1.5;"/>
   </g>
   <g id="line2d_20">
    <path clip-path="url(#pc6b4e8e2b7)" d="M 622.636364 170.398737 
L 622.381038 166.377083 
L 621.616088 162.371624 
L 620.344594 158.398487 
L 618.571676 154.473671 
L 616.304474 150.612979 
L 613.552115 146.831958 
L 610.325684 143.145832 
L 606.638171 139.569444 
L 602.504425 136.117194 
L 597.941092 132.802984 
L 592.966545 129.640159 
L 587.600817 126.641454 
L 581.865512 123.818944 
L 575.783725 121.183995 
L 569.379944 118.747216 
L 562.679957 116.51842 
L 555.710741 114.50658 
L 548.500358 112.719799 
L 541.077844 111.16527 
L 533.473084 109.849254 
L 525.716701 108.777048 
L 517.839928 107.952972 
L 509.874481 107.380343 
L 501.852434 107.061467 
L 493.806089 106.997627 
L 485.767846 107.189081 
L 477.770073 107.635059 
L 469.844973 108.333763 
L 462.024457 109.282381 
L 454.340017 110.477094 
L 446.822595 111.913089 
L 439.502461 113.584586 
L 432.409091 115.484853 
L 425.571046 117.606239 
L 419.015862 119.940202 
L 412.769934 122.477343 
L 406.858412 125.207447 
L 401.305099 128.11952 
L 396.132358 131.201837 
L 391.361015 134.441986 
L 387.010285 137.82692 
L 383.097686 141.343009 
L 379.638973 144.976096 
L 376.648072 148.71155 
L 374.137027 152.534331 
L 372.11595 156.429046 
L 370.592977 160.380012 
L 369.574243 164.371319 
L 369.063848 168.386897 
L 369.063848 172.410576 
L 369.574243 176.426154 
L 370.592977 180.417461 
L 372.11595 184.368427 
L 374.137027 188.263142 
L 376.648072 192.085923 
L 379.638973 195.821377 
L 383.097686 199.454464 
L 387.010285 202.970553 
L 391.361015 206.355487 
L 396.132358 209.595636 
L 401.305099 212.677953 
L 406.858412 215.590026 
L 412.769934 218.32013 
L 419.015862 220.857271 
L 425.571046 223.191234 
L 432.409091 225.31262 
L 439.502461 227.212887 
L 446.822595 228.884384 
L 454.340017 230.320379 
L 462.024457 231.515092 
L 469.844973 232.46371 
L 477.770073 233.162414 
L 485.767846 233.608392 
L 493.806089 233.799846 
L 501.852434 233.736006 
L 509.874481 233.41713 
L 517.839928 232.844501 
L 525.716701 232.020425 
L 533.473084 230.94822 
L 541.077844 229.632203 
L 548.500358 228.077674 
L 555.710741 226.290893 
L 562.679957 224.279054 
L 569.379944 222.050257 
L 575.783725 219.613478 
L 581.865512 216.978529 
L 587.600817 214.156019 
L 592.966545 211.157315 
L 597.941092 207.994489 
L 602.504425 204.680279 
L 606.638171 201.22803 
L 610.325684 197.651641 
L 613.552115 193.965515 
L 616.304474 190.184494 
L 618.571676 186.323802 
L 620.344594 182.398986 
L 621.616088 178.425849 
L 622.381038 174.42039 
L 622.636364 170.398737 
" style="fill:none;stroke:#0000ff;stroke-linecap:square;stroke-width:1.5;"/>
   </g>
   <g id="line2d_21">
    <path clip-path="url(#pc6b4e8e2b7)" d="M 216.818182 347.944191 
L 115.363636 474.762373 
" style="fill:none;stroke:#ff0000;stroke-dasharray:5.55,2.4;stroke-dashoffset:0;stroke-width:1.5;"/>
   </g>
   <g id="line2d_22">
    <path clip-path="url(#pc6b4e8e2b7)" d="M 495.797891 424.354682 
L 482.504809 425.303282 
L 469.995464 426.168182 
L 458.211518 426.969673 
L 447.0921 427.710291 
L 436.589018 428.405255 
L 426.656618 429.052027 
L 417.251782 429.655682 
L 408.341536 430.221291 
L 399.890373 430.746318 
L 391.862782 431.2333 
L 384.235936 431.6797 
L 376.9794 432.090591 
L 370.070345 432.465973 
L 363.485945 432.803309 
L 357.208445 433.107673 
L 351.215018 433.376527 
L 345.492982 433.609873 
L 340.052482 433.815318 
L 334.863082 434.000473 
L 329.896882 434.170409 
L 325.138664 434.317518 
L 320.578282 434.446873 
L 316.205591 434.555937 
L 312.007909 434.644709 
L 307.975091 434.710655 
L 304.099527 434.756309 
L 300.373609 434.779137 
L 296.784655 434.781673 
L 293.332664 434.761382 
L 290.004955 434.7208 
L 286.796455 434.657391 
L 283.702091 434.568618 
L 280.714255 434.459555 
L 277.830409 434.327664 
L 275.042945 434.170409 
L 272.346791 433.987791 
L 269.741945 433.777273 
L 267.218264 433.541391 
L 264.773209 433.275073 
L 262.406782 432.975782 
L 260.108836 432.640982 
L 257.879373 432.2656 
L 255.715855 431.842027 
L 253.610673 431.362655 
L 251.561291 430.8148 
L 249.562636 430.175637 
L 247.609636 429.407118 
L 245.689609 428.430618 
L 243.777191 427.012791 
L 242.788009 425.802946 
L 242.181818 424.0351 
L 242.427845 422.181018 
L 243.163391 420.801237 
L 244.779055 419.038464 
L 246.496173 417.711946 
L 248.294455 416.590873 
L 250.168827 415.594082 
L 252.119291 414.683527 
L 254.140773 413.838918 
L 256.240882 413.047573 
L 258.417082 412.301882 
L 260.676982 411.5917 
L 263.018045 410.917027 
L 265.445345 410.272791 
L 267.963955 409.658991 
L 270.576409 409.073091 
L 273.285245 408.512555 
L 276.098073 407.979918 
L 279.017427 407.472646 
L 282.050918 406.993273 
L 285.198545 406.5418 
L 288.470455 406.120764 
L 291.871718 405.730164 
L 295.407409 405.37 
L 299.085136 405.045346 
L 302.912509 404.7562 
L 306.897136 404.5051 
L 311.046627 404.297118 
L 315.371127 404.132255 
L 319.878245 404.018118 
L 324.578127 403.954709 
L 329.480918 403.9471 
L 334.5993 404.0029 
L 339.945955 404.122109 
L 345.515809 404.317409 
L 351.3114 404.573582 
L 357.375845 404.898237 
L 363.7269 405.293909 
L 370.379782 405.768209 
L 377.357318 406.326209 
L 384.677264 406.975518 
L 392.362445 407.721209 
L 400.438227 408.5785 
L 408.929973 409.555 
L 417.868118 410.660855 
L 427.280564 411.913818 
L 437.202818 413.331646 
L 447.672927 414.929555 
L 458.7264 416.732909 
L 470.406355 418.772146 
L 482.760982 421.085309 
L 495.838473 423.715518 
" style="fill:none;stroke:#ff0000;stroke-dasharray:5.55,2.4;stroke-dashoffset:0;stroke-width:1.5;"/>
   </g>
   <g id="line2d_23">
    <path clip-path="url(#pc6b4e8e2b7)" d="M 622.636364 170.398737 
L 622.381038 174.42039 
L 621.616088 178.425849 
L 620.344594 182.398986 
L 618.571676 186.323802 
L 616.304474 190.184494 
L 613.552115 193.965515 
L 610.325684 197.651641 
L 606.638171 201.22803 
L 602.504425 204.680279 
L 597.941092 207.994489 
L 592.966545 211.157315 
L 587.600817 214.156019 
L 581.865512 216.978529 
L 575.783725 219.613478 
L 569.379944 222.050257 
L 562.679957 224.279054 
L 555.710741 226.290893 
L 548.500358 228.077674 
L 541.077844 229.632203 
L 533.473084 230.94822 
L 525.716701 232.020425 
L 517.839928 232.844501 
L 509.874481 233.41713 
L 501.852434 233.736006 
L 493.806089 233.799846 
L 485.767846 233.608392 
L 477.770073 233.162414 
L 469.844973 232.46371 
L 462.024457 231.515092 
L 454.340017 230.320379 
L 446.822595 228.884384 
L 439.502461 227.212887 
L 432.409091 225.31262 
L 425.571046 223.191234 
L 419.015862 220.857271 
L 412.769934 218.32013 
L 406.858412 215.590026 
L 401.305099 212.677953 
L 396.132358 209.595636 
L 391.361015 206.355487 
L 387.010285 202.970553 
L 383.097686 199.454464 
L 379.638973 195.821377 
L 376.648072 192.085923 
L 374.137027 188.263142 
L 372.11595 184.368427 
L 370.592977 180.417461 
L 369.574243 176.426154 
L 369.063848 172.410576 
L 369.063848 168.386897 
L 369.574243 164.371319 
L 370.592977 160.380012 
L 372.11595 156.429046 
L 374.137027 152.534331 
L 376.648072 148.71155 
L 379.638973 144.976096 
L 383.097686 141.343009 
L 387.010285 137.82692 
L 391.361015 134.441986 
L 396.132358 131.201837 
L 401.305099 128.11952 
L 406.858412 125.207447 
L 412.769934 122.477343 
L 419.015862 119.940202 
L 425.571046 117.606239 
L 432.409091 115.484853 
L 439.502461 113.584586 
L 446.822595 111.913089 
L 454.340017 110.477094 
L 462.024457 109.282381 
L 469.844973 108.333763 
L 477.770073 107.635059 
L 485.767846 107.189081 
L 493.806089 106.997627 
L 501.852434 107.061467 
L 509.874481 107.380343 
L 517.839928 107.952972 
L 525.716701 108.777048 
L 533.473084 109.849254 
L 541.077844 111.16527 
L 548.500358 112.719799 
L 555.710741 114.50658 
L 562.679957 116.51842 
L 569.379944 118.747216 
L 575.783725 121.183995 
L 581.865512 123.818944 
L 587.600817 126.641454 
L 592.966545 129.640159 
L 597.941092 132.802984 
L 602.504425 136.117194 
L 606.638171 139.569444 
L 610.325684 143.145832 
L 613.552115 146.831958 
L 616.304474 150.612979 
L 618.571676 154.473671 
L 620.344594 158.398487 
L 621.616088 162.371624 
L 622.381038 166.377083 
L 622.636364 170.398737 
" style="fill:none;stroke:#ff0000;stroke-dasharray:5.55,2.4;stroke-dashoffset:0;stroke-width:1.5;"/>
   </g>
   <g id="patch_3">
    <path d="M 90 512.64 
L 90 69.12 
" style="fill:none;stroke:#000000;stroke-linecap:square;stroke-linejoin:miter;stroke-width:0.8;"/>
   </g>
   <g id="patch_4">
    <path d="M 648 512.64 
L 648 69.12 
" style="fill:none;stroke:#000000;stroke-linecap:square;stroke-linejoin:miter;stroke-width:0.8;"/>
   </g>
   <g id="patch_5">
    <path d="M 90 512.64 
L 648 512.64 
" style="fill:none;stroke:#000000;stroke-linecap:square;stroke-linejoin:miter;stroke-width:0.8;"/>
   </g>
   <g id="patch_6">
    <path d="M 90 69.12 
L 648 69.12 
" style="fill:none;stroke:#000000;stroke-linecap:square;stroke-linejoin:miter;stroke-width:0.8;"/>
   </g>
   <g id="text_18">
    <!-- Example of 3.7 -->
    <g transform="translate(323.829375 63.12)scale(0.12 -0.12)">
     <defs>
      <path d="M 9.8125 72.90625 
L 55.90625 72.90625 
L 55.90625 64.59375 
L 19.671875 64.59375 
L 19.671875 43.015625 
L 54.390625 43.015625 
L 54.390625 34.71875 
L 19.671875 34.71875 
L 19.671875 8.296875 
L 56.78125 8.296875 
L 56.78125 0 
L 9.8125 0 
z
" id="DejaVuSans-69"/>
      <path d="M 54.890625 54.6875 
L 35.109375 28.078125 
L 55.90625 0 
L 45.3125 0 
L 29.390625 21.484375 
L 13.484375 0 
L 2.875 0 
L 24.125 28.609375 
L 4.6875 54.6875 
L 15.28125 54.6875 
L 29.78125 35.203125 
L 44.28125 54.6875 
z
" id="DejaVuSans-120"/>
      <path d="M 34.28125 27.484375 
Q 23.390625 27.484375 19.1875 25 
Q 14.984375 22.515625 14.984375 16.5 
Q 14.984375 11.71875 18.140625 8.90625 
Q 21.296875 6.109375 26.703125 6.109375 
Q 34.1875 6.109375 38.703125 11.40625 
Q 43.21875 16.703125 43.21875 25.484375 
L 43.21875 27.484375 
z
M 52.203125 31.203125 
L 52.203125 0 
L 43.21875 0 
L 43.21875 8.296875 
Q 40.140625 3.328125 35.546875 0.953125 
Q 30.953125 -1.421875 24.3125 -1.421875 
Q 15.921875 -1.421875 10.953125 3.296875 
Q 6 8.015625 6 15.921875 
Q 6 25.140625 12.171875 29.828125 
Q 18.359375 34.515625 30.609375 34.515625 
L 43.21875 34.515625 
L 43.21875 35.40625 
Q 43.21875 41.609375 39.140625 45 
Q 35.0625 48.390625 27.6875 48.390625 
Q 23 48.390625 18.546875 47.265625 
Q 14.109375 46.140625 10.015625 43.890625 
L 10.015625 52.203125 
Q 14.9375 54.109375 19.578125 55.046875 
Q 24.21875 56 28.609375 56 
Q 40.484375 56 46.34375 49.84375 
Q 52.203125 43.703125 52.203125 31.203125 
z
" id="DejaVuSans-97"/>
      <path d="M 52 44.1875 
Q 55.375 50.25 60.0625 53.125 
Q 64.75 56 71.09375 56 
Q 79.640625 56 84.28125 50.015625 
Q 88.921875 44.046875 88.921875 33.015625 
L 88.921875 0 
L 79.890625 0 
L 79.890625 32.71875 
Q 79.890625 40.578125 77.09375 44.375 
Q 74.3125 48.1875 68.609375 48.1875 
Q 61.625 48.1875 57.5625 43.546875 
Q 53.515625 38.921875 53.515625 30.90625 
L 53.515625 0 
L 44.484375 0 
L 44.484375 32.71875 
Q 44.484375 40.625 41.703125 44.40625 
Q 38.921875 48.1875 33.109375 48.1875 
Q 26.21875 48.1875 22.15625 43.53125 
Q 18.109375 38.875 18.109375 30.90625 
L 18.109375 0 
L 9.078125 0 
L 9.078125 54.6875 
L 18.109375 54.6875 
L 18.109375 46.1875 
Q 21.1875 51.21875 25.484375 53.609375 
Q 29.78125 56 35.6875 56 
Q 41.65625 56 45.828125 52.96875 
Q 50 49.953125 52 44.1875 
z
" id="DejaVuSans-109"/>
      <path d="M 18.109375 8.203125 
L 18.109375 -20.796875 
L 9.078125 -20.796875 
L 9.078125 54.6875 
L 18.109375 54.6875 
L 18.109375 46.390625 
Q 20.953125 51.265625 25.265625 53.625 
Q 29.59375 56 35.59375 56 
Q 45.5625 56 51.78125 48.09375 
Q 58.015625 40.1875 58.015625 27.296875 
Q 58.015625 14.40625 51.78125 6.484375 
Q 45.5625 -1.421875 35.59375 -1.421875 
Q 29.59375 -1.421875 25.265625 0.953125 
Q 20.953125 3.328125 18.109375 8.203125 
z
M 48.6875 27.296875 
Q 48.6875 37.203125 44.609375 42.84375 
Q 40.53125 48.484375 33.40625 48.484375 
Q 26.265625 48.484375 22.1875 42.84375 
Q 18.109375 37.203125 18.109375 27.296875 
Q 18.109375 17.390625 22.1875 11.75 
Q 26.265625 6.109375 33.40625 6.109375 
Q 40.53125 6.109375 44.609375 11.75 
Q 48.6875 17.390625 48.6875 27.296875 
z
" id="DejaVuSans-112"/>
      <path d="M 9.421875 75.984375 
L 18.40625 75.984375 
L 18.40625 0 
L 9.421875 0 
z
" id="DejaVuSans-108"/>
      <path d="M 56.203125 29.59375 
L 56.203125 25.203125 
L 14.890625 25.203125 
Q 15.484375 15.921875 20.484375 11.0625 
Q 25.484375 6.203125 34.421875 6.203125 
Q 39.59375 6.203125 44.453125 7.46875 
Q 49.3125 8.734375 54.109375 11.28125 
L 54.109375 2.78125 
Q 49.265625 0.734375 44.1875 -0.34375 
Q 39.109375 -1.421875 33.890625 -1.421875 
Q 20.796875 -1.421875 13.15625 6.1875 
Q 5.515625 13.8125 5.515625 26.8125 
Q 5.515625 40.234375 12.765625 48.109375 
Q 20.015625 56 32.328125 56 
Q 43.359375 56 49.78125 48.890625 
Q 56.203125 41.796875 56.203125 29.59375 
z
M 47.21875 32.234375 
Q 47.125 39.59375 43.09375 43.984375 
Q 39.0625 48.390625 32.421875 48.390625 
Q 24.90625 48.390625 20.390625 44.140625 
Q 15.875 39.890625 15.1875 32.171875 
z
" id="DejaVuSans-101"/>
      <path id="DejaVuSans-32"/>
      <path d="M 30.609375 48.390625 
Q 23.390625 48.390625 19.1875 42.75 
Q 14.984375 37.109375 14.984375 27.296875 
Q 14.984375 17.484375 19.15625 11.84375 
Q 23.34375 6.203125 30.609375 6.203125 
Q 37.796875 6.203125 41.984375 11.859375 
Q 46.1875 17.53125 46.1875 27.296875 
Q 46.1875 37.015625 41.984375 42.703125 
Q 37.796875 48.390625 30.609375 48.390625 
z
M 30.609375 56 
Q 42.328125 56 49.015625 48.375 
Q 55.71875 40.765625 55.71875 27.296875 
Q 55.71875 13.875 49.015625 6.21875 
Q 42.328125 -1.421875 30.609375 -1.421875 
Q 18.84375 -1.421875 12.171875 6.21875 
Q 5.515625 13.875 5.515625 27.296875 
Q 5.515625 40.765625 12.171875 48.375 
Q 18.84375 56 30.609375 56 
z
" id="DejaVuSans-111"/>
      <path d="M 37.109375 75.984375 
L 37.109375 68.5 
L 28.515625 68.5 
Q 23.6875 68.5 21.796875 66.546875 
Q 19.921875 64.59375 19.921875 59.515625 
L 19.921875 54.6875 
L 34.71875 54.6875 
L 34.71875 47.703125 
L 19.921875 47.703125 
L 19.921875 0 
L 10.890625 0 
L 10.890625 47.703125 
L 2.296875 47.703125 
L 2.296875 54.6875 
L 10.890625 54.6875 
L 10.890625 58.5 
Q 10.890625 67.625 15.140625 71.796875 
Q 19.390625 75.984375 28.609375 75.984375 
z
" id="DejaVuSans-102"/>
      <path d="M 40.578125 39.3125 
Q 47.65625 37.796875 51.625 33 
Q 55.609375 28.21875 55.609375 21.1875 
Q 55.609375 10.40625 48.1875 4.484375 
Q 40.765625 -1.421875 27.09375 -1.421875 
Q 22.515625 -1.421875 17.65625 -0.515625 
Q 12.796875 0.390625 7.625 2.203125 
L 7.625 11.71875 
Q 11.71875 9.328125 16.59375 8.109375 
Q 21.484375 6.890625 26.8125 6.890625 
Q 36.078125 6.890625 40.9375 10.546875 
Q 45.796875 14.203125 45.796875 21.1875 
Q 45.796875 27.640625 41.28125 31.265625 
Q 36.765625 34.90625 28.71875 34.90625 
L 20.21875 34.90625 
L 20.21875 43.015625 
L 29.109375 43.015625 
Q 36.375 43.015625 40.234375 45.921875 
Q 44.09375 48.828125 44.09375 54.296875 
Q 44.09375 59.90625 40.109375 62.90625 
Q 36.140625 65.921875 28.71875 65.921875 
Q 24.65625 65.921875 20.015625 65.03125 
Q 15.375 64.15625 9.8125 62.3125 
L 9.8125 71.09375 
Q 15.4375 72.65625 20.34375 73.4375 
Q 25.25 74.21875 29.59375 74.21875 
Q 40.828125 74.21875 47.359375 69.109375 
Q 53.90625 64.015625 53.90625 55.328125 
Q 53.90625 49.265625 50.4375 45.09375 
Q 46.96875 40.921875 40.578125 39.3125 
z
" id="DejaVuSans-51"/>
     </defs>
     <use xlink:href="#DejaVuSans-69"/>
     <use x="63.183594" xlink:href="#DejaVuSans-120"/>
     <use x="122.363281" xlink:href="#DejaVuSans-97"/>
     <use x="183.642578" xlink:href="#DejaVuSans-109"/>
     <use x="281.054688" xlink:href="#DejaVuSans-112"/>
     <use x="344.53125" xlink:href="#DejaVuSans-108"/>
     <use x="372.314453" xlink:href="#DejaVuSans-101"/>
     <use x="433.837891" xlink:href="#DejaVuSans-32"/>
     <use x="465.625" xlink:href="#DejaVuSans-111"/>
     <use x="526.806641" xlink:href="#DejaVuSans-102"/>
     <use x="562.011719" xlink:href="#DejaVuSans-32"/>
     <use x="593.798828" xlink:href="#DejaVuSans-51"/>
     <use x="657.421875" xlink:href="#DejaVuSans-46"/>
     <use x="689.208984" xlink:href="#DejaVuSans-55"/>
    </g>
   </g>
  </g>
 </g>
 <defs>
  <clipPath id="pc6b4e8e2b7">
   <rect height="443.52" width="558" x="90" y="69.12"/>
  </clipPath>
 </defs>
</svg>
