<?xml version="1.0" encoding="utf-8" standalone="no"?>
<!DOCTYPE svg PUBLIC "-//W3C//DTD SVG 1.1//EN"
  "http://www.w3.org/Graphics/SVG/1.1/DTD/svg11.dtd">
<!-- Created with matplotlib (https://matplotlib.org/) -->
<svg height="576pt" version="1.1" viewBox="0 0 720 576" width="720pt" xmlns="http://www.w3.org/2000/svg" xmlns:xlink="http://www.w3.org/1999/xlink">
 <metadata>
  <rdf:RDF xmlns:cc="http://creativecommons.org/ns#" xmlns:dc="http://purl.org/dc/elements/1.1/" xmlns:rdf="http://www.w3.org/1999/02/22-rdf-syntax-ns#">
   <cc:Work>
    <dc:type rdf:resource="http://purl.org/dc/dcmitype/StillImage"/>
    <dc:date>2025-09-02T21:31:19.914014</dc:date>
    <dc:format>image/svg+xml</dc:format>
    <dc:creator>
     <cc:Agent>
      <dc:title>Matplotlib v3.3.2, https://matplotlib.org/</dc:title>
     </cc:Agent>
    </dc:creator>
   </cc:Work>
  </rdf:RDF>
 </metadata>
 <defs>
  <style type="text/css">*{stroke-linecap:butt;stroke-linejoin:round;}</style>
 </defs>
 <g id="figure_1">
  <g id="patch_1">
   <path d="M 0 576 
L 720 576 
L 720 0 
L 0 0 
z
" style="fill:#ffffff;"/>
  </g>
  <g id="axes_1">
   <g id="patch_2">
    <path d="M 90 512.64 
L 648 512.64 
L 648 69.12 
L 90 69.12 
z
" style="fill:#ffffff;"/>
   </g>
   <g id="Quiver_1">
    <path clip-path="url(#pf95d80149d)" d="M 623.630912 299.781596 
L 623.430884 300.776144 
L 625.620009 300.181653 
L 620.636079 309.527051 
L 619.652719 298.981482 
L 621.441787 300.376087 
L 621.641815 299.381539 
L 623.630912 299.781596 
" style="fill:#0000ff;"/>
    <path clip-path="url(#pf95d80149d)" d="M 597.480611 294.508265 
L 597.293917 295.505402 
L 599.474886 294.881654 
L 594.616528 304.292944 
L 593.492062 293.761486 
L 595.299642 295.132013 
L 595.486337 294.134876 
L 597.480611 294.508265 
" style="fill:#0000ff;"/>
    <path clip-path="url(#pf95d80149d)" d="M 572.775543 289.870092 
L 572.601064 290.869439 
L 574.774238 290.21905 
L 570.031407 299.689085 
L 568.778154 289.172176 
L 570.60237 290.520481 
L 570.776849 289.521134 
L 572.775543 289.870092 
" style="fill:#0000ff;"/>
    <path clip-path="url(#pf95d80149d)" d="M 549.419382 285.780815 
L 549.256034 286.782042 
L 551.421836 286.107512 
L 546.784672 295.629735 
L 545.414475 285.127421 
L 547.25358 286.455345 
L 547.416929 285.454118 
L 549.419382 285.780815 
" style="fill:#0000ff;"/>
    <path clip-path="url(#pf95d80149d)" d="M 527.315831 282.164097 
L 527.162779 283.16695 
L 529.321536 282.470201 
L 524.782463 292.03957 
L 523.304421 281.551891 
L 525.157075 282.860847 
L 525.310126 281.857994 
L 527.315831 282.164097 
" style="fill:#0000ff;"/>
    <path clip-path="url(#pf95d80149d)" d="M 506.378699 278.958986 
L 506.235196 279.963249 
L 508.387225 279.245992 
L 503.939407 288.858116 
L 502.361646 278.384975 
L 504.226669 279.676244 
L 504.370172 278.67198 
L 506.378699 278.958986 
" style="fill:#0000ff;"/>
    <path clip-path="url(#pf95d80149d)" d="M 486.537108 276.113918 
L 486.403245 277.119512 
L 488.548295 276.381643 
L 484.19289 286.035993 
L 482.514733 275.578468 
L 484.392058 276.851787 
L 484.52592 275.846193 
L 486.537108 276.113918 
" style="fill:#0000ff;"/>
    <path clip-path="url(#pf95d80149d)" d="M 467.714917 273.598892 
L 467.590354 274.60568 
L 469.728493 273.848017 
L 465.4625 283.542208 
L 463.687765 273.10064 
L 465.576778 274.356554 
L 465.701341 273.349766 
L 467.714917 273.598892 
" style="fill:#0000ff;"/>
    <path clip-path="url(#pf95d80149d)" d="M 449.841091 271.37869 
L 449.725197 272.386513 
L 451.856736 271.610477 
L 447.674332 281.341023 
L 445.8098 270.915116 
L 447.709552 272.154726 
L 447.825445 271.146903 
L 449.841091 271.37869 
" style="fill:#0000ff;"/>
    <path clip-path="url(#pf95d80149d)" d="M 432.859932 269.417042 
L 432.752842 270.425839 
L 434.877524 269.631221 
L 430.78024 279.397914 
L 428.824747 268.988684 
L 430.73525 270.211659 
L 430.842339 269.202863 
L 432.859932 269.417042 
" style="fill:#0000ff;"/>
    <path clip-path="url(#pf95d80149d)" d="M 416.710586 267.693481 
L 416.612613 268.703204 
L 418.730031 267.889427 
L 414.721133 277.692731 
L 412.671697 267.301589 
L 414.593169 268.507257 
L 414.691142 267.497535 
L 416.710586 267.693481 
" style="fill:#0000ff;"/>
    <path clip-path="url(#pf95d80149d)" d="M 401.342226 266.193881 
L 401.252591 267.204377 
L 403.36322 266.373151 
L 399.435378 276.209212 
L 397.30024 265.83534 
L 399.231598 267.025107 
L 399.321233 266.014611 
L 401.342226 266.193881 
" style="fill:#0000ff;"/>
    <path clip-path="url(#pf95d80149d)" d="M 386.704246 264.886601 
L 386.623376 265.897837 
L 388.726718 265.04834 
L 384.884315 274.91809 
L 382.659302 264.563123 
L 384.600905 265.736098 
L 384.681774 264.724862 
L 386.704246 264.886601 
" style="fill:#0000ff;"/>
    <path clip-path="url(#pf95d80149d)" d="M 372.75095 263.761961 
L 372.678809 264.773857 
L 374.774742 263.906242 
L 371.017649 273.808781 
L 368.703366 263.473399 
L 370.655017 264.629576 
L 370.727158 263.61768 
L 372.75095 263.761961 
" style="fill:#0000ff;"/>
    <path clip-path="url(#pf95d80149d)" d="M 359.446856 262.804376 
L 359.383776 263.816877 
L 361.471858 262.930534 
L 357.803563 272.866309 
L 355.396851 262.552059 
L 357.358774 263.690719 
L 357.421853 262.678217 
L 359.446856 262.804376 
" style="fill:#0000ff;"/>
    <path clip-path="url(#pf95d80149d)" d="M 346.746275 262.004245 
L 346.692044 263.017259 
L 348.772303 262.112707 
L 345.190954 272.080152 
L 342.69422 261.787322 
L 344.666017 262.908797 
L 344.720248 261.895784 
L 346.746275 262.004245 
" style="fill:#0000ff;"/>
    <path clip-path="url(#pf95d80149d)" d="M 334.618815 261.345554 
L 334.574018 262.359029 
L 336.645765 261.435148 
L 333.157372 271.435505 
L 330.564916 261.166367 
L 332.547069 262.269435 
L 332.591866 261.25596 
L 334.618815 261.345554 
" style="fill:#0000ff;"/>
    <path clip-path="url(#pf95d80149d)" d="M 323.028927 260.824002 
L 322.993378 261.837843 
L 325.05661 260.8951 
L 321.659595 270.926865 
L 318.973562 260.681806 
L 320.965696 261.766745 
L 321.001245 260.752904 
L 323.028927 260.824002 
" style="fill:#0000ff;"/>
    <path clip-path="url(#pf95d80149d)" d="M 311.89048 260.420497 
L 311.867867 261.434709 
L 313.918905 260.465723 
L 310.650139 270.540006 
L 307.833631 260.330045 
L 309.839443 261.389483 
L 309.862056 260.375271 
L 311.89048 260.420497 
" style="fill:#0000ff;"/>
    <path clip-path="url(#pf95d80149d)" d="M 301.198218 260.170544 
L 301.187159 261.184948 
L 303.227026 260.192662 
L 300.073225 270.303525 
L 297.140602 260.126308 
L 299.158351 261.16283 
L 299.16941 260.148426 
L 301.198218 260.170544 
" style="fill:#0000ff;"/>
    <path clip-path="url(#pf95d80149d)" d="M 290.962333 260.046319 
L 290.963907 261.060782 
L 292.991259 260.043171 
L 289.963614 270.192525 
L 286.90448 260.052617 
L 288.934981 261.063931 
L 288.933407 260.049468 
L 290.962333 260.046319 
" style="fill:#0000ff;"/>
    <path clip-path="url(#pf95d80149d)" d="M 281.157444 260.049425 
L 281.17113 261.063797 
L 283.186188 260.022054 
L 280.279928 270.206831 
L 277.099956 260.104167 
L 279.142386 261.091168 
L 279.1287 260.076796 
L 281.157444 260.049425 
" style="fill:#0000ff;"/>
    <path clip-path="url(#pf95d80149d)" d="M 271.7582 260.164237 
L 271.783881 261.178376 
L 273.786478 260.112874 
L 271.000877 270.331311 
L 267.701643 260.266964 
L 269.755603 261.22974 
L 269.729921 260.2156 
L 271.7582 260.164237 
" style="fill:#0000ff;"/>
    <path clip-path="url(#pf95d80149d)" d="M 262.744273 260.379527 
L 262.78292 261.393255 
L 264.771729 260.302234 
L 262.11701 270.555452 
L 258.689361 260.534113 
L 260.755464 261.470548 
L 260.716817 260.45682 
L 262.744273 260.379527 
" style="fill:#0000ff;"/>
    <path clip-path="url(#pf95d80149d)" d="M 254.095429 260.697091 
L 254.146213 261.710283 
L 256.121814 260.595524 
L 253.590072 270.879798 
L 250.04266 260.900225 
L 252.119828 261.81185 
L 252.069045 260.798658 
L 254.095429 260.697091 
" style="fill:#0000ff;"/>
    <path clip-path="url(#pf95d80149d)" d="M 245.796375 261.100002 
L 245.860177 262.112458 
L 247.821287 260.972398 
L 245.42194 271.288364 
L 241.746551 261.355211 
L 243.835265 262.240063 
L 243.771463 261.227607 
L 245.796375 261.100002 
" style="fill:#0000ff;"/>
    <path clip-path="url(#pf95d80149d)" d="M 237.826884 261.589543 
L 237.903305 262.601124 
L 239.850047 261.436699 
L 237.579519 271.781781 
L 233.780557 261.895229 
L 235.880142 262.753968 
L 235.80372 261.742386 
L 237.826884 261.589543 
" style="fill:#0000ff;"/>
    <path clip-path="url(#pf95d80149d)" d="M 230.171704 262.155003 
L 230.260909 263.165538 
L 232.192773 261.976592 
L 230.053227 272.349555 
L 226.129565 262.511826 
L 228.23984 263.343949 
L 228.150634 262.333415 
L 230.171704 262.155003 
" style="fill:#0000ff;"/>
    <path clip-path="url(#pf95d80149d)" d="M 222.815544 262.79066 
L 222.918351 263.799901 
L 224.834028 262.585047 
L 222.834368 272.985882 
L 218.778578 263.201886 
L 220.899868 264.005514 
L 220.797061 262.996273 
L 222.815544 262.79066 
" style="fill:#0000ff;"/>
    <path clip-path="url(#pf95d80149d)" d="M 215.743327 263.497996 
L 215.859067 264.505836 
L 217.759007 263.266516 
L 215.892887 273.692139 
L 211.711966 263.960956 
L 213.843386 264.737316 
L 213.727646 263.729476 
L 215.743327 263.497996 
" style="fill:#0000ff;"/>
    <path clip-path="url(#pf95d80149d)" d="M 208.939671 264.265397 
L 209.069147 265.271565 
L 210.952007 264.006446 
L 209.228262 274.456552 
L 204.915 264.783301 
L 207.056811 265.530517 
L 206.927336 264.524349 
L 208.939671 264.265397 
" style="fill:#0000ff;"/>
    <path clip-path="url(#pf95d80149d)" d="M 202.394396 265.092845 
L 202.538429 266.097033 
L 204.402771 264.804779 
L 202.830542 275.278752 
L 198.377647 265.668979 
L 200.530055 266.385099 
L 200.386021 265.380912 
L 202.394396 265.092845 
" style="fill:#0000ff;"/>
    <path clip-path="url(#pf95d80149d)" d="M 196.097488 265.981404 
L 196.255835 266.983434 
L 198.101547 265.664709 
L 196.678933 276.160051 
L 192.089368 266.614795 
L 194.251775 267.300129 
L 194.093428 266.298099 
L 196.097488 265.981404 
" style="fill:#0000ff;"/>
    <path clip-path="url(#pf95d80149d)" d="M 190.028449 266.924748 
L 190.202122 267.924235 
L 192.027424 266.577402 
L 190.76569 277.093297 
L 186.030498 267.619439 
L 188.203147 268.271581 
L 188.029474 267.272094 
L 190.028449 266.924748 
" style="fill:#0000ff;"/>
    <path clip-path="url(#pf95d80149d)" d="M 184.187471 267.92414 
L 184.376215 268.920892 
L 186.180973 267.546651 
L 185.078166 278.080399 
L 180.200465 268.679119 
L 182.382713 269.298381 
L 182.193968 268.30163 
L 184.187471 267.92414 
" style="fill:#0000ff;"/>
    <path clip-path="url(#pf95d80149d)" d="M 178.558933 268.972506 
L 178.7645 269.965924 
L 180.54577 268.561372 
L 179.621184 279.112256 
L 174.58526 269.794773 
L 176.777663 270.377058 
L 176.572096 269.383639 
L 178.558933 268.972506 
" style="fill:#0000ff;"/>
    <path clip-path="url(#pf95d80149d)" d="M 173.138151 270.077054 
L 173.360152 271.06693 
L 175.117902 269.633052 
L 174.368287 280.197809 
L 169.178649 270.965059 
L 171.380401 271.510932 
L 171.1584 270.521057 
L 173.138151 270.077054 
" style="fill:#0000ff;"/>
    <path clip-path="url(#pf95d80149d)" d="M 167.909402 271.230561 
L 168.149602 272.216178 
L 169.880636 270.750159 
L 169.325792 281.326934 
L 163.966932 272.191364 
L 166.178368 272.69658 
L 165.938167 271.710963 
L 167.909402 271.230561 
" style="fill:#0000ff;"/>
    <path clip-path="url(#pf95d80149d)" d="M 162.867485 272.438022 
L 163.127727 273.418538 
L 164.828518 271.917539 
L 164.489384 282.503426 
L 158.94542 273.478988 
L 161.166694 273.939021 
L 160.906453 272.958505 
L 162.867485 272.438022 
" style="fill:#0000ff;"/>
    <path clip-path="url(#pf95d80149d)" d="M 158.007549 273.705707 
L 158.288475 274.680499 
L 159.957132 273.143856 
L 159.842016 283.734548 
L 154.108383 274.829411 
L 156.338892 275.242351 
L 156.057966 274.267559 
L 158.007549 273.705707 
" style="fill:#0000ff;"/>
    <path clip-path="url(#pf95d80149d)" d="M 153.318806 275.031736 
L 153.622941 275.999537 
L 155.254409 274.423465 
L 155.392356 285.013885 
L 149.4476 276.248276 
L 151.687338 276.607807 
L 151.383203 275.640006 
L 153.318806 275.031736 
" style="fill:#0000ff;"/>
    <path clip-path="url(#pf95d80149d)" d="M 148.791253 276.427277 
L 149.120097 277.386964 
L 150.710628 275.769589 
L 151.120005 286.352993 
L 144.952505 277.742652 
L 147.200723 278.044652 
L 146.871879 277.084965 
L 148.791253 276.427277 
" style="fill:#0000ff;"/>
    <path clip-path="url(#pf95d80149d)" d="M 144.42882 277.889674 
L 144.78653 278.83898 
L 146.327432 277.174255 
L 147.056609 287.740443 
L 140.631597 279.320512 
L 142.887918 279.554399 
L 142.530208 278.605093 
L 144.42882 277.889674 
" style="fill:#0000ff;"/>
    <path clip-path="url(#pf95d80149d)" d="M 140.215678 279.438852 
L 140.606774 280.374898 
L 142.08777 278.65666 
L 143.190589 289.190407 
L 136.471494 281.003235 
L 138.734682 281.157089 
L 138.343586 280.221043 
L 140.215678 279.438852 
" style="fill:#0000ff;"/>
    <path clip-path="url(#pf95d80149d)" d="M 136.156221 281.089898 
L 136.585354 282.009127 
L 137.99468 280.231631 
L 139.528323 290.711324 
L 132.479304 282.80643 
L 134.746896 282.867393 
L 134.317763 281.948164 
L 136.156221 281.089898 
" style="fill:#0000ff;"/>
    <path clip-path="url(#pf95d80149d)" d="M 132.232062 282.863669 
L 132.708387 283.759354 
L 134.023433 281.911019 
L 136.099629 292.296847 
L 128.649321 284.76897 
L 130.917017 284.712005 
L 130.440691 283.816319 
L 132.232062 282.863669 
" style="fill:#0000ff;"/>
    <path clip-path="url(#pf95d80149d)" d="M 128.448809 284.796734 
L 128.985491 285.657611 
L 130.170563 283.723369 
L 132.954755 293.94219 
L 125.005299 286.943464 
L 127.263736 286.730976 
L 126.727054 285.870099 
L 128.448809 284.796734 
" style="fill:#0000ff;"/>
    <path clip-path="url(#pf95d80149d)" d="M 124.794464 286.955192 
L 125.414654 287.758001 
L 126.400081 285.714811 
L 130.193559 295.603469 
L 121.583229 289.435954 
L 123.809037 288.998382 
L 123.188847 288.195573 
L 124.794464 286.955192 
" style="fill:#0000ff;"/>
    <path clip-path="url(#pf95d80149d)" d="M 121.243143 289.480345 
L 121.991005 290.165795 
L 122.614043 287.984623 
L 128.036306 297.082705 
L 118.501344 292.47179 
L 120.620105 291.661518 
L 119.872244 290.976068 
L 121.243143 289.480345 
" style="fill:#0000ff;"/>
    <path clip-path="url(#pf95d80149d)" d="M 117.803849 292.858263 
L 118.699056 293.335488 
L 118.758297 291.06785 
L 126.278691 298.525711 
L 115.894952 296.43909 
L 117.744607 295.125901 
L 116.849401 294.648677 
L 117.803849 292.858263 
" style="fill:#0000ff;"/>
    <path clip-path="url(#pf95d80149d)" d="M 115.989096 295.507164 
L 116.994745 295.640608 
L 116.255985 293.495865 
L 125.912144 297.847259 
L 115.455318 299.529761 
L 116.727856 297.651907 
L 115.722207 297.518462 
L 115.989096 295.507164 
" style="fill:#0000ff;"/>
    <path clip-path="url(#pf95d80149d)" d="M 115.034586 299.261064 
L 115.994202 298.932013 
L 114.376484 297.341831 
L 124.9598 296.930174 
L 116.350788 303.099529 
L 116.652303 300.851246 
L 115.692687 301.180296 
L 115.034586 299.261064 
" style="fill:#0000ff;"/>
    <path clip-path="url(#pf95d80149d)" d="M 115.933793 302.970716 
L 116.719165 302.328588 
L 114.649537 301.399972 
L 124.429642 297.334807 
L 118.502306 306.112204 
L 118.003421 303.899332 
L 117.218049 304.54146 
L 115.933793 302.970716 
" style="fill:#0000ff;"/>
    <path clip-path="url(#pf95d80149d)" d="M 117.739195 305.571412 
L 118.343369 304.756481 
L 116.109333 304.363066 
L 124.595857 298.026274 
L 120.99892 307.988105 
L 119.973231 305.964827 
L 119.369058 306.779759 
L 117.739195 305.571412 
" style="fill:#0000ff;"/>
    <path clip-path="url(#pf95d80149d)" d="M 121.474419 308.55113 
L 121.934302 307.646893 
L 119.665945 307.631364 
L 126.977487 299.968638 
L 125.091369 310.390662 
L 123.742777 308.566659 
L 123.282894 309.470896 
L 121.474419 308.55113 
" style="fill:#0000ff;"/>
    <path clip-path="url(#pf95d80149d)" d="M 125.274399 310.592385 
L 125.645871 309.648379 
L 123.386388 309.84944 
L 129.933127 301.523803 
L 129.050421 312.078274 
L 127.533882 310.391324 
L 127.16241 311.335329 
L 125.274399 310.592385 
" style="fill:#0000ff;"/>
    <path clip-path="url(#pf95d80149d)" d="M 129.157835 312.191764 
L 129.466841 311.225507 
L 127.22532 311.573752 
L 133.214153 302.838198 
L 133.022864 313.427789 
L 131.399355 311.843519 
L 131.090349 312.809776 
L 129.157835 312.191764 
" style="fill:#0000ff;"/>
    <path clip-path="url(#pf95d80149d)" d="M 133.141032 313.517002 
L 133.403025 312.536952 
L 131.180932 312.993015 
L 136.741016 303.978499 
L 137.06123 314.564976 
L 135.363124 313.060939 
L 135.101131 314.040989 
L 133.141032 313.517002 
" style="fill:#0000ff;"/>
    <path clip-path="url(#pf95d80149d)" d="M 137.230373 314.649378 
L 137.455612 313.660234 
L 135.252086 314.198901 
L 140.471905 304.98318 
L 141.186948 315.550333 
L 139.433899 314.110712 
L 139.208661 315.099856 
L 137.230373 314.649378 
" style="fill:#0000ff;"/>
    <path clip-path="url(#pf95d80149d)" d="M 141.43398 315.638374 
L 141.628891 314.642811 
L 139.442852 315.248552 
L 144.378655 305.877647 
L 145.416236 316.418019 
L 143.620019 315.032633 
L 143.425108 316.028197 
L 141.43398 315.638374 
" style="fill:#0000ff;"/>
    <path clip-path="url(#pf95d80149d)" d="M 145.755851 316.511926 
L 145.924289 315.511542 
L 143.755084 316.17505 
L 148.440611 306.676531 
L 149.757384 317.185676 
L 147.925055 315.848418 
L 147.756617 316.848801 
L 145.755851 316.511926 
" style="fill:#0000ff;"/>
    <path clip-path="url(#pf95d80149d)" d="M 150.210939 317.284808 
L 150.357198 316.280943 
L 148.203208 316.992291 
L 152.67739 307.39241 
L 154.226402 317.869843 
L 152.364929 316.57346 
L 152.21867 317.577325 
L 150.210939 317.284808 
" style="fill:#0000ff;"/>
    <path clip-path="url(#pf95d80149d)" d="M 154.803881 317.973324 
L 154.93117 316.966877 
L 152.790987 317.718746 
L 157.083219 308.036145 
L 158.829669 318.482481 
L 156.944064 317.221455 
L 156.816775 318.227902 
L 154.803881 317.973324 
" style="fill:#0000ff;"/>
    <path clip-path="url(#pf95d80149d)" d="M 159.534304 318.5893 
L 159.644151 317.580801 
L 157.517305 318.369606 
L 161.641273 308.614151 
L 163.568303 319.028688 
L 161.66115 317.800495 
L 161.551303 318.808994 
L 159.534304 318.5893 
" style="fill:#0000ff;"/>
    <path clip-path="url(#pf95d80149d)" d="M 164.42246 319.137333 
L 164.516868 318.127271 
L 162.402336 318.948518 
L 166.3766 309.131122 
L 168.462707 319.514964 
L 166.536991 318.316087 
L 166.442584 319.326149 
L 164.42246 319.137333 
" style="fill:#0000ff;"/>
    <path clip-path="url(#pf95d80149d)" d="M 169.468314 319.621746 
L 169.550035 318.610579 
L 167.445979 319.458306 
L 171.296686 309.591793 
L 173.512984 319.948628 
L 171.57237 318.77402 
L 171.490649 319.785187 
L 169.468314 319.621746 
" style="fill:#0000ff;"/>
    <path clip-path="url(#pf95d80149d)" d="M 174.676611 320.055914 
L 174.745166 319.043769 
L 172.65232 319.918803 
L 176.37431 310.003017 
L 178.725191 320.330136 
L 176.769456 319.18088 
L 176.700901 320.193025 
L 174.676611 320.055914 
" style="fill:#0000ff;"/>
    <path clip-path="url(#pf95d80149d)" d="M 180.06778 320.432537 
L 180.12492 319.419683 
L 178.042072 320.318256 
L 181.652034 310.361139 
L 184.119195 320.661097 
L 182.150627 319.533963 
L 182.093487 320.546817 
L 180.06778 320.432537 
" style="fill:#0000ff;"/>
    <path clip-path="url(#pf95d80149d)" d="M 185.64171 320.757813 
L 185.688057 319.744408 
L 183.6149 320.665118 
L 187.118589 310.67011 
L 189.69533 320.943203 
L 187.714867 319.837103 
L 187.66852 320.850508 
L 185.64171 320.757813 
" style="fill:#0000ff;"/>
    <path clip-path="url(#pf95d80149d)" d="M 191.408555 321.030915 
L 191.445561 320.017126 
L 189.380977 320.956904 
L 192.792403 310.93003 
L 195.463712 321.178939 
L 193.473139 320.091138 
L 193.436134 321.104927 
L 191.408555 321.030915 
" style="fill:#0000ff;"/>
    <path clip-path="url(#pf95d80149d)" d="M 197.383492 321.25694 
L 197.412584 320.242893 
L 195.355398 321.198757 
L 198.688454 311.14556 
L 201.43968 321.373306 
L 199.440678 320.301076 
L 199.411586 321.315123 
L 197.383492 321.25694 
" style="fill:#0000ff;"/>
    <path clip-path="url(#pf95d80149d)" d="M 203.571505 321.443518 
L 203.59155 320.429251 
L 201.542973 321.403428 
L 204.786219 311.3209 
L 207.62857 321.523697 
L 205.620082 320.469341 
L 205.600038 321.483607 
L 203.571505 321.443518 
" style="fill:#0000ff;"/>
    <path clip-path="url(#pf95d80149d)" d="M 209.987869 321.578 
L 210.00024 320.563611 
L 207.959091 321.553259 
L 211.125964 311.446482 
L 214.045425 321.627482 
L 212.029017 320.588352 
L 212.016647 321.602741 
L 209.987869 321.578 
" style="fill:#0000ff;"/>
    <path clip-path="url(#pf95d80149d)" d="M 216.642697 321.665565 
L 216.64866 320.651118 
L 214.613803 321.653639 
L 217.716773 311.52706 
L 220.700484 321.689416 
L 218.677554 320.663044 
L 218.671591 321.677491 
L 216.642697 321.665565 
" style="fill:#0000ff;"/>
    <path clip-path="url(#pf95d80149d)" d="M 223.546109 321.712823 
L 223.545392 320.698359 
L 221.517181 321.714257 
L 224.553404 311.567466 
L 227.603965 321.709955 
L 225.57432 320.696925 
L 225.575037 321.711389 
L 223.546109 321.712823 
" style="fill:#0000ff;"/>
    <path clip-path="url(#pf95d80149d)" d="M 230.723463 321.713249 
L 230.717248 320.698804 
L 228.694572 321.725679 
L 231.675757 311.562581 
L 234.781244 321.688388 
L 232.746138 320.686373 
L 232.752353 321.700819 
L 230.723463 321.713249 
" style="fill:#0000ff;"/>
    <path clip-path="url(#pf95d80149d)" d="M 238.174755 321.673333 
L 238.162805 320.658939 
L 236.145967 321.697232 
L 239.069652 311.517444 
L 242.23233 321.625534 
L 240.191593 320.635039 
L 240.203542 321.649433 
L 238.174755 321.673333 
" style="fill:#0000ff;"/>
    <path clip-path="url(#pf95d80149d)" d="M 245.925327 321.586668 
L 245.908741 320.572339 
L 243.89667 321.619841 
L 246.773791 311.426794 
L 249.982642 321.520322 
L 247.937398 320.539166 
L 247.953984 321.553495 
L 245.925327 321.586668 
" style="fill:#0000ff;"/>
    <path clip-path="url(#pf95d80149d)" d="M 253.990409 321.45965 
L 253.96896 320.445412 
L 251.961934 321.502548 
L 254.790156 311.295826 
L 258.047359 321.373853 
L 255.997435 320.402514 
L 256.018884 321.416752 
L 253.990409 321.45965 
" style="fill:#0000ff;"/>
    <path clip-path="url(#pf95d80149d)" d="M 262.38519 321.285964 
L 262.359895 320.271816 
L 260.356892 321.336554 
L 263.14639 311.119181 
L 266.441786 321.184785 
L 264.388193 320.221226 
L 264.413488 321.235375 
L 262.38519 321.285964 
" style="fill:#0000ff;"/>
    <path clip-path="url(#pf95d80149d)" d="M 271.129965 321.071323 
L 271.101201 320.057267 
L 269.101852 321.12885 
L 271.856386 310.901995 
L 275.186191 320.956269 
L 273.129314 319.99974 
L 273.158078 321.013796 
L 271.129965 321.071323 
" style="fill:#0000ff;"/>
    <path clip-path="url(#pf95d80149d)" d="M 280.250075 320.81522 
L 280.218726 319.801241 
L 278.222116 320.877918 
L 280.950565 310.644073 
L 284.305995 320.689824 
L 282.246686 319.738542 
L 282.278035 320.752522 
L 280.250075 320.81522 
" style="fill:#0000ff;"/>
    <path clip-path="url(#pf95d80149d)" d="M 289.765859 320.52437 
L 289.731166 319.510499 
L 287.738118 320.593756 
L 290.432798 310.350968 
L 293.821343 320.385597 
L 291.758908 319.441113 
L 291.793601 320.454983 
L 289.765859 320.52437 
" style="fill:#0000ff;"/>
    <path clip-path="url(#pf95d80149d)" d="M 299.697517 320.186004 
L 299.661344 319.172184 
L 297.669878 320.258348 
L 300.349611 310.011639 
L 303.752793 320.041314 
L 301.688983 319.09984 
L 301.725155 320.113659 
L 299.697517 320.186004 
" style="fill:#0000ff;"/>
    <path clip-path="url(#pf95d80149d)" d="M 310.075564 319.817833 
L 310.037283 318.804091 
L 308.04808 319.894395 
L 310.706494 309.642134 
L 314.130531 319.664708 
L 312.064766 318.727529 
L 312.103047 319.741271 
L 310.075564 319.817833 
" style="fill:#0000ff;"/>
    <path clip-path="url(#pf95d80149d)" d="M 320.955813 319.410029 
L 320.914478 318.396407 
L 318.92857 319.492701 
L 321.556079 309.232476 
L 325.010301 319.244687 
L 322.941721 318.313736 
L 322.983057 319.327358 
L 320.955813 319.410029 
" style="fill:#0000ff;"/>
    <path clip-path="url(#pf95d80149d)" d="M 332.399147 318.947501 
L 332.353686 317.934056 
L 330.372257 319.038424 
L 332.957979 308.767589 
L 336.452928 318.765656 
L 334.380576 317.843134 
L 334.426038 318.856579 
L 332.399147 318.947501 
" style="fill:#0000ff;"/>
    <path clip-path="url(#pf95d80149d)" d="M 344.385214 318.413502 
L 344.336086 317.400228 
L 342.358666 318.511759 
L 344.907204 308.231634 
L 348.43831 318.216989 
L 346.362634 317.301972 
L 346.411762 318.315246 
L 344.385214 318.413502 
" style="fill:#0000ff;"/>
    <path clip-path="url(#pf95d80149d)" d="M 356.939348 317.807601 
L 356.887443 316.794465 
L 354.913077 317.911412 
L 357.433427 307.62434 
L 360.99189 317.599978 
L 358.913714 316.690654 
L 358.965619 317.70379 
L 356.939348 317.807601 
" style="fill:#0000ff;"/>
    <path clip-path="url(#pf95d80149d)" d="M 370.10726 317.136113 
L 370.052224 316.123143 
L 368.08132 317.246186 
L 370.569865 306.951374 
L 374.159141 316.915967 
L 372.078164 316.01307 
L 372.133201 317.02604 
L 370.10726 317.136113 
" style="fill:#0000ff;"/>
    <path clip-path="url(#pf95d80149d)" d="M 383.924392 316.387724 
L 383.867042 315.374882 
L 381.898708 316.502425 
L 384.363727 306.201954 
L 387.97576 316.158321 
L 385.892725 315.26018 
L 385.950076 316.273022 
L 383.924392 316.387724 
" style="fill:#0000ff;"/>
    <path clip-path="url(#pf95d80149d)" d="M 398.436415 315.567932 
L 398.37714 314.555201 
L 396.410953 315.686483 
L 398.856393 305.381346 
L 402.487339 315.330831 
L 400.402602 314.436651 
L 400.461877 315.449382 
L 398.436415 315.567932 
" style="fill:#0000ff;"/>
    <path clip-path="url(#pf95d80149d)" d="M 413.689014 314.677356 
L 413.627586 313.664754 
L 411.663808 314.800213 
L 414.087336 304.489901 
L 417.739425 314.431644 
L 415.652791 313.541898 
L 415.714219 314.5545 
L 413.689014 314.677356 
" style="fill:#0000ff;"/>
    <path clip-path="url(#pf95d80149d)" d="M 429.743002 313.704945 
L 429.6801 312.692433 
L 427.717977 313.830749 
L 430.126492 303.51692 
L 433.793051 313.453336 
L 431.705124 312.566628 
L 431.768026 313.57914 
L 429.743002 313.704945 
" style="fill:#0000ff;"/>
    <path clip-path="url(#pf95d80149d)" d="M 446.644063 312.656339 
L 446.579795 311.643913 
L 444.61921 312.784874 
L 447.013816 302.467807 
L 450.693769 312.39927 
L 448.604649 311.515378 
L 448.668916 312.527805 
L 446.644063 312.656339 
" style="fill:#0000ff;"/>
    <path clip-path="url(#pf95d80149d)" d="M 464.463174 311.525925 
L 464.398193 310.513544 
L 462.438412 311.655885 
L 464.825752 301.337134 
L 468.512698 311.266004 
L 466.422955 310.383583 
L 466.487936 311.395964 
L 464.463174 311.525925 
" style="fill:#0000ff;"/>
    <path clip-path="url(#pf95d80149d)" d="M 483.271402 310.319652 
L 483.205483 309.307331 
L 481.246762 310.451491 
L 483.624525 300.130529 
L 487.320684 310.055973 
L 485.230123 309.175492 
L 485.296043 310.187812 
L 483.271402 310.319652 
" style="fill:#0000ff;"/>
    <path clip-path="url(#pf95d80149d)" d="M 503.134683 309.027268 
L 503.067705 308.015017 
L 501.110181 309.161225 
L 503.477152 298.837782 
L 507.183686 308.759355 
L 505.092206 307.881061 
L 505.159185 308.893312 
L 503.134683 309.027268 
" style="fill:#0000ff;"/>
    <path clip-path="url(#pf95d80149d)" d="M 524.139195 307.637894 
L 524.071776 306.625672 
L 522.114752 307.772733 
L 524.477218 297.448259 
L 528.188081 307.368214 
L 526.096219 306.490832 
L 526.163638 307.503054 
L 524.139195 307.637894 
" style="fill:#0000ff;"/>
    <path clip-path="url(#pf95d80149d)" d="M 546.376348 306.158196 
L 546.307508 305.14607 
L 544.352097 306.295877 
L 546.700072 295.968097 
L 550.424852 305.882835 
L 548.33176 305.00839 
L 548.4006 306.020516 
L 546.376348 306.158196 
" style="fill:#0000ff;"/>
    <path clip-path="url(#pf95d80149d)" d="M 569.942432 304.556476 
L 569.872458 303.544428 
L 567.918335 304.696422 
L 570.254747 294.36602 
L 573.990625 304.276582 
L 571.896555 303.404481 
L 571.966528 304.416529 
L 569.942432 304.556476 
" style="fill:#0000ff;"/>
    <path clip-path="url(#pf95d80149d)" d="M 594.959278 302.82905 
L 594.887069 301.817159 
L 592.935496 302.973468 
L 595.24908 292.637929 
L 599.006843 302.540214 
L 596.910852 301.672741 
L 596.983061 302.684632 
L 594.959278 302.82905 
" style="fill:#0000ff;"/>
    <path clip-path="url(#pf95d80149d)" d="M 621.543315 300.932002 
L 621.471106 299.92011 
L 619.519533 301.076419 
L 621.833117 290.740881 
L 625.59088 300.643166 
L 623.494889 299.775692 
L 623.567098 300.787584 
L 621.543315 300.932002 
" style="fill:#0000ff;"/>
   </g>
   <g id="matplotlib.axis_1">
    <g id="xtick_1">
     <g id="line2d_1">
      <defs>
       <path d="M 0 0 
L 0 3.5 
" id="m02736f6e45" style="stroke:#000000;stroke-width:0.8;"/>
      </defs>
      <g>
       <use style="stroke:#000000;stroke-width:0.8;" x="115.363636" xlink:href="#m02736f6e45" y="512.64"/>
      </g>
     </g>
     <g id="text_1">
      <!-- 0.0 -->
      <g transform="translate(107.412074 527.238438)scale(0.1 -0.1)">
       <defs>
        <path d="M 31.78125 66.40625 
Q 24.171875 66.40625 20.328125 58.90625 
Q 16.5 51.421875 16.5 36.375 
Q 16.5 21.390625 20.328125 13.890625 
Q 24.171875 6.390625 31.78125 6.390625 
Q 39.453125 6.390625 43.28125 13.890625 
Q 47.125 21.390625 47.125 36.375 
Q 47.125 51.421875 43.28125 58.90625 
Q 39.453125 66.40625 31.78125 66.40625 
z
M 31.78125 74.21875 
Q 44.046875 74.21875 50.515625 64.515625 
Q 56.984375 54.828125 56.984375 36.375 
Q 56.984375 17.96875 50.515625 8.265625 
Q 44.046875 -1.421875 31.78125 -1.421875 
Q 19.53125 -1.421875 13.0625 8.265625 
Q 6.59375 17.96875 6.59375 36.375 
Q 6.59375 54.828125 13.0625 64.515625 
Q 19.53125 74.21875 31.78125 74.21875 
z
" id="DejaVuSans-48"/>
        <path d="M 10.6875 12.40625 
L 21 12.40625 
L 21 0 
L 10.6875 0 
z
" id="DejaVuSans-46"/>
       </defs>
       <use xlink:href="#DejaVuSans-48"/>
       <use x="63.623047" xlink:href="#DejaVuSans-46"/>
       <use x="95.410156" xlink:href="#DejaVuSans-48"/>
      </g>
     </g>
    </g>
    <g id="xtick_2">
     <g id="line2d_2">
      <g>
       <use style="stroke:#000000;stroke-width:0.8;" x="216.810066" xlink:href="#m02736f6e45" y="512.64"/>
      </g>
     </g>
     <g id="text_2">
      <!-- 0.2 -->
      <g transform="translate(208.858504 527.238438)scale(0.1 -0.1)">
       <defs>
        <path d="M 19.1875 8.296875 
L 53.609375 8.296875 
L 53.609375 0 
L 7.328125 0 
L 7.328125 8.296875 
Q 12.9375 14.109375 22.625 23.890625 
Q 32.328125 33.6875 34.8125 36.53125 
Q 39.546875 41.84375 41.421875 45.53125 
Q 43.3125 49.21875 43.3125 52.78125 
Q 43.3125 58.59375 39.234375 62.25 
Q 35.15625 65.921875 28.609375 65.921875 
Q 23.96875 65.921875 18.8125 64.3125 
Q 13.671875 62.703125 7.8125 59.421875 
L 7.8125 69.390625 
Q 13.765625 71.78125 18.9375 73 
Q 24.125 74.21875 28.421875 74.21875 
Q 39.75 74.21875 46.484375 68.546875 
Q 53.21875 62.890625 53.21875 53.421875 
Q 53.21875 48.921875 51.53125 44.890625 
Q 49.859375 40.875 45.40625 35.40625 
Q 44.1875 33.984375 37.640625 27.21875 
Q 31.109375 20.453125 19.1875 8.296875 
z
" id="DejaVuSans-50"/>
       </defs>
       <use xlink:href="#DejaVuSans-48"/>
       <use x="63.623047" xlink:href="#DejaVuSans-46"/>
       <use x="95.410156" xlink:href="#DejaVuSans-50"/>
      </g>
     </g>
    </g>
    <g id="xtick_3">
     <g id="line2d_3">
      <g>
       <use style="stroke:#000000;stroke-width:0.8;" x="318.256496" xlink:href="#m02736f6e45" y="512.64"/>
      </g>
     </g>
     <g id="text_3">
      <!-- 0.4 -->
      <g transform="translate(310.304933 527.238438)scale(0.1 -0.1)">
       <defs>
        <path d="M 37.796875 64.3125 
L 12.890625 25.390625 
L 37.796875 25.390625 
z
M 35.203125 72.90625 
L 47.609375 72.90625 
L 47.609375 25.390625 
L 58.015625 25.390625 
L 58.015625 17.1875 
L 47.609375 17.1875 
L 47.609375 0 
L 37.796875 0 
L 37.796875 17.1875 
L 4.890625 17.1875 
L 4.890625 26.703125 
z
" id="DejaVuSans-52"/>
       </defs>
       <use xlink:href="#DejaVuSans-48"/>
       <use x="63.623047" xlink:href="#DejaVuSans-46"/>
       <use x="95.410156" xlink:href="#DejaVuSans-52"/>
      </g>
     </g>
    </g>
    <g id="xtick_4">
     <g id="line2d_4">
      <g>
       <use style="stroke:#000000;stroke-width:0.8;" x="419.702926" xlink:href="#m02736f6e45" y="512.64"/>
      </g>
     </g>
     <g id="text_4">
      <!-- 0.6 -->
      <g transform="translate(411.751363 527.238438)scale(0.1 -0.1)">
       <defs>
        <path d="M 33.015625 40.375 
Q 26.375 40.375 22.484375 35.828125 
Q 18.609375 31.296875 18.609375 23.390625 
Q 18.609375 15.53125 22.484375 10.953125 
Q 26.375 6.390625 33.015625 6.390625 
Q 39.65625 6.390625 43.53125 10.953125 
Q 47.40625 15.53125 47.40625 23.390625 
Q 47.40625 31.296875 43.53125 35.828125 
Q 39.65625 40.375 33.015625 40.375 
z
M 52.59375 71.296875 
L 52.59375 62.3125 
Q 48.875 64.0625 45.09375 64.984375 
Q 41.3125 65.921875 37.59375 65.921875 
Q 27.828125 65.921875 22.671875 59.328125 
Q 17.53125 52.734375 16.796875 39.40625 
Q 19.671875 43.65625 24.015625 45.921875 
Q 28.375 48.1875 33.59375 48.1875 
Q 44.578125 48.1875 50.953125 41.515625 
Q 57.328125 34.859375 57.328125 23.390625 
Q 57.328125 12.15625 50.6875 5.359375 
Q 44.046875 -1.421875 33.015625 -1.421875 
Q 20.359375 -1.421875 13.671875 8.265625 
Q 6.984375 17.96875 6.984375 36.375 
Q 6.984375 53.65625 15.1875 63.9375 
Q 23.390625 74.21875 37.203125 74.21875 
Q 40.921875 74.21875 44.703125 73.484375 
Q 48.484375 72.75 52.59375 71.296875 
z
" id="DejaVuSans-54"/>
       </defs>
       <use xlink:href="#DejaVuSans-48"/>
       <use x="63.623047" xlink:href="#DejaVuSans-46"/>
       <use x="95.410156" xlink:href="#DejaVuSans-54"/>
      </g>
     </g>
    </g>
    <g id="xtick_5">
     <g id="line2d_5">
      <g>
       <use style="stroke:#000000;stroke-width:0.8;" x="521.149355" xlink:href="#m02736f6e45" y="512.64"/>
      </g>
     </g>
     <g id="text_5">
      <!-- 0.8 -->
      <g transform="translate(513.197793 527.238438)scale(0.1 -0.1)">
       <defs>
        <path d="M 31.78125 34.625 
Q 24.75 34.625 20.71875 30.859375 
Q 16.703125 27.09375 16.703125 20.515625 
Q 16.703125 13.921875 20.71875 10.15625 
Q 24.75 6.390625 31.78125 6.390625 
Q 38.8125 6.390625 42.859375 10.171875 
Q 46.921875 13.96875 46.921875 20.515625 
Q 46.921875 27.09375 42.890625 30.859375 
Q 38.875 34.625 31.78125 34.625 
z
M 21.921875 38.8125 
Q 15.578125 40.375 12.03125 44.71875 
Q 8.5 49.078125 8.5 55.328125 
Q 8.5 64.0625 14.71875 69.140625 
Q 20.953125 74.21875 31.78125 74.21875 
Q 42.671875 74.21875 48.875 69.140625 
Q 55.078125 64.0625 55.078125 55.328125 
Q 55.078125 49.078125 51.53125 44.71875 
Q 48 40.375 41.703125 38.8125 
Q 48.828125 37.15625 52.796875 32.3125 
Q 56.78125 27.484375 56.78125 20.515625 
Q 56.78125 9.90625 50.3125 4.234375 
Q 43.84375 -1.421875 31.78125 -1.421875 
Q 19.734375 -1.421875 13.25 4.234375 
Q 6.78125 9.90625 6.78125 20.515625 
Q 6.78125 27.484375 10.78125 32.3125 
Q 14.796875 37.15625 21.921875 38.8125 
z
M 18.3125 54.390625 
Q 18.3125 48.734375 21.84375 45.5625 
Q 25.390625 42.390625 31.78125 42.390625 
Q 38.140625 42.390625 41.71875 45.5625 
Q 45.3125 48.734375 45.3125 54.390625 
Q 45.3125 60.0625 41.71875 63.234375 
Q 38.140625 66.40625 31.78125 66.40625 
Q 25.390625 66.40625 21.84375 63.234375 
Q 18.3125 60.0625 18.3125 54.390625 
z
" id="DejaVuSans-56"/>
       </defs>
       <use xlink:href="#DejaVuSans-48"/>
       <use x="63.623047" xlink:href="#DejaVuSans-46"/>
       <use x="95.410156" xlink:href="#DejaVuSans-56"/>
      </g>
     </g>
    </g>
    <g id="xtick_6">
     <g id="line2d_6">
      <g>
       <use style="stroke:#000000;stroke-width:0.8;" x="622.595785" xlink:href="#m02736f6e45" y="512.64"/>
      </g>
     </g>
     <g id="text_6">
      <!-- 1.0 -->
      <g transform="translate(614.644223 527.238438)scale(0.1 -0.1)">
       <defs>
        <path d="M 12.40625 8.296875 
L 28.515625 8.296875 
L 28.515625 63.921875 
L 10.984375 60.40625 
L 10.984375 69.390625 
L 28.421875 72.90625 
L 38.28125 72.90625 
L 38.28125 8.296875 
L 54.390625 8.296875 
L 54.390625 0 
L 12.40625 0 
z
" id="DejaVuSans-49"/>
       </defs>
       <use xlink:href="#DejaVuSans-49"/>
       <use x="63.623047" xlink:href="#DejaVuSans-46"/>
       <use x="95.410156" xlink:href="#DejaVuSans-48"/>
      </g>
     </g>
    </g>
   </g>
   <g id="matplotlib.axis_2">
    <g id="ytick_1">
     <g id="line2d_7">
      <defs>
       <path d="M 0 0 
L -3.5 0 
" id="m7d364d8a54" style="stroke:#000000;stroke-width:0.8;"/>
      </defs>
      <g>
       <use style="stroke:#000000;stroke-width:0.8;" x="90" xlink:href="#m7d364d8a54" y="503.113539"/>
      </g>
     </g>
     <g id="text_7">
      <!-- −0.4 -->
      <g transform="translate(58.717187 506.912758)scale(0.1 -0.1)">
       <defs>
        <path d="M 10.59375 35.5 
L 73.1875 35.5 
L 73.1875 27.203125 
L 10.59375 27.203125 
z
" id="DejaVuSans-8722"/>
       </defs>
       <use xlink:href="#DejaVuSans-8722"/>
       <use x="83.789062" xlink:href="#DejaVuSans-48"/>
       <use x="147.412109" xlink:href="#DejaVuSans-46"/>
       <use x="179.199219" xlink:href="#DejaVuSans-52"/>
      </g>
     </g>
    </g>
    <g id="ytick_2">
     <g id="line2d_8">
      <g>
       <use style="stroke:#000000;stroke-width:0.8;" x="90" xlink:href="#m7d364d8a54" y="452.390325"/>
      </g>
     </g>
     <g id="text_8">
      <!-- −0.3 -->
      <g transform="translate(58.717187 456.189543)scale(0.1 -0.1)">
       <defs>
        <path d="M 40.578125 39.3125 
Q 47.65625 37.796875 51.625 33 
Q 55.609375 28.21875 55.609375 21.1875 
Q 55.609375 10.40625 48.1875 4.484375 
Q 40.765625 -1.421875 27.09375 -1.421875 
Q 22.515625 -1.421875 17.65625 -0.515625 
Q 12.796875 0.390625 7.625 2.203125 
L 7.625 11.71875 
Q 11.71875 9.328125 16.59375 8.109375 
Q 21.484375 6.890625 26.8125 6.890625 
Q 36.078125 6.890625 40.9375 10.546875 
Q 45.796875 14.203125 45.796875 21.1875 
Q 45.796875 27.640625 41.28125 31.265625 
Q 36.765625 34.90625 28.71875 34.90625 
L 20.21875 34.90625 
L 20.21875 43.015625 
L 29.109375 43.015625 
Q 36.375 43.015625 40.234375 45.921875 
Q 44.09375 48.828125 44.09375 54.296875 
Q 44.09375 59.90625 40.109375 62.90625 
Q 36.140625 65.921875 28.71875 65.921875 
Q 24.65625 65.921875 20.015625 65.03125 
Q 15.375 64.15625 9.8125 62.3125 
L 9.8125 71.09375 
Q 15.4375 72.65625 20.34375 73.4375 
Q 25.25 74.21875 29.59375 74.21875 
Q 40.828125 74.21875 47.359375 69.109375 
Q 53.90625 64.015625 53.90625 55.328125 
Q 53.90625 49.265625 50.4375 45.09375 
Q 46.96875 40.921875 40.578125 39.3125 
z
" id="DejaVuSans-51"/>
       </defs>
       <use xlink:href="#DejaVuSans-8722"/>
       <use x="83.789062" xlink:href="#DejaVuSans-48"/>
       <use x="147.412109" xlink:href="#DejaVuSans-46"/>
       <use x="179.199219" xlink:href="#DejaVuSans-51"/>
      </g>
     </g>
    </g>
    <g id="ytick_3">
     <g id="line2d_9">
      <g>
       <use style="stroke:#000000;stroke-width:0.8;" x="90" xlink:href="#m7d364d8a54" y="401.66711"/>
      </g>
     </g>
     <g id="text_9">
      <!-- −0.2 -->
      <g transform="translate(58.717187 405.466329)scale(0.1 -0.1)">
       <use xlink:href="#DejaVuSans-8722"/>
       <use x="83.789062" xlink:href="#DejaVuSans-48"/>
       <use x="147.412109" xlink:href="#DejaVuSans-46"/>
       <use x="179.199219" xlink:href="#DejaVuSans-50"/>
      </g>
     </g>
    </g>
    <g id="ytick_4">
     <g id="line2d_10">
      <g>
       <use style="stroke:#000000;stroke-width:0.8;" x="90" xlink:href="#m7d364d8a54" y="350.943895"/>
      </g>
     </g>
     <g id="text_10">
      <!-- −0.1 -->
      <g transform="translate(58.717187 354.743114)scale(0.1 -0.1)">
       <use xlink:href="#DejaVuSans-8722"/>
       <use x="83.789062" xlink:href="#DejaVuSans-48"/>
       <use x="147.412109" xlink:href="#DejaVuSans-46"/>
       <use x="179.199219" xlink:href="#DejaVuSans-49"/>
      </g>
     </g>
    </g>
    <g id="ytick_5">
     <g id="line2d_11">
      <g>
       <use style="stroke:#000000;stroke-width:0.8;" x="90" xlink:href="#m7d364d8a54" y="300.22068"/>
      </g>
     </g>
     <g id="text_11">
      <!-- 0.0 -->
      <g transform="translate(67.096875 304.019899)scale(0.1 -0.1)">
       <use xlink:href="#DejaVuSans-48"/>
       <use x="63.623047" xlink:href="#DejaVuSans-46"/>
       <use x="95.410156" xlink:href="#DejaVuSans-48"/>
      </g>
     </g>
    </g>
    <g id="ytick_6">
     <g id="line2d_12">
      <g>
       <use style="stroke:#000000;stroke-width:0.8;" x="90" xlink:href="#m7d364d8a54" y="249.497465"/>
      </g>
     </g>
     <g id="text_12">
      <!-- 0.1 -->
      <g transform="translate(67.096875 253.296684)scale(0.1 -0.1)">
       <use xlink:href="#DejaVuSans-48"/>
       <use x="63.623047" xlink:href="#DejaVuSans-46"/>
       <use x="95.410156" xlink:href="#DejaVuSans-49"/>
      </g>
     </g>
    </g>
    <g id="ytick_7">
     <g id="line2d_13">
      <g>
       <use style="stroke:#000000;stroke-width:0.8;" x="90" xlink:href="#m7d364d8a54" y="198.77425"/>
      </g>
     </g>
     <g id="text_13">
      <!-- 0.2 -->
      <g transform="translate(67.096875 202.573469)scale(0.1 -0.1)">
       <use xlink:href="#DejaVuSans-48"/>
       <use x="63.623047" xlink:href="#DejaVuSans-46"/>
       <use x="95.410156" xlink:href="#DejaVuSans-50"/>
      </g>
     </g>
    </g>
    <g id="ytick_8">
     <g id="line2d_14">
      <g>
       <use style="stroke:#000000;stroke-width:0.8;" x="90" xlink:href="#m7d364d8a54" y="148.051035"/>
      </g>
     </g>
     <g id="text_14">
      <!-- 0.3 -->
      <g transform="translate(67.096875 151.850254)scale(0.1 -0.1)">
       <use xlink:href="#DejaVuSans-48"/>
       <use x="63.623047" xlink:href="#DejaVuSans-46"/>
       <use x="95.410156" xlink:href="#DejaVuSans-51"/>
      </g>
     </g>
    </g>
    <g id="ytick_9">
     <g id="line2d_15">
      <g>
       <use style="stroke:#000000;stroke-width:0.8;" x="90" xlink:href="#m7d364d8a54" y="97.327821"/>
      </g>
     </g>
     <g id="text_15">
      <!-- 0.4 -->
      <g transform="translate(67.096875 101.127039)scale(0.1 -0.1)">
       <use xlink:href="#DejaVuSans-48"/>
       <use x="63.623047" xlink:href="#DejaVuSans-46"/>
       <use x="95.410156" xlink:href="#DejaVuSans-52"/>
      </g>
     </g>
    </g>
   </g>
   <g id="line2d_16">
    <path clip-path="url(#pf95d80149d)" d="M 622.636364 299.581568 
L 596.483474 294.32157 
L 571.776196 289.695613 
L 548.418156 285.617466 
L 526.312979 282.011046 
L 505.374435 278.815483 
L 485.531514 275.980056 
L 466.708129 273.474329 
L 448.833268 271.262797 
L 431.851136 269.309953 
L 415.700864 267.595508 
L 400.33173 266.104246 
L 385.69301 264.805731 
L 371.739054 263.689821 
L 358.434354 262.741297 
L 345.733261 261.950014 
L 333.605341 261.300757 
L 322.015086 260.788453 
L 310.876268 260.397884 
L 300.183814 260.159485 
L 289.94787 260.047894 
L 280.143072 260.063111 
L 270.74406 260.189919 
L 261.730545 260.418173 
L 253.082237 260.747874 
L 244.783919 261.163805 
L 236.815302 261.665964 
L 229.161169 262.244209 
L 221.806303 262.893466 
L 214.735487 263.613736 
L 207.933504 264.394873 
L 201.390209 265.236879 
L 195.095458 266.139752 
L 189.028961 267.098421 
L 183.190719 268.112885 
L 177.565515 269.178073 
L 172.148275 270.299056 
L 166.923784 271.470762 
L 161.886969 272.698264 
L 157.032757 273.986633 
L 152.351005 275.335871 
L 147.831566 276.756121 
L 143.479514 278.247383 
L 139.279632 279.829948 
L 135.236992 281.519031 
L 131.336377 283.339994 
L 127.587931 285.333416 
L 123.991655 287.575383 
L 120.557694 290.228207 
L 117.326625 293.75347 
L 115.855652 296.512813 
L 115.363636 300.22068 
L 116.575921 303.756088 
L 118.554127 306.175585 
L 122.378657 309.011013 
L 126.218404 310.963857 
L 130.124092 312.50077 
L 134.121081 313.778995 
L 138.219517 314.874617 
L 142.429544 315.833286 
L 146.756234 316.680363 
L 151.214805 317.431067 
L 155.810328 318.100613 
L 160.542804 318.699147 
L 165.432522 319.231741 
L 170.479482 319.703467 
L 175.688756 320.12447 
L 181.080634 320.489677 
L 186.655115 320.804161 
L 192.422344 321.067921 
L 198.397539 321.286031 
L 204.585771 321.463562 
L 211.002258 321.59037 
L 217.657144 321.671528 
L 224.560573 321.712106 
L 231.737908 321.707034 
L 239.189149 321.661383 
L 246.939656 321.570081 
L 255.004647 321.438201 
L 263.399339 321.26067 
L 272.144021 321.04256 
L 281.264055 320.783871 
L 290.77973 320.489677 
L 300.711336 320.149831 
L 311.089306 319.779552 
L 321.969435 319.368694 
L 333.412592 318.90204 
L 345.398488 318.364374 
L 357.952484 317.755695 
L 371.12023 317.081077 
L 384.937234 316.330373 
L 399.449146 315.508657 
L 414.701617 314.615928 
L 430.755514 313.642043 
L 447.656489 312.592072 
L 465.475555 311.460944 
L 484.283723 310.253732 
L 504.146934 308.96029 
L 525.151417 307.570474 
L 547.388474 306.089356 
L 570.95448 304.486502 
L 595.97117 302.756841 
L 622.555206 300.859793 
" style="fill:none;stroke:#0000ff;stroke-dasharray:5.55,2.4;stroke-dashoffset:0;stroke-width:1.5;"/>
    <defs>
     <path d="M 0 3 
C 0.795609 3 1.55874 2.683901 2.12132 2.12132 
C 2.683901 1.55874 3 0.795609 3 0 
C 3 -0.795609 2.683901 -1.55874 2.12132 -2.12132 
C 1.55874 -2.683901 0.795609 -3 0 -3 
C -0.795609 -3 -1.55874 -2.683901 -2.12132 -2.12132 
C -2.683901 -1.55874 -3 -0.795609 -3 0 
C -3 0.795609 -2.683901 1.55874 -2.12132 2.12132 
C -1.55874 2.683901 -0.795609 3 0 3 
z
" id="m862a2bbbac" style="stroke:#0000ff;"/>
    </defs>
    <g clip-path="url(#pf95d80149d)">
     <use style="fill:#0000ff;stroke:#0000ff;" x="622.636364" xlink:href="#m862a2bbbac" y="299.581568"/>
     <use style="fill:#0000ff;stroke:#0000ff;" x="596.483474" xlink:href="#m862a2bbbac" y="294.32157"/>
     <use style="fill:#0000ff;stroke:#0000ff;" x="571.776196" xlink:href="#m862a2bbbac" y="289.695613"/>
     <use style="fill:#0000ff;stroke:#0000ff;" x="548.418156" xlink:href="#m862a2bbbac" y="285.617466"/>
     <use style="fill:#0000ff;stroke:#0000ff;" x="526.312979" xlink:href="#m862a2bbbac" y="282.011046"/>
     <use style="fill:#0000ff;stroke:#0000ff;" x="505.374435" xlink:href="#m862a2bbbac" y="278.815483"/>
     <use style="fill:#0000ff;stroke:#0000ff;" x="485.531514" xlink:href="#m862a2bbbac" y="275.980056"/>
     <use style="fill:#0000ff;stroke:#0000ff;" x="466.708129" xlink:href="#m862a2bbbac" y="273.474329"/>
     <use style="fill:#0000ff;stroke:#0000ff;" x="448.833268" xlink:href="#m862a2bbbac" y="271.262797"/>
     <use style="fill:#0000ff;stroke:#0000ff;" x="431.851136" xlink:href="#m862a2bbbac" y="269.309953"/>
     <use style="fill:#0000ff;stroke:#0000ff;" x="415.700864" xlink:href="#m862a2bbbac" y="267.595508"/>
     <use style="fill:#0000ff;stroke:#0000ff;" x="400.33173" xlink:href="#m862a2bbbac" y="266.104246"/>
     <use style="fill:#0000ff;stroke:#0000ff;" x="385.69301" xlink:href="#m862a2bbbac" y="264.805731"/>
     <use style="fill:#0000ff;stroke:#0000ff;" x="371.739054" xlink:href="#m862a2bbbac" y="263.689821"/>
     <use style="fill:#0000ff;stroke:#0000ff;" x="358.434354" xlink:href="#m862a2bbbac" y="262.741297"/>
     <use style="fill:#0000ff;stroke:#0000ff;" x="345.733261" xlink:href="#m862a2bbbac" y="261.950014"/>
     <use style="fill:#0000ff;stroke:#0000ff;" x="333.605341" xlink:href="#m862a2bbbac" y="261.300757"/>
     <use style="fill:#0000ff;stroke:#0000ff;" x="322.015086" xlink:href="#m862a2bbbac" y="260.788453"/>
     <use style="fill:#0000ff;stroke:#0000ff;" x="310.876268" xlink:href="#m862a2bbbac" y="260.397884"/>
     <use style="fill:#0000ff;stroke:#0000ff;" x="300.183814" xlink:href="#m862a2bbbac" y="260.159485"/>
     <use style="fill:#0000ff;stroke:#0000ff;" x="289.94787" xlink:href="#m862a2bbbac" y="260.047894"/>
     <use style="fill:#0000ff;stroke:#0000ff;" x="280.143072" xlink:href="#m862a2bbbac" y="260.063111"/>
     <use style="fill:#0000ff;stroke:#0000ff;" x="270.74406" xlink:href="#m862a2bbbac" y="260.189919"/>
     <use style="fill:#0000ff;stroke:#0000ff;" x="261.730545" xlink:href="#m862a2bbbac" y="260.418173"/>
     <use style="fill:#0000ff;stroke:#0000ff;" x="253.082237" xlink:href="#m862a2bbbac" y="260.747874"/>
     <use style="fill:#0000ff;stroke:#0000ff;" x="244.783919" xlink:href="#m862a2bbbac" y="261.163805"/>
     <use style="fill:#0000ff;stroke:#0000ff;" x="236.815302" xlink:href="#m862a2bbbac" y="261.665964"/>
     <use style="fill:#0000ff;stroke:#0000ff;" x="229.161169" xlink:href="#m862a2bbbac" y="262.244209"/>
     <use style="fill:#0000ff;stroke:#0000ff;" x="221.806303" xlink:href="#m862a2bbbac" y="262.893466"/>
     <use style="fill:#0000ff;stroke:#0000ff;" x="214.735487" xlink:href="#m862a2bbbac" y="263.613736"/>
     <use style="fill:#0000ff;stroke:#0000ff;" x="207.933504" xlink:href="#m862a2bbbac" y="264.394873"/>
     <use style="fill:#0000ff;stroke:#0000ff;" x="201.390209" xlink:href="#m862a2bbbac" y="265.236879"/>
     <use style="fill:#0000ff;stroke:#0000ff;" x="195.095458" xlink:href="#m862a2bbbac" y="266.139752"/>
     <use style="fill:#0000ff;stroke:#0000ff;" x="189.028961" xlink:href="#m862a2bbbac" y="267.098421"/>
     <use style="fill:#0000ff;stroke:#0000ff;" x="183.190719" xlink:href="#m862a2bbbac" y="268.112885"/>
     <use style="fill:#0000ff;stroke:#0000ff;" x="177.565515" xlink:href="#m862a2bbbac" y="269.178073"/>
     <use style="fill:#0000ff;stroke:#0000ff;" x="172.148275" xlink:href="#m862a2bbbac" y="270.299056"/>
     <use style="fill:#0000ff;stroke:#0000ff;" x="166.923784" xlink:href="#m862a2bbbac" y="271.470762"/>
     <use style="fill:#0000ff;stroke:#0000ff;" x="161.886969" xlink:href="#m862a2bbbac" y="272.698264"/>
     <use style="fill:#0000ff;stroke:#0000ff;" x="157.032757" xlink:href="#m862a2bbbac" y="273.986633"/>
     <use style="fill:#0000ff;stroke:#0000ff;" x="152.351005" xlink:href="#m862a2bbbac" y="275.335871"/>
     <use style="fill:#0000ff;stroke:#0000ff;" x="147.831566" xlink:href="#m862a2bbbac" y="276.756121"/>
     <use style="fill:#0000ff;stroke:#0000ff;" x="143.479514" xlink:href="#m862a2bbbac" y="278.247383"/>
     <use style="fill:#0000ff;stroke:#0000ff;" x="139.279632" xlink:href="#m862a2bbbac" y="279.829948"/>
     <use style="fill:#0000ff;stroke:#0000ff;" x="135.236992" xlink:href="#m862a2bbbac" y="281.519031"/>
     <use style="fill:#0000ff;stroke:#0000ff;" x="131.336377" xlink:href="#m862a2bbbac" y="283.339994"/>
     <use style="fill:#0000ff;stroke:#0000ff;" x="127.587931" xlink:href="#m862a2bbbac" y="285.333416"/>
     <use style="fill:#0000ff;stroke:#0000ff;" x="123.991655" xlink:href="#m862a2bbbac" y="287.575383"/>
     <use style="fill:#0000ff;stroke:#0000ff;" x="120.557694" xlink:href="#m862a2bbbac" y="290.228207"/>
     <use style="fill:#0000ff;stroke:#0000ff;" x="117.326625" xlink:href="#m862a2bbbac" y="293.75347"/>
     <use style="fill:#0000ff;stroke:#0000ff;" x="115.855652" xlink:href="#m862a2bbbac" y="296.512813"/>
     <use style="fill:#0000ff;stroke:#0000ff;" x="115.363636" xlink:href="#m862a2bbbac" y="300.22068"/>
     <use style="fill:#0000ff;stroke:#0000ff;" x="116.575921" xlink:href="#m862a2bbbac" y="303.756088"/>
     <use style="fill:#0000ff;stroke:#0000ff;" x="118.554127" xlink:href="#m862a2bbbac" y="306.175585"/>
     <use style="fill:#0000ff;stroke:#0000ff;" x="122.378657" xlink:href="#m862a2bbbac" y="309.011013"/>
     <use style="fill:#0000ff;stroke:#0000ff;" x="126.218404" xlink:href="#m862a2bbbac" y="310.963857"/>
     <use style="fill:#0000ff;stroke:#0000ff;" x="130.124092" xlink:href="#m862a2bbbac" y="312.50077"/>
     <use style="fill:#0000ff;stroke:#0000ff;" x="134.121081" xlink:href="#m862a2bbbac" y="313.778995"/>
     <use style="fill:#0000ff;stroke:#0000ff;" x="138.219517" xlink:href="#m862a2bbbac" y="314.874617"/>
     <use style="fill:#0000ff;stroke:#0000ff;" x="142.429544" xlink:href="#m862a2bbbac" y="315.833286"/>
     <use style="fill:#0000ff;stroke:#0000ff;" x="146.756234" xlink:href="#m862a2bbbac" y="316.680363"/>
     <use style="fill:#0000ff;stroke:#0000ff;" x="151.214805" xlink:href="#m862a2bbbac" y="317.431067"/>
     <use style="fill:#0000ff;stroke:#0000ff;" x="155.810328" xlink:href="#m862a2bbbac" y="318.100613"/>
     <use style="fill:#0000ff;stroke:#0000ff;" x="160.542804" xlink:href="#m862a2bbbac" y="318.699147"/>
     <use style="fill:#0000ff;stroke:#0000ff;" x="165.432522" xlink:href="#m862a2bbbac" y="319.231741"/>
     <use style="fill:#0000ff;stroke:#0000ff;" x="170.479482" xlink:href="#m862a2bbbac" y="319.703467"/>
     <use style="fill:#0000ff;stroke:#0000ff;" x="175.688756" xlink:href="#m862a2bbbac" y="320.12447"/>
     <use style="fill:#0000ff;stroke:#0000ff;" x="181.080634" xlink:href="#m862a2bbbac" y="320.489677"/>
     <use style="fill:#0000ff;stroke:#0000ff;" x="186.655115" xlink:href="#m862a2bbbac" y="320.804161"/>
     <use style="fill:#0000ff;stroke:#0000ff;" x="192.422344" xlink:href="#m862a2bbbac" y="321.067921"/>
     <use style="fill:#0000ff;stroke:#0000ff;" x="198.397539" xlink:href="#m862a2bbbac" y="321.286031"/>
     <use style="fill:#0000ff;stroke:#0000ff;" x="204.585771" xlink:href="#m862a2bbbac" y="321.463562"/>
     <use style="fill:#0000ff;stroke:#0000ff;" x="211.002258" xlink:href="#m862a2bbbac" y="321.59037"/>
     <use style="fill:#0000ff;stroke:#0000ff;" x="217.657144" xlink:href="#m862a2bbbac" y="321.671528"/>
     <use style="fill:#0000ff;stroke:#0000ff;" x="224.560573" xlink:href="#m862a2bbbac" y="321.712106"/>
     <use style="fill:#0000ff;stroke:#0000ff;" x="231.737908" xlink:href="#m862a2bbbac" y="321.707034"/>
     <use style="fill:#0000ff;stroke:#0000ff;" x="239.189149" xlink:href="#m862a2bbbac" y="321.661383"/>
     <use style="fill:#0000ff;stroke:#0000ff;" x="246.939656" xlink:href="#m862a2bbbac" y="321.570081"/>
     <use style="fill:#0000ff;stroke:#0000ff;" x="255.004647" xlink:href="#m862a2bbbac" y="321.438201"/>
     <use style="fill:#0000ff;stroke:#0000ff;" x="263.399339" xlink:href="#m862a2bbbac" y="321.26067"/>
     <use style="fill:#0000ff;stroke:#0000ff;" x="272.144021" xlink:href="#m862a2bbbac" y="321.04256"/>
     <use style="fill:#0000ff;stroke:#0000ff;" x="281.264055" xlink:href="#m862a2bbbac" y="320.783871"/>
     <use style="fill:#0000ff;stroke:#0000ff;" x="290.77973" xlink:href="#m862a2bbbac" y="320.489677"/>
     <use style="fill:#0000ff;stroke:#0000ff;" x="300.711336" xlink:href="#m862a2bbbac" y="320.149831"/>
     <use style="fill:#0000ff;stroke:#0000ff;" x="311.089306" xlink:href="#m862a2bbbac" y="319.779552"/>
     <use style="fill:#0000ff;stroke:#0000ff;" x="321.969435" xlink:href="#m862a2bbbac" y="319.368694"/>
     <use style="fill:#0000ff;stroke:#0000ff;" x="333.412592" xlink:href="#m862a2bbbac" y="318.90204"/>
     <use style="fill:#0000ff;stroke:#0000ff;" x="345.398488" xlink:href="#m862a2bbbac" y="318.364374"/>
     <use style="fill:#0000ff;stroke:#0000ff;" x="357.952484" xlink:href="#m862a2bbbac" y="317.755695"/>
     <use style="fill:#0000ff;stroke:#0000ff;" x="371.12023" xlink:href="#m862a2bbbac" y="317.081077"/>
     <use style="fill:#0000ff;stroke:#0000ff;" x="384.937234" xlink:href="#m862a2bbbac" y="316.330373"/>
     <use style="fill:#0000ff;stroke:#0000ff;" x="399.449146" xlink:href="#m862a2bbbac" y="315.508657"/>
     <use style="fill:#0000ff;stroke:#0000ff;" x="414.701617" xlink:href="#m862a2bbbac" y="314.615928"/>
     <use style="fill:#0000ff;stroke:#0000ff;" x="430.755514" xlink:href="#m862a2bbbac" y="313.642043"/>
     <use style="fill:#0000ff;stroke:#0000ff;" x="447.656489" xlink:href="#m862a2bbbac" y="312.592072"/>
     <use style="fill:#0000ff;stroke:#0000ff;" x="465.475555" xlink:href="#m862a2bbbac" y="311.460944"/>
     <use style="fill:#0000ff;stroke:#0000ff;" x="484.283723" xlink:href="#m862a2bbbac" y="310.253732"/>
     <use style="fill:#0000ff;stroke:#0000ff;" x="504.146934" xlink:href="#m862a2bbbac" y="308.96029"/>
     <use style="fill:#0000ff;stroke:#0000ff;" x="525.151417" xlink:href="#m862a2bbbac" y="307.570474"/>
     <use style="fill:#0000ff;stroke:#0000ff;" x="547.388474" xlink:href="#m862a2bbbac" y="306.089356"/>
     <use style="fill:#0000ff;stroke:#0000ff;" x="570.95448" xlink:href="#m862a2bbbac" y="304.486502"/>
     <use style="fill:#0000ff;stroke:#0000ff;" x="595.97117" xlink:href="#m862a2bbbac" y="302.756841"/>
     <use style="fill:#0000ff;stroke:#0000ff;" x="622.555206" xlink:href="#m862a2bbbac" y="300.859793"/>
    </g>
   </g>
   <g id="patch_3">
    <path d="M 90 512.64 
L 90 69.12 
" style="fill:none;stroke:#000000;stroke-linecap:square;stroke-linejoin:miter;stroke-width:0.8;"/>
   </g>
   <g id="patch_4">
    <path d="M 648 512.64 
L 648 69.12 
" style="fill:none;stroke:#000000;stroke-linecap:square;stroke-linejoin:miter;stroke-width:0.8;"/>
   </g>
   <g id="patch_5">
    <path d="M 90 512.64 
L 648 512.64 
" style="fill:none;stroke:#000000;stroke-linecap:square;stroke-linejoin:miter;stroke-width:0.8;"/>
   </g>
   <g id="patch_6">
    <path d="M 90 69.12 
L 648 69.12 
" style="fill:none;stroke:#000000;stroke-linecap:square;stroke-linejoin:miter;stroke-width:0.8;"/>
   </g>
   <g id="legend_1">
    <g id="patch_7">
     <path d="M 564.09375 507.64 
L 641 507.64 
Q 643 507.64 643 505.64 
L 643 491.961875 
Q 643 489.961875 641 489.961875 
L 564.09375 489.961875 
Q 562.09375 489.961875 562.09375 491.961875 
L 562.09375 505.64 
Q 562.09375 507.64 564.09375 507.64 
z
" style="fill:#ffffff;opacity:0.8;stroke:#cccccc;stroke-linejoin:miter;"/>
    </g>
    <g id="line2d_17">
     <path d="M 566.09375 498.060313 
L 586.09375 498.060313 
" style="fill:none;stroke:#0000ff;stroke-dasharray:5.55,2.4;stroke-dashoffset:0;stroke-width:1.5;"/>
    </g>
    <g id="line2d_18">
     <g>
      <use style="fill:#0000ff;stroke:#0000ff;" x="576.09375" xlink:href="#m862a2bbbac" y="498.060313"/>
     </g>
    </g>
    <g id="text_16">
     <!-- RawData -->
     <g transform="translate(594.09375 501.560313)scale(0.1 -0.1)">
      <defs>
       <path d="M 44.390625 34.1875 
Q 47.5625 33.109375 50.5625 29.59375 
Q 53.5625 26.078125 56.59375 19.921875 
L 66.609375 0 
L 56 0 
L 46.6875 18.703125 
Q 43.0625 26.03125 39.671875 28.421875 
Q 36.28125 30.8125 30.421875 30.8125 
L 19.671875 30.8125 
L 19.671875 0 
L 9.8125 0 
L 9.8125 72.90625 
L 32.078125 72.90625 
Q 44.578125 72.90625 50.734375 67.671875 
Q 56.890625 62.453125 56.890625 51.90625 
Q 56.890625 45.015625 53.6875 40.46875 
Q 50.484375 35.9375 44.390625 34.1875 
z
M 19.671875 64.796875 
L 19.671875 38.921875 
L 32.078125 38.921875 
Q 39.203125 38.921875 42.84375 42.21875 
Q 46.484375 45.515625 46.484375 51.90625 
Q 46.484375 58.296875 42.84375 61.546875 
Q 39.203125 64.796875 32.078125 64.796875 
z
" id="DejaVuSans-82"/>
       <path d="M 34.28125 27.484375 
Q 23.390625 27.484375 19.1875 25 
Q 14.984375 22.515625 14.984375 16.5 
Q 14.984375 11.71875 18.140625 8.90625 
Q 21.296875 6.109375 26.703125 6.109375 
Q 34.1875 6.109375 38.703125 11.40625 
Q 43.21875 16.703125 43.21875 25.484375 
L 43.21875 27.484375 
z
M 52.203125 31.203125 
L 52.203125 0 
L 43.21875 0 
L 43.21875 8.296875 
Q 40.140625 3.328125 35.546875 0.953125 
Q 30.953125 -1.421875 24.3125 -1.421875 
Q 15.921875 -1.421875 10.953125 3.296875 
Q 6 8.015625 6 15.921875 
Q 6 25.140625 12.171875 29.828125 
Q 18.359375 34.515625 30.609375 34.515625 
L 43.21875 34.515625 
L 43.21875 35.40625 
Q 43.21875 41.609375 39.140625 45 
Q 35.0625 48.390625 27.6875 48.390625 
Q 23 48.390625 18.546875 47.265625 
Q 14.109375 46.140625 10.015625 43.890625 
L 10.015625 52.203125 
Q 14.9375 54.109375 19.578125 55.046875 
Q 24.21875 56 28.609375 56 
Q 40.484375 56 46.34375 49.84375 
Q 52.203125 43.703125 52.203125 31.203125 
z
" id="DejaVuSans-97"/>
       <path d="M 4.203125 54.6875 
L 13.1875 54.6875 
L 24.421875 12.015625 
L 35.59375 54.6875 
L 46.1875 54.6875 
L 57.421875 12.015625 
L 68.609375 54.6875 
L 77.59375 54.6875 
L 63.28125 0 
L 52.6875 0 
L 40.921875 44.828125 
L 29.109375 0 
L 18.5 0 
z
" id="DejaVuSans-119"/>
       <path d="M 19.671875 64.796875 
L 19.671875 8.109375 
L 31.59375 8.109375 
Q 46.6875 8.109375 53.6875 14.9375 
Q 60.6875 21.78125 60.6875 36.53125 
Q 60.6875 51.171875 53.6875 57.984375 
Q 46.6875 64.796875 31.59375 64.796875 
z
M 9.8125 72.90625 
L 30.078125 72.90625 
Q 51.265625 72.90625 61.171875 64.09375 
Q 71.09375 55.28125 71.09375 36.53125 
Q 71.09375 17.671875 61.125 8.828125 
Q 51.171875 0 30.078125 0 
L 9.8125 0 
z
" id="DejaVuSans-68"/>
       <path d="M 18.3125 70.21875 
L 18.3125 54.6875 
L 36.8125 54.6875 
L 36.8125 47.703125 
L 18.3125 47.703125 
L 18.3125 18.015625 
Q 18.3125 11.328125 20.140625 9.421875 
Q 21.96875 7.515625 27.59375 7.515625 
L 36.8125 7.515625 
L 36.8125 0 
L 27.59375 0 
Q 17.1875 0 13.234375 3.875 
Q 9.28125 7.765625 9.28125 18.015625 
L 9.28125 47.703125 
L 2.6875 47.703125 
L 2.6875 54.6875 
L 9.28125 54.6875 
L 9.28125 70.21875 
z
" id="DejaVuSans-116"/>
      </defs>
      <use xlink:href="#DejaVuSans-82"/>
      <use x="67.232422" xlink:href="#DejaVuSans-97"/>
      <use x="128.511719" xlink:href="#DejaVuSans-119"/>
      <use x="210.298828" xlink:href="#DejaVuSans-68"/>
      <use x="287.300781" xlink:href="#DejaVuSans-97"/>
      <use x="348.580078" xlink:href="#DejaVuSans-116"/>
      <use x="387.789062" xlink:href="#DejaVuSans-97"/>
     </g>
    </g>
   </g>
  </g>
  <g id="axes_2">
   <g id="matplotlib.axis_3">
    <g id="ytick_10">
     <g id="line2d_19">
      <path clip-path="url(#pf95d80149d)" d="M 90 468.288 
L 648 468.288 
" style="fill:none;stroke:#b0b0b0;stroke-linecap:square;stroke-width:0.8;"/>
     </g>
     <g id="line2d_20">
      <defs>
       <path d="M 0 0 
L 3.5 0 
" id="m1ae72d6bb6" style="stroke:#000000;stroke-width:0.8;"/>
      </defs>
      <g>
       <use style="stroke:#000000;stroke-width:0.8;" x="648" xlink:href="#m1ae72d6bb6" y="468.288"/>
      </g>
     </g>
     <g id="text_17">
      <!-- −400 -->
      <g transform="translate(655 472.087219)scale(0.1 -0.1)">
       <use xlink:href="#DejaVuSans-8722"/>
       <use x="83.789062" xlink:href="#DejaVuSans-52"/>
       <use x="147.412109" xlink:href="#DejaVuSans-48"/>
       <use x="211.035156" xlink:href="#DejaVuSans-48"/>
      </g>
     </g>
    </g>
    <g id="ytick_11">
     <g id="line2d_21">
      <path clip-path="url(#pf95d80149d)" d="M 90 379.584 
L 648 379.584 
" style="fill:none;stroke:#b0b0b0;stroke-linecap:square;stroke-width:0.8;"/>
     </g>
     <g id="line2d_22">
      <g>
       <use style="stroke:#000000;stroke-width:0.8;" x="648" xlink:href="#m1ae72d6bb6" y="379.584"/>
      </g>
     </g>
     <g id="text_18">
      <!-- −200 -->
      <g transform="translate(655 383.383219)scale(0.1 -0.1)">
       <use xlink:href="#DejaVuSans-8722"/>
       <use x="83.789062" xlink:href="#DejaVuSans-50"/>
       <use x="147.412109" xlink:href="#DejaVuSans-48"/>
       <use x="211.035156" xlink:href="#DejaVuSans-48"/>
      </g>
     </g>
    </g>
    <g id="ytick_12">
     <g id="line2d_23">
      <path clip-path="url(#pf95d80149d)" d="M 90 290.88 
L 648 290.88 
" style="fill:none;stroke:#b0b0b0;stroke-linecap:square;stroke-width:0.8;"/>
     </g>
     <g id="line2d_24">
      <g>
       <use style="stroke:#000000;stroke-width:0.8;" x="648" xlink:href="#m1ae72d6bb6" y="290.88"/>
      </g>
     </g>
     <g id="text_19">
      <!-- 0 -->
      <g transform="translate(655 294.679219)scale(0.1 -0.1)">
       <use xlink:href="#DejaVuSans-48"/>
      </g>
     </g>
    </g>
    <g id="ytick_13">
     <g id="line2d_25">
      <path clip-path="url(#pf95d80149d)" d="M 90 202.176 
L 648 202.176 
" style="fill:none;stroke:#b0b0b0;stroke-linecap:square;stroke-width:0.8;"/>
     </g>
     <g id="line2d_26">
      <g>
       <use style="stroke:#000000;stroke-width:0.8;" x="648" xlink:href="#m1ae72d6bb6" y="202.176"/>
      </g>
     </g>
     <g id="text_20">
      <!-- 200 -->
      <g transform="translate(655 205.975219)scale(0.1 -0.1)">
       <use xlink:href="#DejaVuSans-50"/>
       <use x="63.623047" xlink:href="#DejaVuSans-48"/>
       <use x="127.246094" xlink:href="#DejaVuSans-48"/>
      </g>
     </g>
    </g>
    <g id="ytick_14">
     <g id="line2d_27">
      <path clip-path="url(#pf95d80149d)" d="M 90 113.472 
L 648 113.472 
" style="fill:none;stroke:#b0b0b0;stroke-linecap:square;stroke-width:0.8;"/>
     </g>
     <g id="line2d_28">
      <g>
       <use style="stroke:#000000;stroke-width:0.8;" x="648" xlink:href="#m1ae72d6bb6" y="113.472"/>
      </g>
     </g>
     <g id="text_21">
      <!-- 400 -->
      <g transform="translate(655 117.271219)scale(0.1 -0.1)">
       <use xlink:href="#DejaVuSans-52"/>
       <use x="63.623047" xlink:href="#DejaVuSans-48"/>
       <use x="127.246094" xlink:href="#DejaVuSans-48"/>
      </g>
     </g>
    </g>
   </g>
   <g id="line2d_29">
    <path clip-path="url(#pf95d80149d)" d="M 622.636364 288.674803 
L 622.636364 288.511156 
L 596.483474 288.511156 
L 596.483474 288.33969 
L 571.776196 288.33969 
L 571.776196 288.161491 
L 548.418156 288.161491 
L 548.418156 287.973888 
L 526.312979 287.973888 
L 526.312979 287.776153 
L 505.374435 287.776153 
L 505.374435 287.548213 
L 485.531514 287.548213 
L 485.531514 287.295219 
L 466.708129 287.295219 
L 466.708129 287.023104 
L 448.833268 287.023104 
L 448.833268 286.701989 
L 431.851136 286.701989 
L 431.851136 286.309029 
L 415.700864 286.309029 
L 415.700864 285.880005 
L 400.33173 285.880005 
L 400.33173 285.333984 
L 385.69301 285.333984 
L 385.69301 284.658861 
L 371.739054 284.658861 
L 371.739054 283.760935 
L 358.434354 283.760935 
L 358.434354 282.595185 
L 345.733261 282.595185 
L 345.733261 280.845909 
L 333.605341 280.845909 
L 333.605341 278.23104 
L 322.015086 278.23104 
L 322.015086 270.987656 
L 310.876268 270.987656 
L 310.876268 250.19712 
L 300.183814 250.19712 
L 300.183814 576.65472 
L 289.94787 576.65472 
L 289.94787 323.753702 
L 280.143072 323.753702 
L 280.143072 308.394112 
L 270.74406 308.394112 
L 270.74406 302.513871 
L 261.730545 302.513871 
L 261.730545 299.728765 
L 253.082237 299.728765 
L 253.082237 297.91808 
L 244.783919 297.91808 
L 244.783919 296.750804 
L 236.815302 296.750804 
L 236.815302 295.90425 
L 229.161169 295.90425 
L 229.161169 295.233992 
L 221.806303 295.233992 
L 221.806303 294.74208 
L 214.735487 294.74208 
L 214.735487 294.326631 
L 207.933504 294.326631 
L 207.933504 293.972182 
L 201.390209 293.972182 
L 201.390209 293.686613 
L 195.095458 293.686613 
L 195.095458 293.432458 
L 189.028961 293.432458 
L 189.028961 293.222208 
L 183.190719 293.222208 
L 183.190719 293.023346 
L 177.565515 293.023346 
L 177.565515 292.8576 
L 172.148275 292.8576 
L 172.148275 292.699898 
L 166.923784 292.699898 
L 166.923784 292.551058 
L 161.886969 292.551058 
L 161.886969 292.418981 
L 157.032757 292.418981 
L 157.032757 292.291344 
L 152.351005 292.291344 
L 152.351005 292.174354 
L 147.831566 292.174354 
L 147.831566 292.057034 
L 143.479514 292.057034 
L 143.479514 291.941518 
L 139.279632 291.941518 
L 139.279632 291.830047 
L 135.236992 291.830047 
L 135.236992 291.713998 
L 131.336377 291.713998 
L 131.336377 291.591438 
L 127.587931 291.591438 
L 127.587931 291.454117 
L 123.991655 291.454117 
L 123.991655 291.286507 
L 120.557694 291.286507 
L 120.557694 291.116435 
L 117.326625 291.116435 
L 117.326625 290.938853 
L 115.855652 290.938853 
L 115.855652 290.727918 
L 115.363636 290.727918 
L 115.363636 290.517374 
L 116.575921 290.517374 
L 116.575921 290.281764 
L 118.554127 290.281764 
L 118.554127 290.007936 
L 122.378657 290.007936 
L 122.378657 289.752903 
L 126.218404 289.752903 
L 126.218404 289.49312 
L 130.124092 289.49312 
L 130.124092 289.220907 
L 134.121081 289.220907 
L 134.121081 288.932267 
L 138.219517 288.932267 
L 138.219517 288.614595 
L 142.429544 288.614595 
L 142.429544 288.245851 
L 146.756234 288.245851 
L 146.756234 287.83584 
L 151.214805 287.83584 
L 151.214805 287.373185 
L 155.810328 287.373185 
L 155.810328 286.808064 
L 160.542804 286.808064 
L 160.542804 286.134813 
L 165.432522 286.134813 
L 165.432522 285.392108 
L 170.479482 285.392108 
L 170.479482 284.33192 
L 175.688756 284.33192 
L 175.688756 283.01825 
L 181.080634 283.01825 
L 181.080634 281.182265 
L 186.655115 281.182265 
L 186.655115 278.729615 
L 192.422344 278.729615 
L 192.422344 275.42016 
L 198.397539 275.42016 
L 198.397539 268.437888 
L 204.585771 268.437888 
L 204.585771 254.51136 
L 211.002258 254.51136 
L 211.002258 215.42616 
L 217.657144 215.42616 
L 217.657144 577 
M 224.560573 577 
L 224.560573 363.27232 
L 231.737908 363.27232 
L 231.737908 328.52992 
L 239.189149 328.52992 
L 239.189149 318.002954 
L 246.939656 318.002954 
L 246.939656 311.85216 
L 255.004647 311.85216 
L 255.004647 308.662058 
L 263.399339 308.662058 
L 263.399339 306.516254 
L 272.144021 306.516254 
L 272.144021 305.225578 
L 281.264055 305.225578 
L 281.264055 303.841376 
L 290.77973 303.841376 
L 290.77973 303.310711 
L 300.711336 303.310711 
L 300.711336 302.625067 
L 311.089306 302.625067 
L 311.089306 301.755882 
L 321.969435 301.755882 
L 321.969435 300.767149 
L 333.412592 300.767149 
L 333.412592 300.0276 
L 345.398488 300.0276 
L 345.398488 299.536977 
L 357.952484 299.536977 
L 357.952484 299.043165 
L 371.12023 299.043165 
L 371.12023 298.712782 
L 384.937234 298.712782 
L 384.937234 298.45764 
L 399.449146 298.45764 
L 399.449146 298.19115 
L 414.701617 298.19115 
L 414.701617 298.019172 
L 430.755514 298.019172 
L 430.755514 297.866932 
L 465.475555 297.789967 
L 465.475555 297.691076 
L 504.146934 297.582979 
L 504.146934 297.538876 
L 525.151417 297.538876 
L 525.151417 297.400867 
L 570.95448 297.294782 
L 570.95448 297.095209 
L 622.555206 297.095209 
L 622.555206 297.095209 
" style="fill:none;stroke:#ff0000;stroke-linecap:square;stroke-width:1.5;"/>
   </g>
   <g id="line2d_30">
    <path clip-path="url(#pf95d80149d)" d="M 622.636364 288.674803 
L 622.636364 288.511156 
L 596.483474 288.511156 
L 596.483474 288.33969 
L 571.776196 288.33969 
L 571.776196 288.161491 
L 548.418156 288.161491 
L 548.418156 287.973888 
L 526.312979 287.973888 
L 526.312979 287.776153 
L 505.374435 287.776153 
L 505.374435 287.548213 
L 485.531514 287.548213 
L 485.531514 287.295219 
L 466.708129 287.295219 
L 466.708129 287.023104 
L 448.833268 287.023104 
L 448.833268 286.701989 
L 431.851136 286.701989 
L 431.851136 286.309029 
L 415.700864 286.309029 
L 415.700864 285.880005 
L 400.33173 285.880005 
L 400.33173 285.333984 
L 385.69301 285.333984 
L 385.69301 284.658861 
L 371.739054 284.658861 
L 371.739054 283.760935 
L 358.434354 283.760935 
L 358.434354 282.595185 
L 345.733261 282.595185 
L 345.733261 280.845909 
L 333.605341 280.845909 
L 333.605341 278.23104 
L 322.015086 278.23104 
L 322.015086 270.987656 
L 310.876268 270.987656 
L 310.876268 250.19712 
L 300.183814 250.19712 
L 300.183814 576.65472 
L 289.94787 576.65472 
L 289.94787 323.753702 
L 280.143072 323.753702 
L 280.143072 308.394112 
L 270.74406 308.394112 
L 270.74406 302.513871 
L 261.730545 302.513871 
L 261.730545 299.728765 
L 253.082237 299.728765 
L 253.082237 297.91808 
L 244.783919 297.91808 
L 244.783919 296.750804 
L 236.815302 296.750804 
L 236.815302 295.90425 
L 229.161169 295.90425 
L 229.161169 295.233992 
L 221.806303 295.233992 
L 221.806303 294.74208 
L 214.735487 294.74208 
L 214.735487 294.326631 
L 207.933504 294.326631 
L 207.933504 293.972182 
L 201.390209 293.972182 
L 201.390209 293.686613 
L 195.095458 293.686613 
L 195.095458 293.432458 
L 189.028961 293.432458 
L 189.028961 293.222208 
L 183.190719 293.222208 
L 183.190719 293.023346 
L 177.565515 293.023346 
L 177.565515 292.8576 
L 172.148275 292.8576 
L 172.148275 292.699898 
L 166.923784 292.699898 
L 166.923784 292.551058 
L 161.886969 292.551058 
L 161.886969 292.418981 
L 157.032757 292.418981 
L 157.032757 292.291344 
L 152.351005 292.291344 
L 152.351005 292.174354 
L 147.831566 292.174354 
L 147.831566 292.057034 
L 143.479514 292.057034 
L 143.479514 291.941518 
L 139.279632 291.941518 
L 139.279632 291.830047 
L 135.236992 291.830047 
L 135.236992 291.713998 
L 131.336377 291.713998 
L 131.336377 291.591438 
L 127.587931 291.591438 
L 127.587931 291.454117 
L 123.991655 291.454117 
L 123.991655 291.286507 
L 120.557694 291.286507 
L 120.557694 291.116435 
L 117.326625 291.116435 
L 117.326625 290.938853 
L 115.855652 290.938853 
L 115.855652 290.727918 
L 115.363636 290.727918 
L 115.363636 290.517374 
L 116.575921 290.517374 
L 116.575921 290.281764 
L 118.554127 290.281764 
L 118.554127 290.007936 
L 122.378657 290.007936 
L 122.378657 289.752903 
L 126.218404 289.752903 
L 126.218404 289.49312 
L 130.124092 289.49312 
L 130.124092 289.220907 
L 134.121081 289.220907 
L 134.121081 288.932267 
L 138.219517 288.932267 
L 138.219517 288.614595 
L 142.429544 288.614595 
L 142.429544 288.245851 
L 146.756234 288.245851 
L 146.756234 287.83584 
L 151.214805 287.83584 
L 151.214805 287.373185 
L 155.810328 287.373185 
L 155.810328 286.808064 
L 160.542804 286.808064 
L 160.542804 286.134813 
L 165.432522 286.134813 
L 165.432522 285.392108 
L 170.479482 285.392108 
L 170.479482 284.33192 
L 175.688756 284.33192 
L 175.688756 283.01825 
L 181.080634 283.01825 
L 181.080634 281.182265 
L 186.655115 281.182265 
L 186.655115 278.729615 
L 192.422344 278.729615 
L 192.422344 275.42016 
L 198.397539 275.42016 
L 198.397539 268.437888 
L 204.585771 268.437888 
L 204.585771 254.51136 
L 211.002258 254.51136 
L 211.002258 215.42616 
L 217.657144 215.42616 
L 217.657144 577 
M 224.560573 577 
L 224.560573 363.27232 
L 231.737908 363.27232 
L 231.737908 328.52992 
L 239.189149 328.52992 
L 239.189149 318.002954 
L 246.939656 318.002954 
L 246.939656 311.85216 
L 255.004647 311.85216 
L 255.004647 308.662058 
L 263.399339 308.662058 
L 263.399339 306.516254 
L 272.144021 306.516254 
L 272.144021 305.225578 
L 281.264055 305.225578 
L 281.264055 303.841376 
L 290.77973 303.841376 
L 290.77973 303.310711 
L 300.711336 303.310711 
L 300.711336 302.625067 
L 311.089306 302.625067 
L 311.089306 301.755882 
L 321.969435 301.755882 
L 321.969435 300.767149 
L 333.412592 300.767149 
L 333.412592 300.0276 
L 345.398488 300.0276 
L 345.398488 299.536977 
L 357.952484 299.536977 
L 357.952484 299.043165 
L 371.12023 299.043165 
L 371.12023 298.712782 
L 384.937234 298.712782 
L 384.937234 298.45764 
L 399.449146 298.45764 
L 399.449146 298.19115 
L 414.701617 298.19115 
L 414.701617 298.019172 
L 430.755514 298.019172 
L 430.755514 297.866932 
L 465.475555 297.789967 
L 465.475555 297.691076 
L 504.146934 297.582979 
L 504.146934 297.538876 
L 525.151417 297.538876 
L 525.151417 297.400867 
L 570.95448 297.294782 
L 570.95448 297.095209 
L 622.555206 297.095209 
L 622.555206 297.095209 
" style="fill:none;stroke:#000000;stroke-dasharray:5.55,2.4;stroke-dashoffset:0;stroke-width:1.5;"/>
   </g>
   <g id="patch_8">
    <path d="M 90 512.64 
L 90 69.12 
" style="fill:none;stroke:#000000;stroke-linecap:square;stroke-linejoin:miter;stroke-width:0.8;"/>
   </g>
   <g id="patch_9">
    <path d="M 648 512.64 
L 648 69.12 
" style="fill:none;stroke:#000000;stroke-linecap:square;stroke-linejoin:miter;stroke-width:0.8;"/>
   </g>
   <g id="patch_10">
    <path d="M 90 512.64 
L 648 512.64 
" style="fill:none;stroke:#000000;stroke-linecap:square;stroke-linejoin:miter;stroke-width:0.8;"/>
   </g>
   <g id="patch_11">
    <path d="M 90 69.12 
L 648 69.12 
" style="fill:none;stroke:#000000;stroke-linecap:square;stroke-linejoin:miter;stroke-width:0.8;"/>
   </g>
   <g id="text_22">
    <!-- Example of 3.2.2.1 -->
    <g transform="translate(312.380625 63.12)scale(0.12 -0.12)">
     <defs>
      <path d="M 9.8125 72.90625 
L 55.90625 72.90625 
L 55.90625 64.59375 
L 19.671875 64.59375 
L 19.671875 43.015625 
L 54.390625 43.015625 
L 54.390625 34.71875 
L 19.671875 34.71875 
L 19.671875 8.296875 
L 56.78125 8.296875 
L 56.78125 0 
L 9.8125 0 
z
" id="DejaVuSans-69"/>
      <path d="M 54.890625 54.6875 
L 35.109375 28.078125 
L 55.90625 0 
L 45.3125 0 
L 29.390625 21.484375 
L 13.484375 0 
L 2.875 0 
L 24.125 28.609375 
L 4.6875 54.6875 
L 15.28125 54.6875 
L 29.78125 35.203125 
L 44.28125 54.6875 
z
" id="DejaVuSans-120"/>
      <path d="M 52 44.1875 
Q 55.375 50.25 60.0625 53.125 
Q 64.75 56 71.09375 56 
Q 79.640625 56 84.28125 50.015625 
Q 88.921875 44.046875 88.921875 33.015625 
L 88.921875 0 
L 79.890625 0 
L 79.890625 32.71875 
Q 79.890625 40.578125 77.09375 44.375 
Q 74.3125 48.1875 68.609375 48.1875 
Q 61.625 48.1875 57.5625 43.546875 
Q 53.515625 38.921875 53.515625 30.90625 
L 53.515625 0 
L 44.484375 0 
L 44.484375 32.71875 
Q 44.484375 40.625 41.703125 44.40625 
Q 38.921875 48.1875 33.109375 48.1875 
Q 26.21875 48.1875 22.15625 43.53125 
Q 18.109375 38.875 18.109375 30.90625 
L 18.109375 0 
L 9.078125 0 
L 9.078125 54.6875 
L 18.109375 54.6875 
L 18.109375 46.1875 
Q 21.1875 51.21875 25.484375 53.609375 
Q 29.78125 56 35.6875 56 
Q 41.65625 56 45.828125 52.96875 
Q 50 49.953125 52 44.1875 
z
" id="DejaVuSans-109"/>
      <path d="M 18.109375 8.203125 
L 18.109375 -20.796875 
L 9.078125 -20.796875 
L 9.078125 54.6875 
L 18.109375 54.6875 
L 18.109375 46.390625 
Q 20.953125 51.265625 25.265625 53.625 
Q 29.59375 56 35.59375 56 
Q 45.5625 56 51.78125 48.09375 
Q 58.015625 40.1875 58.015625 27.296875 
Q 58.015625 14.40625 51.78125 6.484375 
Q 45.5625 -1.421875 35.59375 -1.421875 
Q 29.59375 -1.421875 25.265625 0.953125 
Q 20.953125 3.328125 18.109375 8.203125 
z
M 48.6875 27.296875 
Q 48.6875 37.203125 44.609375 42.84375 
Q 40.53125 48.484375 33.40625 48.484375 
Q 26.265625 48.484375 22.1875 42.84375 
Q 18.109375 37.203125 18.109375 27.296875 
Q 18.109375 17.390625 22.1875 11.75 
Q 26.265625 6.109375 33.40625 6.109375 
Q 40.53125 6.109375 44.609375 11.75 
Q 48.6875 17.390625 48.6875 27.296875 
z
" id="DejaVuSans-112"/>
      <path d="M 9.421875 75.984375 
L 18.40625 75.984375 
L 18.40625 0 
L 9.421875 0 
z
" id="DejaVuSans-108"/>
      <path d="M 56.203125 29.59375 
L 56.203125 25.203125 
L 14.890625 25.203125 
Q 15.484375 15.921875 20.484375 11.0625 
Q 25.484375 6.203125 34.421875 6.203125 
Q 39.59375 6.203125 44.453125 7.46875 
Q 49.3125 8.734375 54.109375 11.28125 
L 54.109375 2.78125 
Q 49.265625 0.734375 44.1875 -0.34375 
Q 39.109375 -1.421875 33.890625 -1.421875 
Q 20.796875 -1.421875 13.15625 6.1875 
Q 5.515625 13.8125 5.515625 26.8125 
Q 5.515625 40.234375 12.765625 48.109375 
Q 20.015625 56 32.328125 56 
Q 43.359375 56 49.78125 48.890625 
Q 56.203125 41.796875 56.203125 29.59375 
z
M 47.21875 32.234375 
Q 47.125 39.59375 43.09375 43.984375 
Q 39.0625 48.390625 32.421875 48.390625 
Q 24.90625 48.390625 20.390625 44.140625 
Q 15.875 39.890625 15.1875 32.171875 
z
" id="DejaVuSans-101"/>
      <path id="DejaVuSans-32"/>
      <path d="M 30.609375 48.390625 
Q 23.390625 48.390625 19.1875 42.75 
Q 14.984375 37.109375 14.984375 27.296875 
Q 14.984375 17.484375 19.15625 11.84375 
Q 23.34375 6.203125 30.609375 6.203125 
Q 37.796875 6.203125 41.984375 11.859375 
Q 46.1875 17.53125 46.1875 27.296875 
Q 46.1875 37.015625 41.984375 42.703125 
Q 37.796875 48.390625 30.609375 48.390625 
z
M 30.609375 56 
Q 42.328125 56 49.015625 48.375 
Q 55.71875 40.765625 55.71875 27.296875 
Q 55.71875 13.875 49.015625 6.21875 
Q 42.328125 -1.421875 30.609375 -1.421875 
Q 18.84375 -1.421875 12.171875 6.21875 
Q 5.515625 13.875 5.515625 27.296875 
Q 5.515625 40.765625 12.171875 48.375 
Q 18.84375 56 30.609375 56 
z
" id="DejaVuSans-111"/>
      <path d="M 37.109375 75.984375 
L 37.109375 68.5 
L 28.515625 68.5 
Q 23.6875 68.5 21.796875 66.546875 
Q 19.921875 64.59375 19.921875 59.515625 
L 19.921875 54.6875 
L 34.71875 54.6875 
L 34.71875 47.703125 
L 19.921875 47.703125 
L 19.921875 0 
L 10.890625 0 
L 10.890625 47.703125 
L 2.296875 47.703125 
L 2.296875 54.6875 
L 10.890625 54.6875 
L 10.890625 58.5 
Q 10.890625 67.625 15.140625 71.796875 
Q 19.390625 75.984375 28.609375 75.984375 
z
" id="DejaVuSans-102"/>
     </defs>
     <use xlink:href="#DejaVuSans-69"/>
     <use x="63.183594" xlink:href="#DejaVuSans-120"/>
     <use x="122.363281" xlink:href="#DejaVuSans-97"/>
     <use x="183.642578" xlink:href="#DejaVuSans-109"/>
     <use x="281.054688" xlink:href="#DejaVuSans-112"/>
     <use x="344.53125" xlink:href="#DejaVuSans-108"/>
     <use x="372.314453" xlink:href="#DejaVuSans-101"/>
     <use x="433.837891" xlink:href="#DejaVuSans-32"/>
     <use x="465.625" xlink:href="#DejaVuSans-111"/>
     <use x="526.806641" xlink:href="#DejaVuSans-102"/>
     <use x="562.011719" xlink:href="#DejaVuSans-32"/>
     <use x="593.798828" xlink:href="#DejaVuSans-51"/>
     <use x="657.421875" xlink:href="#DejaVuSans-46"/>
     <use x="689.208984" xlink:href="#DejaVuSans-50"/>
     <use x="752.832031" xlink:href="#DejaVuSans-46"/>
     <use x="784.619141" xlink:href="#DejaVuSans-50"/>
     <use x="848.242188" xlink:href="#DejaVuSans-46"/>
     <use x="880.029297" xlink:href="#DejaVuSans-49"/>
    </g>
   </g>
   <g id="legend_2">
    <g id="patch_12">
     <path d="M 482.785937 106.47625 
L 641 106.47625 
Q 643 106.47625 643 104.47625 
L 643 76.12 
Q 643 74.12 641 74.12 
L 482.785937 74.12 
Q 480.785937 74.12 480.785937 76.12 
L 480.785937 104.47625 
Q 480.785937 106.47625 482.785937 106.47625 
z
" style="fill:#ffffff;opacity:0.8;stroke:#cccccc;stroke-linejoin:miter;"/>
    </g>
    <g id="line2d_31">
     <path d="M 484.785937 82.218438 
L 504.785937 82.218438 
" style="fill:none;stroke:#ff0000;stroke-linecap:square;stroke-width:1.5;"/>
    </g>
    <g id="line2d_32"/>
    <g id="text_23">
     <!-- Numerical Differentiation -->
     <g transform="translate(512.785938 85.718438)scale(0.1 -0.1)">
      <defs>
       <path d="M 9.8125 72.90625 
L 23.09375 72.90625 
L 55.421875 11.921875 
L 55.421875 72.90625 
L 64.984375 72.90625 
L 64.984375 0 
L 51.703125 0 
L 19.390625 60.984375 
L 19.390625 0 
L 9.8125 0 
z
" id="DejaVuSans-78"/>
       <path d="M 8.5 21.578125 
L 8.5 54.6875 
L 17.484375 54.6875 
L 17.484375 21.921875 
Q 17.484375 14.15625 20.5 10.265625 
Q 23.53125 6.390625 29.59375 6.390625 
Q 36.859375 6.390625 41.078125 11.03125 
Q 45.3125 15.671875 45.3125 23.6875 
L 45.3125 54.6875 
L 54.296875 54.6875 
L 54.296875 0 
L 45.3125 0 
L 45.3125 8.40625 
Q 42.046875 3.421875 37.71875 1 
Q 33.40625 -1.421875 27.6875 -1.421875 
Q 18.265625 -1.421875 13.375 4.4375 
Q 8.5 10.296875 8.5 21.578125 
z
M 31.109375 56 
z
" id="DejaVuSans-117"/>
       <path d="M 41.109375 46.296875 
Q 39.59375 47.171875 37.8125 47.578125 
Q 36.03125 48 33.890625 48 
Q 26.265625 48 22.1875 43.046875 
Q 18.109375 38.09375 18.109375 28.8125 
L 18.109375 0 
L 9.078125 0 
L 9.078125 54.6875 
L 18.109375 54.6875 
L 18.109375 46.1875 
Q 20.953125 51.171875 25.484375 53.578125 
Q 30.03125 56 36.53125 56 
Q 37.453125 56 38.578125 55.875 
Q 39.703125 55.765625 41.0625 55.515625 
z
" id="DejaVuSans-114"/>
       <path d="M 9.421875 54.6875 
L 18.40625 54.6875 
L 18.40625 0 
L 9.421875 0 
z
M 9.421875 75.984375 
L 18.40625 75.984375 
L 18.40625 64.59375 
L 9.421875 64.59375 
z
" id="DejaVuSans-105"/>
       <path d="M 48.78125 52.59375 
L 48.78125 44.1875 
Q 44.96875 46.296875 41.140625 47.34375 
Q 37.3125 48.390625 33.40625 48.390625 
Q 24.65625 48.390625 19.8125 42.84375 
Q 14.984375 37.3125 14.984375 27.296875 
Q 14.984375 17.28125 19.8125 11.734375 
Q 24.65625 6.203125 33.40625 6.203125 
Q 37.3125 6.203125 41.140625 7.25 
Q 44.96875 8.296875 48.78125 10.40625 
L 48.78125 2.09375 
Q 45.015625 0.34375 40.984375 -0.53125 
Q 36.96875 -1.421875 32.421875 -1.421875 
Q 20.0625 -1.421875 12.78125 6.34375 
Q 5.515625 14.109375 5.515625 27.296875 
Q 5.515625 40.671875 12.859375 48.328125 
Q 20.21875 56 33.015625 56 
Q 37.15625 56 41.109375 55.140625 
Q 45.0625 54.296875 48.78125 52.59375 
z
" id="DejaVuSans-99"/>
       <path d="M 54.890625 33.015625 
L 54.890625 0 
L 45.90625 0 
L 45.90625 32.71875 
Q 45.90625 40.484375 42.875 44.328125 
Q 39.84375 48.1875 33.796875 48.1875 
Q 26.515625 48.1875 22.3125 43.546875 
Q 18.109375 38.921875 18.109375 30.90625 
L 18.109375 0 
L 9.078125 0 
L 9.078125 54.6875 
L 18.109375 54.6875 
L 18.109375 46.1875 
Q 21.34375 51.125 25.703125 53.5625 
Q 30.078125 56 35.796875 56 
Q 45.21875 56 50.046875 50.171875 
Q 54.890625 44.34375 54.890625 33.015625 
z
" id="DejaVuSans-110"/>
      </defs>
      <use xlink:href="#DejaVuSans-78"/>
      <use x="74.804688" xlink:href="#DejaVuSans-117"/>
      <use x="138.183594" xlink:href="#DejaVuSans-109"/>
      <use x="235.595703" xlink:href="#DejaVuSans-101"/>
      <use x="297.119141" xlink:href="#DejaVuSans-114"/>
      <use x="338.232422" xlink:href="#DejaVuSans-105"/>
      <use x="366.015625" xlink:href="#DejaVuSans-99"/>
      <use x="420.996094" xlink:href="#DejaVuSans-97"/>
      <use x="482.275391" xlink:href="#DejaVuSans-108"/>
      <use x="510.058594" xlink:href="#DejaVuSans-32"/>
      <use x="541.845703" xlink:href="#DejaVuSans-68"/>
      <use x="618.847656" xlink:href="#DejaVuSans-105"/>
      <use x="646.630859" xlink:href="#DejaVuSans-102"/>
      <use x="681.835938" xlink:href="#DejaVuSans-102"/>
      <use x="717.041016" xlink:href="#DejaVuSans-101"/>
      <use x="778.564453" xlink:href="#DejaVuSans-114"/>
      <use x="817.427734" xlink:href="#DejaVuSans-101"/>
      <use x="878.951172" xlink:href="#DejaVuSans-110"/>
      <use x="942.330078" xlink:href="#DejaVuSans-116"/>
      <use x="981.539062" xlink:href="#DejaVuSans-105"/>
      <use x="1009.322266" xlink:href="#DejaVuSans-97"/>
      <use x="1070.601562" xlink:href="#DejaVuSans-116"/>
      <use x="1109.810547" xlink:href="#DejaVuSans-105"/>
      <use x="1137.59375" xlink:href="#DejaVuSans-111"/>
      <use x="1198.775391" xlink:href="#DejaVuSans-110"/>
     </g>
    </g>
    <g id="line2d_33">
     <path d="M 484.785937 96.896563 
L 504.785937 96.896563 
" style="fill:none;stroke:#000000;stroke-dasharray:5.55,2.4;stroke-dashoffset:0;stroke-width:1.5;"/>
    </g>
    <g id="line2d_34"/>
    <g id="text_24">
     <!-- Arctan2 -->
     <g transform="translate(512.785938 100.396563)scale(0.1 -0.1)">
      <defs>
       <path d="M 34.1875 63.1875 
L 20.796875 26.90625 
L 47.609375 26.90625 
z
M 28.609375 72.90625 
L 39.796875 72.90625 
L 67.578125 0 
L 57.328125 0 
L 50.6875 18.703125 
L 17.828125 18.703125 
L 11.1875 0 
L 0.78125 0 
z
" id="DejaVuSans-65"/>
      </defs>
      <use xlink:href="#DejaVuSans-65"/>
      <use x="68.408203" xlink:href="#DejaVuSans-114"/>
      <use x="107.271484" xlink:href="#DejaVuSans-99"/>
      <use x="162.251953" xlink:href="#DejaVuSans-116"/>
      <use x="201.460938" xlink:href="#DejaVuSans-97"/>
      <use x="262.740234" xlink:href="#DejaVuSans-110"/>
      <use x="326.119141" xlink:href="#DejaVuSans-50"/>
     </g>
    </g>
   </g>
  </g>
 </g>
 <defs>
  <clipPath id="pf95d80149d">
   <rect height="443.52" width="558" x="90" y="69.12"/>
  </clipPath>
 </defs>
</svg>
