<?xml version="1.0" encoding="utf-8" standalone="no"?>
<!DOCTYPE svg PUBLIC "-//W3C//DTD SVG 1.1//EN"
  "http://www.w3.org/Graphics/SVG/1.1/DTD/svg11.dtd">
<!-- Created with matplotlib (https://matplotlib.org/) -->
<svg height="576pt" version="1.1" viewBox="0 0 720 576" width="720pt" xmlns="http://www.w3.org/2000/svg" xmlns:xlink="http://www.w3.org/1999/xlink">
 <metadata>
  <rdf:RDF xmlns:cc="http://creativecommons.org/ns#" xmlns:dc="http://purl.org/dc/elements/1.1/" xmlns:rdf="http://www.w3.org/1999/02/22-rdf-syntax-ns#">
   <cc:Work>
    <dc:type rdf:resource="http://purl.org/dc/dcmitype/StillImage"/>
    <dc:date>2025-09-02T01:21:34.406215</dc:date>
    <dc:format>image/svg+xml</dc:format>
    <dc:creator>
     <cc:Agent>
      <dc:title>Matplotlib v3.3.2, https://matplotlib.org/</dc:title>
     </cc:Agent>
    </dc:creator>
   </cc:Work>
  </rdf:RDF>
 </metadata>
 <defs>
  <style type="text/css">*{stroke-linecap:butt;stroke-linejoin:round;}</style>
 </defs>
 <g id="figure_1">
  <g id="patch_1">
   <path d="M 0 576 
L 720 576 
L 720 0 
L 0 0 
z
" style="fill:#ffffff;"/>
  </g>
  <g id="axes_1">
   <g id="patch_2">
    <path d="M 90 512.64 
L 648 512.64 
L 648 69.12 
L 90 69.12 
z
" style="fill:#ffffff;"/>
   </g>
   <g id="Quiver_1">
    <path clip-path="url(#p9cfbc5ce7c)" d="M 2280.685795 310.911592 
L 2274.826827 340.042587 
L 2277.837115 339.225096 
L 2270.983663 352.076046 
L 2269.631434 337.574729 
L 2272.0916 339.492465 
L 2277.950568 310.36147 
L 2280.685795 310.911592 
" style="fill:#0000ff;"/>
    <path clip-path="url(#p9cfbc5ce7c)" d="M 2171.718982 288.976601 
L 2166.250572 318.18343 
L 2169.249644 317.325707 
L 2162.568868 330.267266 
L 2161.022603 315.785354 
L 2163.508224 317.669978 
L 2168.976635 288.46315 
L 2171.718982 288.976601 
" style="fill:#0000ff;"/>
    <path clip-path="url(#p9cfbc5ce7c)" d="M 2068.775029 269.684982 
L 2063.664425 298.956539 
L 2066.652778 298.062182 
L 2060.130864 311.084523 
L 2058.407503 296.622616 
L 2060.916 298.476684 
L 2066.026605 269.205126 
L 2068.775029 269.684982 
" style="fill:#0000ff;"/>
    <path clip-path="url(#p9cfbc5ce7c)" d="M 1971.452445 252.677399 
L 1966.667861 282.00401 
L 1969.646077 281.076457 
L 1963.269466 294.17056 
L 1961.385295 279.728725 
L 1963.914267 281.554766 
L 1968.698852 252.228155 
L 1971.452445 252.677399 
" style="fill:#0000ff;"/>
    <path clip-path="url(#p9cfbc5ce7c)" d="M 1879.349777 237.636487 
L 1874.866791 267.010714 
L 1877.835319 266.052607 
L 1871.593594 279.211543 
L 1869.561125 264.78983 
L 1872.108727 266.589788 
L 1876.591712 237.215562 
L 1879.349777 237.636487 
" style="fill:#0000ff;"/>
    <path clip-path="url(#p9cfbc5ce7c)" d="M 1792.107787 224.308513 
L 1787.904491 253.724064 
L 1790.863768 252.737756 
L 1784.747529 265.955484 
L 1782.577934 251.553763 
L 1785.142546 253.329399 
L 1789.345842 223.913848 
L 1792.107787 224.308513 
" style="fill:#0000ff;"/>
    <path clip-path="url(#p9cfbc5ce7c)" d="M 1709.430776 212.480974 
L 1705.509857 241.935494 
L 1708.459536 240.920843 
L 1702.470375 254.196636 
L 1700.162724 239.81639 
L 1702.744253 241.567343 
L 1706.665172 212.112823 
L 1709.430776 212.480974 
" style="fill:#0000ff;"/>
    <path clip-path="url(#p9cfbc5ce7c)" d="M 1631.001647 202.027658 
L 1627.353117 231.517157 
L 1630.293293 230.475288 
L 1624.427084 243.805866 
L 1621.986628 229.447562 
L 1624.584229 231.174582 
L 1628.232759 201.685082 
L 1631.001647 202.027658 
" style="fill:#0000ff;"/>
    <path clip-path="url(#p9cfbc5ce7c)" d="M 1556.524483 192.801019 
L 1553.129882 222.320826 
L 1556.060982 221.253692 
L 1550.309717 234.634263 
L 1547.74578 220.297494 
L 1550.358148 222.002094 
L 1553.752749 192.482286 
L 1556.524483 192.801019 
" style="fill:#0000ff;"/>
    <path clip-path="url(#p9cfbc5ce7c)" d="M 1485.766937 184.652064 
L 1482.630212 214.200385 
L 1485.551883 213.107699 
L 1479.917667 226.537976 
L 1477.228649 212.22414 
L 1479.855801 213.905865 
L 1482.992526 184.357544 
L 1485.766937 184.652064 
" style="fill:#0000ff;"/>
    <path clip-path="url(#p9cfbc5ce7c)" d="M 1418.475412 177.496008 
L 1415.605715 207.071457 
L 1418.517397 205.952425 
L 1413.004722 219.433046 
L 1410.186522 205.144083 
L 1412.828757 206.802009 
L 1415.698454 177.22656 
L 1418.475412 177.496008 
" style="fill:#0000ff;"/>
    <path clip-path="url(#p9cfbc5ce7c)" d="M 1354.438418 171.270949 
L 1351.812943 200.869077 
L 1354.715289 199.72605 
L 1349.314075 213.251715 
L 1346.378026 198.9865 
L 1349.033855 200.622561 
L 1351.65933 171.024432 
L 1354.438418 171.270949 
" style="fill:#0000ff;"/>
    <path clip-path="url(#p9cfbc5ce7c)" d="M 1293.444769 165.848419 
L 1291.076048 195.468201 
L 1293.968373 194.300049 
L 1288.684648 207.872041 
L 1285.62501 193.632823 
L 1288.294927 195.245792 
L 1290.663648 165.62601 
L 1293.444769 165.848419 
" style="fill:#0000ff;"/>
    <path clip-path="url(#p9cfbc5ce7c)" d="M 1235.304192 161.186787 
L 1233.191147 190.825906 
L 1236.073285 189.63284 
L 1230.906869 203.24992 
L 1227.724475 189.037634 
L 1230.408211 190.627504 
L 1232.521255 160.988385 
L 1235.304192 161.186787 
" style="fill:#0000ff;"/>
    <path clip-path="url(#p9cfbc5ce7c)" d="M 1179.868777 157.222143 
L 1178.021146 186.878991 
L 1180.892488 185.660171 
L 1175.848178 199.322955 
L 1172.538684 185.139727 
L 1175.236545 186.705509 
L 1177.084176 157.048662 
L 1179.868777 157.222143 
" style="fill:#0000ff;"/>
    <path clip-path="url(#p9cfbc5ce7c)" d="M 1126.948261 153.912967 
L 1125.359805 183.584824 
L 1128.220389 182.340966 
L 1123.29564 196.047299 
L 1119.862357 181.893526 
L 1122.573794 183.435678 
L 1124.16225 153.76382 
L 1126.948261 153.912967 
" style="fill:#0000ff;"/>
    <path clip-path="url(#p9cfbc5ce7c)" d="M 1076.415892 151.194756 
L 1075.10376 180.880117 
L 1077.952639 179.609679 
L 1073.155715 193.361269 
L 1069.590804 179.240075 
L 1072.316482 180.756915 
L 1073.628614 151.071555 
L 1076.415892 151.194756 
" style="fill:#0000ff;"/>
    <path clip-path="url(#p9cfbc5ce7c)" d="M 1028.123669 149.047437 
L 1027.082412 178.743533 
L 1029.919582 177.447158 
L 1025.248314 191.241939 
L 1021.554723 177.153854 
L 1024.294125 178.645766 
L 1025.335382 148.949669 
L 1028.123669 149.047437 
" style="fill:#0000ff;"/>
    <path clip-path="url(#p9cfbc5ce7c)" d="M 981.712437 147.402279 
L 981.05009 177.109241 
L 983.870492 175.776778 
L 979.37558 189.630027 
L 975.502572 175.590207 
L 978.260783 177.047051 
L 978.92313 147.340088 
L 981.712437 147.402279 
" style="fill:#0000ff;"/>
    <path clip-path="url(#p9cfbc5ce7c)" d="M 937.16081 146.393061 
L 936.836887 176.105641 
L 939.641929 174.741138 
L 935.305105 188.644688 
L 931.272426 174.649895 
L 934.047053 176.075227 
L 934.370976 146.362647 
L 937.16081 146.393061 
" style="fill:#0000ff;"/>
    <path clip-path="url(#p9cfbc5ce7c)" d="M 894.511122 145.910726 
L 894.557238 175.625036 
L 897.34507 174.225708 
L 893.181725 188.182186 
L 888.97508 174.238698 
L 891.767241 175.629366 
L 891.721125 145.915056 
L 894.511122 145.910726 
" style="fill:#0000ff;"/>
    <path clip-path="url(#p9cfbc5ce7c)" d="M 853.657674 145.957476 
L 854.058532 175.669118 
L 856.829459 174.236606 
L 852.833031 188.241794 
L 848.460221 174.349521 
L 851.268786 175.706756 
L 850.867928 145.995114 
L 853.657674 145.957476 
" style="fill:#0000ff;"/>
    <path clip-path="url(#p9cfbc5ce7c)" d="M 814.494805 146.469347 
L 815.247037 176.174169 
L 818.000828 174.708986 
L 814.17032 188.760461 
L 809.633511 174.920877 
L 812.457931 176.2448 
L 811.705699 146.539977 
L 814.494805 146.469347 
" style="fill:#0000ff;"/>
    <path clip-path="url(#p9cfbc5ce7c)" d="M 776.937926 147.402579 
L 778.069908 177.095355 
L 780.80474 175.595081 
L 777.15421 189.694385 
L 772.440816 175.913941 
L 775.281934 177.201642 
L 774.149951 147.508865 
L 776.937926 147.402579 
" style="fill:#0000ff;"/>
    <path clip-path="url(#p9cfbc5ce7c)" d="M 740.902572 148.759643 
L 742.390055 178.436734 
L 745.106724 176.903817 
L 741.6253 191.045826 
L 736.747218 177.322815 
L 739.603553 178.5764 
L 738.11607 148.899309 
L 740.902572 148.759643 
" style="fill:#0000ff;"/>
    <path clip-path="url(#p9cfbc5ce7c)" d="M 706.325235 150.474784 
L 708.194042 180.130305 
L 710.890784 178.562596 
L 707.591418 192.748185 
L 702.537354 179.089006 
L 705.409565 180.305775 
L 703.540758 150.650254 
L 706.325235 150.474784 
" style="fill:#0000ff;"/>
    <path clip-path="url(#p9cfbc5ce7c)" d="M 673.121461 152.549763 
L 675.359904 182.179676 
L 678.036888 180.578463 
L 674.914662 194.804089 
L 669.690671 181.208993 
L 672.577832 182.389852 
L 670.339389 152.75994 
L 673.121461 152.549763 
" style="fill:#0000ff;"/>
    <path clip-path="url(#p9cfbc5ce7c)" d="M 641.2278 154.941537 
L 643.840699 184.540778 
L 646.497223 182.905846 
L 643.555113 197.169812 
L 638.159646 183.641853 
L 641.061506 184.786114 
L 638.448608 155.186872 
L 641.2278 154.941537 
" style="fill:#0000ff;"/>
    <path clip-path="url(#p9cfbc5ce7c)" d="M 610.580746 157.628072 
L 613.592019 187.189442 
L 616.226286 185.518883 
L 613.476534 199.821176 
L 607.899376 186.367105 
L 610.816383 187.472182 
L 607.80511 157.910813 
L 610.580746 157.628072 
" style="fill:#0000ff;"/>
    <path clip-path="url(#p9cfbc5ce7c)" d="M 581.117085 160.611411 
L 584.50719 190.131735 
L 587.119817 188.427533 
L 584.553696 202.763911 
L 578.804469 189.382465 
L 581.735407 190.450045 
L 578.345303 160.929721 
L 581.117085 160.611411 
" style="fill:#0000ff;"/>
    <path clip-path="url(#p9cfbc5ce7c)" d="M 552.773189 163.847262 
L 556.565625 193.3186 
L 559.154765 191.578922 
L 556.784426 205.948967 
L 550.853216 192.647183 
L 553.798442 193.674687 
L 550.006006 164.203349 
L 552.773189 163.847262 
" style="fill:#0000ff;"/>
    <path clip-path="url(#p9cfbc5ce7c)" d="M 525.506738 167.3356 
L 529.725571 196.748926 
L 532.289246 194.971935 
L 530.127258 209.374801 
L 524.004037 196.160305 
L 526.963835 197.14505 
L 522.745002 167.731723 
L 525.506738 167.3356 
" style="fill:#0000ff;"/>
    <path clip-path="url(#p9cfbc5ce7c)" d="M 499.275642 171.077888 
L 503.913749 200.428021 
L 506.451806 198.614629 
L 504.495555 213.046878 
L 498.184398 199.921101 
L 501.157946 200.863511 
L 496.51984 171.513378 
L 499.275642 171.077888 
" style="fill:#0000ff;"/>
    <path clip-path="url(#p9cfbc5ce7c)" d="M 473.995078 175.051267 
L 479.082075 204.326936 
L 481.592066 202.474892 
L 479.857044 216.935404 
L 473.345634 203.907808 
L 476.333264 204.804575 
L 471.246267 175.528906 
L 473.995078 175.051267 
" style="fill:#0000ff;"/>
    <path clip-path="url(#p9cfbc5ce7c)" d="M 449.665306 179.257476 
L 455.193764 208.452998 
L 457.675505 206.563266 
L 456.159023 221.048328 
L 449.451648 208.120534 
L 452.452479 208.972087 
L 446.924021 179.776565 
L 449.665306 179.257476 
" style="fill:#0000ff;"/>
    <path clip-path="url(#p9cfbc5ce7c)" d="M 426.222371 183.672625 
L 432.243565 212.770521 
L 434.693007 210.839108 
L 433.421599 225.347734 
L 426.49665 212.53517 
L 429.511446 213.335876 
L 423.490252 184.237979 
L 426.222371 183.672625 
" style="fill:#0000ff;"/>
    <path clip-path="url(#p9cfbc5ce7c)" d="M 403.645668 188.320789 
L 410.148233 217.314909 
L 412.565332 215.343169 
L 411.53453 229.870873 
L 404.398207 217.174825 
L 407.425858 217.925461 
L 400.923293 188.931341 
L 403.645668 188.320789 
" style="fill:#0000ff;"/>
    <path clip-path="url(#p9cfbc5ce7c)" d="M 381.8711 193.177872 
L 388.906743 222.047268 
L 391.287105 220.031331 
L 390.524134 234.57556 
L 383.155112 222.013146 
L 386.196079 222.707873 
L 379.160436 193.838477 
L 381.8711 193.177872 
" style="fill:#0000ff;"/>
    <path clip-path="url(#p9cfbc5ce7c)" d="M 360.877355 198.264904 
L 368.500006 226.98489 
L 370.83878 224.92085 
L 370.372434 239.47761 
L 362.748874 227.068015 
L 365.80337 227.700611 
L 358.18072 198.980626 
L 360.877355 198.264904 
" style="fill:#0000ff;"/>
    <path clip-path="url(#p9cfbc5ce7c)" d="M 340.643601 203.604668 
L 348.872109 232.156971 
L 351.166696 230.043918 
L 351.008399 244.607285 
L 343.124023 232.361741 
L 346.191218 232.929579 
L 337.96271 204.377276 
L 340.643601 203.604668 
" style="fill:#0000ff;"/>
    <path clip-path="url(#p9cfbc5ce7c)" d="M 321.126686 209.194576 
L 330.03501 237.542135 
L 332.278458 235.374863 
L 332.46815 249.937855 
L 324.293457 237.884178 
L 327.373343 238.378573 
L 318.465019 210.031014 
L 321.126686 209.194576 
" style="fill:#0000ff;"/>
    <path clip-path="url(#p9cfbc5ce7c)" d="M 302.284535 215.078307 
L 311.916594 243.188194 
L 314.103748 240.964126 
L 314.666687 255.51747 
L 306.185696 243.677305 
L 309.277243 244.092587 
L 299.645184 215.9827 
L 302.284535 215.078307 
" style="fill:#0000ff;"/>
    <path clip-path="url(#p9cfbc5ce7c)" d="M 284.13671 221.252207 
L 294.614263 249.05802 
L 296.733173 246.76884 
L 297.735871 261.298511 
L 288.900772 249.72018 
L 292.003462 250.0418 
L 281.52591 222.235987 
L 284.13671 221.252207 
" style="fill:#0000ff;"/>
    <path clip-path="url(#p9cfbc5ce7c)" d="M 266.618967 227.800316 
L 278.074425 255.217734 
L 280.110958 252.854968 
L 281.627456 267.340028 
L 272.387961 256.081766 
L 275.500093 256.293333 
L 264.044635 228.875915 
L 266.618967 227.800316 
" style="fill:#0000ff;"/>
    <path clip-path="url(#p9cfbc5ce7c)" d="M 249.751508 234.785856 
L 262.321106 261.710706 
L 264.259084 259.266454 
L 266.368011 273.677184 
L 256.674835 262.807085 
L 259.793023 262.890916 
L 247.223425 235.966066 
L 249.751508 234.785856 
" style="fill:#0000ff;"/>
    <path clip-path="url(#p9cfbc5ce7c)" d="M 233.466569 242.308309 
L 247.418456 268.543537 
L 249.226788 266.001872 
L 252.081786 280.283529 
L 241.836793 269.93187 
L 244.955124 269.853536 
L 231.003237 243.618308 
L 233.466569 242.308309 
" style="fill:#0000ff;"/>
    <path clip-path="url(#p9cfbc5ce7c)" d="M 217.800181 250.531238 
L 233.519971 275.746919 
L 235.149575 273.087123 
L 238.978145 287.139126 
L 228.046769 277.515107 
L 231.152368 277.222913 
L 215.432579 252.007233 
L 217.800181 250.531238 
" style="fill:#0000ff;"/>
    <path clip-path="url(#p9cfbc5ce7c)" d="M 202.735847 259.757931 
L 220.901644 283.272738 
L 222.256714 280.463128 
L 227.473164 294.06112 
L 215.633013 285.580108 
L 218.693743 284.978398 
L 200.527947 261.463591 
L 202.735847 259.757931 
" style="fill:#0000ff;"/>
    <path clip-path="url(#p9cfbc5ce7c)" d="M 188.266292 270.635803 
L 210.171653 290.713091 
L 211.0284 287.713739 
L 218.484607 300.224602 
L 205.372986 293.884088 
L 208.286516 292.769874 
L 186.381154 272.692586 
L 188.266292 270.635803 
" style="fill:#0000ff;"/>
    <path clip-path="url(#p9cfbc5ce7c)" d="M 174.517172 285.121785 
L 200.738381 299.100002 
L 200.819844 295.981751 
L 211.161214 306.237131 
L 196.88243 303.367797 
L 199.425909 301.562018 
L 173.204701 287.5838 
L 174.517172 285.121785 
" style="fill:#0000ff;"/>
    <path clip-path="url(#p9cfbc5ce7c)" d="M 167.915382 296.467176 
L 197.371529 300.375857 
L 196.355652 297.4266 
L 209.633932 303.410244 
L 195.254647 305.72387 
L 197.004527 303.141614 
L 167.54838 299.232933 
L 167.915382 296.467176 
" style="fill:#0000ff;"/>
    <path clip-path="url(#p9cfbc5ce7c)" d="M 165.229337 311.979922 
L 193.337149 302.341806 
L 191.112609 300.155131 
L 205.665832 299.589056 
L 193.827494 308.072599 
L 194.24211 304.980962 
L 166.134299 314.619078 
L 165.229337 311.979922 
" style="fill:#0000ff;"/>
    <path clip-path="url(#p9cfbc5ce7c)" d="M 169.850008 326.950394 
L 192.854088 308.142027 
L 190.008121 306.865078 
L 203.456841 301.275029 
L 195.306102 313.344916 
L 194.620081 310.301973 
L 171.616002 329.11034 
L 169.850008 326.950394 
" style="fill:#0000ff;"/>
    <path clip-path="url(#p9cfbc5ce7c)" d="M 177.854907 337.280802 
L 195.551545 313.410918 
L 192.479501 312.869929 
L 204.149405 304.156143 
L 199.203221 317.854756 
L 197.792785 315.072527 
L 180.096147 338.94241 
L 177.854907 337.280802 
" style="fill:#0000ff;"/>
    <path clip-path="url(#p9cfbc5ce7c)" d="M 193.667645 349.293498 
L 207.137929 322.807771 
L 204.018687 322.786417 
L 214.072863 312.249326 
L 211.479243 326.580755 
L 209.624781 324.07255 
L 196.154497 350.558278 
L 193.667645 349.293498 
" style="fill:#0000ff;"/>
    <path clip-path="url(#p9cfbc5ce7c)" d="M 209.611907 357.551922 
L 220.49258 329.901365 
L 217.385543 330.177846 
L 226.388029 318.729179 
L 225.17421 333.242737 
L 223.088803 330.922996 
L 212.208129 358.573552 
L 209.611907 357.551922 
" style="fill:#0000ff;"/>
    <path clip-path="url(#p9cfbc5ce7c)" d="M 225.855006 364.041626 
L 234.906005 335.739298 
L 231.823667 336.218173 
L 240.058971 324.205825 
L 239.795927 338.767677 
L 237.563424 336.589132 
L 228.512426 364.89146 
L 225.855006 364.041626 
" style="fill:#0000ff;"/>
    <path clip-path="url(#p9cfbc5ce7c)" d="M 242.490162 369.432211 
L 250.164128 340.725895 
L 247.108506 341.353031 
L 254.754233 328.95708 
L 255.194562 343.51465 
L 252.85948 341.446434 
L 245.185514 370.15275 
L 242.490162 369.432211 
" style="fill:#0000ff;"/>
    <path clip-path="url(#p9cfbc5ce7c)" d="M 259.554473 374.047842 
L 266.151868 345.075153 
L 263.121777 345.815878 
L 270.299602 333.143248 
L 271.282866 347.674246 
L 268.872231 345.694609 
L 262.274836 374.667298 
L 259.554473 374.047842 
" style="fill:#0000ff;"/>
    <path clip-path="url(#p9cfbc5ce7c)" d="M 277.087423 378.083999 
L 282.796501 348.923259 
L 279.790457 349.75622 
L 286.577729 336.870194 
L 288.004516 351.364365 
L 285.534521 349.459307 
L 279.825442 378.620047 
L 277.087423 378.083999 
" style="fill:#0000ff;"/>
    <path clip-path="url(#p9cfbc5ce7c)" d="M 295.108672 381.649893 
L 300.042325 352.347992 
L 297.059431 353.260388 
L 303.502545 340.19888 
L 305.313252 354.65011 
L 302.793599 352.811233 
L 297.859945 382.113134 
L 295.108672 381.649893 
" style="fill:#0000ff;"/>
    <path clip-path="url(#p9cfbc5ce7c)" d="M 313.68126 384.808323 
L 317.965273 355.404419 
L 315.0033 356.382602 
L 321.155793 343.18171 
L 323.285854 357.589332 
L 320.726124 355.806663 
L 316.442112 385.210567 
L 313.68126 384.808323 
" style="fill:#0000ff;"/>
    <path clip-path="url(#p9cfbc5ce7c)" d="M 332.825724 387.624185 
L 336.554108 358.144676 
L 333.611121 359.178578 
L 339.513412 345.863936 
L 341.914972 360.228797 
L 339.322059 358.494749 
L 335.593675 387.974258 
L 332.825724 387.624185 
" style="fill:#0000ff;"/>
    <path clip-path="url(#p9cfbc5ce7c)" d="M 352.541551 390.142062 
L 355.759043 360.602426 
L 352.834396 361.68712 
L 358.505306 348.272296 
L 361.155183 362.59343 
L 358.532639 360.904529 
L 355.315147 390.444165 
L 352.541551 390.142062 
" style="fill:#0000ff;"/>
    <path clip-path="url(#p9cfbc5ce7c)" d="M 372.913228 392.382433 
L 375.678496 362.797037 
L 372.770783 363.926341 
L 378.235832 350.426343 
L 381.10446 364.705268 
L 378.456388 363.056679 
L 375.69112 392.642075 
L 372.913228 392.382433 
" style="fill:#0000ff;"/>
    <path clip-path="url(#p9cfbc5ce7c)" d="M 393.940707 394.365404 
L 396.334354 364.747626 
L 393.441047 365.913343 
L 398.736192 352.345802 
L 401.783845 366.58759 
L 399.115287 364.972375 
L 396.72164 394.590153 
L 393.940707 394.365404 
" style="fill:#0000ff;"/>
    <path clip-path="url(#p9cfbc5ce7c)" d="M 415.644672 396.137685 
L 417.652707 366.491267 
L 414.774814 367.694535 
L 419.89296 354.059239 
L 423.12568 368.260163 
L 420.436329 366.679809 
L 418.428294 396.326228 
L 415.644672 396.137685 
" style="fill:#0000ff;"/>
    <path clip-path="url(#p9cfbc5ce7c)" d="M 438.109854 397.675079 
L 439.783526 368.007906 
L 436.919381 369.243543 
L 441.883476 355.551411 
L 445.276093 369.714987 
L 442.569096 368.165054 
L 440.895425 397.832227 
L 438.109854 397.675079 
" style="fill:#0000ff;"/>
    <path clip-path="url(#p9cfbc5ce7c)" d="M 461.336102 399.00027 
L 462.69365 369.316951 
L 459.842831 370.583029 
L 464.660789 356.838794 
L 468.204091 370.965426 
L 465.480737 369.444417 
L 464.123189 399.127735 
L 461.336102 399.00027 
" style="fill:#0000ff;"/>
    <path clip-path="url(#p9cfbc5ce7c)" d="M 485.365697 400.112118 
L 486.449624 370.417549 
L 483.610594 371.709846 
L 488.30168 357.921792 
L 491.975023 372.015169 
L 489.237767 370.519323 
L 488.15384 400.213893 
L 485.365697 400.112118 
" style="fill:#0000ff;"/>
    <path clip-path="url(#p9cfbc5ce7c)" d="M 510.261987 401.031792 
L 511.114097 371.329667 
L 508.28524 372.644085 
L 512.868559 358.819835 
L 516.651798 372.88411 
L 513.902949 371.409675 
L 513.050839 401.111801 
L 510.261987 401.031792 
" style="fill:#0000ff;"/>
    <path clip-path="url(#p9cfbc5ce7c)" d="M 536.045986 401.783946 
L 536.633112 372.075402 
L 533.816092 373.415002 
L 538.275913 359.550416 
L 542.184458 373.580384 
L 539.422567 372.130529 
L 538.835441 401.839074 
L 536.045986 401.783946 
" style="fill:#0000ff;"/>
    <path clip-path="url(#p9cfbc5ce7c)" d="M 562.781179 402.322866 
L 563.143522 372.61073 
L 560.336718 373.971604 
L 564.691517 360.073674 
L 568.706096 374.07367 
L 565.933314 372.644751 
L 565.570971 402.356888 
L 562.781179 402.322866 
" style="fill:#0000ff;"/>
    <path clip-path="url(#p9cfbc5ce7c)" d="M 590.50979 402.669832 
L 590.684449 372.955999 
L 587.886297 374.334576 
L 592.153222 360.409416 
L 596.256153 374.383774 
L 593.474401 372.972399 
L 593.299742 402.686231 
L 590.50979 402.669832 
" style="fill:#0000ff;"/>
    <path clip-path="url(#p9cfbc5ce7c)" d="M 619.274056 402.848095 
L 619.253056 373.133757 
L 616.464043 374.530728 
L 620.639183 360.577774 
L 624.834041 374.524813 
L 622.043056 373.131785 
L 622.064055 402.846123 
L 619.274056 402.848095 
" style="fill:#0000ff;"/>
    <path clip-path="url(#p9cfbc5ce7c)" d="M 649.179644 402.834521 
L 648.997599 373.120733 
L 646.216198 374.532799 
L 650.315654 360.557422 
L 654.586041 374.481521 
L 651.787546 373.10364 
L 651.969591 402.817428 
L 649.179644 402.834521 
" style="fill:#0000ff;"/>
    <path clip-path="url(#p9cfbc5ce7c)" d="M 680.226549 402.652194 
L 679.876535 372.93991 
L 677.103161 374.367678 
L 681.123549 360.369349 
L 685.47258 374.269085 
L 682.666342 372.907046 
L 683.016355 402.61933 
L 680.226549 402.652194 
" style="fill:#0000ff;"/>
    <path clip-path="url(#p9cfbc5ce7c)" d="M 712.520419 402.278146 
L 712.034589 372.567773 
L 709.26777 374.008203 
L 713.224128 359.991643 
L 717.636651 373.871353 
L 714.824216 372.522156 
L 715.310046 402.23253 
L 712.520419 402.278146 
" style="fill:#0000ff;"/>
    <path clip-path="url(#p9cfbc5ce7c)" d="M 746.124674 401.735332 
L 745.496414 372.027628 
L 742.736533 373.481306 
L 746.625648 359.44594 
L 751.104662 373.304337 
L 748.285791 371.968639 
L 748.91405 401.676342 
L 746.124674 401.735332 
" style="fill:#0000ff;"/>
    <path clip-path="url(#p9cfbc5ce7c)" d="M 781.102679 401.000906 
L 780.361775 371.295799 
L 777.607425 372.759932 
L 781.443292 358.709919 
L 785.974823 372.551232 
L 783.150907 371.226233 
L 783.891812 400.93134 
L 781.102679 401.000906 
" style="fill:#0000ff;"/>
    <path clip-path="url(#p9cfbc5ce7c)" d="M 817.538983 400.096885 
L 816.696478 370.394486 
L 813.947153 371.868031 
L 817.73494 357.80498 
L 822.313788 371.630713 
L 819.485357 370.31538 
L 820.327861 400.017779 
L 817.538983 400.096885 
" style="fill:#0000ff;"/>
    <path clip-path="url(#p9cfbc5ce7c)" d="M 855.53923 399.022572 
L 854.620995 369.322418 
L 851.875436 370.802968 
L 855.627353 356.730305 
L 860.241438 370.544318 
L 857.409662 369.236201 
L 858.327897 398.936355 
L 855.53923 399.022572 
" style="fill:#0000ff;"/>
    <path clip-path="url(#p9cfbc5ce7c)" d="M 895.188026 397.80136 
L 894.171838 368.104395 
L 891.431177 369.593993 
L 895.136658 355.509032 
L 899.796281 369.307751 
L 896.960206 368.008981 
L 897.976394 397.705946 
L 895.188026 397.80136 
" style="fill:#0000ff;"/>
    <path clip-path="url(#p9cfbc5ce7c)" d="M 936.569786 396.387371 
L 935.510271 366.691921 
L 932.771786 368.185516 
L 936.456714 354.095163 
L 941.136464 367.887069 
L 938.298497 366.592438 
L 939.358012 396.287889 
L 936.569786 396.387371 
" style="fill:#0000ff;"/>
    <path clip-path="url(#p9cfbc5ce7c)" d="M 979.811433 394.847439 
L 978.690152 365.154257 
L 975.95478 366.653545 
L 979.610392 352.555558 
L 984.318819 366.3377 
L 981.478165 365.048976 
L 982.599446 394.742158 
L 979.811433 394.847439 
" style="fill:#0000ff;"/>
    <path clip-path="url(#p9cfbc5ce7c)" d="M 1025.145472 393.139731 
L 1023.934723 363.450062 
L 1021.203881 364.957586 
L 1024.816995 350.848648 
L 1029.56693 364.61654 
L 1026.722406 363.33638 
L 1027.933155 393.026049 
L 1025.145472 393.139731 
" style="fill:#0000ff;"/>
    <path clip-path="url(#p9cfbc5ce7c)" d="M 1072.825537 391.201015 
L 1071.493943 361.51652 
L 1068.76926 363.035148 
L 1072.324912 348.911619 
L 1077.130851 362.660061 
L 1074.28114 361.391492 
L 1075.612734 391.075986 
L 1072.825537 391.201015 
" style="fill:#0000ff;"/>
    <path clip-path="url(#p9cfbc5ce7c)" d="M 1122.767004 388.965782 
L 1121.327999 359.286301 
L 1118.608829 360.814778 
L 1122.113349 346.678475 
L 1126.969009 360.409436 
L 1124.114725 359.151187 
L 1125.55373 388.830668 
L 1122.767004 388.965782 
" style="fill:#0000ff;"/>
    <path clip-path="url(#p9cfbc5ce7c)" d="M 1175.07551 386.43344 
L 1173.555159 356.758015 
L 1170.840189 358.293939 
L 1174.305948 344.148083 
L 1179.199226 357.865684 
L 1176.341504 356.615263 
L 1177.861855 386.290688 
L 1175.07551 386.43344 
" style="fill:#0000ff;"/>
    <path clip-path="url(#p9cfbc5ce7c)" d="M 1229.941348 383.626834 
L 1228.329289 353.956249 
L 1225.61908 355.500557 
L 1229.041103 341.344058 
L 1233.976753 355.046469 
L 1231.115181 353.804886 
L 1232.727239 383.475471 
L 1229.941348 383.626834 
" style="fill:#0000ff;"/>
    <path clip-path="url(#p9cfbc5ce7c)" d="M 1287.512373 380.502085 
L 1285.832532 350.83526 
L 1283.125857 352.385756 
L 1286.515529 338.221475 
L 1291.482472 351.912575 
L 1288.61807 350.677533 
L 1290.297911 380.344358 
L 1287.512373 380.502085 
" style="fill:#0000ff;"/>
    <path clip-path="url(#p9cfbc5ce7c)" d="M 1347.978825 377.080914 
L 1346.242612 347.417335 
L 1343.538889 348.972972 
L 1346.901639 334.802275 
L 1351.894589 348.483912 
L 1349.027846 347.254315 
L 1350.764058 376.917894 
L 1347.978825 377.080914 
" style="fill:#0000ff;"/>
    <path clip-path="url(#p9cfbc5ce7c)" d="M 1411.530962 373.364172 
L 1409.731694 343.704351 
L 1407.031283 345.265732 
L 1410.363901 331.087919 
L 1415.385925 344.75891 
L 1412.516574 343.53541 
L 1414.315843 373.195231 
L 1411.530962 373.364172 
" style="fill:#0000ff;"/>
    <path clip-path="url(#p9cfbc5ce7c)" d="M 1478.422326 369.308342 
L 1476.579879 339.651172 
L 1473.881745 341.216483 
L 1477.193718 327.033833 
L 1482.23564 340.697498 
L 1479.364511 339.478177 
L 1481.206958 369.135347 
L 1478.422326 369.308342 
" style="fill:#0000ff;"/>
    <path clip-path="url(#p9cfbc5ce7c)" d="M 1548.843174 364.935342 
L 1546.960741 335.280683 
L 1544.26472 336.84963 
L 1547.557567 322.662528 
L 1552.617907 336.319382 
L 1549.745136 335.103934 
L 1551.62757 364.758593 
L 1548.843174 364.935342 
" style="fill:#0000ff;"/>
    <path clip-path="url(#p9cfbc5ce7c)" d="M 1623.089343 360.22329 
L 1621.186028 330.569964 
L 1618.491112 332.140809 
L 1621.773968 317.951392 
L 1626.843924 331.60468 
L 1623.970298 330.391254 
L 1625.873613 360.04458 
L 1623.089343 360.22329 
" style="fill:#0000ff;"/>
    <path clip-path="url(#p9cfbc5ce7c)" d="M 1701.456793 355.19453 
L 1699.525959 325.542983 
L 1696.832503 327.116329 
L 1700.102189 312.92387 
L 1705.184813 326.572447 
L 1702.310063 325.361689 
L 1704.240897 355.013236 
L 1701.456793 355.19453 
" style="fill:#0000ff;"/>
    <path clip-path="url(#p9cfbc5ce7c)" d="M 1784.220268 349.806644 
L 1782.258431 320.157132 
L 1779.566621 321.733293 
L 1782.821465 307.537424 
L 1787.918358 321.180679 
L 1785.042343 319.972927 
L 1787.00418 349.622439 
L 1784.220268 349.806644 
" style="fill:#0000ff;"/>
    <path clip-path="url(#p9cfbc5ce7c)" d="M 1871.738988 344.016351 
L 1869.764215 314.367698 
L 1867.073093 315.945033 
L 1870.321743 301.747745 
L 1875.424588 315.388775 
L 1872.548047 314.182279 
L 1874.52282 343.830931 
L 1871.738988 344.016351 
" style="fill:#0000ff;"/>
    <path clip-path="url(#p9cfbc5ce7c)" d="M 1964.393525 337.846979 
L 1962.377148 308.201127 
L 1959.688242 309.782237 
L 1962.916966 295.580404 
L 1968.038949 309.21426 
L 1965.160717 308.011801 
L 1967.177094 337.657654 
L 1964.393525 337.846979 
" style="fill:#0000ff;"/>
    <path clip-path="url(#p9cfbc5ce7c)" d="M 2062.585322 331.169981 
L 2060.535756 301.526405 
L 2057.848622 303.110524 
L 2061.061445 288.905085 
L 2066.198688 302.533198 
L 2063.319112 301.333963 
L 2065.368678 330.977539 
L 2062.585322 331.169981 
" style="fill:#0000ff;"/>
    <path clip-path="url(#p9cfbc5ce7c)" d="M 2166.821745 323.966132 
L 2164.706695 294.327156 
L 2162.023067 295.917208 
L 2165.204499 281.704706 
L 2170.371837 295.321436 
L 2167.489618 294.128565 
L 2169.604668 323.767541 
L 2166.821745 323.966132 
" style="fill:#0000ff;"/>
    <path clip-path="url(#p9cfbc5ce7c)" d="M 2277.588565 316.061764 
L 2275.473515 286.422788 
L 2272.789887 288.01284 
L 2275.971319 273.800338 
L 2281.138657 287.417068 
L 2278.256439 286.224197 
L 2280.371489 315.863174 
L 2277.588565 316.061764 
" style="fill:#0000ff;"/>
   </g>
   <g id="matplotlib.axis_1">
    <g id="xtick_1">
     <g id="line2d_1">
      <defs>
       <path d="M 0 0 
L 0 3.5 
" id="m096a6dfb85" style="stroke:#000000;stroke-width:0.8;"/>
      </defs>
      <g>
       <use style="stroke:#000000;stroke-width:0.8;" x="165.681818" xlink:href="#m096a6dfb85" y="512.64"/>
      </g>
     </g>
     <g id="text_1">
      <!-- 0.00 -->
      <g transform="translate(154.549006 527.238438)scale(0.1 -0.1)">
       <defs>
        <path d="M 31.78125 66.40625 
Q 24.171875 66.40625 20.328125 58.90625 
Q 16.5 51.421875 16.5 36.375 
Q 16.5 21.390625 20.328125 13.890625 
Q 24.171875 6.390625 31.78125 6.390625 
Q 39.453125 6.390625 43.28125 13.890625 
Q 47.125 21.390625 47.125 36.375 
Q 47.125 51.421875 43.28125 58.90625 
Q 39.453125 66.40625 31.78125 66.40625 
z
M 31.78125 74.21875 
Q 44.046875 74.21875 50.515625 64.515625 
Q 56.984375 54.828125 56.984375 36.375 
Q 56.984375 17.96875 50.515625 8.265625 
Q 44.046875 -1.421875 31.78125 -1.421875 
Q 19.53125 -1.421875 13.0625 8.265625 
Q 6.59375 17.96875 6.59375 36.375 
Q 6.59375 54.828125 13.0625 64.515625 
Q 19.53125 74.21875 31.78125 74.21875 
z
" id="DejaVuSans-48"/>
        <path d="M 10.6875 12.40625 
L 21 12.40625 
L 21 0 
L 10.6875 0 
z
" id="DejaVuSans-46"/>
       </defs>
       <use xlink:href="#DejaVuSans-48"/>
       <use x="63.623047" xlink:href="#DejaVuSans-46"/>
       <use x="95.410156" xlink:href="#DejaVuSans-48"/>
       <use x="159.033203" xlink:href="#DejaVuSans-48"/>
      </g>
     </g>
    </g>
    <g id="xtick_2">
     <g id="line2d_2">
      <g>
       <use style="stroke:#000000;stroke-width:0.8;" x="271.355182" xlink:href="#m096a6dfb85" y="512.64"/>
      </g>
     </g>
     <g id="text_2">
      <!-- 0.05 -->
      <g transform="translate(260.22237 527.238438)scale(0.1 -0.1)">
       <defs>
        <path d="M 10.796875 72.90625 
L 49.515625 72.90625 
L 49.515625 64.59375 
L 19.828125 64.59375 
L 19.828125 46.734375 
Q 21.96875 47.46875 24.109375 47.828125 
Q 26.265625 48.1875 28.421875 48.1875 
Q 40.625 48.1875 47.75 41.5 
Q 54.890625 34.8125 54.890625 23.390625 
Q 54.890625 11.625 47.5625 5.09375 
Q 40.234375 -1.421875 26.90625 -1.421875 
Q 22.3125 -1.421875 17.546875 -0.640625 
Q 12.796875 0.140625 7.71875 1.703125 
L 7.71875 11.625 
Q 12.109375 9.234375 16.796875 8.0625 
Q 21.484375 6.890625 26.703125 6.890625 
Q 35.15625 6.890625 40.078125 11.328125 
Q 45.015625 15.765625 45.015625 23.390625 
Q 45.015625 31 40.078125 35.4375 
Q 35.15625 39.890625 26.703125 39.890625 
Q 22.75 39.890625 18.8125 39.015625 
Q 14.890625 38.140625 10.796875 36.28125 
z
" id="DejaVuSans-53"/>
       </defs>
       <use xlink:href="#DejaVuSans-48"/>
       <use x="63.623047" xlink:href="#DejaVuSans-46"/>
       <use x="95.410156" xlink:href="#DejaVuSans-48"/>
       <use x="159.033203" xlink:href="#DejaVuSans-53"/>
      </g>
     </g>
    </g>
    <g id="xtick_3">
     <g id="line2d_3">
      <g>
       <use style="stroke:#000000;stroke-width:0.8;" x="377.028547" xlink:href="#m096a6dfb85" y="512.64"/>
      </g>
     </g>
     <g id="text_3">
      <!-- 0.10 -->
      <g transform="translate(365.895734 527.238438)scale(0.1 -0.1)">
       <defs>
        <path d="M 12.40625 8.296875 
L 28.515625 8.296875 
L 28.515625 63.921875 
L 10.984375 60.40625 
L 10.984375 69.390625 
L 28.421875 72.90625 
L 38.28125 72.90625 
L 38.28125 8.296875 
L 54.390625 8.296875 
L 54.390625 0 
L 12.40625 0 
z
" id="DejaVuSans-49"/>
       </defs>
       <use xlink:href="#DejaVuSans-48"/>
       <use x="63.623047" xlink:href="#DejaVuSans-46"/>
       <use x="95.410156" xlink:href="#DejaVuSans-49"/>
       <use x="159.033203" xlink:href="#DejaVuSans-48"/>
      </g>
     </g>
    </g>
    <g id="xtick_4">
     <g id="line2d_4">
      <g>
       <use style="stroke:#000000;stroke-width:0.8;" x="482.701911" xlink:href="#m096a6dfb85" y="512.64"/>
      </g>
     </g>
     <g id="text_4">
      <!-- 0.15 -->
      <g transform="translate(471.569099 527.238438)scale(0.1 -0.1)">
       <use xlink:href="#DejaVuSans-48"/>
       <use x="63.623047" xlink:href="#DejaVuSans-46"/>
       <use x="95.410156" xlink:href="#DejaVuSans-49"/>
       <use x="159.033203" xlink:href="#DejaVuSans-53"/>
      </g>
     </g>
    </g>
    <g id="xtick_5">
     <g id="line2d_5">
      <g>
       <use style="stroke:#000000;stroke-width:0.8;" x="588.375275" xlink:href="#m096a6dfb85" y="512.64"/>
      </g>
     </g>
     <g id="text_5">
      <!-- 0.20 -->
      <g transform="translate(577.242463 527.238438)scale(0.1 -0.1)">
       <defs>
        <path d="M 19.1875 8.296875 
L 53.609375 8.296875 
L 53.609375 0 
L 7.328125 0 
L 7.328125 8.296875 
Q 12.9375 14.109375 22.625 23.890625 
Q 32.328125 33.6875 34.8125 36.53125 
Q 39.546875 41.84375 41.421875 45.53125 
Q 43.3125 49.21875 43.3125 52.78125 
Q 43.3125 58.59375 39.234375 62.25 
Q 35.15625 65.921875 28.609375 65.921875 
Q 23.96875 65.921875 18.8125 64.3125 
Q 13.671875 62.703125 7.8125 59.421875 
L 7.8125 69.390625 
Q 13.765625 71.78125 18.9375 73 
Q 24.125 74.21875 28.421875 74.21875 
Q 39.75 74.21875 46.484375 68.546875 
Q 53.21875 62.890625 53.21875 53.421875 
Q 53.21875 48.921875 51.53125 44.890625 
Q 49.859375 40.875 45.40625 35.40625 
Q 44.1875 33.984375 37.640625 27.21875 
Q 31.109375 20.453125 19.1875 8.296875 
z
" id="DejaVuSans-50"/>
       </defs>
       <use xlink:href="#DejaVuSans-48"/>
       <use x="63.623047" xlink:href="#DejaVuSans-46"/>
       <use x="95.410156" xlink:href="#DejaVuSans-50"/>
       <use x="159.033203" xlink:href="#DejaVuSans-48"/>
      </g>
     </g>
    </g>
   </g>
   <g id="matplotlib.axis_2">
    <g id="ytick_1">
     <g id="line2d_6">
      <defs>
       <path d="M 0 0 
L -3.5 0 
" id="mdf3c169b99" style="stroke:#000000;stroke-width:0.8;"/>
      </defs>
      <g>
       <use style="stroke:#000000;stroke-width:0.8;" x="90" xlink:href="#mdf3c169b99" y="471.809547"/>
      </g>
     </g>
     <g id="text_6">
      <!-- −0.075 -->
      <g transform="translate(45.992188 475.608765)scale(0.1 -0.1)">
       <defs>
        <path d="M 10.59375 35.5 
L 73.1875 35.5 
L 73.1875 27.203125 
L 10.59375 27.203125 
z
" id="DejaVuSans-8722"/>
        <path d="M 8.203125 72.90625 
L 55.078125 72.90625 
L 55.078125 68.703125 
L 28.609375 0 
L 18.3125 0 
L 43.21875 64.59375 
L 8.203125 64.59375 
z
" id="DejaVuSans-55"/>
       </defs>
       <use xlink:href="#DejaVuSans-8722"/>
       <use x="83.789062" xlink:href="#DejaVuSans-48"/>
       <use x="147.412109" xlink:href="#DejaVuSans-46"/>
       <use x="179.199219" xlink:href="#DejaVuSans-48"/>
       <use x="242.822266" xlink:href="#DejaVuSans-55"/>
       <use x="306.445312" xlink:href="#DejaVuSans-53"/>
      </g>
     </g>
    </g>
    <g id="ytick_2">
     <g id="line2d_7">
      <g>
       <use style="stroke:#000000;stroke-width:0.8;" x="90" xlink:href="#mdf3c169b99" y="418.972864"/>
      </g>
     </g>
     <g id="text_7">
      <!-- −0.050 -->
      <g transform="translate(45.992188 422.772083)scale(0.1 -0.1)">
       <use xlink:href="#DejaVuSans-8722"/>
       <use x="83.789062" xlink:href="#DejaVuSans-48"/>
       <use x="147.412109" xlink:href="#DejaVuSans-46"/>
       <use x="179.199219" xlink:href="#DejaVuSans-48"/>
       <use x="242.822266" xlink:href="#DejaVuSans-53"/>
       <use x="306.445312" xlink:href="#DejaVuSans-48"/>
      </g>
     </g>
    </g>
    <g id="ytick_3">
     <g id="line2d_8">
      <g>
       <use style="stroke:#000000;stroke-width:0.8;" x="90" xlink:href="#mdf3c169b99" y="366.136182"/>
      </g>
     </g>
     <g id="text_8">
      <!-- −0.025 -->
      <g transform="translate(45.992188 369.935401)scale(0.1 -0.1)">
       <use xlink:href="#DejaVuSans-8722"/>
       <use x="83.789062" xlink:href="#DejaVuSans-48"/>
       <use x="147.412109" xlink:href="#DejaVuSans-46"/>
       <use x="179.199219" xlink:href="#DejaVuSans-48"/>
       <use x="242.822266" xlink:href="#DejaVuSans-50"/>
       <use x="306.445312" xlink:href="#DejaVuSans-53"/>
      </g>
     </g>
    </g>
    <g id="ytick_4">
     <g id="line2d_9">
      <g>
       <use style="stroke:#000000;stroke-width:0.8;" x="90" xlink:href="#mdf3c169b99" y="313.2995"/>
      </g>
     </g>
     <g id="text_9">
      <!-- 0.000 -->
      <g transform="translate(54.371875 317.098719)scale(0.1 -0.1)">
       <use xlink:href="#DejaVuSans-48"/>
       <use x="63.623047" xlink:href="#DejaVuSans-46"/>
       <use x="95.410156" xlink:href="#DejaVuSans-48"/>
       <use x="159.033203" xlink:href="#DejaVuSans-48"/>
       <use x="222.65625" xlink:href="#DejaVuSans-48"/>
      </g>
     </g>
    </g>
    <g id="ytick_5">
     <g id="line2d_10">
      <g>
       <use style="stroke:#000000;stroke-width:0.8;" x="90" xlink:href="#mdf3c169b99" y="260.462818"/>
      </g>
     </g>
     <g id="text_10">
      <!-- 0.025 -->
      <g transform="translate(54.371875 264.262037)scale(0.1 -0.1)">
       <use xlink:href="#DejaVuSans-48"/>
       <use x="63.623047" xlink:href="#DejaVuSans-46"/>
       <use x="95.410156" xlink:href="#DejaVuSans-48"/>
       <use x="159.033203" xlink:href="#DejaVuSans-50"/>
       <use x="222.65625" xlink:href="#DejaVuSans-53"/>
      </g>
     </g>
    </g>
    <g id="ytick_6">
     <g id="line2d_11">
      <g>
       <use style="stroke:#000000;stroke-width:0.8;" x="90" xlink:href="#mdf3c169b99" y="207.626136"/>
      </g>
     </g>
     <g id="text_11">
      <!-- 0.050 -->
      <g transform="translate(54.371875 211.425355)scale(0.1 -0.1)">
       <use xlink:href="#DejaVuSans-48"/>
       <use x="63.623047" xlink:href="#DejaVuSans-46"/>
       <use x="95.410156" xlink:href="#DejaVuSans-48"/>
       <use x="159.033203" xlink:href="#DejaVuSans-53"/>
       <use x="222.65625" xlink:href="#DejaVuSans-48"/>
      </g>
     </g>
    </g>
    <g id="ytick_7">
     <g id="line2d_12">
      <g>
       <use style="stroke:#000000;stroke-width:0.8;" x="90" xlink:href="#mdf3c169b99" y="154.789454"/>
      </g>
     </g>
     <g id="text_12">
      <!-- 0.075 -->
      <g transform="translate(54.371875 158.588672)scale(0.1 -0.1)">
       <use xlink:href="#DejaVuSans-48"/>
       <use x="63.623047" xlink:href="#DejaVuSans-46"/>
       <use x="95.410156" xlink:href="#DejaVuSans-48"/>
       <use x="159.033203" xlink:href="#DejaVuSans-55"/>
       <use x="222.65625" xlink:href="#DejaVuSans-53"/>
      </g>
     </g>
    </g>
    <g id="ytick_8">
     <g id="line2d_13">
      <g>
       <use style="stroke:#000000;stroke-width:0.8;" x="90" xlink:href="#mdf3c169b99" y="101.952771"/>
      </g>
     </g>
     <g id="text_13">
      <!-- 0.100 -->
      <g transform="translate(54.371875 105.75199)scale(0.1 -0.1)">
       <use xlink:href="#DejaVuSans-48"/>
       <use x="63.623047" xlink:href="#DejaVuSans-46"/>
       <use x="95.410156" xlink:href="#DejaVuSans-49"/>
       <use x="159.033203" xlink:href="#DejaVuSans-48"/>
       <use x="222.65625" xlink:href="#DejaVuSans-48"/>
      </g>
     </g>
    </g>
   </g>
   <g id="line2d_14">
    <path clip-path="url(#p9cfbc5ce7c)" d="M 721 149.757205 
L 704.932996 150.562519 
L 671.730425 152.654852 
L 639.838204 155.064204 
L 609.192928 157.769442 
L 579.731194 160.770566 
L 551.389598 164.025306 
L 524.12587 167.533661 
L 497.897741 171.295633 
L 472.620672 175.290086 
L 448.294664 179.517021 
L 424.856311 183.955302 
L 402.284481 188.626065 
L 380.515768 193.508174 
L 359.529038 198.622765 
L 339.303156 203.990972 
L 319.795853 209.612795 
L 300.964859 215.530503 
L 282.83131 221.744097 
L 265.331801 228.338115 
L 248.487466 235.375961 
L 232.234903 242.963309 
L 216.61638 251.269235 
L 201.631897 260.610761 
L 187.323723 271.664195 
L 173.860937 286.352792 
L 167.731881 297.850054 
L 165.681818 313.2995 
L 170.733005 328.030367 
L 178.975527 338.111606 
L 194.911071 349.925888 
L 210.910018 358.062737 
L 227.183716 364.466543 
L 243.837838 369.792481 
L 260.914654 374.35757 
L 278.456433 378.352023 
L 296.484309 381.881514 
L 315.061686 385.009445 
L 334.2097 387.799222 
L 353.928349 390.293113 
L 374.302174 392.512254 
L 395.331174 394.477779 
L 417.036483 396.231956 
L 439.50264 397.753653 
L 462.729645 399.064003 
L 486.759768 400.163006 
L 511.656413 401.071796 
L 537.440714 401.81151 
L 564.176075 402.339877 
L 591.904766 402.678032 
L 620.669056 402.847109 
L 650.574618 402.825974 
L 681.621452 402.635762 
L 713.915232 402.255338 
L 721 402.139487 
" style="fill:none;stroke:#0000ff;stroke-dasharray:5.55,2.4;stroke-dashoffset:0;stroke-width:1.5;"/>
    <defs>
     <path d="M 0 3 
C 0.795609 3 1.55874 2.683901 2.12132 2.12132 
C 2.683901 1.55874 3 0.795609 3 0 
C 3 -0.795609 2.683901 -1.55874 2.12132 -2.12132 
C 1.55874 -2.683901 0.795609 -3 0 -3 
C -0.795609 -3 -1.55874 -2.683901 -2.12132 -2.12132 
C -2.683901 -1.55874 -3 -0.795609 -3 0 
C -3 0.795609 -2.683901 1.55874 -2.12132 2.12132 
C -1.55874 2.683901 -0.795609 3 0 3 
z
" id="mf490274d50" style="stroke:#0000ff;"/>
    </defs>
    <g clip-path="url(#p9cfbc5ce7c)">
     <use style="fill:#0000ff;stroke:#0000ff;" x="2279.318182" xlink:href="#mf490274d50" y="310.636531"/>
     <use style="fill:#0000ff;stroke:#0000ff;" x="2170.347809" xlink:href="#mf490274d50" y="288.719876"/>
     <use style="fill:#0000ff;stroke:#0000ff;" x="2067.400817" xlink:href="#mf490274d50" y="269.445054"/>
     <use style="fill:#0000ff;stroke:#0000ff;" x="1970.075648" xlink:href="#mf490274d50" y="252.452777"/>
     <use style="fill:#0000ff;stroke:#0000ff;" x="1877.970744" xlink:href="#mf490274d50" y="237.426024"/>
     <use style="fill:#0000ff;stroke:#0000ff;" x="1790.726815" xlink:href="#mf490274d50" y="224.111181"/>
     <use style="fill:#0000ff;stroke:#0000ff;" x="1708.047974" xlink:href="#mf490274d50" y="212.296898"/>
     <use style="fill:#0000ff;stroke:#0000ff;" x="1629.617203" xlink:href="#mf490274d50" y="201.85637"/>
     <use style="fill:#0000ff;stroke:#0000ff;" x="1555.138616" xlink:href="#mf490274d50" y="192.641653"/>
     <use style="fill:#0000ff;stroke:#0000ff;" x="1484.379731" xlink:href="#mf490274d50" y="184.504804"/>
     <use style="fill:#0000ff;stroke:#0000ff;" x="1417.086933" xlink:href="#mf490274d50" y="177.361284"/>
     <use style="fill:#0000ff;stroke:#0000ff;" x="1353.048874" xlink:href="#mf490274d50" y="171.14769"/>
     <use style="fill:#0000ff;stroke:#0000ff;" x="1292.054208" xlink:href="#mf490274d50" y="165.737214"/>
     <use style="fill:#0000ff;stroke:#0000ff;" x="1233.912723" xlink:href="#mf490274d50" y="161.087586"/>
     <use style="fill:#0000ff;stroke:#0000ff;" x="1178.476476" xlink:href="#mf490274d50" y="157.135402"/>
     <use style="fill:#0000ff;stroke:#0000ff;" x="1125.555256" xlink:href="#mf490274d50" y="153.838393"/>
     <use style="fill:#0000ff;stroke:#0000ff;" x="1075.022253" xlink:href="#mf490274d50" y="151.133155"/>
     <use style="fill:#0000ff;stroke:#0000ff;" x="1026.729525" xlink:href="#mf490274d50" y="148.998553"/>
     <use style="fill:#0000ff;stroke:#0000ff;" x="980.317784" xlink:href="#mf490274d50" y="147.371183"/>
     <use style="fill:#0000ff;stroke:#0000ff;" x="935.765893" xlink:href="#mf490274d50" y="146.377854"/>
     <use style="fill:#0000ff;stroke:#0000ff;" x="893.116123" xlink:href="#mf490274d50" y="145.912891"/>
     <use style="fill:#0000ff;stroke:#0000ff;" x="852.262801" xlink:href="#mf490274d50" y="145.976295"/>
     <use style="fill:#0000ff;stroke:#0000ff;" x="813.100252" xlink:href="#mf490274d50" y="146.504662"/>
     <use style="fill:#0000ff;stroke:#0000ff;" x="775.543938" xlink:href="#mf490274d50" y="147.455722"/>
     <use style="fill:#0000ff;stroke:#0000ff;" x="739.509321" xlink:href="#mf490274d50" y="148.829476"/>
     <use style="fill:#0000ff;stroke:#0000ff;" x="704.932996" xlink:href="#mf490274d50" y="150.562519"/>
     <use style="fill:#0000ff;stroke:#0000ff;" x="671.730425" xlink:href="#mf490274d50" y="152.654852"/>
     <use style="fill:#0000ff;stroke:#0000ff;" x="639.838204" xlink:href="#mf490274d50" y="155.064204"/>
     <use style="fill:#0000ff;stroke:#0000ff;" x="609.192928" xlink:href="#mf490274d50" y="157.769442"/>
     <use style="fill:#0000ff;stroke:#0000ff;" x="579.731194" xlink:href="#mf490274d50" y="160.770566"/>
     <use style="fill:#0000ff;stroke:#0000ff;" x="551.389598" xlink:href="#mf490274d50" y="164.025306"/>
     <use style="fill:#0000ff;stroke:#0000ff;" x="524.12587" xlink:href="#mf490274d50" y="167.533661"/>
     <use style="fill:#0000ff;stroke:#0000ff;" x="497.897741" xlink:href="#mf490274d50" y="171.295633"/>
     <use style="fill:#0000ff;stroke:#0000ff;" x="472.620672" xlink:href="#mf490274d50" y="175.290086"/>
     <use style="fill:#0000ff;stroke:#0000ff;" x="448.294664" xlink:href="#mf490274d50" y="179.517021"/>
     <use style="fill:#0000ff;stroke:#0000ff;" x="424.856311" xlink:href="#mf490274d50" y="183.955302"/>
     <use style="fill:#0000ff;stroke:#0000ff;" x="402.284481" xlink:href="#mf490274d50" y="188.626065"/>
     <use style="fill:#0000ff;stroke:#0000ff;" x="380.515768" xlink:href="#mf490274d50" y="193.508174"/>
     <use style="fill:#0000ff;stroke:#0000ff;" x="359.529038" xlink:href="#mf490274d50" y="198.622765"/>
     <use style="fill:#0000ff;stroke:#0000ff;" x="339.303156" xlink:href="#mf490274d50" y="203.990972"/>
     <use style="fill:#0000ff;stroke:#0000ff;" x="319.795853" xlink:href="#mf490274d50" y="209.612795"/>
     <use style="fill:#0000ff;stroke:#0000ff;" x="300.964859" xlink:href="#mf490274d50" y="215.530503"/>
     <use style="fill:#0000ff;stroke:#0000ff;" x="282.83131" xlink:href="#mf490274d50" y="221.744097"/>
     <use style="fill:#0000ff;stroke:#0000ff;" x="265.331801" xlink:href="#mf490274d50" y="228.338115"/>
     <use style="fill:#0000ff;stroke:#0000ff;" x="248.487466" xlink:href="#mf490274d50" y="235.375961"/>
     <use style="fill:#0000ff;stroke:#0000ff;" x="232.234903" xlink:href="#mf490274d50" y="242.963309"/>
     <use style="fill:#0000ff;stroke:#0000ff;" x="216.61638" xlink:href="#mf490274d50" y="251.269235"/>
     <use style="fill:#0000ff;stroke:#0000ff;" x="201.631897" xlink:href="#mf490274d50" y="260.610761"/>
     <use style="fill:#0000ff;stroke:#0000ff;" x="187.323723" xlink:href="#mf490274d50" y="271.664195"/>
     <use style="fill:#0000ff;stroke:#0000ff;" x="173.860937" xlink:href="#mf490274d50" y="286.352792"/>
     <use style="fill:#0000ff;stroke:#0000ff;" x="167.731881" xlink:href="#mf490274d50" y="297.850054"/>
     <use style="fill:#0000ff;stroke:#0000ff;" x="165.681818" xlink:href="#mf490274d50" y="313.2995"/>
     <use style="fill:#0000ff;stroke:#0000ff;" x="170.733005" xlink:href="#mf490274d50" y="328.030367"/>
     <use style="fill:#0000ff;stroke:#0000ff;" x="178.975527" xlink:href="#mf490274d50" y="338.111606"/>
     <use style="fill:#0000ff;stroke:#0000ff;" x="194.911071" xlink:href="#mf490274d50" y="349.925888"/>
     <use style="fill:#0000ff;stroke:#0000ff;" x="210.910018" xlink:href="#mf490274d50" y="358.062737"/>
     <use style="fill:#0000ff;stroke:#0000ff;" x="227.183716" xlink:href="#mf490274d50" y="364.466543"/>
     <use style="fill:#0000ff;stroke:#0000ff;" x="243.837838" xlink:href="#mf490274d50" y="369.792481"/>
     <use style="fill:#0000ff;stroke:#0000ff;" x="260.914654" xlink:href="#mf490274d50" y="374.35757"/>
     <use style="fill:#0000ff;stroke:#0000ff;" x="278.456433" xlink:href="#mf490274d50" y="378.352023"/>
     <use style="fill:#0000ff;stroke:#0000ff;" x="296.484309" xlink:href="#mf490274d50" y="381.881514"/>
     <use style="fill:#0000ff;stroke:#0000ff;" x="315.061686" xlink:href="#mf490274d50" y="385.009445"/>
     <use style="fill:#0000ff;stroke:#0000ff;" x="334.2097" xlink:href="#mf490274d50" y="387.799222"/>
     <use style="fill:#0000ff;stroke:#0000ff;" x="353.928349" xlink:href="#mf490274d50" y="390.293113"/>
     <use style="fill:#0000ff;stroke:#0000ff;" x="374.302174" xlink:href="#mf490274d50" y="392.512254"/>
     <use style="fill:#0000ff;stroke:#0000ff;" x="395.331174" xlink:href="#mf490274d50" y="394.477779"/>
     <use style="fill:#0000ff;stroke:#0000ff;" x="417.036483" xlink:href="#mf490274d50" y="396.231956"/>
     <use style="fill:#0000ff;stroke:#0000ff;" x="439.50264" xlink:href="#mf490274d50" y="397.753653"/>
     <use style="fill:#0000ff;stroke:#0000ff;" x="462.729645" xlink:href="#mf490274d50" y="399.064003"/>
     <use style="fill:#0000ff;stroke:#0000ff;" x="486.759768" xlink:href="#mf490274d50" y="400.163006"/>
     <use style="fill:#0000ff;stroke:#0000ff;" x="511.656413" xlink:href="#mf490274d50" y="401.071796"/>
     <use style="fill:#0000ff;stroke:#0000ff;" x="537.440714" xlink:href="#mf490274d50" y="401.81151"/>
     <use style="fill:#0000ff;stroke:#0000ff;" x="564.176075" xlink:href="#mf490274d50" y="402.339877"/>
     <use style="fill:#0000ff;stroke:#0000ff;" x="591.904766" xlink:href="#mf490274d50" y="402.678032"/>
     <use style="fill:#0000ff;stroke:#0000ff;" x="620.669056" xlink:href="#mf490274d50" y="402.847109"/>
     <use style="fill:#0000ff;stroke:#0000ff;" x="650.574618" xlink:href="#mf490274d50" y="402.825974"/>
     <use style="fill:#0000ff;stroke:#0000ff;" x="681.621452" xlink:href="#mf490274d50" y="402.635762"/>
     <use style="fill:#0000ff;stroke:#0000ff;" x="713.915232" xlink:href="#mf490274d50" y="402.255338"/>
     <use style="fill:#0000ff;stroke:#0000ff;" x="747.519362" xlink:href="#mf490274d50" y="401.705837"/>
     <use style="fill:#0000ff;stroke:#0000ff;" x="782.497246" xlink:href="#mf490274d50" y="400.966123"/>
     <use style="fill:#0000ff;stroke:#0000ff;" x="818.933422" xlink:href="#mf490274d50" y="400.057332"/>
     <use style="fill:#0000ff;stroke:#0000ff;" x="856.933563" xlink:href="#mf490274d50" y="398.979464"/>
     <use style="fill:#0000ff;stroke:#0000ff;" x="896.58221" xlink:href="#mf490274d50" y="397.753653"/>
     <use style="fill:#0000ff;stroke:#0000ff;" x="937.963899" xlink:href="#mf490274d50" y="396.33763"/>
     <use style="fill:#0000ff;stroke:#0000ff;" x="981.20544" xlink:href="#mf490274d50" y="394.794799"/>
     <use style="fill:#0000ff;stroke:#0000ff;" x="1026.539313" xlink:href="#mf490274d50" y="393.08289"/>
     <use style="fill:#0000ff;stroke:#0000ff;" x="1074.219135" xlink:href="#mf490274d50" y="391.1385"/>
     <use style="fill:#0000ff;stroke:#0000ff;" x="1124.160367" xlink:href="#mf490274d50" y="388.898225"/>
     <use style="fill:#0000ff;stroke:#0000ff;" x="1176.468683" xlink:href="#mf490274d50" y="386.362064"/>
     <use style="fill:#0000ff;stroke:#0000ff;" x="1231.334293" xlink:href="#mf490274d50" y="383.551153"/>
     <use style="fill:#0000ff;stroke:#0000ff;" x="1288.905142" xlink:href="#mf490274d50" y="380.423221"/>
     <use style="fill:#0000ff;stroke:#0000ff;" x="1349.371441" xlink:href="#mf490274d50" y="376.999404"/>
     <use style="fill:#0000ff;stroke:#0000ff;" x="1412.923402" xlink:href="#mf490274d50" y="373.279702"/>
     <use style="fill:#0000ff;stroke:#0000ff;" x="1479.814642" xlink:href="#mf490274d50" y="369.221844"/>
     <use style="fill:#0000ff;stroke:#0000ff;" x="1550.235372" xlink:href="#mf490274d50" y="364.846967"/>
     <use style="fill:#0000ff;stroke:#0000ff;" x="1624.481478" xlink:href="#mf490274d50" y="360.133935"/>
     <use style="fill:#0000ff;stroke:#0000ff;" x="1702.848845" xlink:href="#mf490274d50" y="355.103883"/>
     <use style="fill:#0000ff;stroke:#0000ff;" x="1785.612224" xlink:href="#mf490274d50" y="349.714541"/>
     <use style="fill:#0000ff;stroke:#0000ff;" x="1873.130904" xlink:href="#mf490274d50" y="343.923641"/>
     <use style="fill:#0000ff;stroke:#0000ff;" x="1965.78531" xlink:href="#mf490274d50" y="337.752317"/>
     <use style="fill:#0000ff;stroke:#0000ff;" x="2063.977" xlink:href="#mf490274d50" y="331.07376"/>
     <use style="fill:#0000ff;stroke:#0000ff;" x="2168.213207" xlink:href="#mf490274d50" y="323.866837"/>
     <use style="fill:#0000ff;stroke:#0000ff;" x="2278.980027" xlink:href="#mf490274d50" y="315.962469"/>
    </g>
   </g>
   <g id="patch_3">
    <path d="M 90 512.64 
L 90 69.12 
" style="fill:none;stroke:#000000;stroke-linecap:square;stroke-linejoin:miter;stroke-width:0.8;"/>
   </g>
   <g id="patch_4">
    <path d="M 648 512.64 
L 648 69.12 
" style="fill:none;stroke:#000000;stroke-linecap:square;stroke-linejoin:miter;stroke-width:0.8;"/>
   </g>
   <g id="patch_5">
    <path d="M 90 512.64 
L 648 512.64 
" style="fill:none;stroke:#000000;stroke-linecap:square;stroke-linejoin:miter;stroke-width:0.8;"/>
   </g>
   <g id="patch_6">
    <path d="M 90 69.12 
L 648 69.12 
" style="fill:none;stroke:#000000;stroke-linecap:square;stroke-linejoin:miter;stroke-width:0.8;"/>
   </g>
   <g id="legend_1">
    <g id="patch_7">
     <path d="M 564.09375 507.64 
L 641 507.64 
Q 643 507.64 643 505.64 
L 643 491.961875 
Q 643 489.961875 641 489.961875 
L 564.09375 489.961875 
Q 562.09375 489.961875 562.09375 491.961875 
L 562.09375 505.64 
Q 562.09375 507.64 564.09375 507.64 
z
" style="fill:#ffffff;opacity:0.8;stroke:#cccccc;stroke-linejoin:miter;"/>
    </g>
    <g id="line2d_15">
     <path d="M 566.09375 498.060313 
L 586.09375 498.060313 
" style="fill:none;stroke:#0000ff;stroke-dasharray:5.55,2.4;stroke-dashoffset:0;stroke-width:1.5;"/>
    </g>
    <g id="line2d_16">
     <g>
      <use style="fill:#0000ff;stroke:#0000ff;" x="576.09375" xlink:href="#mf490274d50" y="498.060313"/>
     </g>
    </g>
    <g id="text_14">
     <!-- RawData -->
     <g transform="translate(594.09375 501.560313)scale(0.1 -0.1)">
      <defs>
       <path d="M 44.390625 34.1875 
Q 47.5625 33.109375 50.5625 29.59375 
Q 53.5625 26.078125 56.59375 19.921875 
L 66.609375 0 
L 56 0 
L 46.6875 18.703125 
Q 43.0625 26.03125 39.671875 28.421875 
Q 36.28125 30.8125 30.421875 30.8125 
L 19.671875 30.8125 
L 19.671875 0 
L 9.8125 0 
L 9.8125 72.90625 
L 32.078125 72.90625 
Q 44.578125 72.90625 50.734375 67.671875 
Q 56.890625 62.453125 56.890625 51.90625 
Q 56.890625 45.015625 53.6875 40.46875 
Q 50.484375 35.9375 44.390625 34.1875 
z
M 19.671875 64.796875 
L 19.671875 38.921875 
L 32.078125 38.921875 
Q 39.203125 38.921875 42.84375 42.21875 
Q 46.484375 45.515625 46.484375 51.90625 
Q 46.484375 58.296875 42.84375 61.546875 
Q 39.203125 64.796875 32.078125 64.796875 
z
" id="DejaVuSans-82"/>
       <path d="M 34.28125 27.484375 
Q 23.390625 27.484375 19.1875 25 
Q 14.984375 22.515625 14.984375 16.5 
Q 14.984375 11.71875 18.140625 8.90625 
Q 21.296875 6.109375 26.703125 6.109375 
Q 34.1875 6.109375 38.703125 11.40625 
Q 43.21875 16.703125 43.21875 25.484375 
L 43.21875 27.484375 
z
M 52.203125 31.203125 
L 52.203125 0 
L 43.21875 0 
L 43.21875 8.296875 
Q 40.140625 3.328125 35.546875 0.953125 
Q 30.953125 -1.421875 24.3125 -1.421875 
Q 15.921875 -1.421875 10.953125 3.296875 
Q 6 8.015625 6 15.921875 
Q 6 25.140625 12.171875 29.828125 
Q 18.359375 34.515625 30.609375 34.515625 
L 43.21875 34.515625 
L 43.21875 35.40625 
Q 43.21875 41.609375 39.140625 45 
Q 35.0625 48.390625 27.6875 48.390625 
Q 23 48.390625 18.546875 47.265625 
Q 14.109375 46.140625 10.015625 43.890625 
L 10.015625 52.203125 
Q 14.9375 54.109375 19.578125 55.046875 
Q 24.21875 56 28.609375 56 
Q 40.484375 56 46.34375 49.84375 
Q 52.203125 43.703125 52.203125 31.203125 
z
" id="DejaVuSans-97"/>
       <path d="M 4.203125 54.6875 
L 13.1875 54.6875 
L 24.421875 12.015625 
L 35.59375 54.6875 
L 46.1875 54.6875 
L 57.421875 12.015625 
L 68.609375 54.6875 
L 77.59375 54.6875 
L 63.28125 0 
L 52.6875 0 
L 40.921875 44.828125 
L 29.109375 0 
L 18.5 0 
z
" id="DejaVuSans-119"/>
       <path d="M 19.671875 64.796875 
L 19.671875 8.109375 
L 31.59375 8.109375 
Q 46.6875 8.109375 53.6875 14.9375 
Q 60.6875 21.78125 60.6875 36.53125 
Q 60.6875 51.171875 53.6875 57.984375 
Q 46.6875 64.796875 31.59375 64.796875 
z
M 9.8125 72.90625 
L 30.078125 72.90625 
Q 51.265625 72.90625 61.171875 64.09375 
Q 71.09375 55.28125 71.09375 36.53125 
Q 71.09375 17.671875 61.125 8.828125 
Q 51.171875 0 30.078125 0 
L 9.8125 0 
z
" id="DejaVuSans-68"/>
       <path d="M 18.3125 70.21875 
L 18.3125 54.6875 
L 36.8125 54.6875 
L 36.8125 47.703125 
L 18.3125 47.703125 
L 18.3125 18.015625 
Q 18.3125 11.328125 20.140625 9.421875 
Q 21.96875 7.515625 27.59375 7.515625 
L 36.8125 7.515625 
L 36.8125 0 
L 27.59375 0 
Q 17.1875 0 13.234375 3.875 
Q 9.28125 7.765625 9.28125 18.015625 
L 9.28125 47.703125 
L 2.6875 47.703125 
L 2.6875 54.6875 
L 9.28125 54.6875 
L 9.28125 70.21875 
z
" id="DejaVuSans-116"/>
      </defs>
      <use xlink:href="#DejaVuSans-82"/>
      <use x="67.232422" xlink:href="#DejaVuSans-97"/>
      <use x="128.511719" xlink:href="#DejaVuSans-119"/>
      <use x="210.298828" xlink:href="#DejaVuSans-68"/>
      <use x="287.300781" xlink:href="#DejaVuSans-97"/>
      <use x="348.580078" xlink:href="#DejaVuSans-116"/>
      <use x="387.789062" xlink:href="#DejaVuSans-97"/>
     </g>
    </g>
   </g>
  </g>
  <g id="axes_2">
   <g id="matplotlib.axis_3">
    <g id="ytick_9">
     <g id="line2d_17">
      <path clip-path="url(#p9cfbc5ce7c)" d="M 90 457.869745 
L 648 457.869745 
" style="fill:none;stroke:#b0b0b0;stroke-linecap:square;stroke-width:0.8;"/>
     </g>
     <g id="line2d_18">
      <defs>
       <path d="M 0 0 
L 3.5 0 
" id="m9db4815bf2" style="stroke:#000000;stroke-width:0.8;"/>
      </defs>
      <g>
       <use style="stroke:#000000;stroke-width:0.8;" x="648" xlink:href="#m9db4815bf2" y="457.869745"/>
      </g>
     </g>
     <g id="text_15">
      <!-- −100 -->
      <g transform="translate(655 461.668964)scale(0.1 -0.1)">
       <use xlink:href="#DejaVuSans-8722"/>
       <use x="83.789062" xlink:href="#DejaVuSans-49"/>
       <use x="147.412109" xlink:href="#DejaVuSans-48"/>
       <use x="211.035156" xlink:href="#DejaVuSans-48"/>
      </g>
     </g>
    </g>
    <g id="ytick_10">
     <g id="line2d_19">
      <path clip-path="url(#p9cfbc5ce7c)" d="M 90 366.189101 
L 648 366.189101 
" style="fill:none;stroke:#b0b0b0;stroke-linecap:square;stroke-width:0.8;"/>
     </g>
     <g id="line2d_20">
      <g>
       <use style="stroke:#000000;stroke-width:0.8;" x="648" xlink:href="#m9db4815bf2" y="366.189101"/>
      </g>
     </g>
     <g id="text_16">
      <!-- −50 -->
      <g transform="translate(655 369.988319)scale(0.1 -0.1)">
       <use xlink:href="#DejaVuSans-8722"/>
       <use x="83.789062" xlink:href="#DejaVuSans-53"/>
       <use x="147.412109" xlink:href="#DejaVuSans-48"/>
      </g>
     </g>
    </g>
    <g id="ytick_11">
     <g id="line2d_21">
      <path clip-path="url(#p9cfbc5ce7c)" d="M 90 274.508456 
L 648 274.508456 
" style="fill:none;stroke:#b0b0b0;stroke-linecap:square;stroke-width:0.8;"/>
     </g>
     <g id="line2d_22">
      <g>
       <use style="stroke:#000000;stroke-width:0.8;" x="648" xlink:href="#m9db4815bf2" y="274.508456"/>
      </g>
     </g>
     <g id="text_17">
      <!-- 0 -->
      <g transform="translate(655 278.307675)scale(0.1 -0.1)">
       <use xlink:href="#DejaVuSans-48"/>
      </g>
     </g>
    </g>
    <g id="ytick_12">
     <g id="line2d_23">
      <path clip-path="url(#p9cfbc5ce7c)" d="M 90 182.827812 
L 648 182.827812 
" style="fill:none;stroke:#b0b0b0;stroke-linecap:square;stroke-width:0.8;"/>
     </g>
     <g id="line2d_24">
      <g>
       <use style="stroke:#000000;stroke-width:0.8;" x="648" xlink:href="#m9db4815bf2" y="182.827812"/>
      </g>
     </g>
     <g id="text_18">
      <!-- 50 -->
      <g transform="translate(655 186.627031)scale(0.1 -0.1)">
       <use xlink:href="#DejaVuSans-53"/>
       <use x="63.623047" xlink:href="#DejaVuSans-48"/>
      </g>
     </g>
    </g>
    <g id="ytick_13">
     <g id="line2d_25">
      <path clip-path="url(#p9cfbc5ce7c)" d="M 90 91.147168 
L 648 91.147168 
" style="fill:none;stroke:#b0b0b0;stroke-linecap:square;stroke-width:0.8;"/>
     </g>
     <g id="line2d_26">
      <g>
       <use style="stroke:#000000;stroke-width:0.8;" x="648" xlink:href="#m9db4815bf2" y="91.147168"/>
      </g>
     </g>
     <g id="text_19">
      <!-- 100 -->
      <g transform="translate(655 94.946387)scale(0.1 -0.1)">
       <use xlink:href="#DejaVuSans-49"/>
       <use x="63.623047" xlink:href="#DejaVuSans-48"/>
       <use x="127.246094" xlink:href="#DejaVuSans-48"/>
      </g>
     </g>
    </g>
   </g>
   <g id="line2d_27">
    <path clip-path="url(#p9cfbc5ce7c)" d="M 721 303.605485 
L 704.932996 303.605485 
L 704.932996 298.779701 
L 671.730425 298.779701 
L 671.730425 295.279852 
L 639.838204 295.279852 
L 639.838204 292.508853 
L 609.192928 292.508853 
L 609.192928 290.475176 
L 579.731194 290.475176 
L 579.731194 288.757617 
L 551.389598 288.757617 
L 551.389598 287.292241 
L 524.12587 287.292241 
L 524.12587 286.111636 
L 497.897741 286.111636 
L 497.897741 285.060899 
L 472.620672 285.060899 
L 472.620672 284.191679 
L 448.294664 284.191679 
L 448.294664 283.369536 
L 424.856311 283.369536 
L 424.856311 282.684306 
L 402.284481 282.684306 
L 402.284481 282.032331 
L 380.515768 282.032331 
L 380.515768 281.41699 
L 359.529038 281.41699 
L 359.529038 280.870955 
L 339.303156 280.870955 
L 339.303156 280.343275 
L 319.795853 280.343275 
L 319.795853 279.859612 
L 300.964859 279.859612 
L 300.964859 279.374583 
L 282.83131 279.374583 
L 282.83131 278.897013 
L 265.331801 278.897013 
L 265.331801 278.436168 
L 248.487466 278.436168 
L 248.487466 277.956395 
L 232.234903 277.956395 
L 232.234903 277.449704 
L 216.61638 277.449704 
L 216.61638 276.881986 
L 201.631897 276.881986 
L 201.631897 276.189048 
L 187.323723 276.189048 
L 187.323723 275.485934 
L 173.860937 275.485934 
L 173.860937 274.751768 
L 167.731881 274.751768 
L 167.731881 273.879714 
L 165.681818 273.879714 
L 165.681818 273.009276 
L 170.733005 273.009276 
L 170.733005 272.035211 
L 178.975527 272.035211 
L 178.975527 270.903145 
L 194.911071 270.903145 
L 194.911071 269.84878 
L 210.910018 269.84878 
L 210.910018 268.774778 
L 227.183716 268.774778 
L 227.183716 267.649386 
L 243.837838 267.649386 
L 243.837838 266.456082 
L 260.914654 266.456082 
L 260.914654 265.142757 
L 278.456433 265.142757 
L 278.456433 263.618283 
L 296.484309 263.618283 
L 296.484309 261.923204 
L 315.061686 261.923204 
L 315.061686 260.010483 
L 334.2097 260.010483 
L 334.2097 257.674144 
L 353.928349 257.674144 
L 353.928349 254.89077 
L 374.302174 254.89077 
L 374.302174 251.820258 
L 395.331174 251.820258 
L 395.331174 247.437199 
L 417.036483 247.437199 
L 417.036483 242.006189 
L 439.50264 242.006189 
L 439.50264 234.415805 
L 462.729645 234.415805 
L 462.729645 224.275992 
L 486.759768 224.275992 
L 486.759768 210.59395 
L 511.656413 210.59395 
L 511.656413 181.727644 
L 537.440714 181.727644 
L 537.440714 124.1522 
L 564.176075 124.1522 
L 564.176075 -1 
M 591.904766 -1 
L 591.904766 577 
M 620.669056 577 
L 620.669056 573.794826 
L 650.574618 573.794826 
L 650.574618 430.161817 
L 681.621452 430.161817 
L 681.621452 386.640937 
L 713.915232 386.640937 
L 713.915232 361.212151 
L 721 361.212151 
L 721 361.212151 
" style="fill:none;stroke:#ff0000;stroke-linecap:square;stroke-width:1.5;"/>
   </g>
   <g id="line2d_28">
    <path clip-path="url(#p9cfbc5ce7c)" d="M 721 303.605485 
L 704.932996 303.605485 
L 704.932996 298.779701 
L 671.730425 298.779701 
L 671.730425 295.279852 
L 639.838204 295.279852 
L 639.838204 292.508853 
L 609.192928 292.508853 
L 609.192928 290.475176 
L 579.731194 290.475176 
L 579.731194 288.757617 
L 551.389598 288.757617 
L 551.389598 287.292241 
L 524.12587 287.292241 
L 524.12587 286.111636 
L 497.897741 286.111636 
L 497.897741 285.060899 
L 472.620672 285.060899 
L 472.620672 284.191679 
L 448.294664 284.191679 
L 448.294664 283.369536 
L 424.856311 283.369536 
L 424.856311 282.684306 
L 402.284481 282.684306 
L 402.284481 282.032331 
L 380.515768 282.032331 
L 380.515768 281.41699 
L 359.529038 281.41699 
L 359.529038 280.870955 
L 339.303156 280.870955 
L 339.303156 280.343275 
L 319.795853 280.343275 
L 319.795853 279.859612 
L 300.964859 279.859612 
L 300.964859 279.374583 
L 282.83131 279.374583 
L 282.83131 278.897013 
L 265.331801 278.897013 
L 265.331801 278.436168 
L 248.487466 278.436168 
L 248.487466 277.956395 
L 232.234903 277.956395 
L 232.234903 277.449704 
L 216.61638 277.449704 
L 216.61638 276.881986 
L 201.631897 276.881986 
L 201.631897 276.189048 
L 187.323723 276.189048 
L 187.323723 275.485934 
L 173.860937 275.485934 
L 173.860937 274.751768 
L 167.731881 274.751768 
L 167.731881 273.879714 
L 165.681818 273.879714 
L 165.681818 273.009276 
L 170.733005 273.009276 
L 170.733005 272.035211 
L 178.975527 272.035211 
L 178.975527 270.903145 
L 194.911071 270.903145 
L 194.911071 269.84878 
L 210.910018 269.84878 
L 210.910018 268.774778 
L 227.183716 268.774778 
L 227.183716 267.649386 
L 243.837838 267.649386 
L 243.837838 266.456082 
L 260.914654 266.456082 
L 260.914654 265.142757 
L 278.456433 265.142757 
L 278.456433 263.618283 
L 296.484309 263.618283 
L 296.484309 261.923204 
L 315.061686 261.923204 
L 315.061686 260.010483 
L 334.2097 260.010483 
L 334.2097 257.674144 
L 353.928349 257.674144 
L 353.928349 254.89077 
L 374.302174 254.89077 
L 374.302174 251.820258 
L 395.331174 251.820258 
L 395.331174 247.437199 
L 417.036483 247.437199 
L 417.036483 242.006189 
L 439.50264 242.006189 
L 439.50264 234.415805 
L 462.729645 234.415805 
L 462.729645 224.275992 
L 486.759768 224.275992 
L 486.759768 210.59395 
L 511.656413 210.59395 
L 511.656413 181.727644 
L 537.440714 181.727644 
L 537.440714 124.1522 
L 564.176075 124.1522 
L 564.176075 -1 
M 591.904766 -1 
L 591.904766 577 
M 620.669056 577 
L 620.669056 573.794826 
L 650.574618 573.794826 
L 650.574618 430.161817 
L 681.621452 430.161817 
L 681.621452 386.640937 
L 713.915232 386.640937 
L 713.915232 361.212151 
L 721 361.212151 
L 721 361.212151 
" style="fill:none;stroke:#000000;stroke-dasharray:5.55,2.4;stroke-dashoffset:0;stroke-width:1.5;"/>
   </g>
   <g id="patch_8">
    <path d="M 90 512.64 
L 90 69.12 
" style="fill:none;stroke:#000000;stroke-linecap:square;stroke-linejoin:miter;stroke-width:0.8;"/>
   </g>
   <g id="patch_9">
    <path d="M 648 512.64 
L 648 69.12 
" style="fill:none;stroke:#000000;stroke-linecap:square;stroke-linejoin:miter;stroke-width:0.8;"/>
   </g>
   <g id="patch_10">
    <path d="M 90 512.64 
L 648 512.64 
" style="fill:none;stroke:#000000;stroke-linecap:square;stroke-linejoin:miter;stroke-width:0.8;"/>
   </g>
   <g id="patch_11">
    <path d="M 90 69.12 
L 648 69.12 
" style="fill:none;stroke:#000000;stroke-linecap:square;stroke-linejoin:miter;stroke-width:0.8;"/>
   </g>
   <g id="text_20">
    <!-- Example of 3.2.2.1 -->
    <g transform="translate(312.380625 63.12)scale(0.12 -0.12)">
     <defs>
      <path d="M 9.8125 72.90625 
L 55.90625 72.90625 
L 55.90625 64.59375 
L 19.671875 64.59375 
L 19.671875 43.015625 
L 54.390625 43.015625 
L 54.390625 34.71875 
L 19.671875 34.71875 
L 19.671875 8.296875 
L 56.78125 8.296875 
L 56.78125 0 
L 9.8125 0 
z
" id="DejaVuSans-69"/>
      <path d="M 54.890625 54.6875 
L 35.109375 28.078125 
L 55.90625 0 
L 45.3125 0 
L 29.390625 21.484375 
L 13.484375 0 
L 2.875 0 
L 24.125 28.609375 
L 4.6875 54.6875 
L 15.28125 54.6875 
L 29.78125 35.203125 
L 44.28125 54.6875 
z
" id="DejaVuSans-120"/>
      <path d="M 52 44.1875 
Q 55.375 50.25 60.0625 53.125 
Q 64.75 56 71.09375 56 
Q 79.640625 56 84.28125 50.015625 
Q 88.921875 44.046875 88.921875 33.015625 
L 88.921875 0 
L 79.890625 0 
L 79.890625 32.71875 
Q 79.890625 40.578125 77.09375 44.375 
Q 74.3125 48.1875 68.609375 48.1875 
Q 61.625 48.1875 57.5625 43.546875 
Q 53.515625 38.921875 53.515625 30.90625 
L 53.515625 0 
L 44.484375 0 
L 44.484375 32.71875 
Q 44.484375 40.625 41.703125 44.40625 
Q 38.921875 48.1875 33.109375 48.1875 
Q 26.21875 48.1875 22.15625 43.53125 
Q 18.109375 38.875 18.109375 30.90625 
L 18.109375 0 
L 9.078125 0 
L 9.078125 54.6875 
L 18.109375 54.6875 
L 18.109375 46.1875 
Q 21.1875 51.21875 25.484375 53.609375 
Q 29.78125 56 35.6875 56 
Q 41.65625 56 45.828125 52.96875 
Q 50 49.953125 52 44.1875 
z
" id="DejaVuSans-109"/>
      <path d="M 18.109375 8.203125 
L 18.109375 -20.796875 
L 9.078125 -20.796875 
L 9.078125 54.6875 
L 18.109375 54.6875 
L 18.109375 46.390625 
Q 20.953125 51.265625 25.265625 53.625 
Q 29.59375 56 35.59375 56 
Q 45.5625 56 51.78125 48.09375 
Q 58.015625 40.1875 58.015625 27.296875 
Q 58.015625 14.40625 51.78125 6.484375 
Q 45.5625 -1.421875 35.59375 -1.421875 
Q 29.59375 -1.421875 25.265625 0.953125 
Q 20.953125 3.328125 18.109375 8.203125 
z
M 48.6875 27.296875 
Q 48.6875 37.203125 44.609375 42.84375 
Q 40.53125 48.484375 33.40625 48.484375 
Q 26.265625 48.484375 22.1875 42.84375 
Q 18.109375 37.203125 18.109375 27.296875 
Q 18.109375 17.390625 22.1875 11.75 
Q 26.265625 6.109375 33.40625 6.109375 
Q 40.53125 6.109375 44.609375 11.75 
Q 48.6875 17.390625 48.6875 27.296875 
z
" id="DejaVuSans-112"/>
      <path d="M 9.421875 75.984375 
L 18.40625 75.984375 
L 18.40625 0 
L 9.421875 0 
z
" id="DejaVuSans-108"/>
      <path d="M 56.203125 29.59375 
L 56.203125 25.203125 
L 14.890625 25.203125 
Q 15.484375 15.921875 20.484375 11.0625 
Q 25.484375 6.203125 34.421875 6.203125 
Q 39.59375 6.203125 44.453125 7.46875 
Q 49.3125 8.734375 54.109375 11.28125 
L 54.109375 2.78125 
Q 49.265625 0.734375 44.1875 -0.34375 
Q 39.109375 -1.421875 33.890625 -1.421875 
Q 20.796875 -1.421875 13.15625 6.1875 
Q 5.515625 13.8125 5.515625 26.8125 
Q 5.515625 40.234375 12.765625 48.109375 
Q 20.015625 56 32.328125 56 
Q 43.359375 56 49.78125 48.890625 
Q 56.203125 41.796875 56.203125 29.59375 
z
M 47.21875 32.234375 
Q 47.125 39.59375 43.09375 43.984375 
Q 39.0625 48.390625 32.421875 48.390625 
Q 24.90625 48.390625 20.390625 44.140625 
Q 15.875 39.890625 15.1875 32.171875 
z
" id="DejaVuSans-101"/>
      <path id="DejaVuSans-32"/>
      <path d="M 30.609375 48.390625 
Q 23.390625 48.390625 19.1875 42.75 
Q 14.984375 37.109375 14.984375 27.296875 
Q 14.984375 17.484375 19.15625 11.84375 
Q 23.34375 6.203125 30.609375 6.203125 
Q 37.796875 6.203125 41.984375 11.859375 
Q 46.1875 17.53125 46.1875 27.296875 
Q 46.1875 37.015625 41.984375 42.703125 
Q 37.796875 48.390625 30.609375 48.390625 
z
M 30.609375 56 
Q 42.328125 56 49.015625 48.375 
Q 55.71875 40.765625 55.71875 27.296875 
Q 55.71875 13.875 49.015625 6.21875 
Q 42.328125 -1.421875 30.609375 -1.421875 
Q 18.84375 -1.421875 12.171875 6.21875 
Q 5.515625 13.875 5.515625 27.296875 
Q 5.515625 40.765625 12.171875 48.375 
Q 18.84375 56 30.609375 56 
z
" id="DejaVuSans-111"/>
      <path d="M 37.109375 75.984375 
L 37.109375 68.5 
L 28.515625 68.5 
Q 23.6875 68.5 21.796875 66.546875 
Q 19.921875 64.59375 19.921875 59.515625 
L 19.921875 54.6875 
L 34.71875 54.6875 
L 34.71875 47.703125 
L 19.921875 47.703125 
L 19.921875 0 
L 10.890625 0 
L 10.890625 47.703125 
L 2.296875 47.703125 
L 2.296875 54.6875 
L 10.890625 54.6875 
L 10.890625 58.5 
Q 10.890625 67.625 15.140625 71.796875 
Q 19.390625 75.984375 28.609375 75.984375 
z
" id="DejaVuSans-102"/>
      <path d="M 40.578125 39.3125 
Q 47.65625 37.796875 51.625 33 
Q 55.609375 28.21875 55.609375 21.1875 
Q 55.609375 10.40625 48.1875 4.484375 
Q 40.765625 -1.421875 27.09375 -1.421875 
Q 22.515625 -1.421875 17.65625 -0.515625 
Q 12.796875 0.390625 7.625 2.203125 
L 7.625 11.71875 
Q 11.71875 9.328125 16.59375 8.109375 
Q 21.484375 6.890625 26.8125 6.890625 
Q 36.078125 6.890625 40.9375 10.546875 
Q 45.796875 14.203125 45.796875 21.1875 
Q 45.796875 27.640625 41.28125 31.265625 
Q 36.765625 34.90625 28.71875 34.90625 
L 20.21875 34.90625 
L 20.21875 43.015625 
L 29.109375 43.015625 
Q 36.375 43.015625 40.234375 45.921875 
Q 44.09375 48.828125 44.09375 54.296875 
Q 44.09375 59.90625 40.109375 62.90625 
Q 36.140625 65.921875 28.71875 65.921875 
Q 24.65625 65.921875 20.015625 65.03125 
Q 15.375 64.15625 9.8125 62.3125 
L 9.8125 71.09375 
Q 15.4375 72.65625 20.34375 73.4375 
Q 25.25 74.21875 29.59375 74.21875 
Q 40.828125 74.21875 47.359375 69.109375 
Q 53.90625 64.015625 53.90625 55.328125 
Q 53.90625 49.265625 50.4375 45.09375 
Q 46.96875 40.921875 40.578125 39.3125 
z
" id="DejaVuSans-51"/>
     </defs>
     <use xlink:href="#DejaVuSans-69"/>
     <use x="63.183594" xlink:href="#DejaVuSans-120"/>
     <use x="122.363281" xlink:href="#DejaVuSans-97"/>
     <use x="183.642578" xlink:href="#DejaVuSans-109"/>
     <use x="281.054688" xlink:href="#DejaVuSans-112"/>
     <use x="344.53125" xlink:href="#DejaVuSans-108"/>
     <use x="372.314453" xlink:href="#DejaVuSans-101"/>
     <use x="433.837891" xlink:href="#DejaVuSans-32"/>
     <use x="465.625" xlink:href="#DejaVuSans-111"/>
     <use x="526.806641" xlink:href="#DejaVuSans-102"/>
     <use x="562.011719" xlink:href="#DejaVuSans-32"/>
     <use x="593.798828" xlink:href="#DejaVuSans-51"/>
     <use x="657.421875" xlink:href="#DejaVuSans-46"/>
     <use x="689.208984" xlink:href="#DejaVuSans-50"/>
     <use x="752.832031" xlink:href="#DejaVuSans-46"/>
     <use x="784.619141" xlink:href="#DejaVuSans-50"/>
     <use x="848.242188" xlink:href="#DejaVuSans-46"/>
     <use x="880.029297" xlink:href="#DejaVuSans-49"/>
    </g>
   </g>
   <g id="legend_2">
    <g id="patch_12">
     <path d="M 482.785937 106.47625 
L 641 106.47625 
Q 643 106.47625 643 104.47625 
L 643 76.12 
Q 643 74.12 641 74.12 
L 482.785937 74.12 
Q 480.785937 74.12 480.785937 76.12 
L 480.785937 104.47625 
Q 480.785937 106.47625 482.785937 106.47625 
z
" style="fill:#ffffff;opacity:0.8;stroke:#cccccc;stroke-linejoin:miter;"/>
    </g>
    <g id="line2d_29">
     <path d="M 484.785937 82.218438 
L 504.785937 82.218438 
" style="fill:none;stroke:#ff0000;stroke-linecap:square;stroke-width:1.5;"/>
    </g>
    <g id="line2d_30"/>
    <g id="text_21">
     <!-- Numerical Differentiation -->
     <g transform="translate(512.785938 85.718438)scale(0.1 -0.1)">
      <defs>
       <path d="M 9.8125 72.90625 
L 23.09375 72.90625 
L 55.421875 11.921875 
L 55.421875 72.90625 
L 64.984375 72.90625 
L 64.984375 0 
L 51.703125 0 
L 19.390625 60.984375 
L 19.390625 0 
L 9.8125 0 
z
" id="DejaVuSans-78"/>
       <path d="M 8.5 21.578125 
L 8.5 54.6875 
L 17.484375 54.6875 
L 17.484375 21.921875 
Q 17.484375 14.15625 20.5 10.265625 
Q 23.53125 6.390625 29.59375 6.390625 
Q 36.859375 6.390625 41.078125 11.03125 
Q 45.3125 15.671875 45.3125 23.6875 
L 45.3125 54.6875 
L 54.296875 54.6875 
L 54.296875 0 
L 45.3125 0 
L 45.3125 8.40625 
Q 42.046875 3.421875 37.71875 1 
Q 33.40625 -1.421875 27.6875 -1.421875 
Q 18.265625 -1.421875 13.375 4.4375 
Q 8.5 10.296875 8.5 21.578125 
z
M 31.109375 56 
z
" id="DejaVuSans-117"/>
       <path d="M 41.109375 46.296875 
Q 39.59375 47.171875 37.8125 47.578125 
Q 36.03125 48 33.890625 48 
Q 26.265625 48 22.1875 43.046875 
Q 18.109375 38.09375 18.109375 28.8125 
L 18.109375 0 
L 9.078125 0 
L 9.078125 54.6875 
L 18.109375 54.6875 
L 18.109375 46.1875 
Q 20.953125 51.171875 25.484375 53.578125 
Q 30.03125 56 36.53125 56 
Q 37.453125 56 38.578125 55.875 
Q 39.703125 55.765625 41.0625 55.515625 
z
" id="DejaVuSans-114"/>
       <path d="M 9.421875 54.6875 
L 18.40625 54.6875 
L 18.40625 0 
L 9.421875 0 
z
M 9.421875 75.984375 
L 18.40625 75.984375 
L 18.40625 64.59375 
L 9.421875 64.59375 
z
" id="DejaVuSans-105"/>
       <path d="M 48.78125 52.59375 
L 48.78125 44.1875 
Q 44.96875 46.296875 41.140625 47.34375 
Q 37.3125 48.390625 33.40625 48.390625 
Q 24.65625 48.390625 19.8125 42.84375 
Q 14.984375 37.3125 14.984375 27.296875 
Q 14.984375 17.28125 19.8125 11.734375 
Q 24.65625 6.203125 33.40625 6.203125 
Q 37.3125 6.203125 41.140625 7.25 
Q 44.96875 8.296875 48.78125 10.40625 
L 48.78125 2.09375 
Q 45.015625 0.34375 40.984375 -0.53125 
Q 36.96875 -1.421875 32.421875 -1.421875 
Q 20.0625 -1.421875 12.78125 6.34375 
Q 5.515625 14.109375 5.515625 27.296875 
Q 5.515625 40.671875 12.859375 48.328125 
Q 20.21875 56 33.015625 56 
Q 37.15625 56 41.109375 55.140625 
Q 45.0625 54.296875 48.78125 52.59375 
z
" id="DejaVuSans-99"/>
       <path d="M 54.890625 33.015625 
L 54.890625 0 
L 45.90625 0 
L 45.90625 32.71875 
Q 45.90625 40.484375 42.875 44.328125 
Q 39.84375 48.1875 33.796875 48.1875 
Q 26.515625 48.1875 22.3125 43.546875 
Q 18.109375 38.921875 18.109375 30.90625 
L 18.109375 0 
L 9.078125 0 
L 9.078125 54.6875 
L 18.109375 54.6875 
L 18.109375 46.1875 
Q 21.34375 51.125 25.703125 53.5625 
Q 30.078125 56 35.796875 56 
Q 45.21875 56 50.046875 50.171875 
Q 54.890625 44.34375 54.890625 33.015625 
z
" id="DejaVuSans-110"/>
      </defs>
      <use xlink:href="#DejaVuSans-78"/>
      <use x="74.804688" xlink:href="#DejaVuSans-117"/>
      <use x="138.183594" xlink:href="#DejaVuSans-109"/>
      <use x="235.595703" xlink:href="#DejaVuSans-101"/>
      <use x="297.119141" xlink:href="#DejaVuSans-114"/>
      <use x="338.232422" xlink:href="#DejaVuSans-105"/>
      <use x="366.015625" xlink:href="#DejaVuSans-99"/>
      <use x="420.996094" xlink:href="#DejaVuSans-97"/>
      <use x="482.275391" xlink:href="#DejaVuSans-108"/>
      <use x="510.058594" xlink:href="#DejaVuSans-32"/>
      <use x="541.845703" xlink:href="#DejaVuSans-68"/>
      <use x="618.847656" xlink:href="#DejaVuSans-105"/>
      <use x="646.630859" xlink:href="#DejaVuSans-102"/>
      <use x="681.835938" xlink:href="#DejaVuSans-102"/>
      <use x="717.041016" xlink:href="#DejaVuSans-101"/>
      <use x="778.564453" xlink:href="#DejaVuSans-114"/>
      <use x="817.427734" xlink:href="#DejaVuSans-101"/>
      <use x="878.951172" xlink:href="#DejaVuSans-110"/>
      <use x="942.330078" xlink:href="#DejaVuSans-116"/>
      <use x="981.539062" xlink:href="#DejaVuSans-105"/>
      <use x="1009.322266" xlink:href="#DejaVuSans-97"/>
      <use x="1070.601562" xlink:href="#DejaVuSans-116"/>
      <use x="1109.810547" xlink:href="#DejaVuSans-105"/>
      <use x="1137.59375" xlink:href="#DejaVuSans-111"/>
      <use x="1198.775391" xlink:href="#DejaVuSans-110"/>
     </g>
    </g>
    <g id="line2d_31">
     <path d="M 484.785937 96.896563 
L 504.785937 96.896563 
" style="fill:none;stroke:#000000;stroke-dasharray:5.55,2.4;stroke-dashoffset:0;stroke-width:1.5;"/>
    </g>
    <g id="line2d_32"/>
    <g id="text_22">
     <!-- Arctan2 -->
     <g transform="translate(512.785938 100.396563)scale(0.1 -0.1)">
      <defs>
       <path d="M 34.1875 63.1875 
L 20.796875 26.90625 
L 47.609375 26.90625 
z
M 28.609375 72.90625 
L 39.796875 72.90625 
L 67.578125 0 
L 57.328125 0 
L 50.6875 18.703125 
L 17.828125 18.703125 
L 11.1875 0 
L 0.78125 0 
z
" id="DejaVuSans-65"/>
      </defs>
      <use xlink:href="#DejaVuSans-65"/>
      <use x="68.408203" xlink:href="#DejaVuSans-114"/>
      <use x="107.271484" xlink:href="#DejaVuSans-99"/>
      <use x="162.251953" xlink:href="#DejaVuSans-116"/>
      <use x="201.460938" xlink:href="#DejaVuSans-97"/>
      <use x="262.740234" xlink:href="#DejaVuSans-110"/>
      <use x="326.119141" xlink:href="#DejaVuSans-50"/>
     </g>
    </g>
   </g>
  </g>
 </g>
 <defs>
  <clipPath id="p9cfbc5ce7c">
   <rect height="443.52" width="558" x="90" y="69.12"/>
  </clipPath>
 </defs>
</svg>
