<?xml version="1.0" encoding="utf-8" standalone="no"?>
<!DOCTYPE svg PUBLIC "-//W3C//DTD SVG 1.1//EN"
  "http://www.w3.org/Graphics/SVG/1.1/DTD/svg11.dtd">
<!-- Created with matplotlib (https://matplotlib.org/) -->
<svg height="576pt" version="1.1" viewBox="0 0 720 576" width="720pt" xmlns="http://www.w3.org/2000/svg" xmlns:xlink="http://www.w3.org/1999/xlink">
 <metadata>
  <rdf:RDF xmlns:cc="http://creativecommons.org/ns#" xmlns:dc="http://purl.org/dc/elements/1.1/" xmlns:rdf="http://www.w3.org/1999/02/22-rdf-syntax-ns#">
   <cc:Work>
    <dc:type rdf:resource="http://purl.org/dc/dcmitype/StillImage"/>
    <dc:date>2025-09-04T22:58:05.635077</dc:date>
    <dc:format>image/svg+xml</dc:format>
    <dc:creator>
     <cc:Agent>
      <dc:title>Matplotlib v3.3.2, https://matplotlib.org/</dc:title>
     </cc:Agent>
    </dc:creator>
   </cc:Work>
  </rdf:RDF>
 </metadata>
 <defs>
  <style type="text/css">*{stroke-linecap:butt;stroke-linejoin:round;}</style>
 </defs>
 <g id="figure_1">
  <g id="patch_1">
   <path d="M 0 576 
L 720 576 
L 720 0 
L 0 0 
z
" style="fill:#ffffff;"/>
  </g>
  <g id="axes_1">
   <g id="patch_2">
    <path d="M 90 512.64 
L 648 512.64 
L 648 69.12 
L 90 69.12 
z
" style="fill:#ffffff;"/>
   </g>
   <g id="matplotlib.axis_1">
    <g id="xtick_1">
     <g id="line2d_1">
      <defs>
       <path d="M 0 0 
L 0 3.5 
" id="mb595ed1f9a" style="stroke:#000000;stroke-width:0.8;"/>
      </defs>
      <g>
       <use style="stroke:#000000;stroke-width:0.8;" x="149.046723" xlink:href="#mb595ed1f9a" y="512.64"/>
      </g>
     </g>
     <g id="text_1">
      <!-- −1.5 -->
      <g transform="translate(136.905316 527.238438)scale(0.1 -0.1)">
       <defs>
        <path d="M 10.59375 35.5 
L 73.1875 35.5 
L 73.1875 27.203125 
L 10.59375 27.203125 
z
" id="DejaVuSans-8722"/>
        <path d="M 12.40625 8.296875 
L 28.515625 8.296875 
L 28.515625 63.921875 
L 10.984375 60.40625 
L 10.984375 69.390625 
L 28.421875 72.90625 
L 38.28125 72.90625 
L 38.28125 8.296875 
L 54.390625 8.296875 
L 54.390625 0 
L 12.40625 0 
z
" id="DejaVuSans-49"/>
        <path d="M 10.6875 12.40625 
L 21 12.40625 
L 21 0 
L 10.6875 0 
z
" id="DejaVuSans-46"/>
        <path d="M 10.796875 72.90625 
L 49.515625 72.90625 
L 49.515625 64.59375 
L 19.828125 64.59375 
L 19.828125 46.734375 
Q 21.96875 47.46875 24.109375 47.828125 
Q 26.265625 48.1875 28.421875 48.1875 
Q 40.625 48.1875 47.75 41.5 
Q 54.890625 34.8125 54.890625 23.390625 
Q 54.890625 11.625 47.5625 5.09375 
Q 40.234375 -1.421875 26.90625 -1.421875 
Q 22.3125 -1.421875 17.546875 -0.640625 
Q 12.796875 0.140625 7.71875 1.703125 
L 7.71875 11.625 
Q 12.109375 9.234375 16.796875 8.0625 
Q 21.484375 6.890625 26.703125 6.890625 
Q 35.15625 6.890625 40.078125 11.328125 
Q 45.015625 15.765625 45.015625 23.390625 
Q 45.015625 31 40.078125 35.4375 
Q 35.15625 39.890625 26.703125 39.890625 
Q 22.75 39.890625 18.8125 39.015625 
Q 14.890625 38.140625 10.796875 36.28125 
z
" id="DejaVuSans-53"/>
       </defs>
       <use xlink:href="#DejaVuSans-8722"/>
       <use x="83.789062" xlink:href="#DejaVuSans-49"/>
       <use x="147.412109" xlink:href="#DejaVuSans-46"/>
       <use x="179.199219" xlink:href="#DejaVuSans-53"/>
      </g>
     </g>
    </g>
    <g id="xtick_2">
     <g id="line2d_2">
      <g>
       <use style="stroke:#000000;stroke-width:0.8;" x="222.35833" xlink:href="#mb595ed1f9a" y="512.64"/>
      </g>
     </g>
     <g id="text_2">
      <!-- −1.0 -->
      <g transform="translate(210.216924 527.238438)scale(0.1 -0.1)">
       <defs>
        <path d="M 31.78125 66.40625 
Q 24.171875 66.40625 20.328125 58.90625 
Q 16.5 51.421875 16.5 36.375 
Q 16.5 21.390625 20.328125 13.890625 
Q 24.171875 6.390625 31.78125 6.390625 
Q 39.453125 6.390625 43.28125 13.890625 
Q 47.125 21.390625 47.125 36.375 
Q 47.125 51.421875 43.28125 58.90625 
Q 39.453125 66.40625 31.78125 66.40625 
z
M 31.78125 74.21875 
Q 44.046875 74.21875 50.515625 64.515625 
Q 56.984375 54.828125 56.984375 36.375 
Q 56.984375 17.96875 50.515625 8.265625 
Q 44.046875 -1.421875 31.78125 -1.421875 
Q 19.53125 -1.421875 13.0625 8.265625 
Q 6.59375 17.96875 6.59375 36.375 
Q 6.59375 54.828125 13.0625 64.515625 
Q 19.53125 74.21875 31.78125 74.21875 
z
" id="DejaVuSans-48"/>
       </defs>
       <use xlink:href="#DejaVuSans-8722"/>
       <use x="83.789062" xlink:href="#DejaVuSans-49"/>
       <use x="147.412109" xlink:href="#DejaVuSans-46"/>
       <use x="179.199219" xlink:href="#DejaVuSans-48"/>
      </g>
     </g>
    </g>
    <g id="xtick_3">
     <g id="line2d_3">
      <g>
       <use style="stroke:#000000;stroke-width:0.8;" x="295.669938" xlink:href="#mb595ed1f9a" y="512.64"/>
      </g>
     </g>
     <g id="text_3">
      <!-- −0.5 -->
      <g transform="translate(283.528531 527.238438)scale(0.1 -0.1)">
       <use xlink:href="#DejaVuSans-8722"/>
       <use x="83.789062" xlink:href="#DejaVuSans-48"/>
       <use x="147.412109" xlink:href="#DejaVuSans-46"/>
       <use x="179.199219" xlink:href="#DejaVuSans-53"/>
      </g>
     </g>
    </g>
    <g id="xtick_4">
     <g id="line2d_4">
      <g>
       <use style="stroke:#000000;stroke-width:0.8;" x="368.981545" xlink:href="#mb595ed1f9a" y="512.64"/>
      </g>
     </g>
     <g id="text_4">
      <!-- 0.0 -->
      <g transform="translate(361.029983 527.238438)scale(0.1 -0.1)">
       <use xlink:href="#DejaVuSans-48"/>
       <use x="63.623047" xlink:href="#DejaVuSans-46"/>
       <use x="95.410156" xlink:href="#DejaVuSans-48"/>
      </g>
     </g>
    </g>
    <g id="xtick_5">
     <g id="line2d_5">
      <g>
       <use style="stroke:#000000;stroke-width:0.8;" x="442.293153" xlink:href="#mb595ed1f9a" y="512.64"/>
      </g>
     </g>
     <g id="text_5">
      <!-- 0.5 -->
      <g transform="translate(434.34159 527.238438)scale(0.1 -0.1)">
       <use xlink:href="#DejaVuSans-48"/>
       <use x="63.623047" xlink:href="#DejaVuSans-46"/>
       <use x="95.410156" xlink:href="#DejaVuSans-53"/>
      </g>
     </g>
    </g>
    <g id="xtick_6">
     <g id="line2d_6">
      <g>
       <use style="stroke:#000000;stroke-width:0.8;" x="515.604761" xlink:href="#mb595ed1f9a" y="512.64"/>
      </g>
     </g>
     <g id="text_6">
      <!-- 1.0 -->
      <g transform="translate(507.653198 527.238438)scale(0.1 -0.1)">
       <use xlink:href="#DejaVuSans-49"/>
       <use x="63.623047" xlink:href="#DejaVuSans-46"/>
       <use x="95.410156" xlink:href="#DejaVuSans-48"/>
      </g>
     </g>
    </g>
    <g id="xtick_7">
     <g id="line2d_7">
      <g>
       <use style="stroke:#000000;stroke-width:0.8;" x="588.916368" xlink:href="#mb595ed1f9a" y="512.64"/>
      </g>
     </g>
     <g id="text_7">
      <!-- 1.5 -->
      <g transform="translate(580.964806 527.238438)scale(0.1 -0.1)">
       <use xlink:href="#DejaVuSans-49"/>
       <use x="63.623047" xlink:href="#DejaVuSans-46"/>
       <use x="95.410156" xlink:href="#DejaVuSans-53"/>
      </g>
     </g>
    </g>
   </g>
   <g id="matplotlib.axis_2">
    <g id="ytick_1">
     <g id="line2d_8">
      <defs>
       <path d="M 0 0 
L -3.5 0 
" id="m5e1fab7c56" style="stroke:#000000;stroke-width:0.8;"/>
      </defs>
      <g>
       <use style="stroke:#000000;stroke-width:0.8;" x="90" xlink:href="#m5e1fab7c56" y="492.489228"/>
      </g>
     </g>
     <g id="text_8">
      <!-- −1.5 -->
      <g transform="translate(58.717187 496.288447)scale(0.1 -0.1)">
       <use xlink:href="#DejaVuSans-8722"/>
       <use x="83.789062" xlink:href="#DejaVuSans-49"/>
       <use x="147.412109" xlink:href="#DejaVuSans-46"/>
       <use x="179.199219" xlink:href="#DejaVuSans-53"/>
      </g>
     </g>
    </g>
    <g id="ytick_2">
     <g id="line2d_9">
      <g>
       <use style="stroke:#000000;stroke-width:0.8;" x="90" xlink:href="#m5e1fab7c56" y="419.17762"/>
      </g>
     </g>
     <g id="text_9">
      <!-- −1.0 -->
      <g transform="translate(58.717187 422.976839)scale(0.1 -0.1)">
       <use xlink:href="#DejaVuSans-8722"/>
       <use x="83.789062" xlink:href="#DejaVuSans-49"/>
       <use x="147.412109" xlink:href="#DejaVuSans-46"/>
       <use x="179.199219" xlink:href="#DejaVuSans-48"/>
      </g>
     </g>
    </g>
    <g id="ytick_3">
     <g id="line2d_10">
      <g>
       <use style="stroke:#000000;stroke-width:0.8;" x="90" xlink:href="#m5e1fab7c56" y="345.866013"/>
      </g>
     </g>
     <g id="text_10">
      <!-- −0.5 -->
      <g transform="translate(58.717187 349.665231)scale(0.1 -0.1)">
       <use xlink:href="#DejaVuSans-8722"/>
       <use x="83.789062" xlink:href="#DejaVuSans-48"/>
       <use x="147.412109" xlink:href="#DejaVuSans-46"/>
       <use x="179.199219" xlink:href="#DejaVuSans-53"/>
      </g>
     </g>
    </g>
    <g id="ytick_4">
     <g id="line2d_11">
      <g>
       <use style="stroke:#000000;stroke-width:0.8;" x="90" xlink:href="#m5e1fab7c56" y="272.554405"/>
      </g>
     </g>
     <g id="text_11">
      <!-- 0.0 -->
      <g transform="translate(67.096875 276.353624)scale(0.1 -0.1)">
       <use xlink:href="#DejaVuSans-48"/>
       <use x="63.623047" xlink:href="#DejaVuSans-46"/>
       <use x="95.410156" xlink:href="#DejaVuSans-48"/>
      </g>
     </g>
    </g>
    <g id="ytick_5">
     <g id="line2d_12">
      <g>
       <use style="stroke:#000000;stroke-width:0.8;" x="90" xlink:href="#m5e1fab7c56" y="199.242797"/>
      </g>
     </g>
     <g id="text_12">
      <!-- 0.5 -->
      <g transform="translate(67.096875 203.042016)scale(0.1 -0.1)">
       <use xlink:href="#DejaVuSans-48"/>
       <use x="63.623047" xlink:href="#DejaVuSans-46"/>
       <use x="95.410156" xlink:href="#DejaVuSans-53"/>
      </g>
     </g>
    </g>
    <g id="ytick_6">
     <g id="line2d_13">
      <g>
       <use style="stroke:#000000;stroke-width:0.8;" x="90" xlink:href="#m5e1fab7c56" y="125.93119"/>
      </g>
     </g>
     <g id="text_13">
      <!-- 1.0 -->
      <g transform="translate(67.096875 129.730409)scale(0.1 -0.1)">
       <use xlink:href="#DejaVuSans-49"/>
       <use x="63.623047" xlink:href="#DejaVuSans-46"/>
       <use x="95.410156" xlink:href="#DejaVuSans-48"/>
      </g>
     </g>
    </g>
   </g>
   <g id="line2d_14">
    <path clip-path="url(#p266494a586)" d="M 383.643867 301.879048 
L 427.630831 228.567441 
" style="fill:none;stroke:#0000ff;stroke-linecap:square;stroke-width:1.5;"/>
   </g>
   <g id="line2d_15">
    <path clip-path="url(#p266494a586)" d="M 515.61649 272.36966 
L 508.056597 270.849177 
L 500.914581 269.511973 
L 494.162582 268.333123 
L 487.772742 267.290632 
L 481.720136 266.366905 
L 475.984235 265.547282 
L 470.543048 264.822963 
L 465.376046 264.183686 
L 460.4671 263.619186 
L 455.798617 263.1236 
L 451.355934 262.692528 
L 447.124388 262.317172 
L 443.090783 261.994601 
L 439.244856 261.720416 
L 435.573411 261.491683 
L 432.06765 261.304006 
L 428.717309 261.155916 
L 425.497464 261.043016 
L 422.406646 260.974104 
L 419.44779 260.941846 
L 416.613563 260.946245 
L 413.896635 260.982901 
L 411.29114 261.048881 
L 408.791215 261.144186 
L 406.392459 261.264418 
L 404.089008 261.409574 
L 401.876464 261.576725 
L 399.750427 261.764403 
L 397.706499 261.972608 
L 395.740282 262.198407 
L 393.848843 262.441802 
L 392.029249 262.702791 
L 390.275635 262.979909 
L 388.588002 263.273156 
L 386.96195 263.581064 
L 385.396014 263.905102 
L 383.885795 264.243801 
L 382.429827 264.598629 
L 381.026642 264.971052 
L 379.67331 265.36107 
L 378.366897 265.771615 
L 377.10887 266.202687 
L 375.89483 266.660152 
L 374.726243 267.148407 
L 373.59871 267.674784 
L 372.515165 268.251014 
L 371.475606 268.899088 
L 370.482967 269.665928 
L 369.548977 270.684959 
L 369.12377 271.482589 
L 368.981545 272.554405 
L 369.331975 273.576369 
L 369.903805 274.275762 
L 371.009344 275.095385 
L 372.119282 275.659885 
L 373.248281 276.104153 
L 374.403672 276.473644 
L 375.588387 276.79035 
L 376.80536 277.067468 
L 378.056056 277.312328 
L 379.344874 277.529331 
L 380.673281 277.722873 
L 382.041275 277.895889 
L 383.454723 278.049843 
L 384.913624 278.186203 
L 386.419444 278.3079 
L 387.978049 278.413469 
L 389.589438 278.504375 
L 391.256544 278.580619 
L 392.983766 278.643667 
L 394.772569 278.694985 
L 396.627353 278.731641 
L 398.551049 278.755101 
L 400.546591 278.766831 
L 402.62131 278.765364 
L 404.775205 278.752168 
L 407.015607 278.725776 
L 409.346917 278.687654 
L 411.773531 278.636336 
L 414.301315 278.573288 
L 416.9376 278.49851 
L 419.688252 278.413469 
L 422.559134 278.315231 
L 425.559045 278.208196 
L 428.704113 278.089431 
L 432.011933 277.954538 
L 435.47664 277.799117 
L 439.105564 277.62317 
L 442.911903 277.428161 
L 446.905919 277.211158 
L 451.10081 276.973629 
L 455.50977 276.715572 
L 460.150394 276.434055 
L 465.03588 276.130545 
L 470.186753 275.803576 
L 475.623542 275.454612 
L 481.365307 275.080723 
L 487.436975 274.678975 
L 493.864936 274.250836 
L 500.677051 273.787506 
L 507.908508 273.287521 
L 515.593031 272.73915 
" style="fill:none;stroke:#0000ff;stroke-linecap:square;stroke-width:1.5;"/>
   </g>
   <g id="line2d_16">
    <path clip-path="url(#p266494a586)" d="M 433.450691 295.71792 
L 433.093632 294.747567 
L 432.729739 293.779757 
L 432.359031 292.814537 
L 431.981525 291.851955 
L 431.597241 290.892059 
L 431.206197 289.934897 
L 430.808413 288.980516 
L 430.403909 288.028964 
L 429.992705 287.080289 
L 429.574822 286.134536 
L 429.150279 285.191754 
L 428.719099 284.251989 
L 428.281302 283.315288 
L 427.836911 282.381697 
L 427.385948 281.451264 
L 426.928435 280.524033 
L 426.464394 279.600052 
L 425.993849 278.679367 
L 425.516823 277.762022 
L 425.033341 276.848064 
L 424.543425 275.937538 
L 424.047101 275.03049 
L 423.544392 274.126964 
L 423.035325 273.227006 
L 422.519924 272.33066 
L 421.998215 271.43797 
L 421.470224 270.548982 
L 420.935978 269.663739 
L 420.395502 268.782286 
L 419.848823 267.904665 
L 419.295969 267.030922 
L 418.736968 266.161099 
L 418.171847 265.29524 
L 417.600634 264.433387 
L 417.023358 263.575583 
L 416.440046 262.721872 
L 415.85073 261.872296 
L 415.255437 261.026896 
L 414.654197 260.185715 
L 414.04704 259.348795 
L 413.433996 258.516177 
L 412.815097 257.687903 
L 412.190372 256.864014 
L 411.559852 256.044551 
L 410.92357 255.229555 
L 410.281556 254.419065 
L 409.633843 253.613123 
L 408.980462 252.811769 
L 408.321447 252.015042 
L 407.65683 251.222983 
L 406.986644 250.435629 
L 406.310923 249.653021 
L 405.629699 248.875198 
L 404.943008 248.102198 
L 404.250882 247.33406 
L 403.553357 246.570821 
L 402.850467 245.81252 
L 402.142247 245.059194 
L 401.428732 244.310882 
L 400.709959 243.56762 
L 399.985962 242.829444 
L 399.256777 242.096393 
L 398.522441 241.368502 
L 397.782991 240.645807 
L 397.038462 239.928345 
L 396.288893 239.216151 
L 395.53432 238.50926 
L 394.774781 237.807708 
L 394.010314 237.11153 
L 393.240957 236.420759 
L 392.466747 235.735431 
L 391.687724 235.05558 
L 390.903926 234.381239 
L 390.115393 233.712443 
L 389.322162 233.049223 
L 388.524275 232.391613 
L 387.72177 231.739647 
L 386.914688 231.093355 
L 386.103068 230.452771 
L 385.286951 229.817927 
L 384.466377 229.188853 
L 383.641388 228.565581 
L 382.812024 227.948143 
L 381.978327 227.336568 
L 381.140338 226.730888 
L 380.298098 226.131132 
L 379.451651 225.53733 
L 378.601036 224.949512 
L 377.746298 224.367707 
L 376.887478 223.791944 
L 376.02462 223.222251 
L 375.157766 222.658657 
L 374.286958 222.10119 
L 373.412242 221.549878 
L 372.533659 221.004747 
L 371.651254 220.465826 
L 370.765071 219.933141 
L 369.875153 219.406718 
L 368.981545 218.886584 
" style="fill:none;stroke:#0000ff;stroke-linecap:square;stroke-width:1.5;"/>
   </g>
   <g id="line2d_17">
    <path clip-path="url(#p266494a586)" d="M 588.916368 125.93119 
L 588.768768 123.606335 
L 588.326563 121.290842 
L 587.591532 118.994033 
L 586.566636 116.725159 
L 585.256002 114.493353 
L 583.664906 112.307604 
L 581.799757 110.176712 
L 579.668063 108.109258 
L 577.278409 106.113566 
L 574.640418 104.197673 
L 571.76471 102.369293 
L 568.662866 100.635789 
L 565.347376 99.00414 
L 561.83159 97.480917 
L 558.129665 96.072254 
L 554.256507 94.783821 
L 550.227712 93.620808 
L 546.059503 92.587898 
L 541.768663 91.689249 
L 537.372471 90.928481 
L 532.888627 90.308656 
L 528.335188 89.83227 
L 523.730487 89.501242 
L 519.093067 89.316905 
L 514.441601 89.28 
L 509.794819 89.390677 
L 505.171431 89.648489 
L 500.590054 90.052399 
L 496.069137 90.600781 
L 491.626882 91.291425 
L 487.281178 92.121552 
L 483.049523 93.087818 
L 478.948957 94.186333 
L 474.99599 95.412673 
L 471.206541 96.7619 
L 467.595867 98.228582 
L 464.178509 99.806812 
L 460.968226 101.490236 
L 457.977945 103.272075 
L 455.219706 105.145155 
L 452.704617 107.101932 
L 450.442805 109.134528 
L 448.443377 111.234759 
L 446.714384 113.394167 
L 445.262788 115.604057 
L 444.094435 117.85553 
L 443.214028 120.139522 
L 442.625114 122.446834 
L 442.330062 124.768177 
L 442.330062 127.094203 
L 442.625114 129.415546 
L 443.214028 131.722858 
L 444.094435 134.00685 
L 445.262788 136.258323 
L 446.714384 138.468213 
L 448.443377 140.627621 
L 450.442805 142.727851 
L 452.704617 144.760448 
L 455.219706 146.717225 
L 457.977945 148.590304 
L 460.968226 150.372144 
L 464.178509 152.055568 
L 467.595867 153.633798 
L 471.206541 155.10048 
L 474.99599 156.449707 
L 478.948957 157.676047 
L 483.049523 158.774562 
L 487.281178 159.740828 
L 491.626882 160.570954 
L 496.069137 161.261599 
L 500.590054 161.80998 
L 505.171431 162.21389 
L 509.794819 162.471703 
L 514.441601 162.58238 
L 519.093067 162.545475 
L 523.730487 162.361138 
L 528.335188 162.03011 
L 532.888627 161.553724 
L 537.372471 160.933899 
L 541.768663 160.173131 
L 546.059503 159.274482 
L 550.227712 158.241571 
L 554.256507 157.078559 
L 558.129665 155.790126 
L 561.83159 154.381462 
L 565.347376 152.858239 
L 568.662866 151.226591 
L 571.76471 149.493086 
L 574.640418 147.664707 
L 577.278409 145.748814 
L 579.668063 143.753122 
L 581.799757 141.685668 
L 583.664906 139.554776 
L 585.256002 137.369027 
L 586.566636 135.137221 
L 587.591532 132.868346 
L 588.326563 130.571538 
L 588.768768 128.256045 
L 588.916368 125.93119 
" style="fill:none;stroke:#0000ff;stroke-linecap:square;stroke-width:1.5;"/>
   </g>
   <g id="line2d_18">
    <path clip-path="url(#p266494a586)" d="M 515.61649 418.992875 
L 508.056597 417.472392 
L 500.914581 416.135189 
L 494.162582 414.956338 
L 487.772742 413.913847 
L 481.720136 412.990121 
L 475.984235 412.170497 
L 470.543048 411.446178 
L 465.376046 410.806901 
L 460.4671 410.242402 
L 455.798617 409.746815 
L 451.355934 409.315743 
L 447.124388 408.940387 
L 443.090783 408.617816 
L 439.244856 408.343631 
L 435.573411 408.114899 
L 432.06765 407.927221 
L 428.717309 407.779132 
L 425.497464 407.666232 
L 422.406646 407.597319 
L 419.44779 407.565062 
L 416.613563 407.56946 
L 413.896635 407.606116 
L 411.29114 407.672097 
L 408.791215 407.767402 
L 406.392459 407.887633 
L 404.089008 408.03279 
L 401.876464 408.19994 
L 399.750427 408.387618 
L 397.706499 408.595823 
L 395.740282 408.821623 
L 393.848843 409.065017 
L 392.029249 409.326006 
L 390.275635 409.603124 
L 388.588002 409.896371 
L 386.96195 410.20428 
L 385.396014 410.528317 
L 383.885795 410.867016 
L 382.429827 411.221845 
L 381.026642 411.594268 
L 379.67331 411.984285 
L 378.366897 412.39483 
L 377.10887 412.825903 
L 375.89483 413.283367 
L 374.726243 413.771622 
L 373.59871 414.298 
L 372.515165 414.874229 
L 371.475606 415.522304 
L 370.482967 416.289143 
L 369.548977 417.308174 
L 369.12377 418.105805 
L 368.981545 419.17762 
L 369.331975 420.199584 
L 369.903805 420.898977 
L 371.009344 421.718601 
L 372.119282 422.2831 
L 373.248281 422.727368 
L 374.403672 423.096859 
L 375.588387 423.413565 
L 376.80536 423.690683 
L 378.056056 423.935544 
L 379.344874 424.152546 
L 380.673281 424.346089 
L 382.041275 424.519104 
L 383.454723 424.673058 
L 384.913624 424.809418 
L 386.419444 424.931115 
L 387.978049 425.036684 
L 389.589438 425.12759 
L 391.256544 425.203834 
L 392.983766 425.266882 
L 394.772569 425.318201 
L 396.627353 425.354856 
L 398.551049 425.378316 
L 400.546591 425.390046 
L 402.62131 425.38858 
L 404.775205 425.375384 
L 407.015607 425.348991 
L 409.346917 425.310869 
L 411.773531 425.259551 
L 414.301315 425.196503 
L 416.9376 425.121725 
L 419.688252 425.036684 
L 422.559134 424.938446 
L 425.559045 424.831411 
L 428.704113 424.712647 
L 432.011933 424.577753 
L 435.47664 424.422333 
L 439.105564 424.246385 
L 442.911903 424.051376 
L 446.905919 423.834374 
L 451.10081 423.596844 
L 455.50977 423.338787 
L 460.150394 423.057271 
L 465.03588 422.753761 
L 470.186753 422.426791 
L 475.623542 422.077827 
L 481.365307 421.703938 
L 487.436975 421.302191 
L 493.864936 420.874051 
L 500.677051 420.410722 
L 507.908508 419.910736 
L 515.593031 419.362366 
" style="fill:none;stroke:#0000ff;stroke-linecap:square;stroke-width:1.5;"/>
   </g>
   <g id="line2d_19">
    <path clip-path="url(#p266494a586)" d="M 295.669938 419.17762 
L 295.522338 414.527911 
L 295.080132 409.896924 
L 294.345101 405.303307 
L 293.320206 400.765558 
L 292.009571 396.301947 
L 290.418476 391.930448 
L 288.553326 387.668664 
L 286.421633 383.533756 
L 284.031979 379.542373 
L 281.393987 375.710587 
L 278.51828 372.053827 
L 275.416436 368.586819 
L 272.100946 365.323521 
L 268.58516 362.277075 
L 264.883235 359.459748 
L 261.010077 356.882883 
L 256.981282 354.556857 
L 252.813073 352.491036 
L 248.522233 350.693739 
L 244.12604 349.172202 
L 239.642197 347.932552 
L 235.088757 346.979781 
L 230.484057 346.317725 
L 225.846637 345.94905 
L 221.195171 345.875241 
L 216.548388 346.096594 
L 211.925001 346.612219 
L 207.343624 347.420039 
L 202.822706 348.516802 
L 198.380452 349.898091 
L 194.034748 351.558344 
L 189.803093 353.490876 
L 185.702526 355.687906 
L 181.74956 358.140586 
L 177.96011 360.83904 
L 174.349437 363.772404 
L 170.932078 366.928865 
L 167.721795 370.295713 
L 164.731514 373.859391 
L 161.973276 377.60555 
L 159.458187 381.519105 
L 157.196374 385.584297 
L 155.196946 389.784758 
L 153.467953 394.103574 
L 152.016358 398.523354 
L 150.848004 403.026301 
L 149.967598 407.594284 
L 149.378683 412.208909 
L 149.083632 416.851594 
L 149.083632 421.503646 
L 149.378683 426.146332 
L 149.967598 430.760957 
L 150.848004 435.32894 
L 152.016358 439.831887 
L 153.467953 444.251667 
L 155.196946 448.570482 
L 157.196374 452.770943 
L 159.458187 456.836136 
L 161.973276 460.749691 
L 164.731514 464.495849 
L 167.721795 468.059528 
L 170.932078 471.426376 
L 174.349437 474.582837 
L 177.96011 477.5162 
L 181.74956 480.214655 
L 185.702526 482.667335 
L 189.803093 484.864364 
L 194.034748 486.796896 
L 198.380452 488.45715 
L 202.822706 489.838438 
L 207.343624 490.935201 
L 211.925001 491.743021 
L 216.548388 492.258646 
L 221.195171 492.48 
L 225.846637 492.406191 
L 230.484057 492.037516 
L 235.088757 491.37546 
L 239.642197 490.422689 
L 244.12604 489.183039 
L 248.522233 487.661502 
L 252.813073 485.864204 
L 256.981282 483.798383 
L 261.010077 481.472358 
L 264.883235 478.895493 
L 268.58516 476.078165 
L 272.100946 473.031719 
L 275.416436 469.768422 
L 278.51828 466.301413 
L 281.393987 462.644654 
L 284.031979 458.812868 
L 286.421633 454.821485 
L 288.553326 450.686576 
L 290.418476 446.424792 
L 292.009571 442.053294 
L 293.320206 437.589683 
L 294.345101 433.051933 
L 295.080132 428.458317 
L 295.522338 423.82733 
L 295.669938 419.17762 
" style="fill:none;stroke:#0000ff;stroke-linecap:square;stroke-width:1.5;"/>
   </g>
   <g id="patch_3">
    <path d="M 90 512.64 
L 90 69.12 
" style="fill:none;stroke:#000000;stroke-linecap:square;stroke-linejoin:miter;stroke-width:0.8;"/>
   </g>
   <g id="patch_4">
    <path d="M 648 512.64 
L 648 69.12 
" style="fill:none;stroke:#000000;stroke-linecap:square;stroke-linejoin:miter;stroke-width:0.8;"/>
   </g>
   <g id="patch_5">
    <path d="M 90 512.64 
L 648 512.64 
" style="fill:none;stroke:#000000;stroke-linecap:square;stroke-linejoin:miter;stroke-width:0.8;"/>
   </g>
   <g id="patch_6">
    <path d="M 90 69.12 
L 648 69.12 
" style="fill:none;stroke:#000000;stroke-linecap:square;stroke-linejoin:miter;stroke-width:0.8;"/>
   </g>
   <g id="text_14">
    <!-- Example of 4.12.1 -->
    <g transform="translate(314.2875 63.12)scale(0.12 -0.12)">
     <defs>
      <path d="M 9.8125 72.90625 
L 55.90625 72.90625 
L 55.90625 64.59375 
L 19.671875 64.59375 
L 19.671875 43.015625 
L 54.390625 43.015625 
L 54.390625 34.71875 
L 19.671875 34.71875 
L 19.671875 8.296875 
L 56.78125 8.296875 
L 56.78125 0 
L 9.8125 0 
z
" id="DejaVuSans-69"/>
      <path d="M 54.890625 54.6875 
L 35.109375 28.078125 
L 55.90625 0 
L 45.3125 0 
L 29.390625 21.484375 
L 13.484375 0 
L 2.875 0 
L 24.125 28.609375 
L 4.6875 54.6875 
L 15.28125 54.6875 
L 29.78125 35.203125 
L 44.28125 54.6875 
z
" id="DejaVuSans-120"/>
      <path d="M 34.28125 27.484375 
Q 23.390625 27.484375 19.1875 25 
Q 14.984375 22.515625 14.984375 16.5 
Q 14.984375 11.71875 18.140625 8.90625 
Q 21.296875 6.109375 26.703125 6.109375 
Q 34.1875 6.109375 38.703125 11.40625 
Q 43.21875 16.703125 43.21875 25.484375 
L 43.21875 27.484375 
z
M 52.203125 31.203125 
L 52.203125 0 
L 43.21875 0 
L 43.21875 8.296875 
Q 40.140625 3.328125 35.546875 0.953125 
Q 30.953125 -1.421875 24.3125 -1.421875 
Q 15.921875 -1.421875 10.953125 3.296875 
Q 6 8.015625 6 15.921875 
Q 6 25.140625 12.171875 29.828125 
Q 18.359375 34.515625 30.609375 34.515625 
L 43.21875 34.515625 
L 43.21875 35.40625 
Q 43.21875 41.609375 39.140625 45 
Q 35.0625 48.390625 27.6875 48.390625 
Q 23 48.390625 18.546875 47.265625 
Q 14.109375 46.140625 10.015625 43.890625 
L 10.015625 52.203125 
Q 14.9375 54.109375 19.578125 55.046875 
Q 24.21875 56 28.609375 56 
Q 40.484375 56 46.34375 49.84375 
Q 52.203125 43.703125 52.203125 31.203125 
z
" id="DejaVuSans-97"/>
      <path d="M 52 44.1875 
Q 55.375 50.25 60.0625 53.125 
Q 64.75 56 71.09375 56 
Q 79.640625 56 84.28125 50.015625 
Q 88.921875 44.046875 88.921875 33.015625 
L 88.921875 0 
L 79.890625 0 
L 79.890625 32.71875 
Q 79.890625 40.578125 77.09375 44.375 
Q 74.3125 48.1875 68.609375 48.1875 
Q 61.625 48.1875 57.5625 43.546875 
Q 53.515625 38.921875 53.515625 30.90625 
L 53.515625 0 
L 44.484375 0 
L 44.484375 32.71875 
Q 44.484375 40.625 41.703125 44.40625 
Q 38.921875 48.1875 33.109375 48.1875 
Q 26.21875 48.1875 22.15625 43.53125 
Q 18.109375 38.875 18.109375 30.90625 
L 18.109375 0 
L 9.078125 0 
L 9.078125 54.6875 
L 18.109375 54.6875 
L 18.109375 46.1875 
Q 21.1875 51.21875 25.484375 53.609375 
Q 29.78125 56 35.6875 56 
Q 41.65625 56 45.828125 52.96875 
Q 50 49.953125 52 44.1875 
z
" id="DejaVuSans-109"/>
      <path d="M 18.109375 8.203125 
L 18.109375 -20.796875 
L 9.078125 -20.796875 
L 9.078125 54.6875 
L 18.109375 54.6875 
L 18.109375 46.390625 
Q 20.953125 51.265625 25.265625 53.625 
Q 29.59375 56 35.59375 56 
Q 45.5625 56 51.78125 48.09375 
Q 58.015625 40.1875 58.015625 27.296875 
Q 58.015625 14.40625 51.78125 6.484375 
Q 45.5625 -1.421875 35.59375 -1.421875 
Q 29.59375 -1.421875 25.265625 0.953125 
Q 20.953125 3.328125 18.109375 8.203125 
z
M 48.6875 27.296875 
Q 48.6875 37.203125 44.609375 42.84375 
Q 40.53125 48.484375 33.40625 48.484375 
Q 26.265625 48.484375 22.1875 42.84375 
Q 18.109375 37.203125 18.109375 27.296875 
Q 18.109375 17.390625 22.1875 11.75 
Q 26.265625 6.109375 33.40625 6.109375 
Q 40.53125 6.109375 44.609375 11.75 
Q 48.6875 17.390625 48.6875 27.296875 
z
" id="DejaVuSans-112"/>
      <path d="M 9.421875 75.984375 
L 18.40625 75.984375 
L 18.40625 0 
L 9.421875 0 
z
" id="DejaVuSans-108"/>
      <path d="M 56.203125 29.59375 
L 56.203125 25.203125 
L 14.890625 25.203125 
Q 15.484375 15.921875 20.484375 11.0625 
Q 25.484375 6.203125 34.421875 6.203125 
Q 39.59375 6.203125 44.453125 7.46875 
Q 49.3125 8.734375 54.109375 11.28125 
L 54.109375 2.78125 
Q 49.265625 0.734375 44.1875 -0.34375 
Q 39.109375 -1.421875 33.890625 -1.421875 
Q 20.796875 -1.421875 13.15625 6.1875 
Q 5.515625 13.8125 5.515625 26.8125 
Q 5.515625 40.234375 12.765625 48.109375 
Q 20.015625 56 32.328125 56 
Q 43.359375 56 49.78125 48.890625 
Q 56.203125 41.796875 56.203125 29.59375 
z
M 47.21875 32.234375 
Q 47.125 39.59375 43.09375 43.984375 
Q 39.0625 48.390625 32.421875 48.390625 
Q 24.90625 48.390625 20.390625 44.140625 
Q 15.875 39.890625 15.1875 32.171875 
z
" id="DejaVuSans-101"/>
      <path id="DejaVuSans-32"/>
      <path d="M 30.609375 48.390625 
Q 23.390625 48.390625 19.1875 42.75 
Q 14.984375 37.109375 14.984375 27.296875 
Q 14.984375 17.484375 19.15625 11.84375 
Q 23.34375 6.203125 30.609375 6.203125 
Q 37.796875 6.203125 41.984375 11.859375 
Q 46.1875 17.53125 46.1875 27.296875 
Q 46.1875 37.015625 41.984375 42.703125 
Q 37.796875 48.390625 30.609375 48.390625 
z
M 30.609375 56 
Q 42.328125 56 49.015625 48.375 
Q 55.71875 40.765625 55.71875 27.296875 
Q 55.71875 13.875 49.015625 6.21875 
Q 42.328125 -1.421875 30.609375 -1.421875 
Q 18.84375 -1.421875 12.171875 6.21875 
Q 5.515625 13.875 5.515625 27.296875 
Q 5.515625 40.765625 12.171875 48.375 
Q 18.84375 56 30.609375 56 
z
" id="DejaVuSans-111"/>
      <path d="M 37.109375 75.984375 
L 37.109375 68.5 
L 28.515625 68.5 
Q 23.6875 68.5 21.796875 66.546875 
Q 19.921875 64.59375 19.921875 59.515625 
L 19.921875 54.6875 
L 34.71875 54.6875 
L 34.71875 47.703125 
L 19.921875 47.703125 
L 19.921875 0 
L 10.890625 0 
L 10.890625 47.703125 
L 2.296875 47.703125 
L 2.296875 54.6875 
L 10.890625 54.6875 
L 10.890625 58.5 
Q 10.890625 67.625 15.140625 71.796875 
Q 19.390625 75.984375 28.609375 75.984375 
z
" id="DejaVuSans-102"/>
      <path d="M 37.796875 64.3125 
L 12.890625 25.390625 
L 37.796875 25.390625 
z
M 35.203125 72.90625 
L 47.609375 72.90625 
L 47.609375 25.390625 
L 58.015625 25.390625 
L 58.015625 17.1875 
L 47.609375 17.1875 
L 47.609375 0 
L 37.796875 0 
L 37.796875 17.1875 
L 4.890625 17.1875 
L 4.890625 26.703125 
z
" id="DejaVuSans-52"/>
      <path d="M 19.1875 8.296875 
L 53.609375 8.296875 
L 53.609375 0 
L 7.328125 0 
L 7.328125 8.296875 
Q 12.9375 14.109375 22.625 23.890625 
Q 32.328125 33.6875 34.8125 36.53125 
Q 39.546875 41.84375 41.421875 45.53125 
Q 43.3125 49.21875 43.3125 52.78125 
Q 43.3125 58.59375 39.234375 62.25 
Q 35.15625 65.921875 28.609375 65.921875 
Q 23.96875 65.921875 18.8125 64.3125 
Q 13.671875 62.703125 7.8125 59.421875 
L 7.8125 69.390625 
Q 13.765625 71.78125 18.9375 73 
Q 24.125 74.21875 28.421875 74.21875 
Q 39.75 74.21875 46.484375 68.546875 
Q 53.21875 62.890625 53.21875 53.421875 
Q 53.21875 48.921875 51.53125 44.890625 
Q 49.859375 40.875 45.40625 35.40625 
Q 44.1875 33.984375 37.640625 27.21875 
Q 31.109375 20.453125 19.1875 8.296875 
z
" id="DejaVuSans-50"/>
     </defs>
     <use xlink:href="#DejaVuSans-69"/>
     <use x="63.183594" xlink:href="#DejaVuSans-120"/>
     <use x="122.363281" xlink:href="#DejaVuSans-97"/>
     <use x="183.642578" xlink:href="#DejaVuSans-109"/>
     <use x="281.054688" xlink:href="#DejaVuSans-112"/>
     <use x="344.53125" xlink:href="#DejaVuSans-108"/>
     <use x="372.314453" xlink:href="#DejaVuSans-101"/>
     <use x="433.837891" xlink:href="#DejaVuSans-32"/>
     <use x="465.625" xlink:href="#DejaVuSans-111"/>
     <use x="526.806641" xlink:href="#DejaVuSans-102"/>
     <use x="562.011719" xlink:href="#DejaVuSans-32"/>
     <use x="593.798828" xlink:href="#DejaVuSans-52"/>
     <use x="657.421875" xlink:href="#DejaVuSans-46"/>
     <use x="689.208984" xlink:href="#DejaVuSans-49"/>
     <use x="752.832031" xlink:href="#DejaVuSans-50"/>
     <use x="816.455078" xlink:href="#DejaVuSans-46"/>
     <use x="848.242188" xlink:href="#DejaVuSans-49"/>
    </g>
   </g>
  </g>
 </g>
 <defs>
  <clipPath id="p266494a586">
   <rect height="443.52" width="558" x="90" y="69.12"/>
  </clipPath>
 </defs>
</svg>
