<?xml version="1.0" encoding="utf-8" standalone="no"?>
<!DOCTYPE svg PUBLIC "-//W3C//DTD SVG 1.1//EN"
  "http://www.w3.org/Graphics/SVG/1.1/DTD/svg11.dtd">
<!-- Created with matplotlib (https://matplotlib.org/) -->
<svg height="576pt" version="1.1" viewBox="0 0 720 576" width="720pt" xmlns="http://www.w3.org/2000/svg" xmlns:xlink="http://www.w3.org/1999/xlink">
 <metadata>
  <rdf:RDF xmlns:cc="http://creativecommons.org/ns#" xmlns:dc="http://purl.org/dc/elements/1.1/" xmlns:rdf="http://www.w3.org/1999/02/22-rdf-syntax-ns#">
   <cc:Work>
    <dc:type rdf:resource="http://purl.org/dc/dcmitype/StillImage"/>
    <dc:date>2025-09-15T15:02:37.446280</dc:date>
    <dc:format>image/svg+xml</dc:format>
    <dc:creator>
     <cc:Agent>
      <dc:title>Matplotlib v3.3.2, https://matplotlib.org/</dc:title>
     </cc:Agent>
    </dc:creator>
   </cc:Work>
  </rdf:RDF>
 </metadata>
 <defs>
  <style type="text/css">*{stroke-linecap:butt;stroke-linejoin:round;}</style>
 </defs>
 <g id="figure_1">
  <g id="patch_1">
   <path d="M 0 576 
L 720 576 
L 720 0 
L 0 0 
z
" style="fill:#ffffff;"/>
  </g>
  <g id="axes_1">
   <g id="patch_2">
    <path d="M 90 512.64 
L 648 512.64 
L 648 69.12 
L 90 69.12 
z
" style="fill:#ffffff;"/>
   </g>
   <g id="matplotlib.axis_1">
    <g id="xtick_1">
     <g id="line2d_1">
      <defs>
       <path d="M 0 0 
L 0 3.5 
" id="mb38d7bbbca" style="stroke:#000000;stroke-width:0.8;"/>
      </defs>
      <g>
       <use style="stroke:#000000;stroke-width:0.8;" x="112.418449" xlink:href="#mb38d7bbbca" y="512.64"/>
      </g>
     </g>
     <g id="text_1">
      <!-- 0 -->
      <g transform="translate(109.237199 527.238438)scale(0.1 -0.1)">
       <defs>
        <path d="M 31.78125 66.40625 
Q 24.171875 66.40625 20.328125 58.90625 
Q 16.5 51.421875 16.5 36.375 
Q 16.5 21.390625 20.328125 13.890625 
Q 24.171875 6.390625 31.78125 6.390625 
Q 39.453125 6.390625 43.28125 13.890625 
Q 47.125 21.390625 47.125 36.375 
Q 47.125 51.421875 43.28125 58.90625 
Q 39.453125 66.40625 31.78125 66.40625 
z
M 31.78125 74.21875 
Q 44.046875 74.21875 50.515625 64.515625 
Q 56.984375 54.828125 56.984375 36.375 
Q 56.984375 17.96875 50.515625 8.265625 
Q 44.046875 -1.421875 31.78125 -1.421875 
Q 19.53125 -1.421875 13.0625 8.265625 
Q 6.59375 17.96875 6.59375 36.375 
Q 6.59375 54.828125 13.0625 64.515625 
Q 19.53125 74.21875 31.78125 74.21875 
z
" id="DejaVuSans-48"/>
       </defs>
       <use xlink:href="#DejaVuSans-48"/>
      </g>
     </g>
    </g>
    <g id="xtick_2">
     <g id="line2d_2">
      <g>
       <use style="stroke:#000000;stroke-width:0.8;" x="197.23779" xlink:href="#mb38d7bbbca" y="512.64"/>
      </g>
     </g>
     <g id="text_2">
      <!-- 100 -->
      <g transform="translate(187.69404 527.238438)scale(0.1 -0.1)">
       <defs>
        <path d="M 12.40625 8.296875 
L 28.515625 8.296875 
L 28.515625 63.921875 
L 10.984375 60.40625 
L 10.984375 69.390625 
L 28.421875 72.90625 
L 38.28125 72.90625 
L 38.28125 8.296875 
L 54.390625 8.296875 
L 54.390625 0 
L 12.40625 0 
z
" id="DejaVuSans-49"/>
       </defs>
       <use xlink:href="#DejaVuSans-49"/>
       <use x="63.623047" xlink:href="#DejaVuSans-48"/>
       <use x="127.246094" xlink:href="#DejaVuSans-48"/>
      </g>
     </g>
    </g>
    <g id="xtick_3">
     <g id="line2d_3">
      <g>
       <use style="stroke:#000000;stroke-width:0.8;" x="282.057131" xlink:href="#mb38d7bbbca" y="512.64"/>
      </g>
     </g>
     <g id="text_3">
      <!-- 200 -->
      <g transform="translate(272.513381 527.238438)scale(0.1 -0.1)">
       <defs>
        <path d="M 19.1875 8.296875 
L 53.609375 8.296875 
L 53.609375 0 
L 7.328125 0 
L 7.328125 8.296875 
Q 12.9375 14.109375 22.625 23.890625 
Q 32.328125 33.6875 34.8125 36.53125 
Q 39.546875 41.84375 41.421875 45.53125 
Q 43.3125 49.21875 43.3125 52.78125 
Q 43.3125 58.59375 39.234375 62.25 
Q 35.15625 65.921875 28.609375 65.921875 
Q 23.96875 65.921875 18.8125 64.3125 
Q 13.671875 62.703125 7.8125 59.421875 
L 7.8125 69.390625 
Q 13.765625 71.78125 18.9375 73 
Q 24.125 74.21875 28.421875 74.21875 
Q 39.75 74.21875 46.484375 68.546875 
Q 53.21875 62.890625 53.21875 53.421875 
Q 53.21875 48.921875 51.53125 44.890625 
Q 49.859375 40.875 45.40625 35.40625 
Q 44.1875 33.984375 37.640625 27.21875 
Q 31.109375 20.453125 19.1875 8.296875 
z
" id="DejaVuSans-50"/>
       </defs>
       <use xlink:href="#DejaVuSans-50"/>
       <use x="63.623047" xlink:href="#DejaVuSans-48"/>
       <use x="127.246094" xlink:href="#DejaVuSans-48"/>
      </g>
     </g>
    </g>
    <g id="xtick_4">
     <g id="line2d_4">
      <g>
       <use style="stroke:#000000;stroke-width:0.8;" x="366.876473" xlink:href="#mb38d7bbbca" y="512.64"/>
      </g>
     </g>
     <g id="text_4">
      <!-- 300 -->
      <g transform="translate(357.332723 527.238438)scale(0.1 -0.1)">
       <defs>
        <path d="M 40.578125 39.3125 
Q 47.65625 37.796875 51.625 33 
Q 55.609375 28.21875 55.609375 21.1875 
Q 55.609375 10.40625 48.1875 4.484375 
Q 40.765625 -1.421875 27.09375 -1.421875 
Q 22.515625 -1.421875 17.65625 -0.515625 
Q 12.796875 0.390625 7.625 2.203125 
L 7.625 11.71875 
Q 11.71875 9.328125 16.59375 8.109375 
Q 21.484375 6.890625 26.8125 6.890625 
Q 36.078125 6.890625 40.9375 10.546875 
Q 45.796875 14.203125 45.796875 21.1875 
Q 45.796875 27.640625 41.28125 31.265625 
Q 36.765625 34.90625 28.71875 34.90625 
L 20.21875 34.90625 
L 20.21875 43.015625 
L 29.109375 43.015625 
Q 36.375 43.015625 40.234375 45.921875 
Q 44.09375 48.828125 44.09375 54.296875 
Q 44.09375 59.90625 40.109375 62.90625 
Q 36.140625 65.921875 28.71875 65.921875 
Q 24.65625 65.921875 20.015625 65.03125 
Q 15.375 64.15625 9.8125 62.3125 
L 9.8125 71.09375 
Q 15.4375 72.65625 20.34375 73.4375 
Q 25.25 74.21875 29.59375 74.21875 
Q 40.828125 74.21875 47.359375 69.109375 
Q 53.90625 64.015625 53.90625 55.328125 
Q 53.90625 49.265625 50.4375 45.09375 
Q 46.96875 40.921875 40.578125 39.3125 
z
" id="DejaVuSans-51"/>
       </defs>
       <use xlink:href="#DejaVuSans-51"/>
       <use x="63.623047" xlink:href="#DejaVuSans-48"/>
       <use x="127.246094" xlink:href="#DejaVuSans-48"/>
      </g>
     </g>
    </g>
    <g id="xtick_5">
     <g id="line2d_5">
      <g>
       <use style="stroke:#000000;stroke-width:0.8;" x="451.695814" xlink:href="#mb38d7bbbca" y="512.64"/>
      </g>
     </g>
     <g id="text_5">
      <!-- 400 -->
      <g transform="translate(442.152064 527.238438)scale(0.1 -0.1)">
       <defs>
        <path d="M 37.796875 64.3125 
L 12.890625 25.390625 
L 37.796875 25.390625 
z
M 35.203125 72.90625 
L 47.609375 72.90625 
L 47.609375 25.390625 
L 58.015625 25.390625 
L 58.015625 17.1875 
L 47.609375 17.1875 
L 47.609375 0 
L 37.796875 0 
L 37.796875 17.1875 
L 4.890625 17.1875 
L 4.890625 26.703125 
z
" id="DejaVuSans-52"/>
       </defs>
       <use xlink:href="#DejaVuSans-52"/>
       <use x="63.623047" xlink:href="#DejaVuSans-48"/>
       <use x="127.246094" xlink:href="#DejaVuSans-48"/>
      </g>
     </g>
    </g>
    <g id="xtick_6">
     <g id="line2d_6">
      <g>
       <use style="stroke:#000000;stroke-width:0.8;" x="536.515155" xlink:href="#mb38d7bbbca" y="512.64"/>
      </g>
     </g>
     <g id="text_6">
      <!-- 500 -->
      <g transform="translate(526.971405 527.238438)scale(0.1 -0.1)">
       <defs>
        <path d="M 10.796875 72.90625 
L 49.515625 72.90625 
L 49.515625 64.59375 
L 19.828125 64.59375 
L 19.828125 46.734375 
Q 21.96875 47.46875 24.109375 47.828125 
Q 26.265625 48.1875 28.421875 48.1875 
Q 40.625 48.1875 47.75 41.5 
Q 54.890625 34.8125 54.890625 23.390625 
Q 54.890625 11.625 47.5625 5.09375 
Q 40.234375 -1.421875 26.90625 -1.421875 
Q 22.3125 -1.421875 17.546875 -0.640625 
Q 12.796875 0.140625 7.71875 1.703125 
L 7.71875 11.625 
Q 12.109375 9.234375 16.796875 8.0625 
Q 21.484375 6.890625 26.703125 6.890625 
Q 35.15625 6.890625 40.078125 11.328125 
Q 45.015625 15.765625 45.015625 23.390625 
Q 45.015625 31 40.078125 35.4375 
Q 35.15625 39.890625 26.703125 39.890625 
Q 22.75 39.890625 18.8125 39.015625 
Q 14.890625 38.140625 10.796875 36.28125 
z
" id="DejaVuSans-53"/>
       </defs>
       <use xlink:href="#DejaVuSans-53"/>
       <use x="63.623047" xlink:href="#DejaVuSans-48"/>
       <use x="127.246094" xlink:href="#DejaVuSans-48"/>
      </g>
     </g>
    </g>
    <g id="xtick_7">
     <g id="line2d_7">
      <g>
       <use style="stroke:#000000;stroke-width:0.8;" x="621.334497" xlink:href="#mb38d7bbbca" y="512.64"/>
      </g>
     </g>
     <g id="text_7">
      <!-- 600 -->
      <g transform="translate(611.790747 527.238438)scale(0.1 -0.1)">
       <defs>
        <path d="M 33.015625 40.375 
Q 26.375 40.375 22.484375 35.828125 
Q 18.609375 31.296875 18.609375 23.390625 
Q 18.609375 15.53125 22.484375 10.953125 
Q 26.375 6.390625 33.015625 6.390625 
Q 39.65625 6.390625 43.53125 10.953125 
Q 47.40625 15.53125 47.40625 23.390625 
Q 47.40625 31.296875 43.53125 35.828125 
Q 39.65625 40.375 33.015625 40.375 
z
M 52.59375 71.296875 
L 52.59375 62.3125 
Q 48.875 64.0625 45.09375 64.984375 
Q 41.3125 65.921875 37.59375 65.921875 
Q 27.828125 65.921875 22.671875 59.328125 
Q 17.53125 52.734375 16.796875 39.40625 
Q 19.671875 43.65625 24.015625 45.921875 
Q 28.375 48.1875 33.59375 48.1875 
Q 44.578125 48.1875 50.953125 41.515625 
Q 57.328125 34.859375 57.328125 23.390625 
Q 57.328125 12.15625 50.6875 5.359375 
Q 44.046875 -1.421875 33.015625 -1.421875 
Q 20.359375 -1.421875 13.671875 8.265625 
Q 6.984375 17.96875 6.984375 36.375 
Q 6.984375 53.65625 15.1875 63.9375 
Q 23.390625 74.21875 37.203125 74.21875 
Q 40.921875 74.21875 44.703125 73.484375 
Q 48.484375 72.75 52.59375 71.296875 
z
" id="DejaVuSans-54"/>
       </defs>
       <use xlink:href="#DejaVuSans-54"/>
       <use x="63.623047" xlink:href="#DejaVuSans-48"/>
       <use x="127.246094" xlink:href="#DejaVuSans-48"/>
      </g>
     </g>
    </g>
   </g>
   <g id="matplotlib.axis_2">
    <g id="ytick_1">
     <g id="line2d_8">
      <defs>
       <path d="M 0 0 
L -3.5 0 
" id="maa05095220" style="stroke:#000000;stroke-width:0.8;"/>
      </defs>
      <g>
       <use style="stroke:#000000;stroke-width:0.8;" x="90" xlink:href="#maa05095220" y="493.855073"/>
      </g>
     </g>
     <g id="text_8">
      <!-- −200 -->
      <g transform="translate(55.532812 497.654292)scale(0.1 -0.1)">
       <defs>
        <path d="M 10.59375 35.5 
L 73.1875 35.5 
L 73.1875 27.203125 
L 10.59375 27.203125 
z
" id="DejaVuSans-8722"/>
       </defs>
       <use xlink:href="#DejaVuSans-8722"/>
       <use x="83.789062" xlink:href="#DejaVuSans-50"/>
       <use x="147.412109" xlink:href="#DejaVuSans-48"/>
       <use x="211.035156" xlink:href="#DejaVuSans-48"/>
      </g>
     </g>
    </g>
    <g id="ytick_2">
     <g id="line2d_9">
      <g>
       <use style="stroke:#000000;stroke-width:0.8;" x="90" xlink:href="#maa05095220" y="409.035732"/>
      </g>
     </g>
     <g id="text_9">
      <!-- −100 -->
      <g transform="translate(55.532812 412.83495)scale(0.1 -0.1)">
       <use xlink:href="#DejaVuSans-8722"/>
       <use x="83.789062" xlink:href="#DejaVuSans-49"/>
       <use x="147.412109" xlink:href="#DejaVuSans-48"/>
       <use x="211.035156" xlink:href="#DejaVuSans-48"/>
      </g>
     </g>
    </g>
    <g id="ytick_3">
     <g id="line2d_10">
      <g>
       <use style="stroke:#000000;stroke-width:0.8;" x="90" xlink:href="#maa05095220" y="324.21639"/>
      </g>
     </g>
     <g id="text_10">
      <!-- 0 -->
      <g transform="translate(76.6375 328.015609)scale(0.1 -0.1)">
       <use xlink:href="#DejaVuSans-48"/>
      </g>
     </g>
    </g>
    <g id="ytick_4">
     <g id="line2d_11">
      <g>
       <use style="stroke:#000000;stroke-width:0.8;" x="90" xlink:href="#maa05095220" y="239.397049"/>
      </g>
     </g>
     <g id="text_11">
      <!-- 100 -->
      <g transform="translate(63.9125 243.196268)scale(0.1 -0.1)">
       <use xlink:href="#DejaVuSans-49"/>
       <use x="63.623047" xlink:href="#DejaVuSans-48"/>
       <use x="127.246094" xlink:href="#DejaVuSans-48"/>
      </g>
     </g>
    </g>
    <g id="ytick_5">
     <g id="line2d_12">
      <g>
       <use style="stroke:#000000;stroke-width:0.8;" x="90" xlink:href="#maa05095220" y="154.577708"/>
      </g>
     </g>
     <g id="text_12">
      <!-- 200 -->
      <g transform="translate(63.9125 158.376926)scale(0.1 -0.1)">
       <use xlink:href="#DejaVuSans-50"/>
       <use x="63.623047" xlink:href="#DejaVuSans-48"/>
       <use x="127.246094" xlink:href="#DejaVuSans-48"/>
      </g>
     </g>
    </g>
    <g id="ytick_6">
     <g id="line2d_13">
      <g>
       <use style="stroke:#000000;stroke-width:0.8;" x="90" xlink:href="#maa05095220" y="69.758366"/>
      </g>
     </g>
     <g id="text_13">
      <!-- 300 -->
      <g transform="translate(63.9125 73.557585)scale(0.1 -0.1)">
       <use xlink:href="#DejaVuSans-51"/>
       <use x="63.623047" xlink:href="#DejaVuSans-48"/>
       <use x="127.246094" xlink:href="#DejaVuSans-48"/>
      </g>
     </g>
    </g>
   </g>
   <g id="line2d_14">
    <path clip-path="url(#p799b0b326f)" d="M 120.900383 315.734456 
L 310.471611 311.276247 
" style="fill:none;stroke:#008000;stroke-dasharray:5.55,2.4;stroke-dashoffset:0;stroke-width:1.5;"/>
   </g>
   <g id="line2d_15">
    <path clip-path="url(#p799b0b326f)" d="M 621.616502 322.368918 
L 197.23779 239.397049 
" style="fill:none;stroke:#008000;stroke-dasharray:5.55,2.4;stroke-dashoffset:0;stroke-width:1.5;"/>
   </g>
   <g id="line2d_16">
    <path clip-path="url(#p799b0b326f)" d="M 310.471611 311.276247 
L 310.43148 310.012047 
L 310.31125 308.752937 
L 310.111404 307.503988 
L 309.832747 306.270228 
L 309.476401 305.056626 
L 309.043801 303.868068 
L 308.53669 302.709341 
L 307.957108 301.585109 
L 307.30739 300.4999 
L 306.590151 299.458083 
L 305.808281 298.463854 
L 304.964927 297.521216 
L 304.063485 296.633965 
L 303.107585 295.805673 
L 302.101076 295.039675 
L 301.048011 294.339057 
L 299.95263 293.706638 
L 298.819344 293.144966 
L 297.652716 292.656303 
L 296.457444 292.242615 
L 295.238341 291.905569 
L 294.000316 291.646522 
L 292.748353 291.466517 
L 291.487494 291.366279 
L 290.222816 291.346211 
L 288.959412 291.406394 
L 287.702369 291.546586 
L 286.456747 291.766223 
L 285.227564 292.06442 
L 284.019768 292.439976 
L 282.838224 292.891378 
L 281.687688 293.416811 
L 280.572793 294.014157 
L 279.498029 294.681011 
L 278.467723 295.414688 
L 277.486024 296.212235 
L 276.556886 297.070438 
L 275.684048 297.985844 
L 274.871027 298.954765 
L 274.121095 299.973301 
L 273.437272 301.037349 
L 272.822313 302.142626 
L 272.278692 303.284681 
L 271.8086 304.458915 
L 271.413928 305.6606 
L 271.096267 306.884897 
L 270.856895 308.126877 
L 270.696776 309.381538 
L 270.616555 310.643829 
L 270.616555 311.908666 
L 270.696776 313.170956 
L 270.856895 314.425617 
L 271.096267 315.667597 
L 271.413928 316.891894 
L 271.8086 318.093579 
L 272.278692 319.267813 
L 272.822313 320.409868 
L 273.437272 321.515145 
L 274.121095 322.579193 
L 274.871027 323.597729 
L 275.684048 324.56665 
L 276.556886 325.482056 
L 277.486024 326.34026 
L 278.467723 327.137806 
L 279.498029 327.871483 
L 280.572793 328.538338 
L 281.687688 329.135684 
L 282.838224 329.661116 
L 284.019768 330.112519 
L 285.227564 330.488075 
L 286.456747 330.786271 
L 287.702369 331.005908 
L 288.959412 331.1461 
L 290.222816 331.206283 
L 291.487494 331.186216 
L 292.748353 331.085977 
L 294.000316 330.905972 
L 295.238341 330.646925 
L 296.457444 330.309879 
L 297.652716 329.896192 
L 298.819344 329.407528 
L 299.95263 328.845856 
L 301.048011 328.213438 
L 302.101076 327.512819 
L 303.107585 326.746822 
L 304.063485 325.91853 
L 304.964927 325.031278 
L 305.808281 324.08864 
L 306.590151 323.094411 
L 307.30739 322.052595 
L 307.957108 320.967386 
L 308.53669 319.843154 
L 309.043801 318.684426 
L 309.476401 317.495868 
L 309.832747 316.282266 
L 310.111404 315.048506 
L 310.31125 313.799557 
L 310.43148 312.540447 
L 310.471611 311.276247 
" style="fill:none;stroke:#ff0000;stroke-linecap:square;stroke-width:1.5;"/>
   </g>
   <g id="line2d_17">
    <path clip-path="url(#p799b0b326f)" d="M 310.471611 311.276247 
L 263.255102 296.615338 
" style="fill:none;stroke:#008000;stroke-dasharray:5.55,2.4;stroke-dashoffset:0;stroke-width:1.5;"/>
   </g>
   <g id="line2d_18">
    <path clip-path="url(#p799b0b326f)" d="M 263.255102 296.615338 
L 245.41042 327.311489 
L 244.846714 327.673761 
L 244.198112 327.842049 
L 243.529382 327.79955 
L 242.907303 327.550507 
L 242.393992 327.119789 
L 242.160154 326.791409 
L 242.160154 326.791409 
L 225.726521 298.128213 
L 225.690744 297.436072 
L 225.880056 296.769365 
L 226.274237 296.199312 
L 226.831175 295.78681 
L 227.491377 295.575925 
L 227.664435 295.557865 
L 227.664435 295.557865 
L 261.927148 293.49647 
L 262.561211 293.76872 
L 263.074288 294.230139 
L 263.412046 294.831866 
L 263.538718 295.510179 
L 263.44089 296.19325 
L 263.255102 296.615338 
L 263.255102 296.615338 
" style="fill:none;stroke:#ff0000;stroke-linecap:square;stroke-width:1.5;"/>
   </g>
   <g id="line2d_19">
    <path clip-path="url(#p799b0b326f)" d="M 263.255102 296.615338 
L 230.27182 328.25324 
" style="fill:none;stroke:#008000;stroke-dasharray:5.55,2.4;stroke-dashoffset:0;stroke-width:1.5;"/>
   </g>
   <g id="line2d_20">
    <path clip-path="url(#p799b0b326f)" d="M 230.27182 328.25324 
L 230.51094 328.879087 
L 230.54287 329.548299 
L 230.364421 330.194069 
L 229.993409 330.751934 
L 229.466869 331.166204 
L 228.837365 331.395523 
L 228.436137 331.433965 
L 228.436137 331.433965 
L 196.717361 331.338659 
L 196.121598 331.031717 
L 195.651381 330.554178 
L 195.35368 329.953743 
L 195.258233 329.29039 
L 195.374572 328.63038 
L 195.542059 328.26362 
L 195.542059 328.26362 
L 211.496064 300.84222 
L 212.05977 300.479948 
L 212.708372 300.31166 
L 213.377101 300.354159 
L 213.999181 300.603202 
L 214.512491 301.03392 
L 214.746329 301.3623 
L 214.746329 301.3623 
L 230.27182 328.25324 
L 230.27182 328.25324 
" style="fill:none;stroke:#ff0000;stroke-linecap:square;stroke-width:1.5;"/>
   </g>
   <g id="line2d_21">
    <path clip-path="url(#p799b0b326f)" d="M 230.27182 328.25324 
L 197.5298 302.767723 
" style="fill:none;stroke:#008000;stroke-dasharray:5.55,2.4;stroke-dashoffset:0;stroke-width:1.5;"/>
   </g>
   <g id="line2d_22">
    <path clip-path="url(#p799b0b326f)" d="M 197.5298 302.767723 
L 183.274281 327.247259 
L 182.710575 327.609531 
L 182.061973 327.77782 
L 181.393244 327.735321 
L 180.771164 327.486278 
L 180.257854 327.05556 
L 180.024016 326.72718 
L 168.67721 306.87397 
L 168.641608 306.183372 
L 168.830098 305.518042 
L 169.222633 304.948737 
L 169.777468 304.536001 
L 170.355025 304.337351 
L 170.355025 304.337351 
L 195.980551 299.606529 
L 196.631786 299.80593 
L 197.186215 300.201501 
L 197.586641 300.752433 
L 197.791756 301.401891 
L 197.780398 302.082874 
L 197.55374 302.725131 
L 197.5298 302.767723 
L 197.5298 302.767723 
" style="fill:none;stroke:#ff0000;stroke-linecap:square;stroke-width:1.5;"/>
   </g>
   <g id="line2d_23">
    <path clip-path="url(#p799b0b326f)" d="M 197.5298 302.767723 
L 167.436661 326.97827 
" style="fill:none;stroke:#008000;stroke-dasharray:5.55,2.4;stroke-dashoffset:0;stroke-width:1.5;"/>
   </g>
   <g id="line2d_24">
    <path clip-path="url(#p799b0b326f)" d="M 167.436661 326.97827 
L 167.681636 327.633099 
L 167.700343 328.332 
L 167.49075 328.998996 
L 167.075641 329.561577 
L 166.500142 329.958584 
L 165.826818 330.146859 
L 165.406108 330.150088 
L 165.406108 330.150088 
L 148.279668 328.464737 
L 147.707029 328.091853 
L 147.28272 327.556205 
L 147.050804 326.913419 
L 147.035367 326.230251 
L 147.238011 325.577646 
L 147.298935 325.464316 
L 147.298935 325.464316 
L 155.516884 311.442156 
L 156.08059 311.079885 
L 156.729192 310.911596 
L 157.397922 310.954095 
L 158.020001 311.203138 
L 158.533311 311.633856 
L 158.767149 311.962236 
L 158.767149 311.962236 
L 167.436661 326.97827 
L 167.436661 326.97827 
" style="fill:none;stroke:#ff0000;stroke-linecap:square;stroke-width:1.5;"/>
   </g>
   <g id="line2d_25">
    <path clip-path="url(#p799b0b326f)" d="M 167.436661 326.97827 
L 318.079949 325.492157 
" style="fill:none;stroke:#008000;stroke-dasharray:5.55,2.4;stroke-dashoffset:0;stroke-width:1.5;"/>
   </g>
   <g id="line2d_26">
    <path clip-path="url(#p799b0b326f)" d="M 318.079949 325.492157 
L 334.176989 297.823013 
L 334.740695 297.460741 
L 335.389297 297.292452 
L 336.058026 297.334951 
L 336.680106 297.583994 
L 337.193416 298.014712 
L 337.427254 298.343092 
L 337.427254 298.343092 
L 352.573732 324.780722 
L 352.606657 325.479667 
L 352.410311 326.151275 
L 352.006074 326.722415 
L 351.437962 327.130897 
L 350.767837 327.332243 
L 350.592783 327.347104 
L 319.329048 328.589931 
L 318.711133 328.297083 
L 318.218545 327.822808 
L 317.902509 327.216425 
L 317.795888 326.54099 
L 317.909771 325.866742 
L 318.079949 325.492157 
L 318.079949 325.492157 
" style="fill:none;stroke:#ff0000;stroke-linecap:square;stroke-width:1.5;"/>
   </g>
   <g id="line2d_27">
    <path clip-path="url(#p799b0b326f)" d="M 318.079949 325.492157 
L 349.985163 298.041 
" style="fill:none;stroke:#008000;stroke-dasharray:5.55,2.4;stroke-dashoffset:0;stroke-width:1.5;"/>
   </g>
   <g id="line2d_28">
    <path clip-path="url(#p799b0b326f)" d="M 349.985163 298.041 
L 349.741471 297.392702 
L 349.71968 296.700459 
L 349.922114 296.038118 
L 350.327178 295.476336 
L 350.89166 295.075044 
L 351.555342 294.877051 
L 351.971933 294.865613 
L 351.971933 294.865613 
L 379.397907 296.914601 
L 379.989647 297.270163 
L 380.435815 297.796962 
L 380.689119 298.43916 
L 380.722713 299.128691 
L 380.533035 299.792471 
L 380.452586 299.945978 
L 380.452586 299.945978 
L 367.182667 322.718405 
L 366.618961 323.080677 
L 365.970359 323.248966 
L 365.30163 323.206467 
L 364.67955 322.957424 
L 364.16624 322.526705 
L 363.932402 322.198326 
L 363.932402 322.198326 
L 349.985163 298.041 
L 349.985163 298.041 
" style="fill:none;stroke:#ff0000;stroke-linecap:square;stroke-width:1.5;"/>
   </g>
   <g id="line2d_29">
    <path clip-path="url(#p799b0b326f)" d="M 349.985163 298.041 
L 380.063949 322.672146 
" style="fill:none;stroke:#008000;stroke-dasharray:5.55,2.4;stroke-dashoffset:0;stroke-width:1.5;"/>
   </g>
   <g id="line2d_30">
    <path clip-path="url(#p799b0b326f)" d="M 380.063949 322.672146 
L 392.169295 301.916819 
L 392.733001 301.554547 
L 393.381603 301.386258 
L 394.050332 301.428757 
L 394.672412 301.6778 
L 395.185722 302.108519 
L 395.41956 302.436898 
L 406.679349 322.141221 
L 406.713289 322.837764 
L 406.519438 323.507649 
L 406.118761 324.078422 
L 405.554597 324.488351 
L 404.887962 324.693099 
L 404.713606 324.709099 
L 381.325084 325.773351 
L 380.703605 325.482895 
L 380.207377 325.009229 
L 379.888336 324.401929 
L 379.779872 323.724555 
L 379.893338 323.048 
L 380.063949 322.672146 
L 380.063949 322.672146 
" style="fill:none;stroke:#ff0000;stroke-linecap:square;stroke-width:1.5;"/>
   </g>
   <g id="line2d_31">
    <path clip-path="url(#p799b0b326f)" d="M 380.063949 322.672146 
L 408.394474 302.857079 
" style="fill:none;stroke:#008000;stroke-dasharray:5.55,2.4;stroke-dashoffset:0;stroke-width:1.5;"/>
   </g>
   <g id="line2d_32">
    <path clip-path="url(#p799b0b326f)" d="M 408.394474 302.857079 
L 408.148475 302.196958 
L 408.132311 301.492675 
L 408.347765 300.821963 
L 408.771058 300.258848 
L 409.355471 299.865482 
L 410.036502 299.685281 
L 410.460427 299.688817 
L 410.460427 299.688817 
L 429.18313 301.836623 
L 429.746267 302.213599 
L 430.161719 302.748979 
L 430.387057 303.388085 
L 430.399266 304.065642 
L 430.197098 304.712451 
L 430.136656 304.824817 
L 430.136656 304.824817 
L 421.247475 320.009584 
L 420.683768 320.371856 
L 420.035167 320.540145 
L 419.366437 320.497646 
L 418.744357 320.248603 
L 418.231047 319.817885 
L 417.997209 319.489505 
L 417.997209 319.489505 
L 408.394474 302.857079 
L 408.394474 302.857079 
" style="fill:none;stroke:#ff0000;stroke-linecap:square;stroke-width:1.5;"/>
   </g>
   <g id="line2d_33">
    <path clip-path="url(#p799b0b326f)" d="M 408.394474 302.857079 
L 434.146589 319.932438 
" style="fill:none;stroke:#008000;stroke-dasharray:5.55,2.4;stroke-dashoffset:0;stroke-width:1.5;"/>
   </g>
   <g id="line2d_34">
    <path clip-path="url(#p799b0b326f)" d="M 434.146589 319.932438 
L 441.576102 307.275892 
L 442.139808 306.91362 
L 442.788409 306.745331 
L 443.457139 306.78783 
L 444.079219 307.036873 
L 444.592529 307.467591 
L 444.826367 307.795971 
L 451.669057 319.849528 
L 451.703089 320.545849 
L 451.509467 321.215575 
L 451.109118 321.786314 
L 450.545316 322.196375 
L 449.879003 322.401434 
L 449.704713 322.417538 
L 435.408832 323.033955 
L 434.787026 322.74372 
L 434.290463 322.270112 
L 433.971145 321.662728 
L 433.862511 320.985175 
L 433.975938 320.308409 
L 434.146589 319.932438 
L 434.146589 319.932438 
" style="fill:none;stroke:#ff0000;stroke-linecap:square;stroke-width:1.5;"/>
   </g>
   <g id="line2d_35">
    <path clip-path="url(#p799b0b326f)" d="M 434.146589 319.932438 
L 621.617121 322.369043 
" style="fill:none;stroke:#008000;stroke-dasharray:5.55,2.4;stroke-dashoffset:0;stroke-width:1.5;"/>
   </g>
   <g id="line2d_36">
    <path clip-path="url(#p799b0b326f)" d="M 621.617121 322.369043 
L 599.033121 317.899466 
L 570.02968 312.377878 
L 544.342803 307.709245 
L 520.396125 303.59099 
L 498.210169 300.006827 
L 477.787637 296.929195 
L 468.377661 295.673995 
L 467.90185 295.892669 
L 467.554417 296.284466 
L 467.394219 296.783015 
L 467.295269 297.082939 
L 467.2909 297.082445 
L 453.195433 295.230055 
L 452.690685 295.425624 
L 452.312923 295.813329 
L 452.130531 296.322987 
L 452.130531 296.322987 
L 451.773003 298.414833 
L 450.998617 298.228609 
L 450.998617 298.228609 
L 451.220915 295.689952 
L 450.9624 295.21438 
L 450.529582 294.889316 
L 450.161975 294.784024 
L 450.162171 294.784049 
L 431.323355 292.467577 
L 413.240205 290.465376 
L 395.43361 288.70963 
L 377.932504 287.195879 
L 360.764507 285.926093 
L 343.957027 284.901873 
L 327.537038 284.124102 
L 311.53146 283.597803 
L 297.246121 283.36117 
L 283.351301 283.364628 
L 269.867685 283.600779 
L 256.815493 284.061226 
L 244.21439 284.737201 
L 232.083496 285.619326 
L 220.441324 286.697459 
L 209.305509 287.96098 
L 199.6356 289.271041 
L 190.413998 290.741851 
L 181.657844 292.372515 
L 173.382199 294.144817 
L 165.598243 296.036085 
L 158.316459 298.024079 
L 150.897601 300.289035 
L 144.1023 302.608138 
L 139.019159 304.575615 
L 134.887278 306.394567 
L 131.137378 308.266493 
L 127.775534 310.166316 
L 124.820185 312.072073 
L 122.271113 313.961425 
L 120.141594 315.79399 
L 118.433914 317.52965 
L 117.160807 319.105457 
L 116.300737 320.489917 
L 115.682829 321.907885 
L 115.39763 323.135509 
L 115.386208 324.131781 
L 115.59744 325.082357 
L 115.98324 325.91467 
L 116.688912 326.868381 
L 117.780714 327.937415 
L 119.275893 329.072917 
L 121.126939 330.212174 
L 123.67746 331.488511 
L 126.641445 332.704919 
L 130.006995 333.834537 
L 134.245805 334.992119 
L 138.931574 336.011212 
L 144.043341 336.886625 
L 150.828975 337.821194 
L 159.604387 338.796676 
L 168.418406 339.55865 
L 177.897434 340.166569 
L 188.02214 340.607198 
L 199.694724 340.882137 
L 213.052418 340.966766 
L 221.449569 340.848844 
L 221.900564 340.54926 
L 222.186152 340.089275 
L 222.259453 339.653085 
L 222.259453 339.653085 
L 222.326843 337.531976 
L 222.326843 337.531976 
L 223.091002 337.610518 
L 223.091002 337.610518 
L 223.218856 340.155767 
L 223.540228 340.591451 
L 224.013654 340.85407 
L 224.392305 340.907888 
L 224.391977 340.907891 
L 238.37516 340.798023 
L 238.375171 340.799384 
L 238.484553 341.606777 
L 238.793892 342.034142 
L 239.249998 342.299282 
L 239.672458 342.362714 
L 239.67236 342.362716 
L 261.241257 341.832116 
L 288.693484 340.927004 
L 329.73042 339.326976 
L 365.253603 337.713834 
L 420.157026 334.965252 
L 501.325247 330.919694 
L 548.896862 328.793682 
L 589.057249 327.225482 
L 621.932334 325.923494 
L 622.329099 325.571226 
L 622.547686 325.087766 
L 622.575302 324.879848 
L 622.575302 324.879848 
L 622.551843 323.159862 
L 622.266123 322.718659 
L 621.826438 322.430608 
L 621.616502 322.368918 
L 621.616502 322.368918 
" style="fill:none;stroke:#ff0000;stroke-linecap:square;stroke-width:1.5;"/>
   </g>
   <g id="patch_3">
    <path d="M 90 512.64 
L 90 69.12 
" style="fill:none;stroke:#000000;stroke-linecap:square;stroke-linejoin:miter;stroke-width:0.8;"/>
   </g>
   <g id="patch_4">
    <path d="M 648 512.64 
L 648 69.12 
" style="fill:none;stroke:#000000;stroke-linecap:square;stroke-linejoin:miter;stroke-width:0.8;"/>
   </g>
   <g id="patch_5">
    <path d="M 90 512.64 
L 648 512.64 
" style="fill:none;stroke:#000000;stroke-linecap:square;stroke-linejoin:miter;stroke-width:0.8;"/>
   </g>
   <g id="patch_6">
    <path d="M 90 69.12 
L 648 69.12 
" style="fill:none;stroke:#000000;stroke-linecap:square;stroke-linejoin:miter;stroke-width:0.8;"/>
   </g>
   <g id="text_14">
    <!-- Rib Gcode generation Example -->
    <g transform="translate(275.850937 63.12)scale(0.12 -0.12)">
     <defs>
      <path d="M 44.390625 34.1875 
Q 47.5625 33.109375 50.5625 29.59375 
Q 53.5625 26.078125 56.59375 19.921875 
L 66.609375 0 
L 56 0 
L 46.6875 18.703125 
Q 43.0625 26.03125 39.671875 28.421875 
Q 36.28125 30.8125 30.421875 30.8125 
L 19.671875 30.8125 
L 19.671875 0 
L 9.8125 0 
L 9.8125 72.90625 
L 32.078125 72.90625 
Q 44.578125 72.90625 50.734375 67.671875 
Q 56.890625 62.453125 56.890625 51.90625 
Q 56.890625 45.015625 53.6875 40.46875 
Q 50.484375 35.9375 44.390625 34.1875 
z
M 19.671875 64.796875 
L 19.671875 38.921875 
L 32.078125 38.921875 
Q 39.203125 38.921875 42.84375 42.21875 
Q 46.484375 45.515625 46.484375 51.90625 
Q 46.484375 58.296875 42.84375 61.546875 
Q 39.203125 64.796875 32.078125 64.796875 
z
" id="DejaVuSans-82"/>
      <path d="M 9.421875 54.6875 
L 18.40625 54.6875 
L 18.40625 0 
L 9.421875 0 
z
M 9.421875 75.984375 
L 18.40625 75.984375 
L 18.40625 64.59375 
L 9.421875 64.59375 
z
" id="DejaVuSans-105"/>
      <path d="M 48.6875 27.296875 
Q 48.6875 37.203125 44.609375 42.84375 
Q 40.53125 48.484375 33.40625 48.484375 
Q 26.265625 48.484375 22.1875 42.84375 
Q 18.109375 37.203125 18.109375 27.296875 
Q 18.109375 17.390625 22.1875 11.75 
Q 26.265625 6.109375 33.40625 6.109375 
Q 40.53125 6.109375 44.609375 11.75 
Q 48.6875 17.390625 48.6875 27.296875 
z
M 18.109375 46.390625 
Q 20.953125 51.265625 25.265625 53.625 
Q 29.59375 56 35.59375 56 
Q 45.5625 56 51.78125 48.09375 
Q 58.015625 40.1875 58.015625 27.296875 
Q 58.015625 14.40625 51.78125 6.484375 
Q 45.5625 -1.421875 35.59375 -1.421875 
Q 29.59375 -1.421875 25.265625 0.953125 
Q 20.953125 3.328125 18.109375 8.203125 
L 18.109375 0 
L 9.078125 0 
L 9.078125 75.984375 
L 18.109375 75.984375 
z
" id="DejaVuSans-98"/>
      <path id="DejaVuSans-32"/>
      <path d="M 59.515625 10.40625 
L 59.515625 29.984375 
L 43.40625 29.984375 
L 43.40625 38.09375 
L 69.28125 38.09375 
L 69.28125 6.78125 
Q 63.578125 2.734375 56.6875 0.65625 
Q 49.8125 -1.421875 42 -1.421875 
Q 24.90625 -1.421875 15.25 8.5625 
Q 5.609375 18.5625 5.609375 36.375 
Q 5.609375 54.25 15.25 64.234375 
Q 24.90625 74.21875 42 74.21875 
Q 49.125 74.21875 55.546875 72.453125 
Q 61.96875 70.703125 67.390625 67.28125 
L 67.390625 56.78125 
Q 61.921875 61.421875 55.765625 63.765625 
Q 49.609375 66.109375 42.828125 66.109375 
Q 29.4375 66.109375 22.71875 58.640625 
Q 16.015625 51.171875 16.015625 36.375 
Q 16.015625 21.625 22.71875 14.15625 
Q 29.4375 6.6875 42.828125 6.6875 
Q 48.046875 6.6875 52.140625 7.59375 
Q 56.25 8.5 59.515625 10.40625 
z
" id="DejaVuSans-71"/>
      <path d="M 48.78125 52.59375 
L 48.78125 44.1875 
Q 44.96875 46.296875 41.140625 47.34375 
Q 37.3125 48.390625 33.40625 48.390625 
Q 24.65625 48.390625 19.8125 42.84375 
Q 14.984375 37.3125 14.984375 27.296875 
Q 14.984375 17.28125 19.8125 11.734375 
Q 24.65625 6.203125 33.40625 6.203125 
Q 37.3125 6.203125 41.140625 7.25 
Q 44.96875 8.296875 48.78125 10.40625 
L 48.78125 2.09375 
Q 45.015625 0.34375 40.984375 -0.53125 
Q 36.96875 -1.421875 32.421875 -1.421875 
Q 20.0625 -1.421875 12.78125 6.34375 
Q 5.515625 14.109375 5.515625 27.296875 
Q 5.515625 40.671875 12.859375 48.328125 
Q 20.21875 56 33.015625 56 
Q 37.15625 56 41.109375 55.140625 
Q 45.0625 54.296875 48.78125 52.59375 
z
" id="DejaVuSans-99"/>
      <path d="M 30.609375 48.390625 
Q 23.390625 48.390625 19.1875 42.75 
Q 14.984375 37.109375 14.984375 27.296875 
Q 14.984375 17.484375 19.15625 11.84375 
Q 23.34375 6.203125 30.609375 6.203125 
Q 37.796875 6.203125 41.984375 11.859375 
Q 46.1875 17.53125 46.1875 27.296875 
Q 46.1875 37.015625 41.984375 42.703125 
Q 37.796875 48.390625 30.609375 48.390625 
z
M 30.609375 56 
Q 42.328125 56 49.015625 48.375 
Q 55.71875 40.765625 55.71875 27.296875 
Q 55.71875 13.875 49.015625 6.21875 
Q 42.328125 -1.421875 30.609375 -1.421875 
Q 18.84375 -1.421875 12.171875 6.21875 
Q 5.515625 13.875 5.515625 27.296875 
Q 5.515625 40.765625 12.171875 48.375 
Q 18.84375 56 30.609375 56 
z
" id="DejaVuSans-111"/>
      <path d="M 45.40625 46.390625 
L 45.40625 75.984375 
L 54.390625 75.984375 
L 54.390625 0 
L 45.40625 0 
L 45.40625 8.203125 
Q 42.578125 3.328125 38.25 0.953125 
Q 33.9375 -1.421875 27.875 -1.421875 
Q 17.96875 -1.421875 11.734375 6.484375 
Q 5.515625 14.40625 5.515625 27.296875 
Q 5.515625 40.1875 11.734375 48.09375 
Q 17.96875 56 27.875 56 
Q 33.9375 56 38.25 53.625 
Q 42.578125 51.265625 45.40625 46.390625 
z
M 14.796875 27.296875 
Q 14.796875 17.390625 18.875 11.75 
Q 22.953125 6.109375 30.078125 6.109375 
Q 37.203125 6.109375 41.296875 11.75 
Q 45.40625 17.390625 45.40625 27.296875 
Q 45.40625 37.203125 41.296875 42.84375 
Q 37.203125 48.484375 30.078125 48.484375 
Q 22.953125 48.484375 18.875 42.84375 
Q 14.796875 37.203125 14.796875 27.296875 
z
" id="DejaVuSans-100"/>
      <path d="M 56.203125 29.59375 
L 56.203125 25.203125 
L 14.890625 25.203125 
Q 15.484375 15.921875 20.484375 11.0625 
Q 25.484375 6.203125 34.421875 6.203125 
Q 39.59375 6.203125 44.453125 7.46875 
Q 49.3125 8.734375 54.109375 11.28125 
L 54.109375 2.78125 
Q 49.265625 0.734375 44.1875 -0.34375 
Q 39.109375 -1.421875 33.890625 -1.421875 
Q 20.796875 -1.421875 13.15625 6.1875 
Q 5.515625 13.8125 5.515625 26.8125 
Q 5.515625 40.234375 12.765625 48.109375 
Q 20.015625 56 32.328125 56 
Q 43.359375 56 49.78125 48.890625 
Q 56.203125 41.796875 56.203125 29.59375 
z
M 47.21875 32.234375 
Q 47.125 39.59375 43.09375 43.984375 
Q 39.0625 48.390625 32.421875 48.390625 
Q 24.90625 48.390625 20.390625 44.140625 
Q 15.875 39.890625 15.1875 32.171875 
z
" id="DejaVuSans-101"/>
      <path d="M 45.40625 27.984375 
Q 45.40625 37.75 41.375 43.109375 
Q 37.359375 48.484375 30.078125 48.484375 
Q 22.859375 48.484375 18.828125 43.109375 
Q 14.796875 37.75 14.796875 27.984375 
Q 14.796875 18.265625 18.828125 12.890625 
Q 22.859375 7.515625 30.078125 7.515625 
Q 37.359375 7.515625 41.375 12.890625 
Q 45.40625 18.265625 45.40625 27.984375 
z
M 54.390625 6.78125 
Q 54.390625 -7.171875 48.1875 -13.984375 
Q 42 -20.796875 29.203125 -20.796875 
Q 24.46875 -20.796875 20.265625 -20.09375 
Q 16.0625 -19.390625 12.109375 -17.921875 
L 12.109375 -9.1875 
Q 16.0625 -11.328125 19.921875 -12.34375 
Q 23.78125 -13.375 27.78125 -13.375 
Q 36.625 -13.375 41.015625 -8.765625 
Q 45.40625 -4.15625 45.40625 5.171875 
L 45.40625 9.625 
Q 42.625 4.78125 38.28125 2.390625 
Q 33.9375 0 27.875 0 
Q 17.828125 0 11.671875 7.65625 
Q 5.515625 15.328125 5.515625 27.984375 
Q 5.515625 40.671875 11.671875 48.328125 
Q 17.828125 56 27.875 56 
Q 33.9375 56 38.28125 53.609375 
Q 42.625 51.21875 45.40625 46.390625 
L 45.40625 54.6875 
L 54.390625 54.6875 
z
" id="DejaVuSans-103"/>
      <path d="M 54.890625 33.015625 
L 54.890625 0 
L 45.90625 0 
L 45.90625 32.71875 
Q 45.90625 40.484375 42.875 44.328125 
Q 39.84375 48.1875 33.796875 48.1875 
Q 26.515625 48.1875 22.3125 43.546875 
Q 18.109375 38.921875 18.109375 30.90625 
L 18.109375 0 
L 9.078125 0 
L 9.078125 54.6875 
L 18.109375 54.6875 
L 18.109375 46.1875 
Q 21.34375 51.125 25.703125 53.5625 
Q 30.078125 56 35.796875 56 
Q 45.21875 56 50.046875 50.171875 
Q 54.890625 44.34375 54.890625 33.015625 
z
" id="DejaVuSans-110"/>
      <path d="M 41.109375 46.296875 
Q 39.59375 47.171875 37.8125 47.578125 
Q 36.03125 48 33.890625 48 
Q 26.265625 48 22.1875 43.046875 
Q 18.109375 38.09375 18.109375 28.8125 
L 18.109375 0 
L 9.078125 0 
L 9.078125 54.6875 
L 18.109375 54.6875 
L 18.109375 46.1875 
Q 20.953125 51.171875 25.484375 53.578125 
Q 30.03125 56 36.53125 56 
Q 37.453125 56 38.578125 55.875 
Q 39.703125 55.765625 41.0625 55.515625 
z
" id="DejaVuSans-114"/>
      <path d="M 34.28125 27.484375 
Q 23.390625 27.484375 19.1875 25 
Q 14.984375 22.515625 14.984375 16.5 
Q 14.984375 11.71875 18.140625 8.90625 
Q 21.296875 6.109375 26.703125 6.109375 
Q 34.1875 6.109375 38.703125 11.40625 
Q 43.21875 16.703125 43.21875 25.484375 
L 43.21875 27.484375 
z
M 52.203125 31.203125 
L 52.203125 0 
L 43.21875 0 
L 43.21875 8.296875 
Q 40.140625 3.328125 35.546875 0.953125 
Q 30.953125 -1.421875 24.3125 -1.421875 
Q 15.921875 -1.421875 10.953125 3.296875 
Q 6 8.015625 6 15.921875 
Q 6 25.140625 12.171875 29.828125 
Q 18.359375 34.515625 30.609375 34.515625 
L 43.21875 34.515625 
L 43.21875 35.40625 
Q 43.21875 41.609375 39.140625 45 
Q 35.0625 48.390625 27.6875 48.390625 
Q 23 48.390625 18.546875 47.265625 
Q 14.109375 46.140625 10.015625 43.890625 
L 10.015625 52.203125 
Q 14.9375 54.109375 19.578125 55.046875 
Q 24.21875 56 28.609375 56 
Q 40.484375 56 46.34375 49.84375 
Q 52.203125 43.703125 52.203125 31.203125 
z
" id="DejaVuSans-97"/>
      <path d="M 18.3125 70.21875 
L 18.3125 54.6875 
L 36.8125 54.6875 
L 36.8125 47.703125 
L 18.3125 47.703125 
L 18.3125 18.015625 
Q 18.3125 11.328125 20.140625 9.421875 
Q 21.96875 7.515625 27.59375 7.515625 
L 36.8125 7.515625 
L 36.8125 0 
L 27.59375 0 
Q 17.1875 0 13.234375 3.875 
Q 9.28125 7.765625 9.28125 18.015625 
L 9.28125 47.703125 
L 2.6875 47.703125 
L 2.6875 54.6875 
L 9.28125 54.6875 
L 9.28125 70.21875 
z
" id="DejaVuSans-116"/>
      <path d="M 9.8125 72.90625 
L 55.90625 72.90625 
L 55.90625 64.59375 
L 19.671875 64.59375 
L 19.671875 43.015625 
L 54.390625 43.015625 
L 54.390625 34.71875 
L 19.671875 34.71875 
L 19.671875 8.296875 
L 56.78125 8.296875 
L 56.78125 0 
L 9.8125 0 
z
" id="DejaVuSans-69"/>
      <path d="M 54.890625 54.6875 
L 35.109375 28.078125 
L 55.90625 0 
L 45.3125 0 
L 29.390625 21.484375 
L 13.484375 0 
L 2.875 0 
L 24.125 28.609375 
L 4.6875 54.6875 
L 15.28125 54.6875 
L 29.78125 35.203125 
L 44.28125 54.6875 
z
" id="DejaVuSans-120"/>
      <path d="M 52 44.1875 
Q 55.375 50.25 60.0625 53.125 
Q 64.75 56 71.09375 56 
Q 79.640625 56 84.28125 50.015625 
Q 88.921875 44.046875 88.921875 33.015625 
L 88.921875 0 
L 79.890625 0 
L 79.890625 32.71875 
Q 79.890625 40.578125 77.09375 44.375 
Q 74.3125 48.1875 68.609375 48.1875 
Q 61.625 48.1875 57.5625 43.546875 
Q 53.515625 38.921875 53.515625 30.90625 
L 53.515625 0 
L 44.484375 0 
L 44.484375 32.71875 
Q 44.484375 40.625 41.703125 44.40625 
Q 38.921875 48.1875 33.109375 48.1875 
Q 26.21875 48.1875 22.15625 43.53125 
Q 18.109375 38.875 18.109375 30.90625 
L 18.109375 0 
L 9.078125 0 
L 9.078125 54.6875 
L 18.109375 54.6875 
L 18.109375 46.1875 
Q 21.1875 51.21875 25.484375 53.609375 
Q 29.78125 56 35.6875 56 
Q 41.65625 56 45.828125 52.96875 
Q 50 49.953125 52 44.1875 
z
" id="DejaVuSans-109"/>
      <path d="M 18.109375 8.203125 
L 18.109375 -20.796875 
L 9.078125 -20.796875 
L 9.078125 54.6875 
L 18.109375 54.6875 
L 18.109375 46.390625 
Q 20.953125 51.265625 25.265625 53.625 
Q 29.59375 56 35.59375 56 
Q 45.5625 56 51.78125 48.09375 
Q 58.015625 40.1875 58.015625 27.296875 
Q 58.015625 14.40625 51.78125 6.484375 
Q 45.5625 -1.421875 35.59375 -1.421875 
Q 29.59375 -1.421875 25.265625 0.953125 
Q 20.953125 3.328125 18.109375 8.203125 
z
M 48.6875 27.296875 
Q 48.6875 37.203125 44.609375 42.84375 
Q 40.53125 48.484375 33.40625 48.484375 
Q 26.265625 48.484375 22.1875 42.84375 
Q 18.109375 37.203125 18.109375 27.296875 
Q 18.109375 17.390625 22.1875 11.75 
Q 26.265625 6.109375 33.40625 6.109375 
Q 40.53125 6.109375 44.609375 11.75 
Q 48.6875 17.390625 48.6875 27.296875 
z
" id="DejaVuSans-112"/>
      <path d="M 9.421875 75.984375 
L 18.40625 75.984375 
L 18.40625 0 
L 9.421875 0 
z
" id="DejaVuSans-108"/>
     </defs>
     <use xlink:href="#DejaVuSans-82"/>
     <use x="69.482422" xlink:href="#DejaVuSans-105"/>
     <use x="97.265625" xlink:href="#DejaVuSans-98"/>
     <use x="160.742188" xlink:href="#DejaVuSans-32"/>
     <use x="192.529297" xlink:href="#DejaVuSans-71"/>
     <use x="270.019531" xlink:href="#DejaVuSans-99"/>
     <use x="325" xlink:href="#DejaVuSans-111"/>
     <use x="386.181641" xlink:href="#DejaVuSans-100"/>
     <use x="449.658203" xlink:href="#DejaVuSans-101"/>
     <use x="511.181641" xlink:href="#DejaVuSans-32"/>
     <use x="542.96875" xlink:href="#DejaVuSans-103"/>
     <use x="606.445312" xlink:href="#DejaVuSans-101"/>
     <use x="667.96875" xlink:href="#DejaVuSans-110"/>
     <use x="731.347656" xlink:href="#DejaVuSans-101"/>
     <use x="792.871094" xlink:href="#DejaVuSans-114"/>
     <use x="833.984375" xlink:href="#DejaVuSans-97"/>
     <use x="895.263672" xlink:href="#DejaVuSans-116"/>
     <use x="934.472656" xlink:href="#DejaVuSans-105"/>
     <use x="962.255859" xlink:href="#DejaVuSans-111"/>
     <use x="1023.4375" xlink:href="#DejaVuSans-110"/>
     <use x="1086.816406" xlink:href="#DejaVuSans-32"/>
     <use x="1118.603516" xlink:href="#DejaVuSans-69"/>
     <use x="1181.787109" xlink:href="#DejaVuSans-120"/>
     <use x="1240.966797" xlink:href="#DejaVuSans-97"/>
     <use x="1302.246094" xlink:href="#DejaVuSans-109"/>
     <use x="1399.658203" xlink:href="#DejaVuSans-112"/>
     <use x="1463.134766" xlink:href="#DejaVuSans-108"/>
     <use x="1490.917969" xlink:href="#DejaVuSans-101"/>
    </g>
   </g>
  </g>
 </g>
 <defs>
  <clipPath id="p799b0b326f">
   <rect height="443.52" width="558" x="90" y="69.12"/>
  </clipPath>
 </defs>
</svg>
