<?xml version="1.0" encoding="utf-8" standalone="no"?>
<!DOCTYPE svg PUBLIC "-//W3C//DTD SVG 1.1//EN"
  "http://www.w3.org/Graphics/SVG/1.1/DTD/svg11.dtd">
<!-- Created with matplotlib (https://matplotlib.org/) -->
<svg height="576pt" version="1.1" viewBox="0 0 720 576" width="720pt" xmlns="http://www.w3.org/2000/svg" xmlns:xlink="http://www.w3.org/1999/xlink">
 <metadata>
  <rdf:RDF xmlns:cc="http://creativecommons.org/ns#" xmlns:dc="http://purl.org/dc/elements/1.1/" xmlns:rdf="http://www.w3.org/1999/02/22-rdf-syntax-ns#">
   <cc:Work>
    <dc:type rdf:resource="http://purl.org/dc/dcmitype/StillImage"/>
    <dc:date>2025-09-02T22:33:47.667892</dc:date>
    <dc:format>image/svg+xml</dc:format>
    <dc:creator>
     <cc:Agent>
      <dc:title>Matplotlib v3.3.2, https://matplotlib.org/</dc:title>
     </cc:Agent>
    </dc:creator>
   </cc:Work>
  </rdf:RDF>
 </metadata>
 <defs>
  <style type="text/css">*{stroke-linecap:butt;stroke-linejoin:round;}</style>
 </defs>
 <g id="figure_1">
  <g id="patch_1">
   <path d="M 0 576 
L 720 576 
L 720 0 
L 0 0 
z
" style="fill:#ffffff;"/>
  </g>
  <g id="axes_1">
   <g id="patch_2">
    <path d="M 90 512.64 
L 648 512.64 
L 648 69.12 
L 90 69.12 
z
" style="fill:#ffffff;"/>
   </g>
   <g id="matplotlib.axis_1">
    <g id="xtick_1">
     <g id="line2d_1">
      <defs>
       <path d="M 0 0 
L 0 3.5 
" id="m4e26b300f4" style="stroke:#000000;stroke-width:0.8;"/>
      </defs>
      <g>
       <use style="stroke:#000000;stroke-width:0.8;" x="117.856251" xlink:href="#m4e26b300f4" y="512.64"/>
      </g>
     </g>
     <g id="text_1">
      <!-- 0.0 -->
      <g transform="translate(109.904689 527.238438)scale(0.1 -0.1)">
       <defs>
        <path d="M 31.78125 66.40625 
Q 24.171875 66.40625 20.328125 58.90625 
Q 16.5 51.421875 16.5 36.375 
Q 16.5 21.390625 20.328125 13.890625 
Q 24.171875 6.390625 31.78125 6.390625 
Q 39.453125 6.390625 43.28125 13.890625 
Q 47.125 21.390625 47.125 36.375 
Q 47.125 51.421875 43.28125 58.90625 
Q 39.453125 66.40625 31.78125 66.40625 
z
M 31.78125 74.21875 
Q 44.046875 74.21875 50.515625 64.515625 
Q 56.984375 54.828125 56.984375 36.375 
Q 56.984375 17.96875 50.515625 8.265625 
Q 44.046875 -1.421875 31.78125 -1.421875 
Q 19.53125 -1.421875 13.0625 8.265625 
Q 6.59375 17.96875 6.59375 36.375 
Q 6.59375 54.828125 13.0625 64.515625 
Q 19.53125 74.21875 31.78125 74.21875 
z
" id="DejaVuSans-48"/>
        <path d="M 10.6875 12.40625 
L 21 12.40625 
L 21 0 
L 10.6875 0 
z
" id="DejaVuSans-46"/>
       </defs>
       <use xlink:href="#DejaVuSans-48"/>
       <use x="63.623047" xlink:href="#DejaVuSans-46"/>
       <use x="95.410156" xlink:href="#DejaVuSans-48"/>
      </g>
     </g>
    </g>
    <g id="xtick_2">
     <g id="line2d_2">
      <g>
       <use style="stroke:#000000;stroke-width:0.8;" x="230.163693" xlink:href="#m4e26b300f4" y="512.64"/>
      </g>
     </g>
     <g id="text_2">
      <!-- 0.1 -->
      <g transform="translate(222.212131 527.238438)scale(0.1 -0.1)">
       <defs>
        <path d="M 12.40625 8.296875 
L 28.515625 8.296875 
L 28.515625 63.921875 
L 10.984375 60.40625 
L 10.984375 69.390625 
L 28.421875 72.90625 
L 38.28125 72.90625 
L 38.28125 8.296875 
L 54.390625 8.296875 
L 54.390625 0 
L 12.40625 0 
z
" id="DejaVuSans-49"/>
       </defs>
       <use xlink:href="#DejaVuSans-48"/>
       <use x="63.623047" xlink:href="#DejaVuSans-46"/>
       <use x="95.410156" xlink:href="#DejaVuSans-49"/>
      </g>
     </g>
    </g>
    <g id="xtick_3">
     <g id="line2d_3">
      <g>
       <use style="stroke:#000000;stroke-width:0.8;" x="342.471136" xlink:href="#m4e26b300f4" y="512.64"/>
      </g>
     </g>
     <g id="text_3">
      <!-- 0.2 -->
      <g transform="translate(334.519573 527.238438)scale(0.1 -0.1)">
       <defs>
        <path d="M 19.1875 8.296875 
L 53.609375 8.296875 
L 53.609375 0 
L 7.328125 0 
L 7.328125 8.296875 
Q 12.9375 14.109375 22.625 23.890625 
Q 32.328125 33.6875 34.8125 36.53125 
Q 39.546875 41.84375 41.421875 45.53125 
Q 43.3125 49.21875 43.3125 52.78125 
Q 43.3125 58.59375 39.234375 62.25 
Q 35.15625 65.921875 28.609375 65.921875 
Q 23.96875 65.921875 18.8125 64.3125 
Q 13.671875 62.703125 7.8125 59.421875 
L 7.8125 69.390625 
Q 13.765625 71.78125 18.9375 73 
Q 24.125 74.21875 28.421875 74.21875 
Q 39.75 74.21875 46.484375 68.546875 
Q 53.21875 62.890625 53.21875 53.421875 
Q 53.21875 48.921875 51.53125 44.890625 
Q 49.859375 40.875 45.40625 35.40625 
Q 44.1875 33.984375 37.640625 27.21875 
Q 31.109375 20.453125 19.1875 8.296875 
z
" id="DejaVuSans-50"/>
       </defs>
       <use xlink:href="#DejaVuSans-48"/>
       <use x="63.623047" xlink:href="#DejaVuSans-46"/>
       <use x="95.410156" xlink:href="#DejaVuSans-50"/>
      </g>
     </g>
    </g>
    <g id="xtick_4">
     <g id="line2d_4">
      <g>
       <use style="stroke:#000000;stroke-width:0.8;" x="454.778578" xlink:href="#m4e26b300f4" y="512.64"/>
      </g>
     </g>
     <g id="text_4">
      <!-- 0.3 -->
      <g transform="translate(446.827015 527.238438)scale(0.1 -0.1)">
       <defs>
        <path d="M 40.578125 39.3125 
Q 47.65625 37.796875 51.625 33 
Q 55.609375 28.21875 55.609375 21.1875 
Q 55.609375 10.40625 48.1875 4.484375 
Q 40.765625 -1.421875 27.09375 -1.421875 
Q 22.515625 -1.421875 17.65625 -0.515625 
Q 12.796875 0.390625 7.625 2.203125 
L 7.625 11.71875 
Q 11.71875 9.328125 16.59375 8.109375 
Q 21.484375 6.890625 26.8125 6.890625 
Q 36.078125 6.890625 40.9375 10.546875 
Q 45.796875 14.203125 45.796875 21.1875 
Q 45.796875 27.640625 41.28125 31.265625 
Q 36.765625 34.90625 28.71875 34.90625 
L 20.21875 34.90625 
L 20.21875 43.015625 
L 29.109375 43.015625 
Q 36.375 43.015625 40.234375 45.921875 
Q 44.09375 48.828125 44.09375 54.296875 
Q 44.09375 59.90625 40.109375 62.90625 
Q 36.140625 65.921875 28.71875 65.921875 
Q 24.65625 65.921875 20.015625 65.03125 
Q 15.375 64.15625 9.8125 62.3125 
L 9.8125 71.09375 
Q 15.4375 72.65625 20.34375 73.4375 
Q 25.25 74.21875 29.59375 74.21875 
Q 40.828125 74.21875 47.359375 69.109375 
Q 53.90625 64.015625 53.90625 55.328125 
Q 53.90625 49.265625 50.4375 45.09375 
Q 46.96875 40.921875 40.578125 39.3125 
z
" id="DejaVuSans-51"/>
       </defs>
       <use xlink:href="#DejaVuSans-48"/>
       <use x="63.623047" xlink:href="#DejaVuSans-46"/>
       <use x="95.410156" xlink:href="#DejaVuSans-51"/>
      </g>
     </g>
    </g>
    <g id="xtick_5">
     <g id="line2d_5">
      <g>
       <use style="stroke:#000000;stroke-width:0.8;" x="567.08602" xlink:href="#m4e26b300f4" y="512.64"/>
      </g>
     </g>
     <g id="text_5">
      <!-- 0.4 -->
      <g transform="translate(559.134458 527.238438)scale(0.1 -0.1)">
       <defs>
        <path d="M 37.796875 64.3125 
L 12.890625 25.390625 
L 37.796875 25.390625 
z
M 35.203125 72.90625 
L 47.609375 72.90625 
L 47.609375 25.390625 
L 58.015625 25.390625 
L 58.015625 17.1875 
L 47.609375 17.1875 
L 47.609375 0 
L 37.796875 0 
L 37.796875 17.1875 
L 4.890625 17.1875 
L 4.890625 26.703125 
z
" id="DejaVuSans-52"/>
       </defs>
       <use xlink:href="#DejaVuSans-48"/>
       <use x="63.623047" xlink:href="#DejaVuSans-46"/>
       <use x="95.410156" xlink:href="#DejaVuSans-52"/>
      </g>
     </g>
    </g>
   </g>
   <g id="matplotlib.axis_2">
    <g id="ytick_1">
     <g id="line2d_6">
      <defs>
       <path d="M 0 0 
L -3.5 0 
" id="mbfc4a08ebf" style="stroke:#000000;stroke-width:0.8;"/>
      </defs>
      <g>
       <use style="stroke:#000000;stroke-width:0.8;" x="90" xlink:href="#mbfc4a08ebf" y="467.474007"/>
      </g>
     </g>
     <g id="text_6">
      <!-- −0.15 -->
      <g transform="translate(52.354687 471.273226)scale(0.1 -0.1)">
       <defs>
        <path d="M 10.59375 35.5 
L 73.1875 35.5 
L 73.1875 27.203125 
L 10.59375 27.203125 
z
" id="DejaVuSans-8722"/>
        <path d="M 10.796875 72.90625 
L 49.515625 72.90625 
L 49.515625 64.59375 
L 19.828125 64.59375 
L 19.828125 46.734375 
Q 21.96875 47.46875 24.109375 47.828125 
Q 26.265625 48.1875 28.421875 48.1875 
Q 40.625 48.1875 47.75 41.5 
Q 54.890625 34.8125 54.890625 23.390625 
Q 54.890625 11.625 47.5625 5.09375 
Q 40.234375 -1.421875 26.90625 -1.421875 
Q 22.3125 -1.421875 17.546875 -0.640625 
Q 12.796875 0.140625 7.71875 1.703125 
L 7.71875 11.625 
Q 12.109375 9.234375 16.796875 8.0625 
Q 21.484375 6.890625 26.703125 6.890625 
Q 35.15625 6.890625 40.078125 11.328125 
Q 45.015625 15.765625 45.015625 23.390625 
Q 45.015625 31 40.078125 35.4375 
Q 35.15625 39.890625 26.703125 39.890625 
Q 22.75 39.890625 18.8125 39.015625 
Q 14.890625 38.140625 10.796875 36.28125 
z
" id="DejaVuSans-53"/>
       </defs>
       <use xlink:href="#DejaVuSans-8722"/>
       <use x="83.789062" xlink:href="#DejaVuSans-48"/>
       <use x="147.412109" xlink:href="#DejaVuSans-46"/>
       <use x="179.199219" xlink:href="#DejaVuSans-49"/>
       <use x="242.822266" xlink:href="#DejaVuSans-53"/>
      </g>
     </g>
    </g>
    <g id="ytick_2">
     <g id="line2d_7">
      <g>
       <use style="stroke:#000000;stroke-width:0.8;" x="90" xlink:href="#mbfc4a08ebf" y="411.320286"/>
      </g>
     </g>
     <g id="text_7">
      <!-- −0.10 -->
      <g transform="translate(52.354687 415.119505)scale(0.1 -0.1)">
       <use xlink:href="#DejaVuSans-8722"/>
       <use x="83.789062" xlink:href="#DejaVuSans-48"/>
       <use x="147.412109" xlink:href="#DejaVuSans-46"/>
       <use x="179.199219" xlink:href="#DejaVuSans-49"/>
       <use x="242.822266" xlink:href="#DejaVuSans-48"/>
      </g>
     </g>
    </g>
    <g id="ytick_3">
     <g id="line2d_8">
      <g>
       <use style="stroke:#000000;stroke-width:0.8;" x="90" xlink:href="#mbfc4a08ebf" y="355.166565"/>
      </g>
     </g>
     <g id="text_8">
      <!-- −0.05 -->
      <g transform="translate(52.354687 358.965784)scale(0.1 -0.1)">
       <use xlink:href="#DejaVuSans-8722"/>
       <use x="83.789062" xlink:href="#DejaVuSans-48"/>
       <use x="147.412109" xlink:href="#DejaVuSans-46"/>
       <use x="179.199219" xlink:href="#DejaVuSans-48"/>
       <use x="242.822266" xlink:href="#DejaVuSans-53"/>
      </g>
     </g>
    </g>
    <g id="ytick_4">
     <g id="line2d_9">
      <g>
       <use style="stroke:#000000;stroke-width:0.8;" x="90" xlink:href="#mbfc4a08ebf" y="299.012844"/>
      </g>
     </g>
     <g id="text_9">
      <!-- 0.00 -->
      <g transform="translate(60.734375 302.812063)scale(0.1 -0.1)">
       <use xlink:href="#DejaVuSans-48"/>
       <use x="63.623047" xlink:href="#DejaVuSans-46"/>
       <use x="95.410156" xlink:href="#DejaVuSans-48"/>
       <use x="159.033203" xlink:href="#DejaVuSans-48"/>
      </g>
     </g>
    </g>
    <g id="ytick_5">
     <g id="line2d_10">
      <g>
       <use style="stroke:#000000;stroke-width:0.8;" x="90" xlink:href="#mbfc4a08ebf" y="242.859123"/>
      </g>
     </g>
     <g id="text_10">
      <!-- 0.05 -->
      <g transform="translate(60.734375 246.658342)scale(0.1 -0.1)">
       <use xlink:href="#DejaVuSans-48"/>
       <use x="63.623047" xlink:href="#DejaVuSans-46"/>
       <use x="95.410156" xlink:href="#DejaVuSans-48"/>
       <use x="159.033203" xlink:href="#DejaVuSans-53"/>
      </g>
     </g>
    </g>
    <g id="ytick_6">
     <g id="line2d_11">
      <g>
       <use style="stroke:#000000;stroke-width:0.8;" x="90" xlink:href="#mbfc4a08ebf" y="186.705402"/>
      </g>
     </g>
     <g id="text_11">
      <!-- 0.10 -->
      <g transform="translate(60.734375 190.504621)scale(0.1 -0.1)">
       <use xlink:href="#DejaVuSans-48"/>
       <use x="63.623047" xlink:href="#DejaVuSans-46"/>
       <use x="95.410156" xlink:href="#DejaVuSans-49"/>
       <use x="159.033203" xlink:href="#DejaVuSans-48"/>
      </g>
     </g>
    </g>
    <g id="ytick_7">
     <g id="line2d_12">
      <g>
       <use style="stroke:#000000;stroke-width:0.8;" x="90" xlink:href="#mbfc4a08ebf" y="130.551681"/>
      </g>
     </g>
     <g id="text_12">
      <!-- 0.15 -->
      <g transform="translate(60.734375 134.350899)scale(0.1 -0.1)">
       <use xlink:href="#DejaVuSans-48"/>
       <use x="63.623047" xlink:href="#DejaVuSans-46"/>
       <use x="95.410156" xlink:href="#DejaVuSans-49"/>
       <use x="159.033203" xlink:href="#DejaVuSans-53"/>
      </g>
     </g>
    </g>
    <g id="ytick_8">
     <g id="line2d_13">
      <g>
       <use style="stroke:#000000;stroke-width:0.8;" x="90" xlink:href="#mbfc4a08ebf" y="74.39796"/>
      </g>
     </g>
     <g id="text_13">
      <!-- 0.20 -->
      <g transform="translate(60.734375 78.197178)scale(0.1 -0.1)">
       <use xlink:href="#DejaVuSans-48"/>
       <use x="63.623047" xlink:href="#DejaVuSans-46"/>
       <use x="95.410156" xlink:href="#DejaVuSans-50"/>
       <use x="159.033203" xlink:href="#DejaVuSans-48"/>
      </g>
     </g>
    </g>
   </g>
   <g id="line2d_14">
    <path clip-path="url(#p3eadd666fa)" d="M 721 221.007936 
L 716.398765 220.599788 
L 685.502987 218.129024 
L 656.044745 216.028875 
L 627.922962 214.276879 
L 601.070252 212.839344 
L 575.408002 211.705038 
L 550.745287 210.840271 
L 527.070878 210.312426 
L 504.407237 210.06535 
L 482.698208 210.099042 
L 461.887639 210.379811 
L 441.930607 210.885194 
L 422.782188 211.615193 
L 404.40869 212.536114 
L 386.765191 213.647957 
L 369.817998 214.928262 
L 353.533419 216.365797 
L 337.877761 217.960563 
L 322.817333 219.690098 
L 308.329673 221.554401 
L 294.39232 223.553474 
L 280.96035 225.676084 
L 268.033763 227.922233 
L 255.578868 230.280689 
L 243.584433 232.762684 
L 232.016766 235.356986 
L 220.864637 238.074826 
L 210.116815 240.927435 
L 199.750838 243.914813 
L 189.744245 247.059421 
L 180.108266 250.36126 
L 170.80921 253.865252 
L 161.858307 257.60509 
L 153.221865 261.636927 
L 144.922345 266.05061 
L 136.959747 271.014599 
L 129.356533 276.888278 
L 122.202549 284.693645 
L 118.945633 290.80317 
L 117.856251 299.012844 
L 120.540399 306.840673 
L 124.920389 312.197738 
L 133.388371 318.475724 
L 141.890044 322.79956 
L 150.537717 326.202476 
L 159.387543 329.032623 
L 168.461985 331.458464 
L 177.783502 333.581075 
L 187.363327 335.456609 
L 197.235151 337.118759 
L 207.410206 338.601217 
L 217.88849 339.926445 
L 228.714927 341.105673 
L 239.889518 342.150133 
L 251.423492 343.082284 
L 263.361773 343.890898 
L 275.704361 344.587204 
L 288.473717 345.171203 
L 301.703534 345.654125 
L 315.405042 346.047201 
L 329.611934 346.327969 
L 344.34667 346.507661 
L 359.631713 346.597507 
L 375.523216 346.586277 
L 392.021179 346.4852 
L 409.181756 346.283046 
L 427.03864 345.991047 
L 445.625521 345.597971 
L 464.987324 345.115049 
L 485.180203 344.542281 
L 506.249079 343.890898 
L 528.238876 343.138438 
L 551.216979 342.318594 
L 575.306925 341.408903 
L 600.643484 340.375675 
L 627.181732 339.185216 
L 654.977824 337.837527 
L 684.132836 336.343838 
L 714.725384 334.681688 
L 721 334.326397 
" style="fill:none;stroke:#ff0000;stroke-linecap:square;stroke-width:1.5;"/>
   </g>
   <g id="patch_3">
    <path d="M 90 512.64 
L 90 69.12 
" style="fill:none;stroke:#000000;stroke-linecap:square;stroke-linejoin:miter;stroke-width:0.8;"/>
   </g>
   <g id="patch_4">
    <path d="M 648 512.64 
L 648 69.12 
" style="fill:none;stroke:#000000;stroke-linecap:square;stroke-linejoin:miter;stroke-width:0.8;"/>
   </g>
   <g id="patch_5">
    <path d="M 90 512.64 
L 648 512.64 
" style="fill:none;stroke:#000000;stroke-linecap:square;stroke-linejoin:miter;stroke-width:0.8;"/>
   </g>
   <g id="patch_6">
    <path d="M 90 69.12 
L 648 69.12 
" style="fill:none;stroke:#000000;stroke-linecap:square;stroke-linejoin:miter;stroke-width:0.8;"/>
   </g>
  </g>
  <g id="axes_2">
   <g id="matplotlib.axis_3">
    <g id="ytick_9">
     <g id="line2d_15">
      <path clip-path="url(#p3eadd666fa)" d="M 90 502.413176 
L 648 502.413176 
" style="fill:none;stroke:#b0b0b0;stroke-linecap:square;stroke-width:0.8;"/>
     </g>
     <g id="line2d_16">
      <defs>
       <path d="M 0 0 
L 3.5 0 
" id="m5366d52428" style="stroke:#000000;stroke-width:0.8;"/>
      </defs>
      <g>
       <use style="stroke:#000000;stroke-width:0.8;" x="648" xlink:href="#m5366d52428" y="502.413176"/>
      </g>
     </g>
     <g id="text_14">
      <!-- −150 -->
      <g transform="translate(655 506.212395)scale(0.1 -0.1)">
       <use xlink:href="#DejaVuSans-8722"/>
       <use x="83.789062" xlink:href="#DejaVuSans-49"/>
       <use x="147.412109" xlink:href="#DejaVuSans-53"/>
       <use x="211.035156" xlink:href="#DejaVuSans-48"/>
      </g>
     </g>
    </g>
    <g id="ytick_10">
     <g id="line2d_17">
      <path clip-path="url(#p3eadd666fa)" d="M 90 435.450353 
L 648 435.450353 
" style="fill:none;stroke:#b0b0b0;stroke-linecap:square;stroke-width:0.8;"/>
     </g>
     <g id="line2d_18">
      <g>
       <use style="stroke:#000000;stroke-width:0.8;" x="648" xlink:href="#m5366d52428" y="435.450353"/>
      </g>
     </g>
     <g id="text_15">
      <!-- −100 -->
      <g transform="translate(655 439.249572)scale(0.1 -0.1)">
       <use xlink:href="#DejaVuSans-8722"/>
       <use x="83.789062" xlink:href="#DejaVuSans-49"/>
       <use x="147.412109" xlink:href="#DejaVuSans-48"/>
       <use x="211.035156" xlink:href="#DejaVuSans-48"/>
      </g>
     </g>
    </g>
    <g id="ytick_11">
     <g id="line2d_19">
      <path clip-path="url(#p3eadd666fa)" d="M 90 368.487529 
L 648 368.487529 
" style="fill:none;stroke:#b0b0b0;stroke-linecap:square;stroke-width:0.8;"/>
     </g>
     <g id="line2d_20">
      <g>
       <use style="stroke:#000000;stroke-width:0.8;" x="648" xlink:href="#m5366d52428" y="368.487529"/>
      </g>
     </g>
     <g id="text_16">
      <!-- −50 -->
      <g transform="translate(655 372.286748)scale(0.1 -0.1)">
       <use xlink:href="#DejaVuSans-8722"/>
       <use x="83.789062" xlink:href="#DejaVuSans-53"/>
       <use x="147.412109" xlink:href="#DejaVuSans-48"/>
      </g>
     </g>
    </g>
    <g id="ytick_12">
     <g id="line2d_21">
      <path clip-path="url(#p3eadd666fa)" d="M 90 301.524706 
L 648 301.524706 
" style="fill:none;stroke:#b0b0b0;stroke-linecap:square;stroke-width:0.8;"/>
     </g>
     <g id="line2d_22">
      <g>
       <use style="stroke:#000000;stroke-width:0.8;" x="648" xlink:href="#m5366d52428" y="301.524706"/>
      </g>
     </g>
     <g id="text_17">
      <!-- 0 -->
      <g transform="translate(655 305.323925)scale(0.1 -0.1)">
       <use xlink:href="#DejaVuSans-48"/>
      </g>
     </g>
    </g>
    <g id="ytick_13">
     <g id="line2d_23">
      <path clip-path="url(#p3eadd666fa)" d="M 90 234.561882 
L 648 234.561882 
" style="fill:none;stroke:#b0b0b0;stroke-linecap:square;stroke-width:0.8;"/>
     </g>
     <g id="line2d_24">
      <g>
       <use style="stroke:#000000;stroke-width:0.8;" x="648" xlink:href="#m5366d52428" y="234.561882"/>
      </g>
     </g>
     <g id="text_18">
      <!-- 50 -->
      <g transform="translate(655 238.361101)scale(0.1 -0.1)">
       <use xlink:href="#DejaVuSans-53"/>
       <use x="63.623047" xlink:href="#DejaVuSans-48"/>
      </g>
     </g>
    </g>
    <g id="ytick_14">
     <g id="line2d_25">
      <path clip-path="url(#p3eadd666fa)" d="M 90 167.599059 
L 648 167.599059 
" style="fill:none;stroke:#b0b0b0;stroke-linecap:square;stroke-width:0.8;"/>
     </g>
     <g id="line2d_26">
      <g>
       <use style="stroke:#000000;stroke-width:0.8;" x="648" xlink:href="#m5366d52428" y="167.599059"/>
      </g>
     </g>
     <g id="text_19">
      <!-- 100 -->
      <g transform="translate(655 171.398278)scale(0.1 -0.1)">
       <use xlink:href="#DejaVuSans-49"/>
       <use x="63.623047" xlink:href="#DejaVuSans-48"/>
       <use x="127.246094" xlink:href="#DejaVuSans-48"/>
      </g>
     </g>
    </g>
    <g id="ytick_15">
     <g id="line2d_27">
      <path clip-path="url(#p3eadd666fa)" d="M 90 100.636235 
L 648 100.636235 
" style="fill:none;stroke:#b0b0b0;stroke-linecap:square;stroke-width:0.8;"/>
     </g>
     <g id="line2d_28">
      <g>
       <use style="stroke:#000000;stroke-width:0.8;" x="648" xlink:href="#m5366d52428" y="100.636235"/>
      </g>
     </g>
     <g id="text_20">
      <!-- 150 -->
      <g transform="translate(655 104.435454)scale(0.1 -0.1)">
       <use xlink:href="#DejaVuSans-49"/>
       <use x="63.623047" xlink:href="#DejaVuSans-53"/>
       <use x="127.246094" xlink:href="#DejaVuSans-48"/>
      </g>
     </g>
    </g>
   </g>
   <g id="line2d_29">
    <path clip-path="url(#p3eadd666fa)" d="M 721 285.886987 
L 699.473662 284.68863 
L 677.526357 283.265612 
L 662.889127 282.093668 
L 648.704953 280.72682 
L 632.227878 278.925457 
L 620.782509 277.488918 
L 612.540397 276.231213 
L 604.755052 274.816087 
L 596.968599 273.15546 
L 584.141597 270.192071 
L 573.145104 267.456603 
L 569.479256 266.308926 
L 565.813222 264.911639 
L 562.605283 263.444225 
L 559.855495 261.968729 
L 557.105588 260.252941 
L 554.355556 258.248185 
L 552.063765 256.311253 
L 549.771881 254.097357 
L 546.563092 250.684768 
L 543.35414 246.911296 
L 540.60349 243.352595 
L 537.852741 239.457259 
L 535.101903 235.18495 
L 532.350984 230.489818 
L 529.599994 225.319763 
L 526.848944 219.613873 
L 525.014881 215.31605 
L 523.180796 210.396356 
L 521.34669 204.716545 
L 519.512564 198.093749 
L 518.136957 192.362392 
L 516.761339 185.826247 
L 515.385711 178.307437 
L 514.010074 169.571334 
L 512.634428 159.301965 
L 511.258773 147.06343 
L 509.88311 132.23704 
L 508.507439 113.914309 
L 507.59032 99.099167 
L 506.673199 81.530821 
L 505.756074 60.367529 
L 504.838947 34.385374 
L 503.855701 -1 
M 496.409207 -1 
L 496.396612 577 
M 487.796592 577 
L 486.954725 552.465703 
L 486.037594 530.410683 
L 484.661903 503.842861 
L 483.28622 482.890333 
L 481.910545 465.929558 
L 480.53488 451.866336 
L 479.159224 440.011055 
L 477.783579 429.881584 
L 476.407945 421.126637 
L 475.032323 413.484211 
L 473.198181 404.686997 
L 471.364063 397.164339 
L 469.529971 390.657951 
L 467.695907 384.974918 
L 465.861872 379.968247 
L 464.027868 375.52397 
L 461.73541 370.624333 
L 459.443007 366.269692 
L 457.150665 362.335508 
L 454.399947 358.09312 
L 451.64934 354.299946 
L 448.898856 350.89236 
L 446.148508 347.817941 
L 442.939956 344.594502 
L 440.189943 342.123237 
L 437.4401 339.953958 
L 434.23217 337.744055 
L 431.024485 335.818053 
L 427.358869 333.900883 
L 423.693593 332.232323 
L 418.196353 330.021184 
L 411.78407 327.66038 
L 404.915396 325.3744 
L 399.421837 323.760248 
L 393.471979 322.262377 
L 387.066283 320.881465 
L 378.833397 319.352 
L 369.6901 317.878198 
L 355.52853 315.868164 
L 345.94406 314.69196 
L 335.455771 313.655209 
L 314.511327 311.852671 
L 298.158373 310.648415 
L 273.256461 309.164634 
L 243.549524 307.735917 
L 170.526223 304.892778 
L 137.808883 303.524617 
L 126.41446 302.835317 
L 120.552643 302.273576 
L 118.443742 301.885827 
L 117.792832 301.587172 
L 117.803725 301.444743 
L 118.09991 301.257573 
L 119.01218 301.002249 
L 121.697229 300.536991 
L 126.427679 299.964565 
L 137.593911 298.874827 
L 185.332844 294.373983 
L 200.257383 292.583919 
L 213.432708 290.814396 
L 222.541559 289.350566 
L 232.121007 287.579038 
L 247.196308 284.611959 
L 251.768634 283.38902 
L 262.749056 280.057635 
L 268.24205 278.252562 
L 272.8207 276.503889 
L 276.942324 274.696673 
L 281.980847 272.242882 
L 287.020302 269.53611 
L 292.518764 266.305869 
L 299.392887 261.991921 
L 303.976152 258.926608 
L 306.26792 257.107203 
L 308.559777 255.009778 
L 310.851724 252.576397 
L 312.685347 250.337494 
L 314.519027 247.785117 
L 316.811207 244.119724 
L 319.561936 239.233483 
L 321.854293 234.734372 
L 324.146717 229.803712 
L 326.4392 224.398062 
L 328.731733 218.471811 
L 331.024308 211.950421 
L 333.31692 204.647648 
L 335.609567 196.421871 
L 337.443706 189.069714 
L 339.277863 180.925899 
L 341.112037 171.873764 
L 342.946226 161.774593 
L 344.780428 150.440661 
L 346.156088 140.63412 
L 347.531754 129.255053 
L 348.907426 115.898792 
L 350.283103 100.008562 
L 351.658785 80.796604 
L 353.034472 57.110545 
L 353.951599 38.003537 
L 354.868727 15.396818 
L 355.43903 -1 
M 365.81477 -1 
L 365.818744 577 
M 380.048796 577 
L 381.007091 560.754428 
L 382.38278 540.199934 
L 383.758466 522.32195 
L 385.592706 501.832396 
L 387.426939 484.403311 
L 389.261161 469.4111 
L 391.095374 456.390057 
L 392.929576 445.072483 
L 394.30522 437.819661 
L 396.139402 429.531432 
L 397.973572 422.514066 
L 399.807731 416.51576 
L 401.641879 411.348364 
L 403.476016 406.868571 
L 405.310141 402.965418 
L 407.144256 399.551761 
L 408.978359 396.558321 
L 413.10505 390.509817 
L 417.231677 384.842381 
L 421.358232 379.551835 
L 425.484704 374.628164 
L 428.694121 371.092767 
L 431.445005 368.459328 
L 434.195849 366.164756 
L 436.946656 364.160112 
L 439.697426 362.406293 
L 442.906613 360.635472 
L 446.115755 359.121235 
L 453.450769 355.998343 
L 460.785534 353.110953 
L 467.203233 350.787658 
L 471.328789 349.540819 
L 475.912652 348.401452 
L 480.496436 347.491025 
L 485.538523 346.725103 
L 491.038899 345.873183 
L 496.997513 344.7204 
L 503.41429 343.255787 
L 511.205758 341.440425 
L 515.788815 340.672005 
L 520.371786 340.123252 
L 525.412983 339.752975 
L 546.493912 338.633451 
L 557.03395 337.627208 
L 585.902214 334.653153 
L 601.938237 332.709297 
L 612.933328 331.455768 
L 625.301804 330.278637 
L 637.211248 329.360385 
L 649.577908 328.632798 
L 707.736872 325.825328 
L 721 325.424323 
L 721 325.424323 
" style="fill:none;stroke:#0000ff;stroke-dasharray:5.55,2.4;stroke-dashoffset:0;stroke-width:1.5;"/>
   </g>
   <g id="line2d_30">
    <path clip-path="url(#p3eadd666fa)" d="M 721 286.426682 
L 716.84085 286.426682 
L 716.84085 284.777912 
L 685.757716 284.777912 
L 685.757716 282.739306 
L 656.483765 282.739306 
L 656.483765 280.027923 
L 628.107764 280.027923 
L 628.107764 276.507814 
L 601.090972 276.507814 
L 601.090972 271.225686 
L 575.436165 271.225686 
L 575.436165 263.329807 
L 551.146944 263.329807 
L 551.146944 241.457628 
L 527.307427 241.457628 
L 527.307427 178.678362 
L 504.838925 178.678362 
L 504.838925 577 
M 482.827664 577 
L 482.827664 400.790395 
L 462.193924 400.790395 
L 462.193924 354.410456 
L 442.023283 354.410456 
L 442.023283 336.654433 
L 423.235564 336.654433 
L 423.235564 328.244506 
L 404.457567 328.244506 
L 404.457567 322.776947 
L 387.066406 322.776947 
L 387.066406 319.252232 
L 370.147304 319.252232 
L 370.147304 316.695971 
L 353.702427 316.695971 
L 353.702427 314.672055 
L 338.191131 314.672055 
L 338.191131 313.186673 
L 323.156729 313.186673 
L 323.156729 311.932181 
L 308.601965 311.932181 
L 308.601965 310.861882 
L 294.5298 310.861882 
L 294.5298 309.999578 
L 281.394004 309.999578 
L 281.394004 309.232127 
L 268.29073 309.232127 
L 268.29073 308.597256 
L 255.674284 308.597256 
L 255.674284 307.996769 
L 243.998519 307.996769 
L 243.998519 307.496282 
L 232.363236 307.496282 
L 232.363236 307.020085 
L 221.223514 307.020085 
L 221.223514 306.570645 
L 210.14107 306.570645 
L 210.14107 306.171825 
L 200.006307 306.171825 
L 200.006307 305.786411 
L 189.942527 305.786411 
L 189.942527 305.433148 
L 180.397087 305.433148 
L 180.397087 305.078887 
L 170.953423 305.078887 
L 170.953423 304.730073 
L 162.065857 304.730073 
L 162.065857 304.393475 
L 153.336211 304.393475 
L 153.336211 304.043053 
L 145.235737 304.043053 
L 145.235737 303.67297 
L 137.051554 303.67297 
L 137.051554 303.258313 
L 129.424585 303.258313 
L 129.424585 302.752197 
L 122.288216 302.752197 
L 122.288216 302.238648 
L 119.026393 302.238648 
L 119.026393 301.702418 
L 117.882437 301.702418 
L 117.882437 301.065477 
L 117.940422 301.065477 
L 120.469019 301.065477 
L 120.469019 300.429716 
L 124.755029 300.429716 
L 124.755029 299.718267 
L 133.183128 299.718267 
L 133.183128 298.891415 
L 141.744242 298.891415 
L 141.744242 298.121315 
L 150.272218 298.121315 
L 150.272218 297.336872 
L 159.001518 297.336872 
L 159.001518 296.514895 
L 168.299271 296.514895 
L 168.299271 295.643315 
L 177.687352 295.643315 
L 177.687352 294.684073 
L 187.137262 294.684073 
L 187.137262 293.570608 
L 197.084655 293.570608 
L 197.084655 292.332536 
L 207.067249 292.332536 
L 207.067249 290.9355 
L 217.5301 290.9355 
L 217.5301 289.229056 
L 228.470316 289.229056 
L 228.470316 287.196102 
L 239.884412 287.196102 
L 239.884412 284.953424 
L 251.311375 284.953424 
L 251.311375 281.752072 
L 263.206805 281.752072 
L 263.206805 277.785305 
L 275.568404 277.785305 
L 275.568404 272.241348 
L 288.394856 272.241348 
L 288.394856 264.835308 
L 301.684477 264.835308 
L 301.684477 254.842052 
L 314.977504 254.842052 
L 314.977504 233.758328 
L 329.190276 233.758328 
L 329.190276 191.705675 
L 344.321878 191.705675 
L 344.321878 73.683699 
L 359.454392 73.683699 
L 359.454392 577 
M 375.504301 577 
L 375.504301 520.121123 
L 392.012476 520.121123 
L 392.012476 415.2127 
L 408.978353 415.2127 
L 408.978353 383.42539 
L 426.860168 383.42539 
L 426.860168 364.852405 
L 445.198844 364.852405 
L 445.198844 355.219547 
L 464.911219 355.219547 
L 464.911219 348.740061 
L 485.080151 348.740061 
L 485.080151 344.842726 
L 506.164259 344.842726 
L 506.164259 340.662977 
L 528.162706 340.662977 
L 528.162706 339.060579 
L 551.07658 339.060579 
L 551.07658 336.990201 
L 574.905196 336.990201 
L 574.905196 334.365604 
L 600.563783 334.365604 
L 600.563783 331.380018 
L 627.13408 331.380018 
L 627.13408 329.146871 
L 654.615946 329.146871 
L 654.615946 327.665381 
L 683.925972 327.665381 
L 683.925972 326.174264 
L 714.604882 326.174264 
L 714.604882 325.176637 
L 721 325.176637 
L 721 325.176637 
" style="fill:none;stroke:#000000;stroke-dasharray:5.55,2.4;stroke-dashoffset:0;stroke-width:1.5;"/>
   </g>
   <g id="patch_7">
    <path d="M 90 512.64 
L 90 69.12 
" style="fill:none;stroke:#000000;stroke-linecap:square;stroke-linejoin:miter;stroke-width:0.8;"/>
   </g>
   <g id="patch_8">
    <path d="M 648 512.64 
L 648 69.12 
" style="fill:none;stroke:#000000;stroke-linecap:square;stroke-linejoin:miter;stroke-width:0.8;"/>
   </g>
   <g id="patch_9">
    <path d="M 90 512.64 
L 648 512.64 
" style="fill:none;stroke:#000000;stroke-linecap:square;stroke-linejoin:miter;stroke-width:0.8;"/>
   </g>
   <g id="patch_10">
    <path d="M 90 69.12 
L 648 69.12 
" style="fill:none;stroke:#000000;stroke-linecap:square;stroke-linejoin:miter;stroke-width:0.8;"/>
   </g>
   <g id="text_21">
    <!-- Example of 3.6.1.3 -->
    <g transform="translate(312.380625 63.12)scale(0.12 -0.12)">
     <defs>
      <path d="M 9.8125 72.90625 
L 55.90625 72.90625 
L 55.90625 64.59375 
L 19.671875 64.59375 
L 19.671875 43.015625 
L 54.390625 43.015625 
L 54.390625 34.71875 
L 19.671875 34.71875 
L 19.671875 8.296875 
L 56.78125 8.296875 
L 56.78125 0 
L 9.8125 0 
z
" id="DejaVuSans-69"/>
      <path d="M 54.890625 54.6875 
L 35.109375 28.078125 
L 55.90625 0 
L 45.3125 0 
L 29.390625 21.484375 
L 13.484375 0 
L 2.875 0 
L 24.125 28.609375 
L 4.6875 54.6875 
L 15.28125 54.6875 
L 29.78125 35.203125 
L 44.28125 54.6875 
z
" id="DejaVuSans-120"/>
      <path d="M 34.28125 27.484375 
Q 23.390625 27.484375 19.1875 25 
Q 14.984375 22.515625 14.984375 16.5 
Q 14.984375 11.71875 18.140625 8.90625 
Q 21.296875 6.109375 26.703125 6.109375 
Q 34.1875 6.109375 38.703125 11.40625 
Q 43.21875 16.703125 43.21875 25.484375 
L 43.21875 27.484375 
z
M 52.203125 31.203125 
L 52.203125 0 
L 43.21875 0 
L 43.21875 8.296875 
Q 40.140625 3.328125 35.546875 0.953125 
Q 30.953125 -1.421875 24.3125 -1.421875 
Q 15.921875 -1.421875 10.953125 3.296875 
Q 6 8.015625 6 15.921875 
Q 6 25.140625 12.171875 29.828125 
Q 18.359375 34.515625 30.609375 34.515625 
L 43.21875 34.515625 
L 43.21875 35.40625 
Q 43.21875 41.609375 39.140625 45 
Q 35.0625 48.390625 27.6875 48.390625 
Q 23 48.390625 18.546875 47.265625 
Q 14.109375 46.140625 10.015625 43.890625 
L 10.015625 52.203125 
Q 14.9375 54.109375 19.578125 55.046875 
Q 24.21875 56 28.609375 56 
Q 40.484375 56 46.34375 49.84375 
Q 52.203125 43.703125 52.203125 31.203125 
z
" id="DejaVuSans-97"/>
      <path d="M 52 44.1875 
Q 55.375 50.25 60.0625 53.125 
Q 64.75 56 71.09375 56 
Q 79.640625 56 84.28125 50.015625 
Q 88.921875 44.046875 88.921875 33.015625 
L 88.921875 0 
L 79.890625 0 
L 79.890625 32.71875 
Q 79.890625 40.578125 77.09375 44.375 
Q 74.3125 48.1875 68.609375 48.1875 
Q 61.625 48.1875 57.5625 43.546875 
Q 53.515625 38.921875 53.515625 30.90625 
L 53.515625 0 
L 44.484375 0 
L 44.484375 32.71875 
Q 44.484375 40.625 41.703125 44.40625 
Q 38.921875 48.1875 33.109375 48.1875 
Q 26.21875 48.1875 22.15625 43.53125 
Q 18.109375 38.875 18.109375 30.90625 
L 18.109375 0 
L 9.078125 0 
L 9.078125 54.6875 
L 18.109375 54.6875 
L 18.109375 46.1875 
Q 21.1875 51.21875 25.484375 53.609375 
Q 29.78125 56 35.6875 56 
Q 41.65625 56 45.828125 52.96875 
Q 50 49.953125 52 44.1875 
z
" id="DejaVuSans-109"/>
      <path d="M 18.109375 8.203125 
L 18.109375 -20.796875 
L 9.078125 -20.796875 
L 9.078125 54.6875 
L 18.109375 54.6875 
L 18.109375 46.390625 
Q 20.953125 51.265625 25.265625 53.625 
Q 29.59375 56 35.59375 56 
Q 45.5625 56 51.78125 48.09375 
Q 58.015625 40.1875 58.015625 27.296875 
Q 58.015625 14.40625 51.78125 6.484375 
Q 45.5625 -1.421875 35.59375 -1.421875 
Q 29.59375 -1.421875 25.265625 0.953125 
Q 20.953125 3.328125 18.109375 8.203125 
z
M 48.6875 27.296875 
Q 48.6875 37.203125 44.609375 42.84375 
Q 40.53125 48.484375 33.40625 48.484375 
Q 26.265625 48.484375 22.1875 42.84375 
Q 18.109375 37.203125 18.109375 27.296875 
Q 18.109375 17.390625 22.1875 11.75 
Q 26.265625 6.109375 33.40625 6.109375 
Q 40.53125 6.109375 44.609375 11.75 
Q 48.6875 17.390625 48.6875 27.296875 
z
" id="DejaVuSans-112"/>
      <path d="M 9.421875 75.984375 
L 18.40625 75.984375 
L 18.40625 0 
L 9.421875 0 
z
" id="DejaVuSans-108"/>
      <path d="M 56.203125 29.59375 
L 56.203125 25.203125 
L 14.890625 25.203125 
Q 15.484375 15.921875 20.484375 11.0625 
Q 25.484375 6.203125 34.421875 6.203125 
Q 39.59375 6.203125 44.453125 7.46875 
Q 49.3125 8.734375 54.109375 11.28125 
L 54.109375 2.78125 
Q 49.265625 0.734375 44.1875 -0.34375 
Q 39.109375 -1.421875 33.890625 -1.421875 
Q 20.796875 -1.421875 13.15625 6.1875 
Q 5.515625 13.8125 5.515625 26.8125 
Q 5.515625 40.234375 12.765625 48.109375 
Q 20.015625 56 32.328125 56 
Q 43.359375 56 49.78125 48.890625 
Q 56.203125 41.796875 56.203125 29.59375 
z
M 47.21875 32.234375 
Q 47.125 39.59375 43.09375 43.984375 
Q 39.0625 48.390625 32.421875 48.390625 
Q 24.90625 48.390625 20.390625 44.140625 
Q 15.875 39.890625 15.1875 32.171875 
z
" id="DejaVuSans-101"/>
      <path id="DejaVuSans-32"/>
      <path d="M 30.609375 48.390625 
Q 23.390625 48.390625 19.1875 42.75 
Q 14.984375 37.109375 14.984375 27.296875 
Q 14.984375 17.484375 19.15625 11.84375 
Q 23.34375 6.203125 30.609375 6.203125 
Q 37.796875 6.203125 41.984375 11.859375 
Q 46.1875 17.53125 46.1875 27.296875 
Q 46.1875 37.015625 41.984375 42.703125 
Q 37.796875 48.390625 30.609375 48.390625 
z
M 30.609375 56 
Q 42.328125 56 49.015625 48.375 
Q 55.71875 40.765625 55.71875 27.296875 
Q 55.71875 13.875 49.015625 6.21875 
Q 42.328125 -1.421875 30.609375 -1.421875 
Q 18.84375 -1.421875 12.171875 6.21875 
Q 5.515625 13.875 5.515625 27.296875 
Q 5.515625 40.765625 12.171875 48.375 
Q 18.84375 56 30.609375 56 
z
" id="DejaVuSans-111"/>
      <path d="M 37.109375 75.984375 
L 37.109375 68.5 
L 28.515625 68.5 
Q 23.6875 68.5 21.796875 66.546875 
Q 19.921875 64.59375 19.921875 59.515625 
L 19.921875 54.6875 
L 34.71875 54.6875 
L 34.71875 47.703125 
L 19.921875 47.703125 
L 19.921875 0 
L 10.890625 0 
L 10.890625 47.703125 
L 2.296875 47.703125 
L 2.296875 54.6875 
L 10.890625 54.6875 
L 10.890625 58.5 
Q 10.890625 67.625 15.140625 71.796875 
Q 19.390625 75.984375 28.609375 75.984375 
z
" id="DejaVuSans-102"/>
      <path d="M 33.015625 40.375 
Q 26.375 40.375 22.484375 35.828125 
Q 18.609375 31.296875 18.609375 23.390625 
Q 18.609375 15.53125 22.484375 10.953125 
Q 26.375 6.390625 33.015625 6.390625 
Q 39.65625 6.390625 43.53125 10.953125 
Q 47.40625 15.53125 47.40625 23.390625 
Q 47.40625 31.296875 43.53125 35.828125 
Q 39.65625 40.375 33.015625 40.375 
z
M 52.59375 71.296875 
L 52.59375 62.3125 
Q 48.875 64.0625 45.09375 64.984375 
Q 41.3125 65.921875 37.59375 65.921875 
Q 27.828125 65.921875 22.671875 59.328125 
Q 17.53125 52.734375 16.796875 39.40625 
Q 19.671875 43.65625 24.015625 45.921875 
Q 28.375 48.1875 33.59375 48.1875 
Q 44.578125 48.1875 50.953125 41.515625 
Q 57.328125 34.859375 57.328125 23.390625 
Q 57.328125 12.15625 50.6875 5.359375 
Q 44.046875 -1.421875 33.015625 -1.421875 
Q 20.359375 -1.421875 13.671875 8.265625 
Q 6.984375 17.96875 6.984375 36.375 
Q 6.984375 53.65625 15.1875 63.9375 
Q 23.390625 74.21875 37.203125 74.21875 
Q 40.921875 74.21875 44.703125 73.484375 
Q 48.484375 72.75 52.59375 71.296875 
z
" id="DejaVuSans-54"/>
     </defs>
     <use xlink:href="#DejaVuSans-69"/>
     <use x="63.183594" xlink:href="#DejaVuSans-120"/>
     <use x="122.363281" xlink:href="#DejaVuSans-97"/>
     <use x="183.642578" xlink:href="#DejaVuSans-109"/>
     <use x="281.054688" xlink:href="#DejaVuSans-112"/>
     <use x="344.53125" xlink:href="#DejaVuSans-108"/>
     <use x="372.314453" xlink:href="#DejaVuSans-101"/>
     <use x="433.837891" xlink:href="#DejaVuSans-32"/>
     <use x="465.625" xlink:href="#DejaVuSans-111"/>
     <use x="526.806641" xlink:href="#DejaVuSans-102"/>
     <use x="562.011719" xlink:href="#DejaVuSans-32"/>
     <use x="593.798828" xlink:href="#DejaVuSans-51"/>
     <use x="657.421875" xlink:href="#DejaVuSans-46"/>
     <use x="689.208984" xlink:href="#DejaVuSans-54"/>
     <use x="752.832031" xlink:href="#DejaVuSans-46"/>
     <use x="784.619141" xlink:href="#DejaVuSans-49"/>
     <use x="848.242188" xlink:href="#DejaVuSans-46"/>
     <use x="880.029297" xlink:href="#DejaVuSans-51"/>
    </g>
   </g>
   <g id="legend_1">
    <g id="patch_11">
     <path d="M 548.685938 107.0325 
L 641 107.0325 
Q 643 107.0325 643 105.0325 
L 643 76.12 
Q 643 74.12 641 74.12 
L 548.685938 74.12 
Q 546.685938 74.12 546.685938 76.12 
L 546.685938 105.0325 
Q 546.685938 107.0325 548.685938 107.0325 
z
" style="fill:#ffffff;opacity:0.8;stroke:#cccccc;stroke-linejoin:miter;"/>
    </g>
    <g id="line2d_31">
     <path d="M 550.685938 82.218438 
L 570.685938 82.218438 
" style="fill:none;stroke:#0000ff;stroke-dasharray:5.55,2.4;stroke-dashoffset:0;stroke-width:1.5;"/>
    </g>
    <g id="line2d_32"/>
    <g id="text_22">
     <!-- m2_spline -->
     <g transform="translate(578.685938 85.718438)scale(0.1 -0.1)">
      <defs>
       <path d="M 50.984375 -16.609375 
L 50.984375 -23.578125 
L -0.984375 -23.578125 
L -0.984375 -16.609375 
z
" id="DejaVuSans-95"/>
       <path d="M 44.28125 53.078125 
L 44.28125 44.578125 
Q 40.484375 46.53125 36.375 47.5 
Q 32.28125 48.484375 27.875 48.484375 
Q 21.1875 48.484375 17.84375 46.4375 
Q 14.5 44.390625 14.5 40.28125 
Q 14.5 37.15625 16.890625 35.375 
Q 19.28125 33.59375 26.515625 31.984375 
L 29.59375 31.296875 
Q 39.15625 29.25 43.1875 25.515625 
Q 47.21875 21.78125 47.21875 15.09375 
Q 47.21875 7.46875 41.1875 3.015625 
Q 35.15625 -1.421875 24.609375 -1.421875 
Q 20.21875 -1.421875 15.453125 -0.5625 
Q 10.6875 0.296875 5.421875 2 
L 5.421875 11.28125 
Q 10.40625 8.6875 15.234375 7.390625 
Q 20.0625 6.109375 24.8125 6.109375 
Q 31.15625 6.109375 34.5625 8.28125 
Q 37.984375 10.453125 37.984375 14.40625 
Q 37.984375 18.0625 35.515625 20.015625 
Q 33.0625 21.96875 24.703125 23.78125 
L 21.578125 24.515625 
Q 13.234375 26.265625 9.515625 29.90625 
Q 5.8125 33.546875 5.8125 39.890625 
Q 5.8125 47.609375 11.28125 51.796875 
Q 16.75 56 26.8125 56 
Q 31.78125 56 36.171875 55.265625 
Q 40.578125 54.546875 44.28125 53.078125 
z
" id="DejaVuSans-115"/>
       <path d="M 9.421875 54.6875 
L 18.40625 54.6875 
L 18.40625 0 
L 9.421875 0 
z
M 9.421875 75.984375 
L 18.40625 75.984375 
L 18.40625 64.59375 
L 9.421875 64.59375 
z
" id="DejaVuSans-105"/>
       <path d="M 54.890625 33.015625 
L 54.890625 0 
L 45.90625 0 
L 45.90625 32.71875 
Q 45.90625 40.484375 42.875 44.328125 
Q 39.84375 48.1875 33.796875 48.1875 
Q 26.515625 48.1875 22.3125 43.546875 
Q 18.109375 38.921875 18.109375 30.90625 
L 18.109375 0 
L 9.078125 0 
L 9.078125 54.6875 
L 18.109375 54.6875 
L 18.109375 46.1875 
Q 21.34375 51.125 25.703125 53.5625 
Q 30.078125 56 35.796875 56 
Q 45.21875 56 50.046875 50.171875 
Q 54.890625 44.34375 54.890625 33.015625 
z
" id="DejaVuSans-110"/>
      </defs>
      <use xlink:href="#DejaVuSans-109"/>
      <use x="97.412109" xlink:href="#DejaVuSans-50"/>
      <use x="161.035156" xlink:href="#DejaVuSans-95"/>
      <use x="211.035156" xlink:href="#DejaVuSans-115"/>
      <use x="263.134766" xlink:href="#DejaVuSans-112"/>
      <use x="326.611328" xlink:href="#DejaVuSans-108"/>
      <use x="354.394531" xlink:href="#DejaVuSans-105"/>
      <use x="382.177734" xlink:href="#DejaVuSans-110"/>
      <use x="445.556641" xlink:href="#DejaVuSans-101"/>
     </g>
    </g>
    <g id="line2d_33">
     <path d="M 550.685938 97.174688 
L 570.685938 97.174688 
" style="fill:none;stroke:#000000;stroke-dasharray:5.55,2.4;stroke-dashoffset:0;stroke-width:1.5;"/>
    </g>
    <g id="line2d_34"/>
    <g id="text_23">
     <!-- m2_polyline -->
     <g transform="translate(578.685938 100.674688)scale(0.1 -0.1)">
      <defs>
       <path d="M 32.171875 -5.078125 
Q 28.375 -14.84375 24.75 -17.8125 
Q 21.140625 -20.796875 15.09375 -20.796875 
L 7.90625 -20.796875 
L 7.90625 -13.28125 
L 13.1875 -13.28125 
Q 16.890625 -13.28125 18.9375 -11.515625 
Q 21 -9.765625 23.484375 -3.21875 
L 25.09375 0.875 
L 2.984375 54.6875 
L 12.5 54.6875 
L 29.59375 11.921875 
L 46.6875 54.6875 
L 56.203125 54.6875 
z
" id="DejaVuSans-121"/>
      </defs>
      <use xlink:href="#DejaVuSans-109"/>
      <use x="97.412109" xlink:href="#DejaVuSans-50"/>
      <use x="161.035156" xlink:href="#DejaVuSans-95"/>
      <use x="211.035156" xlink:href="#DejaVuSans-112"/>
      <use x="274.511719" xlink:href="#DejaVuSans-111"/>
      <use x="335.693359" xlink:href="#DejaVuSans-108"/>
      <use x="363.476562" xlink:href="#DejaVuSans-121"/>
      <use x="422.65625" xlink:href="#DejaVuSans-108"/>
      <use x="450.439453" xlink:href="#DejaVuSans-105"/>
      <use x="478.222656" xlink:href="#DejaVuSans-110"/>
      <use x="541.601562" xlink:href="#DejaVuSans-101"/>
     </g>
    </g>
   </g>
  </g>
 </g>
 <defs>
  <clipPath id="p3eadd666fa">
   <rect height="443.52" width="558" x="90" y="69.12"/>
  </clipPath>
 </defs>
</svg>
