<?xml version="1.0" encoding="utf-8" standalone="no"?>
<!DOCTYPE svg PUBLIC "-//W3C//DTD SVG 1.1//EN"
  "http://www.w3.org/Graphics/SVG/1.1/DTD/svg11.dtd">
<!-- Created with matplotlib (https://matplotlib.org/) -->
<svg height="576pt" version="1.1" viewBox="0 0 720 576" width="720pt" xmlns="http://www.w3.org/2000/svg" xmlns:xlink="http://www.w3.org/1999/xlink">
 <metadata>
  <rdf:RDF xmlns:cc="http://creativecommons.org/ns#" xmlns:dc="http://purl.org/dc/elements/1.1/" xmlns:rdf="http://www.w3.org/1999/02/22-rdf-syntax-ns#">
   <cc:Work>
    <dc:type rdf:resource="http://purl.org/dc/dcmitype/StillImage"/>
    <dc:date>2025-09-05T22:41:17.336346</dc:date>
    <dc:format>image/svg+xml</dc:format>
    <dc:creator>
     <cc:Agent>
      <dc:title>Matplotlib v3.3.2, https://matplotlib.org/</dc:title>
     </cc:Agent>
    </dc:creator>
   </cc:Work>
  </rdf:RDF>
 </metadata>
 <defs>
  <style type="text/css">*{stroke-linecap:butt;stroke-linejoin:round;}</style>
 </defs>
 <g id="figure_1">
  <g id="patch_1">
   <path d="M 0 576 
L 720 576 
L 720 0 
L 0 0 
z
" style="fill:#ffffff;"/>
  </g>
  <g id="axes_1">
   <g id="patch_2">
    <path d="M 90 512.64 
L 648 512.64 
L 648 69.12 
L 90 69.12 
z
" style="fill:#ffffff;"/>
   </g>
   <g id="Quiver_1">
    <path clip-path="url(#p6e2d60bf5e)" d="M 621.283504 301.119586 
L 595.105192 295.854476 
L 596.086182 299.466821 
L 580.665041 291.24268 
L 598.066622 289.620005 
L 595.765339 292.572204 
L 621.943651 297.837314 
L 621.283504 301.119586 
" style="fill:#ff0000;"/>
   </g>
   <g id="Quiver_2">
    <path clip-path="url(#p6e2d60bf5e)" d="M 305.805769 291.809396 
L 304.958553 318.498488 
L 308.35798 316.931556 
L 302.807383 333.50379 
L 298.319037 316.61288 
L 301.612239 318.392263 
L 302.459455 291.703171 
L 305.805769 291.809396 
" style="fill:#ff0000;"/>
   </g>
   <g id="matplotlib.axis_1">
    <g id="xtick_1">
     <g id="line2d_1">
      <defs>
       <path d="M 0 0 
L 0 3.5 
" id="m5134fdbdc0" style="stroke:#000000;stroke-width:0.8;"/>
      </defs>
      <g>
       <use style="stroke:#000000;stroke-width:0.8;" x="120.351057" xlink:href="#m5134fdbdc0" y="512.64"/>
      </g>
     </g>
     <g id="text_1">
      <!-- 0 -->
      <g transform="translate(117.169807 527.238438)scale(0.1 -0.1)">
       <defs>
        <path d="M 31.78125 66.40625 
Q 24.171875 66.40625 20.328125 58.90625 
Q 16.5 51.421875 16.5 36.375 
Q 16.5 21.390625 20.328125 13.890625 
Q 24.171875 6.390625 31.78125 6.390625 
Q 39.453125 6.390625 43.28125 13.890625 
Q 47.125 21.390625 47.125 36.375 
Q 47.125 51.421875 43.28125 58.90625 
Q 39.453125 66.40625 31.78125 66.40625 
z
M 31.78125 74.21875 
Q 44.046875 74.21875 50.515625 64.515625 
Q 56.984375 54.828125 56.984375 36.375 
Q 56.984375 17.96875 50.515625 8.265625 
Q 44.046875 -1.421875 31.78125 -1.421875 
Q 19.53125 -1.421875 13.0625 8.265625 
Q 6.59375 17.96875 6.59375 36.375 
Q 6.59375 54.828125 13.0625 64.515625 
Q 19.53125 74.21875 31.78125 74.21875 
z
" id="DejaVuSans-48"/>
       </defs>
       <use xlink:href="#DejaVuSans-48"/>
      </g>
     </g>
    </g>
    <g id="xtick_2">
     <g id="line2d_2">
      <g>
       <use style="stroke:#000000;stroke-width:0.8;" x="203.888128" xlink:href="#m5134fdbdc0" y="512.64"/>
      </g>
     </g>
     <g id="text_2">
      <!-- 50 -->
      <g transform="translate(197.525628 527.238438)scale(0.1 -0.1)">
       <defs>
        <path d="M 10.796875 72.90625 
L 49.515625 72.90625 
L 49.515625 64.59375 
L 19.828125 64.59375 
L 19.828125 46.734375 
Q 21.96875 47.46875 24.109375 47.828125 
Q 26.265625 48.1875 28.421875 48.1875 
Q 40.625 48.1875 47.75 41.5 
Q 54.890625 34.8125 54.890625 23.390625 
Q 54.890625 11.625 47.5625 5.09375 
Q 40.234375 -1.421875 26.90625 -1.421875 
Q 22.3125 -1.421875 17.546875 -0.640625 
Q 12.796875 0.140625 7.71875 1.703125 
L 7.71875 11.625 
Q 12.109375 9.234375 16.796875 8.0625 
Q 21.484375 6.890625 26.703125 6.890625 
Q 35.15625 6.890625 40.078125 11.328125 
Q 45.015625 15.765625 45.015625 23.390625 
Q 45.015625 31 40.078125 35.4375 
Q 35.15625 39.890625 26.703125 39.890625 
Q 22.75 39.890625 18.8125 39.015625 
Q 14.890625 38.140625 10.796875 36.28125 
z
" id="DejaVuSans-53"/>
       </defs>
       <use xlink:href="#DejaVuSans-53"/>
       <use x="63.623047" xlink:href="#DejaVuSans-48"/>
      </g>
     </g>
    </g>
    <g id="xtick_3">
     <g id="line2d_3">
      <g>
       <use style="stroke:#000000;stroke-width:0.8;" x="287.425198" xlink:href="#m5134fdbdc0" y="512.64"/>
      </g>
     </g>
     <g id="text_3">
      <!-- 100 -->
      <g transform="translate(277.881448 527.238438)scale(0.1 -0.1)">
       <defs>
        <path d="M 12.40625 8.296875 
L 28.515625 8.296875 
L 28.515625 63.921875 
L 10.984375 60.40625 
L 10.984375 69.390625 
L 28.421875 72.90625 
L 38.28125 72.90625 
L 38.28125 8.296875 
L 54.390625 8.296875 
L 54.390625 0 
L 12.40625 0 
z
" id="DejaVuSans-49"/>
       </defs>
       <use xlink:href="#DejaVuSans-49"/>
       <use x="63.623047" xlink:href="#DejaVuSans-48"/>
       <use x="127.246094" xlink:href="#DejaVuSans-48"/>
      </g>
     </g>
    </g>
    <g id="xtick_4">
     <g id="line2d_4">
      <g>
       <use style="stroke:#000000;stroke-width:0.8;" x="370.962268" xlink:href="#m5134fdbdc0" y="512.64"/>
      </g>
     </g>
     <g id="text_4">
      <!-- 150 -->
      <g transform="translate(361.418518 527.238438)scale(0.1 -0.1)">
       <use xlink:href="#DejaVuSans-49"/>
       <use x="63.623047" xlink:href="#DejaVuSans-53"/>
       <use x="127.246094" xlink:href="#DejaVuSans-48"/>
      </g>
     </g>
    </g>
    <g id="xtick_5">
     <g id="line2d_5">
      <g>
       <use style="stroke:#000000;stroke-width:0.8;" x="454.499339" xlink:href="#m5134fdbdc0" y="512.64"/>
      </g>
     </g>
     <g id="text_5">
      <!-- 200 -->
      <g transform="translate(444.955589 527.238438)scale(0.1 -0.1)">
       <defs>
        <path d="M 19.1875 8.296875 
L 53.609375 8.296875 
L 53.609375 0 
L 7.328125 0 
L 7.328125 8.296875 
Q 12.9375 14.109375 22.625 23.890625 
Q 32.328125 33.6875 34.8125 36.53125 
Q 39.546875 41.84375 41.421875 45.53125 
Q 43.3125 49.21875 43.3125 52.78125 
Q 43.3125 58.59375 39.234375 62.25 
Q 35.15625 65.921875 28.609375 65.921875 
Q 23.96875 65.921875 18.8125 64.3125 
Q 13.671875 62.703125 7.8125 59.421875 
L 7.8125 69.390625 
Q 13.765625 71.78125 18.9375 73 
Q 24.125 74.21875 28.421875 74.21875 
Q 39.75 74.21875 46.484375 68.546875 
Q 53.21875 62.890625 53.21875 53.421875 
Q 53.21875 48.921875 51.53125 44.890625 
Q 49.859375 40.875 45.40625 35.40625 
Q 44.1875 33.984375 37.640625 27.21875 
Q 31.109375 20.453125 19.1875 8.296875 
z
" id="DejaVuSans-50"/>
       </defs>
       <use xlink:href="#DejaVuSans-50"/>
       <use x="63.623047" xlink:href="#DejaVuSans-48"/>
       <use x="127.246094" xlink:href="#DejaVuSans-48"/>
      </g>
     </g>
    </g>
    <g id="xtick_6">
     <g id="line2d_6">
      <g>
       <use style="stroke:#000000;stroke-width:0.8;" x="538.036409" xlink:href="#m5134fdbdc0" y="512.64"/>
      </g>
     </g>
     <g id="text_6">
      <!-- 250 -->
      <g transform="translate(528.492659 527.238438)scale(0.1 -0.1)">
       <use xlink:href="#DejaVuSans-50"/>
       <use x="63.623047" xlink:href="#DejaVuSans-53"/>
       <use x="127.246094" xlink:href="#DejaVuSans-48"/>
      </g>
     </g>
    </g>
    <g id="xtick_7">
     <g id="line2d_7">
      <g>
       <use style="stroke:#000000;stroke-width:0.8;" x="621.573479" xlink:href="#m5134fdbdc0" y="512.64"/>
      </g>
     </g>
     <g id="text_7">
      <!-- 300 -->
      <g transform="translate(612.029729 527.238438)scale(0.1 -0.1)">
       <defs>
        <path d="M 40.578125 39.3125 
Q 47.65625 37.796875 51.625 33 
Q 55.609375 28.21875 55.609375 21.1875 
Q 55.609375 10.40625 48.1875 4.484375 
Q 40.765625 -1.421875 27.09375 -1.421875 
Q 22.515625 -1.421875 17.65625 -0.515625 
Q 12.796875 0.390625 7.625 2.203125 
L 7.625 11.71875 
Q 11.71875 9.328125 16.59375 8.109375 
Q 21.484375 6.890625 26.8125 6.890625 
Q 36.078125 6.890625 40.9375 10.546875 
Q 45.796875 14.203125 45.796875 21.1875 
Q 45.796875 27.640625 41.28125 31.265625 
Q 36.765625 34.90625 28.71875 34.90625 
L 20.21875 34.90625 
L 20.21875 43.015625 
L 29.109375 43.015625 
Q 36.375 43.015625 40.234375 45.921875 
Q 44.09375 48.828125 44.09375 54.296875 
Q 44.09375 59.90625 40.109375 62.90625 
Q 36.140625 65.921875 28.71875 65.921875 
Q 24.65625 65.921875 20.015625 65.03125 
Q 15.375 64.15625 9.8125 62.3125 
L 9.8125 71.09375 
Q 15.4375 72.65625 20.34375 73.4375 
Q 25.25 74.21875 29.59375 74.21875 
Q 40.828125 74.21875 47.359375 69.109375 
Q 53.90625 64.015625 53.90625 55.328125 
Q 53.90625 49.265625 50.4375 45.09375 
Q 46.96875 40.921875 40.578125 39.3125 
z
" id="DejaVuSans-51"/>
       </defs>
       <use xlink:href="#DejaVuSans-51"/>
       <use x="63.623047" xlink:href="#DejaVuSans-48"/>
       <use x="127.246094" xlink:href="#DejaVuSans-48"/>
      </g>
     </g>
    </g>
   </g>
   <g id="matplotlib.axis_2">
    <g id="ytick_1">
     <g id="line2d_8">
      <defs>
       <path d="M 0 0 
L -3.5 0 
" id="m897888d49a" style="stroke:#000000;stroke-width:0.8;"/>
      </defs>
      <g>
       <use style="stroke:#000000;stroke-width:0.8;" x="90" xlink:href="#m897888d49a" y="467.184131"/>
      </g>
     </g>
     <g id="text_8">
      <!-- −100 -->
      <g transform="translate(55.532812 470.98335)scale(0.1 -0.1)">
       <defs>
        <path d="M 10.59375 35.5 
L 73.1875 35.5 
L 73.1875 27.203125 
L 10.59375 27.203125 
z
" id="DejaVuSans-8722"/>
       </defs>
       <use xlink:href="#DejaVuSans-8722"/>
       <use x="83.789062" xlink:href="#DejaVuSans-49"/>
       <use x="147.412109" xlink:href="#DejaVuSans-48"/>
       <use x="211.035156" xlink:href="#DejaVuSans-48"/>
      </g>
     </g>
    </g>
    <g id="ytick_2">
     <g id="line2d_9">
      <g>
       <use style="stroke:#000000;stroke-width:0.8;" x="90" xlink:href="#m897888d49a" y="383.647061"/>
      </g>
     </g>
     <g id="text_9">
      <!-- −50 -->
      <g transform="translate(61.895313 387.44628)scale(0.1 -0.1)">
       <use xlink:href="#DejaVuSans-8722"/>
       <use x="83.789062" xlink:href="#DejaVuSans-53"/>
       <use x="147.412109" xlink:href="#DejaVuSans-48"/>
      </g>
     </g>
    </g>
    <g id="ytick_3">
     <g id="line2d_10">
      <g>
       <use style="stroke:#000000;stroke-width:0.8;" x="90" xlink:href="#m897888d49a" y="300.109991"/>
      </g>
     </g>
     <g id="text_10">
      <!-- 0 -->
      <g transform="translate(76.6375 303.909209)scale(0.1 -0.1)">
       <use xlink:href="#DejaVuSans-48"/>
      </g>
     </g>
    </g>
    <g id="ytick_4">
     <g id="line2d_11">
      <g>
       <use style="stroke:#000000;stroke-width:0.8;" x="90" xlink:href="#m897888d49a" y="216.57292"/>
      </g>
     </g>
     <g id="text_11">
      <!-- 50 -->
      <g transform="translate(70.275 220.372139)scale(0.1 -0.1)">
       <use xlink:href="#DejaVuSans-53"/>
       <use x="63.623047" xlink:href="#DejaVuSans-48"/>
      </g>
     </g>
    </g>
    <g id="ytick_5">
     <g id="line2d_12">
      <g>
       <use style="stroke:#000000;stroke-width:0.8;" x="90" xlink:href="#m897888d49a" y="133.03585"/>
      </g>
     </g>
     <g id="text_12">
      <!-- 100 -->
      <g transform="translate(63.9125 136.835069)scale(0.1 -0.1)">
       <use xlink:href="#DejaVuSans-49"/>
       <use x="63.623047" xlink:href="#DejaVuSans-48"/>
       <use x="127.246094" xlink:href="#DejaVuSans-48"/>
      </g>
     </g>
    </g>
   </g>
   <g id="line2d_13">
    <path clip-path="url(#p6e2d60bf5e)" d="M 621.613577 299.47845 
L 595.770549 294.280774 
L 571.356005 289.709625 
L 548.274712 285.679797 
L 526.431439 282.116106 
L 505.740978 278.958404 
L 486.133157 276.156571 
L 467.532792 273.680532 
L 449.869714 271.495202 
L 433.088788 269.565496 
L 417.129866 267.871364 
L 401.942826 266.39777 
L 387.477547 265.114641 
L 373.688918 264.011952 
L 360.541854 263.074666 
L 347.991245 262.292759 
L 336.007017 261.651194 
L 324.554084 261.144959 
L 313.54724 260.759018 
L 302.981471 260.523444 
L 292.866803 260.413175 
L 283.178173 260.428211 
L 273.890522 260.553517 
L 264.983799 260.779067 
L 256.437957 261.104862 
L 248.237958 261.515864 
L 240.363754 262.012074 
L 232.800308 262.583468 
L 225.532583 263.225033 
L 218.545542 263.936768 
L 211.824149 264.708651 
L 205.35838 265.54068 
L 199.13821 266.432856 
L 193.14359 267.380166 
L 187.37452 268.382611 
L 181.815963 269.435178 
L 176.462907 270.54288 
L 171.300317 271.700704 
L 166.323178 272.913662 
L 161.526479 274.186767 
L 156.900196 275.520019 
L 152.434305 276.923441 
L 148.133816 278.397035 
L 143.983695 279.960849 
L 139.988952 281.62992 
L 136.134551 283.429308 
L 132.430518 285.399112 
L 128.876851 287.614516 
L 125.483575 290.235909 
L 122.290788 293.719405 
L 120.837243 296.446055 
L 120.351057 300.109991 
L 121.548979 303.603511 
L 123.503746 305.994342 
L 127.282963 308.796175 
L 131.077217 310.725881 
L 134.93663 312.244585 
L 138.886263 313.507666 
L 142.93614 314.590306 
L 147.096286 315.537617 
L 151.371713 316.374658 
L 155.777458 317.116467 
L 160.318533 317.778081 
L 164.994938 318.369523 
L 169.826723 318.895807 
L 174.813886 319.361944 
L 179.96144 319.777958 
L 185.289434 320.138839 
L 190.797869 320.449596 
L 196.496768 320.710232 
L 202.401168 320.925758 
L 208.516081 321.101186 
L 214.856545 321.226491 
L 221.432583 321.306687 
L 228.25422 321.346785 
L 235.346518 321.341772 
L 242.709475 321.296662 
L 250.368154 321.206442 
L 258.33759 321.076124 
L 266.632821 320.900697 
L 275.273896 320.685171 
L 284.285875 320.429548 
L 293.688808 320.138839 
L 303.502743 319.80302 
L 313.757753 319.437127 
L 324.508974 319.031137 
L 335.816552 318.570012 
L 347.660438 318.038717 
L 360.065693 317.43725 
L 373.077427 316.770624 
L 386.730726 316.028815 
L 401.070699 315.216834 
L 416.142458 314.334683 
L 432.006147 313.372336 
L 448.706878 312.334805 
L 466.314822 311.217079 
L 484.900149 310.02417 
L 504.528019 308.746053 
L 525.28364 307.372703 
L 547.257231 305.909134 
L 570.544025 304.325271 
L 595.264315 302.616103 
L 621.533382 300.741531 
" style="fill:none;stroke:#0000ff;stroke-linecap:square;stroke-width:1.5;"/>
   </g>
   <g id="line2d_14">
    <path clip-path="url(#p6e2d60bf5e)" d="M 622.636364 294.57169 
L 596.724632 289.360193 
L 572.247005 284.777231 
L 549.108245 280.737367 
L 527.212094 277.165048 
L 506.473144 273.999945 
L 486.818165 271.191377 
L 468.170453 268.709035 
L 450.463273 266.518248 
L 433.639896 264.583662 
L 417.63588 262.884748 
L 402.405959 261.406989 
L 387.898816 260.120152 
L 374.066885 259.013999 
L 360.875657 258.073569 
L 348.281235 257.288931 
L 336.251081 256.644916 
L 324.754498 256.136744 
L 313.691672 255.748875 
L 303.063897 255.511897 
L 292.890646 255.401007 
L 283.13953 255.416136 
L 273.793823 255.542226 
L 264.82454 255.769374 
L 256.216823 256.097518 
L 247.955062 256.51163 
L 240.016727 257.011878 
L 232.391682 257.587928 
L 225.057952 258.235331 
L 218.005313 258.953743 
L 211.219216 259.733066 
L 204.682454 260.574241 
L 198.391491 261.476567 
L 192.323282 262.435524 
L 186.479792 263.450892 
L 180.842189 264.518456 
L 175.406684 265.643208 
L 170.160277 266.819853 
L 165.087318 268.056189 
L 160.190771 269.355796 
L 155.456236 270.720293 
L 150.87245 272.160774 
L 146.441574 273.679122 
L 142.136867 275.301276 
L 137.968084 277.043147 
L 133.90657 278.939488 
L 129.942441 281.048036 
L 126.045359 283.478691 
L 122.164882 286.479758 
L 118.18934 290.838343 
L 116.120004 294.751933 
L 115.363636 300.60801 
L 117.255178 306.189176 
L 120.033919 309.611342 
L 124.729184 313.109016 
L 129.054488 315.311834 
L 133.271374 316.972092 
L 137.485903 318.320294 
L 141.73905 319.457479 
L 146.062013 320.441969 
L 150.477056 321.30639 
L 155.003193 322.068528 
L 159.644392 322.744762 
L 164.410007 323.3475 
L 169.324411 323.882797 
L 174.379392 324.3553 
L 179.590259 324.77642 
L 184.98006 325.141506 
L 190.542597 325.455316 
L 196.292395 325.718288 
L 202.237628 325.935313 
L 208.394299 326.11193 
L 214.778022 326.2381 
L 221.387311 326.318707 
L 228.241554 326.358993 
L 235.363992 326.353966 
L 242.754547 326.308684 
L 250.439011 326.218166 
L 258.431666 326.087466 
L 266.748897 325.911577 
L 275.408021 325.6956 
L 284.434162 325.439578 
L 293.85235 325.148394 
L 303.678715 324.812154 
L 313.940654 324.446013 
L 324.704698 324.039538 
L 336.030498 323.577668 
L 347.894939 323.045452 
L 360.315345 322.443253 
L 373.341597 321.775882 
L 387.009093 321.033303 
L 401.358635 320.220781 
L 416.440797 319.33802 
L 432.313636 318.375119 
L 449.021292 317.337158 
L 466.634403 316.219105 
L 485.223099 315.025979 
L 504.856747 313.747486 
L 525.61544 312.373933 
L 547.593413 310.910071 
L 570.886892 309.325754 
L 595.614102 307.616107 
L 621.898497 305.740439 
" style="fill:none;stroke:#0000ff;stroke-dasharray:5.55,2.4;stroke-dashoffset:0;stroke-width:1.5;"/>
   </g>
   <g id="line2d_15">
    <path clip-path="url(#p6e2d60bf5e)" d="M 304.132612 291.756284 
L 304.098975 292.815933 
L 303.998198 293.871316 
L 303.830687 294.918182 
L 303.597118 295.952317 
L 303.29843 296.969555 
L 302.935826 297.965802 
L 302.510766 298.937045 
L 302.024961 299.879374 
L 301.480369 300.788994 
L 300.879182 301.662242 
L 300.22382 302.495602 
L 299.516922 303.285719 
L 298.761336 304.029411 
L 297.960103 304.723684 
L 297.116449 305.365741 
L 296.233772 305.952998 
L 295.315626 306.48309 
L 294.365709 306.953882 
L 293.387844 307.363479 
L 292.38597 307.710231 
L 291.36412 307.992742 
L 290.32641 308.209874 
L 289.277018 308.360754 
L 288.220169 308.444774 
L 287.160119 308.461595 
L 286.101136 308.411149 
L 285.047485 308.29364 
L 284.003408 308.109541 
L 282.97311 307.859594 
L 281.960738 307.544803 
L 280.97037 307.166439 
L 280.005993 306.726023 
L 279.071491 306.225329 
L 278.170626 305.666373 
L 277.307026 305.051406 
L 276.484169 304.382905 
L 275.705367 303.66356 
L 274.973756 302.896269 
L 274.292284 302.084122 
L 273.663692 301.230387 
L 273.090514 300.338504 
L 272.575056 299.412064 
L 272.119395 298.454796 
L 271.725364 297.470556 
L 271.394552 296.463306 
L 271.128289 295.437103 
L 270.927648 294.396078 
L 270.793436 293.344424 
L 270.726195 292.286375 
L 270.726195 291.226192 
L 270.793436 290.168143 
L 270.927648 289.116489 
L 271.128289 288.075464 
L 271.394552 287.049261 
L 271.725364 286.042011 
L 272.119395 285.057771 
L 272.575056 284.100503 
L 273.090514 283.174063 
L 273.663692 282.28218 
L 274.292284 281.428445 
L 274.973756 280.616298 
L 275.705367 279.849007 
L 276.484169 279.129662 
L 277.307026 278.461161 
L 278.170626 277.846194 
L 279.071491 277.287238 
L 280.005993 276.786545 
L 280.97037 276.346128 
L 281.960738 275.967764 
L 282.97311 275.652973 
L 284.003408 275.403026 
L 285.047485 275.218927 
L 286.101136 275.101418 
L 287.160119 275.050972 
L 288.220169 275.067793 
L 289.277018 275.151813 
L 290.32641 275.302693 
L 291.36412 275.519825 
L 292.38597 275.802336 
L 293.387844 276.149088 
L 294.365709 276.558685 
L 295.315626 277.029477 
L 296.233772 277.559569 
L 297.116449 278.146826 
L 297.960103 278.788883 
L 298.761336 279.483156 
L 299.516922 280.226848 
L 300.22382 281.016965 
L 300.879182 281.850325 
L 301.480369 282.723574 
L 302.024961 283.633193 
L 302.510766 284.575522 
L 302.935826 285.546765 
L 303.29843 286.543012 
L 303.597118 287.56025 
L 303.830687 288.594385 
L 303.998198 289.641251 
L 304.098975 290.696634 
L 304.132612 291.756284 
" style="fill:none;stroke:#0000ff;stroke-linecap:square;stroke-width:1.5;"/>
   </g>
   <g id="line2d_16">
    <path clip-path="url(#p6e2d60bf5e)" d="M 299.120388 291.756284 
L 299.096842 291.014529 
L 299.026298 290.275761 
L 298.909041 289.542954 
L 298.745542 288.81906 
L 298.53646 288.106993 
L 298.282637 287.409621 
L 297.985095 286.72975 
L 297.645032 286.07012 
L 297.263818 285.433387 
L 296.842987 284.822113 
L 296.384233 284.23876 
L 295.889405 283.685678 
L 295.360494 283.165094 
L 294.799631 282.679103 
L 294.209074 282.229663 
L 293.5912 281.818583 
L 292.948498 281.447519 
L 292.283555 281.117965 
L 291.59905 280.831247 
L 290.897738 280.588521 
L 290.182444 280.390763 
L 289.456046 280.23877 
L 288.721472 280.133154 
L 287.981678 280.07434 
L 287.239643 280.062566 
L 286.498355 280.097878 
L 285.760799 280.180134 
L 285.029945 280.309003 
L 284.308736 280.483966 
L 283.600076 280.70432 
L 282.906818 280.969175 
L 282.231755 281.277466 
L 281.577603 281.627952 
L 280.946998 282.019221 
L 280.342478 282.449698 
L 279.766477 282.917649 
L 279.221316 283.42119 
L 278.709189 283.958293 
L 278.232158 284.526797 
L 277.792144 285.124411 
L 277.390919 285.748729 
L 277.030099 286.397237 
L 276.711136 287.067325 
L 276.435314 287.756293 
L 276.203746 288.461368 
L 276.017362 289.17971 
L 275.876913 289.908427 
L 275.782965 290.644585 
L 275.735896 291.385219 
L 275.735896 292.127348 
L 275.782965 292.867982 
L 275.876913 293.60414 
L 276.017362 294.332857 
L 276.203746 295.051199 
L 276.435314 295.756274 
L 276.711136 296.445242 
L 277.030099 297.11533 
L 277.390919 297.763838 
L 277.792144 298.388156 
L 278.232158 298.98577 
L 278.709189 299.554274 
L 279.221316 300.091377 
L 279.766477 300.594918 
L 280.342478 301.062869 
L 280.946998 301.493346 
L 281.577603 301.884615 
L 282.231755 302.235101 
L 282.906818 302.543392 
L 283.600076 302.808247 
L 284.308736 303.028601 
L 285.029945 303.203564 
L 285.760799 303.332433 
L 286.498355 303.414689 
L 287.239643 303.450001 
L 287.981678 303.438227 
L 288.721472 303.379413 
L 289.456046 303.273797 
L 290.182444 303.121804 
L 290.897738 302.924047 
L 291.59905 302.68132 
L 292.283555 302.394602 
L 292.948498 302.065048 
L 293.5912 301.693984 
L 294.209074 301.282904 
L 294.799631 300.833464 
L 295.360494 300.347473 
L 295.889405 299.826889 
L 296.384233 299.273807 
L 296.842987 298.690454 
L 297.263818 298.079181 
L 297.645032 297.442447 
L 297.985095 296.782817 
L 298.282637 296.102946 
L 298.53646 295.405574 
L 298.745542 294.693507 
L 298.909041 293.969613 
L 299.026298 293.236806 
L 299.096842 292.498038 
L 299.120388 291.756284 
" style="fill:none;stroke:#0000ff;stroke-dasharray:5.55,2.4;stroke-dashoffset:0;stroke-width:1.5;"/>
   </g>
   <g id="patch_3">
    <path d="M 90 512.64 
L 90 69.12 
" style="fill:none;stroke:#000000;stroke-linecap:square;stroke-linejoin:miter;stroke-width:0.8;"/>
   </g>
   <g id="patch_4">
    <path d="M 648 512.64 
L 648 69.12 
" style="fill:none;stroke:#000000;stroke-linecap:square;stroke-linejoin:miter;stroke-width:0.8;"/>
   </g>
   <g id="patch_5">
    <path d="M 90 512.64 
L 648 512.64 
" style="fill:none;stroke:#000000;stroke-linecap:square;stroke-linejoin:miter;stroke-width:0.8;"/>
   </g>
   <g id="patch_6">
    <path d="M 90 69.12 
L 648 69.12 
" style="fill:none;stroke:#000000;stroke-linecap:square;stroke-linejoin:miter;stroke-width:0.8;"/>
   </g>
   <g id="text_13">
    <!-- Example of 5.3.2 -->
    <g transform="translate(318.105 63.12)scale(0.12 -0.12)">
     <defs>
      <path d="M 9.8125 72.90625 
L 55.90625 72.90625 
L 55.90625 64.59375 
L 19.671875 64.59375 
L 19.671875 43.015625 
L 54.390625 43.015625 
L 54.390625 34.71875 
L 19.671875 34.71875 
L 19.671875 8.296875 
L 56.78125 8.296875 
L 56.78125 0 
L 9.8125 0 
z
" id="DejaVuSans-69"/>
      <path d="M 54.890625 54.6875 
L 35.109375 28.078125 
L 55.90625 0 
L 45.3125 0 
L 29.390625 21.484375 
L 13.484375 0 
L 2.875 0 
L 24.125 28.609375 
L 4.6875 54.6875 
L 15.28125 54.6875 
L 29.78125 35.203125 
L 44.28125 54.6875 
z
" id="DejaVuSans-120"/>
      <path d="M 34.28125 27.484375 
Q 23.390625 27.484375 19.1875 25 
Q 14.984375 22.515625 14.984375 16.5 
Q 14.984375 11.71875 18.140625 8.90625 
Q 21.296875 6.109375 26.703125 6.109375 
Q 34.1875 6.109375 38.703125 11.40625 
Q 43.21875 16.703125 43.21875 25.484375 
L 43.21875 27.484375 
z
M 52.203125 31.203125 
L 52.203125 0 
L 43.21875 0 
L 43.21875 8.296875 
Q 40.140625 3.328125 35.546875 0.953125 
Q 30.953125 -1.421875 24.3125 -1.421875 
Q 15.921875 -1.421875 10.953125 3.296875 
Q 6 8.015625 6 15.921875 
Q 6 25.140625 12.171875 29.828125 
Q 18.359375 34.515625 30.609375 34.515625 
L 43.21875 34.515625 
L 43.21875 35.40625 
Q 43.21875 41.609375 39.140625 45 
Q 35.0625 48.390625 27.6875 48.390625 
Q 23 48.390625 18.546875 47.265625 
Q 14.109375 46.140625 10.015625 43.890625 
L 10.015625 52.203125 
Q 14.9375 54.109375 19.578125 55.046875 
Q 24.21875 56 28.609375 56 
Q 40.484375 56 46.34375 49.84375 
Q 52.203125 43.703125 52.203125 31.203125 
z
" id="DejaVuSans-97"/>
      <path d="M 52 44.1875 
Q 55.375 50.25 60.0625 53.125 
Q 64.75 56 71.09375 56 
Q 79.640625 56 84.28125 50.015625 
Q 88.921875 44.046875 88.921875 33.015625 
L 88.921875 0 
L 79.890625 0 
L 79.890625 32.71875 
Q 79.890625 40.578125 77.09375 44.375 
Q 74.3125 48.1875 68.609375 48.1875 
Q 61.625 48.1875 57.5625 43.546875 
Q 53.515625 38.921875 53.515625 30.90625 
L 53.515625 0 
L 44.484375 0 
L 44.484375 32.71875 
Q 44.484375 40.625 41.703125 44.40625 
Q 38.921875 48.1875 33.109375 48.1875 
Q 26.21875 48.1875 22.15625 43.53125 
Q 18.109375 38.875 18.109375 30.90625 
L 18.109375 0 
L 9.078125 0 
L 9.078125 54.6875 
L 18.109375 54.6875 
L 18.109375 46.1875 
Q 21.1875 51.21875 25.484375 53.609375 
Q 29.78125 56 35.6875 56 
Q 41.65625 56 45.828125 52.96875 
Q 50 49.953125 52 44.1875 
z
" id="DejaVuSans-109"/>
      <path d="M 18.109375 8.203125 
L 18.109375 -20.796875 
L 9.078125 -20.796875 
L 9.078125 54.6875 
L 18.109375 54.6875 
L 18.109375 46.390625 
Q 20.953125 51.265625 25.265625 53.625 
Q 29.59375 56 35.59375 56 
Q 45.5625 56 51.78125 48.09375 
Q 58.015625 40.1875 58.015625 27.296875 
Q 58.015625 14.40625 51.78125 6.484375 
Q 45.5625 -1.421875 35.59375 -1.421875 
Q 29.59375 -1.421875 25.265625 0.953125 
Q 20.953125 3.328125 18.109375 8.203125 
z
M 48.6875 27.296875 
Q 48.6875 37.203125 44.609375 42.84375 
Q 40.53125 48.484375 33.40625 48.484375 
Q 26.265625 48.484375 22.1875 42.84375 
Q 18.109375 37.203125 18.109375 27.296875 
Q 18.109375 17.390625 22.1875 11.75 
Q 26.265625 6.109375 33.40625 6.109375 
Q 40.53125 6.109375 44.609375 11.75 
Q 48.6875 17.390625 48.6875 27.296875 
z
" id="DejaVuSans-112"/>
      <path d="M 9.421875 75.984375 
L 18.40625 75.984375 
L 18.40625 0 
L 9.421875 0 
z
" id="DejaVuSans-108"/>
      <path d="M 56.203125 29.59375 
L 56.203125 25.203125 
L 14.890625 25.203125 
Q 15.484375 15.921875 20.484375 11.0625 
Q 25.484375 6.203125 34.421875 6.203125 
Q 39.59375 6.203125 44.453125 7.46875 
Q 49.3125 8.734375 54.109375 11.28125 
L 54.109375 2.78125 
Q 49.265625 0.734375 44.1875 -0.34375 
Q 39.109375 -1.421875 33.890625 -1.421875 
Q 20.796875 -1.421875 13.15625 6.1875 
Q 5.515625 13.8125 5.515625 26.8125 
Q 5.515625 40.234375 12.765625 48.109375 
Q 20.015625 56 32.328125 56 
Q 43.359375 56 49.78125 48.890625 
Q 56.203125 41.796875 56.203125 29.59375 
z
M 47.21875 32.234375 
Q 47.125 39.59375 43.09375 43.984375 
Q 39.0625 48.390625 32.421875 48.390625 
Q 24.90625 48.390625 20.390625 44.140625 
Q 15.875 39.890625 15.1875 32.171875 
z
" id="DejaVuSans-101"/>
      <path id="DejaVuSans-32"/>
      <path d="M 30.609375 48.390625 
Q 23.390625 48.390625 19.1875 42.75 
Q 14.984375 37.109375 14.984375 27.296875 
Q 14.984375 17.484375 19.15625 11.84375 
Q 23.34375 6.203125 30.609375 6.203125 
Q 37.796875 6.203125 41.984375 11.859375 
Q 46.1875 17.53125 46.1875 27.296875 
Q 46.1875 37.015625 41.984375 42.703125 
Q 37.796875 48.390625 30.609375 48.390625 
z
M 30.609375 56 
Q 42.328125 56 49.015625 48.375 
Q 55.71875 40.765625 55.71875 27.296875 
Q 55.71875 13.875 49.015625 6.21875 
Q 42.328125 -1.421875 30.609375 -1.421875 
Q 18.84375 -1.421875 12.171875 6.21875 
Q 5.515625 13.875 5.515625 27.296875 
Q 5.515625 40.765625 12.171875 48.375 
Q 18.84375 56 30.609375 56 
z
" id="DejaVuSans-111"/>
      <path d="M 37.109375 75.984375 
L 37.109375 68.5 
L 28.515625 68.5 
Q 23.6875 68.5 21.796875 66.546875 
Q 19.921875 64.59375 19.921875 59.515625 
L 19.921875 54.6875 
L 34.71875 54.6875 
L 34.71875 47.703125 
L 19.921875 47.703125 
L 19.921875 0 
L 10.890625 0 
L 10.890625 47.703125 
L 2.296875 47.703125 
L 2.296875 54.6875 
L 10.890625 54.6875 
L 10.890625 58.5 
Q 10.890625 67.625 15.140625 71.796875 
Q 19.390625 75.984375 28.609375 75.984375 
z
" id="DejaVuSans-102"/>
      <path d="M 10.6875 12.40625 
L 21 12.40625 
L 21 0 
L 10.6875 0 
z
" id="DejaVuSans-46"/>
     </defs>
     <use xlink:href="#DejaVuSans-69"/>
     <use x="63.183594" xlink:href="#DejaVuSans-120"/>
     <use x="122.363281" xlink:href="#DejaVuSans-97"/>
     <use x="183.642578" xlink:href="#DejaVuSans-109"/>
     <use x="281.054688" xlink:href="#DejaVuSans-112"/>
     <use x="344.53125" xlink:href="#DejaVuSans-108"/>
     <use x="372.314453" xlink:href="#DejaVuSans-101"/>
     <use x="433.837891" xlink:href="#DejaVuSans-32"/>
     <use x="465.625" xlink:href="#DejaVuSans-111"/>
     <use x="526.806641" xlink:href="#DejaVuSans-102"/>
     <use x="562.011719" xlink:href="#DejaVuSans-32"/>
     <use x="593.798828" xlink:href="#DejaVuSans-53"/>
     <use x="657.421875" xlink:href="#DejaVuSans-46"/>
     <use x="689.208984" xlink:href="#DejaVuSans-51"/>
     <use x="752.832031" xlink:href="#DejaVuSans-46"/>
     <use x="784.619141" xlink:href="#DejaVuSans-50"/>
    </g>
   </g>
   <g id="legend_1">
    <g id="patch_7">
     <path d="M 545.85 106.47625 
L 641 106.47625 
Q 643 106.47625 643 104.47625 
L 643 76.12 
Q 643 74.12 641 74.12 
L 545.85 74.12 
Q 543.85 74.12 543.85 76.12 
L 543.85 104.47625 
Q 543.85 106.47625 545.85 106.47625 
z
" style="fill:#ffffff;opacity:0.8;stroke:#cccccc;stroke-linejoin:miter;"/>
    </g>
    <g id="line2d_17">
     <path d="M 547.85 82.218438 
L 567.85 82.218438 
" style="fill:none;stroke:#0000ff;stroke-linecap:square;stroke-width:1.5;"/>
    </g>
    <g id="line2d_18"/>
    <g id="text_14">
     <!-- Original Line -->
     <g transform="translate(575.85 85.718438)scale(0.1 -0.1)">
      <defs>
       <path d="M 39.40625 66.21875 
Q 28.65625 66.21875 22.328125 58.203125 
Q 16.015625 50.203125 16.015625 36.375 
Q 16.015625 22.609375 22.328125 14.59375 
Q 28.65625 6.59375 39.40625 6.59375 
Q 50.140625 6.59375 56.421875 14.59375 
Q 62.703125 22.609375 62.703125 36.375 
Q 62.703125 50.203125 56.421875 58.203125 
Q 50.140625 66.21875 39.40625 66.21875 
z
M 39.40625 74.21875 
Q 54.734375 74.21875 63.90625 63.9375 
Q 73.09375 53.65625 73.09375 36.375 
Q 73.09375 19.140625 63.90625 8.859375 
Q 54.734375 -1.421875 39.40625 -1.421875 
Q 24.03125 -1.421875 14.8125 8.828125 
Q 5.609375 19.09375 5.609375 36.375 
Q 5.609375 53.65625 14.8125 63.9375 
Q 24.03125 74.21875 39.40625 74.21875 
z
" id="DejaVuSans-79"/>
       <path d="M 41.109375 46.296875 
Q 39.59375 47.171875 37.8125 47.578125 
Q 36.03125 48 33.890625 48 
Q 26.265625 48 22.1875 43.046875 
Q 18.109375 38.09375 18.109375 28.8125 
L 18.109375 0 
L 9.078125 0 
L 9.078125 54.6875 
L 18.109375 54.6875 
L 18.109375 46.1875 
Q 20.953125 51.171875 25.484375 53.578125 
Q 30.03125 56 36.53125 56 
Q 37.453125 56 38.578125 55.875 
Q 39.703125 55.765625 41.0625 55.515625 
z
" id="DejaVuSans-114"/>
       <path d="M 9.421875 54.6875 
L 18.40625 54.6875 
L 18.40625 0 
L 9.421875 0 
z
M 9.421875 75.984375 
L 18.40625 75.984375 
L 18.40625 64.59375 
L 9.421875 64.59375 
z
" id="DejaVuSans-105"/>
       <path d="M 45.40625 27.984375 
Q 45.40625 37.75 41.375 43.109375 
Q 37.359375 48.484375 30.078125 48.484375 
Q 22.859375 48.484375 18.828125 43.109375 
Q 14.796875 37.75 14.796875 27.984375 
Q 14.796875 18.265625 18.828125 12.890625 
Q 22.859375 7.515625 30.078125 7.515625 
Q 37.359375 7.515625 41.375 12.890625 
Q 45.40625 18.265625 45.40625 27.984375 
z
M 54.390625 6.78125 
Q 54.390625 -7.171875 48.1875 -13.984375 
Q 42 -20.796875 29.203125 -20.796875 
Q 24.46875 -20.796875 20.265625 -20.09375 
Q 16.0625 -19.390625 12.109375 -17.921875 
L 12.109375 -9.1875 
Q 16.0625 -11.328125 19.921875 -12.34375 
Q 23.78125 -13.375 27.78125 -13.375 
Q 36.625 -13.375 41.015625 -8.765625 
Q 45.40625 -4.15625 45.40625 5.171875 
L 45.40625 9.625 
Q 42.625 4.78125 38.28125 2.390625 
Q 33.9375 0 27.875 0 
Q 17.828125 0 11.671875 7.65625 
Q 5.515625 15.328125 5.515625 27.984375 
Q 5.515625 40.671875 11.671875 48.328125 
Q 17.828125 56 27.875 56 
Q 33.9375 56 38.28125 53.609375 
Q 42.625 51.21875 45.40625 46.390625 
L 45.40625 54.6875 
L 54.390625 54.6875 
z
" id="DejaVuSans-103"/>
       <path d="M 54.890625 33.015625 
L 54.890625 0 
L 45.90625 0 
L 45.90625 32.71875 
Q 45.90625 40.484375 42.875 44.328125 
Q 39.84375 48.1875 33.796875 48.1875 
Q 26.515625 48.1875 22.3125 43.546875 
Q 18.109375 38.921875 18.109375 30.90625 
L 18.109375 0 
L 9.078125 0 
L 9.078125 54.6875 
L 18.109375 54.6875 
L 18.109375 46.1875 
Q 21.34375 51.125 25.703125 53.5625 
Q 30.078125 56 35.796875 56 
Q 45.21875 56 50.046875 50.171875 
Q 54.890625 44.34375 54.890625 33.015625 
z
" id="DejaVuSans-110"/>
       <path d="M 9.8125 72.90625 
L 19.671875 72.90625 
L 19.671875 8.296875 
L 55.171875 8.296875 
L 55.171875 0 
L 9.8125 0 
z
" id="DejaVuSans-76"/>
      </defs>
      <use xlink:href="#DejaVuSans-79"/>
      <use x="78.710938" xlink:href="#DejaVuSans-114"/>
      <use x="119.824219" xlink:href="#DejaVuSans-105"/>
      <use x="147.607422" xlink:href="#DejaVuSans-103"/>
      <use x="211.083984" xlink:href="#DejaVuSans-105"/>
      <use x="238.867188" xlink:href="#DejaVuSans-110"/>
      <use x="302.246094" xlink:href="#DejaVuSans-97"/>
      <use x="363.525391" xlink:href="#DejaVuSans-108"/>
      <use x="391.308594" xlink:href="#DejaVuSans-32"/>
      <use x="423.095703" xlink:href="#DejaVuSans-76"/>
      <use x="478.808594" xlink:href="#DejaVuSans-105"/>
      <use x="506.591797" xlink:href="#DejaVuSans-110"/>
      <use x="569.970703" xlink:href="#DejaVuSans-101"/>
     </g>
    </g>
    <g id="line2d_19">
     <path d="M 547.85 96.896563 
L 567.85 96.896563 
" style="fill:none;stroke:#0000ff;stroke-dasharray:5.55,2.4;stroke-dashoffset:0;stroke-width:1.5;"/>
    </g>
    <g id="line2d_20"/>
    <g id="text_15">
     <!-- Offset Line -->
     <g transform="translate(575.85 100.396563)scale(0.1 -0.1)">
      <defs>
       <path d="M 44.28125 53.078125 
L 44.28125 44.578125 
Q 40.484375 46.53125 36.375 47.5 
Q 32.28125 48.484375 27.875 48.484375 
Q 21.1875 48.484375 17.84375 46.4375 
Q 14.5 44.390625 14.5 40.28125 
Q 14.5 37.15625 16.890625 35.375 
Q 19.28125 33.59375 26.515625 31.984375 
L 29.59375 31.296875 
Q 39.15625 29.25 43.1875 25.515625 
Q 47.21875 21.78125 47.21875 15.09375 
Q 47.21875 7.46875 41.1875 3.015625 
Q 35.15625 -1.421875 24.609375 -1.421875 
Q 20.21875 -1.421875 15.453125 -0.5625 
Q 10.6875 0.296875 5.421875 2 
L 5.421875 11.28125 
Q 10.40625 8.6875 15.234375 7.390625 
Q 20.0625 6.109375 24.8125 6.109375 
Q 31.15625 6.109375 34.5625 8.28125 
Q 37.984375 10.453125 37.984375 14.40625 
Q 37.984375 18.0625 35.515625 20.015625 
Q 33.0625 21.96875 24.703125 23.78125 
L 21.578125 24.515625 
Q 13.234375 26.265625 9.515625 29.90625 
Q 5.8125 33.546875 5.8125 39.890625 
Q 5.8125 47.609375 11.28125 51.796875 
Q 16.75 56 26.8125 56 
Q 31.78125 56 36.171875 55.265625 
Q 40.578125 54.546875 44.28125 53.078125 
z
" id="DejaVuSans-115"/>
       <path d="M 18.3125 70.21875 
L 18.3125 54.6875 
L 36.8125 54.6875 
L 36.8125 47.703125 
L 18.3125 47.703125 
L 18.3125 18.015625 
Q 18.3125 11.328125 20.140625 9.421875 
Q 21.96875 7.515625 27.59375 7.515625 
L 36.8125 7.515625 
L 36.8125 0 
L 27.59375 0 
Q 17.1875 0 13.234375 3.875 
Q 9.28125 7.765625 9.28125 18.015625 
L 9.28125 47.703125 
L 2.6875 47.703125 
L 2.6875 54.6875 
L 9.28125 54.6875 
L 9.28125 70.21875 
z
" id="DejaVuSans-116"/>
      </defs>
      <use xlink:href="#DejaVuSans-79"/>
      <use x="78.710938" xlink:href="#DejaVuSans-102"/>
      <use x="113.916016" xlink:href="#DejaVuSans-102"/>
      <use x="149.121094" xlink:href="#DejaVuSans-115"/>
      <use x="201.220703" xlink:href="#DejaVuSans-101"/>
      <use x="262.744141" xlink:href="#DejaVuSans-116"/>
      <use x="301.953125" xlink:href="#DejaVuSans-32"/>
      <use x="333.740234" xlink:href="#DejaVuSans-76"/>
      <use x="389.453125" xlink:href="#DejaVuSans-105"/>
      <use x="417.236328" xlink:href="#DejaVuSans-110"/>
      <use x="480.615234" xlink:href="#DejaVuSans-101"/>
     </g>
    </g>
   </g>
  </g>
 </g>
 <defs>
  <clipPath id="p6e2d60bf5e">
   <rect height="443.52" width="558" x="90" y="69.12"/>
  </clipPath>
 </defs>
</svg>
