<?xml version="1.0" encoding="utf-8" standalone="no"?>
<!DOCTYPE svg PUBLIC "-//W3C//DTD SVG 1.1//EN"
  "http://www.w3.org/Graphics/SVG/1.1/DTD/svg11.dtd">
<!-- Created with matplotlib (https://matplotlib.org/) -->
<svg height="576pt" version="1.1" viewBox="0 0 720 576" width="720pt" xmlns="http://www.w3.org/2000/svg" xmlns:xlink="http://www.w3.org/1999/xlink">
 <metadata>
  <rdf:RDF xmlns:cc="http://creativecommons.org/ns#" xmlns:dc="http://purl.org/dc/elements/1.1/" xmlns:rdf="http://www.w3.org/1999/02/22-rdf-syntax-ns#">
   <cc:Work>
    <dc:type rdf:resource="http://purl.org/dc/dcmitype/StillImage"/>
    <dc:date>2025-09-15T15:02:37.340088</dc:date>
    <dc:format>image/svg+xml</dc:format>
    <dc:creator>
     <cc:Agent>
      <dc:title>Matplotlib v3.3.2, https://matplotlib.org/</dc:title>
     </cc:Agent>
    </dc:creator>
   </cc:Work>
  </rdf:RDF>
 </metadata>
 <defs>
  <style type="text/css">*{stroke-linecap:butt;stroke-linejoin:round;}</style>
 </defs>
 <g id="figure_1">
  <g id="patch_1">
   <path d="M 0 576 
L 720 576 
L 720 0 
L 0 0 
z
" style="fill:#ffffff;"/>
  </g>
  <g id="axes_1">
   <g id="patch_2">
    <path d="M 90 512.64 
L 648 512.64 
L 648 69.12 
L 90 69.12 
z
" style="fill:#ffffff;"/>
   </g>
   <g id="matplotlib.axis_1">
    <g id="xtick_1">
     <g id="line2d_1">
      <defs>
       <path d="M 0 0 
L 0 3.5 
" id="m7d6a82ef3b" style="stroke:#000000;stroke-width:0.8;"/>
      </defs>
      <g>
       <use style="stroke:#000000;stroke-width:0.8;" x="131.215909" xlink:href="#m7d6a82ef3b" y="512.64"/>
      </g>
     </g>
     <g id="text_1">
      <!-- 0 -->
      <g transform="translate(128.034659 527.238438)scale(0.1 -0.1)">
       <defs>
        <path d="M 31.78125 66.40625 
Q 24.171875 66.40625 20.328125 58.90625 
Q 16.5 51.421875 16.5 36.375 
Q 16.5 21.390625 20.328125 13.890625 
Q 24.171875 6.390625 31.78125 6.390625 
Q 39.453125 6.390625 43.28125 13.890625 
Q 47.125 21.390625 47.125 36.375 
Q 47.125 51.421875 43.28125 58.90625 
Q 39.453125 66.40625 31.78125 66.40625 
z
M 31.78125 74.21875 
Q 44.046875 74.21875 50.515625 64.515625 
Q 56.984375 54.828125 56.984375 36.375 
Q 56.984375 17.96875 50.515625 8.265625 
Q 44.046875 -1.421875 31.78125 -1.421875 
Q 19.53125 -1.421875 13.0625 8.265625 
Q 6.59375 17.96875 6.59375 36.375 
Q 6.59375 54.828125 13.0625 64.515625 
Q 19.53125 74.21875 31.78125 74.21875 
z
" id="DejaVuSans-48"/>
       </defs>
       <use xlink:href="#DejaVuSans-48"/>
      </g>
     </g>
    </g>
    <g id="xtick_2">
     <g id="line2d_2">
      <g>
       <use style="stroke:#000000;stroke-width:0.8;" x="210.477273" xlink:href="#m7d6a82ef3b" y="512.64"/>
      </g>
     </g>
     <g id="text_2">
      <!-- 100 -->
      <g transform="translate(200.933523 527.238438)scale(0.1 -0.1)">
       <defs>
        <path d="M 12.40625 8.296875 
L 28.515625 8.296875 
L 28.515625 63.921875 
L 10.984375 60.40625 
L 10.984375 69.390625 
L 28.421875 72.90625 
L 38.28125 72.90625 
L 38.28125 8.296875 
L 54.390625 8.296875 
L 54.390625 0 
L 12.40625 0 
z
" id="DejaVuSans-49"/>
       </defs>
       <use xlink:href="#DejaVuSans-49"/>
       <use x="63.623047" xlink:href="#DejaVuSans-48"/>
       <use x="127.246094" xlink:href="#DejaVuSans-48"/>
      </g>
     </g>
    </g>
    <g id="xtick_3">
     <g id="line2d_3">
      <g>
       <use style="stroke:#000000;stroke-width:0.8;" x="289.738636" xlink:href="#m7d6a82ef3b" y="512.64"/>
      </g>
     </g>
     <g id="text_3">
      <!-- 200 -->
      <g transform="translate(280.194886 527.238438)scale(0.1 -0.1)">
       <defs>
        <path d="M 19.1875 8.296875 
L 53.609375 8.296875 
L 53.609375 0 
L 7.328125 0 
L 7.328125 8.296875 
Q 12.9375 14.109375 22.625 23.890625 
Q 32.328125 33.6875 34.8125 36.53125 
Q 39.546875 41.84375 41.421875 45.53125 
Q 43.3125 49.21875 43.3125 52.78125 
Q 43.3125 58.59375 39.234375 62.25 
Q 35.15625 65.921875 28.609375 65.921875 
Q 23.96875 65.921875 18.8125 64.3125 
Q 13.671875 62.703125 7.8125 59.421875 
L 7.8125 69.390625 
Q 13.765625 71.78125 18.9375 73 
Q 24.125 74.21875 28.421875 74.21875 
Q 39.75 74.21875 46.484375 68.546875 
Q 53.21875 62.890625 53.21875 53.421875 
Q 53.21875 48.921875 51.53125 44.890625 
Q 49.859375 40.875 45.40625 35.40625 
Q 44.1875 33.984375 37.640625 27.21875 
Q 31.109375 20.453125 19.1875 8.296875 
z
" id="DejaVuSans-50"/>
       </defs>
       <use xlink:href="#DejaVuSans-50"/>
       <use x="63.623047" xlink:href="#DejaVuSans-48"/>
       <use x="127.246094" xlink:href="#DejaVuSans-48"/>
      </g>
     </g>
    </g>
    <g id="xtick_4">
     <g id="line2d_4">
      <g>
       <use style="stroke:#000000;stroke-width:0.8;" x="369" xlink:href="#m7d6a82ef3b" y="512.64"/>
      </g>
     </g>
     <g id="text_4">
      <!-- 300 -->
      <g transform="translate(359.45625 527.238438)scale(0.1 -0.1)">
       <defs>
        <path d="M 40.578125 39.3125 
Q 47.65625 37.796875 51.625 33 
Q 55.609375 28.21875 55.609375 21.1875 
Q 55.609375 10.40625 48.1875 4.484375 
Q 40.765625 -1.421875 27.09375 -1.421875 
Q 22.515625 -1.421875 17.65625 -0.515625 
Q 12.796875 0.390625 7.625 2.203125 
L 7.625 11.71875 
Q 11.71875 9.328125 16.59375 8.109375 
Q 21.484375 6.890625 26.8125 6.890625 
Q 36.078125 6.890625 40.9375 10.546875 
Q 45.796875 14.203125 45.796875 21.1875 
Q 45.796875 27.640625 41.28125 31.265625 
Q 36.765625 34.90625 28.71875 34.90625 
L 20.21875 34.90625 
L 20.21875 43.015625 
L 29.109375 43.015625 
Q 36.375 43.015625 40.234375 45.921875 
Q 44.09375 48.828125 44.09375 54.296875 
Q 44.09375 59.90625 40.109375 62.90625 
Q 36.140625 65.921875 28.71875 65.921875 
Q 24.65625 65.921875 20.015625 65.03125 
Q 15.375 64.15625 9.8125 62.3125 
L 9.8125 71.09375 
Q 15.4375 72.65625 20.34375 73.4375 
Q 25.25 74.21875 29.59375 74.21875 
Q 40.828125 74.21875 47.359375 69.109375 
Q 53.90625 64.015625 53.90625 55.328125 
Q 53.90625 49.265625 50.4375 45.09375 
Q 46.96875 40.921875 40.578125 39.3125 
z
" id="DejaVuSans-51"/>
       </defs>
       <use xlink:href="#DejaVuSans-51"/>
       <use x="63.623047" xlink:href="#DejaVuSans-48"/>
       <use x="127.246094" xlink:href="#DejaVuSans-48"/>
      </g>
     </g>
    </g>
    <g id="xtick_5">
     <g id="line2d_5">
      <g>
       <use style="stroke:#000000;stroke-width:0.8;" x="448.261364" xlink:href="#m7d6a82ef3b" y="512.64"/>
      </g>
     </g>
     <g id="text_5">
      <!-- 400 -->
      <g transform="translate(438.717614 527.238438)scale(0.1 -0.1)">
       <defs>
        <path d="M 37.796875 64.3125 
L 12.890625 25.390625 
L 37.796875 25.390625 
z
M 35.203125 72.90625 
L 47.609375 72.90625 
L 47.609375 25.390625 
L 58.015625 25.390625 
L 58.015625 17.1875 
L 47.609375 17.1875 
L 47.609375 0 
L 37.796875 0 
L 37.796875 17.1875 
L 4.890625 17.1875 
L 4.890625 26.703125 
z
" id="DejaVuSans-52"/>
       </defs>
       <use xlink:href="#DejaVuSans-52"/>
       <use x="63.623047" xlink:href="#DejaVuSans-48"/>
       <use x="127.246094" xlink:href="#DejaVuSans-48"/>
      </g>
     </g>
    </g>
    <g id="xtick_6">
     <g id="line2d_6">
      <g>
       <use style="stroke:#000000;stroke-width:0.8;" x="527.522727" xlink:href="#m7d6a82ef3b" y="512.64"/>
      </g>
     </g>
     <g id="text_6">
      <!-- 500 -->
      <g transform="translate(517.978977 527.238438)scale(0.1 -0.1)">
       <defs>
        <path d="M 10.796875 72.90625 
L 49.515625 72.90625 
L 49.515625 64.59375 
L 19.828125 64.59375 
L 19.828125 46.734375 
Q 21.96875 47.46875 24.109375 47.828125 
Q 26.265625 48.1875 28.421875 48.1875 
Q 40.625 48.1875 47.75 41.5 
Q 54.890625 34.8125 54.890625 23.390625 
Q 54.890625 11.625 47.5625 5.09375 
Q 40.234375 -1.421875 26.90625 -1.421875 
Q 22.3125 -1.421875 17.546875 -0.640625 
Q 12.796875 0.140625 7.71875 1.703125 
L 7.71875 11.625 
Q 12.109375 9.234375 16.796875 8.0625 
Q 21.484375 6.890625 26.703125 6.890625 
Q 35.15625 6.890625 40.078125 11.328125 
Q 45.015625 15.765625 45.015625 23.390625 
Q 45.015625 31 40.078125 35.4375 
Q 35.15625 39.890625 26.703125 39.890625 
Q 22.75 39.890625 18.8125 39.015625 
Q 14.890625 38.140625 10.796875 36.28125 
z
" id="DejaVuSans-53"/>
       </defs>
       <use xlink:href="#DejaVuSans-53"/>
       <use x="63.623047" xlink:href="#DejaVuSans-48"/>
       <use x="127.246094" xlink:href="#DejaVuSans-48"/>
      </g>
     </g>
    </g>
    <g id="xtick_7">
     <g id="line2d_7">
      <g>
       <use style="stroke:#000000;stroke-width:0.8;" x="606.784091" xlink:href="#m7d6a82ef3b" y="512.64"/>
      </g>
     </g>
     <g id="text_7">
      <!-- 600 -->
      <g transform="translate(597.240341 527.238438)scale(0.1 -0.1)">
       <defs>
        <path d="M 33.015625 40.375 
Q 26.375 40.375 22.484375 35.828125 
Q 18.609375 31.296875 18.609375 23.390625 
Q 18.609375 15.53125 22.484375 10.953125 
Q 26.375 6.390625 33.015625 6.390625 
Q 39.65625 6.390625 43.53125 10.953125 
Q 47.40625 15.53125 47.40625 23.390625 
Q 47.40625 31.296875 43.53125 35.828125 
Q 39.65625 40.375 33.015625 40.375 
z
M 52.59375 71.296875 
L 52.59375 62.3125 
Q 48.875 64.0625 45.09375 64.984375 
Q 41.3125 65.921875 37.59375 65.921875 
Q 27.828125 65.921875 22.671875 59.328125 
Q 17.53125 52.734375 16.796875 39.40625 
Q 19.671875 43.65625 24.015625 45.921875 
Q 28.375 48.1875 33.59375 48.1875 
Q 44.578125 48.1875 50.953125 41.515625 
Q 57.328125 34.859375 57.328125 23.390625 
Q 57.328125 12.15625 50.6875 5.359375 
Q 44.046875 -1.421875 33.015625 -1.421875 
Q 20.359375 -1.421875 13.671875 8.265625 
Q 6.984375 17.96875 6.984375 36.375 
Q 6.984375 53.65625 15.1875 63.9375 
Q 23.390625 74.21875 37.203125 74.21875 
Q 40.921875 74.21875 44.703125 73.484375 
Q 48.484375 72.75 52.59375 71.296875 
z
" id="DejaVuSans-54"/>
       </defs>
       <use xlink:href="#DejaVuSans-54"/>
       <use x="63.623047" xlink:href="#DejaVuSans-48"/>
       <use x="127.246094" xlink:href="#DejaVuSans-48"/>
      </g>
     </g>
    </g>
   </g>
   <g id="matplotlib.axis_2">
    <g id="ytick_1">
     <g id="line2d_8">
      <defs>
       <path d="M 0 0 
L -3.5 0 
" id="m2df5440d7b" style="stroke:#000000;stroke-width:0.8;"/>
      </defs>
      <g>
       <use style="stroke:#000000;stroke-width:0.8;" x="90" xlink:href="#m2df5440d7b" y="461.494939"/>
      </g>
     </g>
     <g id="text_8">
      <!-- −200 -->
      <g transform="translate(55.532812 465.294157)scale(0.1 -0.1)">
       <defs>
        <path d="M 10.59375 35.5 
L 73.1875 35.5 
L 73.1875 27.203125 
L 10.59375 27.203125 
z
" id="DejaVuSans-8722"/>
       </defs>
       <use xlink:href="#DejaVuSans-8722"/>
       <use x="83.789062" xlink:href="#DejaVuSans-50"/>
       <use x="147.412109" xlink:href="#DejaVuSans-48"/>
       <use x="211.035156" xlink:href="#DejaVuSans-48"/>
      </g>
     </g>
    </g>
    <g id="ytick_2">
     <g id="line2d_9">
      <g>
       <use style="stroke:#000000;stroke-width:0.8;" x="90" xlink:href="#m2df5440d7b" y="382.233575"/>
      </g>
     </g>
     <g id="text_9">
      <!-- −100 -->
      <g transform="translate(55.532812 386.032794)scale(0.1 -0.1)">
       <use xlink:href="#DejaVuSans-8722"/>
       <use x="83.789062" xlink:href="#DejaVuSans-49"/>
       <use x="147.412109" xlink:href="#DejaVuSans-48"/>
       <use x="211.035156" xlink:href="#DejaVuSans-48"/>
      </g>
     </g>
    </g>
    <g id="ytick_3">
     <g id="line2d_10">
      <g>
       <use style="stroke:#000000;stroke-width:0.8;" x="90" xlink:href="#m2df5440d7b" y="302.972211"/>
      </g>
     </g>
     <g id="text_10">
      <!-- 0 -->
      <g transform="translate(76.6375 306.77143)scale(0.1 -0.1)">
       <use xlink:href="#DejaVuSans-48"/>
      </g>
     </g>
    </g>
    <g id="ytick_4">
     <g id="line2d_11">
      <g>
       <use style="stroke:#000000;stroke-width:0.8;" x="90" xlink:href="#m2df5440d7b" y="223.710848"/>
      </g>
     </g>
     <g id="text_11">
      <!-- 100 -->
      <g transform="translate(63.9125 227.510066)scale(0.1 -0.1)">
       <use xlink:href="#DejaVuSans-49"/>
       <use x="63.623047" xlink:href="#DejaVuSans-48"/>
       <use x="127.246094" xlink:href="#DejaVuSans-48"/>
      </g>
     </g>
    </g>
    <g id="ytick_5">
     <g id="line2d_12">
      <g>
       <use style="stroke:#000000;stroke-width:0.8;" x="90" xlink:href="#m2df5440d7b" y="144.449484"/>
      </g>
     </g>
     <g id="text_12">
      <!-- 200 -->
      <g transform="translate(63.9125 148.248703)scale(0.1 -0.1)">
       <use xlink:href="#DejaVuSans-50"/>
       <use x="63.623047" xlink:href="#DejaVuSans-48"/>
       <use x="127.246094" xlink:href="#DejaVuSans-48"/>
      </g>
     </g>
    </g>
   </g>
   <g id="line2d_13">
    <path clip-path="url(#pfa76c30699)" d="M 606.811755 302.411088 
L 584.210504 297.943836 
L 557.120822 292.798881 
L 533.134789 288.453239 
L 510.778963 284.623983 
L 490.071072 281.294203 
L 471.013484 278.438762 
L 464.113636 277.459464 
L 464.113447 277.559659 
L 463.997336 278.068298 
L 463.686281 278.487148 
L 463.232926 278.745321 
L 462.713999 278.799123 
L 459.17568 278.310897 
L 449.846591 277.059886 
L 449.846591 277.059886 
L 449.430249 279.43677 
L 449.060375 279.829031 
L 448.560975 280.032192 
L 448.180195 280.040355 
L 448.180195 280.040355 
L 447.034441 279.784091 
L 446.64218 279.414218 
L 446.439018 278.914818 
L 446.430856 278.534037 
L 446.430856 278.534037 
L 446.676136 276.647644 
L 446.676136 276.647644 
L 429.085915 274.484701 
L 410.806259 272.47001 
L 392.832355 270.724609 
L 375.19919 269.244964 
L 357.93955 268.032866 
L 342.367275 267.153489 
L 327.166245 266.504173 
L 312.36398 266.097299 
L 299.165071 265.958552 
L 286.338712 266.041646 
L 273.904099 266.338947 
L 261.880048 266.842534 
L 250.284829 267.543933 
L 239.136216 268.434135 
L 228.451378 269.503248 
L 218.247425 270.743035 
L 209.404239 272.022828 
L 200.989123 273.452726 
L 193.016417 275.026062 
L 185.497214 276.721863 
L 177.762549 278.704501 
L 170.60185 280.77996 
L 164.023009 282.912298 
L 158.56517 284.899687 
L 154.104351 286.759222 
L 150.09518 288.68356 
L 146.545293 290.64288 
L 143.481232 292.60155 
L 140.90185 294.52988 
L 138.828042 296.368187 
L 137.25559 298.056846 
L 136.21447 299.489924 
L 135.546131 300.784046 
L 135.207617 301.917036 
L 135.171749 302.770224 
L 135.356146 303.518071 
L 135.752445 304.230419 
L 136.566749 305.153902 
L 137.696613 306.101323 
L 139.429076 307.248075 
L 141.614516 308.399933 
L 144.211658 309.519854 
L 147.192677 310.571836 
L 150.992521 311.660372 
L 155.220002 312.629637 
L 159.862734 313.466448 
L 166.068297 314.35483 
L 174.119958 315.282732 
L 182.927089 316.069778 
L 192.46808 316.690014 
L 202.718687 317.127434 
L 213.655484 317.369034 
L 227.096706 317.433317 
L 232.670455 317.407153 
L 232.757029 314.995635 
L 233.069637 314.556373 
L 233.536472 314.286668 
L 233.912538 314.226383 
L 233.912538 314.226383 
L 235.056024 314.323379 
L 235.495286 314.635987 
L 235.764991 315.102822 
L 235.825276 315.478888 
L 235.825276 315.478888 
L 235.840909 317.381097 
L 235.840909 317.381097 
L 249.442767 317.352916 
L 249.843171 317.693024 
L 250.071384 318.166214 
L 250.107955 318.740765 
L 250.107955 318.740765 
L 271.331837 318.213688 
L 299.364311 317.273119 
L 339.231612 315.691258 
L 375.319228 314.015394 
L 441.172202 310.68217 
L 500.461317 307.7735 
L 545.026333 305.813753 
L 584.116206 304.324525 
L 606.756127 303.533334 
L 606.756127 303.533334 
L 606.811755 302.411088 
L 606.811755 302.411088 
" style="fill:none;stroke:#000000;stroke-linecap:square;stroke-width:1.5;"/>
   </g>
   <g id="line2d_14">
    <path clip-path="url(#pfa76c30699)" d="M 131.191314 302.473382 
L 131.276136 302.467008 
L 139.369814 301.259377 
L 150.149491 299.938621 
L 164.719535 298.375131 
L 181.205088 296.833619 
L 199.211787 295.379152 
L 218.008914 294.087007 
L 237.896212 292.950299 
L 257.512777 292.050797 
L 277.431551 291.357803 
L 297.389542 290.884965 
L 317.15165 290.636776 
L 340.217219 290.589527 
L 365.524908 290.754555 
L 391.788445 291.156356 
L 417.529414 291.776471 
L 442.541332 292.60238 
L 468.080334 293.673993 
L 494.064446 294.996081 
L 521.882836 296.64898 
L 550.004746 298.5492 
L 579.824095 300.787257 
L 606.756127 302.966568 
L 606.756127 302.966568 
" style="fill:none;stroke:#008000;stroke-dasharray:5.55,2.4;stroke-dashoffset:0;stroke-width:1.5;"/>
   </g>
   <g id="line2d_15">
    <path clip-path="url(#pfa76c30699)" d="M 464.113636 277.459464 
L 446.395088 275.082242 
L 427.843526 272.816865 
L 409.566396 270.823244 
L 391.598176 269.097116 
L 373.972556 267.635727 
L 356.722242 266.440743 
L 341.159843 265.576212 
L 325.969725 264.940875 
L 312.393294 264.571937 
L 299.168969 264.426928 
L 286.316282 264.503322 
L 273.854355 264.793593 
L 261.801813 265.289946 
L 250.176764 265.98406 
L 238.9968 266.867098 
L 228.27894 267.929363 
L 218.039652 269.160619 
L 208.294863 270.550385 
L 199.059975 272.087501 
L 190.349962 273.760476 
L 182.179181 275.557011 
L 174.561598 277.464294 
L 167.511212 279.469124 
L 161.604879 281.363638 
L 156.189119 283.317482 
L 151.273431 285.317584 
L 146.871196 287.35231 
L 143.356678 289.200254 
L 140.280428 291.061848 
L 137.649649 292.918983 
L 135.703019 294.543146 
L 134.126594 296.115755 
L 132.925742 297.632275 
L 132.082249 299.05581 
L 131.522912 300.429783 
L 131.236591 301.739029 
L 131.206278 302.900244 
L 131.397927 304.022399 
L 131.796617 305.088777 
L 132.441555 306.151497 
L 133.263027 307.095077 
L 134.531561 308.184379 
L 136.119219 309.234248 
L 138.000145 310.233741 
L 140.496059 311.301101 
L 143.714185 312.410454 
L 147.353656 313.415243 
L 151.867914 314.423786 
L 156.86152 315.322183 
L 162.893961 316.187804 
L 170.101684 316.993066 
L 178.629263 317.705427 
L 187.884505 318.257503 
L 198.642322 318.681033 
L 211.050675 318.945405 
L 225.257482 319.022362 
L 241.407847 318.888587 
L 250.107955 318.740765 
L 250.107955 318.740765 
L 250.107955 317.176822 
L 250.107955 317.176822 
L 231.767128 317.413136 
L 216.274326 317.398676 
L 204.357224 317.177261 
L 193.999446 316.769732 
L 184.347754 316.176313 
L 175.426354 315.41389 
L 167.256757 314.505764 
L 159.862734 313.466448 
L 154.729567 312.528562 
L 150.548812 311.54481 
L 146.799065 310.444606 
L 143.526556 309.245412 
L 140.741309 307.968743 
L 138.727624 306.816006 
L 137.161244 305.68172 
L 136.101502 304.667752 
L 135.478421 303.789178 
L 135.212133 303.032441 
L 135.16642 302.243927 
L 135.337516 301.370117 
L 135.76044 300.308582 
L 136.507588 299.040883 
L 137.558909 297.701493 
L 139.033399 296.170031 
L 140.90185 294.52988 
L 143.170885 292.81805 
L 145.821966 291.079004 
L 148.860052 289.334815 
L 152.717325 287.394586 
L 156.527852 285.717141 
L 161.229988 283.8972 
L 166.940504 281.938176 
L 173.784926 279.827356 
L 181.207973 277.789712 
L 188.449703 276.030195 
L 196.151678 274.380755 
L 204.302836 272.862765 
L 212.890963 271.493001 
L 221.901185 270.272321 
L 232.282067 269.094465 
L 243.137485 268.089193 
L 254.45051 267.266544 
L 266.203758 266.636054 
L 278.37925 266.206537 
L 290.958531 265.986227 
L 303.922577 265.983001 
L 317.252191 266.203805 
L 332.19042 266.695013 
L 347.518046 267.421043 
L 363.208425 268.37719 
L 379.236444 269.562662 
L 396.951153 271.103994 
L 414.998749 272.910635 
L 431.923154 274.81899 
L 450.514123 277.147528 
L 464.113636 278.995494 
L 464.113636 277.459464 
L 464.113636 277.459464 
" style="fill:none;stroke:#0000ff;stroke-dasharray:5.55,2.4;stroke-dashoffset:0;stroke-width:1.5;"/>
   </g>
   <g id="line2d_16">
    <path clip-path="url(#pfa76c30699)" d="M 317.480114 290.88 
L 317.440219 289.623233 
L 317.320696 288.371527 
L 317.122025 287.129922 
L 316.845006 285.903417 
L 316.490756 284.696951 
L 316.0607 283.515382 
L 315.55657 282.363467 
L 314.980396 281.245846 
L 314.334498 280.167018 
L 313.621477 279.131327 
L 312.844205 278.142944 
L 312.005809 277.205849 
L 311.109668 276.323815 
L 310.159389 275.500393 
L 309.158798 274.7389 
L 308.111925 274.042401 
L 307.022985 273.413701 
L 305.896363 272.855332 
L 304.736595 272.369542 
L 303.548351 271.958287 
L 302.336416 271.623222 
L 301.105671 271.365699 
L 299.861069 271.186752 
L 298.607625 271.087103 
L 297.350383 271.067153 
L 296.094408 271.126983 
L 294.844756 271.266351 
L 293.606459 271.484696 
L 292.384503 271.781139 
L 291.18381 272.154487 
L 290.009212 272.603235 
L 288.865441 273.125578 
L 287.757102 273.719411 
L 286.688658 274.382344 
L 285.66441 275.111708 
L 284.688484 275.904565 
L 283.764809 276.757722 
L 282.897104 277.667745 
L 282.088863 278.630969 
L 281.34334 279.643515 
L 280.663539 280.701307 
L 280.052195 281.800085 
L 279.511771 282.935425 
L 279.044443 284.102754 
L 278.652092 285.297373 
L 278.336299 286.514472 
L 278.098335 287.749148 
L 277.939157 288.996432 
L 277.859408 290.2513 
L 277.859408 291.5087 
L 277.939157 292.763568 
L 278.098335 294.010852 
L 278.336299 295.245528 
L 278.652092 296.462627 
L 279.044443 297.657246 
L 279.511771 298.824575 
L 280.052195 299.959915 
L 280.663539 301.058693 
L 281.34334 302.116485 
L 282.088863 303.129031 
L 282.897104 304.092255 
L 283.764809 305.002278 
L 284.688484 305.855435 
L 285.66441 306.648292 
L 286.688658 307.377656 
L 287.757102 308.040589 
L 288.865441 308.634422 
L 290.009212 309.156765 
L 291.18381 309.605513 
L 292.384503 309.978861 
L 293.606459 310.275304 
L 294.844756 310.493649 
L 296.094408 310.633017 
L 297.350383 310.692847 
L 298.607625 310.672897 
L 299.861069 310.573248 
L 301.105671 310.394301 
L 302.336416 310.136778 
L 303.548351 309.801713 
L 304.736595 309.390458 
L 305.896363 308.904668 
L 307.022985 308.346299 
L 308.111925 307.717599 
L 309.158798 307.0211 
L 310.159389 306.259607 
L 311.109668 305.436185 
L 312.005809 304.554151 
L 312.844205 303.617056 
L 313.621477 302.628673 
L 314.334498 301.592982 
L 314.980396 300.514154 
L 315.55657 299.396533 
L 316.0607 298.244618 
L 316.490756 297.063049 
L 316.845006 295.856583 
L 317.122025 294.630078 
L 317.320696 293.388473 
L 317.440219 292.136767 
L 317.480114 290.88 
" style="fill:none;stroke:#000000;stroke-linecap:square;stroke-width:1.5;"/>
   </g>
   <g id="line2d_17">
    <path clip-path="url(#pfa76c30699)" d="M 115.363636 290.88 
L 622.636364 290.88 
" style="fill:none;stroke:#000000;stroke-dasharray:5.55,2.4;stroke-dashoffset:0;stroke-width:1.5;"/>
   </g>
   <g id="line2d_18">
    <path clip-path="url(#pfa76c30699)" d="M 115.613474 300.420904 
L 622.191001 273.872301 
" style="fill:none;stroke:#ff0000;stroke-dasharray:5.55,2.4;stroke-dashoffset:0;stroke-width:1.5;"/>
   </g>
   <g id="line2d_19">
    <path clip-path="url(#pfa76c30699)" d="M 297.664773 350.326023 
L 297.664773 231.433977 
" style="fill:none;stroke:#000000;stroke-dasharray:5.55,2.4;stroke-dashoffset:0;stroke-width:1.5;"/>
   </g>
   <g id="line2d_20">
    <path clip-path="url(#pfa76c30699)" d="M 273.198288 277.77424 
L 256.431622 306.611724 
L 255.742741 307.141769 
L 254.935805 307.464817 
L 254.071465 307.556588 
L 253.214686 307.410182 
L 252.429864 307.036606 
L 251.775988 306.463936 
L 251.426363 305.972957 
L 251.426363 305.972957 
L 235.985505 279.037343 
L 235.864512 278.202836 
L 235.967777 277.36595 
L 236.287996 276.585885 
L 236.802518 275.917821 
L 237.474945 275.409016 
L 238.257712 275.09546 
L 238.835357 275.005034 
L 238.835357 275.005034 
L 271.077963 273.080847 
L 271.860244 273.348185 
L 272.546817 273.808675 
L 273.091001 274.431006 
L 273.455797 275.172867 
L 273.616401 275.983817 
L 273.561894 276.808718 
L 273.295982 277.591485 
L 273.198288 277.77424 
L 273.198288 277.77424 
" style="fill:none;stroke:#000000;stroke-linecap:square;stroke-width:1.5;"/>
   </g>
   <g id="line2d_21">
    <path clip-path="url(#pfa76c30699)" d="M 242.37631 306.150077 
L 227.382031 280.382459 
L 226.69315 279.852413 
L 225.886214 279.529365 
L 225.021875 279.437595 
L 224.165095 279.584 
L 223.380273 279.957577 
L 222.726397 280.530247 
L 222.376772 281.021226 
L 222.376772 281.021226 
L 207.552865 306.900285 
L 207.438309 307.76204 
L 207.562119 308.622514 
L 207.914989 309.417012 
L 208.470388 310.0858 
L 209.186557 310.578596 
L 210.009651 310.858347 
L 210.609777 310.915458 
L 240.42777 310.803908 
L 241.231026 310.472176 
L 241.914031 309.934803 
L 242.425466 309.232165 
L 242.726903 308.417057 
L 242.795692 307.550724 
L 242.626666 306.698259 
L 242.37631 306.150077 
L 242.37631 306.150077 
" style="fill:none;stroke:#000000;stroke-linecap:square;stroke-width:1.5;"/>
   </g>
   <g id="line2d_22">
    <path clip-path="url(#pfa76c30699)" d="M 211.779783 283.523476 
L 198.367093 306.551703 
L 197.678212 307.081749 
L 196.871277 307.404797 
L 196.006937 307.496567 
L 195.150157 307.350162 
L 194.365335 306.976585 
L 193.711459 306.403915 
L 193.361835 305.912936 
L 193.361835 305.912936 
L 182.671022 287.197999 
L 182.55354 286.353437 
L 182.665388 285.508111 
L 182.998477 284.723167 
L 183.528713 284.055382 
L 184.21774 283.55306 
L 185.01572 283.252536 
L 185.135312 283.227543 
L 185.135312 283.227543 
L 209.24542 278.774845 
L 210.10098 278.952696 
L 210.875491 279.357354 
L 211.510114 279.958077 
L 211.956639 280.70923 
L 212.181142 281.553749 
L 212.16657 282.427478 
L 211.91403 283.264042 
L 211.779783 283.523476 
L 211.779783 283.523476 
" style="fill:none;stroke:#000000;stroke-linecap:square;stroke-width:1.5;"/>
   </g>
   <g id="line2d_23">
    <path clip-path="url(#pfa76c30699)" d="M 183.658565 304.958653 
L 175.071013 290.28781 
L 174.382132 289.757765 
L 173.575196 289.434717 
L 172.710856 289.342946 
L 171.854077 289.489352 
L 171.069255 289.862929 
L 170.415379 290.435598 
L 170.065754 290.926577 
L 170.065754 290.926577 
L 162.46344 304.312176 
L 162.356386 305.136624 
L 162.467336 305.960557 
L 162.788662 306.727319 
L 163.298268 307.384188 
L 163.961113 307.885996 
L 164.731619 308.198238 
L 165.236532 308.286267 
L 165.236532 308.286267 
L 181.459527 309.666851 
L 182.258323 309.414688 
L 182.9632 308.962129 
L 183.524955 308.340766 
L 183.904374 307.593971 
L 184.074972 306.773875 
L 184.024841 305.937724 
L 183.757479 305.143885 
L 183.658565 304.958653 
L 183.658565 304.958653 
" style="fill:none;stroke:#000000;stroke-linecap:square;stroke-width:1.5;"/>
   </g>
   <g id="line2d_24">
    <path clip-path="url(#pfa76c30699)" d="M 322.371342 303.569921 
L 337.504884 277.561092 
L 338.193765 277.031046 
L 339.000701 276.707998 
L 339.865041 276.616227 
L 340.72182 276.762633 
L 341.506642 277.13621 
L 342.160518 277.70888 
L 342.510143 278.199858 
L 342.510143 278.199858 
L 356.748996 303.057244 
L 356.868054 303.900234 
L 356.758503 304.744513 
L 356.428241 305.5292 
L 355.901084 306.197716 
L 355.215043 306.701854 
L 354.419587 307.005263 
L 353.834748 307.085587 
L 353.834748 307.085587 
L 324.437985 308.252029 
L 323.667171 307.974664 
L 322.993155 307.509061 
L 322.460934 306.886304 
L 322.106042 306.14797 
L 321.952173 305.343353 
L 322.009599 304.52617 
L 322.274486 303.75098 
L 322.371342 303.569921 
L 322.371342 303.569921 
" style="fill:none;stroke:#000000;stroke-linecap:square;stroke-width:1.5;"/>
   </g>
   <g id="line2d_25">
    <path clip-path="url(#pfa76c30699)" d="M 352.185896 279.106482 
L 365.705341 302.319612 
L 366.394222 302.849658 
L 367.201157 303.172706 
L 368.065497 303.264476 
L 368.922276 303.118071 
L 369.707098 302.744494 
L 370.360975 302.171824 
L 370.710599 301.680845 
L 370.710599 301.680845 
L 383.018886 280.172506 
L 383.140651 279.341461 
L 383.039922 278.507604 
L 382.723768 277.729459 
L 382.214379 277.061637 
L 381.547504 276.551009 
L 380.769947 276.233411 
L 380.195287 276.138933 
L 380.195287 276.138933 
L 354.328174 274.408752 
L 353.541251 274.671915 
L 352.84956 275.130244 
L 352.300479 275.752347 
L 351.931617 276.495612 
L 351.76824 277.309129 
L 351.821538 278.137176 
L 352.087861 278.923035 
L 352.185896 279.106482 
L 352.185896 279.106482 
" style="fill:none;stroke:#000000;stroke-linecap:square;stroke-width:1.5;"/>
   </g>
   <g id="line2d_26">
    <path clip-path="url(#pfa76c30699)" d="M 380.293702 300.934697 
L 391.697114 281.386642 
L 392.385995 280.856597 
L 393.192931 280.533548 
L 394.057271 280.441778 
L 394.91405 280.588183 
L 395.698872 280.96176 
L 396.352748 281.53443 
L 396.702373 282.025409 
L 396.702373 282.025409 
L 407.308936 300.590172 
L 407.428685 301.430166 
L 407.321365 302.271838 
L 406.994664 303.054906 
L 406.471979 303.723285 
L 405.790748 304.229104 
L 404.999761 304.536136 
L 404.417443 304.620056 
L 404.417443 304.620056 
L 382.379287 305.620898 
L 381.604408 305.347042 
L 380.925954 304.883215 
L 380.389513 304.260587 
L 380.031133 303.520993 
L 379.874895 302.714132 
L 379.931297 301.894222 
L 380.19655 301.116355 
L 380.293702 300.934697 
L 380.293702 300.934697 
" style="fill:none;stroke:#000000;stroke-linecap:square;stroke-width:1.5;"/>
   </g>
   <g id="line2d_27">
    <path clip-path="url(#pfa76c30699)" d="M 406.767806 283.606977 
L 416.22743 299.788293 
L 416.916311 300.318339 
L 417.723247 300.641387 
L 418.587586 300.733157 
L 419.444366 300.586752 
L 420.229188 300.213175 
L 420.883064 299.640505 
L 421.232689 299.149526 
L 421.232689 299.149526 
L 429.460443 284.684249 
L 429.569307 283.867024 
L 429.463784 283.049362 
L 429.151008 282.286552 
L 428.652131 281.630177 
L 428.000886 281.12462 
L 427.241311 280.804069 
L 426.742089 280.708726 
L 426.742089 280.708726 
L 409.08273 278.880696 
L 408.26922 279.105665 
L 407.543897 279.537309 
L 406.958168 280.145034 
L 406.553545 280.88577 
L 406.358706 281.707018 
L 406.387459 282.550571 
L 406.637767 283.356645 
L 406.767806 283.606977 
L 406.767806 283.606977 
" style="fill:none;stroke:#000000;stroke-linecap:square;stroke-width:1.5;"/>
   </g>
   <g id="line2d_28">
    <path clip-path="url(#pfa76c30699)" d="M 430.832456 298.374514 
L 437.866429 286.39455 
L 438.55531 285.864504 
L 439.362246 285.541456 
L 440.226586 285.449685 
L 441.083365 285.596091 
L 441.868187 285.969668 
L 442.522063 286.542338 
L 442.871688 287.033317 
L 442.871688 287.033317 
L 449.350566 298.448598 
L 449.470378 299.288316 
L 449.363263 300.129748 
L 449.036888 300.912666 
L 448.514615 301.581031 
L 447.833826 302.087004 
L 447.04325 302.394367 
L 446.461166 302.478616 
L 446.461166 302.478616 
L 432.919785 303.061086 
L 432.144533 302.787554 
L 431.46567 302.323893 
L 430.928841 301.701277 
L 430.57014 300.961569 
L 430.413683 300.154502 
L 430.46999 299.33434 
L 430.735276 298.556228 
L 430.832456 298.374514 
L 430.832456 298.374514 
" style="fill:none;stroke:#000000;stroke-linecap:square;stroke-width:1.5;"/>
   </g>
   <g id="patch_3">
    <path d="M 90 512.64 
L 90 69.12 
" style="fill:none;stroke:#000000;stroke-linecap:square;stroke-linejoin:miter;stroke-width:0.8;"/>
   </g>
   <g id="patch_4">
    <path d="M 648 512.64 
L 648 69.12 
" style="fill:none;stroke:#000000;stroke-linecap:square;stroke-linejoin:miter;stroke-width:0.8;"/>
   </g>
   <g id="patch_5">
    <path d="M 90 512.64 
L 648 512.64 
" style="fill:none;stroke:#000000;stroke-linecap:square;stroke-linejoin:miter;stroke-width:0.8;"/>
   </g>
   <g id="patch_6">
    <path d="M 90 69.12 
L 648 69.12 
" style="fill:none;stroke:#000000;stroke-linecap:square;stroke-linejoin:miter;stroke-width:0.8;"/>
   </g>
   <g id="text_13">
    <!-- Rib generation Example -->
    <g transform="translate(296.878125 63.12)scale(0.12 -0.12)">
     <defs>
      <path d="M 44.390625 34.1875 
Q 47.5625 33.109375 50.5625 29.59375 
Q 53.5625 26.078125 56.59375 19.921875 
L 66.609375 0 
L 56 0 
L 46.6875 18.703125 
Q 43.0625 26.03125 39.671875 28.421875 
Q 36.28125 30.8125 30.421875 30.8125 
L 19.671875 30.8125 
L 19.671875 0 
L 9.8125 0 
L 9.8125 72.90625 
L 32.078125 72.90625 
Q 44.578125 72.90625 50.734375 67.671875 
Q 56.890625 62.453125 56.890625 51.90625 
Q 56.890625 45.015625 53.6875 40.46875 
Q 50.484375 35.9375 44.390625 34.1875 
z
M 19.671875 64.796875 
L 19.671875 38.921875 
L 32.078125 38.921875 
Q 39.203125 38.921875 42.84375 42.21875 
Q 46.484375 45.515625 46.484375 51.90625 
Q 46.484375 58.296875 42.84375 61.546875 
Q 39.203125 64.796875 32.078125 64.796875 
z
" id="DejaVuSans-82"/>
      <path d="M 9.421875 54.6875 
L 18.40625 54.6875 
L 18.40625 0 
L 9.421875 0 
z
M 9.421875 75.984375 
L 18.40625 75.984375 
L 18.40625 64.59375 
L 9.421875 64.59375 
z
" id="DejaVuSans-105"/>
      <path d="M 48.6875 27.296875 
Q 48.6875 37.203125 44.609375 42.84375 
Q 40.53125 48.484375 33.40625 48.484375 
Q 26.265625 48.484375 22.1875 42.84375 
Q 18.109375 37.203125 18.109375 27.296875 
Q 18.109375 17.390625 22.1875 11.75 
Q 26.265625 6.109375 33.40625 6.109375 
Q 40.53125 6.109375 44.609375 11.75 
Q 48.6875 17.390625 48.6875 27.296875 
z
M 18.109375 46.390625 
Q 20.953125 51.265625 25.265625 53.625 
Q 29.59375 56 35.59375 56 
Q 45.5625 56 51.78125 48.09375 
Q 58.015625 40.1875 58.015625 27.296875 
Q 58.015625 14.40625 51.78125 6.484375 
Q 45.5625 -1.421875 35.59375 -1.421875 
Q 29.59375 -1.421875 25.265625 0.953125 
Q 20.953125 3.328125 18.109375 8.203125 
L 18.109375 0 
L 9.078125 0 
L 9.078125 75.984375 
L 18.109375 75.984375 
z
" id="DejaVuSans-98"/>
      <path id="DejaVuSans-32"/>
      <path d="M 45.40625 27.984375 
Q 45.40625 37.75 41.375 43.109375 
Q 37.359375 48.484375 30.078125 48.484375 
Q 22.859375 48.484375 18.828125 43.109375 
Q 14.796875 37.75 14.796875 27.984375 
Q 14.796875 18.265625 18.828125 12.890625 
Q 22.859375 7.515625 30.078125 7.515625 
Q 37.359375 7.515625 41.375 12.890625 
Q 45.40625 18.265625 45.40625 27.984375 
z
M 54.390625 6.78125 
Q 54.390625 -7.171875 48.1875 -13.984375 
Q 42 -20.796875 29.203125 -20.796875 
Q 24.46875 -20.796875 20.265625 -20.09375 
Q 16.0625 -19.390625 12.109375 -17.921875 
L 12.109375 -9.1875 
Q 16.0625 -11.328125 19.921875 -12.34375 
Q 23.78125 -13.375 27.78125 -13.375 
Q 36.625 -13.375 41.015625 -8.765625 
Q 45.40625 -4.15625 45.40625 5.171875 
L 45.40625 9.625 
Q 42.625 4.78125 38.28125 2.390625 
Q 33.9375 0 27.875 0 
Q 17.828125 0 11.671875 7.65625 
Q 5.515625 15.328125 5.515625 27.984375 
Q 5.515625 40.671875 11.671875 48.328125 
Q 17.828125 56 27.875 56 
Q 33.9375 56 38.28125 53.609375 
Q 42.625 51.21875 45.40625 46.390625 
L 45.40625 54.6875 
L 54.390625 54.6875 
z
" id="DejaVuSans-103"/>
      <path d="M 56.203125 29.59375 
L 56.203125 25.203125 
L 14.890625 25.203125 
Q 15.484375 15.921875 20.484375 11.0625 
Q 25.484375 6.203125 34.421875 6.203125 
Q 39.59375 6.203125 44.453125 7.46875 
Q 49.3125 8.734375 54.109375 11.28125 
L 54.109375 2.78125 
Q 49.265625 0.734375 44.1875 -0.34375 
Q 39.109375 -1.421875 33.890625 -1.421875 
Q 20.796875 -1.421875 13.15625 6.1875 
Q 5.515625 13.8125 5.515625 26.8125 
Q 5.515625 40.234375 12.765625 48.109375 
Q 20.015625 56 32.328125 56 
Q 43.359375 56 49.78125 48.890625 
Q 56.203125 41.796875 56.203125 29.59375 
z
M 47.21875 32.234375 
Q 47.125 39.59375 43.09375 43.984375 
Q 39.0625 48.390625 32.421875 48.390625 
Q 24.90625 48.390625 20.390625 44.140625 
Q 15.875 39.890625 15.1875 32.171875 
z
" id="DejaVuSans-101"/>
      <path d="M 54.890625 33.015625 
L 54.890625 0 
L 45.90625 0 
L 45.90625 32.71875 
Q 45.90625 40.484375 42.875 44.328125 
Q 39.84375 48.1875 33.796875 48.1875 
Q 26.515625 48.1875 22.3125 43.546875 
Q 18.109375 38.921875 18.109375 30.90625 
L 18.109375 0 
L 9.078125 0 
L 9.078125 54.6875 
L 18.109375 54.6875 
L 18.109375 46.1875 
Q 21.34375 51.125 25.703125 53.5625 
Q 30.078125 56 35.796875 56 
Q 45.21875 56 50.046875 50.171875 
Q 54.890625 44.34375 54.890625 33.015625 
z
" id="DejaVuSans-110"/>
      <path d="M 41.109375 46.296875 
Q 39.59375 47.171875 37.8125 47.578125 
Q 36.03125 48 33.890625 48 
Q 26.265625 48 22.1875 43.046875 
Q 18.109375 38.09375 18.109375 28.8125 
L 18.109375 0 
L 9.078125 0 
L 9.078125 54.6875 
L 18.109375 54.6875 
L 18.109375 46.1875 
Q 20.953125 51.171875 25.484375 53.578125 
Q 30.03125 56 36.53125 56 
Q 37.453125 56 38.578125 55.875 
Q 39.703125 55.765625 41.0625 55.515625 
z
" id="DejaVuSans-114"/>
      <path d="M 34.28125 27.484375 
Q 23.390625 27.484375 19.1875 25 
Q 14.984375 22.515625 14.984375 16.5 
Q 14.984375 11.71875 18.140625 8.90625 
Q 21.296875 6.109375 26.703125 6.109375 
Q 34.1875 6.109375 38.703125 11.40625 
Q 43.21875 16.703125 43.21875 25.484375 
L 43.21875 27.484375 
z
M 52.203125 31.203125 
L 52.203125 0 
L 43.21875 0 
L 43.21875 8.296875 
Q 40.140625 3.328125 35.546875 0.953125 
Q 30.953125 -1.421875 24.3125 -1.421875 
Q 15.921875 -1.421875 10.953125 3.296875 
Q 6 8.015625 6 15.921875 
Q 6 25.140625 12.171875 29.828125 
Q 18.359375 34.515625 30.609375 34.515625 
L 43.21875 34.515625 
L 43.21875 35.40625 
Q 43.21875 41.609375 39.140625 45 
Q 35.0625 48.390625 27.6875 48.390625 
Q 23 48.390625 18.546875 47.265625 
Q 14.109375 46.140625 10.015625 43.890625 
L 10.015625 52.203125 
Q 14.9375 54.109375 19.578125 55.046875 
Q 24.21875 56 28.609375 56 
Q 40.484375 56 46.34375 49.84375 
Q 52.203125 43.703125 52.203125 31.203125 
z
" id="DejaVuSans-97"/>
      <path d="M 18.3125 70.21875 
L 18.3125 54.6875 
L 36.8125 54.6875 
L 36.8125 47.703125 
L 18.3125 47.703125 
L 18.3125 18.015625 
Q 18.3125 11.328125 20.140625 9.421875 
Q 21.96875 7.515625 27.59375 7.515625 
L 36.8125 7.515625 
L 36.8125 0 
L 27.59375 0 
Q 17.1875 0 13.234375 3.875 
Q 9.28125 7.765625 9.28125 18.015625 
L 9.28125 47.703125 
L 2.6875 47.703125 
L 2.6875 54.6875 
L 9.28125 54.6875 
L 9.28125 70.21875 
z
" id="DejaVuSans-116"/>
      <path d="M 30.609375 48.390625 
Q 23.390625 48.390625 19.1875 42.75 
Q 14.984375 37.109375 14.984375 27.296875 
Q 14.984375 17.484375 19.15625 11.84375 
Q 23.34375 6.203125 30.609375 6.203125 
Q 37.796875 6.203125 41.984375 11.859375 
Q 46.1875 17.53125 46.1875 27.296875 
Q 46.1875 37.015625 41.984375 42.703125 
Q 37.796875 48.390625 30.609375 48.390625 
z
M 30.609375 56 
Q 42.328125 56 49.015625 48.375 
Q 55.71875 40.765625 55.71875 27.296875 
Q 55.71875 13.875 49.015625 6.21875 
Q 42.328125 -1.421875 30.609375 -1.421875 
Q 18.84375 -1.421875 12.171875 6.21875 
Q 5.515625 13.875 5.515625 27.296875 
Q 5.515625 40.765625 12.171875 48.375 
Q 18.84375 56 30.609375 56 
z
" id="DejaVuSans-111"/>
      <path d="M 9.8125 72.90625 
L 55.90625 72.90625 
L 55.90625 64.59375 
L 19.671875 64.59375 
L 19.671875 43.015625 
L 54.390625 43.015625 
L 54.390625 34.71875 
L 19.671875 34.71875 
L 19.671875 8.296875 
L 56.78125 8.296875 
L 56.78125 0 
L 9.8125 0 
z
" id="DejaVuSans-69"/>
      <path d="M 54.890625 54.6875 
L 35.109375 28.078125 
L 55.90625 0 
L 45.3125 0 
L 29.390625 21.484375 
L 13.484375 0 
L 2.875 0 
L 24.125 28.609375 
L 4.6875 54.6875 
L 15.28125 54.6875 
L 29.78125 35.203125 
L 44.28125 54.6875 
z
" id="DejaVuSans-120"/>
      <path d="M 52 44.1875 
Q 55.375 50.25 60.0625 53.125 
Q 64.75 56 71.09375 56 
Q 79.640625 56 84.28125 50.015625 
Q 88.921875 44.046875 88.921875 33.015625 
L 88.921875 0 
L 79.890625 0 
L 79.890625 32.71875 
Q 79.890625 40.578125 77.09375 44.375 
Q 74.3125 48.1875 68.609375 48.1875 
Q 61.625 48.1875 57.5625 43.546875 
Q 53.515625 38.921875 53.515625 30.90625 
L 53.515625 0 
L 44.484375 0 
L 44.484375 32.71875 
Q 44.484375 40.625 41.703125 44.40625 
Q 38.921875 48.1875 33.109375 48.1875 
Q 26.21875 48.1875 22.15625 43.53125 
Q 18.109375 38.875 18.109375 30.90625 
L 18.109375 0 
L 9.078125 0 
L 9.078125 54.6875 
L 18.109375 54.6875 
L 18.109375 46.1875 
Q 21.1875 51.21875 25.484375 53.609375 
Q 29.78125 56 35.6875 56 
Q 41.65625 56 45.828125 52.96875 
Q 50 49.953125 52 44.1875 
z
" id="DejaVuSans-109"/>
      <path d="M 18.109375 8.203125 
L 18.109375 -20.796875 
L 9.078125 -20.796875 
L 9.078125 54.6875 
L 18.109375 54.6875 
L 18.109375 46.390625 
Q 20.953125 51.265625 25.265625 53.625 
Q 29.59375 56 35.59375 56 
Q 45.5625 56 51.78125 48.09375 
Q 58.015625 40.1875 58.015625 27.296875 
Q 58.015625 14.40625 51.78125 6.484375 
Q 45.5625 -1.421875 35.59375 -1.421875 
Q 29.59375 -1.421875 25.265625 0.953125 
Q 20.953125 3.328125 18.109375 8.203125 
z
M 48.6875 27.296875 
Q 48.6875 37.203125 44.609375 42.84375 
Q 40.53125 48.484375 33.40625 48.484375 
Q 26.265625 48.484375 22.1875 42.84375 
Q 18.109375 37.203125 18.109375 27.296875 
Q 18.109375 17.390625 22.1875 11.75 
Q 26.265625 6.109375 33.40625 6.109375 
Q 40.53125 6.109375 44.609375 11.75 
Q 48.6875 17.390625 48.6875 27.296875 
z
" id="DejaVuSans-112"/>
      <path d="M 9.421875 75.984375 
L 18.40625 75.984375 
L 18.40625 0 
L 9.421875 0 
z
" id="DejaVuSans-108"/>
     </defs>
     <use xlink:href="#DejaVuSans-82"/>
     <use x="69.482422" xlink:href="#DejaVuSans-105"/>
     <use x="97.265625" xlink:href="#DejaVuSans-98"/>
     <use x="160.742188" xlink:href="#DejaVuSans-32"/>
     <use x="192.529297" xlink:href="#DejaVuSans-103"/>
     <use x="256.005859" xlink:href="#DejaVuSans-101"/>
     <use x="317.529297" xlink:href="#DejaVuSans-110"/>
     <use x="380.908203" xlink:href="#DejaVuSans-101"/>
     <use x="442.431641" xlink:href="#DejaVuSans-114"/>
     <use x="483.544922" xlink:href="#DejaVuSans-97"/>
     <use x="544.824219" xlink:href="#DejaVuSans-116"/>
     <use x="584.033203" xlink:href="#DejaVuSans-105"/>
     <use x="611.816406" xlink:href="#DejaVuSans-111"/>
     <use x="672.998047" xlink:href="#DejaVuSans-110"/>
     <use x="736.376953" xlink:href="#DejaVuSans-32"/>
     <use x="768.164062" xlink:href="#DejaVuSans-69"/>
     <use x="831.347656" xlink:href="#DejaVuSans-120"/>
     <use x="890.527344" xlink:href="#DejaVuSans-97"/>
     <use x="951.806641" xlink:href="#DejaVuSans-109"/>
     <use x="1049.21875" xlink:href="#DejaVuSans-112"/>
     <use x="1112.695312" xlink:href="#DejaVuSans-108"/>
     <use x="1140.478516" xlink:href="#DejaVuSans-101"/>
    </g>
   </g>
  </g>
 </g>
 <defs>
  <clipPath id="pfa76c30699">
   <rect height="443.52" width="558" x="90" y="69.12"/>
  </clipPath>
 </defs>
</svg>
