<?xml version="1.0" encoding="utf-8" standalone="no"?>
<!DOCTYPE svg PUBLIC "-//W3C//DTD SVG 1.1//EN"
  "http://www.w3.org/Graphics/SVG/1.1/DTD/svg11.dtd">
<!-- Created with matplotlib (https://matplotlib.org/) -->
<svg height="576pt" version="1.1" viewBox="0 0 720 576" width="720pt" xmlns="http://www.w3.org/2000/svg" xmlns:xlink="http://www.w3.org/1999/xlink">
 <metadata>
  <rdf:RDF xmlns:cc="http://creativecommons.org/ns#" xmlns:dc="http://purl.org/dc/elements/1.1/" xmlns:rdf="http://www.w3.org/1999/02/22-rdf-syntax-ns#">
   <cc:Work>
    <dc:type rdf:resource="http://purl.org/dc/dcmitype/StillImage"/>
    <dc:date>2025-09-05T23:24:42.365636</dc:date>
    <dc:format>image/svg+xml</dc:format>
    <dc:creator>
     <cc:Agent>
      <dc:title>Matplotlib v3.3.2, https://matplotlib.org/</dc:title>
     </cc:Agent>
    </dc:creator>
   </cc:Work>
  </rdf:RDF>
 </metadata>
 <defs>
  <style type="text/css">*{stroke-linecap:butt;stroke-linejoin:round;}</style>
 </defs>
 <g id="figure_1">
  <g id="patch_1">
   <path d="M 0 576 
L 720 576 
L 720 0 
L 0 0 
z
" style="fill:#ffffff;"/>
  </g>
  <g id="axes_1">
   <g id="patch_2">
    <path d="M 90 512.64 
L 648 512.64 
L 648 69.12 
L 90 69.12 
z
" style="fill:#ffffff;"/>
   </g>
   <g id="Quiver_1">
    <path clip-path="url(#pb364c5be3b)" d="M 506.963926 204.154948 
L 506.933235 203.80199 
L 506.25801 204.21633 
L 507.009972 200.594678 
L 508.375757 204.032183 
L 507.63915 203.740608 
L 507.669842 204.093566 
L 506.963926 204.154948 
"/>
   </g>
   <g id="Quiver_2">
    <path clip-path="url(#pb364c5be3b)" d="M 506.350371 197.098742 
L 506.31688 196.746039 
L 505.644964 197.165723 
L 506.36817 193.53822 
L 507.761184 196.964781 
L 507.022287 196.679058 
L 507.055777 197.031762 
L 506.350371 197.098742 
"/>
   </g>
   <g id="Quiver_3">
    <path clip-path="url(#pb364c5be3b)" d="M 499.069381 190.972128 
L 498.716426 191.002847 
L 499.130819 191.678039 
L 495.509108 190.926359 
L 498.946507 189.560306 
L 498.654989 190.296936 
L 499.007944 190.266217 
L 499.069381 190.972128 
"/>
   </g>
   <g id="Quiver_4">
    <path clip-path="url(#pb364c5be3b)" d="M 469.407267 366.768113 
L 469.76135 366.780198 
L 469.431438 366.059946 
L 472.936016 367.243054 
L 469.358923 368.184446 
L 469.737178 367.488365 
L 469.383095 367.476279 
L 469.407267 366.768113 
"/>
   </g>
   <g id="Quiver_5">
    <path clip-path="url(#pb364c5be3b)" d="M 476.418623 360.325662 
L 476.433517 359.971686 
L 475.71067 360.295873 
L 476.921544 356.800792 
L 477.834529 360.38524 
L 477.14147 360.001474 
L 477.126576 360.355451 
L 476.418623 360.325662 
"/>
   </g>
   <g id="Quiver_6">
    <path clip-path="url(#pb364c5be3b)" d="M 476.716405 353.248959 
L 476.728491 352.894875 
L 476.008238 353.224787 
L 477.191347 349.72021 
L 478.132739 353.297302 
L 477.436658 352.919047 
L 477.424572 353.273131 
L 476.716405 353.248959 
"/>
   </g>
   <g id="Quiver_7">
    <path clip-path="url(#pb364c5be3b)" d="M 470.272529 346.237543 
L 469.918553 346.22264 
L 470.242724 346.945495 
L 466.74767 345.734542 
L 470.332139 344.821638 
L 469.948358 345.514688 
L 470.302334 345.52959 
L 470.272529 346.237543 
"/>
   </g>
   <g id="Quiver_8">
    <path clip-path="url(#pb364c5be3b)" d="M 500.838043 211.444145 
L 501.190746 211.410654 
L 500.771061 210.738739 
L 504.398566 211.461937 
L 500.972008 212.854958 
L 501.257728 212.116061 
L 500.905025 212.149552 
L 500.838043 211.444145 
"/>
   </g>
   <g id="Quiver_9">
    <path clip-path="url(#pb364c5be3b)" d="M 622.037661 131.154531 
L 622.049688 130.800446 
L 621.32949 131.130476 
L 622.512021 127.625704 
L 623.454002 131.202641 
L 622.757859 130.824501 
L 622.745832 131.178586 
L 622.037661 131.154531 
"/>
   </g>
   <g id="Quiver_10">
    <path clip-path="url(#pb364c5be3b)" d="M 622.278127 124.075625 
L 622.287345 123.721455 
L 621.569788 124.057189 
L 622.724478 120.543146 
L 623.694806 124.112497 
L 622.995685 123.739891 
L 622.986467 124.094061 
L 622.278127 124.075625 
"/>
   </g>
   <g id="Quiver_11">
    <path clip-path="url(#pb364c5be3b)" d="M 615.784053 117.116837 
L 615.429968 117.104809 
L 615.759998 117.825008 
L 612.255226 116.642475 
L 615.832164 115.700495 
L 615.454023 116.396638 
L 615.808108 116.408666 
L 615.784053 117.116837 
"/>
   </g>
   <g id="Quiver_12">
    <path clip-path="url(#pb364c5be3b)" d="M 465.594664 465.389553 
L 465.933763 465.492182 
L 465.799922 464.711354 
L 468.883028 466.754946 
L 465.184146 466.745951 
L 465.728504 466.170381 
L 465.389405 466.067752 
L 465.594664 465.389553 
"/>
   </g>
   <g id="Quiver_13">
    <path clip-path="url(#pb364c5be3b)" d="M 474.025576 460.964171 
L 474.130892 460.625896 
L 473.349027 460.753538 
L 475.417013 457.686741 
L 475.378674 461.385436 
L 474.807441 460.836529 
L 474.702125 461.174803 
L 474.025576 460.964171 
"/>
   </g>
   <g id="Quiver_14">
    <path clip-path="url(#pb364c5be3b)" d="M 476.131047 454.201461 
L 476.233676 453.862361 
L 475.452848 453.996202 
L 477.496439 450.913096 
L 477.487444 454.611978 
L 476.911875 454.06762 
L 476.809246 454.406719 
L 476.131047 454.201461 
"/>
   </g>
   <g id="Quiver_15">
    <path clip-path="url(#pb364c5be3b)" d="M 471.680115 445.762594 
L 471.341839 445.657283 
L 471.469492 446.439146 
L 468.402667 444.371201 
L 472.101362 444.409491 
L 471.552462 444.980731 
L 471.890738 445.086043 
L 471.680115 445.762594 
"/>
   </g>
   <g id="Quiver_16">
    <path clip-path="url(#pb364c5be3b)" d="M 615.078736 137.653423 
L 615.432906 137.662639 
L 615.097169 136.945083 
L 618.611217 138.099759 
L 615.041869 139.070102 
L 615.414472 138.370979 
L 615.060303 138.361762 
L 615.078736 137.653423 
"/>
   </g>
   <g id="matplotlib.axis_1">
    <g id="xtick_1">
     <g id="line2d_1">
      <defs>
       <path d="M 0 0 
L 0 3.5 
" id="m4ff2a36afe" style="stroke:#000000;stroke-width:0.8;"/>
      </defs>
      <g>
       <use style="stroke:#000000;stroke-width:0.8;" x="95.594183" xlink:href="#m4ff2a36afe" y="512.64"/>
      </g>
     </g>
     <g id="text_1">
      <!-- 0 -->
      <g transform="translate(92.412933 527.238438)scale(0.1 -0.1)">
       <defs>
        <path d="M 31.78125 66.40625 
Q 24.171875 66.40625 20.328125 58.90625 
Q 16.5 51.421875 16.5 36.375 
Q 16.5 21.390625 20.328125 13.890625 
Q 24.171875 6.390625 31.78125 6.390625 
Q 39.453125 6.390625 43.28125 13.890625 
Q 47.125 21.390625 47.125 36.375 
Q 47.125 51.421875 43.28125 58.90625 
Q 39.453125 66.40625 31.78125 66.40625 
z
M 31.78125 74.21875 
Q 44.046875 74.21875 50.515625 64.515625 
Q 56.984375 54.828125 56.984375 36.375 
Q 56.984375 17.96875 50.515625 8.265625 
Q 44.046875 -1.421875 31.78125 -1.421875 
Q 19.53125 -1.421875 13.0625 8.265625 
Q 6.59375 17.96875 6.59375 36.375 
Q 6.59375 54.828125 13.0625 64.515625 
Q 19.53125 74.21875 31.78125 74.21875 
z
" id="DejaVuSans-48"/>
       </defs>
       <use xlink:href="#DejaVuSans-48"/>
      </g>
     </g>
    </g>
    <g id="xtick_2">
     <g id="line2d_2">
      <g>
       <use style="stroke:#000000;stroke-width:0.8;" x="166.452119" xlink:href="#m4ff2a36afe" y="512.64"/>
      </g>
     </g>
     <g id="text_2">
      <!-- 20 -->
      <g transform="translate(160.089619 527.238438)scale(0.1 -0.1)">
       <defs>
        <path d="M 19.1875 8.296875 
L 53.609375 8.296875 
L 53.609375 0 
L 7.328125 0 
L 7.328125 8.296875 
Q 12.9375 14.109375 22.625 23.890625 
Q 32.328125 33.6875 34.8125 36.53125 
Q 39.546875 41.84375 41.421875 45.53125 
Q 43.3125 49.21875 43.3125 52.78125 
Q 43.3125 58.59375 39.234375 62.25 
Q 35.15625 65.921875 28.609375 65.921875 
Q 23.96875 65.921875 18.8125 64.3125 
Q 13.671875 62.703125 7.8125 59.421875 
L 7.8125 69.390625 
Q 13.765625 71.78125 18.9375 73 
Q 24.125 74.21875 28.421875 74.21875 
Q 39.75 74.21875 46.484375 68.546875 
Q 53.21875 62.890625 53.21875 53.421875 
Q 53.21875 48.921875 51.53125 44.890625 
Q 49.859375 40.875 45.40625 35.40625 
Q 44.1875 33.984375 37.640625 27.21875 
Q 31.109375 20.453125 19.1875 8.296875 
z
" id="DejaVuSans-50"/>
       </defs>
       <use xlink:href="#DejaVuSans-50"/>
       <use x="63.623047" xlink:href="#DejaVuSans-48"/>
      </g>
     </g>
    </g>
    <g id="xtick_3">
     <g id="line2d_3">
      <g>
       <use style="stroke:#000000;stroke-width:0.8;" x="237.310054" xlink:href="#m4ff2a36afe" y="512.64"/>
      </g>
     </g>
     <g id="text_3">
      <!-- 40 -->
      <g transform="translate(230.947554 527.238438)scale(0.1 -0.1)">
       <defs>
        <path d="M 37.796875 64.3125 
L 12.890625 25.390625 
L 37.796875 25.390625 
z
M 35.203125 72.90625 
L 47.609375 72.90625 
L 47.609375 25.390625 
L 58.015625 25.390625 
L 58.015625 17.1875 
L 47.609375 17.1875 
L 47.609375 0 
L 37.796875 0 
L 37.796875 17.1875 
L 4.890625 17.1875 
L 4.890625 26.703125 
z
" id="DejaVuSans-52"/>
       </defs>
       <use xlink:href="#DejaVuSans-52"/>
       <use x="63.623047" xlink:href="#DejaVuSans-48"/>
      </g>
     </g>
    </g>
    <g id="xtick_4">
     <g id="line2d_4">
      <g>
       <use style="stroke:#000000;stroke-width:0.8;" x="308.16799" xlink:href="#m4ff2a36afe" y="512.64"/>
      </g>
     </g>
     <g id="text_4">
      <!-- 60 -->
      <g transform="translate(301.80549 527.238438)scale(0.1 -0.1)">
       <defs>
        <path d="M 33.015625 40.375 
Q 26.375 40.375 22.484375 35.828125 
Q 18.609375 31.296875 18.609375 23.390625 
Q 18.609375 15.53125 22.484375 10.953125 
Q 26.375 6.390625 33.015625 6.390625 
Q 39.65625 6.390625 43.53125 10.953125 
Q 47.40625 15.53125 47.40625 23.390625 
Q 47.40625 31.296875 43.53125 35.828125 
Q 39.65625 40.375 33.015625 40.375 
z
M 52.59375 71.296875 
L 52.59375 62.3125 
Q 48.875 64.0625 45.09375 64.984375 
Q 41.3125 65.921875 37.59375 65.921875 
Q 27.828125 65.921875 22.671875 59.328125 
Q 17.53125 52.734375 16.796875 39.40625 
Q 19.671875 43.65625 24.015625 45.921875 
Q 28.375 48.1875 33.59375 48.1875 
Q 44.578125 48.1875 50.953125 41.515625 
Q 57.328125 34.859375 57.328125 23.390625 
Q 57.328125 12.15625 50.6875 5.359375 
Q 44.046875 -1.421875 33.015625 -1.421875 
Q 20.359375 -1.421875 13.671875 8.265625 
Q 6.984375 17.96875 6.984375 36.375 
Q 6.984375 53.65625 15.1875 63.9375 
Q 23.390625 74.21875 37.203125 74.21875 
Q 40.921875 74.21875 44.703125 73.484375 
Q 48.484375 72.75 52.59375 71.296875 
z
" id="DejaVuSans-54"/>
       </defs>
       <use xlink:href="#DejaVuSans-54"/>
       <use x="63.623047" xlink:href="#DejaVuSans-48"/>
      </g>
     </g>
    </g>
    <g id="xtick_5">
     <g id="line2d_5">
      <g>
       <use style="stroke:#000000;stroke-width:0.8;" x="379.025926" xlink:href="#m4ff2a36afe" y="512.64"/>
      </g>
     </g>
     <g id="text_5">
      <!-- 80 -->
      <g transform="translate(372.663426 527.238438)scale(0.1 -0.1)">
       <defs>
        <path d="M 31.78125 34.625 
Q 24.75 34.625 20.71875 30.859375 
Q 16.703125 27.09375 16.703125 20.515625 
Q 16.703125 13.921875 20.71875 10.15625 
Q 24.75 6.390625 31.78125 6.390625 
Q 38.8125 6.390625 42.859375 10.171875 
Q 46.921875 13.96875 46.921875 20.515625 
Q 46.921875 27.09375 42.890625 30.859375 
Q 38.875 34.625 31.78125 34.625 
z
M 21.921875 38.8125 
Q 15.578125 40.375 12.03125 44.71875 
Q 8.5 49.078125 8.5 55.328125 
Q 8.5 64.0625 14.71875 69.140625 
Q 20.953125 74.21875 31.78125 74.21875 
Q 42.671875 74.21875 48.875 69.140625 
Q 55.078125 64.0625 55.078125 55.328125 
Q 55.078125 49.078125 51.53125 44.71875 
Q 48 40.375 41.703125 38.8125 
Q 48.828125 37.15625 52.796875 32.3125 
Q 56.78125 27.484375 56.78125 20.515625 
Q 56.78125 9.90625 50.3125 4.234375 
Q 43.84375 -1.421875 31.78125 -1.421875 
Q 19.734375 -1.421875 13.25 4.234375 
Q 6.78125 9.90625 6.78125 20.515625 
Q 6.78125 27.484375 10.78125 32.3125 
Q 14.796875 37.15625 21.921875 38.8125 
z
M 18.3125 54.390625 
Q 18.3125 48.734375 21.84375 45.5625 
Q 25.390625 42.390625 31.78125 42.390625 
Q 38.140625 42.390625 41.71875 45.5625 
Q 45.3125 48.734375 45.3125 54.390625 
Q 45.3125 60.0625 41.71875 63.234375 
Q 38.140625 66.40625 31.78125 66.40625 
Q 25.390625 66.40625 21.84375 63.234375 
Q 18.3125 60.0625 18.3125 54.390625 
z
" id="DejaVuSans-56"/>
       </defs>
       <use xlink:href="#DejaVuSans-56"/>
       <use x="63.623047" xlink:href="#DejaVuSans-48"/>
      </g>
     </g>
    </g>
    <g id="xtick_6">
     <g id="line2d_6">
      <g>
       <use style="stroke:#000000;stroke-width:0.8;" x="449.883861" xlink:href="#m4ff2a36afe" y="512.64"/>
      </g>
     </g>
     <g id="text_6">
      <!-- 100 -->
      <g transform="translate(440.340111 527.238438)scale(0.1 -0.1)">
       <defs>
        <path d="M 12.40625 8.296875 
L 28.515625 8.296875 
L 28.515625 63.921875 
L 10.984375 60.40625 
L 10.984375 69.390625 
L 28.421875 72.90625 
L 38.28125 72.90625 
L 38.28125 8.296875 
L 54.390625 8.296875 
L 54.390625 0 
L 12.40625 0 
z
" id="DejaVuSans-49"/>
       </defs>
       <use xlink:href="#DejaVuSans-49"/>
       <use x="63.623047" xlink:href="#DejaVuSans-48"/>
       <use x="127.246094" xlink:href="#DejaVuSans-48"/>
      </g>
     </g>
    </g>
    <g id="xtick_7">
     <g id="line2d_7">
      <g>
       <use style="stroke:#000000;stroke-width:0.8;" x="520.741797" xlink:href="#m4ff2a36afe" y="512.64"/>
      </g>
     </g>
     <g id="text_7">
      <!-- 120 -->
      <g transform="translate(511.198047 527.238438)scale(0.1 -0.1)">
       <use xlink:href="#DejaVuSans-49"/>
       <use x="63.623047" xlink:href="#DejaVuSans-50"/>
       <use x="127.246094" xlink:href="#DejaVuSans-48"/>
      </g>
     </g>
    </g>
    <g id="xtick_8">
     <g id="line2d_8">
      <g>
       <use style="stroke:#000000;stroke-width:0.8;" x="591.599732" xlink:href="#m4ff2a36afe" y="512.64"/>
      </g>
     </g>
     <g id="text_8">
      <!-- 140 -->
      <g transform="translate(582.055982 527.238438)scale(0.1 -0.1)">
       <use xlink:href="#DejaVuSans-49"/>
       <use x="63.623047" xlink:href="#DejaVuSans-52"/>
       <use x="127.246094" xlink:href="#DejaVuSans-48"/>
      </g>
     </g>
    </g>
   </g>
   <g id="matplotlib.axis_2">
    <g id="ytick_1">
     <g id="line2d_9">
      <defs>
       <path d="M 0 0 
L -3.5 0 
" id="m8741351c7c" style="stroke:#000000;stroke-width:0.8;"/>
      </defs>
      <g>
       <use style="stroke:#000000;stroke-width:0.8;" x="90" xlink:href="#m8741351c7c" y="469.591856"/>
      </g>
     </g>
     <g id="text_9">
      <!-- 0 -->
      <g transform="translate(76.6375 473.391074)scale(0.1 -0.1)">
       <use xlink:href="#DejaVuSans-48"/>
      </g>
     </g>
    </g>
    <g id="ytick_2">
     <g id="line2d_10">
      <g>
       <use style="stroke:#000000;stroke-width:0.8;" x="90" xlink:href="#m8741351c7c" y="398.73392"/>
      </g>
     </g>
     <g id="text_10">
      <!-- 20 -->
      <g transform="translate(70.275 402.533139)scale(0.1 -0.1)">
       <use xlink:href="#DejaVuSans-50"/>
       <use x="63.623047" xlink:href="#DejaVuSans-48"/>
      </g>
     </g>
    </g>
    <g id="ytick_3">
     <g id="line2d_11">
      <g>
       <use style="stroke:#000000;stroke-width:0.8;" x="90" xlink:href="#m8741351c7c" y="327.875984"/>
      </g>
     </g>
     <g id="text_11">
      <!-- 40 -->
      <g transform="translate(70.275 331.675203)scale(0.1 -0.1)">
       <use xlink:href="#DejaVuSans-52"/>
       <use x="63.623047" xlink:href="#DejaVuSans-48"/>
      </g>
     </g>
    </g>
    <g id="ytick_4">
     <g id="line2d_12">
      <g>
       <use style="stroke:#000000;stroke-width:0.8;" x="90" xlink:href="#m8741351c7c" y="257.018049"/>
      </g>
     </g>
     <g id="text_12">
      <!-- 60 -->
      <g transform="translate(70.275 260.817268)scale(0.1 -0.1)">
       <use xlink:href="#DejaVuSans-54"/>
       <use x="63.623047" xlink:href="#DejaVuSans-48"/>
      </g>
     </g>
    </g>
    <g id="ytick_5">
     <g id="line2d_13">
      <g>
       <use style="stroke:#000000;stroke-width:0.8;" x="90" xlink:href="#m8741351c7c" y="186.160113"/>
      </g>
     </g>
     <g id="text_13">
      <!-- 80 -->
      <g transform="translate(70.275 189.959332)scale(0.1 -0.1)">
       <use xlink:href="#DejaVuSans-56"/>
       <use x="63.623047" xlink:href="#DejaVuSans-48"/>
      </g>
     </g>
    </g>
    <g id="ytick_6">
     <g id="line2d_14">
      <g>
       <use style="stroke:#000000;stroke-width:0.8;" x="90" xlink:href="#m8741351c7c" y="115.302178"/>
      </g>
     </g>
     <g id="text_14">
      <!-- 100 -->
      <g transform="translate(63.9125 119.101396)scale(0.1 -0.1)">
       <use xlink:href="#DejaVuSans-49"/>
       <use x="63.623047" xlink:href="#DejaVuSans-48"/>
       <use x="127.246094" xlink:href="#DejaVuSans-48"/>
      </g>
     </g>
    </g>
   </g>
   <g id="line2d_15">
    <path clip-path="url(#pb364c5be3b)" d="M 500.257727 204.73808 
L 499.643917 197.679069 
" style="fill:none;stroke:#0000ff;stroke-linecap:square;stroke-width:1.5;"/>
   </g>
   <g id="line2d_16">
    <path clip-path="url(#pb364c5be3b)" d="M 499.643917 197.679069 
L 493.623249 198.203063 
L 478.199673 199.645122 
L 453.64653 202.363638 
L 426.362248 206.056432 
L 400.167851 210.298346 
L 375.326359 215.020777 
L 352.154546 220.135712 
L 330.922787 225.534165 
L 311.870158 231.052951 
L 295.072432 236.575031 
L 280.485486 242.00121 
L 267.929596 247.21671 
L 257.180407 252.226619 
L 247.974498 256.978833 
L 240.101705 261.543037 
L 233.314952 265.881877 
L 227.462818 270.046678 
L 222.423313 274.092098 
L 218.027515 277.971325 
L 214.275858 281.794141 
L 210.995644 285.47262 
L 208.399954 289.24166 
L 206.279492 292.947513 
L 204.84027 296.785064 
L 204.654669 300.724204 
L 204.668253 304.685547 
L 206.363022 308.415598 
L 208.799005 311.751218 
L 211.712576 314.974641 
L 215.220407 317.956225 
L 219.355528 320.652767 
L 224.037224 323.246217 
L 229.340029 325.813942 
L 235.373098 328.408766 
L 242.284645 331.110401 
L 250.338337 333.827406 
L 259.83097 336.622242 
L 271.189961 339.451659 
L 284.908186 342.416442 
L 301.555789 345.408907 
L 321.533665 348.494953 
L 345.039454 351.390018 
L 371.729283 354.037439 
L 401.032931 356.338799 
L 432.143893 358.292203 
L 455.242904 359.424199 
L 467.876969 359.96625 
L 469.69307 360.042667 
" style="fill:none;stroke:#0000ff;stroke-linecap:square;stroke-width:1.5;"/>
   </g>
   <g id="line2d_17">
    <path clip-path="url(#pb364c5be3b)" d="M 469.69307 360.042667 
L 469.990959 352.963155 
" style="fill:none;stroke:#0000ff;stroke-linecap:square;stroke-width:1.5;"/>
   </g>
   <g id="line2d_18">
    <path clip-path="url(#pb364c5be3b)" d="M 469.990959 352.963155 
L 469.489106 352.942027 
L 468.98727 352.92079 
L 442.447128 351.791795 
L 416.438677 350.368614 
L 377.895067 347.412263 
L 365.307966 346.305511 
L 346.438829 344.332716 
L 340.129978 343.621912 
L 327.54932 342.067109 
L 321.27978 341.220008 
L 308.763007 339.352225 
L 302.506123 338.337934 
L 292.135824 336.506119 
L 288.005489 335.731327 
L 279.784032 334.060388 
L 275.686351 333.164342 
L 267.532348 331.245516 
L 263.499151 330.226256 
L 256.907914 328.373824 
L 254.319092 327.599043 
L 249.18035 325.959742 
L 246.643684 325.09884 
L 241.640428 323.259078 
L 239.139343 322.269289 
L 234.199672 320.198131 
L 231.778493 319.118724 
L 227.084152 316.823844 
L 224.800845 315.605393 
L 221.547205 313.618694 
L 220.492386 312.922337 
L 218.563876 311.486812 
L 217.656235 310.722545 
L 215.96627 309.102494 
L 215.1617 308.22366 
L 213.620341 306.337467 
L 212.984129 305.447346 
L 212.292543 304.229185 
L 212.122403 303.870896 
L 211.959727 303.448584 
L 211.920513 303.327139 
L 211.866281 303.12833 
L 211.85197 303.062041 
L 211.813311 302.811311 
L 211.794167 302.635184 
L 211.758984 302.030192 
L 211.757997 301.511949 
L 211.785723 300.238157 
L 211.80804 299.685387 
L 211.86675 299.004769 
L 211.890197 298.80198 
L 211.943153 298.444025 
L 211.970028 298.300399 
L 212.047067 297.964415 
L 212.101755 297.765309 
L 212.280735 297.208289 
L 212.427404 296.826031 
L 213.083472 295.335439 
L 213.761306 294.130026 
L 214.9377 292.27805 
L 215.338681 291.680592 
L 216.252053 290.403091 
L 216.759448 289.749424 
L 217.874219 288.419066 
L 218.470695 287.751291 
L 219.738293 286.381327 
L 220.39301 285.693904 
L 221.93848 284.123722 
L 222.834705 283.255596 
L 224.970736 281.291486 
L 226.238343 280.194864 
L 228.906839 277.97507 
L 230.300179 276.867065 
L 234.67629 273.556956 
L 237.787714 271.435783 
L 244.188896 267.375819 
L 247.4762 265.434283 
L 254.143449 261.756844 
L 257.553104 260.007495 
L 267.164998 255.328124 
L 273.442109 252.569564 
L 286.211957 247.408798 
L 292.686322 245.001622 
L 311.334801 238.570335 
L 323.67237 234.902605 
L 354.317089 226.756834 
L 372.754121 222.705754 
L 409.878625 215.748933 
L 428.56591 212.846353 
L 464.910782 208.140476 
L 482.567625 206.276307 
L 500.257727 204.73808 
" style="fill:none;stroke:#0000ff;stroke-linecap:square;stroke-width:1.5;"/>
   </g>
   <g id="line2d_19">
    <path clip-path="url(#pb364c5be3b)" d="M 615.310037 130.926008 
L 615.550588 123.844291 
" style="fill:none;stroke:#0000ff;stroke-linecap:square;stroke-width:1.5;"/>
   </g>
   <g id="line2d_20">
    <path clip-path="url(#pb364c5be3b)" d="M 615.550588 123.844291 
L 606.442701 123.53491 
L 578.220294 122.795864 
L 531.971153 122.889791 
L 478.307829 124.894872 
L 428.873248 128.735552 
L 384.305703 134.278657 
L 344.809238 140.89626 
L 310.368486 148.503122 
L 280.660331 156.721146 
L 255.08147 165.01887 
L 233.154102 173.489091 
L 214.376187 182.073912 
L 198.119269 190.429018 
L 184.106969 198.765073 
L 171.91975 206.95427 
L 161.476399 215.223434 
L 152.357965 223.304027 
L 144.685296 231.467177 
L 138.112292 239.522023 
L 132.780232 247.646415 
L 128.63724 255.816206 
L 125.533998 264.044516 
L 123.394447 272.499785 
L 122.447007 281.346012 
L 123.084195 290.555597 
L 125.73241 299.833675 
L 130.400617 308.92363 
L 137.322518 317.388535 
L 145.998232 325.443382 
L 156.43836 333.243374 
L 168.554256 341.245762 
L 182.656957 349.62764 
L 199.236315 358.463002 
L 218.911348 368.031523 
L 242.503608 378.651323 
L 271.104602 390.661468 
L 305.964344 404.128218 
L 347.853398 419.60411 
L 397.349843 436.547224 
L 438.155243 449.746974 
L 462.414448 457.349235 
L 467.598359 458.963162 
" style="fill:none;stroke:#0000ff;stroke-linecap:square;stroke-width:1.5;"/>
   </g>
   <g id="line2d_21">
    <path clip-path="url(#pb364c5be3b)" d="M 467.598359 458.963162 
L 469.70467 452.197717 
" style="fill:none;stroke:#0000ff;stroke-linecap:square;stroke-width:1.5;"/>
   </g>
   <g id="line2d_22">
    <path clip-path="url(#pb364c5be3b)" d="M 469.70467 452.197717 
L 450.178166 446.11875 
L 430.697382 439.904592 
L 389.833851 426.474012 
L 368.461555 419.238152 
L 336.625855 407.863961 
L 326.041937 403.982088 
L 304.918474 396.07477 
L 294.374899 392.064337 
L 273.426347 383.831966 
L 263.021799 379.591674 
L 242.34449 370.783486 
L 232.071071 366.23492 
L 215.891266 358.667734 
L 209.910041 355.779446 
L 198.077984 349.803967 
L 192.228957 346.720242 
L 180.741597 340.27129 
L 175.09016 336.897943 
L 166.815256 331.589883 
L 164.094582 329.779589 
L 158.744465 326.05778 
L 156.123439 324.157304 
L 151.433448 320.496233 
L 149.333498 318.746458 
L 145.328696 315.10446 
L 143.418313 313.207743 
L 140.540705 310.018208 
L 139.495606 308.771294 
L 137.558768 306.230979 
L 136.672416 304.944765 
L 134.467658 301.325519 
L 133.285139 298.895992 
L 131.400845 293.875609 
L 130.706447 291.304531 
L 129.983612 286.799855 
L 129.820516 284.851297 
L 129.711071 277.08226 
L 130.827161 271.11888 
L 133.63373 262.59893 
L 134.687538 259.950455 
L 137.094556 254.779273 
L 138.446147 252.261479 
L 141.4305 247.367069 
L 143.060407 244.991874 
L 146.570037 240.360254 
L 148.458258 238.087999 
L 152.270215 233.77006 
L 154.166583 231.74404 
L 158.074076 227.839371 
L 160.098199 225.954665 
L 164.296419 222.244073 
L 166.467848 220.41463 
L 171.514902 216.32183 
L 174.412637 214.100474 
L 180.505502 209.734011 
L 183.717428 207.58334 
L 191.657252 202.517301 
L 196.414284 199.682215 
L 205.976166 194.374461 
L 210.799261 191.882209 
L 220.583703 187.0793 
L 225.525222 184.773602 
L 237.086751 179.685899 
L 243.751358 176.993076 
L 258.666425 171.41773 
L 266.943288 168.615334 
L 283.655433 163.37467 
L 292.082743 160.926414 
L 312.857198 155.349877 
L 325.267979 152.432179 
L 349.89433 147.358061 
L 362.099777 145.181728 
L 386.622634 141.323801 
L 398.934111 139.631442 
L 427.738923 136.203187 
L 444.259511 134.659592 
L 482.93516 131.881448 
L 505.109952 130.904982 
L 547.271669 129.952153 
L 567.24705 129.881617 
L 596.576152 130.364951 
L 605.942605 130.607817 
L 615.310037 130.926008 
" style="fill:none;stroke:#0000ff;stroke-linecap:square;stroke-width:1.5;"/>
   </g>
   <g id="line2d_23">
    <defs>
     <path d="M 0 3 
C 0.795609 3 1.55874 2.683901 2.12132 2.12132 
C 2.683901 1.55874 3 0.795609 3 0 
C 3 -0.795609 2.683901 -1.55874 2.12132 -2.12132 
C 1.55874 -2.683901 0.795609 -3 0 -3 
C -0.795609 -3 -1.55874 -2.683901 -2.12132 -2.12132 
C -2.683901 -1.55874 -3 -0.795609 -3 0 
C -3 0.795609 -2.683901 1.55874 -2.12132 2.12132 
C -1.55874 2.683901 -0.795609 3 0 3 
z
" id="m1185a4fd23" style="stroke:#0000ff;"/>
    </defs>
    <g clip-path="url(#pb364c5be3b)">
     <use style="fill:#0000ff;stroke:#0000ff;" x="507.316884" xlink:href="#m1185a4fd23" y="204.124257"/>
    </g>
   </g>
   <g id="line2d_24">
    <path clip-path="url(#pb364c5be3b)" d="M 507.316884 204.124257 
L 506.703074 197.065246 
" style="fill:none;stroke:#0000ff;stroke-dasharray:5.55,2.4;stroke-dashoffset:0;stroke-width:1.5;"/>
   </g>
   <g id="line2d_25">
    <path clip-path="url(#pb364c5be3b)" d="M 506.703074 197.065252 
L 506.692446 196.953323 
L 506.680043 196.841577 
L 506.665869 196.730042 
L 506.649927 196.618746 
L 506.632221 196.507717 
L 506.612756 196.396983 
L 506.591536 196.286572 
L 506.568567 196.176511 
L 506.543855 196.066828 
L 506.517405 195.957551 
L 506.489225 195.848708 
L 506.459321 195.740326 
L 506.427701 195.632432 
L 506.394374 195.525053 
L 506.359347 195.418216 
L 506.322629 195.311949 
L 506.284229 195.206277 
L 506.244158 195.101228 
L 506.202425 194.996828 
L 506.159041 194.893104 
L 506.114017 194.790081 
L 506.067363 194.687785 
L 506.019093 194.586242 
L 505.969217 194.485478 
L 505.917749 194.385518 
L 505.864701 194.286388 
L 505.810087 194.188111 
L 505.75392 194.090713 
L 505.696215 193.994219 
L 505.636987 193.898653 
L 505.576249 193.804038 
L 505.514018 193.710399 
L 505.450309 193.617759 
L 505.385139 193.526142 
L 505.318522 193.43557 
L 505.250477 193.346067 
L 505.181021 193.257654 
L 505.11017 193.170355 
L 505.037943 193.084191 
L 504.964358 192.999184 
L 504.889434 192.915355 
L 504.813189 192.832725 
L 504.735642 192.751316 
L 504.656814 192.671147 
L 504.576723 192.592239 
L 504.495391 192.514612 
L 504.412837 192.438285 
L 504.329082 192.363277 
L 504.244148 192.289608 
L 504.158055 192.217296 
L 504.070826 192.146359 
L 503.982483 192.076815 
L 503.893047 192.008681 
L 503.802542 191.941975 
L 503.710989 191.876713 
L 503.618412 191.812912 
L 503.524835 191.750588 
L 503.430281 191.689757 
L 503.334773 191.630434 
L 503.238336 191.572633 
L 503.140994 191.51637 
L 503.042772 191.461659 
L 502.943694 191.408513 
L 502.843785 191.356946 
L 502.74307 191.30697 
L 502.641576 191.258599 
L 502.539326 191.211844 
L 502.436348 191.166717 
L 502.332666 191.12323 
L 502.228308 191.081394 
L 502.123299 191.041218 
L 502.017665 191.002714 
L 501.911435 190.965891 
L 501.804633 190.930758 
L 501.697287 190.897324 
L 501.589424 190.865597 
L 501.481071 190.835586 
L 501.372256 190.807298 
L 501.263006 190.78074 
L 501.153348 190.755919 
L 501.04331 190.73284 
L 500.932919 190.711511 
L 500.822205 190.691936 
L 500.711193 190.67412 
L 500.599913 190.658067 
L 500.488392 190.643783 
L 500.376658 190.631269 
L 500.26474 190.62053 
L 500.152666 190.611568 
L 500.040464 190.604386 
L 499.928161 190.598985 
L 499.815787 190.595366 
L 499.70337 190.593531 
L 499.590938 190.593479 
L 499.47852 190.595212 
L 499.366143 190.598728 
L 499.253835 190.604027 
L 499.141626 190.611107 
L 499.029544 190.619966 
" style="fill:none;stroke:#0000ff;stroke-dasharray:5.55,2.4;stroke-dashoffset:0;stroke-width:1.5;"/>
   </g>
   <g id="line2d_26">
    <path clip-path="url(#pb364c5be3b)" d="M 499.038663 190.619172 
L 492.998754 191.144842 
L 477.49833 192.594123 
L 452.786997 195.33017 
L 425.320744 199.047599 
L 398.941037 203.319564 
L 373.902654 208.079485 
L 350.518053 213.241486 
L 329.063713 218.696599 
L 309.779878 224.282485 
L 292.726778 229.888748 
L 277.891969 235.407111 
L 265.069357 240.733848 
L 254.06083 245.864488 
L 244.568967 250.765072 
L 236.410112 255.494846 
L 229.362698 260.000707 
L 223.174872 264.40558 
L 217.875485 268.65834 
L 213.13392 272.846756 
L 209.135049 276.91761 
L 205.432593 281.083892 
L 202.383161 285.499111 
L 199.973909 289.715161 
L 197.863142 295.548881 
L 197.573045 300.481164 
L 197.70395 305.992051 
L 200.406774 312.253773 
L 203.298843 316.218509 
L 206.752919 320.0353 
L 211.015081 323.659181 
L 215.742334 326.748118 
L 220.778383 329.538151 
L 226.409049 332.26513 
L 232.677661 334.961864 
L 239.851183 337.765229 
L 248.208087 340.585402 
L 257.97141 343.459676 
L 269.588732 346.354161 
L 283.529939 349.366903 
L 300.391619 352.398412 
L 320.552452 355.512481 
L 344.264483 358.433305 
L 371.104876 361.095667 
L 400.535852 363.407136 
L 431.757488 365.367453 
L 454.929081 366.503039 
L 467.578973 367.045774 
L 469.395197 367.122197 
" style="fill:none;stroke:#0000ff;stroke-dasharray:5.55,2.4;stroke-dashoffset:0;stroke-width:1.5;"/>
   </g>
   <g id="line2d_27">
    <path clip-path="url(#pb364c5be3b)" d="M 469.395181 367.122196 
L 469.507542 367.126031 
L 469.61995 367.128083 
L 469.732376 367.128351 
L 469.844792 367.126836 
L 469.95717 367.123537 
L 470.069482 367.118456 
L 470.181698 367.111593 
L 470.293792 367.10295 
L 470.405735 367.092531 
L 470.517498 367.080336 
L 470.629054 367.06637 
L 470.740374 367.050636 
L 470.85143 367.033137 
L 470.962195 367.013879 
L 471.07264 366.992865 
L 471.182738 366.970102 
L 471.292461 366.945595 
L 471.401781 366.919351 
L 471.510671 366.891375 
L 471.619104 366.861675 
L 471.727052 366.830258 
L 471.834487 366.797132 
L 471.941384 366.762307 
L 472.047714 366.725789 
L 472.153452 366.687589 
L 472.258571 366.647716 
L 472.363043 366.606181 
L 472.466843 366.562993 
L 472.569946 366.518164 
L 472.672323 366.471704 
L 472.773951 366.423626 
L 472.874804 366.373942 
L 472.974855 366.322664 
L 473.07408 366.269805 
L 473.172454 366.215378 
L 473.269952 366.159397 
L 473.36655 366.101876 
L 473.462222 366.04283 
L 473.556946 365.982274 
L 473.650698 365.920222 
L 473.743453 365.856691 
L 473.835188 365.791696 
L 473.92588 365.725253 
L 474.015507 365.657381 
L 474.104046 365.588094 
L 474.191474 365.517412 
L 474.27777 365.445351 
L 474.362912 365.37193 
L 474.446878 365.297168 
L 474.529647 365.221083 
L 474.611199 365.143694 
L 474.691513 365.065021 
L 474.770568 364.985084 
L 474.848345 364.903902 
L 474.924825 364.821497 
L 474.999987 364.737889 
L 475.073813 364.653098 
L 475.146285 364.567147 
L 475.217383 364.480057 
L 475.287092 364.39185 
L 475.355391 364.302548 
L 475.422266 364.212174 
L 475.487698 364.12075 
L 475.551671 364.028299 
L 475.61417 363.934845 
L 475.675178 363.840411 
L 475.734679 363.745021 
L 475.79266 363.648699 
L 475.849106 363.55147 
L 475.904001 363.453357 
L 475.957334 363.354385 
L 476.009089 363.254579 
L 476.059254 363.153965 
L 476.107816 363.052568 
L 476.154764 362.950413 
L 476.200085 362.847526 
L 476.243767 362.743933 
L 476.285801 362.63966 
L 476.326175 362.534733 
L 476.364879 362.429179 
L 476.401904 362.323024 
L 476.437239 362.216295 
L 476.470877 362.109018 
L 476.502808 362.001222 
L 476.533026 361.892932 
L 476.561521 361.784177 
L 476.588287 361.674983 
L 476.613317 361.565378 
L 476.636606 361.45539 
L 476.658146 361.345046 
L 476.677933 361.234375 
L 476.695961 361.123403 
L 476.712227 361.01216 
L 476.726725 360.900672 
L 476.739453 360.788968 
L 476.750407 360.677077 
L 476.759584 360.565025 
L 476.766982 360.452843 
L 476.772599 360.340556 
" style="fill:none;stroke:#0000ff;stroke-dasharray:5.55,2.4;stroke-dashoffset:0;stroke-width:1.5;"/>
   </g>
   <g id="line2d_28">
    <path clip-path="url(#pb364c5be3b)" d="M 476.772599 360.340556 
L 477.070488 353.261045 
" style="fill:none;stroke:#0000ff;stroke-dasharray:5.55,2.4;stroke-dashoffset:0;stroke-width:1.5;"/>
   </g>
   <g id="line2d_29">
    <path clip-path="url(#pb364c5be3b)" d="M 477.070488 353.261045 
L 477.074323 353.148685 
L 477.076375 353.036279 
L 477.076644 352.923855 
L 477.075128 352.81144 
L 477.07183 352.699064 
L 477.066748 352.586754 
L 477.059886 352.474538 
L 477.051244 352.362446 
L 477.040824 352.250505 
L 477.02863 352.138744 
L 477.014665 352.02719 
L 476.998931 351.915871 
L 476.981433 351.804816 
L 476.962175 351.694053 
L 476.941162 351.583609 
L 476.9184 351.473513 
L 476.893894 351.363792 
L 476.86765 351.254473 
L 476.839675 351.145584 
L 476.809976 351.037153 
L 476.77856 350.929207 
L 476.745435 350.821772 
L 476.710611 350.714877 
L 476.674094 350.608548 
L 476.635895 350.502811 
L 476.596024 350.397694 
L 476.55449 350.293223 
L 476.511303 350.189424 
L 476.466475 350.086323 
L 476.420017 349.983946 
L 476.37194 349.882319 
L 476.322257 349.781468 
L 476.270981 349.681418 
L 476.218123 349.582194 
L 476.163698 349.483821 
L 476.107719 349.386324 
L 476.0502 349.289727 
L 475.991155 349.194055 
L 475.930601 349.099332 
L 475.868551 349.005582 
L 475.805021 348.912828 
L 475.740028 348.821093 
L 475.673587 348.730401 
L 475.605716 348.640775 
L 475.536432 348.552237 
L 475.465751 348.464809 
L 475.393693 348.378513 
L 475.320274 348.293372 
L 475.245514 348.209406 
L 475.169431 348.126637 
L 475.092044 348.045086 
L 475.013373 347.964773 
L 474.933438 347.885717 
L 474.852258 347.80794 
L 474.769855 347.731461 
L 474.686249 347.656299 
L 474.601461 347.582473 
L 474.515512 347.510001 
L 474.428424 347.438902 
L 474.340219 347.369194 
L 474.25092 347.300894 
L 474.160548 347.234019 
L 474.069126 347.168586 
L 473.976677 347.104613 
L 473.883226 347.042114 
L 473.788794 346.981105 
L 473.693406 346.921603 
L 473.597087 346.863621 
L 473.499859 346.807175 
L 473.401748 346.752279 
L 473.302779 346.698946 
L 473.202976 346.64719 
L 473.102364 346.597024 
L 473.000969 346.54846 
L 472.898816 346.501512 
L 472.795932 346.45619 
L 472.692341 346.412506 
L 472.58807 346.370471 
L 472.483145 346.330096 
L 472.377593 346.29139 
L 472.27144 346.254364 
L 472.164713 346.219027 
L 472.057439 346.185388 
L 471.949645 346.153455 
L 471.841357 346.123236 
L 471.732604 346.094739 
L 471.623412 346.067971 
L 471.51381 346.042939 
L 471.403824 346.019649 
L 471.293482 345.998106 
L 471.182813 345.978318 
L 471.071843 345.960287 
L 470.960601 345.94402 
L 470.849115 345.929519 
L 470.737414 345.916789 
L 470.625524 345.905833 
L 470.513474 345.896653 
L 470.401293 345.889253 
L 470.289009 345.883633 
" style="fill:none;stroke:#0000ff;stroke-dasharray:5.55,2.4;stroke-dashoffset:0;stroke-width:1.5;"/>
   </g>
   <g id="line2d_30">
    <path clip-path="url(#pb364c5be3b)" d="M 470.287432 345.883567 
L 469.788329 345.862554 
L 469.286828 345.841331 
L 442.774536 344.71357 
L 416.89538 343.297554 
L 378.489593 340.351455 
L 365.974243 339.251112 
L 347.21891 337.289994 
L 340.944403 336.583078 
L 328.469911 335.041372 
L 322.26076 334.202448 
L 309.865839 332.35278 
L 303.677305 331.3496 
L 293.418657 329.537417 
L 289.34337 328.772983 
L 281.263432 327.130753 
L 277.23713 326.250331 
L 269.220413 324.363735 
L 265.302639 323.373818 
L 258.909737 321.576679 
L 256.38807 320.822038 
L 251.412981 319.234876 
L 248.973307 318.406955 
L 244.197376 316.650713 
L 241.793329 315.699294 
L 237.025978 313.700403 
L 234.738241 312.680684 
L 230.322662 310.521422 
L 228.280007 309.432557 
L 225.38899 307.664774 
L 224.490416 307.07219 
L 223.017611 305.975667 
L 222.332904 305.399272 
L 221.089968 304.207988 
L 220.481491 303.54303 
L 219.262976 302.051544 
L 218.918918 301.576073 
L 218.846512 301.446511 
L 218.868344 300.450166 
L 218.881611 300.101402 
L 218.911178 299.769297 
L 218.919216 299.699014 
L 218.946046 299.612891 
L 219.010814 299.446563 
L 219.409593 298.527409 
L 219.827548 297.79188 
L 220.845662 296.190141 
L 221.192609 295.673084 
L 221.910083 294.668671 
L 222.299056 294.167706 
L 223.201026 293.091709 
L 223.721532 292.509145 
L 224.891354 291.244909 
L 225.502996 290.602723 
L 226.913849 289.168936 
L 227.724307 288.383974 
L 229.660484 286.60324 
L 230.835226 285.587186 
L 233.35642 283.489569 
L 234.682154 282.435438 
L 238.786179 279.329068 
L 241.694797 277.347058 
L 247.857728 273.437844 
L 251.019355 271.570611 
L 257.432439 268.03307 
L 260.751818 266.330208 
L 270.118592 261.76899 
L 276.214943 259.09029 
L 288.736517 254.029604 
L 295.116854 251.657521 
L 313.466667 245.327821 
L 325.620379 241.715368 
L 355.952754 233.651257 
L 374.18855 229.644838 
L 411.039109 222.739051 
L 429.587534 219.858111 
L 465.711069 215.180932 
L 483.250889 213.329081 
L 500.797708 211.803268 
" style="fill:none;stroke:#0000ff;stroke-dasharray:5.55,2.4;stroke-dashoffset:0;stroke-width:1.5;"/>
   </g>
   <g id="line2d_31">
    <path clip-path="url(#pb364c5be3b)" d="M 500.871534 211.796849 
L 500.983457 211.786221 
L 501.095197 211.773819 
L 501.206726 211.759645 
L 501.318017 211.743704 
L 501.42904 211.725999 
L 501.539769 211.706535 
L 501.650175 211.685317 
L 501.76023 211.662349 
L 501.869907 211.637638 
L 501.979178 211.611191 
L 502.088016 211.583012 
L 502.196393 211.553111 
L 502.304282 211.521494 
L 502.411656 211.488169 
L 502.518487 211.453145 
L 502.62475 211.41643 
L 502.730416 211.378033 
L 502.83546 211.337966 
L 502.939855 211.296236 
L 503.043575 211.252855 
L 503.146593 211.207835 
L 503.248885 211.161185 
L 503.350423 211.112919 
L 503.451182 211.063047 
L 503.551138 211.011583 
L 503.650265 210.95854 
L 503.748537 210.903931 
L 503.845931 210.847769 
L 503.942421 210.790069 
L 504.037984 210.730846 
L 504.132595 210.670113 
L 504.226231 210.607888 
L 504.318868 210.544184 
L 504.410482 210.479019 
L 504.501051 210.412408 
L 504.590551 210.344369 
L 504.678961 210.274919 
L 504.766258 210.204074 
L 504.85242 210.131854 
L 504.937425 210.058275 
L 505.021252 209.983357 
L 505.103879 209.907118 
L 505.185287 209.829578 
L 505.265454 209.750757 
L 505.344361 209.670673 
L 505.421987 209.589347 
L 505.498313 209.5068 
L 505.57332 209.423052 
L 505.646988 209.338125 
L 505.7193 209.25204 
L 505.790237 209.164818 
L 505.859781 209.076482 
L 505.927915 208.987053 
L 505.994621 208.896555 
L 506.059883 208.80501 
L 506.123685 208.712441 
L 506.18601 208.618871 
L 506.246842 208.524324 
L 506.306167 208.428824 
L 506.363968 208.332395 
L 506.420233 208.23506 
L 506.474946 208.136846 
L 506.528095 208.037775 
L 506.579664 207.937874 
L 506.629642 207.837167 
L 506.678016 207.73568 
L 506.724774 207.633438 
L 506.769904 207.530468 
L 506.813394 207.426794 
L 506.855234 207.322443 
L 506.895413 207.217441 
L 506.933921 207.111816 
L 506.970748 207.005592 
L 507.005886 206.898798 
L 507.039324 206.791459 
L 507.071056 206.683604 
L 507.101072 206.575259 
L 507.129365 206.466451 
L 507.155928 206.357208 
L 507.180755 206.247557 
L 507.203839 206.137526 
L 507.225175 206.027143 
L 507.244756 205.916435 
L 507.262578 205.80543 
L 507.278637 205.694157 
L 507.292929 205.582642 
L 507.305449 205.470915 
L 507.316195 205.359004 
L 507.325164 205.246936 
L 507.332354 205.13474 
L 507.337763 205.022444 
L 507.34139 204.910076 
L 507.343233 204.797665 
L 507.343293 204.685238 
L 507.341569 204.572825 
L 507.338061 204.460454 
L 507.332771 204.348152 
L 507.3257 204.235948 
L 507.31685 204.123871 
" style="fill:none;stroke:#0000ff;stroke-dasharray:5.55,2.4;stroke-dashoffset:0;stroke-width:1.5;"/>
   </g>
   <g id="line2d_32">
    <g clip-path="url(#pb364c5be3b)">
     <use style="fill:#0000ff;stroke:#0000ff;" x="622.391746" xlink:href="#m1185a4fd23" y="131.166559"/>
    </g>
   </g>
   <g id="line2d_33">
    <path clip-path="url(#pb364c5be3b)" d="M 622.391746 131.166559 
L 622.632297 124.084841 
" style="fill:none;stroke:#0000ff;stroke-dasharray:5.55,2.4;stroke-dashoffset:0;stroke-width:1.5;"/>
   </g>
   <g id="line2d_34">
    <path clip-path="url(#pb364c5be3b)" d="M 622.632297 124.084843 
L 622.635222 123.972455 
L 622.636364 123.860034 
L 622.635721 123.747609 
L 622.633296 123.635209 
L 622.629087 123.522861 
L 622.623096 123.410595 
L 622.615325 123.298437 
L 622.605775 123.186417 
L 622.594449 123.074562 
L 622.58135 122.962902 
L 622.566481 122.851463 
L 622.549846 122.740274 
L 622.531448 122.629363 
L 622.511294 122.518758 
L 622.489387 122.408486 
L 622.465733 122.298576 
L 622.440338 122.189056 
L 622.413209 122.079951 
L 622.384352 121.971291 
L 622.353775 121.863103 
L 622.321485 121.755413 
L 622.287491 121.648249 
L 622.2518 121.541638 
L 622.214423 121.435607 
L 622.175368 121.330182 
L 622.134646 121.22539 
L 622.092265 121.121257 
L 622.048238 121.01781 
L 622.002576 120.915074 
L 621.955289 120.813076 
L 621.906389 120.711841 
L 621.85589 120.611394 
L 621.803803 120.511761 
L 621.750142 120.412968 
L 621.694921 120.315038 
L 621.638152 120.217996 
L 621.579851 120.121868 
L 621.520033 120.026676 
L 621.458711 119.932446 
L 621.395902 119.8392 
L 621.331622 119.746963 
L 621.265886 119.655757 
L 621.198712 119.565605 
L 621.130115 119.476531 
L 621.060114 119.388556 
L 620.988726 119.301703 
L 620.915969 119.215993 
L 620.841861 119.131449 
L 620.766421 119.048091 
L 620.689669 118.965941 
L 620.611622 118.885018 
L 620.532301 118.805344 
L 620.451726 118.726939 
L 620.369918 118.649822 
L 620.286896 118.574012 
L 620.202682 118.49953 
L 620.117296 118.426392 
L 620.030761 118.354619 
L 619.943098 118.284228 
L 619.85433 118.215236 
L 619.764478 118.147662 
L 619.673565 118.081522 
L 619.581614 118.016832 
L 619.488648 117.953609 
L 619.394691 117.89187 
L 619.299766 117.831629 
L 619.203898 117.772901 
L 619.10711 117.715702 
L 619.009426 117.660046 
L 618.910872 117.605946 
L 618.811471 117.553417 
L 618.71125 117.502472 
L 618.610233 117.453124 
L 618.508446 117.405384 
L 618.405914 117.359265 
L 618.302664 117.314779 
L 618.19872 117.271936 
L 618.09411 117.230749 
L 617.98886 117.191226 
L 617.882995 117.153377 
L 617.776544 117.117214 
L 617.669532 117.082744 
L 617.561987 117.049976 
L 617.453936 117.018918 
L 617.345405 116.989579 
L 617.236422 116.961965 
L 617.127015 116.936084 
L 617.017212 116.911942 
L 616.907039 116.889545 
L 616.796524 116.868899 
L 616.685696 116.850009 
L 616.574582 116.83288 
L 616.46321 116.817516 
L 616.351609 116.803921 
L 616.239806 116.792098 
L 616.127829 116.78205 
L 616.015707 116.773781 
L 615.903468 116.767291 
L 615.791141 116.762583 
" style="fill:none;stroke:#0000ff;stroke-dasharray:5.55,2.4;stroke-dashoffset:0;stroke-width:1.5;"/>
   </g>
   <g id="line2d_35">
    <path clip-path="url(#pb364c5be3b)" d="M 615.796081 116.762751 
L 606.676243 116.452967 
L 578.337808 115.711045 
L 531.836948 115.805269 
L 477.907697 117.820385 
L 428.15709 121.686042 
L 383.282953 127.267063 
L 343.465752 133.938997 
L 308.645148 141.63009 
L 278.619992 149.935464 
L 252.723399 158.336956 
L 230.384525 166.966981 
L 211.286527 175.697199 
L 194.682824 184.2323 
L 180.331368 192.768965 
L 167.728816 201.240731 
L 156.935485 209.783896 
L 147.422203 218.220059 
L 139.355391 226.798069 
L 132.416492 235.30701 
L 126.645003 244.101358 
L 122.150623 252.964493 
L 118.779399 261.903522 
L 116.426932 271.210518 
L 115.363636 281.160735 
L 116.10293 291.768204 
L 119.137224 302.424425 
L 124.486422 312.826291 
L 132.204842 322.289337 
L 141.485604 330.906408 
L 152.397587 339.06408 
L 164.785224 347.246 
L 179.182172 355.802941 
L 196.027416 364.780552 
L 215.911759 374.451097 
L 239.672961 385.14716 
L 268.458978 397.234835 
L 303.464913 410.75855 
L 345.467201 426.276031 
L 395.126476 443.275159 
L 436.017472 456.502595 
L 460.307404 464.114502 
L 465.492434 465.728777 
" style="fill:none;stroke:#0000ff;stroke-dasharray:5.55,2.4;stroke-dashoffset:0;stroke-width:1.5;"/>
   </g>
   <g id="line2d_36">
    <path clip-path="url(#pb364c5be3b)" d="M 465.492034 465.728652 
L 465.59964 465.76122 
L 465.70775 465.792076 
L 465.816335 465.821212 
L 465.925369 465.848623 
L 466.034824 465.8743 
L 466.144673 465.898237 
L 466.254887 465.920428 
L 466.36544 465.940868 
L 466.476303 465.959551 
L 466.587449 465.976473 
L 466.698849 465.991629 
L 466.810476 466.005016 
L 466.922301 466.01663 
L 467.034296 466.026468 
L 467.146433 466.034529 
L 467.258684 466.040809 
L 467.371021 466.045307 
L 467.483414 466.048023 
L 467.595837 466.048955 
L 467.70826 466.048103 
L 467.820656 466.045467 
L 467.932995 466.041049 
L 468.045251 466.034849 
L 468.157394 466.026868 
L 468.269396 466.01711 
L 468.381229 466.005575 
L 468.492865 465.992268 
L 468.604276 465.977191 
L 468.715434 465.960348 
L 468.82631 465.941744 
L 468.936878 465.921383 
L 469.047108 465.89927 
L 469.156974 465.875411 
L 469.266447 465.849812 
L 469.3755 465.822479 
L 469.484106 465.79342 
L 469.592238 465.762641 
L 469.699867 465.73015 
L 469.806967 465.695956 
L 469.913512 465.660067 
L 470.019473 465.622492 
L 470.124825 465.58324 
L 470.229541 465.542322 
L 470.333594 465.499748 
L 470.436959 465.455528 
L 470.53961 465.409674 
L 470.64152 465.362196 
L 470.742663 465.313108 
L 470.843016 465.262422 
L 470.942551 465.210149 
L 471.041245 465.156304 
L 471.139071 465.1009 
L 471.236007 465.04395 
L 471.332027 464.98547 
L 471.427106 464.925474 
L 471.521222 464.863977 
L 471.614351 464.800994 
L 471.706468 464.736542 
L 471.797551 464.670636 
L 471.887577 464.603293 
L 471.976523 464.534531 
L 472.064367 464.464366 
L 472.151087 464.392816 
L 472.236661 464.319899 
L 472.321067 464.245633 
L 472.404284 464.170038 
L 472.486291 464.093132 
L 472.567068 464.014935 
L 472.646593 463.935465 
L 472.724848 463.854744 
L 472.801813 463.772792 
L 472.877467 463.689629 
L 472.951793 463.605276 
L 473.02477 463.519754 
L 473.096382 463.433085 
L 473.16661 463.345291 
L 473.235436 463.256394 
L 473.302842 463.166416 
L 473.368813 463.07538 
L 473.433331 462.983308 
L 473.49638 462.890225 
L 473.557944 462.796153 
L 473.618008 462.701116 
L 473.676557 462.605138 
L 473.733575 462.508243 
L 473.789049 462.410455 
L 473.842964 462.3118 
L 473.895308 462.212302 
L 473.946066 462.111986 
L 473.995226 462.010877 
L 474.042776 461.909001 
L 474.088703 461.806383 
L 474.132997 461.70305 
L 474.175645 461.599027 
L 474.216638 461.49434 
L 474.255964 461.389016 
L 474.293615 461.283081 
L 474.32958 461.176563 
L 474.36385 461.069487 
" style="fill:none;stroke:#0000ff;stroke-dasharray:5.55,2.4;stroke-dashoffset:0;stroke-width:1.5;"/>
   </g>
   <g id="line2d_37">
    <path clip-path="url(#pb364c5be3b)" d="M 474.36385 461.069487 
L 476.470161 454.304042 
" style="fill:none;stroke:#0000ff;stroke-dasharray:5.55,2.4;stroke-dashoffset:0;stroke-width:1.5;"/>
   </g>
   <g id="line2d_38">
    <path clip-path="url(#pb364c5be3b)" d="M 476.470146 454.30409 
L 476.502714 454.196483 
L 476.53357 454.088372 
L 476.562707 453.979786 
L 476.590117 453.870751 
L 476.615794 453.761295 
L 476.639732 453.651446 
L 476.661923 453.54123 
L 476.682363 453.430676 
L 476.701046 453.319812 
L 476.717968 453.208666 
L 476.733124 453.097264 
L 476.746511 452.985637 
L 476.758125 452.873811 
L 476.767963 452.761815 
L 476.776024 452.649677 
L 476.782303 452.537425 
L 476.786802 452.425087 
L 476.789517 452.312693 
L 476.790449 452.200269 
L 476.789596 452.087845 
L 476.786961 451.975448 
L 476.782542 451.863108 
L 476.776341 451.750851 
L 476.76836 451.638707 
L 476.758601 451.526704 
L 476.747066 451.41487 
L 476.733758 451.303233 
L 476.718681 451.191821 
L 476.701837 451.080663 
L 476.683232 450.969785 
L 476.662871 450.859217 
L 476.640757 450.748986 
L 476.616898 450.639119 
L 476.591298 450.529645 
L 476.563965 450.420591 
L 476.534905 450.311984 
L 476.504125 450.203852 
L 476.471633 450.096222 
L 476.437438 449.989121 
L 476.401548 449.882576 
L 476.363972 449.776614 
L 476.32472 449.671261 
L 476.283801 449.566545 
L 476.241225 449.462491 
L 476.197004 449.359125 
L 476.151149 449.256474 
L 476.103671 449.154564 
L 476.054582 449.053419 
L 476.003894 448.953067 
L 475.95162 448.853531 
L 475.897774 448.754837 
L 475.842369 448.657009 
L 475.785418 448.560073 
L 475.726937 448.464053 
L 475.666939 448.368973 
L 475.605441 448.274857 
L 475.542457 448.181728 
L 475.478003 448.089611 
L 475.412096 447.998527 
L 475.344752 447.908501 
L 475.275988 447.819555 
L 475.205822 447.73171 
L 475.13427 447.644991 
L 475.061352 447.559417 
L 474.987085 447.475011 
L 474.911489 447.391794 
L 474.834581 447.309787 
L 474.756383 447.22901 
L 474.676912 447.149484 
L 474.596189 447.071229 
L 474.514236 446.994265 
L 474.431071 446.918611 
L 474.346716 446.844285 
L 474.261193 446.771308 
L 474.174523 446.699696 
L 474.086728 446.629469 
L 473.997829 446.560644 
L 473.907849 446.493237 
L 473.816812 446.427267 
L 473.724739 446.36275 
L 473.631654 446.299701 
L 473.53758 446.238137 
L 473.442542 446.178074 
L 473.346562 446.119526 
L 473.249666 446.062508 
L 473.151877 446.007035 
L 473.05322 445.95312 
L 472.953721 445.900778 
L 472.853403 445.85002 
L 472.752293 445.800861 
L 472.650415 445.753312 
L 472.547796 445.707386 
L 472.444461 445.663093 
L 472.340437 445.620445 
L 472.235748 445.579454 
L 472.130423 445.540128 
L 472.024487 445.502479 
L 471.917967 445.466515 
L 471.81089 445.432246 
" style="fill:none;stroke:#0000ff;stroke-dasharray:5.55,2.4;stroke-dashoffset:0;stroke-width:1.5;"/>
   </g>
   <g id="line2d_39">
    <path clip-path="url(#pb364c5be3b)" d="M 471.785427 445.424319 
L 452.308918 439.360913 
L 432.872454 433.160889 
L 392.077388 419.752777 
L 370.778236 412.541775 
L 339.054619 401.207417 
L 328.496731 397.335099 
L 307.424152 389.446795 
L 296.914016 385.4491 
L 276.070023 377.257816 
L 265.731247 373.044357 
L 245.176495 364.28824 
L 234.991511 359.778953 
L 218.949674 352.275973 
L 213.024993 349.415049 
L 201.341731 343.514577 
L 195.585264 340.479755 
L 184.310191 334.149721 
L 178.80374 330.863227 
L 170.715454 325.674063 
L 168.057364 323.905507 
L 162.858407 320.288555 
L 160.347785 318.468423 
L 155.909733 315.003388 
L 153.943091 313.364997 
L 150.236298 309.993304 
L 148.5165 308.28667 
L 145.924395 305.411219 
L 144.986532 304.292655 
L 143.333227 302.124388 
L 142.559175 301.000841 
L 140.71406 297.980235 
L 139.758584 296.014503 
L 138.173497 291.792424 
L 137.613374 289.722501 
L 137.034122 286.093609 
L 136.887205 284.331327 
L 136.767914 277.722135 
L 137.679661 272.922131 
L 140.252858 265.127886 
L 141.22542 262.682589 
L 143.398649 258.014529 
L 144.626678 255.726952 
L 147.341479 251.2746 
L 148.837139 249.095267 
L 152.081454 244.813652 
L 153.855866 242.678675 
L 157.491559 238.560262 
L 159.288863 236.640031 
L 162.960132 232.971128 
L 164.877078 231.186374 
L 168.90024 227.630472 
L 171.002546 225.859352 
L 175.886631 221.89825 
L 178.664007 219.769188 
L 184.503468 215.584202 
L 187.618015 213.498904 
L 195.357072 208.560463 
L 199.975889 205.807852 
L 209.286524 200.639443 
L 214.003572 198.202087 
L 223.620868 193.481182 
L 228.483267 191.212425 
L 239.813085 186.226202 
L 246.348211 183.585862 
L 261.011042 178.104376 
L 269.157282 175.34636 
L 285.676823 170.166021 
L 294.022254 167.741601 
L 314.5621 162.227505 
L 326.818817 159.346177 
L 351.196861 154.323108 
L 363.292157 152.166475 
L 387.629769 148.337655 
L 399.86317 146.656064 
L 428.461947 143.251996 
L 444.869458 141.719085 
L 483.319068 138.956834 
L 505.360433 137.986347 
L 547.346499 137.037552 
L 567.210401 136.967316 
L 596.407157 137.448729 
L 605.737383 137.690638 
L 615.027283 138.006158 
" style="fill:none;stroke:#0000ff;stroke-dasharray:5.55,2.4;stroke-dashoffset:0;stroke-width:1.5;"/>
   </g>
   <g id="line2d_40">
    <path clip-path="url(#pb364c5be3b)" d="M 615.069519 138.007592 
L 615.181908 138.010517 
L 615.294328 138.011658 
L 615.406752 138.011016 
L 615.519152 138.00859 
L 615.6315 138.00438 
L 615.743766 137.998389 
L 615.855923 137.990617 
L 615.967943 137.981067 
L 616.079797 137.969741 
L 616.191458 137.956641 
L 616.302896 137.941772 
L 616.414085 137.925136 
L 616.524996 137.906739 
L 616.6356 137.886584 
L 616.745872 137.864676 
L 616.855781 137.841022 
L 616.965302 137.815627 
L 617.074405 137.788498 
L 617.183065 137.75964 
L 617.291253 137.729063 
L 617.398943 137.696773 
L 617.506106 137.662778 
L 617.612717 137.627088 
L 617.718748 137.58971 
L 617.824172 137.550655 
L 617.928964 137.509932 
L 618.033096 137.467552 
L 618.136543 137.423525 
L 618.239279 137.377862 
L 618.341276 137.330574 
L 618.442511 137.281675 
L 618.542957 137.231175 
L 618.64259 137.179089 
L 618.741383 137.125427 
L 618.839313 137.070206 
L 618.936354 137.013437 
L 619.032482 136.955136 
L 619.127673 136.895317 
L 619.221903 136.833996 
L 619.315149 136.771187 
L 619.407386 136.706906 
L 619.498591 136.64117 
L 619.588742 136.573996 
L 619.677816 136.505399 
L 619.765791 136.435398 
L 619.852643 136.36401 
L 619.938353 136.291253 
L 620.022897 136.217145 
L 620.106254 136.141705 
L 620.188404 136.064953 
L 620.269326 135.986906 
L 620.349 135.907585 
L 620.427405 135.82701 
L 620.504522 135.745202 
L 620.580331 135.66218 
L 620.654813 135.577966 
L 620.72795 135.492581 
L 620.799723 135.406046 
L 620.870114 135.318383 
L 620.939105 135.229614 
L 621.006679 135.139762 
L 621.072819 135.048849 
L 621.137509 134.956899 
L 621.200731 134.863933 
L 621.26247 134.769976 
L 621.322711 134.675052 
L 621.381438 134.579183 
L 621.438637 134.482395 
L 621.494293 134.384711 
L 621.548392 134.286157 
L 621.600921 134.186757 
L 621.651866 134.086536 
L 621.701214 133.985519 
L 621.748954 133.883732 
L 621.795072 133.781201 
L 621.839558 133.67795 
L 621.8824 133.574007 
L 621.923588 133.469397 
L 621.963111 133.364147 
L 622.000959 133.258283 
L 622.037122 133.151832 
L 622.071592 133.04482 
L 622.10436 132.937275 
L 622.135417 132.829224 
L 622.164757 132.720694 
L 622.19237 132.611711 
L 622.218251 132.502305 
L 622.242393 132.392501 
L 622.264789 132.282328 
L 622.285435 132.171814 
L 622.304325 132.060986 
L 622.321454 131.949872 
L 622.336818 131.838501 
L 622.350413 131.7269 
L 622.362236 131.615097 
L 622.372283 131.503121 
L 622.380553 131.390999 
L 622.387042 131.27876 
L 622.39175 131.166433 
" style="fill:none;stroke:#0000ff;stroke-dasharray:5.55,2.4;stroke-dashoffset:0;stroke-width:1.5;"/>
   </g>
   <g id="patch_3">
    <path d="M 90 512.64 
L 90 69.12 
" style="fill:none;stroke:#000000;stroke-linecap:square;stroke-linejoin:miter;stroke-width:0.8;"/>
   </g>
   <g id="patch_4">
    <path d="M 648 512.64 
L 648 69.12 
" style="fill:none;stroke:#000000;stroke-linecap:square;stroke-linejoin:miter;stroke-width:0.8;"/>
   </g>
   <g id="patch_5">
    <path d="M 90 512.64 
L 648 512.64 
" style="fill:none;stroke:#000000;stroke-linecap:square;stroke-linejoin:miter;stroke-width:0.8;"/>
   </g>
   <g id="patch_6">
    <path d="M 90 69.12 
L 648 69.12 
" style="fill:none;stroke:#000000;stroke-linecap:square;stroke-linejoin:miter;stroke-width:0.8;"/>
   </g>
   <g id="text_15">
    <!-- Example of 5.3.3 -->
    <g transform="translate(318.105 63.12)scale(0.12 -0.12)">
     <defs>
      <path d="M 9.8125 72.90625 
L 55.90625 72.90625 
L 55.90625 64.59375 
L 19.671875 64.59375 
L 19.671875 43.015625 
L 54.390625 43.015625 
L 54.390625 34.71875 
L 19.671875 34.71875 
L 19.671875 8.296875 
L 56.78125 8.296875 
L 56.78125 0 
L 9.8125 0 
z
" id="DejaVuSans-69"/>
      <path d="M 54.890625 54.6875 
L 35.109375 28.078125 
L 55.90625 0 
L 45.3125 0 
L 29.390625 21.484375 
L 13.484375 0 
L 2.875 0 
L 24.125 28.609375 
L 4.6875 54.6875 
L 15.28125 54.6875 
L 29.78125 35.203125 
L 44.28125 54.6875 
z
" id="DejaVuSans-120"/>
      <path d="M 34.28125 27.484375 
Q 23.390625 27.484375 19.1875 25 
Q 14.984375 22.515625 14.984375 16.5 
Q 14.984375 11.71875 18.140625 8.90625 
Q 21.296875 6.109375 26.703125 6.109375 
Q 34.1875 6.109375 38.703125 11.40625 
Q 43.21875 16.703125 43.21875 25.484375 
L 43.21875 27.484375 
z
M 52.203125 31.203125 
L 52.203125 0 
L 43.21875 0 
L 43.21875 8.296875 
Q 40.140625 3.328125 35.546875 0.953125 
Q 30.953125 -1.421875 24.3125 -1.421875 
Q 15.921875 -1.421875 10.953125 3.296875 
Q 6 8.015625 6 15.921875 
Q 6 25.140625 12.171875 29.828125 
Q 18.359375 34.515625 30.609375 34.515625 
L 43.21875 34.515625 
L 43.21875 35.40625 
Q 43.21875 41.609375 39.140625 45 
Q 35.0625 48.390625 27.6875 48.390625 
Q 23 48.390625 18.546875 47.265625 
Q 14.109375 46.140625 10.015625 43.890625 
L 10.015625 52.203125 
Q 14.9375 54.109375 19.578125 55.046875 
Q 24.21875 56 28.609375 56 
Q 40.484375 56 46.34375 49.84375 
Q 52.203125 43.703125 52.203125 31.203125 
z
" id="DejaVuSans-97"/>
      <path d="M 52 44.1875 
Q 55.375 50.25 60.0625 53.125 
Q 64.75 56 71.09375 56 
Q 79.640625 56 84.28125 50.015625 
Q 88.921875 44.046875 88.921875 33.015625 
L 88.921875 0 
L 79.890625 0 
L 79.890625 32.71875 
Q 79.890625 40.578125 77.09375 44.375 
Q 74.3125 48.1875 68.609375 48.1875 
Q 61.625 48.1875 57.5625 43.546875 
Q 53.515625 38.921875 53.515625 30.90625 
L 53.515625 0 
L 44.484375 0 
L 44.484375 32.71875 
Q 44.484375 40.625 41.703125 44.40625 
Q 38.921875 48.1875 33.109375 48.1875 
Q 26.21875 48.1875 22.15625 43.53125 
Q 18.109375 38.875 18.109375 30.90625 
L 18.109375 0 
L 9.078125 0 
L 9.078125 54.6875 
L 18.109375 54.6875 
L 18.109375 46.1875 
Q 21.1875 51.21875 25.484375 53.609375 
Q 29.78125 56 35.6875 56 
Q 41.65625 56 45.828125 52.96875 
Q 50 49.953125 52 44.1875 
z
" id="DejaVuSans-109"/>
      <path d="M 18.109375 8.203125 
L 18.109375 -20.796875 
L 9.078125 -20.796875 
L 9.078125 54.6875 
L 18.109375 54.6875 
L 18.109375 46.390625 
Q 20.953125 51.265625 25.265625 53.625 
Q 29.59375 56 35.59375 56 
Q 45.5625 56 51.78125 48.09375 
Q 58.015625 40.1875 58.015625 27.296875 
Q 58.015625 14.40625 51.78125 6.484375 
Q 45.5625 -1.421875 35.59375 -1.421875 
Q 29.59375 -1.421875 25.265625 0.953125 
Q 20.953125 3.328125 18.109375 8.203125 
z
M 48.6875 27.296875 
Q 48.6875 37.203125 44.609375 42.84375 
Q 40.53125 48.484375 33.40625 48.484375 
Q 26.265625 48.484375 22.1875 42.84375 
Q 18.109375 37.203125 18.109375 27.296875 
Q 18.109375 17.390625 22.1875 11.75 
Q 26.265625 6.109375 33.40625 6.109375 
Q 40.53125 6.109375 44.609375 11.75 
Q 48.6875 17.390625 48.6875 27.296875 
z
" id="DejaVuSans-112"/>
      <path d="M 9.421875 75.984375 
L 18.40625 75.984375 
L 18.40625 0 
L 9.421875 0 
z
" id="DejaVuSans-108"/>
      <path d="M 56.203125 29.59375 
L 56.203125 25.203125 
L 14.890625 25.203125 
Q 15.484375 15.921875 20.484375 11.0625 
Q 25.484375 6.203125 34.421875 6.203125 
Q 39.59375 6.203125 44.453125 7.46875 
Q 49.3125 8.734375 54.109375 11.28125 
L 54.109375 2.78125 
Q 49.265625 0.734375 44.1875 -0.34375 
Q 39.109375 -1.421875 33.890625 -1.421875 
Q 20.796875 -1.421875 13.15625 6.1875 
Q 5.515625 13.8125 5.515625 26.8125 
Q 5.515625 40.234375 12.765625 48.109375 
Q 20.015625 56 32.328125 56 
Q 43.359375 56 49.78125 48.890625 
Q 56.203125 41.796875 56.203125 29.59375 
z
M 47.21875 32.234375 
Q 47.125 39.59375 43.09375 43.984375 
Q 39.0625 48.390625 32.421875 48.390625 
Q 24.90625 48.390625 20.390625 44.140625 
Q 15.875 39.890625 15.1875 32.171875 
z
" id="DejaVuSans-101"/>
      <path id="DejaVuSans-32"/>
      <path d="M 30.609375 48.390625 
Q 23.390625 48.390625 19.1875 42.75 
Q 14.984375 37.109375 14.984375 27.296875 
Q 14.984375 17.484375 19.15625 11.84375 
Q 23.34375 6.203125 30.609375 6.203125 
Q 37.796875 6.203125 41.984375 11.859375 
Q 46.1875 17.53125 46.1875 27.296875 
Q 46.1875 37.015625 41.984375 42.703125 
Q 37.796875 48.390625 30.609375 48.390625 
z
M 30.609375 56 
Q 42.328125 56 49.015625 48.375 
Q 55.71875 40.765625 55.71875 27.296875 
Q 55.71875 13.875 49.015625 6.21875 
Q 42.328125 -1.421875 30.609375 -1.421875 
Q 18.84375 -1.421875 12.171875 6.21875 
Q 5.515625 13.875 5.515625 27.296875 
Q 5.515625 40.765625 12.171875 48.375 
Q 18.84375 56 30.609375 56 
z
" id="DejaVuSans-111"/>
      <path d="M 37.109375 75.984375 
L 37.109375 68.5 
L 28.515625 68.5 
Q 23.6875 68.5 21.796875 66.546875 
Q 19.921875 64.59375 19.921875 59.515625 
L 19.921875 54.6875 
L 34.71875 54.6875 
L 34.71875 47.703125 
L 19.921875 47.703125 
L 19.921875 0 
L 10.890625 0 
L 10.890625 47.703125 
L 2.296875 47.703125 
L 2.296875 54.6875 
L 10.890625 54.6875 
L 10.890625 58.5 
Q 10.890625 67.625 15.140625 71.796875 
Q 19.390625 75.984375 28.609375 75.984375 
z
" id="DejaVuSans-102"/>
      <path d="M 10.796875 72.90625 
L 49.515625 72.90625 
L 49.515625 64.59375 
L 19.828125 64.59375 
L 19.828125 46.734375 
Q 21.96875 47.46875 24.109375 47.828125 
Q 26.265625 48.1875 28.421875 48.1875 
Q 40.625 48.1875 47.75 41.5 
Q 54.890625 34.8125 54.890625 23.390625 
Q 54.890625 11.625 47.5625 5.09375 
Q 40.234375 -1.421875 26.90625 -1.421875 
Q 22.3125 -1.421875 17.546875 -0.640625 
Q 12.796875 0.140625 7.71875 1.703125 
L 7.71875 11.625 
Q 12.109375 9.234375 16.796875 8.0625 
Q 21.484375 6.890625 26.703125 6.890625 
Q 35.15625 6.890625 40.078125 11.328125 
Q 45.015625 15.765625 45.015625 23.390625 
Q 45.015625 31 40.078125 35.4375 
Q 35.15625 39.890625 26.703125 39.890625 
Q 22.75 39.890625 18.8125 39.015625 
Q 14.890625 38.140625 10.796875 36.28125 
z
" id="DejaVuSans-53"/>
      <path d="M 10.6875 12.40625 
L 21 12.40625 
L 21 0 
L 10.6875 0 
z
" id="DejaVuSans-46"/>
      <path d="M 40.578125 39.3125 
Q 47.65625 37.796875 51.625 33 
Q 55.609375 28.21875 55.609375 21.1875 
Q 55.609375 10.40625 48.1875 4.484375 
Q 40.765625 -1.421875 27.09375 -1.421875 
Q 22.515625 -1.421875 17.65625 -0.515625 
Q 12.796875 0.390625 7.625 2.203125 
L 7.625 11.71875 
Q 11.71875 9.328125 16.59375 8.109375 
Q 21.484375 6.890625 26.8125 6.890625 
Q 36.078125 6.890625 40.9375 10.546875 
Q 45.796875 14.203125 45.796875 21.1875 
Q 45.796875 27.640625 41.28125 31.265625 
Q 36.765625 34.90625 28.71875 34.90625 
L 20.21875 34.90625 
L 20.21875 43.015625 
L 29.109375 43.015625 
Q 36.375 43.015625 40.234375 45.921875 
Q 44.09375 48.828125 44.09375 54.296875 
Q 44.09375 59.90625 40.109375 62.90625 
Q 36.140625 65.921875 28.71875 65.921875 
Q 24.65625 65.921875 20.015625 65.03125 
Q 15.375 64.15625 9.8125 62.3125 
L 9.8125 71.09375 
Q 15.4375 72.65625 20.34375 73.4375 
Q 25.25 74.21875 29.59375 74.21875 
Q 40.828125 74.21875 47.359375 69.109375 
Q 53.90625 64.015625 53.90625 55.328125 
Q 53.90625 49.265625 50.4375 45.09375 
Q 46.96875 40.921875 40.578125 39.3125 
z
" id="DejaVuSans-51"/>
     </defs>
     <use xlink:href="#DejaVuSans-69"/>
     <use x="63.183594" xlink:href="#DejaVuSans-120"/>
     <use x="122.363281" xlink:href="#DejaVuSans-97"/>
     <use x="183.642578" xlink:href="#DejaVuSans-109"/>
     <use x="281.054688" xlink:href="#DejaVuSans-112"/>
     <use x="344.53125" xlink:href="#DejaVuSans-108"/>
     <use x="372.314453" xlink:href="#DejaVuSans-101"/>
     <use x="433.837891" xlink:href="#DejaVuSans-32"/>
     <use x="465.625" xlink:href="#DejaVuSans-111"/>
     <use x="526.806641" xlink:href="#DejaVuSans-102"/>
     <use x="562.011719" xlink:href="#DejaVuSans-32"/>
     <use x="593.798828" xlink:href="#DejaVuSans-53"/>
     <use x="657.421875" xlink:href="#DejaVuSans-46"/>
     <use x="689.208984" xlink:href="#DejaVuSans-51"/>
     <use x="752.832031" xlink:href="#DejaVuSans-46"/>
     <use x="784.619141" xlink:href="#DejaVuSans-51"/>
    </g>
   </g>
  </g>
 </g>
 <defs>
  <clipPath id="pb364c5be3b">
   <rect height="443.52" width="558" x="90" y="69.12"/>
  </clipPath>
 </defs>
</svg>
