<?xml version="1.0" encoding="utf-8" standalone="no"?>
<!DOCTYPE svg PUBLIC "-//W3C//DTD SVG 1.1//EN"
  "http://www.w3.org/Graphics/SVG/1.1/DTD/svg11.dtd">
<!-- Created with matplotlib (https://matplotlib.org/) -->
<svg height="576pt" version="1.1" viewBox="0 0 720 576" width="720pt" xmlns="http://www.w3.org/2000/svg" xmlns:xlink="http://www.w3.org/1999/xlink">
 <metadata>
  <rdf:RDF xmlns:cc="http://creativecommons.org/ns#" xmlns:dc="http://purl.org/dc/elements/1.1/" xmlns:rdf="http://www.w3.org/1999/02/22-rdf-syntax-ns#">
   <cc:Work>
    <dc:type rdf:resource="http://purl.org/dc/dcmitype/StillImage"/>
    <dc:date>2025-09-04T20:51:31.390564</dc:date>
    <dc:format>image/svg+xml</dc:format>
    <dc:creator>
     <cc:Agent>
      <dc:title>Matplotlib v3.3.2, https://matplotlib.org/</dc:title>
     </cc:Agent>
    </dc:creator>
   </cc:Work>
  </rdf:RDF>
 </metadata>
 <defs>
  <style type="text/css">*{stroke-linecap:butt;stroke-linejoin:round;}</style>
 </defs>
 <g id="figure_1">
  <g id="patch_1">
   <path d="M 0 576 
L 720 576 
L 720 0 
L 0 0 
z
" style="fill:#ffffff;"/>
  </g>
  <g id="axes_1">
   <g id="patch_2">
    <path d="M 90 512.64 
L 648 512.64 
L 648 69.12 
L 90 69.12 
z
" style="fill:#ffffff;"/>
   </g>
   <g id="matplotlib.axis_1">
    <g id="xtick_1">
     <g id="line2d_1">
      <defs>
       <path d="M 0 0 
L 0 3.5 
" id="m7c0db13550" style="stroke:#000000;stroke-width:0.8;"/>
      </defs>
      <g>
       <use style="stroke:#000000;stroke-width:0.8;" x="144.975814" xlink:href="#m7c0db13550" y="512.64"/>
      </g>
     </g>
     <g id="text_1">
      <!-- −0.25 -->
      <g transform="translate(129.653157 527.238438)scale(0.1 -0.1)">
       <defs>
        <path d="M 10.59375 35.5 
L 73.1875 35.5 
L 73.1875 27.203125 
L 10.59375 27.203125 
z
" id="DejaVuSans-8722"/>
        <path d="M 31.78125 66.40625 
Q 24.171875 66.40625 20.328125 58.90625 
Q 16.5 51.421875 16.5 36.375 
Q 16.5 21.390625 20.328125 13.890625 
Q 24.171875 6.390625 31.78125 6.390625 
Q 39.453125 6.390625 43.28125 13.890625 
Q 47.125 21.390625 47.125 36.375 
Q 47.125 51.421875 43.28125 58.90625 
Q 39.453125 66.40625 31.78125 66.40625 
z
M 31.78125 74.21875 
Q 44.046875 74.21875 50.515625 64.515625 
Q 56.984375 54.828125 56.984375 36.375 
Q 56.984375 17.96875 50.515625 8.265625 
Q 44.046875 -1.421875 31.78125 -1.421875 
Q 19.53125 -1.421875 13.0625 8.265625 
Q 6.59375 17.96875 6.59375 36.375 
Q 6.59375 54.828125 13.0625 64.515625 
Q 19.53125 74.21875 31.78125 74.21875 
z
" id="DejaVuSans-48"/>
        <path d="M 10.6875 12.40625 
L 21 12.40625 
L 21 0 
L 10.6875 0 
z
" id="DejaVuSans-46"/>
        <path d="M 19.1875 8.296875 
L 53.609375 8.296875 
L 53.609375 0 
L 7.328125 0 
L 7.328125 8.296875 
Q 12.9375 14.109375 22.625 23.890625 
Q 32.328125 33.6875 34.8125 36.53125 
Q 39.546875 41.84375 41.421875 45.53125 
Q 43.3125 49.21875 43.3125 52.78125 
Q 43.3125 58.59375 39.234375 62.25 
Q 35.15625 65.921875 28.609375 65.921875 
Q 23.96875 65.921875 18.8125 64.3125 
Q 13.671875 62.703125 7.8125 59.421875 
L 7.8125 69.390625 
Q 13.765625 71.78125 18.9375 73 
Q 24.125 74.21875 28.421875 74.21875 
Q 39.75 74.21875 46.484375 68.546875 
Q 53.21875 62.890625 53.21875 53.421875 
Q 53.21875 48.921875 51.53125 44.890625 
Q 49.859375 40.875 45.40625 35.40625 
Q 44.1875 33.984375 37.640625 27.21875 
Q 31.109375 20.453125 19.1875 8.296875 
z
" id="DejaVuSans-50"/>
        <path d="M 10.796875 72.90625 
L 49.515625 72.90625 
L 49.515625 64.59375 
L 19.828125 64.59375 
L 19.828125 46.734375 
Q 21.96875 47.46875 24.109375 47.828125 
Q 26.265625 48.1875 28.421875 48.1875 
Q 40.625 48.1875 47.75 41.5 
Q 54.890625 34.8125 54.890625 23.390625 
Q 54.890625 11.625 47.5625 5.09375 
Q 40.234375 -1.421875 26.90625 -1.421875 
Q 22.3125 -1.421875 17.546875 -0.640625 
Q 12.796875 0.140625 7.71875 1.703125 
L 7.71875 11.625 
Q 12.109375 9.234375 16.796875 8.0625 
Q 21.484375 6.890625 26.703125 6.890625 
Q 35.15625 6.890625 40.078125 11.328125 
Q 45.015625 15.765625 45.015625 23.390625 
Q 45.015625 31 40.078125 35.4375 
Q 35.15625 39.890625 26.703125 39.890625 
Q 22.75 39.890625 18.8125 39.015625 
Q 14.890625 38.140625 10.796875 36.28125 
z
" id="DejaVuSans-53"/>
       </defs>
       <use xlink:href="#DejaVuSans-8722"/>
       <use x="83.789062" xlink:href="#DejaVuSans-48"/>
       <use x="147.412109" xlink:href="#DejaVuSans-46"/>
       <use x="179.199219" xlink:href="#DejaVuSans-50"/>
       <use x="242.822266" xlink:href="#DejaVuSans-53"/>
      </g>
     </g>
    </g>
    <g id="xtick_2">
     <g id="line2d_2">
      <g>
       <use style="stroke:#000000;stroke-width:0.8;" x="219.644569" xlink:href="#m7c0db13550" y="512.64"/>
      </g>
     </g>
     <g id="text_2">
      <!-- 0.00 -->
      <g transform="translate(208.511756 527.238438)scale(0.1 -0.1)">
       <use xlink:href="#DejaVuSans-48"/>
       <use x="63.623047" xlink:href="#DejaVuSans-46"/>
       <use x="95.410156" xlink:href="#DejaVuSans-48"/>
       <use x="159.033203" xlink:href="#DejaVuSans-48"/>
      </g>
     </g>
    </g>
    <g id="xtick_3">
     <g id="line2d_3">
      <g>
       <use style="stroke:#000000;stroke-width:0.8;" x="294.313324" xlink:href="#m7c0db13550" y="512.64"/>
      </g>
     </g>
     <g id="text_3">
      <!-- 0.25 -->
      <g transform="translate(283.180512 527.238438)scale(0.1 -0.1)">
       <use xlink:href="#DejaVuSans-48"/>
       <use x="63.623047" xlink:href="#DejaVuSans-46"/>
       <use x="95.410156" xlink:href="#DejaVuSans-50"/>
       <use x="159.033203" xlink:href="#DejaVuSans-53"/>
      </g>
     </g>
    </g>
    <g id="xtick_4">
     <g id="line2d_4">
      <g>
       <use style="stroke:#000000;stroke-width:0.8;" x="368.982079" xlink:href="#m7c0db13550" y="512.64"/>
      </g>
     </g>
     <g id="text_4">
      <!-- 0.50 -->
      <g transform="translate(357.849267 527.238438)scale(0.1 -0.1)">
       <use xlink:href="#DejaVuSans-48"/>
       <use x="63.623047" xlink:href="#DejaVuSans-46"/>
       <use x="95.410156" xlink:href="#DejaVuSans-53"/>
       <use x="159.033203" xlink:href="#DejaVuSans-48"/>
      </g>
     </g>
    </g>
    <g id="xtick_5">
     <g id="line2d_5">
      <g>
       <use style="stroke:#000000;stroke-width:0.8;" x="443.650835" xlink:href="#m7c0db13550" y="512.64"/>
      </g>
     </g>
     <g id="text_5">
      <!-- 0.75 -->
      <g transform="translate(432.518022 527.238438)scale(0.1 -0.1)">
       <defs>
        <path d="M 8.203125 72.90625 
L 55.078125 72.90625 
L 55.078125 68.703125 
L 28.609375 0 
L 18.3125 0 
L 43.21875 64.59375 
L 8.203125 64.59375 
z
" id="DejaVuSans-55"/>
       </defs>
       <use xlink:href="#DejaVuSans-48"/>
       <use x="63.623047" xlink:href="#DejaVuSans-46"/>
       <use x="95.410156" xlink:href="#DejaVuSans-55"/>
       <use x="159.033203" xlink:href="#DejaVuSans-53"/>
      </g>
     </g>
    </g>
    <g id="xtick_6">
     <g id="line2d_6">
      <g>
       <use style="stroke:#000000;stroke-width:0.8;" x="518.31959" xlink:href="#m7c0db13550" y="512.64"/>
      </g>
     </g>
     <g id="text_6">
      <!-- 1.00 -->
      <g transform="translate(507.186778 527.238438)scale(0.1 -0.1)">
       <defs>
        <path d="M 12.40625 8.296875 
L 28.515625 8.296875 
L 28.515625 63.921875 
L 10.984375 60.40625 
L 10.984375 69.390625 
L 28.421875 72.90625 
L 38.28125 72.90625 
L 38.28125 8.296875 
L 54.390625 8.296875 
L 54.390625 0 
L 12.40625 0 
z
" id="DejaVuSans-49"/>
       </defs>
       <use xlink:href="#DejaVuSans-49"/>
       <use x="63.623047" xlink:href="#DejaVuSans-46"/>
       <use x="95.410156" xlink:href="#DejaVuSans-48"/>
       <use x="159.033203" xlink:href="#DejaVuSans-48"/>
      </g>
     </g>
    </g>
    <g id="xtick_7">
     <g id="line2d_7">
      <g>
       <use style="stroke:#000000;stroke-width:0.8;" x="592.988345" xlink:href="#m7c0db13550" y="512.64"/>
      </g>
     </g>
     <g id="text_7">
      <!-- 1.25 -->
      <g transform="translate(581.855533 527.238438)scale(0.1 -0.1)">
       <use xlink:href="#DejaVuSans-49"/>
       <use x="63.623047" xlink:href="#DejaVuSans-46"/>
       <use x="95.410156" xlink:href="#DejaVuSans-50"/>
       <use x="159.033203" xlink:href="#DejaVuSans-53"/>
      </g>
     </g>
    </g>
   </g>
   <g id="matplotlib.axis_2">
    <g id="ytick_1">
     <g id="line2d_8">
      <defs>
       <path d="M 0 0 
L -3.5 0 
" id="mbc54ad371e" style="stroke:#000000;stroke-width:0.8;"/>
      </defs>
      <g>
       <use style="stroke:#000000;stroke-width:0.8;" x="90" xlink:href="#mbc54ad371e" y="507.413751"/>
      </g>
     </g>
     <g id="text_8">
      <!-- −0.6 -->
      <g transform="translate(58.717187 511.21297)scale(0.1 -0.1)">
       <defs>
        <path d="M 33.015625 40.375 
Q 26.375 40.375 22.484375 35.828125 
Q 18.609375 31.296875 18.609375 23.390625 
Q 18.609375 15.53125 22.484375 10.953125 
Q 26.375 6.390625 33.015625 6.390625 
Q 39.65625 6.390625 43.53125 10.953125 
Q 47.40625 15.53125 47.40625 23.390625 
Q 47.40625 31.296875 43.53125 35.828125 
Q 39.65625 40.375 33.015625 40.375 
z
M 52.59375 71.296875 
L 52.59375 62.3125 
Q 48.875 64.0625 45.09375 64.984375 
Q 41.3125 65.921875 37.59375 65.921875 
Q 27.828125 65.921875 22.671875 59.328125 
Q 17.53125 52.734375 16.796875 39.40625 
Q 19.671875 43.65625 24.015625 45.921875 
Q 28.375 48.1875 33.59375 48.1875 
Q 44.578125 48.1875 50.953125 41.515625 
Q 57.328125 34.859375 57.328125 23.390625 
Q 57.328125 12.15625 50.6875 5.359375 
Q 44.046875 -1.421875 33.015625 -1.421875 
Q 20.359375 -1.421875 13.671875 8.265625 
Q 6.984375 17.96875 6.984375 36.375 
Q 6.984375 53.65625 15.1875 63.9375 
Q 23.390625 74.21875 37.203125 74.21875 
Q 40.921875 74.21875 44.703125 73.484375 
Q 48.484375 72.75 52.59375 71.296875 
z
" id="DejaVuSans-54"/>
       </defs>
       <use xlink:href="#DejaVuSans-8722"/>
       <use x="83.789062" xlink:href="#DejaVuSans-48"/>
       <use x="147.412109" xlink:href="#DejaVuSans-46"/>
       <use x="179.199219" xlink:href="#DejaVuSans-54"/>
      </g>
     </g>
    </g>
    <g id="ytick_2">
     <g id="line2d_9">
      <g>
       <use style="stroke:#000000;stroke-width:0.8;" x="90" xlink:href="#mbc54ad371e" y="447.678747"/>
      </g>
     </g>
     <g id="text_9">
      <!-- −0.4 -->
      <g transform="translate(58.717187 451.477966)scale(0.1 -0.1)">
       <defs>
        <path d="M 37.796875 64.3125 
L 12.890625 25.390625 
L 37.796875 25.390625 
z
M 35.203125 72.90625 
L 47.609375 72.90625 
L 47.609375 25.390625 
L 58.015625 25.390625 
L 58.015625 17.1875 
L 47.609375 17.1875 
L 47.609375 0 
L 37.796875 0 
L 37.796875 17.1875 
L 4.890625 17.1875 
L 4.890625 26.703125 
z
" id="DejaVuSans-52"/>
       </defs>
       <use xlink:href="#DejaVuSans-8722"/>
       <use x="83.789062" xlink:href="#DejaVuSans-48"/>
       <use x="147.412109" xlink:href="#DejaVuSans-46"/>
       <use x="179.199219" xlink:href="#DejaVuSans-52"/>
      </g>
     </g>
    </g>
    <g id="ytick_3">
     <g id="line2d_10">
      <g>
       <use style="stroke:#000000;stroke-width:0.8;" x="90" xlink:href="#mbc54ad371e" y="387.943743"/>
      </g>
     </g>
     <g id="text_10">
      <!-- −0.2 -->
      <g transform="translate(58.717187 391.742961)scale(0.1 -0.1)">
       <use xlink:href="#DejaVuSans-8722"/>
       <use x="83.789062" xlink:href="#DejaVuSans-48"/>
       <use x="147.412109" xlink:href="#DejaVuSans-46"/>
       <use x="179.199219" xlink:href="#DejaVuSans-50"/>
      </g>
     </g>
    </g>
    <g id="ytick_4">
     <g id="line2d_11">
      <g>
       <use style="stroke:#000000;stroke-width:0.8;" x="90" xlink:href="#mbc54ad371e" y="328.208738"/>
      </g>
     </g>
     <g id="text_11">
      <!-- 0.0 -->
      <g transform="translate(67.096875 332.007957)scale(0.1 -0.1)">
       <use xlink:href="#DejaVuSans-48"/>
       <use x="63.623047" xlink:href="#DejaVuSans-46"/>
       <use x="95.410156" xlink:href="#DejaVuSans-48"/>
      </g>
     </g>
    </g>
    <g id="ytick_5">
     <g id="line2d_12">
      <g>
       <use style="stroke:#000000;stroke-width:0.8;" x="90" xlink:href="#mbc54ad371e" y="268.473734"/>
      </g>
     </g>
     <g id="text_12">
      <!-- 0.2 -->
      <g transform="translate(67.096875 272.272953)scale(0.1 -0.1)">
       <use xlink:href="#DejaVuSans-48"/>
       <use x="63.623047" xlink:href="#DejaVuSans-46"/>
       <use x="95.410156" xlink:href="#DejaVuSans-50"/>
      </g>
     </g>
    </g>
    <g id="ytick_6">
     <g id="line2d_13">
      <g>
       <use style="stroke:#000000;stroke-width:0.8;" x="90" xlink:href="#mbc54ad371e" y="208.73873"/>
      </g>
     </g>
     <g id="text_13">
      <!-- 0.4 -->
      <g transform="translate(67.096875 212.537949)scale(0.1 -0.1)">
       <use xlink:href="#DejaVuSans-48"/>
       <use x="63.623047" xlink:href="#DejaVuSans-46"/>
       <use x="95.410156" xlink:href="#DejaVuSans-52"/>
      </g>
     </g>
    </g>
    <g id="ytick_7">
     <g id="line2d_14">
      <g>
       <use style="stroke:#000000;stroke-width:0.8;" x="90" xlink:href="#mbc54ad371e" y="149.003726"/>
      </g>
     </g>
     <g id="text_14">
      <!-- 0.6 -->
      <g transform="translate(67.096875 152.802944)scale(0.1 -0.1)">
       <use xlink:href="#DejaVuSans-48"/>
       <use x="63.623047" xlink:href="#DejaVuSans-46"/>
       <use x="95.410156" xlink:href="#DejaVuSans-54"/>
      </g>
     </g>
    </g>
    <g id="ytick_8">
     <g id="line2d_15">
      <g>
       <use style="stroke:#000000;stroke-width:0.8;" x="90" xlink:href="#mbc54ad371e" y="89.268722"/>
      </g>
     </g>
     <g id="text_15">
      <!-- 0.8 -->
      <g transform="translate(67.096875 93.06794)scale(0.1 -0.1)">
       <defs>
        <path d="M 31.78125 34.625 
Q 24.75 34.625 20.71875 30.859375 
Q 16.703125 27.09375 16.703125 20.515625 
Q 16.703125 13.921875 20.71875 10.15625 
Q 24.75 6.390625 31.78125 6.390625 
Q 38.8125 6.390625 42.859375 10.171875 
Q 46.921875 13.96875 46.921875 20.515625 
Q 46.921875 27.09375 42.890625 30.859375 
Q 38.875 34.625 31.78125 34.625 
z
M 21.921875 38.8125 
Q 15.578125 40.375 12.03125 44.71875 
Q 8.5 49.078125 8.5 55.328125 
Q 8.5 64.0625 14.71875 69.140625 
Q 20.953125 74.21875 31.78125 74.21875 
Q 42.671875 74.21875 48.875 69.140625 
Q 55.078125 64.0625 55.078125 55.328125 
Q 55.078125 49.078125 51.53125 44.71875 
Q 48 40.375 41.703125 38.8125 
Q 48.828125 37.15625 52.796875 32.3125 
Q 56.78125 27.484375 56.78125 20.515625 
Q 56.78125 9.90625 50.3125 4.234375 
Q 43.84375 -1.421875 31.78125 -1.421875 
Q 19.734375 -1.421875 13.25 4.234375 
Q 6.78125 9.90625 6.78125 20.515625 
Q 6.78125 27.484375 10.78125 32.3125 
Q 14.796875 37.15625 21.921875 38.8125 
z
M 18.3125 54.390625 
Q 18.3125 48.734375 21.84375 45.5625 
Q 25.390625 42.390625 31.78125 42.390625 
Q 38.140625 42.390625 41.71875 45.5625 
Q 45.3125 48.734375 45.3125 54.390625 
Q 45.3125 60.0625 41.71875 63.234375 
Q 38.140625 66.40625 31.78125 66.40625 
Q 25.390625 66.40625 21.84375 63.234375 
Q 18.3125 60.0625 18.3125 54.390625 
z
" id="DejaVuSans-56"/>
       </defs>
       <use xlink:href="#DejaVuSans-48"/>
       <use x="63.623047" xlink:href="#DejaVuSans-46"/>
       <use x="95.410156" xlink:href="#DejaVuSans-56"/>
      </g>
     </g>
    </g>
   </g>
   <g id="line2d_16">
    <defs>
     <path d="M 0 3 
C 0.795609 3 1.55874 2.683901 2.12132 2.12132 
C 2.683901 1.55874 3 0.795609 3 0 
C 3 -0.795609 2.683901 -1.55874 2.12132 -2.12132 
C 1.55874 -2.683901 0.795609 -3 0 -3 
C -0.795609 -3 -1.55874 -2.683901 -2.12132 -2.12132 
C -2.683901 -1.55874 -3 -0.795609 -3 0 
C -3 0.795609 -2.683901 1.55874 -2.12132 2.12132 
C -1.55874 2.683901 -0.795609 3 0 3 
z
" id="mf0cca0918c" style="stroke:#008000;"/>
    </defs>
    <g clip-path="url(#p7eb2e1e2fb)">
     <use style="fill:#008000;stroke:#008000;" x="368.982079" xlink:href="#mf0cca0918c" y="178.871228"/>
    </g>
   </g>
   <g id="line2d_17">
    <path clip-path="url(#p7eb2e1e2fb)" d="M 249.512071 387.943743 
L 339.114577 238.606232 
" style="fill:none;stroke:#0000ff;stroke-dasharray:5.55,2.4;stroke-dashoffset:0;stroke-width:1.5;"/>
   </g>
   <g id="line2d_18">
    <path clip-path="url(#p7eb2e1e2fb)" d="M 518.343484 327.832408 
L 502.9438 324.735148 
L 488.39534 322.011232 
L 474.641355 319.609885 
L 461.625098 317.486305 
L 449.295793 315.604653 
L 437.611626 313.935059 
L 426.527796 312.459605 
L 416.002488 311.157381 
L 406.002848 310.007483 
L 396.493036 308.997961 
L 387.443183 308.119856 
L 378.823421 307.355248 
L 370.606872 306.698163 
L 362.772626 306.139641 
L 355.293803 305.673708 
L 348.152484 305.291404 
L 341.327759 304.989742 
L 334.768856 304.759762 
L 328.472786 304.619385 
L 322.445524 304.553677 
L 316.672136 304.562637 
L 311.137688 304.637306 
L 305.830233 304.771709 
L 300.737824 304.965848 
L 295.851501 305.210762 
L 291.159316 305.50645 
L 286.65231 305.84694 
L 282.321522 306.229244 
L 278.157992 306.653362 
L 274.15276 307.113322 
L 270.299853 307.609122 
L 266.593296 308.140764 
L 263.021142 308.70526 
L 259.583393 309.30261 
L 256.271087 309.929827 
L 253.081238 310.589899 
L 250.004885 311.279838 
L 247.039042 312.002632 
L 244.180722 312.761266 
L 241.423951 313.555742 
L 238.762757 314.392032 
L 236.200125 315.270136 
L 233.727096 316.202003 
L 231.346656 317.19659 
L 229.049845 318.268834 
L 226.842637 319.442627 
L 224.725031 320.76277 
L 222.703001 322.32484 
L 220.800441 324.400632 
L 219.934284 326.025424 
L 219.644569 328.208738 
L 220.358402 330.290503 
L 221.523235 331.715183 
L 223.775244 333.384777 
L 226.036214 334.534675 
L 228.336012 335.439661 
L 230.689571 336.192322 
L 233.102865 336.83746 
L 235.581868 337.401956 
L 238.129566 337.900743 
L 240.754919 338.342782 
L 243.460915 338.737033 
L 246.247553 339.089469 
L 249.12678 339.403078 
L 252.098597 339.680846 
L 255.165989 339.928746 
L 258.340905 340.143792 
L 261.623343 340.328971 
L 265.019278 340.484282 
L 268.53767 340.612712 
L 272.181505 340.717248 
L 275.959744 340.791917 
L 279.87836 340.839705 
L 283.943327 340.863599 
L 288.169579 340.860612 
L 292.557115 340.833732 
L 297.120869 340.77997 
L 301.869802 340.702315 
L 306.812874 340.597778 
L 311.962031 340.469348 
L 317.332208 340.317024 
L 322.935351 340.143792 
L 328.783408 339.94368 
L 334.894299 339.725647 
L 341.300879 339.48372 
L 348.038987 339.208939 
L 355.096678 338.892344 
L 362.488885 338.533934 
L 370.242488 338.136696 
L 378.378396 337.694657 
L 386.923488 337.210804 
L 395.904646 336.685135 
L 405.35771 336.111679 
L 415.309562 335.493422 
L 425.802016 334.827377 
L 436.876885 334.11653 
L 448.572999 333.354909 
L 460.941132 332.536539 
L 474.035045 331.664408 
L 487.911486 330.720595 
L 502.642138 329.702114 
L 518.295696 328.585069 
" style="fill:none;stroke:#0000ff;stroke-dasharray:5.55,2.4;stroke-dashoffset:0;stroke-width:1.5;"/>
   </g>
   <g id="line2d_19">
    <path clip-path="url(#p7eb2e1e2fb)" d="M 428.717084 178.871228 
L 428.596818 175.0826 
L 428.236504 171.309227 
L 427.637594 167.566304 
L 426.802499 163.868902 
L 425.734582 160.231909 
L 424.438142 156.669969 
L 422.9184 153.197427 
L 421.181476 149.828264 
L 419.234363 146.576046 
L 417.084902 143.45387 
L 414.741748 140.474307 
L 412.214335 137.649355 
L 409.512842 134.990389 
L 406.648146 132.508116 
L 403.631781 130.21253 
L 400.475895 128.112876 
L 397.193194 126.217607 
L 393.796897 124.534357 
L 390.300679 123.069901 
L 386.718619 121.830138 
L 383.065141 120.82006 
L 379.354954 120.043733 
L 375.603 119.504283 
L 371.824385 119.203883 
L 368.034326 119.143743 
L 364.248083 119.324104 
L 360.480902 119.74424 
L 356.747952 120.40246 
L 353.064265 121.296112 
L 349.444673 122.4216 
L 345.903752 123.77439 
L 342.455759 125.349036 
L 339.114577 127.139197 
L 335.893662 129.137664 
L 332.805982 131.336391 
L 329.863971 133.726524 
L 327.079474 136.298439 
L 324.463704 139.041779 
L 322.027195 141.945498 
L 319.779755 144.997904 
L 317.730437 148.186707 
L 315.88749 151.499065 
L 314.258337 154.921641 
L 312.849537 158.440653 
L 311.666763 162.041932 
L 310.714777 165.710977 
L 309.997413 169.433014 
L 309.51756 173.193055 
L 309.277149 176.97596 
L 309.277149 180.766496 
L 309.51756 184.549401 
L 309.997413 188.309442 
L 310.714777 192.031478 
L 311.666763 195.700523 
L 312.849537 199.301803 
L 314.258337 202.820815 
L 315.88749 206.243391 
L 317.730437 209.555749 
L 319.779755 212.744551 
L 322.027195 215.796958 
L 324.463704 218.700677 
L 327.079474 221.444017 
L 329.863971 224.015932 
L 332.805982 226.406065 
L 335.893662 228.604792 
L 339.114577 230.603259 
L 342.455759 232.39342 
L 345.903752 233.968066 
L 349.444673 235.320856 
L 353.064265 236.446343 
L 356.747952 237.339996 
L 360.480902 237.998216 
L 364.248083 238.418352 
L 368.034326 238.598713 
L 371.824385 238.538573 
L 375.603 238.238173 
L 379.354954 237.698723 
L 383.065141 236.922396 
L 386.718619 235.912317 
L 390.300679 234.672554 
L 393.796897 233.208099 
L 397.193194 231.524848 
L 400.475895 229.62958 
L 403.631781 227.529926 
L 406.648146 225.23434 
L 409.512842 222.752067 
L 412.214335 220.093101 
L 414.741748 217.268148 
L 417.084902 214.288585 
L 419.234363 211.166409 
L 421.181476 207.914192 
L 422.9184 204.545029 
L 424.438142 201.072486 
L 425.734582 197.510547 
L 426.802499 193.873554 
L 427.637594 190.176152 
L 428.236504 186.433229 
L 428.596818 182.659856 
L 428.717084 178.871228 
" style="fill:none;stroke:#0000ff;stroke-dasharray:5.55,2.4;stroke-dashoffset:0;stroke-width:1.5;"/>
   </g>
   <g id="line2d_20">
    <path clip-path="url(#p7eb2e1e2fb)" d="M 189.777067 492.48 
L 324.180826 268.473734 
" style="fill:none;stroke:#ff0000;stroke-linecap:square;stroke-width:1.5;"/>
   </g>
   <g id="line2d_21">
    <path clip-path="url(#p7eb2e1e2fb)" d="M 593.024186 402.312998 
L 569.92466 397.667108 
L 548.10197 393.581234 
L 527.470993 389.979213 
L 507.946607 386.793844 
L 489.452649 383.971365 
L 471.926399 381.466975 
L 455.300654 379.253793 
L 439.512692 377.300458 
L 424.513233 375.57561 
L 410.248514 374.061328 
L 396.673734 372.744171 
L 383.744092 371.597259 
L 371.419268 370.611631 
L 359.667899 369.773848 
L 348.449665 369.074948 
L 337.737686 368.501492 
L 327.500599 368.048999 
L 317.662244 367.70403 
L 308.21814 367.493464 
L 299.177247 367.394901 
L 290.517165 367.408342 
L 282.215492 367.520345 
L 274.25431 367.72195 
L 266.615696 368.013158 
L 259.286211 368.380529 
L 252.247934 368.824061 
L 245.487425 369.334795 
L 238.991243 369.908251 
L 232.745949 370.544429 
L 226.738101 371.234369 
L 220.958739 371.978069 
L 215.398904 372.775532 
L 210.040674 373.622275 
L 204.884049 374.5183 
L 199.91559 375.459127 
L 195.130817 376.449234 
L 190.516288 377.484143 
L 186.067523 378.568334 
L 181.780043 379.706286 
L 177.644887 380.897999 
L 173.653096 382.152434 
L 169.809148 383.469591 
L 166.099605 384.86739 
L 162.528945 386.359272 
L 159.083728 387.967637 
L 155.772916 389.728326 
L 152.596507 391.708541 
L 149.563462 394.051647 
L 146.709622 397.165334 
L 145.410386 399.602522 
L 144.975814 402.877494 
L 146.046564 406.000141 
L 147.793813 408.137161 
L 151.171827 410.641551 
L 154.563282 412.366399 
L 158.012978 413.723877 
L 161.543317 414.852869 
L 165.163258 415.820576 
L 168.881762 416.667319 
L 172.703309 417.4155 
L 176.641339 418.078559 
L 180.700333 418.669935 
L 184.88029 419.19859 
L 189.199131 419.669003 
L 193.656855 420.085655 
L 198.257944 420.457505 
L 203.020317 420.780074 
L 207.943975 421.057842 
L 213.037877 421.290809 
L 218.315465 421.483454 
L 223.781218 421.640258 
L 229.448577 421.752262 
L 235.326501 421.823944 
L 241.423951 421.859785 
L 247.763329 421.855305 
L 254.344633 421.814983 
L 261.190264 421.734341 
L 268.313664 421.617858 
L 275.728271 421.461053 
L 283.452007 421.268408 
L 291.507272 421.039922 
L 299.911987 420.780074 
L 308.684073 420.479906 
L 317.850409 420.152857 
L 327.460278 419.789967 
L 337.567441 419.377795 
L 348.153977 418.902902 
L 359.242287 418.365287 
L 370.872692 417.76943 
L 383.076554 417.106372 
L 395.894192 416.380591 
L 409.365929 415.592089 
L 423.545526 414.731905 
L 438.473303 413.804519 
L 454.211984 412.805451 
L 470.824288 411.739182 
L 488.368459 410.59675 
L 506.920658 409.369195 
L 526.561527 408.060999 
L 547.376189 406.645279 
L 569.472168 405.117556 
L 592.952504 403.441989 
" style="fill:none;stroke:#ff0000;stroke-linecap:square;stroke-width:1.5;"/>
   </g>
   <g id="line2d_22">
    <path clip-path="url(#p7eb2e1e2fb)" d="M 458.584586 178.871228 
L 458.404187 173.188286 
L 457.863717 167.528227 
L 456.965352 161.913842 
L 455.712709 156.367739 
L 454.110833 150.912249 
L 452.166173 145.56934 
L 449.88656 140.360527 
L 447.281174 135.306782 
L 444.360504 130.428456 
L 441.136313 125.745191 
L 437.621582 121.275847 
L 433.830463 117.038419 
L 429.778223 113.04997 
L 425.481179 109.326559 
L 420.956632 105.883181 
L 416.222803 102.7337 
L 411.298751 99.890797 
L 406.204306 97.365921 
L 400.959979 95.169238 
L 395.586889 93.309594 
L 390.106671 91.794476 
L 384.541391 90.629985 
L 378.91346 89.820811 
L 373.245538 89.370211 
L 367.560449 89.28 
L 361.881085 89.550541 
L 356.230313 90.180746 
L 350.630889 91.168075 
L 345.105358 92.508555 
L 339.67597 94.196786 
L 334.364588 96.225971 
L 329.192598 98.58794 
L 324.180826 101.273181 
L 319.349453 104.270882 
L 314.717934 107.568973 
L 310.304916 111.154172 
L 306.128171 115.012044 
L 302.204517 119.127054 
L 298.549752 123.482633 
L 295.178593 128.061243 
L 292.104615 132.844446 
L 289.340196 137.812983 
L 286.896466 142.946847 
L 284.783265 148.225366 
L 283.009104 153.627285 
L 281.581126 159.130852 
L 280.50508 164.713907 
L 279.7853 170.353968 
L 279.424684 176.028325 
L 279.424684 181.71413 
L 279.7853 187.388488 
L 280.50508 193.028549 
L 281.581126 198.611604 
L 283.009104 204.115171 
L 284.783265 209.51709 
L 286.896466 214.795609 
L 289.340196 219.929473 
L 292.104615 224.89801 
L 295.178593 229.681213 
L 298.549752 234.259822 
L 302.204517 238.615401 
L 306.128171 242.730412 
L 310.304916 246.588284 
L 314.717934 250.173483 
L 319.349453 253.471574 
L 324.180826 256.469275 
L 329.192598 259.154516 
L 334.364588 261.516484 
L 339.67597 263.54567 
L 345.105358 265.233901 
L 350.630889 266.57438 
L 356.230313 267.56171 
L 361.881085 268.191914 
L 367.560449 268.462456 
L 373.245538 268.372245 
L 378.91346 267.921645 
L 384.541391 267.112471 
L 390.106671 265.94798 
L 395.586889 264.432862 
L 400.959979 262.573217 
L 406.204306 260.376534 
L 411.298751 257.851658 
L 416.222803 255.008756 
L 420.956632 251.859275 
L 425.481179 248.415896 
L 429.778223 244.692486 
L 433.830463 240.704037 
L 437.621582 236.466609 
L 441.136313 231.997264 
L 444.360504 227.314 
L 447.281174 222.435674 
L 449.88656 217.381929 
L 452.166173 212.173115 
L 454.110833 206.830207 
L 455.712709 201.374717 
L 456.965352 195.828614 
L 457.863717 190.214229 
L 458.404187 184.55417 
L 458.584586 178.871228 
" style="fill:none;stroke:#ff0000;stroke-linecap:square;stroke-width:1.5;"/>
   </g>
   <g id="patch_3">
    <path d="M 90 512.64 
L 90 69.12 
" style="fill:none;stroke:#000000;stroke-linecap:square;stroke-linejoin:miter;stroke-width:0.8;"/>
   </g>
   <g id="patch_4">
    <path d="M 648 512.64 
L 648 69.12 
" style="fill:none;stroke:#000000;stroke-linecap:square;stroke-linejoin:miter;stroke-width:0.8;"/>
   </g>
   <g id="patch_5">
    <path d="M 90 512.64 
L 648 512.64 
" style="fill:none;stroke:#000000;stroke-linecap:square;stroke-linejoin:miter;stroke-width:0.8;"/>
   </g>
   <g id="patch_6">
    <path d="M 90 69.12 
L 648 69.12 
" style="fill:none;stroke:#000000;stroke-linecap:square;stroke-linejoin:miter;stroke-width:0.8;"/>
   </g>
   <g id="text_16">
    <!-- Example of 4.10 -->
    <g transform="translate(320.011875 63.12)scale(0.12 -0.12)">
     <defs>
      <path d="M 9.8125 72.90625 
L 55.90625 72.90625 
L 55.90625 64.59375 
L 19.671875 64.59375 
L 19.671875 43.015625 
L 54.390625 43.015625 
L 54.390625 34.71875 
L 19.671875 34.71875 
L 19.671875 8.296875 
L 56.78125 8.296875 
L 56.78125 0 
L 9.8125 0 
z
" id="DejaVuSans-69"/>
      <path d="M 54.890625 54.6875 
L 35.109375 28.078125 
L 55.90625 0 
L 45.3125 0 
L 29.390625 21.484375 
L 13.484375 0 
L 2.875 0 
L 24.125 28.609375 
L 4.6875 54.6875 
L 15.28125 54.6875 
L 29.78125 35.203125 
L 44.28125 54.6875 
z
" id="DejaVuSans-120"/>
      <path d="M 34.28125 27.484375 
Q 23.390625 27.484375 19.1875 25 
Q 14.984375 22.515625 14.984375 16.5 
Q 14.984375 11.71875 18.140625 8.90625 
Q 21.296875 6.109375 26.703125 6.109375 
Q 34.1875 6.109375 38.703125 11.40625 
Q 43.21875 16.703125 43.21875 25.484375 
L 43.21875 27.484375 
z
M 52.203125 31.203125 
L 52.203125 0 
L 43.21875 0 
L 43.21875 8.296875 
Q 40.140625 3.328125 35.546875 0.953125 
Q 30.953125 -1.421875 24.3125 -1.421875 
Q 15.921875 -1.421875 10.953125 3.296875 
Q 6 8.015625 6 15.921875 
Q 6 25.140625 12.171875 29.828125 
Q 18.359375 34.515625 30.609375 34.515625 
L 43.21875 34.515625 
L 43.21875 35.40625 
Q 43.21875 41.609375 39.140625 45 
Q 35.0625 48.390625 27.6875 48.390625 
Q 23 48.390625 18.546875 47.265625 
Q 14.109375 46.140625 10.015625 43.890625 
L 10.015625 52.203125 
Q 14.9375 54.109375 19.578125 55.046875 
Q 24.21875 56 28.609375 56 
Q 40.484375 56 46.34375 49.84375 
Q 52.203125 43.703125 52.203125 31.203125 
z
" id="DejaVuSans-97"/>
      <path d="M 52 44.1875 
Q 55.375 50.25 60.0625 53.125 
Q 64.75 56 71.09375 56 
Q 79.640625 56 84.28125 50.015625 
Q 88.921875 44.046875 88.921875 33.015625 
L 88.921875 0 
L 79.890625 0 
L 79.890625 32.71875 
Q 79.890625 40.578125 77.09375 44.375 
Q 74.3125 48.1875 68.609375 48.1875 
Q 61.625 48.1875 57.5625 43.546875 
Q 53.515625 38.921875 53.515625 30.90625 
L 53.515625 0 
L 44.484375 0 
L 44.484375 32.71875 
Q 44.484375 40.625 41.703125 44.40625 
Q 38.921875 48.1875 33.109375 48.1875 
Q 26.21875 48.1875 22.15625 43.53125 
Q 18.109375 38.875 18.109375 30.90625 
L 18.109375 0 
L 9.078125 0 
L 9.078125 54.6875 
L 18.109375 54.6875 
L 18.109375 46.1875 
Q 21.1875 51.21875 25.484375 53.609375 
Q 29.78125 56 35.6875 56 
Q 41.65625 56 45.828125 52.96875 
Q 50 49.953125 52 44.1875 
z
" id="DejaVuSans-109"/>
      <path d="M 18.109375 8.203125 
L 18.109375 -20.796875 
L 9.078125 -20.796875 
L 9.078125 54.6875 
L 18.109375 54.6875 
L 18.109375 46.390625 
Q 20.953125 51.265625 25.265625 53.625 
Q 29.59375 56 35.59375 56 
Q 45.5625 56 51.78125 48.09375 
Q 58.015625 40.1875 58.015625 27.296875 
Q 58.015625 14.40625 51.78125 6.484375 
Q 45.5625 -1.421875 35.59375 -1.421875 
Q 29.59375 -1.421875 25.265625 0.953125 
Q 20.953125 3.328125 18.109375 8.203125 
z
M 48.6875 27.296875 
Q 48.6875 37.203125 44.609375 42.84375 
Q 40.53125 48.484375 33.40625 48.484375 
Q 26.265625 48.484375 22.1875 42.84375 
Q 18.109375 37.203125 18.109375 27.296875 
Q 18.109375 17.390625 22.1875 11.75 
Q 26.265625 6.109375 33.40625 6.109375 
Q 40.53125 6.109375 44.609375 11.75 
Q 48.6875 17.390625 48.6875 27.296875 
z
" id="DejaVuSans-112"/>
      <path d="M 9.421875 75.984375 
L 18.40625 75.984375 
L 18.40625 0 
L 9.421875 0 
z
" id="DejaVuSans-108"/>
      <path d="M 56.203125 29.59375 
L 56.203125 25.203125 
L 14.890625 25.203125 
Q 15.484375 15.921875 20.484375 11.0625 
Q 25.484375 6.203125 34.421875 6.203125 
Q 39.59375 6.203125 44.453125 7.46875 
Q 49.3125 8.734375 54.109375 11.28125 
L 54.109375 2.78125 
Q 49.265625 0.734375 44.1875 -0.34375 
Q 39.109375 -1.421875 33.890625 -1.421875 
Q 20.796875 -1.421875 13.15625 6.1875 
Q 5.515625 13.8125 5.515625 26.8125 
Q 5.515625 40.234375 12.765625 48.109375 
Q 20.015625 56 32.328125 56 
Q 43.359375 56 49.78125 48.890625 
Q 56.203125 41.796875 56.203125 29.59375 
z
M 47.21875 32.234375 
Q 47.125 39.59375 43.09375 43.984375 
Q 39.0625 48.390625 32.421875 48.390625 
Q 24.90625 48.390625 20.390625 44.140625 
Q 15.875 39.890625 15.1875 32.171875 
z
" id="DejaVuSans-101"/>
      <path id="DejaVuSans-32"/>
      <path d="M 30.609375 48.390625 
Q 23.390625 48.390625 19.1875 42.75 
Q 14.984375 37.109375 14.984375 27.296875 
Q 14.984375 17.484375 19.15625 11.84375 
Q 23.34375 6.203125 30.609375 6.203125 
Q 37.796875 6.203125 41.984375 11.859375 
Q 46.1875 17.53125 46.1875 27.296875 
Q 46.1875 37.015625 41.984375 42.703125 
Q 37.796875 48.390625 30.609375 48.390625 
z
M 30.609375 56 
Q 42.328125 56 49.015625 48.375 
Q 55.71875 40.765625 55.71875 27.296875 
Q 55.71875 13.875 49.015625 6.21875 
Q 42.328125 -1.421875 30.609375 -1.421875 
Q 18.84375 -1.421875 12.171875 6.21875 
Q 5.515625 13.875 5.515625 27.296875 
Q 5.515625 40.765625 12.171875 48.375 
Q 18.84375 56 30.609375 56 
z
" id="DejaVuSans-111"/>
      <path d="M 37.109375 75.984375 
L 37.109375 68.5 
L 28.515625 68.5 
Q 23.6875 68.5 21.796875 66.546875 
Q 19.921875 64.59375 19.921875 59.515625 
L 19.921875 54.6875 
L 34.71875 54.6875 
L 34.71875 47.703125 
L 19.921875 47.703125 
L 19.921875 0 
L 10.890625 0 
L 10.890625 47.703125 
L 2.296875 47.703125 
L 2.296875 54.6875 
L 10.890625 54.6875 
L 10.890625 58.5 
Q 10.890625 67.625 15.140625 71.796875 
Q 19.390625 75.984375 28.609375 75.984375 
z
" id="DejaVuSans-102"/>
     </defs>
     <use xlink:href="#DejaVuSans-69"/>
     <use x="63.183594" xlink:href="#DejaVuSans-120"/>
     <use x="122.363281" xlink:href="#DejaVuSans-97"/>
     <use x="183.642578" xlink:href="#DejaVuSans-109"/>
     <use x="281.054688" xlink:href="#DejaVuSans-112"/>
     <use x="344.53125" xlink:href="#DejaVuSans-108"/>
     <use x="372.314453" xlink:href="#DejaVuSans-101"/>
     <use x="433.837891" xlink:href="#DejaVuSans-32"/>
     <use x="465.625" xlink:href="#DejaVuSans-111"/>
     <use x="526.806641" xlink:href="#DejaVuSans-102"/>
     <use x="562.011719" xlink:href="#DejaVuSans-32"/>
     <use x="593.798828" xlink:href="#DejaVuSans-52"/>
     <use x="657.421875" xlink:href="#DejaVuSans-46"/>
     <use x="689.208984" xlink:href="#DejaVuSans-49"/>
     <use x="752.832031" xlink:href="#DejaVuSans-48"/>
    </g>
   </g>
   <g id="legend_1">
    <g id="patch_7">
     <path d="M 538.909375 179.866875 
L 641 179.866875 
Q 643 179.866875 643 177.866875 
L 643 76.12 
Q 643 74.12 641 74.12 
L 538.909375 74.12 
Q 536.909375 74.12 536.909375 76.12 
L 536.909375 177.866875 
Q 536.909375 179.866875 538.909375 179.866875 
z
" style="fill:#ffffff;opacity:0.8;stroke:#cccccc;stroke-linejoin:miter;"/>
    </g>
    <g id="line2d_23"/>
    <g id="line2d_24">
     <g>
      <use style="fill:#008000;stroke:#008000;" x="550.909375" xlink:href="#mf0cca0918c" y="82.218438"/>
     </g>
    </g>
    <g id="text_17">
     <!-- Scaled Center -->
     <g transform="translate(568.909375 85.718438)scale(0.1 -0.1)">
      <defs>
       <path d="M 53.515625 70.515625 
L 53.515625 60.890625 
Q 47.90625 63.578125 42.921875 64.890625 
Q 37.9375 66.21875 33.296875 66.21875 
Q 25.25 66.21875 20.875 63.09375 
Q 16.5 59.96875 16.5 54.203125 
Q 16.5 49.359375 19.40625 46.890625 
Q 22.3125 44.4375 30.421875 42.921875 
L 36.375 41.703125 
Q 47.40625 39.59375 52.65625 34.296875 
Q 57.90625 29 57.90625 20.125 
Q 57.90625 9.515625 50.796875 4.046875 
Q 43.703125 -1.421875 29.984375 -1.421875 
Q 24.8125 -1.421875 18.96875 -0.25 
Q 13.140625 0.921875 6.890625 3.21875 
L 6.890625 13.375 
Q 12.890625 10.015625 18.65625 8.296875 
Q 24.421875 6.59375 29.984375 6.59375 
Q 38.421875 6.59375 43.015625 9.90625 
Q 47.609375 13.234375 47.609375 19.390625 
Q 47.609375 24.75 44.3125 27.78125 
Q 41.015625 30.8125 33.5 32.328125 
L 27.484375 33.5 
Q 16.453125 35.6875 11.515625 40.375 
Q 6.59375 45.0625 6.59375 53.421875 
Q 6.59375 63.09375 13.40625 68.65625 
Q 20.21875 74.21875 32.171875 74.21875 
Q 37.3125 74.21875 42.625 73.28125 
Q 47.953125 72.359375 53.515625 70.515625 
z
" id="DejaVuSans-83"/>
       <path d="M 48.78125 52.59375 
L 48.78125 44.1875 
Q 44.96875 46.296875 41.140625 47.34375 
Q 37.3125 48.390625 33.40625 48.390625 
Q 24.65625 48.390625 19.8125 42.84375 
Q 14.984375 37.3125 14.984375 27.296875 
Q 14.984375 17.28125 19.8125 11.734375 
Q 24.65625 6.203125 33.40625 6.203125 
Q 37.3125 6.203125 41.140625 7.25 
Q 44.96875 8.296875 48.78125 10.40625 
L 48.78125 2.09375 
Q 45.015625 0.34375 40.984375 -0.53125 
Q 36.96875 -1.421875 32.421875 -1.421875 
Q 20.0625 -1.421875 12.78125 6.34375 
Q 5.515625 14.109375 5.515625 27.296875 
Q 5.515625 40.671875 12.859375 48.328125 
Q 20.21875 56 33.015625 56 
Q 37.15625 56 41.109375 55.140625 
Q 45.0625 54.296875 48.78125 52.59375 
z
" id="DejaVuSans-99"/>
       <path d="M 45.40625 46.390625 
L 45.40625 75.984375 
L 54.390625 75.984375 
L 54.390625 0 
L 45.40625 0 
L 45.40625 8.203125 
Q 42.578125 3.328125 38.25 0.953125 
Q 33.9375 -1.421875 27.875 -1.421875 
Q 17.96875 -1.421875 11.734375 6.484375 
Q 5.515625 14.40625 5.515625 27.296875 
Q 5.515625 40.1875 11.734375 48.09375 
Q 17.96875 56 27.875 56 
Q 33.9375 56 38.25 53.625 
Q 42.578125 51.265625 45.40625 46.390625 
z
M 14.796875 27.296875 
Q 14.796875 17.390625 18.875 11.75 
Q 22.953125 6.109375 30.078125 6.109375 
Q 37.203125 6.109375 41.296875 11.75 
Q 45.40625 17.390625 45.40625 27.296875 
Q 45.40625 37.203125 41.296875 42.84375 
Q 37.203125 48.484375 30.078125 48.484375 
Q 22.953125 48.484375 18.875 42.84375 
Q 14.796875 37.203125 14.796875 27.296875 
z
" id="DejaVuSans-100"/>
       <path d="M 64.40625 67.28125 
L 64.40625 56.890625 
Q 59.421875 61.53125 53.78125 63.8125 
Q 48.140625 66.109375 41.796875 66.109375 
Q 29.296875 66.109375 22.65625 58.46875 
Q 16.015625 50.828125 16.015625 36.375 
Q 16.015625 21.96875 22.65625 14.328125 
Q 29.296875 6.6875 41.796875 6.6875 
Q 48.140625 6.6875 53.78125 8.984375 
Q 59.421875 11.28125 64.40625 15.921875 
L 64.40625 5.609375 
Q 59.234375 2.09375 53.4375 0.328125 
Q 47.65625 -1.421875 41.21875 -1.421875 
Q 24.65625 -1.421875 15.125 8.703125 
Q 5.609375 18.84375 5.609375 36.375 
Q 5.609375 53.953125 15.125 64.078125 
Q 24.65625 74.21875 41.21875 74.21875 
Q 47.75 74.21875 53.53125 72.484375 
Q 59.328125 70.75 64.40625 67.28125 
z
" id="DejaVuSans-67"/>
       <path d="M 54.890625 33.015625 
L 54.890625 0 
L 45.90625 0 
L 45.90625 32.71875 
Q 45.90625 40.484375 42.875 44.328125 
Q 39.84375 48.1875 33.796875 48.1875 
Q 26.515625 48.1875 22.3125 43.546875 
Q 18.109375 38.921875 18.109375 30.90625 
L 18.109375 0 
L 9.078125 0 
L 9.078125 54.6875 
L 18.109375 54.6875 
L 18.109375 46.1875 
Q 21.34375 51.125 25.703125 53.5625 
Q 30.078125 56 35.796875 56 
Q 45.21875 56 50.046875 50.171875 
Q 54.890625 44.34375 54.890625 33.015625 
z
" id="DejaVuSans-110"/>
       <path d="M 18.3125 70.21875 
L 18.3125 54.6875 
L 36.8125 54.6875 
L 36.8125 47.703125 
L 18.3125 47.703125 
L 18.3125 18.015625 
Q 18.3125 11.328125 20.140625 9.421875 
Q 21.96875 7.515625 27.59375 7.515625 
L 36.8125 7.515625 
L 36.8125 0 
L 27.59375 0 
Q 17.1875 0 13.234375 3.875 
Q 9.28125 7.765625 9.28125 18.015625 
L 9.28125 47.703125 
L 2.6875 47.703125 
L 2.6875 54.6875 
L 9.28125 54.6875 
L 9.28125 70.21875 
z
" id="DejaVuSans-116"/>
       <path d="M 41.109375 46.296875 
Q 39.59375 47.171875 37.8125 47.578125 
Q 36.03125 48 33.890625 48 
Q 26.265625 48 22.1875 43.046875 
Q 18.109375 38.09375 18.109375 28.8125 
L 18.109375 0 
L 9.078125 0 
L 9.078125 54.6875 
L 18.109375 54.6875 
L 18.109375 46.1875 
Q 20.953125 51.171875 25.484375 53.578125 
Q 30.03125 56 36.53125 56 
Q 37.453125 56 38.578125 55.875 
Q 39.703125 55.765625 41.0625 55.515625 
z
" id="DejaVuSans-114"/>
      </defs>
      <use xlink:href="#DejaVuSans-83"/>
      <use x="63.476562" xlink:href="#DejaVuSans-99"/>
      <use x="118.457031" xlink:href="#DejaVuSans-97"/>
      <use x="179.736328" xlink:href="#DejaVuSans-108"/>
      <use x="207.519531" xlink:href="#DejaVuSans-101"/>
      <use x="269.042969" xlink:href="#DejaVuSans-100"/>
      <use x="332.519531" xlink:href="#DejaVuSans-32"/>
      <use x="364.306641" xlink:href="#DejaVuSans-67"/>
      <use x="434.130859" xlink:href="#DejaVuSans-101"/>
      <use x="495.654297" xlink:href="#DejaVuSans-110"/>
      <use x="559.033203" xlink:href="#DejaVuSans-116"/>
      <use x="598.242188" xlink:href="#DejaVuSans-101"/>
      <use x="659.765625" xlink:href="#DejaVuSans-114"/>
     </g>
    </g>
    <g id="line2d_25">
     <path d="M 540.909375 96.896563 
L 560.909375 96.896563 
" style="fill:none;stroke:#0000ff;stroke-dasharray:5.55,2.4;stroke-dashoffset:0;stroke-width:1.5;"/>
    </g>
    <g id="line2d_26"/>
    <g id="text_18">
     <!-- Line -->
     <g transform="translate(568.909375 100.396563)scale(0.1 -0.1)">
      <defs>
       <path d="M 9.8125 72.90625 
L 19.671875 72.90625 
L 19.671875 8.296875 
L 55.171875 8.296875 
L 55.171875 0 
L 9.8125 0 
z
" id="DejaVuSans-76"/>
       <path d="M 9.421875 54.6875 
L 18.40625 54.6875 
L 18.40625 0 
L 9.421875 0 
z
M 9.421875 75.984375 
L 18.40625 75.984375 
L 18.40625 64.59375 
L 9.421875 64.59375 
z
" id="DejaVuSans-105"/>
      </defs>
      <use xlink:href="#DejaVuSans-76"/>
      <use x="55.712891" xlink:href="#DejaVuSans-105"/>
      <use x="83.496094" xlink:href="#DejaVuSans-110"/>
      <use x="146.875" xlink:href="#DejaVuSans-101"/>
     </g>
    </g>
    <g id="line2d_27">
     <path d="M 540.909375 111.574688 
L 560.909375 111.574688 
" style="fill:none;stroke:#0000ff;stroke-dasharray:5.55,2.4;stroke-dashoffset:0;stroke-width:1.5;"/>
    </g>
    <g id="line2d_28"/>
    <g id="text_19">
     <!-- Spline -->
     <g transform="translate(568.909375 115.074688)scale(0.1 -0.1)">
      <use xlink:href="#DejaVuSans-83"/>
      <use x="63.476562" xlink:href="#DejaVuSans-112"/>
      <use x="126.953125" xlink:href="#DejaVuSans-108"/>
      <use x="154.736328" xlink:href="#DejaVuSans-105"/>
      <use x="182.519531" xlink:href="#DejaVuSans-110"/>
      <use x="245.898438" xlink:href="#DejaVuSans-101"/>
     </g>
    </g>
    <g id="line2d_29">
     <path d="M 540.909375 126.252813 
L 560.909375 126.252813 
" style="fill:none;stroke:#0000ff;stroke-dasharray:5.55,2.4;stroke-dashoffset:0;stroke-width:1.5;"/>
    </g>
    <g id="line2d_30"/>
    <g id="text_20">
     <!-- Circle -->
     <g transform="translate(568.909375 129.752813)scale(0.1 -0.1)">
      <use xlink:href="#DejaVuSans-67"/>
      <use x="69.824219" xlink:href="#DejaVuSans-105"/>
      <use x="97.607422" xlink:href="#DejaVuSans-114"/>
      <use x="136.470703" xlink:href="#DejaVuSans-99"/>
      <use x="191.451172" xlink:href="#DejaVuSans-108"/>
      <use x="219.234375" xlink:href="#DejaVuSans-101"/>
     </g>
    </g>
    <g id="line2d_31">
     <path d="M 540.909375 140.930938 
L 560.909375 140.930938 
" style="fill:none;stroke:#ff0000;stroke-linecap:square;stroke-width:1.5;"/>
    </g>
    <g id="line2d_32"/>
    <g id="text_21">
     <!-- Scaled line -->
     <g transform="translate(568.909375 144.430938)scale(0.1 -0.1)">
      <use xlink:href="#DejaVuSans-83"/>
      <use x="63.476562" xlink:href="#DejaVuSans-99"/>
      <use x="118.457031" xlink:href="#DejaVuSans-97"/>
      <use x="179.736328" xlink:href="#DejaVuSans-108"/>
      <use x="207.519531" xlink:href="#DejaVuSans-101"/>
      <use x="269.042969" xlink:href="#DejaVuSans-100"/>
      <use x="332.519531" xlink:href="#DejaVuSans-32"/>
      <use x="364.306641" xlink:href="#DejaVuSans-108"/>
      <use x="392.089844" xlink:href="#DejaVuSans-105"/>
      <use x="419.873047" xlink:href="#DejaVuSans-110"/>
      <use x="483.251953" xlink:href="#DejaVuSans-101"/>
     </g>
    </g>
    <g id="line2d_33">
     <path d="M 540.909375 155.609063 
L 560.909375 155.609063 
" style="fill:none;stroke:#ff0000;stroke-linecap:square;stroke-width:1.5;"/>
    </g>
    <g id="line2d_34"/>
    <g id="text_22">
     <!-- Scaled spline -->
     <g transform="translate(568.909375 159.109063)scale(0.1 -0.1)">
      <defs>
       <path d="M 44.28125 53.078125 
L 44.28125 44.578125 
Q 40.484375 46.53125 36.375 47.5 
Q 32.28125 48.484375 27.875 48.484375 
Q 21.1875 48.484375 17.84375 46.4375 
Q 14.5 44.390625 14.5 40.28125 
Q 14.5 37.15625 16.890625 35.375 
Q 19.28125 33.59375 26.515625 31.984375 
L 29.59375 31.296875 
Q 39.15625 29.25 43.1875 25.515625 
Q 47.21875 21.78125 47.21875 15.09375 
Q 47.21875 7.46875 41.1875 3.015625 
Q 35.15625 -1.421875 24.609375 -1.421875 
Q 20.21875 -1.421875 15.453125 -0.5625 
Q 10.6875 0.296875 5.421875 2 
L 5.421875 11.28125 
Q 10.40625 8.6875 15.234375 7.390625 
Q 20.0625 6.109375 24.8125 6.109375 
Q 31.15625 6.109375 34.5625 8.28125 
Q 37.984375 10.453125 37.984375 14.40625 
Q 37.984375 18.0625 35.515625 20.015625 
Q 33.0625 21.96875 24.703125 23.78125 
L 21.578125 24.515625 
Q 13.234375 26.265625 9.515625 29.90625 
Q 5.8125 33.546875 5.8125 39.890625 
Q 5.8125 47.609375 11.28125 51.796875 
Q 16.75 56 26.8125 56 
Q 31.78125 56 36.171875 55.265625 
Q 40.578125 54.546875 44.28125 53.078125 
z
" id="DejaVuSans-115"/>
      </defs>
      <use xlink:href="#DejaVuSans-83"/>
      <use x="63.476562" xlink:href="#DejaVuSans-99"/>
      <use x="118.457031" xlink:href="#DejaVuSans-97"/>
      <use x="179.736328" xlink:href="#DejaVuSans-108"/>
      <use x="207.519531" xlink:href="#DejaVuSans-101"/>
      <use x="269.042969" xlink:href="#DejaVuSans-100"/>
      <use x="332.519531" xlink:href="#DejaVuSans-32"/>
      <use x="364.306641" xlink:href="#DejaVuSans-115"/>
      <use x="416.40625" xlink:href="#DejaVuSans-112"/>
      <use x="479.882812" xlink:href="#DejaVuSans-108"/>
      <use x="507.666016" xlink:href="#DejaVuSans-105"/>
      <use x="535.449219" xlink:href="#DejaVuSans-110"/>
      <use x="598.828125" xlink:href="#DejaVuSans-101"/>
     </g>
    </g>
    <g id="line2d_35">
     <path d="M 540.909375 170.287188 
L 560.909375 170.287188 
" style="fill:none;stroke:#ff0000;stroke-linecap:square;stroke-width:1.5;"/>
    </g>
    <g id="line2d_36"/>
    <g id="text_23">
     <!-- Scaled circle -->
     <g transform="translate(568.909375 173.787188)scale(0.1 -0.1)">
      <use xlink:href="#DejaVuSans-83"/>
      <use x="63.476562" xlink:href="#DejaVuSans-99"/>
      <use x="118.457031" xlink:href="#DejaVuSans-97"/>
      <use x="179.736328" xlink:href="#DejaVuSans-108"/>
      <use x="207.519531" xlink:href="#DejaVuSans-101"/>
      <use x="269.042969" xlink:href="#DejaVuSans-100"/>
      <use x="332.519531" xlink:href="#DejaVuSans-32"/>
      <use x="364.306641" xlink:href="#DejaVuSans-99"/>
      <use x="419.287109" xlink:href="#DejaVuSans-105"/>
      <use x="447.070312" xlink:href="#DejaVuSans-114"/>
      <use x="485.933594" xlink:href="#DejaVuSans-99"/>
      <use x="540.914062" xlink:href="#DejaVuSans-108"/>
      <use x="568.697266" xlink:href="#DejaVuSans-101"/>
     </g>
    </g>
   </g>
  </g>
 </g>
 <defs>
  <clipPath id="p7eb2e1e2fb">
   <rect height="443.52" width="558" x="90" y="69.12"/>
  </clipPath>
 </defs>
</svg>
