<?xml version="1.0" encoding="utf-8" standalone="no"?>
<!DOCTYPE svg PUBLIC "-//W3C//DTD SVG 1.1//EN"
  "http://www.w3.org/Graphics/SVG/1.1/DTD/svg11.dtd">
<!-- Created with matplotlib (https://matplotlib.org/) -->
<svg height="576pt" version="1.1" viewBox="0 0 720 576" width="720pt" xmlns="http://www.w3.org/2000/svg" xmlns:xlink="http://www.w3.org/1999/xlink">
 <metadata>
  <rdf:RDF xmlns:cc="http://creativecommons.org/ns#" xmlns:dc="http://purl.org/dc/elements/1.1/" xmlns:rdf="http://www.w3.org/1999/02/22-rdf-syntax-ns#">
   <cc:Work>
    <dc:type rdf:resource="http://purl.org/dc/dcmitype/StillImage"/>
    <dc:date>2025-09-03T01:09:00.517763</dc:date>
    <dc:format>image/svg+xml</dc:format>
    <dc:creator>
     <cc:Agent>
      <dc:title>Matplotlib v3.3.2, https://matplotlib.org/</dc:title>
     </cc:Agent>
    </dc:creator>
   </cc:Work>
  </rdf:RDF>
 </metadata>
 <defs>
  <style type="text/css">*{stroke-linecap:butt;stroke-linejoin:round;}</style>
 </defs>
 <g id="figure_1">
  <g id="patch_1">
   <path d="M 0 576 
L 720 576 
L 720 0 
L 0 0 
z
" style="fill:#ffffff;"/>
  </g>
  <g id="axes_1">
   <g id="patch_2">
    <path d="M 90 512.64 
L 648 512.64 
L 648 69.12 
L 90 69.12 
z
" style="fill:#ffffff;"/>
   </g>
   <g id="matplotlib.axis_1">
    <g id="xtick_1">
     <g id="line2d_1">
      <defs>
       <path d="M 0 0 
L 0 3.5 
" id="m2614056908" style="stroke:#000000;stroke-width:0.8;"/>
      </defs>
      <g>
       <use style="stroke:#000000;stroke-width:0.8;" x="95.524766" xlink:href="#m2614056908" y="512.64"/>
      </g>
     </g>
     <g id="text_1">
      <!-- 0.00 -->
      <g transform="translate(84.391954 527.238438)scale(0.1 -0.1)">
       <defs>
        <path d="M 31.78125 66.40625 
Q 24.171875 66.40625 20.328125 58.90625 
Q 16.5 51.421875 16.5 36.375 
Q 16.5 21.390625 20.328125 13.890625 
Q 24.171875 6.390625 31.78125 6.390625 
Q 39.453125 6.390625 43.28125 13.890625 
Q 47.125 21.390625 47.125 36.375 
Q 47.125 51.421875 43.28125 58.90625 
Q 39.453125 66.40625 31.78125 66.40625 
z
M 31.78125 74.21875 
Q 44.046875 74.21875 50.515625 64.515625 
Q 56.984375 54.828125 56.984375 36.375 
Q 56.984375 17.96875 50.515625 8.265625 
Q 44.046875 -1.421875 31.78125 -1.421875 
Q 19.53125 -1.421875 13.0625 8.265625 
Q 6.59375 17.96875 6.59375 36.375 
Q 6.59375 54.828125 13.0625 64.515625 
Q 19.53125 74.21875 31.78125 74.21875 
z
" id="DejaVuSans-48"/>
        <path d="M 10.6875 12.40625 
L 21 12.40625 
L 21 0 
L 10.6875 0 
z
" id="DejaVuSans-46"/>
       </defs>
       <use xlink:href="#DejaVuSans-48"/>
       <use x="63.623047" xlink:href="#DejaVuSans-46"/>
       <use x="95.410156" xlink:href="#DejaVuSans-48"/>
       <use x="159.033203" xlink:href="#DejaVuSans-48"/>
      </g>
     </g>
    </g>
    <g id="xtick_2">
     <g id="line2d_2">
      <g>
       <use style="stroke:#000000;stroke-width:0.8;" x="172.324365" xlink:href="#m2614056908" y="512.64"/>
      </g>
     </g>
     <g id="text_2">
      <!-- 0.02 -->
      <g transform="translate(161.191552 527.238438)scale(0.1 -0.1)">
       <defs>
        <path d="M 19.1875 8.296875 
L 53.609375 8.296875 
L 53.609375 0 
L 7.328125 0 
L 7.328125 8.296875 
Q 12.9375 14.109375 22.625 23.890625 
Q 32.328125 33.6875 34.8125 36.53125 
Q 39.546875 41.84375 41.421875 45.53125 
Q 43.3125 49.21875 43.3125 52.78125 
Q 43.3125 58.59375 39.234375 62.25 
Q 35.15625 65.921875 28.609375 65.921875 
Q 23.96875 65.921875 18.8125 64.3125 
Q 13.671875 62.703125 7.8125 59.421875 
L 7.8125 69.390625 
Q 13.765625 71.78125 18.9375 73 
Q 24.125 74.21875 28.421875 74.21875 
Q 39.75 74.21875 46.484375 68.546875 
Q 53.21875 62.890625 53.21875 53.421875 
Q 53.21875 48.921875 51.53125 44.890625 
Q 49.859375 40.875 45.40625 35.40625 
Q 44.1875 33.984375 37.640625 27.21875 
Q 31.109375 20.453125 19.1875 8.296875 
z
" id="DejaVuSans-50"/>
       </defs>
       <use xlink:href="#DejaVuSans-48"/>
       <use x="63.623047" xlink:href="#DejaVuSans-46"/>
       <use x="95.410156" xlink:href="#DejaVuSans-48"/>
       <use x="159.033203" xlink:href="#DejaVuSans-50"/>
      </g>
     </g>
    </g>
    <g id="xtick_3">
     <g id="line2d_3">
      <g>
       <use style="stroke:#000000;stroke-width:0.8;" x="249.123963" xlink:href="#m2614056908" y="512.64"/>
      </g>
     </g>
     <g id="text_3">
      <!-- 0.04 -->
      <g transform="translate(237.991151 527.238438)scale(0.1 -0.1)">
       <defs>
        <path d="M 37.796875 64.3125 
L 12.890625 25.390625 
L 37.796875 25.390625 
z
M 35.203125 72.90625 
L 47.609375 72.90625 
L 47.609375 25.390625 
L 58.015625 25.390625 
L 58.015625 17.1875 
L 47.609375 17.1875 
L 47.609375 0 
L 37.796875 0 
L 37.796875 17.1875 
L 4.890625 17.1875 
L 4.890625 26.703125 
z
" id="DejaVuSans-52"/>
       </defs>
       <use xlink:href="#DejaVuSans-48"/>
       <use x="63.623047" xlink:href="#DejaVuSans-46"/>
       <use x="95.410156" xlink:href="#DejaVuSans-48"/>
       <use x="159.033203" xlink:href="#DejaVuSans-52"/>
      </g>
     </g>
    </g>
    <g id="xtick_4">
     <g id="line2d_4">
      <g>
       <use style="stroke:#000000;stroke-width:0.8;" x="325.923562" xlink:href="#m2614056908" y="512.64"/>
      </g>
     </g>
     <g id="text_4">
      <!-- 0.06 -->
      <g transform="translate(314.790749 527.238438)scale(0.1 -0.1)">
       <defs>
        <path d="M 33.015625 40.375 
Q 26.375 40.375 22.484375 35.828125 
Q 18.609375 31.296875 18.609375 23.390625 
Q 18.609375 15.53125 22.484375 10.953125 
Q 26.375 6.390625 33.015625 6.390625 
Q 39.65625 6.390625 43.53125 10.953125 
Q 47.40625 15.53125 47.40625 23.390625 
Q 47.40625 31.296875 43.53125 35.828125 
Q 39.65625 40.375 33.015625 40.375 
z
M 52.59375 71.296875 
L 52.59375 62.3125 
Q 48.875 64.0625 45.09375 64.984375 
Q 41.3125 65.921875 37.59375 65.921875 
Q 27.828125 65.921875 22.671875 59.328125 
Q 17.53125 52.734375 16.796875 39.40625 
Q 19.671875 43.65625 24.015625 45.921875 
Q 28.375 48.1875 33.59375 48.1875 
Q 44.578125 48.1875 50.953125 41.515625 
Q 57.328125 34.859375 57.328125 23.390625 
Q 57.328125 12.15625 50.6875 5.359375 
Q 44.046875 -1.421875 33.015625 -1.421875 
Q 20.359375 -1.421875 13.671875 8.265625 
Q 6.984375 17.96875 6.984375 36.375 
Q 6.984375 53.65625 15.1875 63.9375 
Q 23.390625 74.21875 37.203125 74.21875 
Q 40.921875 74.21875 44.703125 73.484375 
Q 48.484375 72.75 52.59375 71.296875 
z
" id="DejaVuSans-54"/>
       </defs>
       <use xlink:href="#DejaVuSans-48"/>
       <use x="63.623047" xlink:href="#DejaVuSans-46"/>
       <use x="95.410156" xlink:href="#DejaVuSans-48"/>
       <use x="159.033203" xlink:href="#DejaVuSans-54"/>
      </g>
     </g>
    </g>
    <g id="xtick_5">
     <g id="line2d_5">
      <g>
       <use style="stroke:#000000;stroke-width:0.8;" x="402.72316" xlink:href="#m2614056908" y="512.64"/>
      </g>
     </g>
     <g id="text_5">
      <!-- 0.08 -->
      <g transform="translate(391.590348 527.238438)scale(0.1 -0.1)">
       <defs>
        <path d="M 31.78125 34.625 
Q 24.75 34.625 20.71875 30.859375 
Q 16.703125 27.09375 16.703125 20.515625 
Q 16.703125 13.921875 20.71875 10.15625 
Q 24.75 6.390625 31.78125 6.390625 
Q 38.8125 6.390625 42.859375 10.171875 
Q 46.921875 13.96875 46.921875 20.515625 
Q 46.921875 27.09375 42.890625 30.859375 
Q 38.875 34.625 31.78125 34.625 
z
M 21.921875 38.8125 
Q 15.578125 40.375 12.03125 44.71875 
Q 8.5 49.078125 8.5 55.328125 
Q 8.5 64.0625 14.71875 69.140625 
Q 20.953125 74.21875 31.78125 74.21875 
Q 42.671875 74.21875 48.875 69.140625 
Q 55.078125 64.0625 55.078125 55.328125 
Q 55.078125 49.078125 51.53125 44.71875 
Q 48 40.375 41.703125 38.8125 
Q 48.828125 37.15625 52.796875 32.3125 
Q 56.78125 27.484375 56.78125 20.515625 
Q 56.78125 9.90625 50.3125 4.234375 
Q 43.84375 -1.421875 31.78125 -1.421875 
Q 19.734375 -1.421875 13.25 4.234375 
Q 6.78125 9.90625 6.78125 20.515625 
Q 6.78125 27.484375 10.78125 32.3125 
Q 14.796875 37.15625 21.921875 38.8125 
z
M 18.3125 54.390625 
Q 18.3125 48.734375 21.84375 45.5625 
Q 25.390625 42.390625 31.78125 42.390625 
Q 38.140625 42.390625 41.71875 45.5625 
Q 45.3125 48.734375 45.3125 54.390625 
Q 45.3125 60.0625 41.71875 63.234375 
Q 38.140625 66.40625 31.78125 66.40625 
Q 25.390625 66.40625 21.84375 63.234375 
Q 18.3125 60.0625 18.3125 54.390625 
z
" id="DejaVuSans-56"/>
       </defs>
       <use xlink:href="#DejaVuSans-48"/>
       <use x="63.623047" xlink:href="#DejaVuSans-46"/>
       <use x="95.410156" xlink:href="#DejaVuSans-48"/>
       <use x="159.033203" xlink:href="#DejaVuSans-56"/>
      </g>
     </g>
    </g>
    <g id="xtick_6">
     <g id="line2d_6">
      <g>
       <use style="stroke:#000000;stroke-width:0.8;" x="479.522758" xlink:href="#m2614056908" y="512.64"/>
      </g>
     </g>
     <g id="text_6">
      <!-- 0.10 -->
      <g transform="translate(468.389946 527.238438)scale(0.1 -0.1)">
       <defs>
        <path d="M 12.40625 8.296875 
L 28.515625 8.296875 
L 28.515625 63.921875 
L 10.984375 60.40625 
L 10.984375 69.390625 
L 28.421875 72.90625 
L 38.28125 72.90625 
L 38.28125 8.296875 
L 54.390625 8.296875 
L 54.390625 0 
L 12.40625 0 
z
" id="DejaVuSans-49"/>
       </defs>
       <use xlink:href="#DejaVuSans-48"/>
       <use x="63.623047" xlink:href="#DejaVuSans-46"/>
       <use x="95.410156" xlink:href="#DejaVuSans-49"/>
       <use x="159.033203" xlink:href="#DejaVuSans-48"/>
      </g>
     </g>
    </g>
    <g id="xtick_7">
     <g id="line2d_7">
      <g>
       <use style="stroke:#000000;stroke-width:0.8;" x="556.322357" xlink:href="#m2614056908" y="512.64"/>
      </g>
     </g>
     <g id="text_7">
      <!-- 0.12 -->
      <g transform="translate(545.189544 527.238438)scale(0.1 -0.1)">
       <use xlink:href="#DejaVuSans-48"/>
       <use x="63.623047" xlink:href="#DejaVuSans-46"/>
       <use x="95.410156" xlink:href="#DejaVuSans-49"/>
       <use x="159.033203" xlink:href="#DejaVuSans-50"/>
      </g>
     </g>
    </g>
    <g id="xtick_8">
     <g id="line2d_8">
      <g>
       <use style="stroke:#000000;stroke-width:0.8;" x="633.121955" xlink:href="#m2614056908" y="512.64"/>
      </g>
     </g>
     <g id="text_8">
      <!-- 0.14 -->
      <g transform="translate(621.989143 527.238438)scale(0.1 -0.1)">
       <use xlink:href="#DejaVuSans-48"/>
       <use x="63.623047" xlink:href="#DejaVuSans-46"/>
       <use x="95.410156" xlink:href="#DejaVuSans-49"/>
       <use x="159.033203" xlink:href="#DejaVuSans-52"/>
      </g>
     </g>
    </g>
   </g>
   <g id="matplotlib.axis_2">
    <g id="ytick_1">
     <g id="line2d_9">
      <defs>
       <path d="M 0 0 
L -3.5 0 
" id="m0ee4a0d839" style="stroke:#000000;stroke-width:0.8;"/>
      </defs>
      <g>
       <use style="stroke:#000000;stroke-width:0.8;" x="90" xlink:href="#m0ee4a0d839" y="480.322085"/>
      </g>
     </g>
     <g id="text_9">
      <!-- −0.04 -->
      <g transform="translate(52.354687 484.121304)scale(0.1 -0.1)">
       <defs>
        <path d="M 10.59375 35.5 
L 73.1875 35.5 
L 73.1875 27.203125 
L 10.59375 27.203125 
z
" id="DejaVuSans-8722"/>
       </defs>
       <use xlink:href="#DejaVuSans-8722"/>
       <use x="83.789062" xlink:href="#DejaVuSans-48"/>
       <use x="147.412109" xlink:href="#DejaVuSans-46"/>
       <use x="179.199219" xlink:href="#DejaVuSans-48"/>
       <use x="242.822266" xlink:href="#DejaVuSans-52"/>
      </g>
     </g>
    </g>
    <g id="ytick_2">
     <g id="line2d_10">
      <g>
       <use style="stroke:#000000;stroke-width:0.8;" x="90" xlink:href="#m0ee4a0d839" y="403.522487"/>
      </g>
     </g>
     <g id="text_10">
      <!-- −0.02 -->
      <g transform="translate(52.354687 407.321706)scale(0.1 -0.1)">
       <use xlink:href="#DejaVuSans-8722"/>
       <use x="83.789062" xlink:href="#DejaVuSans-48"/>
       <use x="147.412109" xlink:href="#DejaVuSans-46"/>
       <use x="179.199219" xlink:href="#DejaVuSans-48"/>
       <use x="242.822266" xlink:href="#DejaVuSans-50"/>
      </g>
     </g>
    </g>
    <g id="ytick_3">
     <g id="line2d_11">
      <g>
       <use style="stroke:#000000;stroke-width:0.8;" x="90" xlink:href="#m0ee4a0d839" y="326.722888"/>
      </g>
     </g>
     <g id="text_11">
      <!-- 0.00 -->
      <g transform="translate(60.734375 330.522107)scale(0.1 -0.1)">
       <use xlink:href="#DejaVuSans-48"/>
       <use x="63.623047" xlink:href="#DejaVuSans-46"/>
       <use x="95.410156" xlink:href="#DejaVuSans-48"/>
       <use x="159.033203" xlink:href="#DejaVuSans-48"/>
      </g>
     </g>
    </g>
    <g id="ytick_4">
     <g id="line2d_12">
      <g>
       <use style="stroke:#000000;stroke-width:0.8;" x="90" xlink:href="#m0ee4a0d839" y="249.92329"/>
      </g>
     </g>
     <g id="text_12">
      <!-- 0.02 -->
      <g transform="translate(60.734375 253.722509)scale(0.1 -0.1)">
       <use xlink:href="#DejaVuSans-48"/>
       <use x="63.623047" xlink:href="#DejaVuSans-46"/>
       <use x="95.410156" xlink:href="#DejaVuSans-48"/>
       <use x="159.033203" xlink:href="#DejaVuSans-50"/>
      </g>
     </g>
    </g>
    <g id="ytick_5">
     <g id="line2d_13">
      <g>
       <use style="stroke:#000000;stroke-width:0.8;" x="90" xlink:href="#m0ee4a0d839" y="173.123692"/>
      </g>
     </g>
     <g id="text_13">
      <!-- 0.04 -->
      <g transform="translate(60.734375 176.92291)scale(0.1 -0.1)">
       <use xlink:href="#DejaVuSans-48"/>
       <use x="63.623047" xlink:href="#DejaVuSans-46"/>
       <use x="95.410156" xlink:href="#DejaVuSans-48"/>
       <use x="159.033203" xlink:href="#DejaVuSans-52"/>
      </g>
     </g>
    </g>
    <g id="ytick_6">
     <g id="line2d_14">
      <g>
       <use style="stroke:#000000;stroke-width:0.8;" x="90" xlink:href="#m0ee4a0d839" y="96.324093"/>
      </g>
     </g>
     <g id="text_14">
      <!-- 0.06 -->
      <g transform="translate(60.734375 100.123312)scale(0.1 -0.1)">
       <use xlink:href="#DejaVuSans-48"/>
       <use x="63.623047" xlink:href="#DejaVuSans-46"/>
       <use x="95.410156" xlink:href="#DejaVuSans-48"/>
       <use x="159.033203" xlink:href="#DejaVuSans-54"/>
      </g>
     </g>
    </g>
   </g>
   <g id="line2d_15">
    <path clip-path="url(#p02f5659d4c)" d="M 721 62.112569 
L 700.13368 65.857391 
L 673.035377 70.935643 
L 646.495734 76.155111 
L 620.520787 81.511639 
L 595.116006 87.000028 
L 570.286377 92.614198 
L 546.037573 98.349449 
L 522.375563 104.201729 
L 499.305556 110.165633 
L 476.832025 116.234448 
L 454.959855 122.401566 
L 433.694855 128.661136 
L 413.041921 135.005921 
L 393.004922 141.427196 
L 373.587176 147.915627 
L 354.793986 154.465916 
L 336.630504 161.0729 
L 319.100358 167.729034 
L 302.205746 174.424576 
L 285.94941 181.14915 
L 270.338696 187.894823 
L 255.379552 194.651856 
L 241.075218 201.407865 
L 227.426475 208.148136 
L 214.435169 214.862861 
L 202.108461 221.555959 
L 193.302112 226.561447 
L 184.871975 231.551603 
L 176.816893 236.521494 
L 169.134874 241.464354 
L 161.830843 246.371019 
L 154.915798 251.230213 
L 148.396704 256.029779 
L 142.276386 260.75689 
L 136.553987 265.398186 
L 131.22562 269.941289 
L 126.287884 274.397455 
L 121.73674 278.790406 
L 117.564517 283.131713 
L 113.760405 287.421741 
L 110.311845 291.650965 
L 107.232189 295.78678 
L 104.55486 299.778563 
L 102.290979 303.582651 
L 100.431275 307.162926 
L 98.950663 310.48983 
L 97.812468 313.539446 
L 96.750108 317.141831 
L 96.10157 320.183338 
L 95.696791 323.160109 
L 95.527323 326.260368 
L 95.584223 328.738261 
L 95.830912 331.304388 
L 96.312423 334.014503 
L 96.935111 336.401301 
L 97.858905 339.056787 
L 99.159159 341.933136 
L 100.273883 343.941164 
L 101.611333 345.993623 
L 103.189174 348.061848 
L 105.022727 350.11186 
L 107.124275 352.104088 
L 109.498786 354.008872 
L 112.140474 355.818072 
L 115.035233 357.530218 
L 118.159826 359.150019 
L 121.485042 360.687052 
L 125.000908 362.143398 
L 130.628021 364.178444 
L 136.667063 366.0505 
L 143.095502 367.797555 
L 149.892277 369.455177 
L 157.05428 371.021655 
L 167.167992 372.964178 
L 177.917673 374.746782 
L 189.288378 376.392368 
L 201.270475 377.912112 
L 213.861187 379.301912 
L 227.056792 380.563469 
L 244.394053 381.97474 
L 262.655764 383.233573 
L 281.833153 384.352811 
L 301.920816 385.328243 
L 327.218932 386.311049 
L 353.806941 387.102926 
L 381.672859 387.714332 
L 410.805741 388.143177 
L 446.379767 388.417231 
L 483.642632 388.460295 
L 522.575105 388.278218 
L 563.157463 387.879896 
L 611.531147 387.175915 
L 662.001415 386.211153 
L 714.535543 384.99249 
L 721 384.828824 
L 721 384.828824 
" style="fill:none;stroke:#008000;stroke-dasharray:5.55,2.4;stroke-dashoffset:0;stroke-width:1.5;"/>
   </g>
   <g id="line2d_16">
    <path clip-path="url(#p02f5659d4c)" d="M 721 65.503806 
L 695.427331 69.279503 
L 668.20238 73.530293 
L 641.530402 77.933944 
L 615.416914 82.485416 
L 589.86812 87.181329 
L 564.889821 92.017529 
L 540.487226 96.988672 
L 516.665487 102.08928 
L 493.430742 107.315789 
L 470.788641 112.663708 
L 448.744024 118.127028 
L 427.301673 123.699649 
L 406.468245 129.379059 
L 386.249841 135.161773 
L 366.651328 141.042077 
L 347.677285 147.01355 
L 329.335108 153.073941 
L 311.631504 159.219764 
L 294.571246 165.44441 
L 278.15863 171.740166 
L 266.279876 176.507947 
L 254.774694 181.31439 
L 243.645841 186.157145 
L 232.895049 191.032431 
L 222.523809 195.935915 
L 212.537717 200.867454 
L 202.942757 205.827102 
L 193.742839 210.81249 
L 184.939949 215.819017 
L 176.534556 220.840238 
L 168.532495 225.872959 
L 160.944367 230.916889 
L 153.776843 235.968394 
L 147.032577 241.020528 
L 140.710631 246.063411 
L 134.812561 251.086995 
L 129.352027 256.085308 
L 124.337516 261.049364 
L 119.7696 265.966199 
L 115.641997 270.819489 
L 111.943751 275.589853 
L 108.675102 280.251744 
L 105.838013 284.776553 
L 103.422173 289.136791 
L 101.406937 293.306297 
L 99.763554 297.260334 
L 98.457211 300.97561 
L 97.44771 304.425873 
L 96.488099 308.565627 
L 95.877912 312.135629 
L 95.465215 315.752421 
L 95.258559 319.521864 
L 95.280111 323.119693 
L 95.489664 326.359619 
L 95.964213 330.09646 
L 96.666885 333.739717 
L 97.448663 336.833591 
L 98.498879 340.216017 
L 99.863054 343.860848 
L 101.58565 347.734005 
L 103.708526 351.791987 
L 105.36491 354.574304 
L 107.225339 357.403568 
L 109.297449 360.270311 
L 111.587009 363.165214 
L 114.09763 366.079159 
L 116.830467 369.003311 
L 119.783906 371.929192 
L 122.953243 374.848767 
L 126.330901 377.754548 
L 129.913969 380.64002 
L 133.703773 383.499729 
L 139.776335 387.731393 
L 146.309586 391.884447 
L 153.291207 395.954264 
L 160.701736 399.942231 
L 168.531113 403.844546 
L 176.777126 407.653509 
L 185.43467 411.365145 
L 194.495191 414.979813 
L 203.946767 418.502227 
L 213.781813 421.933287 
L 223.997899 425.26931 
L 234.591431 428.508921 
L 245.557287 431.653559 
L 256.888762 434.707609 
L 268.580471 437.673641 
L 280.630112 440.549533 
L 293.034983 443.334284 
L 310.121344 446.907022 
L 327.823043 450.325405 
L 346.132613 453.591139 
L 365.044781 456.702246 
L 384.553151 459.660126 
L 404.650251 462.469431 
L 425.330082 465.131317 
L 446.587645 467.644773 
L 468.417277 470.011147 
L 490.812717 472.233962 
L 513.768559 474.314334 
L 537.279885 476.252166 
L 561.341364 478.049101 
L 592.183244 480.101801 
L 623.865851 481.941279 
L 656.379376 483.569114 
L 689.713382 484.989879 
L 721 486.112915 
L 721 486.112915 
" style="fill:none;stroke:#0000ff;stroke-dasharray:5.55,2.4;stroke-dashoffset:0;stroke-width:1.5;"/>
   </g>
   <g id="line2d_17">
    <path clip-path="url(#p02f5659d4c)" d="M 721 64.803268 
L 696.111552 68.636374 
L 668.909129 73.054714 
L 642.260884 77.623715 
L 616.172912 82.339656 
L 590.650779 87.197749 
L 565.699599 92.192313 
L 541.325145 97.319008 
L 517.533441 102.574037 
L 494.329795 107.952239 
L 471.718827 113.447158 
L 449.705845 119.053526 
L 428.297356 124.768206 
L 407.498938 130.586405 
L 387.315096 136.501459 
L 367.74992 142.505965 
L 348.810355 148.59737 
L 330.503295 154.773067 
L 312.833847 161.027481 
L 295.805446 167.352299 
L 279.422468 173.739644 
L 267.564948 178.570273 
L 256.079978 183.433702 
L 244.970191 188.326977 
L 234.237221 193.245852 
L 223.881767 198.184893 
L 213.904956 203.139204 
L 204.313637 208.111106 
L 195.114688 213.10299 
L 186.312591 218.114272 
L 177.909622 223.141652 
L 169.906052 228.179376 
L 162.300756 233.219616 
L 155.10078 238.255587 
L 148.319034 243.28103 
L 141.96321 248.286991 
L 136.03585 253.262022 
L 130.534938 258.192526 
L 125.455626 263.064196 
L 120.805043 267.875836 
L 116.593473 272.630827 
L 112.821296 277.32459 
L 109.480166 281.94553 
L 106.55492 286.475502 
L 104.034833 290.875262 
L 101.910094 295.093199 
L 100.160196 299.086716 
L 98.755896 302.821871 
L 97.66163 306.272103 
L 96.615993 310.394797 
L 95.9519 313.940931 
L 95.509873 317.529922 
L 95.313311 320.939676 
L 95.348001 324.438406 
L 95.571725 327.423085 
L 96.069118 330.938079 
L 96.806109 334.392057 
L 97.629759 337.330962 
L 98.741979 340.539974 
L 100.195286 343.985783 
L 102.042439 347.626653 
L 103.517978 350.137001 
L 105.202279 352.697266 
L 107.101772 355.295876 
L 109.21973 357.921039 
L 111.555833 360.560715 
L 114.107917 363.203569 
L 116.877567 365.841461 
L 119.865425 368.467839 
L 123.069585 371.077379 
L 128.270179 374.951964 
L 133.920091 378.772394 
L 140.01014 382.526449 
L 146.540571 386.200874 
L 153.506465 389.787588 
L 160.896903 393.284533 
L 168.694323 396.696398 
L 176.883848 400.026549 
L 185.464081 403.267664 
L 194.433691 406.413765 
L 203.789541 409.462066 
L 213.526504 412.413317 
L 223.637278 415.272164 
L 234.112247 418.04744 
L 248.633007 421.626937 
L 263.783801 425.060794 
L 279.56072 428.343104 
L 295.95803 431.473023 
L 312.967995 434.455305 
L 330.580926 437.30028 
L 348.789624 440.012044 
L 367.590155 442.586497 
L 386.978006 445.021687 
L 406.947865 447.318489 
L 427.49357 449.480833 
L 448.608723 451.513743 
L 470.288747 453.416598 
L 498.176422 455.611141 
L 526.930418 457.60356 
L 556.540376 459.400459 
L 586.996582 461.005364 
L 618.290114 462.418109 
L 650.411521 463.641219 
L 683.350882 464.679621 
L 721 465.620791 
L 721 465.620791 
" style="fill:none;stroke:#00bfbf;stroke-dasharray:5.55,2.4;stroke-dashoffset:0;stroke-width:1.5;"/>
   </g>
   <g id="line2d_18">
    <defs>
     <path d="M 0 3 
C 0.795609 3 1.55874 2.683901 2.12132 2.12132 
C 2.683901 1.55874 3 0.795609 3 0 
C 3 -0.795609 2.683901 -1.55874 2.12132 -2.12132 
C 1.55874 -2.683901 0.795609 -3 0 -3 
C -0.795609 -3 -1.55874 -2.683901 -2.12132 -2.12132 
C -2.683901 -1.55874 -3 -0.795609 -3 0 
C -3 0.795609 -2.683901 1.55874 -2.12132 2.12132 
C -1.55874 2.683901 -0.795609 3 0 3 
z
" id="m6ffa00b053" style="stroke:#ff0000;"/>
    </defs>
    <g clip-path="url(#p02f5659d4c)">
     <use style="fill:#ff0000;stroke:#ff0000;" x="3935.761199" xlink:href="#m6ffa00b053" y="322.093409"/>
     <use style="fill:#ff0000;stroke:#ff0000;" x="3894.291336" xlink:href="#m6ffa00b053" y="313.666957"/>
     <use style="fill:#ff0000;stroke:#ff0000;" x="3843.182355" xlink:href="#m6ffa00b053" y="303.441474"/>
     <use style="fill:#ff0000;stroke:#ff0000;" x="3772.763651" xlink:href="#m6ffa00b053" y="289.573003"/>
     <use style="fill:#ff0000;stroke:#ff0000;" x="3673.529354" xlink:href="#m6ffa00b053" y="270.442223"/>
     <use style="fill:#ff0000;stroke:#ff0000;" x="3558.358757" xlink:href="#m6ffa00b053" y="248.824288"/>
     <use style="fill:#ff0000;stroke:#ff0000;" x="3439.57973" xlink:href="#m6ffa00b053" y="227.235537"/>
     <use style="fill:#ff0000;stroke:#ff0000;" x="3320.741567" xlink:href="#m6ffa00b053" y="206.40211"/>
     <use style="fill:#ff0000;stroke:#ff0000;" x="3202.451369" xlink:href="#m6ffa00b053" y="186.478374"/>
     <use style="fill:#ff0000;stroke:#ff0000;" x="3084.780945" xlink:href="#m6ffa00b053" y="167.510409"/>
     <use style="fill:#ff0000;stroke:#ff0000;" x="2967.745269" xlink:href="#m6ffa00b053" y="149.515879"/>
     <use style="fill:#ff0000;stroke:#ff0000;" x="2851.382357" xlink:href="#m6ffa00b053" y="132.555072"/>
     <use style="fill:#ff0000;stroke:#ff0000;" x="2735.741362" xlink:href="#m6ffa00b053" y="116.672531"/>
     <use style="fill:#ff0000;stroke:#ff0000;" x="2620.729355" xlink:href="#m6ffa00b053" y="101.865952"/>
     <use style="fill:#ff0000;stroke:#ff0000;" x="2506.124002" xlink:href="#m6ffa00b053" y="88.137256"/>
     <use style="fill:#ff0000;stroke:#ff0000;" x="2391.578169" xlink:href="#m6ffa00b053" y="75.48913"/>
     <use style="fill:#ff0000;stroke:#ff0000;" x="2276.905233" xlink:href="#m6ffa00b053" y="63.927335"/>
     <use style="fill:#ff0000;stroke:#ff0000;" x="2161.981162" xlink:href="#m6ffa00b053" y="53.456477"/>
     <use style="fill:#ff0000;stroke:#ff0000;" x="2046.819012" xlink:href="#m6ffa00b053" y="44.139534"/>
     <use style="fill:#ff0000;stroke:#ff0000;" x="1931.486751" xlink:href="#m6ffa00b053" y="36.042168"/>
     <use style="fill:#ff0000;stroke:#ff0000;" x="1816.07961" xlink:href="#m6ffa00b053" y="29.252316"/>
     <use style="fill:#ff0000;stroke:#ff0000;" x="1700.773845" xlink:href="#m6ffa00b053" y="23.85676"/>
     <use style="fill:#ff0000;stroke:#ff0000;" x="1585.624367" xlink:href="#m6ffa00b053" y="20.0091"/>
     <use style="fill:#ff0000;stroke:#ff0000;" x="1470.673032" xlink:href="#m6ffa00b053" y="18.063382"/>
     <use style="fill:#ff0000;stroke:#ff0000;" x="1356.050783" xlink:href="#m6ffa00b053" y="18.19855"/>
     <use style="fill:#ff0000;stroke:#ff0000;" x="1241.885876" xlink:href="#m6ffa00b053" y="20.524041"/>
     <use style="fill:#ff0000;stroke:#ff0000;" x="1128.310022" xlink:href="#m6ffa00b053" y="25.172721"/>
     <use style="fill:#ff0000;stroke:#ff0000;" x="1015.520596" xlink:href="#m6ffa00b053" y="32.29742"/>
     <use style="fill:#ff0000;stroke:#ff0000;" x="903.858972" xlink:href="#m6ffa00b053" y="42.066329"/>
     <use style="fill:#ff0000;stroke:#ff0000;" x="793.69878" xlink:href="#m6ffa00b053" y="54.668375"/>
     <use style="fill:#ff0000;stroke:#ff0000;" x="685.591441" xlink:href="#m6ffa00b053" y="70.316677"/>
     <use style="fill:#ff0000;stroke:#ff0000;" x="580.361015" xlink:href="#m6ffa00b053" y="89.227426"/>
     <use style="fill:#ff0000;stroke:#ff0000;" x="479.19636" xlink:href="#m6ffa00b053" y="111.601453"/>
     <use style="fill:#ff0000;stroke:#ff0000;" x="383.777083" xlink:href="#m6ffa00b053" y="137.567013"/>
     <use style="fill:#ff0000;stroke:#ff0000;" x="296.960129" xlink:href="#m6ffa00b053" y="166.913676"/>
     <use style="fill:#ff0000;stroke:#ff0000;" x="222.837381" xlink:href="#m6ffa00b053" y="198.694118"/>
     <use style="fill:#ff0000;stroke:#ff0000;" x="165.969198" xlink:href="#m6ffa00b053" y="230.755646"/>
     <use style="fill:#ff0000;stroke:#ff0000;" x="128.49637" xlink:href="#m6ffa00b053" y="260.106917"/>
     <use style="fill:#ff0000;stroke:#ff0000;" x="107.927517" xlink:href="#m6ffa00b053" y="284.28343"/>
     <use style="fill:#ff0000;stroke:#ff0000;" x="95.297823" xlink:href="#m6ffa00b053" y="322.075745"/>
     <use style="fill:#ff0000;stroke:#ff0000;" x="95.610398" xlink:href="#m6ffa00b053" y="327.775811"/>
     <use style="fill:#ff0000;stroke:#ff0000;" x="97.91093" xlink:href="#m6ffa00b053" y="338.204428"/>
     <use style="fill:#ff0000;stroke:#ff0000;" x="102.582649" xlink:href="#m6ffa00b053" y="348.577366"/>
     <use style="fill:#ff0000;stroke:#ff0000;" x="111.372747" xlink:href="#m6ffa00b053" y="360.359577"/>
     <use style="fill:#ff0000;stroke:#ff0000;" x="129.641452" xlink:href="#m6ffa00b053" y="375.910727"/>
     <use style="fill:#ff0000;stroke:#ff0000;" x="166.473387" xlink:href="#m6ffa00b053" y="395.748832"/>
     <use style="fill:#ff0000;stroke:#ff0000;" x="231.094873" xlink:href="#m6ffa00b053" y="417.264623"/>
     <use style="fill:#ff0000;stroke:#ff0000;" x="321.419265" xlink:href="#m6ffa00b053" y="435.848206"/>
     <use style="fill:#ff0000;stroke:#ff0000;" x="427.281752" xlink:href="#m6ffa00b053" y="449.459015"/>
     <use style="fill:#ff0000;stroke:#ff0000;" x="540.576135" xlink:href="#m6ffa00b053" y="458.461464"/>
     <use style="fill:#ff0000;stroke:#ff0000;" x="657.376037" xlink:href="#m6ffa00b053" y="463.878139"/>
     <use style="fill:#ff0000;stroke:#ff0000;" x="775.926201" xlink:href="#m6ffa00b053" y="466.574189"/>
     <use style="fill:#ff0000;stroke:#ff0000;" x="895.497416" xlink:href="#m6ffa00b053" y="467.195498"/>
     <use style="fill:#ff0000;stroke:#ff0000;" x="1015.764051" xlink:href="#m6ffa00b053" y="466.222831"/>
     <use style="fill:#ff0000;stroke:#ff0000;" x="1136.550235" xlink:href="#m6ffa00b053" y="464.029051"/>
     <use style="fill:#ff0000;stroke:#ff0000;" x="1257.755361" xlink:href="#m6ffa00b053" y="460.901771"/>
     <use style="fill:#ff0000;stroke:#ff0000;" x="1379.328742" xlink:href="#m6ffa00b053" y="457.083679"/>
     <use style="fill:#ff0000;stroke:#ff0000;" x="1501.130601" xlink:href="#m6ffa00b053" y="452.777525"/>
     <use style="fill:#ff0000;stroke:#ff0000;" x="1622.780397" xlink:href="#m6ffa00b053" y="448.169165"/>
     <use style="fill:#ff0000;stroke:#ff0000;" x="1744.234354" xlink:href="#m6ffa00b053" y="443.241319"/>
     <use style="fill:#ff0000;stroke:#ff0000;" x="1865.52972" xlink:href="#m6ffa00b053" y="437.844611"/>
     <use style="fill:#ff0000;stroke:#ff0000;" x="1986.682622" xlink:href="#m6ffa00b053" y="432.074658"/>
     <use style="fill:#ff0000;stroke:#ff0000;" x="2107.693829" xlink:href="#m6ffa00b053" y="426.008257"/>
     <use style="fill:#ff0000;stroke:#ff0000;" x="2228.553742" xlink:href="#m6ffa00b053" y="419.722594"/>
     <use style="fill:#ff0000;stroke:#ff0000;" x="2349.260438" xlink:href="#m6ffa00b053" y="413.2841"/>
     <use style="fill:#ff0000;stroke:#ff0000;" x="2469.777056" xlink:href="#m6ffa00b053" y="406.747302"/>
     <use style="fill:#ff0000;stroke:#ff0000;" x="2590.078635" xlink:href="#m6ffa00b053" y="400.169032"/>
     <use style="fill:#ff0000;stroke:#ff0000;" x="2710.147895" xlink:href="#m6ffa00b053" y="393.589227"/>
     <use style="fill:#ff0000;stroke:#ff0000;" x="2829.990213" xlink:href="#m6ffa00b053" y="387.049741"/>
     <use style="fill:#ff0000;stroke:#ff0000;" x="2949.628627" xlink:href="#m6ffa00b053" y="380.583215"/>
     <use style="fill:#ff0000;stroke:#ff0000;" x="3069.096547" xlink:href="#m6ffa00b053" y="374.207696"/>
     <use style="fill:#ff0000;stroke:#ff0000;" x="3188.360179" xlink:href="#m6ffa00b053" y="367.936625"/>
     <use style="fill:#ff0000;stroke:#ff0000;" x="3307.334661" xlink:href="#m6ffa00b053" y="361.786513"/>
     <use style="fill:#ff0000;stroke:#ff0000;" x="3426.060696" xlink:href="#m6ffa00b053" y="355.776561"/>
     <use style="fill:#ff0000;stroke:#ff0000;" x="3545.149226" xlink:href="#m6ffa00b053" y="349.896783"/>
     <use style="fill:#ff0000;stroke:#ff0000;" x="3664.384058" xlink:href="#m6ffa00b053" y="344.148717"/>
     <use style="fill:#ff0000;stroke:#ff0000;" x="3767.506335" xlink:href="#m6ffa00b053" y="339.259271"/>
     <use style="fill:#ff0000;stroke:#ff0000;" x="3840.200995" xlink:href="#m6ffa00b053" y="335.851289"/>
     <use style="fill:#ff0000;stroke:#ff0000;" x="3892.695056" xlink:href="#m6ffa00b053" y="333.385254"/>
     <use style="fill:#ff0000;stroke:#ff0000;" x="3935.246642" xlink:href="#m6ffa00b053" y="331.352368"/>
    </g>
   </g>
   <g id="line2d_19">
    <defs>
     <path d="M 0 3 
C 0.795609 3 1.55874 2.683901 2.12132 2.12132 
C 2.683901 1.55874 3 0.795609 3 0 
C 3 -0.795609 2.683901 -1.55874 2.12132 -2.12132 
C 1.55874 -2.683901 0.795609 -3 0 -3 
C -0.795609 -3 -1.55874 -2.683901 -2.12132 -2.12132 
C -2.683901 -1.55874 -3 -0.795609 -3 0 
C -3 0.795609 -2.683901 1.55874 -2.12132 2.12132 
C -1.55874 2.683901 -0.795609 3 0 3 
z
" id="mfed74ef035" style="stroke:#008000;"/>
    </defs>
    <g clip-path="url(#p02f5659d4c)">
     <use style="fill:#008000;stroke:#008000;" x="3935.496625" xlink:href="#mfed74ef035" y="322.882909"/>
     <use style="fill:#008000;stroke:#008000;" x="3893.886218" xlink:href="#mfed74ef035" y="315.065861"/>
     <use style="fill:#008000;stroke:#008000;" x="3842.623638" xlink:href="#mfed74ef035" y="305.500087"/>
     <use style="fill:#008000;stroke:#008000;" x="3772.065927" xlink:href="#mfed74ef035" y="292.172285"/>
     <use style="fill:#008000;stroke:#008000;" x="3672.786318" xlink:href="#mfed74ef035" y="273.025761"/>
     <use style="fill:#008000;stroke:#008000;" x="3557.774312" xlink:href="#mfed74ef035" y="250.286168"/>
     <use style="fill:#008000;stroke:#008000;" x="3439.340115" xlink:href="#mfed74ef035" y="226.56354"/>
     <use style="fill:#008000;stroke:#008000;" x="3320.967358" xlink:href="#mfed74ef035" y="202.894288"/>
     <use style="fill:#008000;stroke:#008000;" x="3203.202085" xlink:href="#mfed74ef035" y="179.720009"/>
     <use style="fill:#008000;stroke:#008000;" x="3086.070794" xlink:href="#mfed74ef035" y="157.297598"/>
     <use style="fill:#008000;stroke:#008000;" x="2969.558891" xlink:href="#mfed74ef035" y="135.792175"/>
     <use style="fill:#008000;stroke:#008000;" x="2853.658697" xlink:href="#mfed74ef035" y="115.522841"/>
     <use style="fill:#008000;stroke:#008000;" x="2738.39402" xlink:href="#mfed74ef035" y="96.704251"/>
     <use style="fill:#008000;stroke:#008000;" x="2623.671548" xlink:href="#mfed74ef035" y="79.386326"/>
     <use style="fill:#008000;stroke:#008000;" x="2509.262418" xlink:href="#mfed74ef035" y="63.673512"/>
     <use style="fill:#008000;stroke:#008000;" x="2394.824104" xlink:href="#mfed74ef035" y="49.619569"/>
     <use style="fill:#008000;stroke:#008000;" x="2280.184192" xlink:href="#mfed74ef035" y="37.212978"/>
     <use style="fill:#008000;stroke:#008000;" x="2165.242073" xlink:href="#mfed74ef035" y="26.350443"/>
     <use style="fill:#008000;stroke:#008000;" x="2050.021555" xlink:href="#mfed74ef035" y="17.089563"/>
     <use style="fill:#008000;stroke:#008000;" x="1934.599438" xlink:href="#mfed74ef035" y="9.510595"/>
     <use style="fill:#008000;stroke:#008000;" x="1819.083242" xlink:href="#mfed74ef035" y="3.713377"/>
     <use style="fill:#008000;stroke:#008000;" x="1703.661126" xlink:href="#mfed74ef035" y="-0.194186"/>
     <use style="fill:#008000;stroke:#008000;" x="1654.869159" xlink:href="#mfed74ef035" y="-1"/>
     <use style="fill:#008000;stroke:#008000;" x="1430.545444" xlink:href="#mfed74ef035" y="-1"/>
     <use style="fill:#008000;stroke:#008000;" x="1358.724177" xlink:href="#mfed74ef035" y="0.510834"/>
     <use style="fill:#008000;stroke:#008000;" x="1244.574246" xlink:href="#mfed74ef035" y="5.241689"/>
     <use style="fill:#008000;stroke:#008000;" x="1131.06828" xlink:href="#mfed74ef035" y="12.383284"/>
     <use style="fill:#008000;stroke:#008000;" x="1018.409413" xlink:href="#mfed74ef035" y="22.058497"/>
     <use style="fill:#008000;stroke:#008000;" x="906.944012" xlink:href="#mfed74ef035" y="34.408641"/>
     <use style="fill:#008000;stroke:#008000;" x="797.052234" xlink:href="#mfed74ef035" y="49.606897"/>
     <use style="fill:#008000;stroke:#008000;" x="689.294334" xlink:href="#mfed74ef035" y="67.85909"/>
     <use style="fill:#008000;stroke:#008000;" x="584.504738" xlink:href="#mfed74ef035" y="89.368353"/>
     <use style="fill:#008000;stroke:#008000;" x="483.881136" xlink:href="#mfed74ef035" y="114.302495"/>
     <use style="fill:#008000;stroke:#008000;" x="389.101599" xlink:href="#mfed74ef035" y="142.709899"/>
     <use style="fill:#008000;stroke:#008000;" x="302.95357" xlink:href="#mfed74ef035" y="174.122086"/>
     <use style="fill:#008000;stroke:#008000;" x="229.341155" xlink:href="#mfed74ef035" y="207.184313"/>
     <use style="fill:#008000;stroke:#008000;" x="172.458764" xlink:href="#mfed74ef035" y="239.299986"/>
     <use style="fill:#008000;stroke:#008000;" x="134.061269" xlink:href="#mfed74ef035" y="267.494654"/>
     <use style="fill:#008000;stroke:#008000;" x="111.64385" xlink:href="#mfed74ef035" y="289.974281"/>
     <use style="fill:#008000;stroke:#008000;" x="95.524766" xlink:href="#mfed74ef035" y="326.722888"/>
     <use style="fill:#008000;stroke:#008000;" x="95.98902" xlink:href="#mfed74ef035" y="332.350763"/>
     <use style="fill:#008000;stroke:#008000;" x="99.387402" xlink:href="#mfed74ef035" y="342.371959"/>
     <use style="fill:#008000;stroke:#008000;" x="106.274406" xlink:href="#mfed74ef035" y="351.338696"/>
     <use style="fill:#008000;stroke:#008000;" x="118.670629" xlink:href="#mfed74ef035" y="359.397278"/>
     <use style="fill:#008000;stroke:#008000;" x="141.492014" xlink:href="#mfed74ef035" y="367.379828"/>
     <use style="fill:#008000;stroke:#008000;" x="182.734166" xlink:href="#mfed74ef035" y="375.469898"/>
     <use style="fill:#008000;stroke:#008000;" x="250.459508" xlink:href="#mfed74ef035" y="382.415269"/>
     <use style="fill:#008000;stroke:#008000;" x="342.239636" xlink:href="#mfed74ef035" y="386.785166"/>
     <use style="fill:#008000;stroke:#008000;" x="448.412777" xlink:href="#mfed74ef035" y="388.425606"/>
     <use style="fill:#008000;stroke:#008000;" x="561.395738" xlink:href="#mfed74ef035" y="387.901065"/>
     <use style="fill:#008000;stroke:#008000;" x="677.572027" xlink:href="#mfed74ef035" y="385.871251"/>
     <use style="fill:#008000;stroke:#008000;" x="795.344979" xlink:href="#mfed74ef035" y="382.753571"/>
     <use style="fill:#008000;stroke:#008000;" x="914.065254" xlink:href="#mfed74ef035" y="378.81644"/>
     <use style="fill:#008000;stroke:#008000;" x="1033.449078" xlink:href="#mfed74ef035" y="374.283728"/>
     <use style="fill:#008000;stroke:#008000;" x="1153.343619" xlink:href="#mfed74ef035" y="369.332074"/>
     <use style="fill:#008000;stroke:#008000;" x="1273.65979" xlink:href="#mfed74ef035" y="364.095493"/>
     <use style="fill:#008000;stroke:#008000;" x="1394.352279" xlink:href="#mfed74ef035" y="358.705313"/>
     <use style="fill:#008000;stroke:#008000;" x="1515.286687" xlink:href="#mfed74ef035" y="353.310525"/>
     <use style="fill:#008000;stroke:#008000;" x="1636.083239" xlink:href="#mfed74ef035" y="347.977561"/>
     <use style="fill:#008000;stroke:#008000;" x="1756.702769" xlink:href="#mfed74ef035" y="342.775541"/>
     <use style="fill:#008000;stroke:#008000;" x="1877.192123" xlink:href="#mfed74ef035" y="337.757839"/>
     <use style="fill:#008000;stroke:#008000;" x="1997.566661" xlink:href="#mfed74ef035" y="332.951336"/>
     <use style="fill:#008000;stroke:#008000;" x="2117.826384" xlink:href="#mfed74ef035" y="328.398656"/>
     <use style="fill:#008000;stroke:#008000;" x="2237.959388" xlink:href="#mfed74ef035" y="324.141654"/>
     <use style="fill:#008000;stroke:#008000;" x="2357.962217" xlink:href="#mfed74ef035" y="320.21873"/>
     <use style="fill:#008000;stroke:#008000;" x="2477.79647" xlink:href="#mfed74ef035" y="316.680189"/>
     <use style="fill:#008000;stroke:#008000;" x="2597.435269" xlink:href="#mfed74ef035" y="313.594765"/>
     <use style="fill:#008000;stroke:#008000;" x="2716.859796" xlink:href="#mfed74ef035" y="311.028123"/>
     <use style="fill:#008000;stroke:#008000;" x="2836.073509" xlink:href="#mfed74ef035" y="309.060517"/>
     <use style="fill:#008000;stroke:#008000;" x="2955.096375" xlink:href="#mfed74ef035" y="307.765292"/>
     <use style="fill:#008000;stroke:#008000;" x="3073.958345" xlink:href="#mfed74ef035" y="307.192367"/>
     <use style="fill:#008000;stroke:#008000;" x="3192.621405" xlink:href="#mfed74ef035" y="307.372078"/>
     <use style="fill:#008000;stroke:#008000;" x="3310.997618" xlink:href="#mfed74ef035" y="308.369704"/>
     <use style="fill:#008000;stroke:#008000;" x="3429.12116" xlink:href="#mfed74ef035" y="310.316574"/>
     <use style="fill:#008000;stroke:#008000;" x="3547.591453" xlink:href="#mfed74ef035" y="313.36859"/>
     <use style="fill:#008000;stroke:#008000;" x="3666.185777" xlink:href="#mfed74ef035" y="317.5534"/>
     <use style="fill:#008000;stroke:#008000;" x="3768.733209" xlink:href="#mfed74ef035" y="322.020065"/>
     <use style="fill:#008000;stroke:#008000;" x="3841.008927" xlink:href="#mfed74ef035" y="325.634638"/>
     <use style="fill:#008000;stroke:#008000;" x="3893.197326" xlink:href="#mfed74ef035" y="328.38368"/>
     <use style="fill:#008000;stroke:#008000;" x="3935.504689" xlink:href="#mfed74ef035" y="330.562868"/>
    </g>
   </g>
   <g id="line2d_20">
    <defs>
     <path d="M 0 3 
C 0.795609 3 1.55874 2.683901 2.12132 2.12132 
C 2.683901 1.55874 3 0.795609 3 0 
C 3 -0.795609 2.683901 -1.55874 2.12132 -2.12132 
C 1.55874 -2.683901 0.795609 -3 0 -3 
C -0.795609 -3 -1.55874 -2.683901 -2.12132 -2.12132 
C -2.683901 -1.55874 -3 -0.795609 -3 0 
C -3 0.795609 -2.683901 1.55874 -2.12132 2.12132 
C -1.55874 2.683901 -0.795609 3 0 3 
z
" id="mc0303c3189" style="stroke:#0000ff;"/>
    </defs>
    <g clip-path="url(#p02f5659d4c)">
     <use style="fill:#0000ff;stroke:#0000ff;" x="3935.827247" xlink:href="#mc0303c3189" y="321.896034"/>
     <use style="fill:#0000ff;stroke:#0000ff;" x="3894.392323" xlink:href="#mc0303c3189" y="313.317126"/>
     <use style="fill:#0000ff;stroke:#0000ff;" x="3843.321441" xlink:href="#mc0303c3189" y="302.926598"/>
     <use style="fill:#0000ff;stroke:#0000ff;" x="3772.93731" xlink:href="#mc0303c3189" y="288.922832"/>
     <use style="fill:#0000ff;stroke:#0000ff;" x="3673.713746" xlink:href="#mc0303c3189" y="269.796244"/>
     <use style="fill:#0000ff;stroke:#0000ff;" x="3558.502809" xlink:href="#mc0303c3189" y="248.458415"/>
     <use style="fill:#0000ff;stroke:#0000ff;" x="3439.636814" xlink:href="#mc0303c3189" y="227.402876"/>
     <use style="fill:#0000ff;stroke:#0000ff;" x="3320.68131" xlink:href="#mc0303c3189" y="207.278223"/>
     <use style="fill:#0000ff;stroke:#0000ff;" x="3202.259356" xlink:href="#mc0303c3189" y="188.167477"/>
     <use style="fill:#0000ff;stroke:#0000ff;" x="3084.453521" xlink:href="#mc0303c3189" y="170.062647"/>
     <use style="fill:#0000ff;stroke:#0000ff;" x="2967.285923" xlink:href="#mc0303c3189" y="152.946001"/>
     <use style="fill:#0000ff;stroke:#0000ff;" x="2850.806938" xlink:href="#mc0303c3189" y="136.812258"/>
     <use style="fill:#0000ff;stroke:#0000ff;" x="2735.071026" xlink:href="#mc0303c3189" y="121.663755"/>
     <use style="fill:#0000ff;stroke:#0000ff;" x="2619.986171" xlink:href="#mc0303c3189" y="107.484889"/>
     <use style="fill:#0000ff;stroke:#0000ff;" x="2505.331009" xlink:href="#mc0303c3189" y="94.252417"/>
     <use style="fill:#0000ff;stroke:#0000ff;" x="2390.757692" xlink:href="#mc0303c3189" y="81.955761"/>
     <use style="fill:#0000ff;stroke:#0000ff;" x="2276.075406" xlink:href="#mc0303c3189" y="70.605223"/>
     <use style="fill:#0000ff;stroke:#0000ff;" x="2161.155151" xlink:href="#mc0303c3189" y="60.231983"/>
     <use style="fill:#0000ff;stroke:#0000ff;" x="2046.007302" xlink:href="#mc0303c3189" y="50.901272"/>
     <use style="fill:#0000ff;stroke:#0000ff;" x="1930.696426" xlink:href="#mc0303c3189" y="42.674359"/>
     <use style="fill:#0000ff;stroke:#0000ff;" x="1815.316281" xlink:href="#mc0303c3189" y="35.636397"/>
     <use style="fill:#0000ff;stroke:#0000ff;" x="1700.038592" xlink:href="#mc0303c3189" y="29.868961"/>
     <use style="fill:#0000ff;stroke:#0000ff;" x="1584.915196" xlink:href="#mc0303c3189" y="25.535259"/>
     <use style="fill:#0000ff;stroke:#0000ff;" x="1469.981701" xlink:href="#mc0303c3189" y="23.054447"/>
     <use style="fill:#0000ff;stroke:#0000ff;" x="1355.367243" xlink:href="#mc0303c3189" y="22.620749"/>
     <use style="fill:#0000ff;stroke:#0000ff;" x="1241.197765" xlink:href="#mc0303c3189" y="24.345146"/>
     <use style="fill:#0000ff;stroke:#0000ff;" x="1127.603688" xlink:href="#mc0303c3189" y="28.370702"/>
     <use style="fill:#0000ff;stroke:#0000ff;" x="1014.781152" xlink:href="#mc0303c3189" y="34.858181"/>
     <use style="fill:#0000ff;stroke:#0000ff;" x="903.069805" xlink:href="#mc0303c3189" y="43.982347"/>
     <use style="fill:#0000ff;stroke:#0000ff;" x="792.841831" xlink:href="#mc0303c3189" y="55.935895"/>
     <use style="fill:#0000ff;stroke:#0000ff;" x="684.646522" xlink:href="#mc0303c3189" y="70.933932"/>
     <use style="fill:#0000ff;stroke:#0000ff;" x="579.305373" xlink:href="#mc0303c3189" y="89.196125"/>
     <use style="fill:#0000ff;stroke:#0000ff;" x="478.004899" xlink:href="#mc0303c3189" y="110.931024"/>
     <use style="fill:#0000ff;stroke:#0000ff;" x="382.425578" xlink:href="#mc0303c3189" y="136.287317"/>
     <use style="fill:#0000ff;stroke:#0000ff;" x="295.441573" xlink:href="#mc0303c3189" y="165.11926"/>
     <use style="fill:#0000ff;stroke:#0000ff;" x="221.191564" xlink:href="#mc0303c3189" y="196.581292"/>
     <use style="fill:#0000ff;stroke:#0000ff;" x="164.327918" xlink:href="#mc0303c3189" y="228.632125"/>
     <use style="fill:#0000ff;stroke:#0000ff;" x="127.088642" xlink:href="#mc0303c3189" y="258.276214"/>
     <use style="fill:#0000ff;stroke:#0000ff;" x="106.986268" xlink:href="#mc0303c3189" y="282.880386"/>
     <use style="fill:#0000ff;stroke:#0000ff;" x="95.241108" xlink:href="#mc0303c3189" y="320.936907"/>
     <use style="fill:#0000ff;stroke:#0000ff;" x="95.51803" xlink:href="#mc0303c3189" y="326.655049"/>
     <use style="fill:#0000ff;stroke:#0000ff;" x="97.548152" xlink:href="#mc0303c3189" y="337.184725"/>
     <use style="fill:#0000ff;stroke:#0000ff;" x="101.669596" xlink:href="#mc0303c3189" y="347.907485"/>
     <use style="fill:#0000ff;stroke:#0000ff;" x="109.562139" xlink:href="#mc0303c3189" y="360.618378"/>
     <use style="fill:#0000ff;stroke:#0000ff;" x="126.696257" xlink:href="#mc0303c3189" y="378.057598"/>
     <use style="fill:#0000ff;stroke:#0000ff;" x="162.427981" xlink:href="#mc0303c3189" y="400.828608"/>
     <use style="fill:#0000ff;stroke:#0000ff;" x="226.274394" xlink:href="#mc0303c3189" y="425.983485"/>
     <use style="fill:#0000ff;stroke:#0000ff;" x="316.235148" xlink:href="#mc0303c3189" y="448.118234"/>
     <use style="fill:#0000ff;stroke:#0000ff;" x="422.019503" xlink:href="#mc0303c3189" y="464.720037"/>
     <use style="fill:#0000ff;stroke:#0000ff;" x="535.391275" xlink:href="#mc0303c3189" y="476.103356"/>
     <use style="fill:#0000ff;stroke:#0000ff;" x="652.346528" xlink:href="#mc0303c3189" y="483.380683"/>
     <use style="fill:#0000ff;stroke:#0000ff;" x="771.090285" xlink:href="#mc0303c3189" y="487.529572"/>
     <use style="fill:#0000ff;stroke:#0000ff;" x="890.873471" xlink:href="#mc0303c3189" y="489.290443"/>
     <use style="fill:#0000ff;stroke:#0000ff;" x="1011.359797" xlink:href="#mc0303c3189" y="489.207496"/>
     <use style="fill:#0000ff;stroke:#0000ff;" x="1132.368228" xlink:href="#mc0303c3189" y="487.703016"/>
     <use style="fill:#0000ff;stroke:#0000ff;" x="1253.795161" xlink:href="#mc0303c3189" y="485.102783"/>
     <use style="fill:#0000ff;stroke:#0000ff;" x="1375.587787" xlink:href="#mc0303c3189" y="481.677948"/>
     <use style="fill:#0000ff;stroke:#0000ff;" x="1497.605728" xlink:href="#mc0303c3189" y="477.643981"/>
     <use style="fill:#0000ff;stroke:#0000ff;" x="1619.468465" xlink:href="#mc0303c3189" y="473.216575"/>
     <use style="fill:#0000ff;stroke:#0000ff;" x="1741.130231" xlink:href="#mc0303c3189" y="468.357213"/>
     <use style="fill:#0000ff;stroke:#0000ff;" x="1862.626134" xlink:href="#mc0303c3189" y="462.865833"/>
     <use style="fill:#0000ff;stroke:#0000ff;" x="1983.972847" xlink:href="#mc0303c3189" y="456.854854"/>
     <use style="fill:#0000ff;stroke:#0000ff;" x="2105.171421" xlink:href="#mc0303c3189" y="450.410148"/>
     <use style="fill:#0000ff;stroke:#0000ff;" x="2226.212173" xlink:href="#mc0303c3189" y="443.617493"/>
     <use style="fill:#0000ff;stroke:#0000ff;" x="2347.09422" xlink:href="#mc0303c3189" y="436.549689"/>
     <use style="fill:#0000ff;stroke:#0000ff;" x="2467.780989" xlink:href="#mc0303c3189" y="429.263451"/>
     <use style="fill:#0000ff;stroke:#0000ff;" x="2588.247601" xlink:href="#mc0303c3189" y="421.812235"/>
     <use style="fill:#0000ff;stroke:#0000ff;" x="2708.477136" xlink:href="#mc0303c3189" y="414.229258"/>
     <use style="fill:#0000ff;stroke:#0000ff;" x="2828.475847" xlink:href="#mc0303c3189" y="406.546713"/>
     <use style="fill:#0000ff;stroke:#0000ff;" x="2948.267462" xlink:href="#mc0303c3189" y="398.787481"/>
     <use style="fill:#0000ff;stroke:#0000ff;" x="3067.886371" xlink:href="#mc0303c3189" y="390.961111"/>
     <use style="fill:#0000ff;stroke:#0000ff;" x="3187.299237" xlink:href="#mc0303c3189" y="383.077677"/>
     <use style="fill:#0000ff;stroke:#0000ff;" x="3306.422712" xlink:href="#mc0303c3189" y="375.140308"/>
     <use style="fill:#0000ff;stroke:#0000ff;" x="3425.298645" xlink:href="#mc0303c3189" y="367.141419"/>
     <use style="fill:#0000ff;stroke:#0000ff;" x="3544.540893" xlink:href="#mc0303c3189" y="359.028761"/>
     <use style="fill:#0000ff;stroke:#0000ff;" x="3663.935287" xlink:href="#mc0303c3189" y="350.797648"/>
     <use style="fill:#0000ff;stroke:#0000ff;" x="3767.200571" xlink:href="#mc0303c3189" y="343.568961"/>
     <use style="fill:#0000ff;stroke:#0000ff;" x="3839.999438" xlink:href="#mc0303c3189" y="338.405543"/>
     <use style="fill:#0000ff;stroke:#0000ff;" x="3892.569852" xlink:href="#mc0303c3189" y="334.635856"/>
     <use style="fill:#0000ff;stroke:#0000ff;" x="3935.18213" xlink:href="#mc0303c3189" y="331.549743"/>
    </g>
   </g>
   <g id="line2d_21">
    <defs>
     <path d="M 0 3 
C 0.795609 3 1.55874 2.683901 2.12132 2.12132 
C 2.683901 1.55874 3 0.795609 3 0 
C 3 -0.795609 2.683901 -1.55874 2.12132 -2.12132 
C 1.55874 -2.683901 0.795609 -3 0 -3 
C -0.795609 -3 -1.55874 -2.683901 -2.12132 -2.12132 
C -2.683901 -1.55874 -3 -0.795609 -3 0 
C -3 0.795609 -2.683901 1.55874 -2.12132 2.12132 
C -1.55874 2.683901 -0.795609 3 0 3 
z
" id="m3cd05d37f1" style="stroke:#00bfbf;"/>
    </defs>
    <g clip-path="url(#p02f5659d4c)">
     <use style="fill:#00bfbf;stroke:#00bfbf;" x="3935.761122" xlink:href="#m3cd05d37f1" y="322.093409"/>
     <use style="fill:#00bfbf;stroke:#00bfbf;" x="3894.291102" xlink:href="#m3cd05d37f1" y="313.666873"/>
     <use style="fill:#00bfbf;stroke:#00bfbf;" x="3843.18188" xlink:href="#m3cd05d37f1" y="303.441296"/>
     <use style="fill:#00bfbf;stroke:#00bfbf;" x="3772.763033" xlink:href="#m3cd05d37f1" y="289.572723"/>
     <use style="fill:#00bfbf;stroke:#00bfbf;" x="3673.52826" xlink:href="#m3cd05d37f1" y="270.442147"/>
     <use style="fill:#00bfbf;stroke:#00bfbf;" x="3558.357109" xlink:href="#m3cd05d37f1" y="248.823966"/>
     <use style="fill:#00bfbf;stroke:#00bfbf;" x="3439.577474" xlink:href="#m3cd05d37f1" y="227.235009"/>
     <use style="fill:#00bfbf;stroke:#00bfbf;" x="3320.73852" xlink:href="#m3cd05d37f1" y="206.401436"/>
     <use style="fill:#00bfbf;stroke:#00bfbf;" x="3202.447902" xlink:href="#m3cd05d37f1" y="186.477983"/>
     <use style="fill:#00bfbf;stroke:#00bfbf;" x="3084.776976" xlink:href="#m3cd05d37f1" y="167.509638"/>
     <use style="fill:#00bfbf;stroke:#00bfbf;" x="2967.740517" xlink:href="#m3cd05d37f1" y="149.515236"/>
     <use style="fill:#00bfbf;stroke:#00bfbf;" x="2851.37729" xlink:href="#m3cd05d37f1" y="132.554374"/>
     <use style="fill:#00bfbf;stroke:#00bfbf;" x="2735.735625" xlink:href="#m3cd05d37f1" y="116.671854"/>
     <use style="fill:#00bfbf;stroke:#00bfbf;" x="2620.723246" xlink:href="#m3cd05d37f1" y="101.865176"/>
     <use style="fill:#00bfbf;stroke:#00bfbf;" x="2506.11729" xlink:href="#m3cd05d37f1" y="88.136636"/>
     <use style="fill:#00bfbf;stroke:#00bfbf;" x="2391.570974" xlink:href="#m3cd05d37f1" y="75.488523"/>
     <use style="fill:#00bfbf;stroke:#00bfbf;" x="2276.897163" xlink:href="#m3cd05d37f1" y="63.926774"/>
     <use style="fill:#00bfbf;stroke:#00bfbf;" x="2161.972536" xlink:href="#m3cd05d37f1" y="53.455675"/>
     <use style="fill:#00bfbf;stroke:#00bfbf;" x="2046.810152" xlink:href="#m3cd05d37f1" y="44.13893"/>
     <use style="fill:#00bfbf;stroke:#00bfbf;" x="1931.477028" xlink:href="#m3cd05d37f1" y="36.041606"/>
     <use style="fill:#00bfbf;stroke:#00bfbf;" x="1816.069673" xlink:href="#m3cd05d37f1" y="29.251793"/>
     <use style="fill:#00bfbf;stroke:#00bfbf;" x="1700.763099" xlink:href="#m3cd05d37f1" y="23.856331"/>
     <use style="fill:#00bfbf;stroke:#00bfbf;" x="1585.61329" xlink:href="#m3cd05d37f1" y="20.008674"/>
     <use style="fill:#00bfbf;stroke:#00bfbf;" x="1470.661251" xlink:href="#m3cd05d37f1" y="18.063346"/>
     <use style="fill:#00bfbf;stroke:#00bfbf;" x="1356.03863" xlink:href="#m3cd05d37f1" y="18.198766"/>
     <use style="fill:#00bfbf;stroke:#00bfbf;" x="1241.873061" xlink:href="#m3cd05d37f1" y="20.524454"/>
     <use style="fill:#00bfbf;stroke:#00bfbf;" x="1128.296606" xlink:href="#m3cd05d37f1" y="25.173219"/>
     <use style="fill:#00bfbf;stroke:#00bfbf;" x="1015.506804" xlink:href="#m3cd05d37f1" y="32.298244"/>
     <use style="fill:#00bfbf;stroke:#00bfbf;" x="903.844647" xlink:href="#m3cd05d37f1" y="42.067606"/>
     <use style="fill:#00bfbf;stroke:#00bfbf;" x="793.683912" xlink:href="#m3cd05d37f1" y="54.670095"/>
     <use style="fill:#00bfbf;stroke:#00bfbf;" x="685.576084" xlink:href="#m3cd05d37f1" y="70.318963"/>
     <use style="fill:#00bfbf;stroke:#00bfbf;" x="580.345246" xlink:href="#m3cd05d37f1" y="89.230571"/>
     <use style="fill:#00bfbf;stroke:#00bfbf;" x="479.180147" xlink:href="#m3cd05d37f1" y="111.605319"/>
     <use style="fill:#00bfbf;stroke:#00bfbf;" x="383.760783" xlink:href="#m3cd05d37f1" y="137.571834"/>
     <use style="fill:#00bfbf;stroke:#00bfbf;" x="296.943972" xlink:href="#m3cd05d37f1" y="166.919825"/>
     <use style="fill:#00bfbf;stroke:#00bfbf;" x="222.821482" xlink:href="#m3cd05d37f1" y="198.701897"/>
     <use style="fill:#00bfbf;stroke:#00bfbf;" x="165.954087" xlink:href="#m3cd05d37f1" y="230.765697"/>
     <use style="fill:#00bfbf;stroke:#00bfbf;" x="128.483167" xlink:href="#m3cd05d37f1" y="260.119902"/>
     <use style="fill:#00bfbf;stroke:#00bfbf;" x="107.917784" xlink:href="#m3cd05d37f1" y="284.299165"/>
     <use style="fill:#00bfbf;stroke:#00bfbf;" x="95.29784" xlink:href="#m3cd05d37f1" y="322.094104"/>
     <use style="fill:#00bfbf;stroke:#00bfbf;" x="95.612228" xlink:href="#m3cd05d37f1" y="327.794192"/>
     <use style="fill:#00bfbf;stroke:#00bfbf;" x="97.916002" xlink:href="#m3cd05d37f1" y="338.222172"/>
     <use style="fill:#00bfbf;stroke:#00bfbf;" x="102.590558" xlink:href="#m3cd05d37f1" y="348.593727"/>
     <use style="fill:#00bfbf;stroke:#00bfbf;" x="111.383837" xlink:href="#m3cd05d37f1" y="360.374158"/>
     <use style="fill:#00bfbf;stroke:#00bfbf;" x="129.655408" xlink:href="#m3cd05d37f1" y="375.922044"/>
     <use style="fill:#00bfbf;stroke:#00bfbf;" x="166.489218" xlink:href="#m3cd05d37f1" y="395.756866"/>
     <use style="fill:#00bfbf;stroke:#00bfbf;" x="231.111417" xlink:href="#m3cd05d37f1" y="417.269842"/>
     <use style="fill:#00bfbf;stroke:#00bfbf;" x="321.436046" xlink:href="#m3cd05d37f1" y="435.851621"/>
     <use style="fill:#00bfbf;stroke:#00bfbf;" x="427.298158" xlink:href="#m3cd05d37f1" y="449.461151"/>
     <use style="fill:#00bfbf;stroke:#00bfbf;" x="540.592167" xlink:href="#m3cd05d37f1" y="458.462898"/>
     <use style="fill:#00bfbf;stroke:#00bfbf;" x="657.391628" xlink:href="#m3cd05d37f1" y="463.878797"/>
     <use style="fill:#00bfbf;stroke:#00bfbf;" x="775.941223" xlink:href="#m3cd05d37f1" y="466.574372"/>
     <use style="fill:#00bfbf;stroke:#00bfbf;" x="895.511828" xlink:href="#m3cd05d37f1" y="467.195642"/>
     <use style="fill:#00bfbf;stroke:#00bfbf;" x="1015.777653" xlink:href="#m3cd05d37f1" y="466.222743"/>
     <use style="fill:#00bfbf;stroke:#00bfbf;" x="1136.563306" xlink:href="#m3cd05d37f1" y="464.028828"/>
     <use style="fill:#00bfbf;stroke:#00bfbf;" x="1257.768087" xlink:href="#m3cd05d37f1" y="460.901325"/>
     <use style="fill:#00bfbf;stroke:#00bfbf;" x="1379.340686" xlink:href="#m3cd05d37f1" y="457.083421"/>
     <use style="fill:#00bfbf;stroke:#00bfbf;" x="1501.14192" xlink:href="#m3cd05d37f1" y="452.77729"/>
     <use style="fill:#00bfbf;stroke:#00bfbf;" x="1622.79142" xlink:href="#m3cd05d37f1" y="448.168772"/>
     <use style="fill:#00bfbf;stroke:#00bfbf;" x="1744.244738" xlink:href="#m3cd05d37f1" y="443.240879"/>
     <use style="fill:#00bfbf;stroke:#00bfbf;" x="1865.539331" xlink:href="#m3cd05d37f1" y="437.844234"/>
     <use style="fill:#00bfbf;stroke:#00bfbf;" x="1986.69161" xlink:href="#m3cd05d37f1" y="432.07415"/>
     <use style="fill:#00bfbf;stroke:#00bfbf;" x="2107.702414" xlink:href="#m3cd05d37f1" y="426.007849"/>
     <use style="fill:#00bfbf;stroke:#00bfbf;" x="2228.561616" xlink:href="#m3cd05d37f1" y="419.722326"/>
     <use style="fill:#00bfbf;stroke:#00bfbf;" x="2349.267819" xlink:href="#m3cd05d37f1" y="413.283497"/>
     <use style="fill:#00bfbf;stroke:#00bfbf;" x="2469.784085" xlink:href="#m3cd05d37f1" y="406.746798"/>
     <use style="fill:#00bfbf;stroke:#00bfbf;" x="2590.085135" xlink:href="#m3cd05d37f1" y="400.168741"/>
     <use style="fill:#00bfbf;stroke:#00bfbf;" x="2710.153668" xlink:href="#m3cd05d37f1" y="393.589031"/>
     <use style="fill:#00bfbf;stroke:#00bfbf;" x="2829.995379" xlink:href="#m3cd05d37f1" y="387.049474"/>
     <use style="fill:#00bfbf;stroke:#00bfbf;" x="2949.633245" xlink:href="#m3cd05d37f1" y="380.583043"/>
     <use style="fill:#00bfbf;stroke:#00bfbf;" x="3069.100766" xlink:href="#m3cd05d37f1" y="374.207362"/>
     <use style="fill:#00bfbf;stroke:#00bfbf;" x="3188.363671" xlink:href="#m3cd05d37f1" y="367.936557"/>
     <use style="fill:#00bfbf;stroke:#00bfbf;" x="3307.337693" xlink:href="#m3cd05d37f1" y="361.786187"/>
     <use style="fill:#00bfbf;stroke:#00bfbf;" x="3426.063148" xlink:href="#m3cd05d37f1" y="355.77645"/>
     <use style="fill:#00bfbf;stroke:#00bfbf;" x="3545.151005" xlink:href="#m3cd05d37f1" y="349.896727"/>
     <use style="fill:#00bfbf;stroke:#00bfbf;" x="3664.385385" xlink:href="#m3cd05d37f1" y="344.148798"/>
     <use style="fill:#00bfbf;stroke:#00bfbf;" x="3767.507098" xlink:href="#m3cd05d37f1" y="339.259182"/>
     <use style="fill:#00bfbf;stroke:#00bfbf;" x="3840.201336" xlink:href="#m3cd05d37f1" y="335.851362"/>
     <use style="fill:#00bfbf;stroke:#00bfbf;" x="3892.695347" xlink:href="#m3cd05d37f1" y="333.385421"/>
     <use style="fill:#00bfbf;stroke:#00bfbf;" x="3935.246642" xlink:href="#m3cd05d37f1" y="331.352368"/>
    </g>
   </g>
   <g id="patch_3">
    <path d="M 90 512.64 
L 90 69.12 
" style="fill:none;stroke:#000000;stroke-linecap:square;stroke-linejoin:miter;stroke-width:0.8;"/>
   </g>
   <g id="patch_4">
    <path d="M 648 512.64 
L 648 69.12 
" style="fill:none;stroke:#000000;stroke-linecap:square;stroke-linejoin:miter;stroke-width:0.8;"/>
   </g>
   <g id="patch_5">
    <path d="M 90 512.64 
L 648 512.64 
" style="fill:none;stroke:#000000;stroke-linecap:square;stroke-linejoin:miter;stroke-width:0.8;"/>
   </g>
   <g id="patch_6">
    <path d="M 90 69.12 
L 648 69.12 
" style="fill:none;stroke:#000000;stroke-linecap:square;stroke-linejoin:miter;stroke-width:0.8;"/>
   </g>
   <g id="text_15">
    <!-- Example of 3.9.3 (XFLR Method) -->
    <g transform="translate(272.0325 63.12)scale(0.12 -0.12)">
     <defs>
      <path d="M 9.8125 72.90625 
L 55.90625 72.90625 
L 55.90625 64.59375 
L 19.671875 64.59375 
L 19.671875 43.015625 
L 54.390625 43.015625 
L 54.390625 34.71875 
L 19.671875 34.71875 
L 19.671875 8.296875 
L 56.78125 8.296875 
L 56.78125 0 
L 9.8125 0 
z
" id="DejaVuSans-69"/>
      <path d="M 54.890625 54.6875 
L 35.109375 28.078125 
L 55.90625 0 
L 45.3125 0 
L 29.390625 21.484375 
L 13.484375 0 
L 2.875 0 
L 24.125 28.609375 
L 4.6875 54.6875 
L 15.28125 54.6875 
L 29.78125 35.203125 
L 44.28125 54.6875 
z
" id="DejaVuSans-120"/>
      <path d="M 34.28125 27.484375 
Q 23.390625 27.484375 19.1875 25 
Q 14.984375 22.515625 14.984375 16.5 
Q 14.984375 11.71875 18.140625 8.90625 
Q 21.296875 6.109375 26.703125 6.109375 
Q 34.1875 6.109375 38.703125 11.40625 
Q 43.21875 16.703125 43.21875 25.484375 
L 43.21875 27.484375 
z
M 52.203125 31.203125 
L 52.203125 0 
L 43.21875 0 
L 43.21875 8.296875 
Q 40.140625 3.328125 35.546875 0.953125 
Q 30.953125 -1.421875 24.3125 -1.421875 
Q 15.921875 -1.421875 10.953125 3.296875 
Q 6 8.015625 6 15.921875 
Q 6 25.140625 12.171875 29.828125 
Q 18.359375 34.515625 30.609375 34.515625 
L 43.21875 34.515625 
L 43.21875 35.40625 
Q 43.21875 41.609375 39.140625 45 
Q 35.0625 48.390625 27.6875 48.390625 
Q 23 48.390625 18.546875 47.265625 
Q 14.109375 46.140625 10.015625 43.890625 
L 10.015625 52.203125 
Q 14.9375 54.109375 19.578125 55.046875 
Q 24.21875 56 28.609375 56 
Q 40.484375 56 46.34375 49.84375 
Q 52.203125 43.703125 52.203125 31.203125 
z
" id="DejaVuSans-97"/>
      <path d="M 52 44.1875 
Q 55.375 50.25 60.0625 53.125 
Q 64.75 56 71.09375 56 
Q 79.640625 56 84.28125 50.015625 
Q 88.921875 44.046875 88.921875 33.015625 
L 88.921875 0 
L 79.890625 0 
L 79.890625 32.71875 
Q 79.890625 40.578125 77.09375 44.375 
Q 74.3125 48.1875 68.609375 48.1875 
Q 61.625 48.1875 57.5625 43.546875 
Q 53.515625 38.921875 53.515625 30.90625 
L 53.515625 0 
L 44.484375 0 
L 44.484375 32.71875 
Q 44.484375 40.625 41.703125 44.40625 
Q 38.921875 48.1875 33.109375 48.1875 
Q 26.21875 48.1875 22.15625 43.53125 
Q 18.109375 38.875 18.109375 30.90625 
L 18.109375 0 
L 9.078125 0 
L 9.078125 54.6875 
L 18.109375 54.6875 
L 18.109375 46.1875 
Q 21.1875 51.21875 25.484375 53.609375 
Q 29.78125 56 35.6875 56 
Q 41.65625 56 45.828125 52.96875 
Q 50 49.953125 52 44.1875 
z
" id="DejaVuSans-109"/>
      <path d="M 18.109375 8.203125 
L 18.109375 -20.796875 
L 9.078125 -20.796875 
L 9.078125 54.6875 
L 18.109375 54.6875 
L 18.109375 46.390625 
Q 20.953125 51.265625 25.265625 53.625 
Q 29.59375 56 35.59375 56 
Q 45.5625 56 51.78125 48.09375 
Q 58.015625 40.1875 58.015625 27.296875 
Q 58.015625 14.40625 51.78125 6.484375 
Q 45.5625 -1.421875 35.59375 -1.421875 
Q 29.59375 -1.421875 25.265625 0.953125 
Q 20.953125 3.328125 18.109375 8.203125 
z
M 48.6875 27.296875 
Q 48.6875 37.203125 44.609375 42.84375 
Q 40.53125 48.484375 33.40625 48.484375 
Q 26.265625 48.484375 22.1875 42.84375 
Q 18.109375 37.203125 18.109375 27.296875 
Q 18.109375 17.390625 22.1875 11.75 
Q 26.265625 6.109375 33.40625 6.109375 
Q 40.53125 6.109375 44.609375 11.75 
Q 48.6875 17.390625 48.6875 27.296875 
z
" id="DejaVuSans-112"/>
      <path d="M 9.421875 75.984375 
L 18.40625 75.984375 
L 18.40625 0 
L 9.421875 0 
z
" id="DejaVuSans-108"/>
      <path d="M 56.203125 29.59375 
L 56.203125 25.203125 
L 14.890625 25.203125 
Q 15.484375 15.921875 20.484375 11.0625 
Q 25.484375 6.203125 34.421875 6.203125 
Q 39.59375 6.203125 44.453125 7.46875 
Q 49.3125 8.734375 54.109375 11.28125 
L 54.109375 2.78125 
Q 49.265625 0.734375 44.1875 -0.34375 
Q 39.109375 -1.421875 33.890625 -1.421875 
Q 20.796875 -1.421875 13.15625 6.1875 
Q 5.515625 13.8125 5.515625 26.8125 
Q 5.515625 40.234375 12.765625 48.109375 
Q 20.015625 56 32.328125 56 
Q 43.359375 56 49.78125 48.890625 
Q 56.203125 41.796875 56.203125 29.59375 
z
M 47.21875 32.234375 
Q 47.125 39.59375 43.09375 43.984375 
Q 39.0625 48.390625 32.421875 48.390625 
Q 24.90625 48.390625 20.390625 44.140625 
Q 15.875 39.890625 15.1875 32.171875 
z
" id="DejaVuSans-101"/>
      <path id="DejaVuSans-32"/>
      <path d="M 30.609375 48.390625 
Q 23.390625 48.390625 19.1875 42.75 
Q 14.984375 37.109375 14.984375 27.296875 
Q 14.984375 17.484375 19.15625 11.84375 
Q 23.34375 6.203125 30.609375 6.203125 
Q 37.796875 6.203125 41.984375 11.859375 
Q 46.1875 17.53125 46.1875 27.296875 
Q 46.1875 37.015625 41.984375 42.703125 
Q 37.796875 48.390625 30.609375 48.390625 
z
M 30.609375 56 
Q 42.328125 56 49.015625 48.375 
Q 55.71875 40.765625 55.71875 27.296875 
Q 55.71875 13.875 49.015625 6.21875 
Q 42.328125 -1.421875 30.609375 -1.421875 
Q 18.84375 -1.421875 12.171875 6.21875 
Q 5.515625 13.875 5.515625 27.296875 
Q 5.515625 40.765625 12.171875 48.375 
Q 18.84375 56 30.609375 56 
z
" id="DejaVuSans-111"/>
      <path d="M 37.109375 75.984375 
L 37.109375 68.5 
L 28.515625 68.5 
Q 23.6875 68.5 21.796875 66.546875 
Q 19.921875 64.59375 19.921875 59.515625 
L 19.921875 54.6875 
L 34.71875 54.6875 
L 34.71875 47.703125 
L 19.921875 47.703125 
L 19.921875 0 
L 10.890625 0 
L 10.890625 47.703125 
L 2.296875 47.703125 
L 2.296875 54.6875 
L 10.890625 54.6875 
L 10.890625 58.5 
Q 10.890625 67.625 15.140625 71.796875 
Q 19.390625 75.984375 28.609375 75.984375 
z
" id="DejaVuSans-102"/>
      <path d="M 40.578125 39.3125 
Q 47.65625 37.796875 51.625 33 
Q 55.609375 28.21875 55.609375 21.1875 
Q 55.609375 10.40625 48.1875 4.484375 
Q 40.765625 -1.421875 27.09375 -1.421875 
Q 22.515625 -1.421875 17.65625 -0.515625 
Q 12.796875 0.390625 7.625 2.203125 
L 7.625 11.71875 
Q 11.71875 9.328125 16.59375 8.109375 
Q 21.484375 6.890625 26.8125 6.890625 
Q 36.078125 6.890625 40.9375 10.546875 
Q 45.796875 14.203125 45.796875 21.1875 
Q 45.796875 27.640625 41.28125 31.265625 
Q 36.765625 34.90625 28.71875 34.90625 
L 20.21875 34.90625 
L 20.21875 43.015625 
L 29.109375 43.015625 
Q 36.375 43.015625 40.234375 45.921875 
Q 44.09375 48.828125 44.09375 54.296875 
Q 44.09375 59.90625 40.109375 62.90625 
Q 36.140625 65.921875 28.71875 65.921875 
Q 24.65625 65.921875 20.015625 65.03125 
Q 15.375 64.15625 9.8125 62.3125 
L 9.8125 71.09375 
Q 15.4375 72.65625 20.34375 73.4375 
Q 25.25 74.21875 29.59375 74.21875 
Q 40.828125 74.21875 47.359375 69.109375 
Q 53.90625 64.015625 53.90625 55.328125 
Q 53.90625 49.265625 50.4375 45.09375 
Q 46.96875 40.921875 40.578125 39.3125 
z
" id="DejaVuSans-51"/>
      <path d="M 10.984375 1.515625 
L 10.984375 10.5 
Q 14.703125 8.734375 18.5 7.8125 
Q 22.3125 6.890625 25.984375 6.890625 
Q 35.75 6.890625 40.890625 13.453125 
Q 46.046875 20.015625 46.78125 33.40625 
Q 43.953125 29.203125 39.59375 26.953125 
Q 35.25 24.703125 29.984375 24.703125 
Q 19.046875 24.703125 12.671875 31.3125 
Q 6.296875 37.9375 6.296875 49.421875 
Q 6.296875 60.640625 12.9375 67.421875 
Q 19.578125 74.21875 30.609375 74.21875 
Q 43.265625 74.21875 49.921875 64.515625 
Q 56.59375 54.828125 56.59375 36.375 
Q 56.59375 19.140625 48.40625 8.859375 
Q 40.234375 -1.421875 26.421875 -1.421875 
Q 22.703125 -1.421875 18.890625 -0.6875 
Q 15.09375 0.046875 10.984375 1.515625 
z
M 30.609375 32.421875 
Q 37.25 32.421875 41.125 36.953125 
Q 45.015625 41.5 45.015625 49.421875 
Q 45.015625 57.28125 41.125 61.84375 
Q 37.25 66.40625 30.609375 66.40625 
Q 23.96875 66.40625 20.09375 61.84375 
Q 16.21875 57.28125 16.21875 49.421875 
Q 16.21875 41.5 20.09375 36.953125 
Q 23.96875 32.421875 30.609375 32.421875 
z
" id="DejaVuSans-57"/>
      <path d="M 31 75.875 
Q 24.46875 64.65625 21.28125 53.65625 
Q 18.109375 42.671875 18.109375 31.390625 
Q 18.109375 20.125 21.3125 9.0625 
Q 24.515625 -2 31 -13.1875 
L 23.1875 -13.1875 
Q 15.875 -1.703125 12.234375 9.375 
Q 8.59375 20.453125 8.59375 31.390625 
Q 8.59375 42.28125 12.203125 53.3125 
Q 15.828125 64.359375 23.1875 75.875 
z
" id="DejaVuSans-40"/>
      <path d="M 6.296875 72.90625 
L 16.890625 72.90625 
L 35.015625 45.796875 
L 53.21875 72.90625 
L 63.8125 72.90625 
L 40.375 37.890625 
L 65.375 0 
L 54.78125 0 
L 34.28125 31 
L 13.625 0 
L 2.984375 0 
L 29 38.921875 
z
" id="DejaVuSans-88"/>
      <path d="M 9.8125 72.90625 
L 51.703125 72.90625 
L 51.703125 64.59375 
L 19.671875 64.59375 
L 19.671875 43.109375 
L 48.578125 43.109375 
L 48.578125 34.8125 
L 19.671875 34.8125 
L 19.671875 0 
L 9.8125 0 
z
" id="DejaVuSans-70"/>
      <path d="M 9.8125 72.90625 
L 19.671875 72.90625 
L 19.671875 8.296875 
L 55.171875 8.296875 
L 55.171875 0 
L 9.8125 0 
z
" id="DejaVuSans-76"/>
      <path d="M 44.390625 34.1875 
Q 47.5625 33.109375 50.5625 29.59375 
Q 53.5625 26.078125 56.59375 19.921875 
L 66.609375 0 
L 56 0 
L 46.6875 18.703125 
Q 43.0625 26.03125 39.671875 28.421875 
Q 36.28125 30.8125 30.421875 30.8125 
L 19.671875 30.8125 
L 19.671875 0 
L 9.8125 0 
L 9.8125 72.90625 
L 32.078125 72.90625 
Q 44.578125 72.90625 50.734375 67.671875 
Q 56.890625 62.453125 56.890625 51.90625 
Q 56.890625 45.015625 53.6875 40.46875 
Q 50.484375 35.9375 44.390625 34.1875 
z
M 19.671875 64.796875 
L 19.671875 38.921875 
L 32.078125 38.921875 
Q 39.203125 38.921875 42.84375 42.21875 
Q 46.484375 45.515625 46.484375 51.90625 
Q 46.484375 58.296875 42.84375 61.546875 
Q 39.203125 64.796875 32.078125 64.796875 
z
" id="DejaVuSans-82"/>
      <path d="M 9.8125 72.90625 
L 24.515625 72.90625 
L 43.109375 23.296875 
L 61.8125 72.90625 
L 76.515625 72.90625 
L 76.515625 0 
L 66.890625 0 
L 66.890625 64.015625 
L 48.09375 14.015625 
L 38.1875 14.015625 
L 19.390625 64.015625 
L 19.390625 0 
L 9.8125 0 
z
" id="DejaVuSans-77"/>
      <path d="M 18.3125 70.21875 
L 18.3125 54.6875 
L 36.8125 54.6875 
L 36.8125 47.703125 
L 18.3125 47.703125 
L 18.3125 18.015625 
Q 18.3125 11.328125 20.140625 9.421875 
Q 21.96875 7.515625 27.59375 7.515625 
L 36.8125 7.515625 
L 36.8125 0 
L 27.59375 0 
Q 17.1875 0 13.234375 3.875 
Q 9.28125 7.765625 9.28125 18.015625 
L 9.28125 47.703125 
L 2.6875 47.703125 
L 2.6875 54.6875 
L 9.28125 54.6875 
L 9.28125 70.21875 
z
" id="DejaVuSans-116"/>
      <path d="M 54.890625 33.015625 
L 54.890625 0 
L 45.90625 0 
L 45.90625 32.71875 
Q 45.90625 40.484375 42.875 44.328125 
Q 39.84375 48.1875 33.796875 48.1875 
Q 26.515625 48.1875 22.3125 43.546875 
Q 18.109375 38.921875 18.109375 30.90625 
L 18.109375 0 
L 9.078125 0 
L 9.078125 75.984375 
L 18.109375 75.984375 
L 18.109375 46.1875 
Q 21.34375 51.125 25.703125 53.5625 
Q 30.078125 56 35.796875 56 
Q 45.21875 56 50.046875 50.171875 
Q 54.890625 44.34375 54.890625 33.015625 
z
" id="DejaVuSans-104"/>
      <path d="M 45.40625 46.390625 
L 45.40625 75.984375 
L 54.390625 75.984375 
L 54.390625 0 
L 45.40625 0 
L 45.40625 8.203125 
Q 42.578125 3.328125 38.25 0.953125 
Q 33.9375 -1.421875 27.875 -1.421875 
Q 17.96875 -1.421875 11.734375 6.484375 
Q 5.515625 14.40625 5.515625 27.296875 
Q 5.515625 40.1875 11.734375 48.09375 
Q 17.96875 56 27.875 56 
Q 33.9375 56 38.25 53.625 
Q 42.578125 51.265625 45.40625 46.390625 
z
M 14.796875 27.296875 
Q 14.796875 17.390625 18.875 11.75 
Q 22.953125 6.109375 30.078125 6.109375 
Q 37.203125 6.109375 41.296875 11.75 
Q 45.40625 17.390625 45.40625 27.296875 
Q 45.40625 37.203125 41.296875 42.84375 
Q 37.203125 48.484375 30.078125 48.484375 
Q 22.953125 48.484375 18.875 42.84375 
Q 14.796875 37.203125 14.796875 27.296875 
z
" id="DejaVuSans-100"/>
      <path d="M 8.015625 75.875 
L 15.828125 75.875 
Q 23.140625 64.359375 26.78125 53.3125 
Q 30.421875 42.28125 30.421875 31.390625 
Q 30.421875 20.453125 26.78125 9.375 
Q 23.140625 -1.703125 15.828125 -13.1875 
L 8.015625 -13.1875 
Q 14.5 -2 17.703125 9.0625 
Q 20.90625 20.125 20.90625 31.390625 
Q 20.90625 42.671875 17.703125 53.65625 
Q 14.5 64.65625 8.015625 75.875 
z
" id="DejaVuSans-41"/>
     </defs>
     <use xlink:href="#DejaVuSans-69"/>
     <use x="63.183594" xlink:href="#DejaVuSans-120"/>
     <use x="122.363281" xlink:href="#DejaVuSans-97"/>
     <use x="183.642578" xlink:href="#DejaVuSans-109"/>
     <use x="281.054688" xlink:href="#DejaVuSans-112"/>
     <use x="344.53125" xlink:href="#DejaVuSans-108"/>
     <use x="372.314453" xlink:href="#DejaVuSans-101"/>
     <use x="433.837891" xlink:href="#DejaVuSans-32"/>
     <use x="465.625" xlink:href="#DejaVuSans-111"/>
     <use x="526.806641" xlink:href="#DejaVuSans-102"/>
     <use x="562.011719" xlink:href="#DejaVuSans-32"/>
     <use x="593.798828" xlink:href="#DejaVuSans-51"/>
     <use x="657.421875" xlink:href="#DejaVuSans-46"/>
     <use x="689.208984" xlink:href="#DejaVuSans-57"/>
     <use x="752.832031" xlink:href="#DejaVuSans-46"/>
     <use x="784.619141" xlink:href="#DejaVuSans-51"/>
     <use x="848.242188" xlink:href="#DejaVuSans-32"/>
     <use x="880.029297" xlink:href="#DejaVuSans-40"/>
     <use x="919.042969" xlink:href="#DejaVuSans-88"/>
     <use x="987.548828" xlink:href="#DejaVuSans-70"/>
     <use x="1045.068359" xlink:href="#DejaVuSans-76"/>
     <use x="1100.78125" xlink:href="#DejaVuSans-82"/>
     <use x="1170.263672" xlink:href="#DejaVuSans-32"/>
     <use x="1202.050781" xlink:href="#DejaVuSans-77"/>
     <use x="1288.330078" xlink:href="#DejaVuSans-101"/>
     <use x="1349.853516" xlink:href="#DejaVuSans-116"/>
     <use x="1389.0625" xlink:href="#DejaVuSans-104"/>
     <use x="1452.441406" xlink:href="#DejaVuSans-111"/>
     <use x="1513.623047" xlink:href="#DejaVuSans-100"/>
     <use x="1577.099609" xlink:href="#DejaVuSans-41"/>
    </g>
   </g>
   <g id="legend_1">
    <g id="patch_7">
     <path d="M 97 135.8325 
L 235.379687 135.8325 
Q 237.379687 135.8325 237.379687 133.8325 
L 237.379687 76.12 
Q 237.379687 74.12 235.379687 74.12 
L 97 74.12 
Q 95 74.12 95 76.12 
L 95 133.8325 
Q 95 135.8325 97 135.8325 
z
" style="fill:#ffffff;opacity:0.8;stroke:#cccccc;stroke-linejoin:miter;"/>
    </g>
    <g id="line2d_22">
     <path d="M 99 82.218437 
L 119 82.218437 
" style="fill:none;stroke:#008000;stroke-dasharray:5.55,2.4;stroke-dashoffset:0;stroke-width:1.5;"/>
    </g>
    <g id="line2d_23"/>
    <g id="text_16">
     <!-- DAE51 -->
     <g transform="translate(127 85.718437)scale(0.1 -0.1)">
      <defs>
       <path d="M 19.671875 64.796875 
L 19.671875 8.109375 
L 31.59375 8.109375 
Q 46.6875 8.109375 53.6875 14.9375 
Q 60.6875 21.78125 60.6875 36.53125 
Q 60.6875 51.171875 53.6875 57.984375 
Q 46.6875 64.796875 31.59375 64.796875 
z
M 9.8125 72.90625 
L 30.078125 72.90625 
Q 51.265625 72.90625 61.171875 64.09375 
Q 71.09375 55.28125 71.09375 36.53125 
Q 71.09375 17.671875 61.125 8.828125 
Q 51.171875 0 30.078125 0 
L 9.8125 0 
z
" id="DejaVuSans-68"/>
       <path d="M 34.1875 63.1875 
L 20.796875 26.90625 
L 47.609375 26.90625 
z
M 28.609375 72.90625 
L 39.796875 72.90625 
L 67.578125 0 
L 57.328125 0 
L 50.6875 18.703125 
L 17.828125 18.703125 
L 11.1875 0 
L 0.78125 0 
z
" id="DejaVuSans-65"/>
       <path d="M 10.796875 72.90625 
L 49.515625 72.90625 
L 49.515625 64.59375 
L 19.828125 64.59375 
L 19.828125 46.734375 
Q 21.96875 47.46875 24.109375 47.828125 
Q 26.265625 48.1875 28.421875 48.1875 
Q 40.625 48.1875 47.75 41.5 
Q 54.890625 34.8125 54.890625 23.390625 
Q 54.890625 11.625 47.5625 5.09375 
Q 40.234375 -1.421875 26.90625 -1.421875 
Q 22.3125 -1.421875 17.546875 -0.640625 
Q 12.796875 0.140625 7.71875 1.703125 
L 7.71875 11.625 
Q 12.109375 9.234375 16.796875 8.0625 
Q 21.484375 6.890625 26.703125 6.890625 
Q 35.15625 6.890625 40.078125 11.328125 
Q 45.015625 15.765625 45.015625 23.390625 
Q 45.015625 31 40.078125 35.4375 
Q 35.15625 39.890625 26.703125 39.890625 
Q 22.75 39.890625 18.8125 39.015625 
Q 14.890625 38.140625 10.796875 36.28125 
z
" id="DejaVuSans-53"/>
      </defs>
      <use xlink:href="#DejaVuSans-68"/>
      <use x="75.251953" xlink:href="#DejaVuSans-65"/>
      <use x="143.660156" xlink:href="#DejaVuSans-69"/>
      <use x="206.84375" xlink:href="#DejaVuSans-53"/>
      <use x="270.466797" xlink:href="#DejaVuSans-49"/>
     </g>
    </g>
    <g id="line2d_24">
     <path d="M 99 96.896563 
L 119 96.896563 
" style="fill:none;stroke:#0000ff;stroke-dasharray:5.55,2.4;stroke-dashoffset:0;stroke-width:1.5;"/>
    </g>
    <g id="line2d_25"/>
    <g id="text_17">
     <!-- NACA2412 -->
     <g transform="translate(127 100.396563)scale(0.1 -0.1)">
      <defs>
       <path d="M 9.8125 72.90625 
L 23.09375 72.90625 
L 55.421875 11.921875 
L 55.421875 72.90625 
L 64.984375 72.90625 
L 64.984375 0 
L 51.703125 0 
L 19.390625 60.984375 
L 19.390625 0 
L 9.8125 0 
z
" id="DejaVuSans-78"/>
       <path d="M 64.40625 67.28125 
L 64.40625 56.890625 
Q 59.421875 61.53125 53.78125 63.8125 
Q 48.140625 66.109375 41.796875 66.109375 
Q 29.296875 66.109375 22.65625 58.46875 
Q 16.015625 50.828125 16.015625 36.375 
Q 16.015625 21.96875 22.65625 14.328125 
Q 29.296875 6.6875 41.796875 6.6875 
Q 48.140625 6.6875 53.78125 8.984375 
Q 59.421875 11.28125 64.40625 15.921875 
L 64.40625 5.609375 
Q 59.234375 2.09375 53.4375 0.328125 
Q 47.65625 -1.421875 41.21875 -1.421875 
Q 24.65625 -1.421875 15.125 8.703125 
Q 5.609375 18.84375 5.609375 36.375 
Q 5.609375 53.953125 15.125 64.078125 
Q 24.65625 74.21875 41.21875 74.21875 
Q 47.75 74.21875 53.53125 72.484375 
Q 59.328125 70.75 64.40625 67.28125 
z
" id="DejaVuSans-67"/>
      </defs>
      <use xlink:href="#DejaVuSans-78"/>
      <use x="74.804688" xlink:href="#DejaVuSans-65"/>
      <use x="141.462891" xlink:href="#DejaVuSans-67"/>
      <use x="211.287109" xlink:href="#DejaVuSans-65"/>
      <use x="279.695312" xlink:href="#DejaVuSans-50"/>
      <use x="343.318359" xlink:href="#DejaVuSans-52"/>
      <use x="406.941406" xlink:href="#DejaVuSans-49"/>
      <use x="470.564453" xlink:href="#DejaVuSans-50"/>
     </g>
    </g>
    <g id="line2d_26">
     <path d="M 99 111.574687 
L 119 111.574687 
" style="fill:none;stroke:#00bfbf;stroke-dasharray:5.55,2.4;stroke-dashoffset:0;stroke-width:1.5;"/>
    </g>
    <g id="line2d_27"/>
    <g id="text_18">
     <!-- Mix(by XFLR Method) -->
     <g transform="translate(127 115.074687)scale(0.1 -0.1)">
      <defs>
       <path d="M 9.421875 54.6875 
L 18.40625 54.6875 
L 18.40625 0 
L 9.421875 0 
z
M 9.421875 75.984375 
L 18.40625 75.984375 
L 18.40625 64.59375 
L 9.421875 64.59375 
z
" id="DejaVuSans-105"/>
       <path d="M 48.6875 27.296875 
Q 48.6875 37.203125 44.609375 42.84375 
Q 40.53125 48.484375 33.40625 48.484375 
Q 26.265625 48.484375 22.1875 42.84375 
Q 18.109375 37.203125 18.109375 27.296875 
Q 18.109375 17.390625 22.1875 11.75 
Q 26.265625 6.109375 33.40625 6.109375 
Q 40.53125 6.109375 44.609375 11.75 
Q 48.6875 17.390625 48.6875 27.296875 
z
M 18.109375 46.390625 
Q 20.953125 51.265625 25.265625 53.625 
Q 29.59375 56 35.59375 56 
Q 45.5625 56 51.78125 48.09375 
Q 58.015625 40.1875 58.015625 27.296875 
Q 58.015625 14.40625 51.78125 6.484375 
Q 45.5625 -1.421875 35.59375 -1.421875 
Q 29.59375 -1.421875 25.265625 0.953125 
Q 20.953125 3.328125 18.109375 8.203125 
L 18.109375 0 
L 9.078125 0 
L 9.078125 75.984375 
L 18.109375 75.984375 
z
" id="DejaVuSans-98"/>
       <path d="M 32.171875 -5.078125 
Q 28.375 -14.84375 24.75 -17.8125 
Q 21.140625 -20.796875 15.09375 -20.796875 
L 7.90625 -20.796875 
L 7.90625 -13.28125 
L 13.1875 -13.28125 
Q 16.890625 -13.28125 18.9375 -11.515625 
Q 21 -9.765625 23.484375 -3.21875 
L 25.09375 0.875 
L 2.984375 54.6875 
L 12.5 54.6875 
L 29.59375 11.921875 
L 46.6875 54.6875 
L 56.203125 54.6875 
z
" id="DejaVuSans-121"/>
      </defs>
      <use xlink:href="#DejaVuSans-77"/>
      <use x="86.279297" xlink:href="#DejaVuSans-105"/>
      <use x="114.0625" xlink:href="#DejaVuSans-120"/>
      <use x="173.242188" xlink:href="#DejaVuSans-40"/>
      <use x="212.255859" xlink:href="#DejaVuSans-98"/>
      <use x="275.732422" xlink:href="#DejaVuSans-121"/>
      <use x="334.912109" xlink:href="#DejaVuSans-32"/>
      <use x="366.699219" xlink:href="#DejaVuSans-88"/>
      <use x="435.205078" xlink:href="#DejaVuSans-70"/>
      <use x="492.724609" xlink:href="#DejaVuSans-76"/>
      <use x="548.4375" xlink:href="#DejaVuSans-82"/>
      <use x="617.919922" xlink:href="#DejaVuSans-32"/>
      <use x="649.707031" xlink:href="#DejaVuSans-77"/>
      <use x="735.986328" xlink:href="#DejaVuSans-101"/>
      <use x="797.509766" xlink:href="#DejaVuSans-116"/>
      <use x="836.71875" xlink:href="#DejaVuSans-104"/>
      <use x="900.097656" xlink:href="#DejaVuSans-111"/>
      <use x="961.279297" xlink:href="#DejaVuSans-100"/>
      <use x="1024.755859" xlink:href="#DejaVuSans-41"/>
     </g>
    </g>
    <g id="line2d_28"/>
    <g id="line2d_29">
     <g>
      <use style="fill:#ff0000;stroke:#ff0000;" x="109" xlink:href="#m6ffa00b053" y="126.252813"/>
     </g>
    </g>
    <g id="text_19">
     <!-- XFLR Mix -->
     <g transform="translate(127 129.752813)scale(0.1 -0.1)">
      <use xlink:href="#DejaVuSans-88"/>
      <use x="68.505859" xlink:href="#DejaVuSans-70"/>
      <use x="126.025391" xlink:href="#DejaVuSans-76"/>
      <use x="181.738281" xlink:href="#DejaVuSans-82"/>
      <use x="251.220703" xlink:href="#DejaVuSans-32"/>
      <use x="283.007812" xlink:href="#DejaVuSans-77"/>
      <use x="369.287109" xlink:href="#DejaVuSans-105"/>
      <use x="397.070312" xlink:href="#DejaVuSans-120"/>
     </g>
    </g>
   </g>
  </g>
 </g>
 <defs>
  <clipPath id="p02f5659d4c">
   <rect height="443.52" width="558" x="90" y="69.12"/>
  </clipPath>
 </defs>
</svg>
