<?xml version="1.0" encoding="utf-8" standalone="no"?>
<!DOCTYPE svg PUBLIC "-//W3C//DTD SVG 1.1//EN"
  "http://www.w3.org/Graphics/SVG/1.1/DTD/svg11.dtd">
<!-- Created with matplotlib (https://matplotlib.org/) -->
<svg height="576pt" version="1.1" viewBox="0 0 720 576" width="720pt" xmlns="http://www.w3.org/2000/svg" xmlns:xlink="http://www.w3.org/1999/xlink">
 <metadata>
  <rdf:RDF xmlns:cc="http://creativecommons.org/ns#" xmlns:dc="http://purl.org/dc/elements/1.1/" xmlns:rdf="http://www.w3.org/1999/02/22-rdf-syntax-ns#">
   <cc:Work>
    <dc:type rdf:resource="http://purl.org/dc/dcmitype/StillImage"/>
    <dc:date>2025-09-05T19:51:57.150830</dc:date>
    <dc:format>image/svg+xml</dc:format>
    <dc:creator>
     <cc:Agent>
      <dc:title>Matplotlib v3.3.2, https://matplotlib.org/</dc:title>
     </cc:Agent>
    </dc:creator>
   </cc:Work>
  </rdf:RDF>
 </metadata>
 <defs>
  <style type="text/css">*{stroke-linecap:butt;stroke-linejoin:round;}</style>
 </defs>
 <g id="figure_1">
  <g id="patch_1">
   <path d="M 0 576 
L 720 576 
L 720 0 
L 0 0 
z
" style="fill:#ffffff;"/>
  </g>
  <g id="axes_1">
   <g id="patch_2">
    <path d="M 90 512.64 
L 648 512.64 
L 648 69.12 
L 90 69.12 
z
" style="fill:#ffffff;"/>
   </g>
   <g id="matplotlib.axis_1">
    <g id="xtick_1">
     <g id="line2d_1">
      <defs>
       <path d="M 0 0 
L 0 3.5 
" id="m516e39a5e0" style="stroke:#000000;stroke-width:0.8;"/>
      </defs>
      <g>
       <use style="stroke:#000000;stroke-width:0.8;" x="176.925075" xlink:href="#m516e39a5e0" y="512.64"/>
      </g>
     </g>
     <g id="text_1">
      <!-- −100 -->
      <g transform="translate(163.191481 527.238438)scale(0.1 -0.1)">
       <defs>
        <path d="M 10.59375 35.5 
L 73.1875 35.5 
L 73.1875 27.203125 
L 10.59375 27.203125 
z
" id="DejaVuSans-8722"/>
        <path d="M 12.40625 8.296875 
L 28.515625 8.296875 
L 28.515625 63.921875 
L 10.984375 60.40625 
L 10.984375 69.390625 
L 28.421875 72.90625 
L 38.28125 72.90625 
L 38.28125 8.296875 
L 54.390625 8.296875 
L 54.390625 0 
L 12.40625 0 
z
" id="DejaVuSans-49"/>
        <path d="M 31.78125 66.40625 
Q 24.171875 66.40625 20.328125 58.90625 
Q 16.5 51.421875 16.5 36.375 
Q 16.5 21.390625 20.328125 13.890625 
Q 24.171875 6.390625 31.78125 6.390625 
Q 39.453125 6.390625 43.28125 13.890625 
Q 47.125 21.390625 47.125 36.375 
Q 47.125 51.421875 43.28125 58.90625 
Q 39.453125 66.40625 31.78125 66.40625 
z
M 31.78125 74.21875 
Q 44.046875 74.21875 50.515625 64.515625 
Q 56.984375 54.828125 56.984375 36.375 
Q 56.984375 17.96875 50.515625 8.265625 
Q 44.046875 -1.421875 31.78125 -1.421875 
Q 19.53125 -1.421875 13.0625 8.265625 
Q 6.59375 17.96875 6.59375 36.375 
Q 6.59375 54.828125 13.0625 64.515625 
Q 19.53125 74.21875 31.78125 74.21875 
z
" id="DejaVuSans-48"/>
       </defs>
       <use xlink:href="#DejaVuSans-8722"/>
       <use x="83.789062" xlink:href="#DejaVuSans-49"/>
       <use x="147.412109" xlink:href="#DejaVuSans-48"/>
       <use x="211.035156" xlink:href="#DejaVuSans-48"/>
      </g>
     </g>
    </g>
    <g id="xtick_2">
     <g id="line2d_2">
      <g>
       <use style="stroke:#000000;stroke-width:0.8;" x="272.93716" xlink:href="#m516e39a5e0" y="512.64"/>
      </g>
     </g>
     <g id="text_2">
      <!-- 0 -->
      <g transform="translate(269.75591 527.238438)scale(0.1 -0.1)">
       <use xlink:href="#DejaVuSans-48"/>
      </g>
     </g>
    </g>
    <g id="xtick_3">
     <g id="line2d_3">
      <g>
       <use style="stroke:#000000;stroke-width:0.8;" x="368.949245" xlink:href="#m516e39a5e0" y="512.64"/>
      </g>
     </g>
     <g id="text_3">
      <!-- 100 -->
      <g transform="translate(359.405495 527.238438)scale(0.1 -0.1)">
       <use xlink:href="#DejaVuSans-49"/>
       <use x="63.623047" xlink:href="#DejaVuSans-48"/>
       <use x="127.246094" xlink:href="#DejaVuSans-48"/>
      </g>
     </g>
    </g>
    <g id="xtick_4">
     <g id="line2d_4">
      <g>
       <use style="stroke:#000000;stroke-width:0.8;" x="464.96133" xlink:href="#m516e39a5e0" y="512.64"/>
      </g>
     </g>
     <g id="text_4">
      <!-- 200 -->
      <g transform="translate(455.41758 527.238438)scale(0.1 -0.1)">
       <defs>
        <path d="M 19.1875 8.296875 
L 53.609375 8.296875 
L 53.609375 0 
L 7.328125 0 
L 7.328125 8.296875 
Q 12.9375 14.109375 22.625 23.890625 
Q 32.328125 33.6875 34.8125 36.53125 
Q 39.546875 41.84375 41.421875 45.53125 
Q 43.3125 49.21875 43.3125 52.78125 
Q 43.3125 58.59375 39.234375 62.25 
Q 35.15625 65.921875 28.609375 65.921875 
Q 23.96875 65.921875 18.8125 64.3125 
Q 13.671875 62.703125 7.8125 59.421875 
L 7.8125 69.390625 
Q 13.765625 71.78125 18.9375 73 
Q 24.125 74.21875 28.421875 74.21875 
Q 39.75 74.21875 46.484375 68.546875 
Q 53.21875 62.890625 53.21875 53.421875 
Q 53.21875 48.921875 51.53125 44.890625 
Q 49.859375 40.875 45.40625 35.40625 
Q 44.1875 33.984375 37.640625 27.21875 
Q 31.109375 20.453125 19.1875 8.296875 
z
" id="DejaVuSans-50"/>
       </defs>
       <use xlink:href="#DejaVuSans-50"/>
       <use x="63.623047" xlink:href="#DejaVuSans-48"/>
       <use x="127.246094" xlink:href="#DejaVuSans-48"/>
      </g>
     </g>
    </g>
    <g id="xtick_5">
     <g id="line2d_5">
      <g>
       <use style="stroke:#000000;stroke-width:0.8;" x="560.973416" xlink:href="#m516e39a5e0" y="512.64"/>
      </g>
     </g>
     <g id="text_5">
      <!-- 300 -->
      <g transform="translate(551.429666 527.238438)scale(0.1 -0.1)">
       <defs>
        <path d="M 40.578125 39.3125 
Q 47.65625 37.796875 51.625 33 
Q 55.609375 28.21875 55.609375 21.1875 
Q 55.609375 10.40625 48.1875 4.484375 
Q 40.765625 -1.421875 27.09375 -1.421875 
Q 22.515625 -1.421875 17.65625 -0.515625 
Q 12.796875 0.390625 7.625 2.203125 
L 7.625 11.71875 
Q 11.71875 9.328125 16.59375 8.109375 
Q 21.484375 6.890625 26.8125 6.890625 
Q 36.078125 6.890625 40.9375 10.546875 
Q 45.796875 14.203125 45.796875 21.1875 
Q 45.796875 27.640625 41.28125 31.265625 
Q 36.765625 34.90625 28.71875 34.90625 
L 20.21875 34.90625 
L 20.21875 43.015625 
L 29.109375 43.015625 
Q 36.375 43.015625 40.234375 45.921875 
Q 44.09375 48.828125 44.09375 54.296875 
Q 44.09375 59.90625 40.109375 62.90625 
Q 36.140625 65.921875 28.71875 65.921875 
Q 24.65625 65.921875 20.015625 65.03125 
Q 15.375 64.15625 9.8125 62.3125 
L 9.8125 71.09375 
Q 15.4375 72.65625 20.34375 73.4375 
Q 25.25 74.21875 29.59375 74.21875 
Q 40.828125 74.21875 47.359375 69.109375 
Q 53.90625 64.015625 53.90625 55.328125 
Q 53.90625 49.265625 50.4375 45.09375 
Q 46.96875 40.921875 40.578125 39.3125 
z
" id="DejaVuSans-51"/>
       </defs>
       <use xlink:href="#DejaVuSans-51"/>
       <use x="63.623047" xlink:href="#DejaVuSans-48"/>
       <use x="127.246094" xlink:href="#DejaVuSans-48"/>
      </g>
     </g>
    </g>
   </g>
   <g id="matplotlib.axis_2">
    <g id="ytick_1">
     <g id="line2d_6">
      <defs>
       <path d="M 0 0 
L -3.5 0 
" id="m648f925480" style="stroke:#000000;stroke-width:0.8;"/>
      </defs>
      <g>
       <use style="stroke:#000000;stroke-width:0.8;" x="90" xlink:href="#m648f925480" y="488.500764"/>
      </g>
     </g>
     <g id="text_6">
      <!-- −200 -->
      <g transform="translate(55.532812 492.299983)scale(0.1 -0.1)">
       <use xlink:href="#DejaVuSans-8722"/>
       <use x="83.789062" xlink:href="#DejaVuSans-50"/>
       <use x="147.412109" xlink:href="#DejaVuSans-48"/>
       <use x="211.035156" xlink:href="#DejaVuSans-48"/>
      </g>
     </g>
    </g>
    <g id="ytick_2">
     <g id="line2d_7">
      <g>
       <use style="stroke:#000000;stroke-width:0.8;" x="90" xlink:href="#m648f925480" y="392.488679"/>
      </g>
     </g>
     <g id="text_7">
      <!-- −100 -->
      <g transform="translate(55.532812 396.287897)scale(0.1 -0.1)">
       <use xlink:href="#DejaVuSans-8722"/>
       <use x="83.789062" xlink:href="#DejaVuSans-49"/>
       <use x="147.412109" xlink:href="#DejaVuSans-48"/>
       <use x="211.035156" xlink:href="#DejaVuSans-48"/>
      </g>
     </g>
    </g>
    <g id="ytick_3">
     <g id="line2d_8">
      <g>
       <use style="stroke:#000000;stroke-width:0.8;" x="90" xlink:href="#m648f925480" y="296.476593"/>
      </g>
     </g>
     <g id="text_8">
      <!-- 0 -->
      <g transform="translate(76.6375 300.275812)scale(0.1 -0.1)">
       <use xlink:href="#DejaVuSans-48"/>
      </g>
     </g>
    </g>
    <g id="ytick_4">
     <g id="line2d_9">
      <g>
       <use style="stroke:#000000;stroke-width:0.8;" x="90" xlink:href="#m648f925480" y="200.464508"/>
      </g>
     </g>
     <g id="text_9">
      <!-- 100 -->
      <g transform="translate(63.9125 204.263727)scale(0.1 -0.1)">
       <use xlink:href="#DejaVuSans-49"/>
       <use x="63.623047" xlink:href="#DejaVuSans-48"/>
       <use x="127.246094" xlink:href="#DejaVuSans-48"/>
      </g>
     </g>
    </g>
    <g id="ytick_5">
     <g id="line2d_10">
      <g>
       <use style="stroke:#000000;stroke-width:0.8;" x="90" xlink:href="#m648f925480" y="104.452423"/>
      </g>
     </g>
     <g id="text_10">
      <!-- 200 -->
      <g transform="translate(63.9125 108.251642)scale(0.1 -0.1)">
       <use xlink:href="#DejaVuSans-50"/>
       <use x="63.623047" xlink:href="#DejaVuSans-48"/>
       <use x="127.246094" xlink:href="#DejaVuSans-48"/>
      </g>
     </g>
    </g>
   </g>
   <g id="line2d_11">
    <path clip-path="url(#p461c8353a0)" d="M 560.996459 296.113668 
L 546.145309 293.126732 
L 532.115063 290.499841 
L 518.850994 288.18403 
L 506.298374 286.136092 
L 494.408237 284.321463 
L 483.140259 282.711341 
L 472.451233 281.288442 
L 462.300835 280.032604 
L 452.657382 278.923664 
L 443.486307 277.950101 
L 434.758809 277.103275 
L 426.446082 276.365902 
L 418.522205 275.732222 
L 410.967014 275.193595 
L 403.754586 274.744258 
L 396.867639 274.375572 
L 390.286011 274.084655 
L 383.960735 273.862867 
L 377.88893 273.72749 
L 372.076359 273.664122 
L 366.508618 273.672763 
L 361.171306 273.744772 
L 356.052902 273.874388 
L 351.141884 274.061612 
L 346.42961 274.297802 
L 341.904561 274.582958 
L 337.558094 274.911319 
L 333.381568 275.280005 
L 329.366343 275.689017 
L 325.503777 276.132593 
L 321.788109 276.610733 
L 318.213579 277.123437 
L 314.768665 277.667826 
L 311.453368 278.243898 
L 308.259046 278.848775 
L 305.182819 279.485335 
L 302.216045 280.150698 
L 299.355845 280.847746 
L 296.599338 281.579358 
L 293.940764 282.345535 
L 291.374361 283.152036 
L 288.903009 283.998863 
L 286.518069 284.897536 
L 284.22242 285.856697 
L 282.007422 286.890747 
L 279.878834 288.022729 
L 277.836657 289.29585 
L 275.886651 290.802279 
L 274.05186 292.804131 
L 273.216555 294.371048 
L 272.93716 296.476593 
L 273.625566 298.484206 
L 274.748908 299.858139 
L 276.920701 301.468262 
L 279.101136 302.577201 
L 281.319015 303.449951 
L 283.588741 304.175803 
L 285.916074 304.797961 
L 288.306774 305.342349 
L 290.763724 305.82337 
L 293.295562 306.249664 
L 295.905171 306.629871 
L 298.592549 306.969754 
L 301.369219 307.272192 
L 304.235179 307.540066 
L 307.193312 307.779136 
L 310.255137 307.986522 
L 313.420656 308.165105 
L 316.695628 308.314884 
L 320.088695 308.438739 
L 323.602737 308.539552 
L 327.246396 308.611561 
L 331.025432 308.657647 
L 334.945605 308.68069 
L 339.021318 308.677809 
L 343.252571 308.651886 
L 347.653765 308.600039 
L 352.233541 308.52515 
L 357.000541 308.424337 
L 361.966286 308.300482 
L 367.145178 308.153583 
L 372.548738 307.986522 
L 378.188488 307.793538 
L 384.08171 307.583271 
L 390.260088 307.349962 
L 396.758185 307.084969 
L 403.564482 306.77965 
L 410.69338 306.434007 
L 418.170801 306.050919 
L 426.016908 305.624625 
L 434.257626 305.158006 
L 442.918876 304.651062 
L 452.035223 304.098033 
L 461.632591 303.501798 
L 471.751305 302.859477 
L 482.431689 302.173951 
L 493.711189 301.439458 
L 505.638771 300.650239 
L 518.26628 299.809173 
L 531.648444 298.898978 
L 545.854393 297.916775 
L 560.950373 296.839519 
" style="fill:none;stroke:#0000ff;stroke-linecap:square;stroke-width:1.5;"/>
   </g>
   <g id="line2d_12">
    <path clip-path="url(#p461c8353a0)" d="M 378.550454 290.88 
L 378.531123 290.271054 
L 378.47321 289.664559 
L 378.376947 289.062959 
L 378.242722 288.468676 
L 378.071076 287.884102 
L 377.862699 287.311591 
L 377.618431 286.753449 
L 377.339255 286.211924 
L 377.026296 285.689195 
L 376.680813 285.187367 
L 376.304198 284.708462 
L 375.897967 284.254408 
L 375.463755 283.827032 
L 375.003313 283.428056 
L 374.518492 283.059086 
L 374.011247 282.721609 
L 373.483618 282.416982 
L 372.937731 282.146434 
L 372.375784 281.911052 
L 371.80004 281.711784 
L 371.212816 281.549434 
L 370.616477 281.424655 
L 370.013426 281.33795 
L 369.406089 281.289666 
L 368.796913 281.28 
L 368.18835 281.308989 
L 367.582851 281.376518 
L 366.982854 281.482314 
L 366.390774 281.62595 
L 365.808997 281.80685 
L 365.239865 282.024284 
L 364.685669 282.277377 
L 364.148641 282.56511 
L 363.630943 282.886323 
L 363.13466 283.239725 
L 362.661791 283.623891 
L 362.214238 284.037275 
L 361.793806 284.478212 
L 361.402185 284.944927 
L 361.040954 285.43554 
L 360.711567 285.948076 
L 360.415351 286.480472 
L 360.153497 287.030582 
L 359.92706 287.596193 
L 359.736953 288.175027 
L 359.58394 288.764753 
L 359.468638 289.362996 
L 359.391512 289.967347 
L 359.35287 290.575373 
L 359.35287 291.184627 
L 359.391512 291.792653 
L 359.468638 292.397004 
L 359.58394 292.995247 
L 359.736953 293.584973 
L 359.92706 294.163807 
L 360.153497 294.729418 
L 360.415351 295.279528 
L 360.711567 295.811924 
L 361.040954 296.32446 
L 361.402185 296.815073 
L 361.793806 297.281788 
L 362.214238 297.722725 
L 362.661791 298.136109 
L 363.13466 298.520275 
L 363.630943 298.873677 
L 364.148641 299.19489 
L 364.685669 299.482623 
L 365.239865 299.735716 
L 365.808997 299.95315 
L 366.390774 300.13405 
L 366.982854 300.277686 
L 367.582851 300.383482 
L 368.18835 300.451011 
L 368.796913 300.48 
L 369.406089 300.470334 
L 370.013426 300.42205 
L 370.616477 300.335345 
L 371.212816 300.210566 
L 371.80004 300.048216 
L 372.375784 299.848948 
L 372.937731 299.613566 
L 373.483618 299.343018 
L 374.011247 299.038391 
L 374.518492 298.700914 
L 375.003313 298.331944 
L 375.463755 297.932968 
L 375.897967 297.505592 
L 376.304198 297.051538 
L 376.680813 296.572633 
L 377.026296 296.070805 
L 377.339255 295.548076 
L 377.618431 295.006551 
L 377.862699 294.448409 
L 378.071076 293.875898 
L 378.242722 293.291324 
L 378.376947 292.697041 
L 378.47321 292.095441 
L 378.531123 291.488946 
L 378.550454 290.88 
" style="fill:none;stroke:#0000ff;stroke-linecap:square;stroke-width:1.5;"/>
   </g>
   <g id="line2d_13">
    <path clip-path="url(#p461c8353a0)" d="M 570.574624 290.88 
L 570.168687 278.092128 
L 568.95251 265.355749 
L 566.930991 252.722146 
L 564.112269 240.242192 
L 560.507694 227.966138 
L 556.131781 215.943416 
L 551.002151 204.222438 
L 545.139457 192.850399 
L 538.567308 181.87309 
L 531.312166 171.334714 
L 523.403246 161.277705 
L 514.872395 151.742558 
L 505.753962 142.767668 
L 496.084666 134.389175 
L 485.903439 126.640815 
L 475.25128 119.553788 
L 464.17108 113.156631 
L 452.707455 107.475104 
L 440.906565 102.532084 
L 428.815928 98.347474 
L 416.48423 94.938124 
L 403.961125 92.317764 
L 391.297039 90.496943 
L 378.542967 89.482994 
L 365.750264 89.28 
L 352.970442 89.888778 
L 340.254962 91.306877 
L 327.655023 93.528586 
L 315.221361 96.544959 
L 303.004043 100.343852 
L 291.052263 104.909966 
L 279.414146 110.224916 
L 268.136556 116.2673 
L 257.264902 123.012787 
L 246.842962 130.434217 
L 236.912701 138.501706 
L 227.514105 147.182768 
L 218.685018 156.442448 
L 210.460992 166.24346 
L 202.875142 176.54634 
L 195.958014 187.309601 
L 189.737461 198.489904 
L 184.23853 210.042229 
L 179.483364 221.920059 
L 175.491111 234.075566 
L 172.277845 246.459805 
L 169.856505 259.022909 
L 168.236841 271.714289 
L 167.425376 284.482843 
L 167.425376 297.277157 
L 168.236841 310.045711 
L 169.856505 322.737091 
L 172.277845 335.300195 
L 175.491111 347.684434 
L 179.483364 359.839941 
L 184.23853 371.717771 
L 189.737461 383.270096 
L 195.958014 394.450399 
L 202.875142 405.21366 
L 210.460992 415.51654 
L 218.685018 425.317552 
L 227.514105 434.577232 
L 236.912701 443.258294 
L 246.842962 451.325783 
L 257.264902 458.747213 
L 268.136556 465.4927 
L 279.414146 471.535084 
L 291.052263 476.850034 
L 303.004043 481.416148 
L 315.221361 485.215041 
L 327.655023 488.231414 
L 340.254962 490.453123 
L 352.970442 491.871222 
L 365.750264 492.48 
L 378.542967 492.277006 
L 391.297039 491.263057 
L 403.961125 489.442236 
L 416.48423 486.821876 
L 428.815928 483.412526 
L 440.906565 479.227916 
L 452.707455 474.284896 
L 464.17108 468.603369 
L 475.25128 462.206212 
L 485.903439 455.119185 
L 496.084666 447.370825 
L 505.753962 438.992332 
L 514.872395 430.017442 
L 523.403246 420.482295 
L 531.312166 410.425286 
L 538.567308 399.88691 
L 545.139457 388.909601 
L 551.002151 377.537562 
L 556.131781 365.816584 
L 560.507694 353.793862 
L 564.112269 341.517808 
L 566.930991 329.037854 
L 568.95251 316.404251 
L 570.168687 303.667872 
L 570.574624 290.88 
" style="fill:none;stroke:#0000ff;stroke-linecap:square;stroke-width:1.5;"/>
   </g>
   <g id="line2d_14">
    <path clip-path="url(#p461c8353a0)" d="M 397.752871 290.88 
L 397.69488 289.053161 
L 397.52114 287.233678 
L 397.232352 285.428878 
L 396.829677 283.646027 
L 396.314738 281.892305 
L 395.689607 280.174774 
L 394.956803 278.500348 
L 394.119275 276.875771 
L 393.180397 275.307584 
L 392.143948 273.802102 
L 391.014102 272.365386 
L 389.795409 271.003223 
L 388.492776 269.721095 
L 387.111448 268.524168 
L 385.656987 267.417259 
L 384.13525 266.404827 
L 382.552364 265.490947 
L 380.914704 264.679301 
L 379.228862 263.973155 
L 377.501628 263.375353 
L 375.739957 262.888303 
L 373.950942 262.513966 
L 372.141787 262.253849 
L 370.319777 262.108999 
L 368.492248 262.08 
L 366.666559 262.166968 
L 364.850062 262.369554 
L 363.050071 262.686941 
L 361.273833 263.117851 
L 359.528502 263.66055 
L 357.821105 264.312852 
L 356.158517 265.072131 
L 354.547432 265.935329 
L 352.994339 266.89897 
L 351.50549 267.959174 
L 350.086882 269.111672 
L 348.744225 270.351824 
L 347.482927 271.674635 
L 346.308066 273.07478 
L 345.224373 274.54662 
L 344.236212 276.084229 
L 343.347562 277.681415 
L 342.562 279.331747 
L 341.882691 281.02858 
L 341.312369 282.765081 
L 340.853331 284.534258 
L 340.507425 286.328987 
L 340.276045 288.142041 
L 340.160121 289.96612 
L 340.160121 291.79388 
L 340.276045 293.617959 
L 340.507425 295.431013 
L 340.853331 297.225742 
L 341.312369 298.994919 
L 341.882691 300.73142 
L 342.562 302.428253 
L 343.347562 304.078585 
L 344.236212 305.675771 
L 345.224373 307.21338 
L 346.308066 308.68522 
L 347.482927 310.085365 
L 348.744225 311.408176 
L 350.086882 312.648328 
L 351.50549 313.800826 
L 352.994339 314.86103 
L 354.547432 315.824671 
L 356.158517 316.687869 
L 357.821105 317.447148 
L 359.528502 318.09945 
L 361.273833 318.642149 
L 363.050071 319.073059 
L 364.850062 319.390446 
L 366.666559 319.593032 
L 368.492248 319.68 
L 370.319777 319.651001 
L 372.141787 319.506151 
L 373.950942 319.246034 
L 375.739957 318.871697 
L 377.501628 318.384647 
L 379.228862 317.786845 
L 380.914704 317.080699 
L 382.552364 316.269053 
L 384.13525 315.355173 
L 385.656987 314.342741 
L 387.111448 313.235832 
L 388.492776 312.038905 
L 389.795409 310.756777 
L 391.014102 309.394614 
L 392.143948 307.957898 
L 393.180397 306.452416 
L 394.119275 304.884229 
L 394.956803 303.259652 
L 395.689607 301.585226 
L 396.314738 299.867695 
L 396.829677 298.113973 
L 397.232352 296.331122 
L 397.52114 294.526322 
L 397.69488 292.706839 
L 397.752871 290.88 
" style="fill:none;stroke:#0000ff;stroke-linecap:square;stroke-width:1.5;"/>
   </g>
   <g id="line2d_15">
    <path clip-path="url(#p461c8353a0)" d="M 378.550454 290.88 
L 378.531123 290.271054 
L 378.47321 289.664559 
L 378.376947 289.062959 
L 378.242722 288.468676 
L 378.071076 287.884102 
L 377.862699 287.311591 
L 377.618431 286.753449 
L 377.339255 286.211924 
L 377.026296 285.689195 
L 376.680813 285.187367 
L 376.304198 284.708462 
L 375.897967 284.254408 
L 375.463755 283.827032 
L 375.003313 283.428056 
L 374.518492 283.059086 
L 374.011247 282.721609 
L 373.483618 282.416982 
L 372.937731 282.146434 
L 372.375784 281.911052 
L 371.80004 281.711784 
L 371.212816 281.549434 
L 370.616477 281.424655 
L 370.013426 281.33795 
L 369.406089 281.289666 
L 368.796913 281.28 
L 368.18835 281.308989 
L 367.582851 281.376518 
L 366.982854 281.482314 
L 366.390774 281.62595 
L 365.808997 281.80685 
L 365.239865 282.024284 
L 364.685669 282.277377 
L 364.148641 282.56511 
L 363.630943 282.886323 
L 363.13466 283.239725 
L 362.661791 283.623891 
L 362.214238 284.037275 
L 361.793806 284.478212 
L 361.402185 284.944927 
L 361.040954 285.43554 
L 360.711567 285.948076 
L 360.415351 286.480472 
L 360.153497 287.030582 
L 359.92706 287.596193 
L 359.736953 288.175027 
L 359.58394 288.764753 
L 359.468638 289.362996 
L 359.391512 289.967347 
L 359.35287 290.575373 
L 359.35287 291.184627 
L 359.391512 291.792653 
L 359.468638 292.397004 
L 359.58394 292.995247 
L 359.736953 293.584973 
L 359.92706 294.163807 
L 360.153497 294.729418 
L 360.415351 295.279528 
L 360.711567 295.811924 
L 361.040954 296.32446 
L 361.402185 296.815073 
L 361.793806 297.281788 
L 362.214238 297.722725 
L 362.661791 298.136109 
L 363.13466 298.520275 
L 363.630943 298.873677 
L 364.148641 299.19489 
L 364.685669 299.482623 
L 365.239865 299.735716 
L 365.808997 299.95315 
L 366.390774 300.13405 
L 366.982854 300.277686 
L 367.582851 300.383482 
L 368.18835 300.451011 
L 368.796913 300.48 
L 369.406089 300.470334 
L 370.013426 300.42205 
L 370.616477 300.335345 
L 371.212816 300.210566 
L 371.80004 300.048216 
L 372.375784 299.848948 
L 372.937731 299.613566 
L 373.483618 299.343018 
L 374.011247 299.038391 
L 374.518492 298.700914 
L 375.003313 298.331944 
L 375.463755 297.932968 
L 375.897967 297.505592 
L 376.304198 297.051538 
L 376.680813 296.572633 
L 377.026296 296.070805 
L 377.339255 295.548076 
L 377.618431 295.006551 
L 377.862699 294.448409 
L 378.071076 293.875898 
L 378.242722 293.291324 
L 378.376947 292.697041 
L 378.47321 292.095441 
L 378.531123 291.488946 
L 378.550454 290.88 
" style="fill:none;stroke:#00bfbf;stroke-dasharray:11.1,4.8;stroke-dashoffset:0;stroke-width:3;"/>
   </g>
   <g id="line2d_16">
    <path clip-path="url(#p461c8353a0)" d="M 570.574624 290.88 
L 570.168687 278.092128 
L 568.95251 265.355749 
L 566.930991 252.722146 
L 564.112269 240.242192 
L 560.507694 227.966138 
L 556.131781 215.943416 
L 551.002151 204.222438 
L 545.139457 192.850399 
L 538.567308 181.87309 
L 531.312166 171.334714 
L 523.403246 161.277705 
L 514.872395 151.742558 
L 505.753962 142.767668 
L 496.084666 134.389175 
L 485.903439 126.640815 
L 475.25128 119.553788 
L 464.17108 113.156631 
L 452.707455 107.475104 
L 440.906565 102.532084 
L 428.815928 98.347474 
L 416.48423 94.938124 
L 403.961125 92.317764 
L 391.297039 90.496943 
L 378.542967 89.482994 
L 365.750264 89.28 
L 352.970442 89.888778 
L 340.254962 91.306877 
L 327.655023 93.528586 
L 315.221361 96.544959 
L 303.004043 100.343852 
L 291.052263 104.909966 
L 279.414146 110.224916 
L 268.136556 116.2673 
L 257.264902 123.012787 
L 246.842962 130.434217 
L 236.912701 138.501706 
L 227.514105 147.182768 
L 218.685018 156.442448 
L 210.460992 166.24346 
L 202.875142 176.54634 
L 195.958014 187.309601 
L 189.737461 198.489904 
L 184.23853 210.042229 
L 179.483364 221.920059 
L 175.491111 234.075566 
L 172.277845 246.459805 
L 169.856505 259.022909 
L 168.236841 271.714289 
L 167.425376 284.482843 
L 167.425376 297.277157 
L 168.236841 310.045711 
L 169.856505 322.737091 
L 172.277845 335.300195 
L 175.491111 347.684434 
L 179.483364 359.839941 
L 184.23853 371.717771 
L 189.737461 383.270096 
L 195.958014 394.450399 
L 202.875142 405.21366 
L 210.460992 415.51654 
L 218.685018 425.317552 
L 227.514105 434.577232 
L 236.912701 443.258294 
L 246.842962 451.325783 
L 257.264902 458.747213 
L 268.136556 465.4927 
L 279.414146 471.535084 
L 291.052263 476.850034 
L 303.004043 481.416148 
L 315.221361 485.215041 
L 327.655023 488.231414 
L 340.254962 490.453123 
L 352.970442 491.871222 
L 365.750264 492.48 
L 378.542967 492.277006 
L 391.297039 491.263057 
L 403.961125 489.442236 
L 416.48423 486.821876 
L 428.815928 483.412526 
L 440.906565 479.227916 
L 452.707455 474.284896 
L 464.17108 468.603369 
L 475.25128 462.206212 
L 485.903439 455.119185 
L 496.084666 447.370825 
L 505.753962 438.992332 
L 514.872395 430.017442 
L 523.403246 420.482295 
L 531.312166 410.425286 
L 538.567308 399.88691 
L 545.139457 388.909601 
L 551.002151 377.537562 
L 556.131781 365.816584 
L 560.507694 353.793862 
L 564.112269 341.517808 
L 566.930991 329.037854 
L 568.95251 316.404251 
L 570.168687 303.667872 
L 570.574624 290.88 
" style="fill:none;stroke:#ff0000;stroke-dasharray:11.1,4.8;stroke-dashoffset:0;stroke-width:3;"/>
   </g>
   <g id="line2d_17">
    <path clip-path="url(#p461c8353a0)" d="M 397.752871 290.88 
L 397.69488 289.053161 
L 397.52114 287.233678 
L 397.232352 285.428878 
L 396.829677 283.646027 
L 396.314738 281.892305 
L 395.689607 280.174774 
L 394.956803 278.500348 
L 394.119275 276.875771 
L 393.180397 275.307584 
" style="fill:none;stroke:#00bfbf;stroke-dasharray:11.1,4.8;stroke-dashoffset:0;stroke-width:3;"/>
   </g>
   <g id="line2d_18">
    <path clip-path="url(#p461c8353a0)" d="M 345.224373 274.54662 
L 344.236212 276.084229 
L 343.347562 277.681415 
L 342.562 279.331747 
L 341.882691 281.02858 
L 341.312369 282.765081 
L 340.853331 284.534258 
L 340.507425 286.328987 
L 340.276045 288.142041 
L 340.160121 289.96612 
L 340.160121 291.79388 
L 340.276045 293.617959 
L 340.507425 295.431013 
L 340.853331 297.225742 
L 341.312369 298.994919 
L 341.882691 300.73142 
L 342.562 302.428253 
L 343.347562 304.078585 
L 344.236212 305.675771 
L 345.224373 307.21338 
" style="fill:none;stroke:#00bfbf;stroke-dasharray:11.1,4.8;stroke-dashoffset:0;stroke-width:3;"/>
   </g>
   <g id="line2d_19">
    <path clip-path="url(#p461c8353a0)" d="M 393.180397 306.452416 
L 394.119275 304.884229 
L 394.956803 303.259652 
L 395.689607 301.585226 
L 396.314738 299.867695 
L 396.829677 298.113973 
L 397.232352 296.331122 
L 397.52114 294.526322 
L 397.69488 292.706839 
L 397.752871 290.88 
" style="fill:none;stroke:#00bfbf;stroke-dasharray:11.1,4.8;stroke-dashoffset:0;stroke-width:3;"/>
   </g>
   <g id="line2d_20">
    <path clip-path="url(#p461c8353a0)" d="M 392.143948 273.802102 
L 391.014102 272.365386 
L 389.795409 271.003223 
L 388.492776 269.721095 
L 387.111448 268.524168 
L 385.656987 267.417259 
L 384.13525 266.404827 
L 382.552364 265.490947 
L 380.914704 264.679301 
L 379.228862 263.973155 
L 377.501628 263.375353 
L 375.739957 262.888303 
L 373.950942 262.513966 
L 372.141787 262.253849 
L 370.319777 262.108999 
L 368.492248 262.08 
L 366.666559 262.166968 
L 364.850062 262.369554 
L 363.050071 262.686941 
L 361.273833 263.117851 
L 359.528502 263.66055 
L 357.821105 264.312852 
L 356.158517 265.072131 
L 354.547432 265.935329 
L 352.994339 266.89897 
L 351.50549 267.959174 
L 350.086882 269.111672 
L 348.744225 270.351824 
L 347.482927 271.674635 
L 346.308066 273.07478 
" style="fill:none;stroke:#ff0000;stroke-dasharray:11.1,4.8;stroke-dashoffset:0;stroke-width:3;"/>
   </g>
   <g id="line2d_21">
    <path clip-path="url(#p461c8353a0)" d="M 346.308066 308.68522 
L 347.482927 310.085365 
L 348.744225 311.408176 
L 350.086882 312.648328 
L 351.50549 313.800826 
L 352.994339 314.86103 
L 354.547432 315.824671 
L 356.158517 316.687869 
L 357.821105 317.447148 
L 359.528502 318.09945 
L 361.273833 318.642149 
L 363.050071 319.073059 
L 364.850062 319.390446 
L 366.666559 319.593032 
L 368.492248 319.68 
L 370.319777 319.651001 
L 372.141787 319.506151 
L 373.950942 319.246034 
L 375.739957 318.871697 
L 377.501628 318.384647 
L 379.228862 317.786845 
L 380.914704 317.080699 
L 382.552364 316.269053 
L 384.13525 315.355173 
L 385.656987 314.342741 
L 387.111448 313.235832 
L 388.492776 312.038905 
L 389.795409 310.756777 
L 391.014102 309.394614 
L 392.143948 307.957898 
" style="fill:none;stroke:#ff0000;stroke-dasharray:11.1,4.8;stroke-dashoffset:0;stroke-width:3;"/>
   </g>
   <g id="patch_3">
    <path d="M 90 512.64 
L 90 69.12 
" style="fill:none;stroke:#000000;stroke-linecap:square;stroke-linejoin:miter;stroke-width:0.8;"/>
   </g>
   <g id="patch_4">
    <path d="M 648 512.64 
L 648 69.12 
" style="fill:none;stroke:#000000;stroke-linecap:square;stroke-linejoin:miter;stroke-width:0.8;"/>
   </g>
   <g id="patch_5">
    <path d="M 90 512.64 
L 648 512.64 
" style="fill:none;stroke:#000000;stroke-linecap:square;stroke-linejoin:miter;stroke-width:0.8;"/>
   </g>
   <g id="patch_6">
    <path d="M 90 69.12 
L 648 69.12 
" style="fill:none;stroke:#000000;stroke-linecap:square;stroke-linejoin:miter;stroke-width:0.8;"/>
   </g>
   <g id="text_11">
    <!-- Example of 5.3.1.1 -->
    <g transform="translate(312.380625 63.12)scale(0.12 -0.12)">
     <defs>
      <path d="M 9.8125 72.90625 
L 55.90625 72.90625 
L 55.90625 64.59375 
L 19.671875 64.59375 
L 19.671875 43.015625 
L 54.390625 43.015625 
L 54.390625 34.71875 
L 19.671875 34.71875 
L 19.671875 8.296875 
L 56.78125 8.296875 
L 56.78125 0 
L 9.8125 0 
z
" id="DejaVuSans-69"/>
      <path d="M 54.890625 54.6875 
L 35.109375 28.078125 
L 55.90625 0 
L 45.3125 0 
L 29.390625 21.484375 
L 13.484375 0 
L 2.875 0 
L 24.125 28.609375 
L 4.6875 54.6875 
L 15.28125 54.6875 
L 29.78125 35.203125 
L 44.28125 54.6875 
z
" id="DejaVuSans-120"/>
      <path d="M 34.28125 27.484375 
Q 23.390625 27.484375 19.1875 25 
Q 14.984375 22.515625 14.984375 16.5 
Q 14.984375 11.71875 18.140625 8.90625 
Q 21.296875 6.109375 26.703125 6.109375 
Q 34.1875 6.109375 38.703125 11.40625 
Q 43.21875 16.703125 43.21875 25.484375 
L 43.21875 27.484375 
z
M 52.203125 31.203125 
L 52.203125 0 
L 43.21875 0 
L 43.21875 8.296875 
Q 40.140625 3.328125 35.546875 0.953125 
Q 30.953125 -1.421875 24.3125 -1.421875 
Q 15.921875 -1.421875 10.953125 3.296875 
Q 6 8.015625 6 15.921875 
Q 6 25.140625 12.171875 29.828125 
Q 18.359375 34.515625 30.609375 34.515625 
L 43.21875 34.515625 
L 43.21875 35.40625 
Q 43.21875 41.609375 39.140625 45 
Q 35.0625 48.390625 27.6875 48.390625 
Q 23 48.390625 18.546875 47.265625 
Q 14.109375 46.140625 10.015625 43.890625 
L 10.015625 52.203125 
Q 14.9375 54.109375 19.578125 55.046875 
Q 24.21875 56 28.609375 56 
Q 40.484375 56 46.34375 49.84375 
Q 52.203125 43.703125 52.203125 31.203125 
z
" id="DejaVuSans-97"/>
      <path d="M 52 44.1875 
Q 55.375 50.25 60.0625 53.125 
Q 64.75 56 71.09375 56 
Q 79.640625 56 84.28125 50.015625 
Q 88.921875 44.046875 88.921875 33.015625 
L 88.921875 0 
L 79.890625 0 
L 79.890625 32.71875 
Q 79.890625 40.578125 77.09375 44.375 
Q 74.3125 48.1875 68.609375 48.1875 
Q 61.625 48.1875 57.5625 43.546875 
Q 53.515625 38.921875 53.515625 30.90625 
L 53.515625 0 
L 44.484375 0 
L 44.484375 32.71875 
Q 44.484375 40.625 41.703125 44.40625 
Q 38.921875 48.1875 33.109375 48.1875 
Q 26.21875 48.1875 22.15625 43.53125 
Q 18.109375 38.875 18.109375 30.90625 
L 18.109375 0 
L 9.078125 0 
L 9.078125 54.6875 
L 18.109375 54.6875 
L 18.109375 46.1875 
Q 21.1875 51.21875 25.484375 53.609375 
Q 29.78125 56 35.6875 56 
Q 41.65625 56 45.828125 52.96875 
Q 50 49.953125 52 44.1875 
z
" id="DejaVuSans-109"/>
      <path d="M 18.109375 8.203125 
L 18.109375 -20.796875 
L 9.078125 -20.796875 
L 9.078125 54.6875 
L 18.109375 54.6875 
L 18.109375 46.390625 
Q 20.953125 51.265625 25.265625 53.625 
Q 29.59375 56 35.59375 56 
Q 45.5625 56 51.78125 48.09375 
Q 58.015625 40.1875 58.015625 27.296875 
Q 58.015625 14.40625 51.78125 6.484375 
Q 45.5625 -1.421875 35.59375 -1.421875 
Q 29.59375 -1.421875 25.265625 0.953125 
Q 20.953125 3.328125 18.109375 8.203125 
z
M 48.6875 27.296875 
Q 48.6875 37.203125 44.609375 42.84375 
Q 40.53125 48.484375 33.40625 48.484375 
Q 26.265625 48.484375 22.1875 42.84375 
Q 18.109375 37.203125 18.109375 27.296875 
Q 18.109375 17.390625 22.1875 11.75 
Q 26.265625 6.109375 33.40625 6.109375 
Q 40.53125 6.109375 44.609375 11.75 
Q 48.6875 17.390625 48.6875 27.296875 
z
" id="DejaVuSans-112"/>
      <path d="M 9.421875 75.984375 
L 18.40625 75.984375 
L 18.40625 0 
L 9.421875 0 
z
" id="DejaVuSans-108"/>
      <path d="M 56.203125 29.59375 
L 56.203125 25.203125 
L 14.890625 25.203125 
Q 15.484375 15.921875 20.484375 11.0625 
Q 25.484375 6.203125 34.421875 6.203125 
Q 39.59375 6.203125 44.453125 7.46875 
Q 49.3125 8.734375 54.109375 11.28125 
L 54.109375 2.78125 
Q 49.265625 0.734375 44.1875 -0.34375 
Q 39.109375 -1.421875 33.890625 -1.421875 
Q 20.796875 -1.421875 13.15625 6.1875 
Q 5.515625 13.8125 5.515625 26.8125 
Q 5.515625 40.234375 12.765625 48.109375 
Q 20.015625 56 32.328125 56 
Q 43.359375 56 49.78125 48.890625 
Q 56.203125 41.796875 56.203125 29.59375 
z
M 47.21875 32.234375 
Q 47.125 39.59375 43.09375 43.984375 
Q 39.0625 48.390625 32.421875 48.390625 
Q 24.90625 48.390625 20.390625 44.140625 
Q 15.875 39.890625 15.1875 32.171875 
z
" id="DejaVuSans-101"/>
      <path id="DejaVuSans-32"/>
      <path d="M 30.609375 48.390625 
Q 23.390625 48.390625 19.1875 42.75 
Q 14.984375 37.109375 14.984375 27.296875 
Q 14.984375 17.484375 19.15625 11.84375 
Q 23.34375 6.203125 30.609375 6.203125 
Q 37.796875 6.203125 41.984375 11.859375 
Q 46.1875 17.53125 46.1875 27.296875 
Q 46.1875 37.015625 41.984375 42.703125 
Q 37.796875 48.390625 30.609375 48.390625 
z
M 30.609375 56 
Q 42.328125 56 49.015625 48.375 
Q 55.71875 40.765625 55.71875 27.296875 
Q 55.71875 13.875 49.015625 6.21875 
Q 42.328125 -1.421875 30.609375 -1.421875 
Q 18.84375 -1.421875 12.171875 6.21875 
Q 5.515625 13.875 5.515625 27.296875 
Q 5.515625 40.765625 12.171875 48.375 
Q 18.84375 56 30.609375 56 
z
" id="DejaVuSans-111"/>
      <path d="M 37.109375 75.984375 
L 37.109375 68.5 
L 28.515625 68.5 
Q 23.6875 68.5 21.796875 66.546875 
Q 19.921875 64.59375 19.921875 59.515625 
L 19.921875 54.6875 
L 34.71875 54.6875 
L 34.71875 47.703125 
L 19.921875 47.703125 
L 19.921875 0 
L 10.890625 0 
L 10.890625 47.703125 
L 2.296875 47.703125 
L 2.296875 54.6875 
L 10.890625 54.6875 
L 10.890625 58.5 
Q 10.890625 67.625 15.140625 71.796875 
Q 19.390625 75.984375 28.609375 75.984375 
z
" id="DejaVuSans-102"/>
      <path d="M 10.796875 72.90625 
L 49.515625 72.90625 
L 49.515625 64.59375 
L 19.828125 64.59375 
L 19.828125 46.734375 
Q 21.96875 47.46875 24.109375 47.828125 
Q 26.265625 48.1875 28.421875 48.1875 
Q 40.625 48.1875 47.75 41.5 
Q 54.890625 34.8125 54.890625 23.390625 
Q 54.890625 11.625 47.5625 5.09375 
Q 40.234375 -1.421875 26.90625 -1.421875 
Q 22.3125 -1.421875 17.546875 -0.640625 
Q 12.796875 0.140625 7.71875 1.703125 
L 7.71875 11.625 
Q 12.109375 9.234375 16.796875 8.0625 
Q 21.484375 6.890625 26.703125 6.890625 
Q 35.15625 6.890625 40.078125 11.328125 
Q 45.015625 15.765625 45.015625 23.390625 
Q 45.015625 31 40.078125 35.4375 
Q 35.15625 39.890625 26.703125 39.890625 
Q 22.75 39.890625 18.8125 39.015625 
Q 14.890625 38.140625 10.796875 36.28125 
z
" id="DejaVuSans-53"/>
      <path d="M 10.6875 12.40625 
L 21 12.40625 
L 21 0 
L 10.6875 0 
z
" id="DejaVuSans-46"/>
     </defs>
     <use xlink:href="#DejaVuSans-69"/>
     <use x="63.183594" xlink:href="#DejaVuSans-120"/>
     <use x="122.363281" xlink:href="#DejaVuSans-97"/>
     <use x="183.642578" xlink:href="#DejaVuSans-109"/>
     <use x="281.054688" xlink:href="#DejaVuSans-112"/>
     <use x="344.53125" xlink:href="#DejaVuSans-108"/>
     <use x="372.314453" xlink:href="#DejaVuSans-101"/>
     <use x="433.837891" xlink:href="#DejaVuSans-32"/>
     <use x="465.625" xlink:href="#DejaVuSans-111"/>
     <use x="526.806641" xlink:href="#DejaVuSans-102"/>
     <use x="562.011719" xlink:href="#DejaVuSans-32"/>
     <use x="593.798828" xlink:href="#DejaVuSans-53"/>
     <use x="657.421875" xlink:href="#DejaVuSans-46"/>
     <use x="689.208984" xlink:href="#DejaVuSans-51"/>
     <use x="752.832031" xlink:href="#DejaVuSans-46"/>
     <use x="784.619141" xlink:href="#DejaVuSans-49"/>
     <use x="848.242188" xlink:href="#DejaVuSans-46"/>
     <use x="880.029297" xlink:href="#DejaVuSans-49"/>
    </g>
   </g>
  </g>
 </g>
 <defs>
  <clipPath id="p461c8353a0">
   <rect height="443.52" width="558" x="90" y="69.12"/>
  </clipPath>
 </defs>
</svg>
